# A-wheel — lifted from a 2D silhouette by aide.lift
o A-wheel
v -13.000 -4.000 -1.500
v -13.000 -3.000 -1.500
v -13.000 -3.000 -2.500
v -13.000 -4.000 -2.500
v -12.000 -4.000 -2.500
v -12.000 -4.000 -1.500
v -12.000 -3.000 -2.500
v -13.000 -4.000 -0.500
v -13.000 -3.000 -0.500
v -12.000 -4.000 -0.500
v -13.000 -4.000 0.500
v -13.000 -3.000 0.500
v -12.000 -4.000 0.500
v -13.000 -4.000 1.500
v -13.000 -3.000 1.500
v -12.000 -4.000 1.500
v -13.000 -4.000 2.500
v -13.000 -3.000 2.500
v -12.000 -4.000 2.500
v -12.000 -3.000 2.500
v -13.000 -2.000 -2.500
v -13.000 -2.000 -3.500
v -13.000 -3.000 -3.500
v -12.000 -3.000 -3.500
v -12.000 -2.000 -3.500
v -13.000 -2.000 -1.500
v -13.000 -2.000 -0.500
v -13.000 -2.000 0.500
v -13.000 -2.000 1.500
v -13.000 -2.000 2.500
v -13.000 -3.000 3.500
v -13.000 -2.000 3.500
v -12.000 -3.000 3.500
v -12.000 -2.000 3.500
v -13.000 -1.000 -3.500
v -13.000 -1.000 -4.500
v -13.000 -2.000 -4.500
v -12.000 -2.000 -4.500
v -12.000 -1.000 -4.500
v -13.000 -1.000 -2.500
v -13.000 -1.000 -1.500
v -13.000 -1.000 -0.500
v -13.000 -1.000 0.500
v -13.000 -1.000 1.500
v -13.000 -1.000 2.500
v -13.000 -1.000 3.500
v -13.000 -2.000 4.500
v -13.000 -1.000 4.500
v -12.000 -2.000 4.500
v -12.000 -1.000 4.500
v -13.000 0.000 -3.500
v -13.000 0.000 -4.500
v -12.000 0.000 -4.500
v -13.000 0.000 -2.500
v -13.000 0.000 -1.500
v -13.000 0.000 -0.500
v -13.000 0.000 0.500
v -13.000 0.000 1.500
v -13.000 0.000 2.500
v -13.000 0.000 3.500
v -13.000 0.000 4.500
v -12.000 0.000 4.500
v -13.000 1.000 -3.500
v -13.000 1.000 -4.500
v -12.000 1.000 -4.500
v -13.000 1.000 -2.500
v -13.000 1.000 -1.500
v -13.000 1.000 -0.500
v -13.000 1.000 0.500
v -13.000 1.000 1.500
v -13.000 1.000 2.500
v -13.000 1.000 3.500
v -13.000 1.000 4.500
v -12.000 1.000 4.500
v -13.000 2.000 -3.500
v -13.000 2.000 -4.500
v -12.000 2.000 -3.500
v -12.000 2.000 -4.500
v -13.000 2.000 -2.500
v -13.000 2.000 -1.500
v -13.000 2.000 -0.500
v -13.000 2.000 0.500
v -13.000 2.000 1.500
v -13.000 2.000 2.500
v -13.000 2.000 3.500
v -13.000 2.000 4.500
v -12.000 2.000 4.500
v -12.000 2.000 3.500
v -13.000 3.000 -2.500
v -13.000 3.000 -3.500
v -12.000 3.000 -2.500
v -12.000 3.000 -3.500
v -13.000 3.000 -1.500
v -13.000 3.000 -0.500
v -13.000 3.000 0.500
v -13.000 3.000 1.500
v -13.000 3.000 2.500
v -13.000 3.000 3.500
v -12.000 3.000 3.500
v -12.000 3.000 2.500
v -13.000 4.000 -1.500
v -13.000 4.000 -2.500
v -12.000 4.000 -1.500
v -12.000 4.000 -2.500
v -13.000 4.000 -0.500
v -12.000 4.000 -0.500
v -13.000 4.000 0.500
v -12.000 4.000 0.500
v -13.000 4.000 1.500
v -12.000 4.000 1.500
v -13.000 4.000 2.500
v -12.000 4.000 2.500
v -11.000 -4.000 -2.500
v -11.000 -4.000 -1.500
v -11.000 -3.000 -2.500
v -11.000 -4.000 -0.500
v -11.000 -4.000 0.500
v -11.000 -4.000 1.500
v -11.000 -4.000 2.500
v -11.000 -3.000 2.500
v -11.000 -3.000 -3.500
v -11.000 -2.000 -3.500
v -11.000 -3.000 3.500
v -11.000 -2.000 3.500
v -11.000 -2.000 -4.500
v -11.000 -1.000 -4.500
v -11.000 -2.000 4.500
v -11.000 -1.000 4.500
v -11.000 0.000 -4.500
v -11.000 0.000 4.500
v -11.000 1.000 -4.500
v -11.000 1.000 4.500
v -11.000 2.000 -3.500
v -11.000 2.000 -4.500
v -11.000 2.000 4.500
v -11.000 2.000 3.500
v -11.000 3.000 -2.500
v -11.000 3.000 -3.500
v -11.000 3.000 3.500
v -11.000 3.000 2.500
v -11.000 4.000 -1.500
v -11.000 4.000 -2.500
v -11.000 4.000 -0.500
v -11.000 4.000 0.500
v -11.000 4.000 1.500
v -11.000 4.000 2.500
v -10.000 -4.000 -2.500
v -10.000 -4.000 -1.500
v -10.000 -3.000 -2.500
v -10.000 -4.000 -0.500
v -10.000 -4.000 0.500
v -10.000 -4.000 1.500
v -10.000 -4.000 2.500
v -10.000 -3.000 2.500
v -10.000 -3.000 -3.500
v -10.000 -2.000 -3.500
v -10.000 -3.000 3.500
v -10.000 -2.000 3.500
v -10.000 -2.000 -4.500
v -10.000 -1.000 -4.500
v -10.000 -2.000 4.500
v -10.000 -1.000 4.500
v -10.000 0.000 -4.500
v -10.000 0.000 4.500
v -10.000 1.000 -4.500
v -10.000 1.000 4.500
v -10.000 2.000 -3.500
v -10.000 2.000 -4.500
v -10.000 2.000 4.500
v -10.000 2.000 3.500
v -10.000 3.000 -2.500
v -10.000 3.000 -3.500
v -10.000 3.000 3.500
v -10.000 3.000 2.500
v -10.000 4.000 -1.500
v -10.000 4.000 -2.500
v -10.000 4.000 -0.500
v -10.000 4.000 0.500
v -10.000 4.000 1.500
v -10.000 4.000 2.500
v -9.000 -4.000 -2.500
v -9.000 -4.000 -1.500
v -9.000 -3.000 -2.500
v -9.000 -4.000 -0.500
v -9.000 -4.000 0.500
v -9.000 -4.000 1.500
v -9.000 -4.000 2.500
v -9.000 -3.000 2.500
v -9.000 -3.000 -3.500
v -9.000 -2.000 -3.500
v -9.000 -3.000 3.500
v -9.000 -2.000 3.500
v -9.000 -2.000 -4.500
v -9.000 -1.000 -4.500
v -9.000 -2.000 4.500
v -9.000 -1.000 4.500
v -9.000 0.000 -4.500
v -9.000 0.000 4.500
v -9.000 1.000 -4.500
v -9.000 1.000 4.500
v -9.000 2.000 -3.500
v -9.000 2.000 -4.500
v -9.000 2.000 4.500
v -9.000 2.000 3.500
v -9.000 3.000 -2.500
v -9.000 3.000 -3.500
v -9.000 3.000 3.500
v -9.000 3.000 2.500
v -9.000 4.000 -1.500
v -9.000 4.000 -2.500
v -9.000 4.000 -0.500
v -9.000 4.000 0.500
v -9.000 4.000 1.500
v -9.000 4.000 2.500
v -8.000 -4.000 -2.500
v -8.000 -4.000 -1.500
v -8.000 -3.000 -2.500
v -8.000 -4.000 -0.500
v -8.000 -4.000 0.500
v -8.000 -4.000 1.500
v -8.000 -4.000 2.500
v -8.000 -3.000 2.500
v -8.000 -3.000 -3.500
v -8.000 -2.000 -3.500
v -8.000 -3.000 3.500
v -8.000 -2.000 3.500
v -8.000 -2.000 -4.500
v -8.000 -1.000 -4.500
v -8.000 -2.000 4.500
v -8.000 -1.000 4.500
v -8.000 0.000 -4.500
v -8.000 0.000 4.500
v -8.000 1.000 -4.500
v -8.000 1.000 4.500
v -8.000 2.000 -3.500
v -8.000 2.000 -4.500
v -8.000 2.000 4.500
v -8.000 2.000 3.500
v -8.000 3.000 -2.500
v -8.000 3.000 -3.500
v -8.000 3.000 3.500
v -8.000 3.000 2.500
v -8.000 4.000 -1.500
v -8.000 4.000 -2.500
v -8.000 4.000 -0.500
v -8.000 4.000 0.500
v -8.000 4.000 1.500
v -8.000 4.000 2.500
v -7.000 -4.000 -2.500
v -7.000 -4.000 -1.500
v -7.000 -3.000 -2.500
v -7.000 -4.000 -0.500
v -7.000 -4.000 0.500
v -7.000 -4.000 1.500
v -7.000 -4.000 2.500
v -7.000 -3.000 2.500
v -7.000 -3.000 -3.500
v -7.000 -2.000 -3.500
v -7.000 -3.000 3.500
v -7.000 -2.000 3.500
v -7.000 -2.000 -4.500
v -7.000 -1.000 -4.500
v -7.000 -2.000 4.500
v -7.000 -1.000 4.500
v -7.000 0.000 -4.500
v -7.000 0.000 4.500
v -7.000 1.000 -4.500
v -7.000 1.000 4.500
v -7.000 2.000 -3.500
v -7.000 2.000 -4.500
v -7.000 2.000 4.500
v -7.000 2.000 3.500
v -7.000 3.000 -2.500
v -7.000 3.000 -3.500
v -7.000 3.000 3.500
v -7.000 3.000 2.500
v -7.000 4.000 -1.500
v -7.000 4.000 -2.500
v -7.000 4.000 -0.500
v -7.000 4.000 0.500
v -7.000 4.000 1.500
v -7.000 4.000 2.500
v -6.000 -4.000 -2.500
v -6.000 -3.000 -2.500
v -6.000 -3.000 -1.500
v -6.000 -4.000 -1.500
v -6.000 -3.000 -0.500
v -6.000 -4.000 -0.500
v -6.000 -3.000 0.500
v -6.000 -4.000 0.500
v -6.000 -3.000 1.500
v -6.000 -4.000 1.500
v -6.000 -3.000 2.500
v -6.000 -4.000 2.500
v -6.000 -3.000 -3.500
v -6.000 -2.000 -3.500
v -6.000 -2.000 -2.500
v -6.000 -2.000 -1.500
v -6.000 -2.000 -0.500
v -6.000 -2.000 0.500
v -6.000 -2.000 1.500
v -6.000 -2.000 2.500
v -6.000 -2.000 3.500
v -6.000 -3.000 3.500
v -6.000 -2.000 -4.500
v -6.000 -1.000 -4.500
v -6.000 -1.000 -3.500
v -6.000 -1.000 -2.500
v -6.000 -1.000 -1.500
v -6.000 -1.000 1.500
v -6.000 -1.000 2.500
v -6.000 -1.000 3.500
v -6.000 -1.000 4.500
v -6.000 -2.000 4.500
v -6.000 0.000 -4.500
v -6.000 0.000 -3.500
v -6.000 0.000 -2.500
v -6.000 0.000 2.500
v -6.000 0.000 3.500
v -6.000 0.000 4.500
v -6.000 1.000 -4.500
v -6.000 1.000 -3.500
v -6.000 1.000 -2.500
v -6.000 1.000 2.500
v -6.000 1.000 3.500
v -6.000 1.000 4.500
v -6.000 2.000 -4.500
v -6.000 2.000 -3.500
v -6.000 2.000 -2.500
v -6.000 2.000 -1.500
v -6.000 1.000 -1.500
v -6.000 1.000 1.500
v -6.000 2.000 1.500
v -6.000 2.000 2.500
v -6.000 2.000 3.500
v -6.000 2.000 4.500
v -6.000 3.000 -3.500
v -6.000 3.000 -2.500
v -6.000 3.000 -1.500
v -6.000 3.000 -0.500
v -6.000 2.000 -0.500
v -6.000 3.000 0.500
v -6.000 2.000 0.500
v -6.000 3.000 1.500
v -6.000 3.000 2.500
v -6.000 3.000 3.500
v -6.000 4.000 -2.500
v -6.000 4.000 -1.500
v -6.000 4.000 -0.500
v -6.000 4.000 0.500
v -6.000 4.000 1.500
v -6.000 4.000 2.500
v -5.000 -2.000 -1.500
v -5.000 -2.000 -0.500
v -5.000 -1.000 -1.500
v -5.000 -2.000 0.500
v -5.000 -2.000 1.500
v -5.000 -1.000 1.500
v -5.000 -1.000 -2.500
v -5.000 0.000 -2.500
v -5.000 -1.000 2.500
v -5.000 0.000 2.500
v -5.000 1.000 -1.500
v -5.000 1.000 -2.500
v -5.000 1.000 2.500
v -5.000 1.000 1.500
v -5.000 2.000 -0.500
v -5.000 2.000 -1.500
v -5.000 2.000 0.500
v -5.000 2.000 1.500
v -4.000 -2.000 -1.500
v -4.000 -2.000 -0.500
v -4.000 -1.000 -1.500
v -4.000 -2.000 0.500
v -4.000 -2.000 1.500
v -4.000 -1.000 1.500
v -4.000 -1.000 -2.500
v -4.000 0.000 -2.500
v -4.000 -1.000 2.500
v -4.000 0.000 2.500
v -4.000 1.000 -1.500
v -4.000 1.000 -2.500
v -4.000 1.000 2.500
v -4.000 1.000 1.500
v -4.000 2.000 -0.500
v -4.000 2.000 -1.500
v -4.000 2.000 0.500
v -4.000 2.000 1.500
v -3.000 -2.000 -1.500
v -3.000 -2.000 -0.500
v -3.000 -1.000 -1.500
v -3.000 -2.000 0.500
v -3.000 -2.000 1.500
v -3.000 -1.000 1.500
v -3.000 -1.000 -2.500
v -3.000 0.000 -2.500
v -3.000 -1.000 2.500
v -3.000 0.000 2.500
v -3.000 1.000 -1.500
v -3.000 1.000 -2.500
v -3.000 1.000 2.500
v -3.000 1.000 1.500
v -3.000 2.000 -0.500
v -3.000 2.000 -1.500
v -3.000 2.000 0.500
v -3.000 2.000 1.500
v -2.000 -2.000 -1.500
v -2.000 -2.000 -0.500
v -2.000 -1.000 -1.500
v -2.000 -2.000 0.500
v -2.000 -2.000 1.500
v -2.000 -1.000 1.500
v -2.000 -1.000 -2.500
v -2.000 0.000 -2.500
v -2.000 -1.000 2.500
v -2.000 0.000 2.500
v -2.000 1.000 -1.500
v -2.000 1.000 -2.500
v -2.000 1.000 2.500
v -2.000 1.000 1.500
v -2.000 2.000 -0.500
v -2.000 2.000 -1.500
v -2.000 2.000 0.500
v -2.000 2.000 1.500
v -1.000 -2.000 -1.500
v -1.000 -2.000 -0.500
v -1.000 -1.000 -1.500
v -1.000 -2.000 0.500
v -1.000 -2.000 1.500
v -1.000 -1.000 1.500
v -1.000 -1.000 -2.500
v -1.000 0.000 -2.500
v -1.000 -1.000 2.500
v -1.000 0.000 2.500
v -1.000 1.000 -1.500
v -1.000 1.000 -2.500
v -1.000 1.000 2.500
v -1.000 1.000 1.500
v -1.000 2.000 -0.500
v -1.000 2.000 -1.500
v -1.000 2.000 0.500
v -1.000 2.000 1.500
v 0.000 -2.000 -1.500
v 0.000 -2.000 -0.500
v 0.000 -1.000 -1.500
v 0.000 -2.000 0.500
v 0.000 -2.000 1.500
v 0.000 -1.000 1.500
v 0.000 -1.000 -2.500
v 0.000 0.000 -2.500
v 0.000 -1.000 2.500
v 0.000 0.000 2.500
v 0.000 1.000 -1.500
v 0.000 1.000 -2.500
v 0.000 1.000 2.500
v 0.000 1.000 1.500
v 0.000 2.000 -0.500
v 0.000 2.000 -1.500
v 0.000 2.000 0.500
v 0.000 2.000 1.500
v 1.000 -2.000 -1.500
v 1.000 -2.000 -0.500
v 1.000 -1.000 -1.500
v 1.000 -2.000 0.500
v 1.000 -2.000 1.500
v 1.000 -1.000 1.500
v 1.000 -1.000 -2.500
v 1.000 0.000 -2.500
v 1.000 -1.000 2.500
v 1.000 0.000 2.500
v 1.000 1.000 -1.500
v 1.000 1.000 -2.500
v 1.000 1.000 2.500
v 1.000 1.000 1.500
v 1.000 2.000 -0.500
v 1.000 2.000 -1.500
v 1.000 2.000 0.500
v 1.000 2.000 1.500
v 2.000 -2.000 -1.500
v 2.000 -2.000 -0.500
v 2.000 -1.000 -1.500
v 2.000 -2.000 0.500
v 2.000 -2.000 1.500
v 2.000 -1.000 1.500
v 2.000 -1.000 -2.500
v 2.000 0.000 -2.500
v 2.000 -1.000 2.500
v 2.000 0.000 2.500
v 2.000 1.000 -1.500
v 2.000 1.000 -2.500
v 2.000 1.000 2.500
v 2.000 1.000 1.500
v 2.000 2.000 -0.500
v 2.000 2.000 -1.500
v 2.000 2.000 0.500
v 2.000 2.000 1.500
v 2.000 -5.000 -1.500
v 2.000 -4.000 -1.500
v 2.000 -4.000 -2.500
v 2.000 -5.000 -2.500
v 3.000 -5.000 -2.500
v 3.000 -5.000 -1.500
v 3.000 -4.000 -2.500
v 2.000 -5.000 -0.500
v 2.000 -4.000 -0.500
v 3.000 -5.000 -0.500
v 2.000 -5.000 0.500
v 2.000 -4.000 0.500
v 3.000 -5.000 0.500
v 2.000 -5.000 1.500
v 2.000 -4.000 1.500
v 3.000 -5.000 1.500
v 2.000 -5.000 2.500
v 2.000 -4.000 2.500
v 3.000 -5.000 2.500
v 3.000 -4.000 2.500
v 2.000 -4.000 -3.500
v 2.000 -3.000 -3.500
v 2.000 -3.000 -4.500
v 2.000 -4.000 -4.500
v 3.000 -4.000 -4.500
v 3.000 -4.000 -3.500
v 3.000 -3.000 -4.500
v 2.000 -3.000 -2.500
v 2.000 -3.000 -1.500
v 2.000 -3.000 -0.500
v 2.000 -3.000 0.500
v 2.000 -3.000 1.500
v 2.000 -3.000 2.500
v 2.000 -4.000 3.500
v 2.000 -3.000 3.500
v 3.000 -4.000 3.500
v 2.000 -4.000 4.500
v 2.000 -3.000 4.500
v 3.000 -4.000 4.500
v 3.000 -3.000 4.500
v 2.000 -2.000 -3.500
v 2.000 -2.000 -4.500
v 3.000 -2.000 -4.500
v 2.000 -2.000 -2.500
v 2.000 -2.000 2.500
v 2.000 -2.000 3.500
v 2.000 -2.000 4.500
v 3.000 -2.000 4.500
v 2.000 -1.000 -4.500
v 2.000 -1.000 -5.500
v 2.000 -2.000 -5.500
v 3.000 -2.000 -5.500
v 3.000 -1.000 -5.500
v 2.000 -1.000 -3.500
v 2.000 -1.000 3.500
v 2.000 -1.000 4.500
v 2.000 -2.000 5.500
v 2.000 -1.000 5.500
v 3.000 -2.000 5.500
v 3.000 -1.000 5.500
v 2.000 0.000 -4.500
v 2.000 0.000 -5.500
v 3.000 0.000 -5.500
v 2.000 0.000 -3.500
v 2.000 0.000 3.500
v 2.000 0.000 4.500
v 2.000 0.000 5.500
v 3.000 0.000 5.500
v 2.000 1.000 -4.500
v 2.000 1.000 -5.500
v 3.000 1.000 -5.500
v 2.000 1.000 -3.500
v 2.000 1.000 3.500
v 2.000 1.000 4.500
v 2.000 1.000 5.500
v 3.000 1.000 5.500
v 2.000 2.000 -4.500
v 2.000 2.000 -5.500
v 3.000 2.000 -4.500
v 3.000 2.000 -5.500
v 2.000 2.000 -3.500
v 2.000 2.000 -2.500
v 2.000 2.000 2.500
v 2.000 2.000 3.500
v 2.000 2.000 4.500
v 2.000 2.000 5.500
v 3.000 2.000 5.500
v 3.000 2.000 4.500
v 2.000 3.000 -3.500
v 2.000 3.000 -4.500
v 3.000 3.000 -4.500
v 2.000 3.000 -2.500
v 2.000 3.000 -1.500
v 2.000 3.000 -0.500
v 2.000 3.000 0.500
v 2.000 3.000 1.500
v 2.000 3.000 2.500
v 2.000 3.000 3.500
v 2.000 3.000 4.500
v 3.000 3.000 4.500
v 2.000 4.000 -3.500
v 2.000 4.000 -4.500
v 3.000 4.000 -3.500
v 3.000 4.000 -4.500
v 2.000 4.000 -2.500
v 3.000 4.000 -2.500
v 2.000 4.000 -1.500
v 2.000 4.000 -0.500
v 2.000 4.000 0.500
v 2.000 4.000 1.500
v 2.000 4.000 2.500
v 2.000 4.000 3.500
v 3.000 4.000 3.500
v 3.000 4.000 2.500
v 2.000 4.000 4.500
v 3.000 4.000 4.500
v 2.000 5.000 -1.500
v 2.000 5.000 -2.500
v 3.000 5.000 -1.500
v 3.000 5.000 -2.500
v 2.000 5.000 -0.500
v 3.000 5.000 -0.500
v 2.000 5.000 0.500
v 3.000 5.000 0.500
v 2.000 5.000 1.500
v 3.000 5.000 1.500
v 2.000 5.000 2.500
v 3.000 5.000 2.500
v 3.000 -7.000 -2.500
v 3.000 -6.000 -2.500
v 3.000 -6.000 -3.500
v 3.000 -7.000 -3.500
v 4.000 -7.000 -3.500
v 4.000 -7.000 -2.500
v 4.000 -6.000 -3.500
v 3.000 -7.000 -1.500
v 3.000 -6.000 -1.500
v 4.000 -7.000 -1.500
v 3.000 -7.000 -0.500
v 3.000 -6.000 -0.500
v 4.000 -7.000 -0.500
v 3.000 -7.000 0.500
v 3.000 -6.000 0.500
v 4.000 -7.000 0.500
v 3.000 -7.000 1.500
v 3.000 -6.000 1.500
v 4.000 -7.000 1.500
v 3.000 -7.000 2.500
v 3.000 -6.000 2.500
v 4.000 -7.000 2.500
v 3.000 -7.000 3.500
v 3.000 -6.000 3.500
v 4.000 -7.000 3.500
v 4.000 -6.000 3.500
v 3.000 -5.000 -3.500
v 3.000 -5.000 -4.500
v 3.000 -6.000 -4.500
v 4.000 -6.000 -4.500
v 4.000 -5.000 -4.500
v 3.000 -5.000 3.500
v 3.000 -6.000 4.500
v 3.000 -5.000 4.500
v 4.000 -6.000 4.500
v 4.000 -5.000 4.500
v 3.000 -4.000 -5.500
v 3.000 -5.000 -5.500
v 4.000 -5.000 -5.500
v 4.000 -4.000 -5.500
v 3.000 -5.000 5.500
v 3.000 -4.000 5.500
v 4.000 -5.000 5.500
v 4.000 -4.000 5.500
v 3.000 -3.000 -5.500
v 3.000 -3.000 -6.500
v 3.000 -4.000 -6.500
v 4.000 -4.000 -6.500
v 4.000 -3.000 -6.500
v 3.000 -3.000 5.500
v 3.000 -4.000 6.500
v 3.000 -3.000 6.500
v 4.000 -4.000 6.500
v 4.000 -3.000 6.500
v 3.000 -2.000 -6.500
v 3.000 -2.000 -7.500
v 3.000 -3.000 -7.500
v 4.000 -3.000 -7.500
v 4.000 -2.000 -7.500
v 3.000 -2.000 6.500
v 3.000 -3.000 7.500
v 3.000 -2.000 7.500
v 4.000 -3.000 7.500
v 4.000 -2.000 7.500
v 3.000 -1.000 -6.500
v 3.000 -1.000 -7.500
v 4.000 -1.000 -7.500
v 3.000 -1.000 6.500
v 3.000 -1.000 7.500
v 4.000 -1.000 7.500
v 3.000 0.000 -6.500
v 3.000 0.000 -7.500
v 4.000 0.000 -7.500
v 3.000 0.000 6.500
v 3.000 0.000 7.500
v 4.000 0.000 7.500
v 3.000 1.000 -6.500
v 3.000 1.000 -7.500
v 4.000 1.000 -7.500
v 3.000 1.000 6.500
v 3.000 1.000 7.500
v 4.000 1.000 7.500
v 3.000 2.000 -6.500
v 3.000 2.000 -7.500
v 4.000 2.000 -7.500
v 3.000 2.000 6.500
v 3.000 2.000 7.500
v 4.000 2.000 7.500
v 3.000 3.000 -6.500
v 3.000 3.000 -7.500
v 4.000 3.000 -6.500
v 4.000 3.000 -7.500
v 3.000 3.000 -5.500
v 3.000 3.000 5.500
v 3.000 3.000 6.500
v 3.000 3.000 7.500
v 4.000 3.000 7.500
v 4.000 3.000 6.500
v 3.000 4.000 -5.500
v 3.000 4.000 -6.500
v 4.000 4.000 -5.500
v 4.000 4.000 -6.500
v 3.000 4.000 5.500
v 3.000 4.000 6.500
v 4.000 4.000 6.500
v 4.000 4.000 5.500
v 3.000 5.000 -4.500
v 3.000 5.000 -5.500
v 4.000 5.000 -4.500
v 4.000 5.000 -5.500
v 3.000 5.000 -3.500
v 3.000 5.000 3.500
v 3.000 5.000 4.500
v 3.000 5.000 5.500
v 4.000 5.000 5.500
v 4.000 5.000 4.500
v 3.000 6.000 -3.500
v 3.000 6.000 -4.500
v 4.000 6.000 -3.500
v 4.000 6.000 -4.500
v 3.000 6.000 -2.500
v 3.000 6.000 -1.500
v 3.000 6.000 -0.500
v 3.000 6.000 0.500
v 3.000 6.000 1.500
v 3.000 6.000 2.500
v 3.000 6.000 3.500
v 3.000 6.000 4.500
v 4.000 6.000 4.500
v 4.000 6.000 3.500
v 3.000 7.000 -2.500
v 3.000 7.000 -3.500
v 4.000 7.000 -2.500
v 4.000 7.000 -3.500
v 3.000 7.000 -1.500
v 4.000 7.000 -1.500
v 3.000 7.000 -0.500
v 4.000 7.000 -0.500
v 3.000 7.000 0.500
v 4.000 7.000 0.500
v 3.000 7.000 1.500
v 4.000 7.000 1.500
v 3.000 7.000 2.500
v 4.000 7.000 2.500
v 3.000 7.000 3.500
v 4.000 7.000 3.500
v 4.000 -8.000 -2.500
v 4.000 -8.000 -3.500
v 5.000 -8.000 -3.500
v 5.000 -8.000 -2.500
v 5.000 -7.000 -3.500
v 4.000 -8.000 -1.500
v 5.000 -8.000 -1.500
v 4.000 -8.000 -0.500
v 5.000 -8.000 -0.500
v 4.000 -8.000 0.500
v 5.000 -8.000 0.500
v 4.000 -8.000 1.500
v 5.000 -8.000 1.500
v 4.000 -8.000 2.500
v 5.000 -8.000 2.500
v 4.000 -8.000 3.500
v 5.000 -8.000 3.500
v 5.000 -7.000 3.500
v 4.000 -7.000 -4.500
v 4.000 -6.000 -5.500
v 4.000 -7.000 -5.500
v 5.000 -7.000 -5.500
v 5.000 -7.000 -4.500
v 5.000 -6.000 -5.500
v 4.000 -7.000 4.500
v 5.000 -7.000 4.500
v 4.000 -7.000 5.500
v 4.000 -6.000 5.500
v 5.000 -7.000 5.500
v 5.000 -6.000 5.500
v 4.000 -5.000 -6.500
v 4.000 -6.000 -6.500
v 5.000 -6.000 -6.500
v 5.000 -5.000 -6.500
v 4.000 -6.000 6.500
v 4.000 -5.000 6.500
v 5.000 -6.000 6.500
v 5.000 -5.000 6.500
v 4.000 -4.000 -7.500
v 4.000 -5.000 -7.500
v 5.000 -5.000 -7.500
v 5.000 -4.000 -7.500
v 4.000 -5.000 7.500
v 4.000 -4.000 7.500
v 5.000 -5.000 7.500
v 5.000 -4.000 7.500
v 5.000 -3.000 -7.500
v 5.000 -3.000 7.500
v 4.000 -2.000 -8.500
v 4.000 -3.000 -8.500
v 5.000 -3.000 -8.500
v 5.000 -2.000 -8.500
v 4.000 -3.000 8.500
v 4.000 -2.000 8.500
v 5.000 -3.000 8.500
v 5.000 -2.000 8.500
v 4.000 -1.000 -8.500
v 5.000 -1.000 -8.500
v 4.000 -1.000 8.500
v 5.000 -1.000 8.500
v 4.000 0.000 -8.500
v 5.000 0.000 -8.500
v 4.000 0.000 8.500
v 5.000 0.000 8.500
v 4.000 1.000 -8.500
v 5.000 1.000 -8.500
v 4.000 1.000 8.500
v 5.000 1.000 8.500
v 4.000 2.000 -8.500
v 5.000 2.000 -8.500
v 4.000 2.000 8.500
v 5.000 2.000 8.500
v 4.000 3.000 -8.500
v 5.000 3.000 -7.500
v 5.000 3.000 -8.500
v 4.000 3.000 8.500
v 5.000 3.000 8.500
v 5.000 3.000 7.500
v 4.000 4.000 -7.500
v 5.000 4.000 -7.500
v 4.000 4.000 7.500
v 5.000 4.000 7.500
v 4.000 5.000 -6.500
v 4.000 5.000 -7.500
v 5.000 5.000 -6.500
v 5.000 5.000 -7.500
v 4.000 5.000 6.500
v 4.000 5.000 7.500
v 5.000 5.000 7.500
v 5.000 5.000 6.500
v 4.000 6.000 -5.500
v 4.000 6.000 -6.500
v 5.000 6.000 -5.500
v 5.000 6.000 -6.500
v 4.000 6.000 5.500
v 4.000 6.000 6.500
v 5.000 6.000 6.500
v 5.000 6.000 5.500
v 4.000 7.000 -4.500
v 4.000 7.000 -5.500
v 5.000 7.000 -4.500
v 5.000 7.000 -5.500
v 5.000 7.000 -3.500
v 4.000 7.000 4.500
v 5.000 7.000 4.500
v 5.000 7.000 3.500
v 4.000 7.000 5.500
v 5.000 7.000 5.500
v 4.000 8.000 -2.500
v 4.000 8.000 -3.500
v 5.000 8.000 -2.500
v 5.000 8.000 -3.500
v 4.000 8.000 -1.500
v 5.000 8.000 -1.500
v 4.000 8.000 -0.500
v 5.000 8.000 -0.500
v 4.000 8.000 0.500
v 5.000 8.000 0.500
v 4.000 8.000 1.500
v 5.000 8.000 1.500
v 4.000 8.000 2.500
v 5.000 8.000 2.500
v 4.000 8.000 3.500
v 5.000 8.000 3.500
v 6.000 -8.000 -3.500
v 6.000 -8.000 -2.500
v 6.000 -7.000 -3.500
v 6.000 -8.000 -1.500
v 6.000 -8.000 -0.500
v 6.000 -8.000 0.500
v 6.000 -8.000 1.500
v 6.000 -8.000 2.500
v 6.000 -8.000 3.500
v 6.000 -7.000 3.500
v 6.000 -7.000 -5.500
v 6.000 -7.000 -4.500
v 6.000 -6.000 -5.500
v 6.000 -7.000 4.500
v 6.000 -7.000 5.500
v 6.000 -6.000 5.500
v 6.000 -6.000 -6.500
v 6.000 -5.000 -6.500
v 6.000 -6.000 6.500
v 6.000 -5.000 6.500
v 6.000 -5.000 -7.500
v 6.000 -4.000 -7.500
v 6.000 -5.000 7.500
v 6.000 -4.000 7.500
v 6.000 -3.000 -7.500
v 6.000 -3.000 7.500
v 6.000 -3.000 -8.500
v 6.000 -2.000 -8.500
v 6.000 -3.000 8.500
v 6.000 -2.000 8.500
v 6.000 -1.000 -8.500
v 6.000 -1.000 8.500
v 6.000 0.000 -8.500
v 6.000 0.000 8.500
v 6.000 1.000 -8.500
v 6.000 1.000 8.500
v 6.000 2.000 -8.500
v 6.000 2.000 8.500
v 6.000 3.000 -7.500
v 6.000 3.000 -8.500
v 6.000 3.000 8.500
v 6.000 3.000 7.500
v 6.000 4.000 -7.500
v 6.000 4.000 7.500
v 6.000 5.000 -6.500
v 6.000 5.000 -7.500
v 6.000 5.000 7.500
v 6.000 5.000 6.500
v 6.000 6.000 -5.500
v 6.000 6.000 -6.500
v 6.000 6.000 6.500
v 6.000 6.000 5.500
v 6.000 7.000 -4.500
v 6.000 7.000 -5.500
v 6.000 7.000 -3.500
v 6.000 7.000 4.500
v 6.000 7.000 3.500
v 6.000 7.000 5.500
v 6.000 8.000 -2.500
v 6.000 8.000 -3.500
v 6.000 8.000 -1.500
v 6.000 8.000 -0.500
v 6.000 8.000 0.500
v 6.000 8.000 1.500
v 6.000 8.000 2.500
v 6.000 8.000 3.500
v 6.000 -9.000 -2.500
v 6.000 -9.000 -3.500
v 7.000 -9.000 -3.500
v 7.000 -9.000 -2.500
v 7.000 -8.000 -3.500
v 6.000 -9.000 -1.500
v 7.000 -9.000 -1.500
v 6.000 -9.000 -0.500
v 7.000 -9.000 -0.500
v 6.000 -9.000 0.500
v 7.000 -9.000 0.500
v 6.000 -9.000 1.500
v 7.000 -9.000 1.500
v 6.000 -9.000 2.500
v 7.000 -9.000 2.500
v 6.000 -9.000 3.500
v 7.000 -9.000 3.500
v 7.000 -8.000 3.500
v 6.000 -8.000 -4.500
v 6.000 -8.000 -5.500
v 7.000 -8.000 -5.500
v 7.000 -8.000 -4.500
v 7.000 -7.000 -5.500
v 6.000 -8.000 4.500
v 7.000 -8.000 4.500
v 6.000 -8.000 5.500
v 7.000 -8.000 5.500
v 7.000 -7.000 5.500
v 6.000 -7.000 -6.500
v 7.000 -7.000 -6.500
v 7.000 -6.000 -6.500
v 6.000 -7.000 6.500
v 7.000 -7.000 6.500
v 7.000 -6.000 6.500
v 6.000 -6.000 -7.500
v 7.000 -6.000 -7.500
v 7.000 -5.000 -7.500
v 6.000 -6.000 7.500
v 7.000 -6.000 7.500
v 7.000 -5.000 7.500
v 6.000 -4.000 -8.500
v 6.000 -5.000 -8.500
v 7.000 -5.000 -8.500
v 7.000 -4.000 -8.500
v 6.000 -5.000 8.500
v 6.000 -4.000 8.500
v 7.000 -5.000 8.500
v 7.000 -4.000 8.500
v 7.000 -3.000 -8.500
v 7.000 -3.000 8.500
v 6.000 -2.000 -9.500
v 6.000 -3.000 -9.500
v 7.000 -3.000 -9.500
v 7.000 -2.000 -9.500
v 6.000 -3.000 9.500
v 6.000 -2.000 9.500
v 7.000 -3.000 9.500
v 7.000 -2.000 9.500
v 6.000 -1.000 -9.500
v 7.000 -1.000 -9.500
v 6.000 -1.000 9.500
v 7.000 -1.000 9.500
v 6.000 0.000 -9.500
v 7.000 0.000 -9.500
v 6.000 0.000 9.500
v 7.000 0.000 9.500
v 6.000 1.000 -9.500
v 7.000 1.000 -9.500
v 6.000 1.000 9.500
v 7.000 1.000 9.500
v 6.000 2.000 -9.500
v 7.000 2.000 -9.500
v 6.000 2.000 9.500
v 7.000 2.000 9.500
v 6.000 3.000 -9.500
v 7.000 3.000 -8.500
v 7.000 3.000 -9.500
v 6.000 3.000 9.500
v 7.000 3.000 9.500
v 7.000 3.000 8.500
v 6.000 4.000 -8.500
v 7.000 4.000 -8.500
v 6.000 4.000 8.500
v 7.000 4.000 8.500
v 6.000 5.000 -8.500
v 7.000 5.000 -7.500
v 7.000 5.000 -8.500
v 6.000 5.000 8.500
v 7.000 5.000 8.500
v 7.000 5.000 7.500
v 6.000 6.000 -7.500
v 7.000 6.000 -6.500
v 7.000 6.000 -7.500
v 6.000 6.000 7.500
v 7.000 6.000 7.500
v 7.000 6.000 6.500
v 6.000 7.000 -6.500
v 7.000 7.000 -5.500
v 7.000 7.000 -6.500
v 6.000 7.000 6.500
v 7.000 7.000 6.500
v 7.000 7.000 5.500
v 6.000 8.000 -4.500
v 6.000 8.000 -5.500
v 7.000 8.000 -4.500
v 7.000 8.000 -5.500
v 7.000 8.000 -3.500
v 6.000 8.000 4.500
v 7.000 8.000 4.500
v 7.000 8.000 3.500
v 6.000 8.000 5.500
v 7.000 8.000 5.500
v 6.000 9.000 -2.500
v 6.000 9.000 -3.500
v 7.000 9.000 -2.500
v 7.000 9.000 -3.500
v 6.000 9.000 -1.500
v 7.000 9.000 -1.500
v 6.000 9.000 -0.500
v 7.000 9.000 -0.500
v 6.000 9.000 0.500
v 7.000 9.000 0.500
v 6.000 9.000 1.500
v 7.000 9.000 1.500
v 6.000 9.000 2.500
v 7.000 9.000 2.500
v 6.000 9.000 3.500
v 7.000 9.000 3.500
v 8.000 -9.000 -3.500
v 8.000 -9.000 -2.500
v 8.000 -8.000 -3.500
v 8.000 -9.000 -1.500
v 8.000 -9.000 -0.500
v 8.000 -9.000 0.500
v 8.000 -9.000 1.500
v 8.000 -9.000 2.500
v 8.000 -9.000 3.500
v 8.000 -8.000 3.500
v 8.000 -8.000 -5.500
v 8.000 -8.000 -4.500
v 8.000 -7.000 -5.500
v 8.000 -8.000 4.500
v 8.000 -8.000 5.500
v 8.000 -7.000 5.500
v 8.000 -7.000 -6.500
v 8.000 -6.000 -6.500
v 8.000 -7.000 6.500
v 8.000 -6.000 6.500
v 8.000 -6.000 -7.500
v 8.000 -5.000 -7.500
v 8.000 -6.000 7.500
v 8.000 -5.000 7.500
v 8.000 -5.000 -8.500
v 8.000 -4.000 -8.500
v 8.000 -5.000 8.500
v 8.000 -4.000 8.500
v 8.000 -3.000 -8.500
v 8.000 -3.000 8.500
v 8.000 -3.000 -9.500
v 8.000 -2.000 -9.500
v 8.000 -3.000 9.500
v 8.000 -2.000 9.500
v 8.000 -1.000 -9.500
v 8.000 -1.000 9.500
v 8.000 0.000 -9.500
v 8.000 0.000 9.500
v 8.000 1.000 -9.500
v 8.000 1.000 9.500
v 8.000 2.000 -9.500
v 8.000 2.000 9.500
v 8.000 3.000 -8.500
v 8.000 3.000 -9.500
v 8.000 3.000 9.500
v 8.000 3.000 8.500
v 8.000 4.000 -8.500
v 8.000 4.000 8.500
v 8.000 5.000 -7.500
v 8.000 5.000 -8.500
v 8.000 5.000 8.500
v 8.000 5.000 7.500
v 8.000 6.000 -6.500
v 8.000 6.000 -7.500
v 8.000 6.000 7.500
v 8.000 6.000 6.500
v 8.000 7.000 -5.500
v 8.000 7.000 -6.500
v 8.000 7.000 6.500
v 8.000 7.000 5.500
v 8.000 8.000 -4.500
v 8.000 8.000 -5.500
v 8.000 8.000 -3.500
v 8.000 8.000 4.500
v 8.000 8.000 3.500
v 8.000 8.000 5.500
v 8.000 9.000 -2.500
v 8.000 9.000 -3.500
v 8.000 9.000 -1.500
v 8.000 9.000 -0.500
v 8.000 9.000 0.500
v 8.000 9.000 1.500
v 8.000 9.000 2.500
v 8.000 9.000 3.500
v 9.000 -9.000 -3.500
v 9.000 -8.000 -3.500
v 9.000 -8.000 -2.500
v 9.000 -9.000 -2.500
v 9.000 -8.000 -1.500
v 9.000 -9.000 -1.500
v 9.000 -8.000 -0.500
v 9.000 -9.000 -0.500
v 9.000 -8.000 0.500
v 9.000 -9.000 0.500
v 9.000 -8.000 1.500
v 9.000 -9.000 1.500
v 9.000 -8.000 2.500
v 9.000 -9.000 2.500
v 9.000 -8.000 3.500
v 9.000 -9.000 3.500
v 9.000 -8.000 -5.500
v 9.000 -7.000 -5.500
v 9.000 -7.000 -4.500
v 9.000 -8.000 -4.500
v 9.000 -7.000 -3.500
v 9.000 -7.000 3.500
v 9.000 -7.000 4.500
v 9.000 -8.000 4.500
v 9.000 -7.000 5.500
v 9.000 -8.000 5.500
v 9.000 -7.000 -6.500
v 9.000 -6.000 -6.500
v 9.000 -6.000 -5.500
v 9.000 -6.000 5.500
v 9.000 -6.000 6.500
v 9.000 -7.000 6.500
v 9.000 -6.000 -7.500
v 9.000 -5.000 -7.500
v 9.000 -5.000 -6.500
v 9.000 -5.000 6.500
v 9.000 -5.000 7.500
v 9.000 -6.000 7.500
v 9.000 -5.000 -8.500
v 9.000 -4.000 -8.500
v 9.000 -4.000 -7.500
v 9.000 -4.000 7.500
v 9.000 -4.000 8.500
v 9.000 -5.000 8.500
v 9.000 -3.000 -8.500
v 9.000 -3.000 -7.500
v 9.000 -3.000 7.500
v 9.000 -3.000 8.500
v 9.000 -3.000 -9.500
v 9.000 -2.000 -9.500
v 9.000 -2.000 -8.500
v 9.000 -2.000 8.500
v 9.000 -2.000 9.500
v 9.000 -3.000 9.500
v 9.000 -1.000 -9.500
v 9.000 -1.000 -8.500
v 9.000 -1.000 8.500
v 9.000 -1.000 9.500
v 9.000 0.000 -9.500
v 9.000 0.000 -8.500
v 9.000 0.000 8.500
v 9.000 0.000 9.500
v 9.000 1.000 -9.500
v 9.000 1.000 -8.500
v 9.000 1.000 8.500
v 9.000 1.000 9.500
v 9.000 2.000 -9.500
v 9.000 2.000 -8.500
v 9.000 2.000 8.500
v 9.000 2.000 9.500
v 9.000 3.000 -9.500
v 9.000 3.000 -8.500
v 9.000 3.000 8.500
v 9.000 3.000 9.500
v 9.000 4.000 -8.500
v 9.000 4.000 -7.500
v 9.000 3.000 -7.500
v 9.000 3.000 7.500
v 9.000 4.000 7.500
v 9.000 4.000 8.500
v 9.000 5.000 -8.500
v 9.000 5.000 -7.500
v 9.000 5.000 7.500
v 9.000 5.000 8.500
v 9.000 6.000 -7.500
v 9.000 6.000 -6.500
v 9.000 5.000 -6.500
v 9.000 5.000 6.500
v 9.000 6.000 6.500
v 9.000 6.000 7.500
v 9.000 7.000 -6.500
v 9.000 7.000 -5.500
v 9.000 6.000 -5.500
v 9.000 6.000 5.500
v 9.000 7.000 5.500
v 9.000 7.000 6.500
v 9.000 8.000 -5.500
v 9.000 8.000 -4.500
v 9.000 7.000 -4.500
v 9.000 8.000 -3.500
v 9.000 7.000 -3.500
v 9.000 7.000 3.500
v 9.000 8.000 3.500
v 9.000 8.000 4.500
v 9.000 7.000 4.500
v 9.000 8.000 5.500
v 9.000 9.000 -3.500
v 9.000 9.000 -2.500
v 9.000 8.000 -2.500
v 9.000 9.000 -1.500
v 9.000 8.000 -1.500
v 9.000 9.000 -0.500
v 9.000 8.000 -0.500
v 9.000 9.000 0.500
v 9.000 8.000 0.500
v 9.000 9.000 1.500
v 9.000 8.000 1.500
v 9.000 9.000 2.500
v 9.000 8.000 2.500
v 9.000 9.000 3.500
v 10.000 -8.000 -3.500
v 10.000 -8.000 -2.500
v 10.000 -7.000 -3.500
v 10.000 -8.000 -1.500
v 10.000 -8.000 -0.500
v 10.000 -8.000 0.500
v 10.000 -8.000 1.500
v 10.000 -8.000 2.500
v 10.000 -8.000 3.500
v 10.000 -7.000 3.500
v 10.000 -7.000 -5.500
v 10.000 -7.000 -4.500
v 10.000 -6.000 -5.500
v 10.000 -7.000 4.500
v 10.000 -7.000 5.500
v 10.000 -6.000 5.500
v 10.000 -6.000 -6.500
v 10.000 -5.000 -6.500
v 10.000 -6.000 6.500
v 10.000 -5.000 6.500
v 10.000 -5.000 -7.500
v 10.000 -4.000 -7.500
v 10.000 -5.000 7.500
v 10.000 -4.000 7.500
v 10.000 -3.000 -7.500
v 10.000 -3.000 7.500
v 10.000 -3.000 -8.500
v 10.000 -2.000 -8.500
v 10.000 -3.000 8.500
v 10.000 -2.000 8.500
v 10.000 -1.000 -8.500
v 10.000 -1.000 8.500
v 10.000 0.000 -8.500
v 10.000 0.000 8.500
v 10.000 1.000 -8.500
v 10.000 1.000 8.500
v 10.000 2.000 -8.500
v 10.000 2.000 8.500
v 10.000 3.000 -7.500
v 10.000 3.000 -8.500
v 10.000 3.000 8.500
v 10.000 3.000 7.500
v 10.000 4.000 -7.500
v 10.000 4.000 7.500
v 10.000 5.000 -6.500
v 10.000 5.000 -7.500
v 10.000 5.000 7.500
v 10.000 5.000 6.500
v 10.000 6.000 -5.500
v 10.000 6.000 -6.500
v 10.000 6.000 6.500
v 10.000 6.000 5.500
v 10.000 7.000 -4.500
v 10.000 7.000 -5.500
v 10.000 7.000 -3.500
v 10.000 7.000 4.500
v 10.000 7.000 3.500
v 10.000 7.000 5.500
v 10.000 8.000 -2.500
v 10.000 8.000 -3.500
v 10.000 8.000 -1.500
v 10.000 8.000 -0.500
v 10.000 8.000 0.500
v 10.000 8.000 1.500
v 10.000 8.000 2.500
v 10.000 8.000 3.500
v 11.000 -8.000 -3.500
v 11.000 -7.000 -3.500
v 11.000 -7.000 -2.500
v 11.000 -8.000 -2.500
v 11.000 -7.000 -1.500
v 11.000 -8.000 -1.500
v 11.000 -7.000 -0.500
v 11.000 -8.000 -0.500
v 11.000 -7.000 0.500
v 11.000 -8.000 0.500
v 11.000 -7.000 1.500
v 11.000 -8.000 1.500
v 11.000 -7.000 2.500
v 11.000 -8.000 2.500
v 11.000 -7.000 3.500
v 11.000 -8.000 3.500
v 11.000 -7.000 -5.500
v 11.000 -6.000 -5.500
v 11.000 -6.000 -4.500
v 11.000 -7.000 -4.500
v 11.000 -6.000 -3.500
v 11.000 -6.000 3.500
v 11.000 -6.000 4.500
v 11.000 -7.000 4.500
v 11.000 -6.000 5.500
v 11.000 -7.000 5.500
v 11.000 -6.000 -6.500
v 11.000 -5.000 -6.500
v 11.000 -5.000 -5.500
v 11.000 -5.000 -4.500
v 11.000 -5.000 4.500
v 11.000 -5.000 5.500
v 11.000 -5.000 6.500
v 11.000 -6.000 6.500
v 11.000 -5.000 -7.500
v 11.000 -4.000 -7.500
v 11.000 -4.000 -6.500
v 11.000 -4.000 -5.500
v 11.000 -4.000 5.500
v 11.000 -4.000 6.500
v 11.000 -4.000 7.500
v 11.000 -5.000 7.500
v 11.000 -3.000 -7.500
v 11.000 -3.000 -6.500
v 11.000 -3.000 6.500
v 11.000 -3.000 7.500
v 11.000 -3.000 -8.500
v 11.000 -2.000 -8.500
v 11.000 -2.000 -7.500
v 11.000 -2.000 7.500
v 11.000 -2.000 8.500
v 11.000 -3.000 8.500
v 11.000 -1.000 -8.500
v 11.000 -1.000 -7.500
v 11.000 -1.000 7.500
v 11.000 -1.000 8.500
v 11.000 0.000 -8.500
v 11.000 0.000 -7.500
v 11.000 0.000 7.500
v 11.000 0.000 8.500
v 11.000 1.000 -8.500
v 11.000 1.000 -7.500
v 11.000 1.000 7.500
v 11.000 1.000 8.500
v 11.000 2.000 -8.500
v 11.000 2.000 -7.500
v 11.000 2.000 7.500
v 11.000 2.000 8.500
v 11.000 3.000 -8.500
v 11.000 3.000 -7.500
v 11.000 3.000 7.500
v 11.000 3.000 8.500
v 11.000 4.000 -7.500
v 11.000 4.000 -6.500
v 11.000 3.000 -6.500
v 11.000 3.000 6.500
v 11.000 4.000 6.500
v 11.000 4.000 7.500
v 11.000 5.000 -7.500
v 11.000 5.000 -6.500
v 11.000 5.000 -5.500
v 11.000 4.000 -5.500
v 11.000 4.000 5.500
v 11.000 5.000 5.500
v 11.000 5.000 6.500
v 11.000 5.000 7.500
v 11.000 6.000 -6.500
v 11.000 6.000 -5.500
v 11.000 6.000 -4.500
v 11.000 5.000 -4.500
v 11.000 5.000 4.500
v 11.000 6.000 4.500
v 11.000 6.000 5.500
v 11.000 6.000 6.500
v 11.000 7.000 -5.500
v 11.000 7.000 -4.500
v 11.000 7.000 -3.500
v 11.000 6.000 -3.500
v 11.000 6.000 3.500
v 11.000 7.000 3.500
v 11.000 7.000 4.500
v 11.000 7.000 5.500
v 11.000 8.000 -3.500
v 11.000 8.000 -2.500
v 11.000 7.000 -2.500
v 11.000 8.000 -1.500
v 11.000 7.000 -1.500
v 11.000 8.000 -0.500
v 11.000 7.000 -0.500
v 11.000 8.000 0.500
v 11.000 7.000 0.500
v 11.000 8.000 1.500
v 11.000 7.000 1.500
v 11.000 8.000 2.500
v 11.000 7.000 2.500
v 11.000 8.000 3.500
v 12.000 -7.000 -3.500
v 12.000 -6.000 -3.500
v 12.000 -6.000 -2.500
v 12.000 -7.000 -2.500
v 12.000 -6.000 -1.500
v 12.000 -7.000 -1.500
v 12.000 -6.000 -0.500
v 12.000 -7.000 -0.500
v 12.000 -6.000 0.500
v 12.000 -7.000 0.500
v 12.000 -6.000 1.500
v 12.000 -7.000 1.500
v 12.000 -6.000 2.500
v 12.000 -7.000 2.500
v 12.000 -6.000 3.500
v 12.000 -7.000 3.500
v 12.000 -6.000 -4.500
v 12.000 -5.000 -4.500
v 12.000 -5.000 -3.500
v 12.000 -5.000 -2.500
v 12.000 -5.000 -1.500
v 12.000 -5.000 -0.500
v 12.000 -5.000 0.500
v 12.000 -5.000 1.500
v 12.000 -5.000 2.500
v 12.000 -5.000 3.500
v 12.000 -5.000 4.500
v 12.000 -6.000 4.500
v 12.000 -5.000 -5.500
v 12.000 -4.000 -5.500
v 12.000 -4.000 -4.500
v 12.000 -4.000 -3.500
v 12.000 -4.000 -2.500
v 12.000 -4.000 2.500
v 12.000 -4.000 3.500
v 12.000 -4.000 4.500
v 12.000 -4.000 5.500
v 12.000 -5.000 5.500
v 12.000 -4.000 -6.500
v 12.000 -3.000 -6.500
v 12.000 -3.000 -5.500
v 12.000 -3.000 -4.500
v 12.000 -3.000 4.500
v 12.000 -3.000 5.500
v 12.000 -3.000 6.500
v 12.000 -4.000 6.500
v 12.000 -3.000 -7.500
v 12.000 -2.000 -7.500
v 12.000 -2.000 -6.500
v 12.000 -2.000 -5.500
v 12.000 -2.000 -4.500
v 12.000 -2.000 4.500
v 12.000 -2.000 5.500
v 12.000 -2.000 6.500
v 12.000 -2.000 7.500
v 12.000 -3.000 7.500
v 12.000 -1.000 -7.500
v 12.000 -1.000 -6.500
v 12.000 -1.000 -5.500
v 12.000 -1.000 5.500
v 12.000 -1.000 6.500
v 12.000 -1.000 7.500
v 12.000 0.000 -7.500
v 12.000 0.000 -6.500
v 12.000 0.000 -5.500
v 12.000 0.000 5.500
v 12.000 0.000 6.500
v 12.000 0.000 7.500
v 12.000 1.000 -7.500
v 12.000 1.000 -6.500
v 12.000 1.000 -5.500
v 12.000 1.000 5.500
v 12.000 1.000 6.500
v 12.000 1.000 7.500
v 12.000 2.000 -7.500
v 12.000 2.000 -6.500
v 12.000 2.000 -5.500
v 12.000 2.000 5.500
v 12.000 2.000 6.500
v 12.000 2.000 7.500
v 12.000 3.000 -7.500
v 12.000 3.000 -6.500
v 12.000 3.000 -5.500
v 12.000 3.000 -4.500
v 12.000 2.000 -4.500
v 12.000 2.000 4.500
v 12.000 3.000 4.500
v 12.000 3.000 5.500
v 12.000 3.000 6.500
v 12.000 3.000 7.500
v 12.000 4.000 -6.500
v 12.000 4.000 -5.500
v 12.000 4.000 -4.500
v 12.000 4.000 4.500
v 12.000 4.000 5.500
v 12.000 4.000 6.500
v 12.000 5.000 -5.500
v 12.000 5.000 -4.500
v 12.000 5.000 -3.500
v 12.000 4.000 -3.500
v 12.000 5.000 -2.500
v 12.000 4.000 -2.500
v 12.000 4.000 2.500
v 12.000 5.000 2.500
v 12.000 5.000 3.500
v 12.000 4.000 3.500
v 12.000 5.000 4.500
v 12.000 5.000 5.500
v 12.000 6.000 -4.500
v 12.000 6.000 -3.500
v 12.000 6.000 -2.500
v 12.000 6.000 -1.500
v 12.000 5.000 -1.500
v 12.000 6.000 -0.500
v 12.000 5.000 -0.500
v 12.000 6.000 0.500
v 12.000 5.000 0.500
v 12.000 6.000 1.500
v 12.000 5.000 1.500
v 12.000 6.000 2.500
v 12.000 6.000 3.500
v 12.000 6.000 4.500
v 12.000 7.000 -3.500
v 12.000 7.000 -2.500
v 12.000 7.000 -1.500
v 12.000 7.000 -0.500
v 12.000 7.000 0.500
v 12.000 7.000 1.500
v 12.000 7.000 2.500
v 12.000 7.000 3.500
v 13.000 -5.000 -2.500
v 13.000 -4.000 -2.500
v 13.000 -4.000 -1.500
v 13.000 -5.000 -1.500
v 13.000 -4.000 -0.500
v 13.000 -5.000 -0.500
v 13.000 -4.000 0.500
v 13.000 -5.000 0.500
v 13.000 -4.000 1.500
v 13.000 -5.000 1.500
v 13.000 -4.000 2.500
v 13.000 -5.000 2.500
v 13.000 -4.000 -4.500
v 13.000 -3.000 -4.500
v 13.000 -3.000 -3.500
v 13.000 -4.000 -3.500
v 13.000 -3.000 -2.500
v 13.000 -3.000 -1.500
v 13.000 -3.000 -0.500
v 13.000 -3.000 0.500
v 13.000 -3.000 1.500
v 13.000 -3.000 2.500
v 13.000 -3.000 3.500
v 13.000 -4.000 3.500
v 13.000 -3.000 4.500
v 13.000 -4.000 4.500
v 13.000 -2.000 -4.500
v 13.000 -2.000 -3.500
v 13.000 -2.000 -2.500
v 13.000 -2.000 -1.500
v 13.000 -2.000 -0.500
v 13.000 -2.000 0.500
v 13.000 -2.000 1.500
v 13.000 -2.000 2.500
v 13.000 -2.000 3.500
v 13.000 -2.000 4.500
v 13.000 -2.000 -5.500
v 13.000 -1.000 -5.500
v 13.000 -1.000 -4.500
v 13.000 -1.000 -3.500
v 13.000 -1.000 -2.500
v 13.000 -1.000 -1.500
v 13.000 -1.000 -0.500
v 13.000 -1.000 0.500
v 13.000 -1.000 1.500
v 13.000 -1.000 2.500
v 13.000 -1.000 3.500
v 13.000 -1.000 4.500
v 13.000 -1.000 5.500
v 13.000 -2.000 5.500
v 13.000 0.000 -5.500
v 13.000 0.000 -4.500
v 13.000 0.000 -3.500
v 13.000 0.000 -2.500
v 13.000 0.000 -1.500
v 13.000 0.000 -0.500
v 13.000 0.000 0.500
v 13.000 0.000 1.500
v 13.000 0.000 2.500
v 13.000 0.000 3.500
v 13.000 0.000 4.500
v 13.000 0.000 5.500
v 13.000 1.000 -5.500
v 13.000 1.000 -4.500
v 13.000 1.000 -3.500
v 13.000 1.000 -2.500
v 13.000 1.000 -1.500
v 13.000 1.000 -0.500
v 13.000 1.000 0.500
v 13.000 1.000 1.500
v 13.000 1.000 2.500
v 13.000 1.000 3.500
v 13.000 1.000 4.500
v 13.000 1.000 5.500
v 13.000 2.000 -5.500
v 13.000 2.000 -4.500
v 13.000 2.000 -3.500
v 13.000 2.000 -2.500
v 13.000 2.000 -1.500
v 13.000 2.000 -0.500
v 13.000 2.000 0.500
v 13.000 2.000 1.500
v 13.000 2.000 2.500
v 13.000 2.000 3.500
v 13.000 2.000 4.500
v 13.000 2.000 5.500
v 13.000 3.000 -4.500
v 13.000 3.000 -3.500
v 13.000 3.000 -2.500
v 13.000 3.000 -1.500
v 13.000 3.000 -0.500
v 13.000 3.000 0.500
v 13.000 3.000 1.500
v 13.000 3.000 2.500
v 13.000 3.000 3.500
v 13.000 3.000 4.500
v 13.000 4.000 -4.500
v 13.000 4.000 -3.500
v 13.000 4.000 -2.500
v 13.000 4.000 -1.500
v 13.000 4.000 -0.500
v 13.000 4.000 0.500
v 13.000 4.000 1.500
v 13.000 4.000 2.500
v 13.000 4.000 3.500
v 13.000 4.000 4.500
v 13.000 5.000 -2.500
v 13.000 5.000 -1.500
v 13.000 5.000 -0.500
v 13.000 5.000 0.500
v 13.000 5.000 1.500
v 13.000 5.000 2.500
f 1 2 3 4
f 1 4 5 6
f 5 4 3 7
f 8 9 2 1
f 8 1 6 10
f 11 12 9 8
f 11 8 10 13
f 14 15 12 11
f 14 11 13 16
f 17 18 15 14
f 17 14 16 19
f 17 19 20 18
f 3 21 22 23
f 3 23 24 7
f 24 23 22 25
f 2 26 21 3
f 9 27 26 2
f 12 28 27 9
f 15 29 28 12
f 18 30 29 15
f 31 32 30 18
f 31 18 20 33
f 31 33 34 32
f 22 35 36 37
f 22 37 38 25
f 38 37 36 39
f 21 40 35 22
f 26 41 40 21
f 27 42 41 26
f 28 43 42 27
f 29 44 43 28
f 30 45 44 29
f 32 46 45 30
f 47 48 46 32
f 47 32 34 49
f 47 49 50 48
f 35 51 52 36
f 39 36 52 53
f 40 54 51 35
f 41 55 54 40
f 42 56 55 41
f 43 57 56 42
f 44 58 57 43
f 45 59 58 44
f 46 60 59 45
f 48 61 60 46
f 48 50 62 61
f 51 63 64 52
f 53 52 64 65
f 54 66 63 51
f 55 67 66 54
f 56 68 67 55
f 57 69 68 56
f 58 70 69 57
f 59 71 70 58
f 60 72 71 59
f 61 73 72 60
f 61 62 74 73
f 63 75 76 64
f 76 75 77 78
f 65 64 76 78
f 66 79 75 63
f 67 80 79 66
f 68 81 80 67
f 69 82 81 68
f 70 83 82 69
f 71 84 83 70
f 72 85 84 71
f 73 86 85 72
f 85 86 87 88
f 73 74 87 86
f 79 89 90 75
f 90 89 91 92
f 77 75 90 92
f 80 93 89 79
f 81 94 93 80
f 82 95 94 81
f 83 96 95 82
f 84 97 96 83
f 85 98 97 84
f 97 98 99 100
f 85 88 99 98
f 93 101 102 89
f 102 101 103 104
f 91 89 102 104
f 94 105 101 93
f 101 105 106 103
f 95 107 105 94
f 105 107 108 106
f 96 109 107 95
f 107 109 110 108
f 97 111 109 96
f 109 111 112 110
f 97 100 112 111
f 6 5 113 114
f 113 5 7 115
f 10 6 114 116
f 13 10 116 117
f 16 13 117 118
f 19 16 118 119
f 19 119 120 20
f 7 24 121 115
f 121 24 25 122
f 33 20 120 123
f 33 123 124 34
f 25 38 125 122
f 125 38 39 126
f 49 34 124 127
f 49 127 128 50
f 126 39 53 129
f 50 128 130 62
f 129 53 65 131
f 62 130 132 74
f 78 77 133 134
f 131 65 78 134
f 88 87 135 136
f 74 132 135 87
f 92 91 137 138
f 133 77 92 138
f 100 99 139 140
f 88 136 139 99
f 104 103 141 142
f 137 91 104 142
f 103 106 143 141
f 106 108 144 143
f 108 110 145 144
f 110 112 146 145
f 100 140 146 112
f 114 113 147 148
f 147 113 115 149
f 116 114 148 150
f 117 116 150 151
f 118 117 151 152
f 119 118 152 153
f 119 153 154 120
f 115 121 155 149
f 155 121 122 156
f 123 120 154 157
f 123 157 158 124
f 122 125 159 156
f 159 125 126 160
f 127 124 158 161
f 127 161 162 128
f 160 126 129 163
f 128 162 164 130
f 163 129 131 165
f 130 164 166 132
f 134 133 167 168
f 165 131 134 168
f 136 135 169 170
f 132 166 169 135
f 138 137 171 172
f 167 133 138 172
f 140 139 173 174
f 136 170 173 139
f 142 141 175 176
f 171 137 142 176
f 141 143 177 175
f 143 144 178 177
f 144 145 179 178
f 145 146 180 179
f 140 174 180 146
f 148 147 181 182
f 181 147 149 183
f 150 148 182 184
f 151 150 184 185
f 152 151 185 186
f 153 152 186 187
f 153 187 188 154
f 149 155 189 183
f 189 155 156 190
f 157 154 188 191
f 157 191 192 158
f 156 159 193 190
f 193 159 160 194
f 161 158 192 195
f 161 195 196 162
f 194 160 163 197
f 162 196 198 164
f 197 163 165 199
f 164 198 200 166
f 168 167 201 202
f 199 165 168 202
f 170 169 203 204
f 166 200 203 169
f 172 171 205 206
f 201 167 172 206
f 174 173 207 208
f 170 204 207 173
f 176 175 209 210
f 205 171 176 210
f 175 177 211 209
f 177 178 212 211
f 178 179 213 212
f 179 180 214 213
f 174 208 214 180
f 182 181 215 216
f 215 181 183 217
f 184 182 216 218
f 185 184 218 219
f 186 185 219 220
f 187 186 220 221
f 187 221 222 188
f 183 189 223 217
f 223 189 190 224
f 191 188 222 225
f 191 225 226 192
f 190 193 227 224
f 227 193 194 228
f 195 192 226 229
f 195 229 230 196
f 228 194 197 231
f 196 230 232 198
f 231 197 199 233
f 198 232 234 200
f 202 201 235 236
f 233 199 202 236
f 204 203 237 238
f 200 234 237 203
f 206 205 239 240
f 235 201 206 240
f 208 207 241 242
f 204 238 241 207
f 210 209 243 244
f 239 205 210 244
f 209 211 245 243
f 211 212 246 245
f 212 213 247 246
f 213 214 248 247
f 208 242 248 214
f 216 215 249 250
f 249 215 217 251
f 218 216 250 252
f 219 218 252 253
f 220 219 253 254
f 221 220 254 255
f 221 255 256 222
f 217 223 257 251
f 257 223 224 258
f 225 222 256 259
f 225 259 260 226
f 224 227 261 258
f 261 227 228 262
f 229 226 260 263
f 229 263 264 230
f 262 228 231 265
f 230 264 266 232
f 265 231 233 267
f 232 266 268 234
f 236 235 269 270
f 267 233 236 270
f 238 237 271 272
f 234 268 271 237
f 240 239 273 274
f 269 235 240 274
f 242 241 275 276
f 238 272 275 241
f 244 243 277 278
f 273 239 244 278
f 243 245 279 277
f 245 246 280 279
f 246 247 281 280
f 247 248 282 281
f 242 276 282 248
f 283 284 285 286
f 250 249 283 286
f 283 249 251 284
f 286 285 287 288
f 252 250 286 288
f 288 287 289 290
f 253 252 288 290
f 290 289 291 292
f 254 253 290 292
f 292 291 293 294
f 255 254 292 294
f 255 294 293 256
f 295 296 297 284
f 251 257 295 284
f 295 257 258 296
f 284 297 298 285
f 285 298 299 287
f 287 299 300 289
f 289 300 301 291
f 291 301 302 293
f 293 302 303 304
f 259 256 293 304
f 259 304 303 260
f 305 306 307 296
f 258 261 305 296
f 305 261 262 306
f 296 307 308 297
f 297 308 309 298
f 301 310 311 302
f 302 311 312 303
f 303 312 313 314
f 263 260 303 314
f 263 314 313 264
f 306 315 316 307
f 306 262 265 315
f 307 316 317 308
f 311 318 319 312
f 312 319 320 313
f 264 313 320 266
f 315 321 322 316
f 315 265 267 321
f 316 322 323 317
f 318 324 325 319
f 319 325 326 320
f 266 320 326 268
f 321 327 328 322
f 270 269 328 327
f 321 267 270 327
f 322 328 329 323
f 323 329 330 331
f 332 333 334 324
f 324 334 335 325
f 325 335 336 326
f 272 271 336 335
f 268 326 336 271
f 328 337 338 329
f 274 273 338 337
f 328 269 274 337
f 329 338 339 330
f 330 339 340 341
f 341 340 342 343
f 343 342 344 333
f 333 344 345 334
f 334 345 346 335
f 276 275 346 345
f 272 335 346 275
f 338 347 348 339
f 278 277 348 347
f 338 273 278 347
f 339 348 349 340
f 277 279 349 348
f 340 349 350 342
f 279 280 350 349
f 342 350 351 344
f 280 281 351 350
f 344 351 352 345
f 281 282 352 351
f 276 345 352 282
f 299 298 353 354
f 353 298 309 355
f 300 299 354 356
f 301 300 356 357
f 301 357 358 310
f 309 308 359 355
f 359 308 317 360
f 311 310 358 361
f 311 361 362 318
f 323 331 363 364
f 360 317 323 364
f 332 324 365 366
f 318 362 365 324
f 330 341 367 368
f 363 331 330 368
f 341 343 369 367
f 343 333 370 369
f 332 366 370 333
f 354 353 371 372
f 371 353 355 373
f 356 354 372 374
f 357 356 374 375
f 357 375 376 358
f 355 359 377 373
f 377 359 360 378
f 361 358 376 379
f 361 379 380 362
f 364 363 381 382
f 378 360 364 382
f 366 365 383 384
f 362 380 383 365
f 368 367 385 386
f 381 363 368 386
f 367 369 387 385
f 369 370 388 387
f 366 384 388 370
f 372 371 389 390
f 389 371 373 391
f 374 372 390 392
f 375 374 392 393
f 375 393 394 376
f 373 377 395 391
f 395 377 378 396
f 379 376 394 397
f 379 397 398 380
f 382 381 399 400
f 396 378 382 400
f 384 383 401 402
f 380 398 401 383
f 386 385 403 404
f 399 381 386 404
f 385 387 405 403
f 387 388 406 405
f 384 402 406 388
f 390 389 407 408
f 407 389 391 409
f 392 390 408 410
f 393 392 410 411
f 393 411 412 394
f 391 395 413 409
f 413 395 396 414
f 397 394 412 415
f 397 415 416 398
f 400 399 417 418
f 414 396 400 418
f 402 401 419 420
f 398 416 419 401
f 404 403 421 422
f 417 399 404 422
f 403 405 423 421
f 405 406 424 423
f 402 420 424 406
f 408 407 425 426
f 425 407 409 427
f 410 408 426 428
f 411 410 428 429
f 411 429 430 412
f 409 413 431 427
f 431 413 414 432
f 415 412 430 433
f 415 433 434 416
f 418 417 435 436
f 432 414 418 436
f 420 419 437 438
f 416 434 437 419
f 422 421 439 440
f 435 417 422 440
f 421 423 441 439
f 423 424 442 441
f 420 438 442 424
f 426 425 443 444
f 443 425 427 445
f 428 426 444 446
f 429 428 446 447
f 429 447 448 430
f 427 431 449 445
f 449 431 432 450
f 433 430 448 451
f 433 451 452 434
f 436 435 453 454
f 450 432 436 454
f 438 437 455 456
f 434 452 455 437
f 440 439 457 458
f 453 435 440 458
f 439 441 459 457
f 441 442 460 459
f 438 456 460 442
f 444 443 461 462
f 461 443 445 463
f 446 444 462 464
f 447 446 464 465
f 447 465 466 448
f 445 449 467 463
f 467 449 450 468
f 451 448 466 469
f 451 469 470 452
f 454 453 471 472
f 468 450 454 472
f 456 455 473 474
f 452 470 473 455
f 458 457 475 476
f 471 453 458 476
f 457 459 477 475
f 459 460 478 477
f 456 474 478 460
f 462 461 479 480
f 479 461 463 481
f 464 462 480 482
f 465 464 482 483
f 465 483 484 466
f 463 467 485 481
f 485 467 468 486
f 469 466 484 487
f 469 487 488 470
f 472 471 489 490
f 486 468 472 490
f 474 473 491 492
f 470 488 491 473
f 476 475 493 494
f 489 471 476 494
f 475 477 495 493
f 477 478 496 495
f 474 492 496 478
f 497 498 499 500
f 497 500 501 502
f 501 500 499 503
f 504 505 498 497
f 504 497 502 506
f 507 508 505 504
f 507 504 506 509
f 510 511 508 507
f 510 507 509 512
f 513 514 511 510
f 513 510 512 515
f 513 515 516 514
f 517 518 519 520
f 517 520 521 522
f 521 520 519 523
f 499 524 518 517
f 499 517 522 503
f 498 525 524 499
f 505 526 525 498
f 508 527 526 505
f 511 528 527 508
f 514 529 528 511
f 530 531 529 514
f 530 514 516 532
f 533 534 531 530
f 533 530 532 535
f 533 535 536 534
f 518 537 538 519
f 523 519 538 539
f 524 540 537 518
f 525 479 540 524
f 526 480 479 525
f 527 482 480 526
f 528 483 482 527
f 529 541 483 528
f 531 542 541 529
f 534 543 542 531
f 534 536 544 543
f 538 545 546 547
f 538 547 548 539
f 548 547 546 549
f 537 550 545 538
f 540 485 550 537
f 479 481 485 540
f 541 487 484 483
f 542 551 487 541
f 543 552 551 542
f 553 554 552 543
f 553 543 544 555
f 553 555 556 554
f 545 557 558 546
f 549 546 558 559
f 550 560 557 545
f 485 486 560 550
f 551 561 488 487
f 552 562 561 551
f 554 563 562 552
f 554 556 564 563
f 557 565 566 558
f 559 558 566 567
f 560 568 565 557
f 486 490 568 560
f 561 569 491 488
f 562 570 569 561
f 563 571 570 562
f 563 564 572 571
f 565 573 574 566
f 574 573 575 576
f 567 566 574 576
f 568 577 573 565
f 490 578 577 568
f 489 494 578 490
f 491 579 496 492
f 569 580 579 491
f 570 581 580 569
f 571 582 581 570
f 581 582 583 584
f 571 572 583 582
f 577 585 586 573
f 575 573 586 587
f 578 588 585 577
f 494 589 588 578
f 493 590 589 494
f 495 591 590 493
f 496 592 591 495
f 579 593 592 496
f 580 594 593 579
f 581 595 594 580
f 581 584 596 595
f 585 597 598 586
f 598 597 599 600
f 587 586 598 600
f 588 601 597 585
f 597 601 602 599
f 589 603 601 588
f 590 604 603 589
f 591 605 604 590
f 592 606 605 591
f 593 607 606 592
f 594 608 607 593
f 607 608 609 610
f 595 611 608 594
f 608 611 612 609
f 595 596 612 611
f 603 613 614 601
f 614 613 615 616
f 602 601 614 616
f 604 617 613 603
f 613 617 618 615
f 605 619 617 604
f 617 619 620 618
f 606 621 619 605
f 619 621 622 620
f 607 623 621 606
f 621 623 624 622
f 607 610 624 623
f 625 626 627 628
f 625 628 629 630
f 629 628 627 631
f 632 633 626 625
f 632 625 630 634
f 635 636 633 632
f 635 632 634 637
f 638 639 636 635
f 638 635 637 640
f 641 642 639 638
f 641 638 640 643
f 644 645 642 641
f 644 641 643 646
f 647 648 645 644
f 647 644 646 649
f 647 649 650 648
f 627 651 652 653
f 627 653 654 631
f 654 653 652 655
f 626 501 651 627
f 633 502 501 626
f 636 506 502 633
f 639 509 506 636
f 642 512 509 639
f 645 515 512 642
f 648 656 515 645
f 657 658 656 648
f 657 648 650 659
f 657 659 660 658
f 652 521 661 662
f 652 662 663 655
f 663 662 661 664
f 651 522 521 652
f 501 503 522 651
f 656 532 516 515
f 658 535 532 656
f 665 666 535 658
f 665 658 660 667
f 665 667 668 666
f 661 669 670 671
f 661 671 672 664
f 672 671 670 673
f 521 523 669 661
f 666 674 536 535
f 675 676 674 666
f 675 666 668 677
f 675 677 678 676
f 670 679 680 681
f 670 681 682 673
f 682 681 680 683
f 669 548 679 670
f 523 539 548 669
f 674 555 544 536
f 676 684 555 674
f 685 686 684 676
f 685 676 678 687
f 685 687 688 686
f 679 689 690 680
f 683 680 690 691
f 548 549 689 679
f 684 692 556 555
f 686 693 692 684
f 686 688 694 693
f 689 695 696 690
f 691 690 696 697
f 549 559 695 689
f 692 698 564 556
f 693 699 698 692
f 693 694 700 699
f 695 701 702 696
f 697 696 702 703
f 559 567 701 695
f 698 704 572 564
f 699 705 704 698
f 699 700 706 705
f 701 707 708 702
f 703 702 708 709
f 567 576 707 701
f 704 710 583 572
f 705 711 710 704
f 705 706 712 711
f 707 713 714 708
f 714 713 715 716
f 709 708 714 716
f 576 717 713 707
f 575 587 717 576
f 583 718 596 584
f 710 719 718 583
f 711 720 719 710
f 719 720 721 722
f 711 712 721 720
f 717 723 724 713
f 724 723 725 726
f 715 713 724 726
f 587 600 723 717
f 718 727 612 596
f 719 728 727 718
f 727 728 729 730
f 719 722 729 728
f 600 731 732 723
f 732 731 733 734
f 725 723 732 734
f 599 735 731 600
f 602 616 735 599
f 609 736 624 610
f 612 737 736 609
f 727 738 737 612
f 737 738 739 740
f 727 730 739 738
f 735 741 742 731
f 742 741 743 744
f 733 731 742 744
f 616 745 741 735
f 615 746 745 616
f 618 747 746 615
f 620 748 747 618
f 622 749 748 620
f 624 750 749 622
f 736 751 750 624
f 737 752 751 736
f 751 752 753 754
f 737 740 753 752
f 745 755 756 741
f 756 755 757 758
f 743 741 756 758
f 746 759 755 745
f 755 759 760 757
f 747 761 759 746
f 759 761 762 760
f 748 763 761 747
f 761 763 764 762
f 749 765 763 748
f 763 765 766 764
f 750 767 765 749
f 765 767 768 766
f 751 769 767 750
f 767 769 770 768
f 751 754 770 769
f 771 630 629 772
f 771 772 773 774
f 773 772 629 775
f 776 634 630 771
f 776 771 774 777
f 778 637 634 776
f 778 776 777 779
f 780 640 637 778
f 780 778 779 781
f 782 643 640 780
f 782 780 781 783
f 784 646 643 782
f 784 782 783 785
f 786 649 646 784
f 786 784 785 787
f 786 787 788 649
f 789 654 790 791
f 789 791 792 793
f 792 791 790 794
f 629 631 654 789
f 629 789 793 775
f 795 659 650 649
f 795 649 788 796
f 797 798 659 795
f 797 795 796 799
f 797 799 800 798
f 790 663 801 802
f 790 802 803 794
f 803 802 801 804
f 654 655 663 790
f 798 667 660 659
f 805 806 667 798
f 805 798 800 807
f 805 807 808 806
f 801 672 809 810
f 801 810 811 804
f 811 810 809 812
f 663 664 672 801
f 806 677 668 667
f 813 814 677 806
f 813 806 808 815
f 813 815 816 814
f 672 673 682 809
f 812 809 682 817
f 814 687 678 677
f 814 816 818 687
f 682 683 819 820
f 682 820 821 817
f 821 820 819 822
f 823 824 688 687
f 823 687 818 825
f 823 825 826 824
f 683 691 827 819
f 822 819 827 828
f 824 829 694 688
f 824 826 830 829
f 691 697 831 827
f 828 827 831 832
f 829 833 700 694
f 829 830 834 833
f 697 703 835 831
f 832 831 835 836
f 833 837 706 700
f 833 834 838 837
f 703 709 839 835
f 836 835 839 840
f 837 841 712 706
f 837 838 842 841
f 709 716 843 839
f 843 716 844 845
f 840 839 843 845
f 841 846 721 712
f 721 846 847 848
f 841 842 847 846
f 715 726 849 716
f 844 716 849 850
f 721 851 729 722
f 721 848 852 851
f 726 853 854 849
f 854 853 855 856
f 850 849 854 856
f 725 734 853 726
f 729 857 739 730
f 851 858 857 729
f 857 858 859 860
f 851 852 859 858
f 734 861 862 853
f 862 861 863 864
f 855 853 862 864
f 733 744 861 734
f 739 865 753 740
f 857 866 865 739
f 865 866 867 868
f 857 860 867 866
f 744 869 870 861
f 870 869 871 872
f 863 861 870 872
f 743 758 869 744
f 869 758 873 871
f 753 874 770 754
f 770 874 875 876
f 865 877 874 753
f 874 877 878 875
f 865 868 878 877
f 757 879 880 758
f 880 879 881 882
f 873 758 880 882
f 760 883 879 757
f 879 883 884 881
f 762 885 883 760
f 883 885 886 884
f 764 887 885 762
f 885 887 888 886
f 766 889 887 764
f 887 889 890 888
f 768 891 889 766
f 889 891 892 890
f 770 893 891 768
f 891 893 894 892
f 770 876 894 893
f 774 773 895 896
f 895 773 775 897
f 777 774 896 898
f 779 777 898 899
f 781 779 899 900
f 783 781 900 901
f 785 783 901 902
f 787 785 902 903
f 787 903 904 788
f 793 792 905 906
f 905 792 794 907
f 775 793 906 897
f 796 788 904 908
f 799 796 908 909
f 799 909 910 800
f 794 803 911 907
f 911 803 804 912
f 807 800 910 913
f 807 913 914 808
f 804 811 915 912
f 915 811 812 916
f 815 808 914 917
f 815 917 918 816
f 916 812 817 919
f 816 918 920 818
f 817 821 921 919
f 921 821 822 922
f 825 818 920 923
f 825 923 924 826
f 922 822 828 925
f 826 924 926 830
f 925 828 832 927
f 830 926 928 834
f 927 832 836 929
f 834 928 930 838
f 929 836 840 931
f 838 930 932 842
f 845 844 933 934
f 931 840 845 934
f 848 847 935 936
f 842 932 935 847
f 933 844 850 937
f 848 936 938 852
f 856 855 939 940
f 937 850 856 940
f 860 859 941 942
f 852 938 941 859
f 864 863 943 944
f 939 855 864 944
f 868 867 945 946
f 860 942 945 867
f 872 871 947 948
f 943 863 872 948
f 871 873 949 947
f 876 875 950 951
f 875 878 952 950
f 868 946 952 878
f 882 881 953 954
f 949 873 882 954
f 881 884 955 953
f 884 886 956 955
f 886 888 957 956
f 888 890 958 957
f 890 892 959 958
f 892 894 960 959
f 876 951 960 894
f 961 896 895 962
f 961 962 963 964
f 963 962 895 965
f 966 898 896 961
f 966 961 964 967
f 968 899 898 966
f 968 966 967 969
f 970 900 899 968
f 970 968 969 971
f 972 901 900 970
f 972 970 971 973
f 974 902 901 972
f 974 972 973 975
f 976 903 902 974
f 976 974 975 977
f 976 977 978 903
f 979 906 905 980
f 979 980 981 982
f 981 980 905 983
f 895 897 906 979
f 895 979 982 965
f 984 908 904 903
f 984 903 978 985
f 986 909 908 984
f 986 984 985 987
f 986 987 988 909
f 905 907 911 989
f 905 989 990 983
f 990 989 911 991
f 992 913 910 909
f 992 909 988 993
f 992 993 994 913
f 911 912 915 995
f 911 995 996 991
f 996 995 915 997
f 998 917 914 913
f 998 913 994 999
f 998 999 1000 917
f 915 916 1001 1002
f 915 1002 1003 997
f 1003 1002 1001 1004
f 1005 1006 918 917
f 1005 917 1000 1007
f 1005 1007 1008 1006
f 916 919 921 1001
f 1004 1001 921 1009
f 1006 923 920 918
f 1006 1008 1010 923
f 921 922 1011 1012
f 921 1012 1013 1009
f 1013 1012 1011 1014
f 1015 1016 924 923
f 1015 923 1010 1017
f 1015 1017 1018 1016
f 922 925 1019 1011
f 1014 1011 1019 1020
f 1016 1021 926 924
f 1016 1018 1022 1021
f 925 927 1023 1019
f 1020 1019 1023 1024
f 1021 1025 928 926
f 1021 1022 1026 1025
f 927 929 1027 1023
f 1024 1023 1027 1028
f 1025 1029 930 928
f 1025 1026 1030 1029
f 929 931 1031 1027
f 1028 1027 1031 1032
f 1029 1033 932 930
f 1029 1030 1034 1033
f 931 934 1035 1031
f 1035 934 1036 1037
f 1032 1031 1035 1037
f 1033 1038 935 932
f 935 1038 1039 1040
f 1033 1034 1039 1038
f 933 937 1041 934
f 1036 934 1041 1042
f 935 1043 938 936
f 935 1040 1044 1043
f 937 940 1045 1041
f 1045 940 1046 1047
f 1042 1041 1045 1047
f 1043 1048 941 938
f 941 1048 1049 1050
f 1043 1044 1049 1048
f 939 944 1051 940
f 1051 944 1052 1053
f 1046 940 1051 1053
f 941 1054 945 942
f 945 1054 1055 1056
f 941 1050 1055 1054
f 943 948 1057 944
f 1057 948 1058 1059
f 1052 944 1057 1059
f 945 1060 952 946
f 952 1060 1061 1062
f 945 1056 1061 1060
f 947 1063 1064 948
f 1064 1063 1065 1066
f 1058 948 1064 1066
f 949 954 1063 947
f 1063 954 1067 1065
f 950 1068 960 951
f 960 1068 1069 1070
f 952 1071 1068 950
f 1068 1071 1072 1069
f 952 1062 1072 1071
f 953 1073 1074 954
f 1074 1073 1075 1076
f 1067 954 1074 1076
f 955 1077 1073 953
f 1073 1077 1078 1075
f 956 1079 1077 955
f 1077 1079 1080 1078
f 957 1081 1079 956
f 1079 1081 1082 1080
f 958 1083 1081 957
f 1081 1083 1084 1082
f 959 1085 1083 958
f 1083 1085 1086 1084
f 960 1087 1085 959
f 1085 1087 1088 1086
f 960 1070 1088 1087
f 964 963 1089 1090
f 1089 963 965 1091
f 967 964 1090 1092
f 969 967 1092 1093
f 971 969 1093 1094
f 973 971 1094 1095
f 975 973 1095 1096
f 977 975 1096 1097
f 977 1097 1098 978
f 982 981 1099 1100
f 1099 981 983 1101
f 965 982 1100 1091
f 985 978 1098 1102
f 987 985 1102 1103
f 987 1103 1104 988
f 983 990 1105 1101
f 1105 990 991 1106
f 993 988 1104 1107
f 993 1107 1108 994
f 991 996 1109 1106
f 1109 996 997 1110
f 999 994 1108 1111
f 999 1111 1112 1000
f 997 1003 1113 1110
f 1113 1003 1004 1114
f 1007 1000 1112 1115
f 1007 1115 1116 1008
f 1114 1004 1009 1117
f 1008 1116 1118 1010
f 1009 1013 1119 1117
f 1119 1013 1014 1120
f 1017 1010 1118 1121
f 1017 1121 1122 1018
f 1120 1014 1020 1123
f 1018 1122 1124 1022
f 1123 1020 1024 1125
f 1022 1124 1126 1026
f 1125 1024 1028 1127
f 1026 1126 1128 1030
f 1127 1028 1032 1129
f 1030 1128 1130 1034
f 1037 1036 1131 1132
f 1129 1032 1037 1132
f 1040 1039 1133 1134
f 1034 1130 1133 1039
f 1131 1036 1042 1135
f 1040 1134 1136 1044
f 1047 1046 1137 1138
f 1135 1042 1047 1138
f 1050 1049 1139 1140
f 1044 1136 1139 1049
f 1053 1052 1141 1142
f 1137 1046 1053 1142
f 1056 1055 1143 1144
f 1050 1140 1143 1055
f 1059 1058 1145 1146
f 1141 1052 1059 1146
f 1062 1061 1147 1148
f 1056 1144 1147 1061
f 1066 1065 1149 1150
f 1145 1058 1066 1150
f 1065 1067 1151 1149
f 1070 1069 1152 1153
f 1069 1072 1154 1152
f 1062 1148 1154 1072
f 1076 1075 1155 1156
f 1151 1067 1076 1156
f 1075 1078 1157 1155
f 1078 1080 1158 1157
f 1080 1082 1159 1158
f 1082 1084 1160 1159
f 1084 1086 1161 1160
f 1086 1088 1162 1161
f 1070 1153 1162 1088
f 1163 1164 1165 1166
f 1090 1089 1163 1166
f 1163 1089 1091 1164
f 1166 1165 1167 1168
f 1092 1090 1166 1168
f 1168 1167 1169 1170
f 1093 1092 1168 1170
f 1170 1169 1171 1172
f 1094 1093 1170 1172
f 1172 1171 1173 1174
f 1095 1094 1172 1174
f 1174 1173 1175 1176
f 1096 1095 1174 1176
f 1176 1175 1177 1178
f 1097 1096 1176 1178
f 1097 1178 1177 1098
f 1179 1180 1181 1182
f 1100 1099 1179 1182
f 1179 1099 1101 1180
f 1182 1181 1183 1164
f 1091 1100 1182 1164
f 1177 1184 1185 1186
f 1102 1098 1177 1186
f 1186 1185 1187 1188
f 1103 1102 1186 1188
f 1103 1188 1187 1104
f 1189 1190 1191 1180
f 1101 1105 1189 1180
f 1189 1105 1106 1190
f 1187 1192 1193 1194
f 1107 1104 1187 1194
f 1107 1194 1193 1108
f 1195 1196 1197 1190
f 1106 1109 1195 1190
f 1195 1109 1110 1196
f 1193 1198 1199 1200
f 1111 1108 1193 1200
f 1111 1200 1199 1112
f 1201 1202 1203 1196
f 1110 1113 1201 1196
f 1201 1113 1114 1202
f 1199 1204 1205 1206
f 1115 1112 1199 1206
f 1115 1206 1205 1116
f 1202 1207 1208 1203
f 1202 1114 1117 1207
f 1204 1209 1210 1205
f 1116 1205 1210 1118
f 1211 1212 1213 1207
f 1117 1119 1211 1207
f 1211 1119 1120 1212
f 1210 1214 1215 1216
f 1121 1118 1210 1216
f 1121 1216 1215 1122
f 1212 1217 1218 1213
f 1212 1120 1123 1217
f 1214 1219 1220 1215
f 1122 1215 1220 1124
f 1217 1221 1222 1218
f 1217 1123 1125 1221
f 1219 1223 1224 1220
f 1124 1220 1224 1126
f 1221 1225 1226 1222
f 1221 1125 1127 1225
f 1223 1227 1228 1224
f 1126 1224 1228 1128
f 1225 1229 1230 1226
f 1225 1127 1129 1229
f 1227 1231 1232 1228
f 1128 1228 1232 1130
f 1229 1233 1234 1230
f 1132 1131 1234 1233
f 1229 1129 1132 1233
f 1231 1235 1236 1232
f 1134 1133 1236 1235
f 1130 1232 1236 1133
f 1234 1237 1238 1239
f 1234 1131 1135 1237
f 1240 1241 1242 1235
f 1134 1235 1242 1136
f 1237 1243 1244 1238
f 1138 1137 1244 1243
f 1237 1135 1138 1243
f 1241 1245 1246 1242
f 1140 1139 1246 1245
f 1136 1242 1246 1139
f 1244 1247 1248 1249
f 1142 1141 1248 1247
f 1244 1137 1142 1247
f 1250 1251 1252 1245
f 1144 1143 1252 1251
f 1140 1245 1252 1143
f 1248 1253 1254 1255
f 1146 1145 1254 1253
f 1248 1141 1146 1253
f 1256 1257 1258 1251
f 1148 1147 1258 1257
f 1144 1251 1258 1147
f 1254 1259 1260 1261
f 1150 1149 1260 1259
f 1254 1145 1150 1259
f 1261 1260 1262 1263
f 1149 1151 1262 1260
f 1264 1265 1266 1267
f 1153 1152 1266 1265
f 1267 1266 1268 1257
f 1152 1154 1268 1266
f 1148 1257 1268 1154
f 1262 1269 1270 1271
f 1156 1155 1270 1269
f 1262 1151 1156 1269
f 1271 1270 1272 1273
f 1155 1157 1272 1270
f 1273 1272 1274 1275
f 1157 1158 1274 1272
f 1275 1274 1276 1277
f 1158 1159 1276 1274
f 1277 1276 1278 1279
f 1159 1160 1278 1276
f 1279 1278 1280 1281
f 1160 1161 1280 1278
f 1281 1280 1282 1265
f 1161 1162 1282 1280
f 1153 1265 1282 1162
f 1165 1164 1283 1284
f 1283 1164 1183 1285
f 1167 1165 1284 1286
f 1169 1167 1286 1287
f 1171 1169 1287 1288
f 1173 1171 1288 1289
f 1175 1173 1289 1290
f 1177 1175 1290 1291
f 1177 1291 1292 1184
f 1181 1180 1293 1294
f 1293 1180 1191 1295
f 1183 1181 1294 1285
f 1185 1184 1292 1296
f 1187 1185 1296 1297
f 1187 1297 1298 1192
f 1191 1190 1299 1295
f 1299 1190 1197 1300
f 1193 1192 1298 1301
f 1193 1301 1302 1198
f 1197 1196 1303 1300
f 1303 1196 1203 1304
f 1199 1198 1302 1305
f 1199 1305 1306 1204
f 1304 1203 1208 1307
f 1204 1306 1308 1209
f 1208 1207 1309 1307
f 1309 1207 1213 1310
f 1210 1209 1308 1311
f 1210 1311 1312 1214
f 1310 1213 1218 1313
f 1214 1312 1314 1219
f 1313 1218 1222 1315
f 1219 1314 1316 1223
f 1315 1222 1226 1317
f 1223 1316 1318 1227
f 1317 1226 1230 1319
f 1227 1318 1320 1231
f 1234 1239 1321 1322
f 1319 1230 1234 1322
f 1240 1235 1323 1324
f 1231 1320 1323 1235
f 1321 1239 1238 1325
f 1240 1324 1326 1241
f 1244 1249 1327 1328
f 1325 1238 1244 1328
f 1250 1245 1329 1330
f 1241 1326 1329 1245
f 1248 1255 1331 1332
f 1327 1249 1248 1332
f 1256 1251 1333 1334
f 1250 1330 1333 1251
f 1254 1261 1335 1336
f 1331 1255 1254 1336
f 1261 1263 1337 1335
f 1264 1267 1338 1339
f 1267 1257 1340 1338
f 1256 1334 1340 1257
f 1262 1271 1341 1342
f 1337 1263 1262 1342
f 1271 1273 1343 1341
f 1273 1275 1344 1343
f 1275 1277 1345 1344
f 1277 1279 1346 1345
f 1279 1281 1347 1346
f 1281 1265 1348 1347
f 1264 1339 1348 1265
f 1349 1350 1351 1352
f 1284 1283 1349 1352
f 1349 1283 1285 1350
f 1352 1351 1353 1354
f 1286 1284 1352 1354
f 1354 1353 1355 1356
f 1287 1286 1354 1356
f 1356 1355 1357 1358
f 1288 1287 1356 1358
f 1358 1357 1359 1360
f 1289 1288 1358 1360
f 1360 1359 1361 1362
f 1290 1289 1360 1362
f 1362 1361 1363 1364
f 1291 1290 1362 1364
f 1291 1364 1363 1292
f 1365 1366 1367 1368
f 1294 1293 1365 1368
f 1365 1293 1295 1366
f 1368 1367 1369 1350
f 1285 1294 1368 1350
f 1363 1370 1371 1372
f 1296 1292 1363 1372
f 1372 1371 1373 1374
f 1297 1296 1372 1374
f 1297 1374 1373 1298
f 1375 1376 1377 1366
f 1295 1299 1375 1366
f 1375 1299 1300 1376
f 1366 1377 1378 1367
f 1371 1379 1380 1373
f 1373 1380 1381 1382
f 1301 1298 1373 1382
f 1301 1382 1381 1302
f 1383 1384 1385 1376
f 1300 1303 1383 1376
f 1383 1303 1304 1384
f 1376 1385 1386 1377
f 1380 1387 1388 1381
f 1381 1388 1389 1390
f 1305 1302 1381 1390
f 1305 1390 1389 1306
f 1384 1391 1392 1385
f 1384 1304 1307 1391
f 1388 1393 1394 1389
f 1306 1389 1394 1308
f 1395 1396 1397 1391
f 1307 1309 1395 1391
f 1395 1309 1310 1396
f 1394 1398 1399 1400
f 1311 1308 1394 1400
f 1311 1400 1399 1312
f 1396 1401 1402 1397
f 1396 1310 1313 1401
f 1398 1403 1404 1399
f 1312 1399 1404 1314
f 1401 1405 1406 1402
f 1401 1313 1315 1405
f 1403 1407 1408 1404
f 1314 1404 1408 1316
f 1405 1409 1410 1406
f 1405 1315 1317 1409
f 1407 1411 1412 1408
f 1316 1408 1412 1318
f 1409 1413 1414 1410
f 1409 1317 1319 1413
f 1411 1415 1416 1412
f 1318 1412 1416 1320
f 1413 1417 1418 1414
f 1322 1321 1418 1417
f 1413 1319 1322 1417
f 1415 1419 1420 1416
f 1324 1323 1420 1419
f 1320 1416 1420 1323
f 1418 1421 1422 1423
f 1418 1321 1325 1421
f 1424 1425 1426 1419
f 1324 1419 1426 1326
f 1421 1427 1428 1422
f 1328 1327 1428 1427
f 1421 1325 1328 1427
f 1422 1428 1429 1430
f 1431 1432 1433 1425
f 1425 1433 1434 1426
f 1330 1329 1434 1433
f 1326 1426 1434 1329
f 1428 1435 1436 1429
f 1332 1331 1436 1435
f 1428 1327 1332 1435
f 1429 1436 1437 1438
f 1439 1440 1441 1432
f 1432 1441 1442 1433
f 1334 1333 1442 1441
f 1330 1433 1442 1333
f 1436 1443 1444 1437
f 1336 1335 1444 1443
f 1436 1331 1336 1443
f 1437 1444 1445 1446
f 1335 1337 1445 1444
f 1447 1448 1449 1440
f 1339 1338 1449 1448
f 1440 1449 1450 1441
f 1338 1340 1450 1449
f 1334 1441 1450 1340
f 1445 1451 1452 1453
f 1342 1341 1452 1451
f 1445 1337 1342 1451
f 1453 1452 1454 1455
f 1341 1343 1454 1452
f 1455 1454 1456 1457
f 1343 1344 1456 1454
f 1457 1456 1458 1459
f 1344 1345 1458 1456
f 1459 1458 1460 1461
f 1345 1346 1460 1458
f 1461 1460 1462 1463
f 1346 1347 1462 1460
f 1463 1462 1464 1448
f 1347 1348 1464 1462
f 1339 1448 1464 1348
f 1465 1466 1467 1468
f 1351 1350 1465 1468
f 1465 1350 1369 1466
f 1468 1467 1469 1470
f 1353 1351 1468 1470
f 1470 1469 1471 1472
f 1355 1353 1470 1472
f 1472 1471 1473 1474
f 1357 1355 1472 1474
f 1474 1473 1475 1476
f 1359 1357 1474 1476
f 1476 1475 1477 1478
f 1361 1359 1476 1478
f 1478 1477 1479 1480
f 1363 1361 1478 1480
f 1363 1480 1479 1370
f 1481 1482 1483 1466
f 1369 1367 1481 1466
f 1481 1367 1378 1482
f 1466 1483 1484 1467
f 1467 1484 1485 1469
f 1469 1485 1486 1471
f 1471 1486 1487 1473
f 1473 1487 1488 1475
f 1475 1488 1489 1477
f 1477 1489 1490 1479
f 1479 1490 1491 1492
f 1371 1370 1479 1492
f 1371 1492 1491 1379
f 1493 1494 1495 1482
f 1378 1377 1493 1482
f 1493 1377 1386 1494
f 1482 1495 1496 1483
f 1483 1496 1497 1484
f 1489 1498 1499 1490
f 1490 1499 1500 1491
f 1491 1500 1501 1502
f 1380 1379 1491 1502
f 1380 1502 1501 1387
f 1503 1504 1505 1494
f 1386 1385 1503 1494
f 1503 1385 1392 1504
f 1494 1505 1506 1495
f 1500 1507 1508 1501
f 1501 1508 1509 1510
f 1388 1387 1501 1510
f 1388 1510 1509 1393
f 1511 1512 1513 1504
f 1392 1391 1511 1504
f 1511 1391 1397 1512
f 1504 1513 1514 1505
f 1505 1514 1515 1506
f 1507 1516 1517 1508
f 1508 1517 1518 1509
f 1509 1518 1519 1520
f 1394 1393 1509 1520
f 1394 1520 1519 1398
f 1512 1521 1522 1513
f 1512 1397 1402 1521
f 1513 1522 1523 1514
f 1517 1524 1525 1518
f 1518 1525 1526 1519
f 1398 1519 1526 1403
f 1521 1527 1528 1522
f 1521 1402 1406 1527
f 1522 1528 1529 1523
f 1524 1530 1531 1525
f 1525 1531 1532 1526
f 1403 1526 1532 1407
f 1527 1533 1534 1528
f 1527 1406 1410 1533
f 1528 1534 1535 1529
f 1530 1536 1537 1531
f 1531 1537 1538 1532
f 1407 1532 1538 1411
f 1533 1539 1540 1534
f 1533 1410 1414 1539
f 1534 1540 1541 1535
f 1536 1542 1543 1537
f 1537 1543 1544 1538
f 1411 1538 1544 1415
f 1539 1545 1546 1540
f 1418 1423 1546 1545
f 1539 1414 1418 1545
f 1540 1546 1547 1541
f 1541 1547 1548 1549
f 1550 1551 1552 1542
f 1542 1552 1553 1543
f 1543 1553 1554 1544
f 1424 1419 1554 1553
f 1415 1544 1554 1419
f 1546 1555 1556 1547
f 1422 1430 1556 1555
f 1546 1423 1422 1555
f 1547 1556 1557 1548
f 1551 1558 1559 1552
f 1552 1559 1560 1553
f 1431 1425 1560 1559
f 1424 1553 1560 1425
f 1556 1561 1562 1557
f 1429 1438 1562 1561
f 1556 1430 1429 1561
f 1557 1562 1563 1564
f 1564 1563 1565 1566
f 1567 1568 1569 1570
f 1570 1569 1571 1558
f 1558 1571 1572 1559
f 1439 1432 1572 1571
f 1431 1559 1572 1432
f 1562 1573 1574 1563
f 1437 1446 1574 1573
f 1562 1438 1437 1573
f 1563 1574 1575 1565
f 1565 1575 1576 1577
f 1577 1576 1578 1579
f 1579 1578 1580 1581
f 1581 1580 1582 1583
f 1583 1582 1584 1568
f 1568 1584 1585 1569
f 1569 1585 1586 1571
f 1447 1440 1586 1585
f 1439 1571 1586 1440
f 1574 1587 1588 1575
f 1445 1453 1588 1587
f 1574 1446 1445 1587
f 1575 1588 1589 1576
f 1453 1455 1589 1588
f 1576 1589 1590 1578
f 1455 1457 1590 1589
f 1578 1590 1591 1580
f 1457 1459 1591 1590
f 1580 1591 1592 1582
f 1459 1461 1592 1591
f 1582 1592 1593 1584
f 1461 1463 1593 1592
f 1584 1593 1594 1585
f 1463 1448 1594 1593
f 1447 1585 1594 1448
f 1595 1596 1597 1598
f 1485 1484 1595 1598
f 1595 1484 1497 1596
f 1598 1597 1599 1600
f 1486 1485 1598 1600
f 1600 1599 1601 1602
f 1487 1486 1600 1602
f 1602 1601 1603 1604
f 1488 1487 1602 1604
f 1604 1603 1605 1606
f 1489 1488 1604 1606
f 1489 1606 1605 1498
f 1607 1608 1609 1610
f 1496 1495 1607 1610
f 1607 1495 1506 1608
f 1610 1609 1611 1596
f 1497 1496 1610 1596
f 1596 1611 1612 1597
f 1597 1612 1613 1599
f 1599 1613 1614 1601
f 1601 1614 1615 1603
f 1603 1615 1616 1605
f 1605 1616 1617 1618
f 1499 1498 1605 1618
f 1618 1617 1619 1620
f 1500 1499 1618 1620
f 1500 1620 1619 1507
f 1608 1621 1622 1609
f 1608 1506 1515 1621
f 1609 1622 1623 1611
f 1611 1623 1624 1612
f 1612 1624 1625 1613
f 1613 1625 1626 1614
f 1614 1626 1627 1615
f 1615 1627 1628 1616
f 1616 1628 1629 1617
f 1617 1629 1630 1619
f 1507 1619 1630 1516
f 1631 1632 1633 1621
f 1515 1514 1631 1621
f 1631 1514 1523 1632
f 1621 1633 1634 1622
f 1622 1634 1635 1623
f 1623 1635 1636 1624
f 1624 1636 1637 1625
f 1625 1637 1638 1626
f 1626 1638 1639 1627
f 1627 1639 1640 1628
f 1628 1640 1641 1629
f 1629 1641 1642 1630
f 1630 1642 1643 1644
f 1517 1516 1630 1644
f 1517 1644 1643 1524
f 1632 1645 1646 1633
f 1632 1523 1529 1645
f 1633 1646 1647 1634
f 1634 1647 1648 1635
f 1635 1648 1649 1636
f 1636 1649 1650 1637
f 1637 1650 1651 1638
f 1638 1651 1652 1639
f 1639 1652 1653 1640
f 1640 1653 1654 1641
f 1641 1654 1655 1642
f 1642 1655 1656 1643
f 1524 1643 1656 1530
f 1645 1657 1658 1646
f 1645 1529 1535 1657
f 1646 1658 1659 1647
f 1647 1659 1660 1648
f 1648 1660 1661 1649
f 1649 1661 1662 1650
f 1650 1662 1663 1651
f 1651 1663 1664 1652
f 1652 1664 1665 1653
f 1653 1665 1666 1654
f 1654 1666 1667 1655
f 1655 1667 1668 1656
f 1530 1656 1668 1536
f 1657 1669 1670 1658
f 1541 1549 1670 1669
f 1657 1535 1541 1669
f 1658 1670 1671 1659
f 1659 1671 1672 1660
f 1660 1672 1673 1661
f 1661 1673 1674 1662
f 1662 1674 1675 1663
f 1663 1675 1676 1664
f 1664 1676 1677 1665
f 1665 1677 1678 1666
f 1666 1678 1679 1667
f 1667 1679 1680 1668
f 1550 1542 1680 1679
f 1536 1668 1680 1542
f 1670 1681 1682 1671
f 1670 1549 1548 1681
f 1671 1682 1683 1672
f 1672 1683 1684 1673
f 1673 1684 1685 1674
f 1674 1685 1686 1675
f 1675 1686 1687 1676
f 1676 1687 1688 1677
f 1677 1688 1689 1678
f 1678 1689 1690 1679
f 1550 1679 1690 1551
f 1681 1691 1692 1682
f 1557 1564 1692 1691
f 1681 1548 1557 1691
f 1682 1692 1693 1683
f 1564 1566 1693 1692
f 1683 1693 1694 1684
f 1684 1694 1695 1685
f 1685 1695 1696 1686
f 1686 1696 1697 1687
f 1687 1697 1698 1688
f 1688 1698 1699 1689
f 1567 1570 1699 1698
f 1689 1699 1700 1690
f 1570 1558 1700 1699
f 1551 1690 1700 1558
f 1693 1701 1702 1694
f 1565 1577 1702 1701
f 1693 1566 1565 1701
f 1694 1702 1703 1695
f 1577 1579 1703 1702
f 1695 1703 1704 1696
f 1579 1581 1704 1703
f 1696 1704 1705 1697
f 1581 1583 1705 1704
f 1697 1705 1706 1698
f 1583 1568 1706 1705
f 1567 1698 1706 1568
