# B-sphere — lifted from a 2D silhouette by aide.lift
o B-sphere
v -15.500 -4.000 -1.500
v -15.500 -3.000 -1.500
v -15.500 -3.000 -2.500
v -15.500 -4.000 -2.500
v -14.500 -4.000 -2.500
v -14.500 -4.000 -1.500
v -14.500 -3.000 -2.500
v -15.500 -4.000 -0.500
v -15.500 -3.000 -0.500
v -14.500 -4.000 -0.500
v -15.500 -4.000 0.500
v -15.500 -3.000 0.500
v -14.500 -4.000 0.500
v -15.500 -4.000 1.500
v -15.500 -3.000 1.500
v -14.500 -4.000 1.500
v -15.500 -4.000 2.500
v -15.500 -3.000 2.500
v -14.500 -4.000 2.500
v -14.500 -3.000 2.500
v -15.500 -2.000 -2.500
v -15.500 -2.000 -3.500
v -15.500 -3.000 -3.500
v -14.500 -3.000 -3.500
v -14.500 -2.000 -3.500
v -15.500 -2.000 -1.500
v -15.500 -2.000 -0.500
v -15.500 -2.000 0.500
v -15.500 -2.000 1.500
v -15.500 -2.000 2.500
v -15.500 -3.000 3.500
v -15.500 -2.000 3.500
v -14.500 -3.000 3.500
v -14.500 -2.000 3.500
v -15.500 -1.000 -3.500
v -15.500 -1.000 -4.500
v -15.500 -2.000 -4.500
v -14.500 -2.000 -4.500
v -14.500 -1.000 -4.500
v -15.500 -1.000 -2.500
v -15.500 -1.000 -1.500
v -15.500 -1.000 -0.500
v -15.500 -1.000 0.500
v -15.500 -1.000 1.500
v -15.500 -1.000 2.500
v -15.500 -1.000 3.500
v -15.500 -2.000 4.500
v -15.500 -1.000 4.500
v -14.500 -2.000 4.500
v -14.500 -1.000 4.500
v -15.500 0.000 -3.500
v -15.500 0.000 -4.500
v -14.500 0.000 -4.500
v -15.500 0.000 -2.500
v -15.500 0.000 -1.500
v -15.500 0.000 -0.500
v -15.500 0.000 0.500
v -15.500 0.000 1.500
v -15.500 0.000 2.500
v -15.500 0.000 3.500
v -15.500 0.000 4.500
v -14.500 0.000 4.500
v -15.500 1.000 -3.500
v -15.500 1.000 -4.500
v -14.500 1.000 -4.500
v -15.500 1.000 -2.500
v -15.500 1.000 -1.500
v -15.500 1.000 -0.500
v -15.500 1.000 0.500
v -15.500 1.000 1.500
v -15.500 1.000 2.500
v -15.500 1.000 3.500
v -15.500 1.000 4.500
v -14.500 1.000 4.500
v -15.500 2.000 -3.500
v -15.500 2.000 -4.500
v -14.500 2.000 -3.500
v -14.500 2.000 -4.500
v -15.500 2.000 -2.500
v -15.500 2.000 -1.500
v -15.500 2.000 -0.500
v -15.500 2.000 0.500
v -15.500 2.000 1.500
v -15.500 2.000 2.500
v -15.500 2.000 3.500
v -15.500 2.000 4.500
v -14.500 2.000 4.500
v -14.500 2.000 3.500
v -15.500 3.000 -2.500
v -15.500 3.000 -3.500
v -14.500 3.000 -2.500
v -14.500 3.000 -3.500
v -15.500 3.000 -1.500
v -15.500 3.000 -0.500
v -15.500 3.000 0.500
v -15.500 3.000 1.500
v -15.500 3.000 2.500
v -15.500 3.000 3.500
v -14.500 3.000 3.500
v -14.500 3.000 2.500
v -15.500 4.000 -1.500
v -15.500 4.000 -2.500
v -14.500 4.000 -1.500
v -14.500 4.000 -2.500
v -15.500 4.000 -0.500
v -14.500 4.000 -0.500
v -15.500 4.000 0.500
v -14.500 4.000 0.500
v -15.500 4.000 1.500
v -14.500 4.000 1.500
v -15.500 4.000 2.500
v -14.500 4.000 2.500
v -13.500 -4.000 -2.500
v -13.500 -4.000 -1.500
v -13.500 -3.000 -2.500
v -13.500 -4.000 -0.500
v -13.500 -4.000 0.500
v -13.500 -4.000 1.500
v -13.500 -4.000 2.500
v -13.500 -3.000 2.500
v -13.500 -3.000 -3.500
v -13.500 -2.000 -3.500
v -13.500 -3.000 3.500
v -13.500 -2.000 3.500
v -13.500 -2.000 -4.500
v -13.500 -1.000 -4.500
v -13.500 -2.000 4.500
v -13.500 -1.000 4.500
v -13.500 0.000 -4.500
v -13.500 0.000 4.500
v -13.500 1.000 -4.500
v -13.500 1.000 4.500
v -13.500 2.000 -3.500
v -13.500 2.000 -4.500
v -13.500 2.000 4.500
v -13.500 2.000 3.500
v -13.500 3.000 -2.500
v -13.500 3.000 -3.500
v -13.500 3.000 3.500
v -13.500 3.000 2.500
v -13.500 4.000 -1.500
v -13.500 4.000 -2.500
v -13.500 4.000 -0.500
v -13.500 4.000 0.500
v -13.500 4.000 1.500
v -13.500 4.000 2.500
v -12.500 -4.000 -2.500
v -12.500 -4.000 -1.500
v -12.500 -3.000 -2.500
v -12.500 -4.000 -0.500
v -12.500 -4.000 0.500
v -12.500 -4.000 1.500
v -12.500 -4.000 2.500
v -12.500 -3.000 2.500
v -12.500 -3.000 -3.500
v -12.500 -2.000 -3.500
v -12.500 -3.000 3.500
v -12.500 -2.000 3.500
v -12.500 -2.000 -4.500
v -12.500 -1.000 -4.500
v -12.500 -2.000 4.500
v -12.500 -1.000 4.500
v -12.500 0.000 -4.500
v -12.500 0.000 4.500
v -12.500 1.000 -4.500
v -12.500 1.000 4.500
v -12.500 2.000 -3.500
v -12.500 2.000 -4.500
v -12.500 2.000 4.500
v -12.500 2.000 3.500
v -12.500 3.000 -2.500
v -12.500 3.000 -3.500
v -12.500 3.000 3.500
v -12.500 3.000 2.500
v -12.500 4.000 -1.500
v -12.500 4.000 -2.500
v -12.500 4.000 -0.500
v -12.500 4.000 0.500
v -12.500 4.000 1.500
v -12.500 4.000 2.500
v -11.500 -4.000 -2.500
v -11.500 -4.000 -1.500
v -11.500 -3.000 -2.500
v -11.500 -4.000 -0.500
v -11.500 -4.000 0.500
v -11.500 -4.000 1.500
v -11.500 -4.000 2.500
v -11.500 -3.000 2.500
v -11.500 -3.000 -3.500
v -11.500 -2.000 -3.500
v -11.500 -3.000 3.500
v -11.500 -2.000 3.500
v -11.500 -2.000 -4.500
v -11.500 -1.000 -4.500
v -11.500 -2.000 4.500
v -11.500 -1.000 4.500
v -11.500 0.000 -4.500
v -11.500 0.000 4.500
v -11.500 1.000 -4.500
v -11.500 1.000 4.500
v -11.500 2.000 -3.500
v -11.500 2.000 -4.500
v -11.500 2.000 4.500
v -11.500 2.000 3.500
v -11.500 3.000 -2.500
v -11.500 3.000 -3.500
v -11.500 3.000 3.500
v -11.500 3.000 2.500
v -11.500 4.000 -1.500
v -11.500 4.000 -2.500
v -11.500 4.000 -0.500
v -11.500 4.000 0.500
v -11.500 4.000 1.500
v -11.500 4.000 2.500
v -10.500 -4.000 -2.500
v -10.500 -4.000 -1.500
v -10.500 -3.000 -2.500
v -10.500 -4.000 -0.500
v -10.500 -4.000 0.500
v -10.500 -4.000 1.500
v -10.500 -4.000 2.500
v -10.500 -3.000 2.500
v -10.500 -3.000 -3.500
v -10.500 -2.000 -3.500
v -10.500 -3.000 3.500
v -10.500 -2.000 3.500
v -10.500 -2.000 -4.500
v -10.500 -1.000 -4.500
v -10.500 -2.000 4.500
v -10.500 -1.000 4.500
v -10.500 0.000 -4.500
v -10.500 0.000 4.500
v -10.500 1.000 -4.500
v -10.500 1.000 4.500
v -10.500 2.000 -3.500
v -10.500 2.000 -4.500
v -10.500 2.000 4.500
v -10.500 2.000 3.500
v -10.500 3.000 -2.500
v -10.500 3.000 -3.500
v -10.500 3.000 3.500
v -10.500 3.000 2.500
v -10.500 4.000 -1.500
v -10.500 4.000 -2.500
v -10.500 4.000 -0.500
v -10.500 4.000 0.500
v -10.500 4.000 1.500
v -10.500 4.000 2.500
v -9.500 -4.000 -2.500
v -9.500 -4.000 -1.500
v -9.500 -3.000 -2.500
v -9.500 -4.000 -0.500
v -9.500 -4.000 0.500
v -9.500 -4.000 1.500
v -9.500 -4.000 2.500
v -9.500 -3.000 2.500
v -9.500 -3.000 -3.500
v -9.500 -2.000 -3.500
v -9.500 -3.000 3.500
v -9.500 -2.000 3.500
v -9.500 -2.000 -4.500
v -9.500 -1.000 -4.500
v -9.500 -2.000 4.500
v -9.500 -1.000 4.500
v -9.500 0.000 -4.500
v -9.500 0.000 4.500
v -9.500 1.000 -4.500
v -9.500 1.000 4.500
v -9.500 2.000 -3.500
v -9.500 2.000 -4.500
v -9.500 2.000 4.500
v -9.500 2.000 3.500
v -9.500 3.000 -2.500
v -9.500 3.000 -3.500
v -9.500 3.000 3.500
v -9.500 3.000 2.500
v -9.500 4.000 -1.500
v -9.500 4.000 -2.500
v -9.500 4.000 -0.500
v -9.500 4.000 0.500
v -9.500 4.000 1.500
v -9.500 4.000 2.500
v -8.500 -4.000 -2.500
v -8.500 -3.000 -2.500
v -8.500 -3.000 -1.500
v -8.500 -4.000 -1.500
v -8.500 -3.000 -0.500
v -8.500 -4.000 -0.500
v -8.500 -3.000 0.500
v -8.500 -4.000 0.500
v -8.500 -3.000 1.500
v -8.500 -4.000 1.500
v -8.500 -3.000 2.500
v -8.500 -4.000 2.500
v -8.500 -3.000 -3.500
v -8.500 -2.000 -3.500
v -8.500 -2.000 -2.500
v -8.500 -2.000 -1.500
v -8.500 -2.000 -0.500
v -8.500 -2.000 0.500
v -8.500 -2.000 1.500
v -8.500 -2.000 2.500
v -8.500 -2.000 3.500
v -8.500 -3.000 3.500
v -8.500 -2.000 -4.500
v -8.500 -1.000 -4.500
v -8.500 -1.000 -3.500
v -8.500 -1.000 -2.500
v -8.500 -1.000 -1.500
v -8.500 -1.000 1.500
v -8.500 -1.000 2.500
v -8.500 -1.000 3.500
v -8.500 -1.000 4.500
v -8.500 -2.000 4.500
v -8.500 0.000 -4.500
v -8.500 0.000 -3.500
v -8.500 0.000 -2.500
v -8.500 0.000 2.500
v -8.500 0.000 3.500
v -8.500 0.000 4.500
v -8.500 1.000 -4.500
v -8.500 1.000 -3.500
v -8.500 1.000 -2.500
v -8.500 1.000 2.500
v -8.500 1.000 3.500
v -8.500 1.000 4.500
v -8.500 2.000 -4.500
v -8.500 2.000 -3.500
v -8.500 2.000 -2.500
v -8.500 2.000 -1.500
v -8.500 1.000 -1.500
v -8.500 1.000 1.500
v -8.500 2.000 1.500
v -8.500 2.000 2.500
v -8.500 2.000 3.500
v -8.500 2.000 4.500
v -8.500 3.000 -3.500
v -8.500 3.000 -2.500
v -8.500 3.000 -1.500
v -8.500 3.000 -0.500
v -8.500 2.000 -0.500
v -8.500 3.000 0.500
v -8.500 2.000 0.500
v -8.500 3.000 1.500
v -8.500 3.000 2.500
v -8.500 3.000 3.500
v -8.500 4.000 -2.500
v -8.500 4.000 -1.500
v -8.500 4.000 -0.500
v -8.500 4.000 0.500
v -8.500 4.000 1.500
v -8.500 4.000 2.500
v -7.500 -2.000 -1.500
v -7.500 -2.000 -0.500
v -7.500 -1.000 -1.500
v -7.500 -2.000 0.500
v -7.500 -2.000 1.500
v -7.500 -1.000 1.500
v -7.500 -1.000 -2.500
v -7.500 0.000 -2.500
v -7.500 -1.000 2.500
v -7.500 0.000 2.500
v -7.500 1.000 -1.500
v -7.500 1.000 -2.500
v -7.500 1.000 2.500
v -7.500 1.000 1.500
v -7.500 2.000 -0.500
v -7.500 2.000 -1.500
v -7.500 2.000 0.500
v -7.500 2.000 1.500
v -6.500 -2.000 -1.500
v -6.500 -2.000 -0.500
v -6.500 -1.000 -1.500
v -6.500 -2.000 0.500
v -6.500 -2.000 1.500
v -6.500 -1.000 1.500
v -6.500 -1.000 -2.500
v -6.500 0.000 -2.500
v -6.500 -1.000 2.500
v -6.500 0.000 2.500
v -6.500 1.000 -1.500
v -6.500 1.000 -2.500
v -6.500 1.000 2.500
v -6.500 1.000 1.500
v -6.500 2.000 -0.500
v -6.500 2.000 -1.500
v -6.500 2.000 0.500
v -6.500 2.000 1.500
v -5.500 -2.000 -1.500
v -5.500 -2.000 -0.500
v -5.500 -1.000 -1.500
v -5.500 -2.000 0.500
v -5.500 -2.000 1.500
v -5.500 -1.000 1.500
v -5.500 -1.000 -2.500
v -5.500 0.000 -2.500
v -5.500 -1.000 2.500
v -5.500 0.000 2.500
v -5.500 1.000 -1.500
v -5.500 1.000 -2.500
v -5.500 1.000 2.500
v -5.500 1.000 1.500
v -5.500 2.000 -0.500
v -5.500 2.000 -1.500
v -5.500 2.000 0.500
v -5.500 2.000 1.500
v -4.500 -2.000 -1.500
v -4.500 -2.000 -0.500
v -4.500 -1.000 -1.500
v -4.500 -2.000 0.500
v -4.500 -2.000 1.500
v -4.500 -1.000 1.500
v -4.500 -1.000 -2.500
v -4.500 0.000 -2.500
v -4.500 -1.000 2.500
v -4.500 0.000 2.500
v -4.500 1.000 -1.500
v -4.500 1.000 -2.500
v -4.500 1.000 2.500
v -4.500 1.000 1.500
v -4.500 2.000 -0.500
v -4.500 2.000 -1.500
v -4.500 2.000 0.500
v -4.500 2.000 1.500
v -3.500 -2.000 -1.500
v -3.500 -2.000 -0.500
v -3.500 -1.000 -1.500
v -3.500 -2.000 0.500
v -3.500 -2.000 1.500
v -3.500 -1.000 1.500
v -3.500 -1.000 -2.500
v -3.500 0.000 -2.500
v -3.500 -1.000 2.500
v -3.500 0.000 2.500
v -3.500 1.000 -1.500
v -3.500 1.000 -2.500
v -3.500 1.000 2.500
v -3.500 1.000 1.500
v -3.500 2.000 -0.500
v -3.500 2.000 -1.500
v -3.500 2.000 0.500
v -3.500 2.000 1.500
v -2.500 -2.000 -1.500
v -2.500 -2.000 -0.500
v -2.500 -1.000 -1.500
v -2.500 -2.000 0.500
v -2.500 -2.000 1.500
v -2.500 -1.000 1.500
v -2.500 -1.000 -2.500
v -2.500 0.000 -2.500
v -2.500 -1.000 2.500
v -2.500 0.000 2.500
v -2.500 1.000 -1.500
v -2.500 1.000 -2.500
v -2.500 1.000 2.500
v -2.500 1.000 1.500
v -2.500 2.000 -0.500
v -2.500 2.000 -1.500
v -2.500 2.000 0.500
v -2.500 2.000 1.500
v -1.500 -2.000 -1.500
v -1.500 -2.000 -0.500
v -1.500 -1.000 -1.500
v -1.500 -2.000 0.500
v -1.500 -2.000 1.500
v -1.500 -1.000 1.500
v -1.500 -1.000 -2.500
v -1.500 0.000 -2.500
v -1.500 -1.000 2.500
v -1.500 0.000 2.500
v -1.500 1.000 -1.500
v -1.500 1.000 -2.500
v -1.500 1.000 2.500
v -1.500 1.000 1.500
v -1.500 2.000 -0.500
v -1.500 2.000 -1.500
v -1.500 2.000 0.500
v -1.500 2.000 1.500
v -1.500 -4.000 -1.500
v -1.500 -3.000 -1.500
v -1.500 -3.000 -2.500
v -1.500 -4.000 -2.500
v -0.500 -4.000 -2.500
v -0.500 -4.000 -1.500
v -0.500 -3.000 -2.500
v -1.500 -4.000 -0.500
v -1.500 -3.000 -0.500
v -0.500 -4.000 -0.500
v -1.500 -4.000 0.500
v -1.500 -3.000 0.500
v -0.500 -4.000 0.500
v -1.500 -4.000 1.500
v -1.500 -3.000 1.500
v -0.500 -4.000 1.500
v -1.500 -4.000 2.500
v -1.500 -3.000 2.500
v -0.500 -4.000 2.500
v -0.500 -3.000 2.500
v -1.500 -2.000 -2.500
v -1.500 -2.000 -3.500
v -1.500 -3.000 -3.500
v -0.500 -3.000 -3.500
v -0.500 -2.000 -3.500
v -1.500 -2.000 2.500
v -1.500 -3.000 3.500
v -1.500 -2.000 3.500
v -0.500 -3.000 3.500
v -0.500 -2.000 3.500
v -1.500 -1.000 -3.500
v -1.500 -1.000 -4.500
v -1.500 -2.000 -4.500
v -0.500 -2.000 -4.500
v -0.500 -1.000 -4.500
v -1.500 -1.000 3.500
v -1.500 -2.000 4.500
v -1.500 -1.000 4.500
v -0.500 -2.000 4.500
v -0.500 -1.000 4.500
v -1.500 0.000 -3.500
v -1.500 0.000 -4.500
v -0.500 0.000 -4.500
v -1.500 0.000 3.500
v -1.500 0.000 4.500
v -0.500 0.000 4.500
v -1.500 1.000 -3.500
v -1.500 1.000 -4.500
v -0.500 1.000 -4.500
v -1.500 1.000 3.500
v -1.500 1.000 4.500
v -0.500 1.000 4.500
v -1.500 2.000 -3.500
v -1.500 2.000 -4.500
v -0.500 2.000 -3.500
v -0.500 2.000 -4.500
v -1.500 2.000 -2.500
v -1.500 2.000 2.500
v -1.500 2.000 3.500
v -1.500 2.000 4.500
v -0.500 2.000 4.500
v -0.500 2.000 3.500
v -1.500 3.000 -2.500
v -1.500 3.000 -3.500
v -0.500 3.000 -2.500
v -0.500 3.000 -3.500
v -1.500 3.000 -1.500
v -1.500 3.000 -0.500
v -1.500 3.000 0.500
v -1.500 3.000 1.500
v -1.500 3.000 2.500
v -1.500 3.000 3.500
v -0.500 3.000 3.500
v -0.500 3.000 2.500
v -1.500 4.000 -1.500
v -1.500 4.000 -2.500
v -0.500 4.000 -1.500
v -0.500 4.000 -2.500
v -1.500 4.000 -0.500
v -0.500 4.000 -0.500
v -1.500 4.000 0.500
v -0.500 4.000 0.500
v -1.500 4.000 1.500
v -0.500 4.000 1.500
v -1.500 4.000 2.500
v -0.500 4.000 2.500
v -0.500 -6.000 -1.500
v -0.500 -5.000 -1.500
v -0.500 -5.000 -2.500
v -0.500 -6.000 -2.500
v 0.500 -6.000 -2.500
v 0.500 -6.000 -1.500
v 0.500 -5.000 -2.500
v -0.500 -6.000 -0.500
v -0.500 -5.000 -0.500
v 0.500 -6.000 -0.500
v -0.500 -6.000 0.500
v -0.500 -5.000 0.500
v 0.500 -6.000 0.500
v -0.500 -6.000 1.500
v -0.500 -5.000 1.500
v 0.500 -6.000 1.500
v -0.500 -6.000 2.500
v -0.500 -5.000 2.500
v 0.500 -6.000 2.500
v 0.500 -5.000 2.500
v -0.500 -5.000 -3.500
v -0.500 -4.000 -3.500
v -0.500 -4.000 -4.500
v -0.500 -5.000 -4.500
v 0.500 -5.000 -4.500
v 0.500 -5.000 -3.500
v 0.500 -4.000 -4.500
v -0.500 -5.000 3.500
v -0.500 -4.000 3.500
v 0.500 -5.000 3.500
v -0.500 -5.000 4.500
v -0.500 -4.000 4.500
v 0.500 -5.000 4.500
v 0.500 -4.000 4.500
v -0.500 -3.000 -4.500
v -0.500 -3.000 -5.500
v -0.500 -4.000 -5.500
v 0.500 -4.000 -5.500
v 0.500 -3.000 -5.500
v -0.500 -3.000 4.500
v -0.500 -4.000 5.500
v -0.500 -3.000 5.500
v 0.500 -4.000 5.500
v 0.500 -3.000 5.500
v -0.500 -2.000 -5.500
v 0.500 -2.000 -5.500
v -0.500 -2.000 5.500
v 0.500 -2.000 5.500
v -0.500 -1.000 -5.500
v -0.500 -1.000 -6.500
v -0.500 -2.000 -6.500
v 0.500 -2.000 -6.500
v 0.500 -1.000 -6.500
v -0.500 -1.000 5.500
v -0.500 -2.000 6.500
v -0.500 -1.000 6.500
v 0.500 -2.000 6.500
v 0.500 -1.000 6.500
v -0.500 0.000 -5.500
v -0.500 0.000 -6.500
v 0.500 0.000 -6.500
v -0.500 0.000 5.500
v -0.500 0.000 6.500
v 0.500 0.000 6.500
v -0.500 1.000 -5.500
v -0.500 1.000 -6.500
v 0.500 1.000 -6.500
v -0.500 1.000 5.500
v -0.500 1.000 6.500
v 0.500 1.000 6.500
v -0.500 2.000 -5.500
v -0.500 2.000 -6.500
v 0.500 2.000 -5.500
v 0.500 2.000 -6.500
v -0.500 2.000 5.500
v -0.500 2.000 6.500
v 0.500 2.000 6.500
v 0.500 2.000 5.500
v -0.500 3.000 -4.500
v -0.500 3.000 -5.500
v 0.500 3.000 -5.500
v -0.500 3.000 4.500
v -0.500 3.000 5.500
v 0.500 3.000 5.500
v -0.500 4.000 -4.500
v -0.500 4.000 -5.500
v 0.500 4.000 -4.500
v 0.500 4.000 -5.500
v -0.500 4.000 -3.500
v -0.500 4.000 3.500
v -0.500 4.000 4.500
v -0.500 4.000 5.500
v 0.500 4.000 5.500
v 0.500 4.000 4.500
v -0.500 5.000 -3.500
v -0.500 5.000 -4.500
v 0.500 5.000 -3.500
v 0.500 5.000 -4.500
v -0.500 5.000 -2.500
v 0.500 5.000 -2.500
v -0.500 5.000 -1.500
v -0.500 5.000 -0.500
v -0.500 5.000 0.500
v -0.500 5.000 1.500
v -0.500 5.000 2.500
v -0.500 5.000 3.500
v 0.500 5.000 3.500
v 0.500 5.000 2.500
v -0.500 5.000 4.500
v 0.500 5.000 4.500
v -0.500 6.000 -1.500
v -0.500 6.000 -2.500
v 0.500 6.000 -1.500
v 0.500 6.000 -2.500
v -0.500 6.000 -0.500
v 0.500 6.000 -0.500
v -0.500 6.000 0.500
v 0.500 6.000 0.500
v -0.500 6.000 1.500
v 0.500 6.000 1.500
v -0.500 6.000 2.500
v 0.500 6.000 2.500
v 0.500 -7.000 -2.500
v 0.500 -6.000 -3.500
v 0.500 -7.000 -3.500
v 1.500 -7.000 -3.500
v 1.500 -7.000 -2.500
v 1.500 -6.000 -3.500
v 0.500 -7.000 -1.500
v 1.500 -7.000 -1.500
v 0.500 -7.000 -0.500
v 1.500 -7.000 -0.500
v 0.500 -7.000 0.500
v 1.500 -7.000 0.500
v 0.500 -7.000 1.500
v 1.500 -7.000 1.500
v 0.500 -7.000 2.500
v 1.500 -7.000 2.500
v 0.500 -7.000 3.500
v 0.500 -6.000 3.500
v 1.500 -7.000 3.500
v 1.500 -6.000 3.500
v 0.500 -6.000 -4.500
v 1.500 -6.000 -4.500
v 1.500 -5.000 -4.500
v 0.500 -6.000 4.500
v 1.500 -6.000 4.500
v 1.500 -5.000 4.500
v 0.500 -5.000 -5.500
v 1.500 -5.000 -5.500
v 1.500 -4.000 -5.500
v 0.500 -5.000 5.500
v 1.500 -5.000 5.500
v 1.500 -4.000 5.500
v 0.500 -3.000 -6.500
v 0.500 -4.000 -6.500
v 1.500 -4.000 -6.500
v 1.500 -3.000 -6.500
v 0.500 -4.000 6.500
v 0.500 -3.000 6.500
v 1.500 -4.000 6.500
v 1.500 -3.000 6.500
v 0.500 -2.000 -7.500
v 0.500 -3.000 -7.500
v 1.500 -3.000 -7.500
v 1.500 -2.000 -7.500
v 0.500 -3.000 7.500
v 0.500 -2.000 7.500
v 1.500 -3.000 7.500
v 1.500 -2.000 7.500
v 0.500 -1.000 -7.500
v 1.500 -1.000 -7.500
v 0.500 -1.000 7.500
v 1.500 -1.000 7.500
v 0.500 0.000 -7.500
v 1.500 0.000 -7.500
v 0.500 0.000 7.500
v 1.500 0.000 7.500
v 0.500 1.000 -7.500
v 1.500 1.000 -7.500
v 0.500 1.000 7.500
v 1.500 1.000 7.500
v 0.500 2.000 -7.500
v 1.500 2.000 -7.500
v 0.500 2.000 7.500
v 1.500 2.000 7.500
v 0.500 3.000 -6.500
v 0.500 3.000 -7.500
v 1.500 3.000 -6.500
v 1.500 3.000 -7.500
v 0.500 3.000 6.500
v 0.500 3.000 7.500
v 1.500 3.000 7.500
v 1.500 3.000 6.500
v 0.500 4.000 -6.500
v 1.500 4.000 -5.500
v 1.500 4.000 -6.500
v 0.500 4.000 6.500
v 1.500 4.000 6.500
v 1.500 4.000 5.500
v 0.500 5.000 -5.500
v 1.500 5.000 -4.500
v 1.500 5.000 -5.500
v 0.500 5.000 5.500
v 1.500 5.000 5.500
v 1.500 5.000 4.500
v 0.500 6.000 -3.500
v 0.500 6.000 -4.500
v 1.500 6.000 -3.500
v 1.500 6.000 -4.500
v 0.500 6.000 3.500
v 0.500 6.000 4.500
v 1.500 6.000 4.500
v 1.500 6.000 3.500
v 0.500 7.000 -2.500
v 0.500 7.000 -3.500
v 1.500 7.000 -2.500
v 1.500 7.000 -3.500
v 0.500 7.000 -1.500
v 1.500 7.000 -1.500
v 0.500 7.000 -0.500
v 1.500 7.000 -0.500
v 0.500 7.000 0.500
v 1.500 7.000 0.500
v 0.500 7.000 1.500
v 1.500 7.000 1.500
v 0.500 7.000 2.500
v 1.500 7.000 2.500
v 0.500 7.000 3.500
v 1.500 7.000 3.500
v 2.500 -7.000 -3.500
v 2.500 -7.000 -2.500
v 2.500 -6.000 -3.500
v 2.500 -7.000 -1.500
v 2.500 -7.000 -0.500
v 2.500 -7.000 0.500
v 2.500 -7.000 1.500
v 2.500 -7.000 2.500
v 2.500 -7.000 3.500
v 2.500 -6.000 3.500
v 2.500 -6.000 -4.500
v 2.500 -5.000 -4.500
v 2.500 -6.000 4.500
v 2.500 -5.000 4.500
v 2.500 -5.000 -5.500
v 2.500 -4.000 -5.500
v 2.500 -5.000 5.500
v 2.500 -4.000 5.500
v 2.500 -4.000 -6.500
v 2.500 -3.000 -6.500
v 2.500 -4.000 6.500
v 2.500 -3.000 6.500
v 2.500 -3.000 -7.500
v 2.500 -2.000 -7.500
v 2.500 -3.000 7.500
v 2.500 -2.000 7.500
v 2.500 -1.000 -7.500
v 2.500 -1.000 7.500
v 2.500 0.000 -7.500
v 2.500 0.000 7.500
v 2.500 1.000 -7.500
v 2.500 1.000 7.500
v 2.500 2.000 -7.500
v 2.500 2.000 7.500
v 2.500 3.000 -6.500
v 2.500 3.000 -7.500
v 2.500 3.000 7.500
v 2.500 3.000 6.500
v 2.500 4.000 -5.500
v 2.500 4.000 -6.500
v 2.500 4.000 6.500
v 2.500 4.000 5.500
v 2.500 5.000 -4.500
v 2.500 5.000 -5.500
v 2.500 5.000 5.500
v 2.500 5.000 4.500
v 2.500 6.000 -3.500
v 2.500 6.000 -4.500
v 2.500 6.000 4.500
v 2.500 6.000 3.500
v 2.500 7.000 -2.500
v 2.500 7.000 -3.500
v 2.500 7.000 -1.500
v 2.500 7.000 -0.500
v 2.500 7.000 0.500
v 2.500 7.000 1.500
v 2.500 7.000 2.500
v 2.500 7.000 3.500
v 2.500 -8.000 -2.500
v 2.500 -8.000 -3.500
v 3.500 -8.000 -3.500
v 3.500 -8.000 -2.500
v 3.500 -7.000 -3.500
v 2.500 -8.000 -1.500
v 3.500 -8.000 -1.500
v 2.500 -8.000 -0.500
v 3.500 -8.000 -0.500
v 2.500 -8.000 0.500
v 3.500 -8.000 0.500
v 2.500 -8.000 1.500
v 3.500 -8.000 1.500
v 2.500 -8.000 2.500
v 3.500 -8.000 2.500
v 2.500 -8.000 3.500
v 3.500 -8.000 3.500
v 3.500 -7.000 3.500
v 2.500 -7.000 -4.500
v 2.500 -6.000 -5.500
v 2.500 -7.000 -5.500
v 3.500 -7.000 -5.500
v 3.500 -7.000 -4.500
v 3.500 -6.000 -5.500
v 2.500 -7.000 4.500
v 3.500 -7.000 4.500
v 2.500 -7.000 5.500
v 2.500 -6.000 5.500
v 3.500 -7.000 5.500
v 3.500 -6.000 5.500
v 2.500 -5.000 -6.500
v 2.500 -6.000 -6.500
v 3.500 -6.000 -6.500
v 3.500 -5.000 -6.500
v 2.500 -6.000 6.500
v 2.500 -5.000 6.500
v 3.500 -6.000 6.500
v 3.500 -5.000 6.500
v 2.500 -4.000 -7.500
v 2.500 -5.000 -7.500
v 3.500 -5.000 -7.500
v 3.500 -4.000 -7.500
v 2.500 -5.000 7.500
v 2.500 -4.000 7.500
v 3.500 -5.000 7.500
v 3.500 -4.000 7.500
v 3.500 -3.000 -7.500
v 3.500 -3.000 7.500
v 2.500 -2.000 -8.500
v 2.500 -3.000 -8.500
v 3.500 -3.000 -8.500
v 3.500 -2.000 -8.500
v 2.500 -3.000 8.500
v 2.500 -2.000 8.500
v 3.500 -3.000 8.500
v 3.500 -2.000 8.500
v 2.500 -1.000 -8.500
v 3.500 -1.000 -8.500
v 2.500 -1.000 8.500
v 3.500 -1.000 8.500
v 2.500 0.000 -8.500
v 3.500 0.000 -8.500
v 2.500 0.000 8.500
v 3.500 0.000 8.500
v 2.500 1.000 -8.500
v 3.500 1.000 -8.500
v 2.500 1.000 8.500
v 3.500 1.000 8.500
v 2.500 2.000 -8.500
v 3.500 2.000 -8.500
v 2.500 2.000 8.500
v 3.500 2.000 8.500
v 2.500 3.000 -8.500
v 3.500 3.000 -7.500
v 3.500 3.000 -8.500
v 2.500 3.000 8.500
v 3.500 3.000 8.500
v 3.500 3.000 7.500
v 2.500 4.000 -7.500
v 3.500 4.000 -7.500
v 2.500 4.000 7.500
v 3.500 4.000 7.500
v 2.500 5.000 -6.500
v 2.500 5.000 -7.500
v 3.500 5.000 -6.500
v 3.500 5.000 -7.500
v 2.500 5.000 6.500
v 2.500 5.000 7.500
v 3.500 5.000 7.500
v 3.500 5.000 6.500
v 2.500 6.000 -5.500
v 2.500 6.000 -6.500
v 3.500 6.000 -5.500
v 3.500 6.000 -6.500
v 2.500 6.000 5.500
v 2.500 6.000 6.500
v 3.500 6.000 6.500
v 3.500 6.000 5.500
v 2.500 7.000 -4.500
v 2.500 7.000 -5.500
v 3.500 7.000 -4.500
v 3.500 7.000 -5.500
v 3.500 7.000 -3.500
v 2.500 7.000 4.500
v 3.500 7.000 4.500
v 3.500 7.000 3.500
v 2.500 7.000 5.500
v 3.500 7.000 5.500
v 2.500 8.000 -2.500
v 2.500 8.000 -3.500
v 3.500 8.000 -2.500
v 3.500 8.000 -3.500
v 2.500 8.000 -1.500
v 3.500 8.000 -1.500
v 2.500 8.000 -0.500
v 3.500 8.000 -0.500
v 2.500 8.000 0.500
v 3.500 8.000 0.500
v 2.500 8.000 1.500
v 3.500 8.000 1.500
v 2.500 8.000 2.500
v 3.500 8.000 2.500
v 2.500 8.000 3.500
v 3.500 8.000 3.500
v 4.500 -8.000 -3.500
v 4.500 -8.000 -2.500
v 4.500 -7.000 -3.500
v 4.500 -8.000 -1.500
v 4.500 -8.000 -0.500
v 4.500 -8.000 0.500
v 4.500 -8.000 1.500
v 4.500 -8.000 2.500
v 4.500 -8.000 3.500
v 4.500 -7.000 3.500
v 4.500 -7.000 -5.500
v 4.500 -7.000 -4.500
v 4.500 -6.000 -5.500
v 4.500 -7.000 4.500
v 4.500 -7.000 5.500
v 4.500 -6.000 5.500
v 4.500 -6.000 -6.500
v 4.500 -5.000 -6.500
v 4.500 -6.000 6.500
v 4.500 -5.000 6.500
v 4.500 -5.000 -7.500
v 4.500 -4.000 -7.500
v 4.500 -5.000 7.500
v 4.500 -4.000 7.500
v 4.500 -3.000 -7.500
v 4.500 -3.000 7.500
v 4.500 -3.000 -8.500
v 4.500 -2.000 -8.500
v 4.500 -3.000 8.500
v 4.500 -2.000 8.500
v 4.500 -1.000 -8.500
v 4.500 -1.000 8.500
v 4.500 0.000 -8.500
v 4.500 0.000 8.500
v 4.500 1.000 -8.500
v 4.500 1.000 8.500
v 4.500 2.000 -8.500
v 4.500 2.000 8.500
v 4.500 3.000 -7.500
v 4.500 3.000 -8.500
v 4.500 3.000 8.500
v 4.500 3.000 7.500
v 4.500 4.000 -7.500
v 4.500 4.000 7.500
v 4.500 5.000 -6.500
v 4.500 5.000 -7.500
v 4.500 5.000 7.500
v 4.500 5.000 6.500
v 4.500 6.000 -5.500
v 4.500 6.000 -6.500
v 4.500 6.000 6.500
v 4.500 6.000 5.500
v 4.500 7.000 -4.500
v 4.500 7.000 -5.500
v 4.500 7.000 -3.500
v 4.500 7.000 4.500
v 4.500 7.000 3.500
v 4.500 7.000 5.500
v 4.500 8.000 -2.500
v 4.500 8.000 -3.500
v 4.500 8.000 -1.500
v 4.500 8.000 -0.500
v 4.500 8.000 0.500
v 4.500 8.000 1.500
v 4.500 8.000 2.500
v 4.500 8.000 3.500
v 4.500 -9.000 -2.500
v 4.500 -9.000 -3.500
v 5.500 -9.000 -3.500
v 5.500 -9.000 -2.500
v 5.500 -8.000 -3.500
v 4.500 -9.000 -1.500
v 5.500 -9.000 -1.500
v 4.500 -9.000 -0.500
v 5.500 -9.000 -0.500
v 4.500 -9.000 0.500
v 5.500 -9.000 0.500
v 4.500 -9.000 1.500
v 5.500 -9.000 1.500
v 4.500 -9.000 2.500
v 5.500 -9.000 2.500
v 4.500 -9.000 3.500
v 5.500 -9.000 3.500
v 5.500 -8.000 3.500
v 4.500 -8.000 -4.500
v 4.500 -8.000 -5.500
v 5.500 -8.000 -5.500
v 5.500 -8.000 -4.500
v 5.500 -7.000 -5.500
v 4.500 -8.000 4.500
v 5.500 -8.000 4.500
v 4.500 -8.000 5.500
v 5.500 -8.000 5.500
v 5.500 -7.000 5.500
v 4.500 -7.000 -6.500
v 5.500 -7.000 -6.500
v 5.500 -6.000 -6.500
v 4.500 -7.000 6.500
v 5.500 -7.000 6.500
v 5.500 -6.000 6.500
v 4.500 -6.000 -7.500
v 5.500 -6.000 -7.500
v 5.500 -5.000 -7.500
v 4.500 -6.000 7.500
v 5.500 -6.000 7.500
v 5.500 -5.000 7.500
v 4.500 -4.000 -8.500
v 4.500 -5.000 -8.500
v 5.500 -5.000 -8.500
v 5.500 -4.000 -8.500
v 4.500 -5.000 8.500
v 4.500 -4.000 8.500
v 5.500 -5.000 8.500
v 5.500 -4.000 8.500
v 5.500 -3.000 -8.500
v 5.500 -3.000 8.500
v 4.500 -2.000 -9.500
v 4.500 -3.000 -9.500
v 5.500 -3.000 -9.500
v 5.500 -2.000 -9.500
v 4.500 -3.000 9.500
v 4.500 -2.000 9.500
v 5.500 -3.000 9.500
v 5.500 -2.000 9.500
v 4.500 -1.000 -9.500
v 5.500 -1.000 -9.500
v 4.500 -1.000 9.500
v 5.500 -1.000 9.500
v 4.500 0.000 -9.500
v 5.500 0.000 -9.500
v 4.500 0.000 9.500
v 5.500 0.000 9.500
v 4.500 1.000 -9.500
v 5.500 1.000 -9.500
v 4.500 1.000 9.500
v 5.500 1.000 9.500
v 4.500 2.000 -9.500
v 5.500 2.000 -9.500
v 4.500 2.000 9.500
v 5.500 2.000 9.500
v 4.500 3.000 -9.500
v 5.500 3.000 -8.500
v 5.500 3.000 -9.500
v 4.500 3.000 9.500
v 5.500 3.000 9.500
v 5.500 3.000 8.500
v 4.500 4.000 -8.500
v 5.500 4.000 -8.500
v 4.500 4.000 8.500
v 5.500 4.000 8.500
v 4.500 5.000 -8.500
v 5.500 5.000 -7.500
v 5.500 5.000 -8.500
v 4.500 5.000 8.500
v 5.500 5.000 8.500
v 5.500 5.000 7.500
v 4.500 6.000 -7.500
v 5.500 6.000 -6.500
v 5.500 6.000 -7.500
v 4.500 6.000 7.500
v 5.500 6.000 7.500
v 5.500 6.000 6.500
v 4.500 7.000 -6.500
v 5.500 7.000 -5.500
v 5.500 7.000 -6.500
v 4.500 7.000 6.500
v 5.500 7.000 6.500
v 5.500 7.000 5.500
v 4.500 8.000 -4.500
v 4.500 8.000 -5.500
v 5.500 8.000 -4.500
v 5.500 8.000 -5.500
v 5.500 8.000 -3.500
v 4.500 8.000 4.500
v 5.500 8.000 4.500
v 5.500 8.000 3.500
v 4.500 8.000 5.500
v 5.500 8.000 5.500
v 4.500 9.000 -2.500
v 4.500 9.000 -3.500
v 5.500 9.000 -2.500
v 5.500 9.000 -3.500
v 4.500 9.000 -1.500
v 5.500 9.000 -1.500
v 4.500 9.000 -0.500
v 5.500 9.000 -0.500
v 4.500 9.000 0.500
v 5.500 9.000 0.500
v 4.500 9.000 1.500
v 5.500 9.000 1.500
v 4.500 9.000 2.500
v 5.500 9.000 2.500
v 4.500 9.000 3.500
v 5.500 9.000 3.500
v 6.500 -9.000 -3.500
v 6.500 -9.000 -2.500
v 6.500 -8.000 -3.500
v 6.500 -9.000 -1.500
v 6.500 -9.000 -0.500
v 6.500 -9.000 0.500
v 6.500 -9.000 1.500
v 6.500 -9.000 2.500
v 6.500 -9.000 3.500
v 6.500 -8.000 3.500
v 6.500 -8.000 -5.500
v 6.500 -8.000 -4.500
v 6.500 -7.000 -5.500
v 6.500 -8.000 4.500
v 6.500 -8.000 5.500
v 6.500 -7.000 5.500
v 6.500 -7.000 -6.500
v 6.500 -6.000 -6.500
v 6.500 -7.000 6.500
v 6.500 -6.000 6.500
v 6.500 -6.000 -7.500
v 6.500 -5.000 -7.500
v 6.500 -6.000 7.500
v 6.500 -5.000 7.500
v 6.500 -5.000 -8.500
v 6.500 -4.000 -8.500
v 6.500 -5.000 8.500
v 6.500 -4.000 8.500
v 6.500 -3.000 -8.500
v 6.500 -3.000 8.500
v 6.500 -3.000 -9.500
v 6.500 -2.000 -9.500
v 6.500 -3.000 9.500
v 6.500 -2.000 9.500
v 6.500 -1.000 -9.500
v 6.500 -1.000 9.500
v 6.500 0.000 -9.500
v 6.500 0.000 9.500
v 6.500 1.000 -9.500
v 6.500 1.000 9.500
v 6.500 2.000 -9.500
v 6.500 2.000 9.500
v 6.500 3.000 -8.500
v 6.500 3.000 -9.500
v 6.500 3.000 9.500
v 6.500 3.000 8.500
v 6.500 4.000 -8.500
v 6.500 4.000 8.500
v 6.500 5.000 -7.500
v 6.500 5.000 -8.500
v 6.500 5.000 8.500
v 6.500 5.000 7.500
v 6.500 6.000 -6.500
v 6.500 6.000 -7.500
v 6.500 6.000 7.500
v 6.500 6.000 6.500
v 6.500 7.000 -5.500
v 6.500 7.000 -6.500
v 6.500 7.000 6.500
v 6.500 7.000 5.500
v 6.500 8.000 -4.500
v 6.500 8.000 -5.500
v 6.500 8.000 -3.500
v 6.500 8.000 4.500
v 6.500 8.000 3.500
v 6.500 8.000 5.500
v 6.500 9.000 -2.500
v 6.500 9.000 -3.500
v 6.500 9.000 -1.500
v 6.500 9.000 -0.500
v 6.500 9.000 0.500
v 6.500 9.000 1.500
v 6.500 9.000 2.500
v 6.500 9.000 3.500
v 7.500 -9.000 -3.500
v 7.500 -9.000 -2.500
v 7.500 -8.000 -3.500
v 7.500 -9.000 -1.500
v 7.500 -9.000 -0.500
v 7.500 -9.000 0.500
v 7.500 -9.000 1.500
v 7.500 -9.000 2.500
v 7.500 -9.000 3.500
v 7.500 -8.000 3.500
v 7.500 -8.000 -5.500
v 7.500 -8.000 -4.500
v 7.500 -7.000 -5.500
v 7.500 -8.000 4.500
v 7.500 -8.000 5.500
v 7.500 -7.000 5.500
v 7.500 -7.000 -6.500
v 7.500 -6.000 -6.500
v 7.500 -7.000 6.500
v 7.500 -6.000 6.500
v 7.500 -6.000 -7.500
v 7.500 -5.000 -7.500
v 7.500 -6.000 7.500
v 7.500 -5.000 7.500
v 7.500 -5.000 -8.500
v 7.500 -4.000 -8.500
v 7.500 -5.000 8.500
v 7.500 -4.000 8.500
v 7.500 -3.000 -8.500
v 7.500 -3.000 8.500
v 7.500 -3.000 -9.500
v 7.500 -2.000 -9.500
v 7.500 -3.000 9.500
v 7.500 -2.000 9.500
v 7.500 -1.000 -9.500
v 7.500 -1.000 9.500
v 7.500 0.000 -9.500
v 7.500 0.000 9.500
v 7.500 1.000 -9.500
v 7.500 1.000 9.500
v 7.500 2.000 -9.500
v 7.500 2.000 9.500
v 7.500 3.000 -8.500
v 7.500 3.000 -9.500
v 7.500 3.000 9.500
v 7.500 3.000 8.500
v 7.500 4.000 -8.500
v 7.500 4.000 8.500
v 7.500 5.000 -7.500
v 7.500 5.000 -8.500
v 7.500 5.000 8.500
v 7.500 5.000 7.500
v 7.500 6.000 -6.500
v 7.500 6.000 -7.500
v 7.500 6.000 7.500
v 7.500 6.000 6.500
v 7.500 7.000 -5.500
v 7.500 7.000 -6.500
v 7.500 7.000 6.500
v 7.500 7.000 5.500
v 7.500 8.000 -4.500
v 7.500 8.000 -5.500
v 7.500 8.000 -3.500
v 7.500 8.000 4.500
v 7.500 8.000 3.500
v 7.500 8.000 5.500
v 7.500 9.000 -2.500
v 7.500 9.000 -3.500
v 7.500 9.000 -1.500
v 7.500 9.000 -0.500
v 7.500 9.000 0.500
v 7.500 9.000 1.500
v 7.500 9.000 2.500
v 7.500 9.000 3.500
v 8.500 -9.000 -3.500
v 8.500 -9.000 -2.500
v 8.500 -8.000 -3.500
v 8.500 -9.000 -1.500
v 8.500 -9.000 -0.500
v 8.500 -9.000 0.500
v 8.500 -9.000 1.500
v 8.500 -9.000 2.500
v 8.500 -9.000 3.500
v 8.500 -8.000 3.500
v 8.500 -8.000 -5.500
v 8.500 -8.000 -4.500
v 8.500 -7.000 -5.500
v 8.500 -8.000 4.500
v 8.500 -8.000 5.500
v 8.500 -7.000 5.500
v 8.500 -7.000 -6.500
v 8.500 -6.000 -6.500
v 8.500 -7.000 6.500
v 8.500 -6.000 6.500
v 8.500 -6.000 -7.500
v 8.500 -5.000 -7.500
v 8.500 -6.000 7.500
v 8.500 -5.000 7.500
v 8.500 -5.000 -8.500
v 8.500 -4.000 -8.500
v 8.500 -5.000 8.500
v 8.500 -4.000 8.500
v 8.500 -3.000 -8.500
v 8.500 -3.000 8.500
v 8.500 -3.000 -9.500
v 8.500 -2.000 -9.500
v 8.500 -3.000 9.500
v 8.500 -2.000 9.500
v 8.500 -1.000 -9.500
v 8.500 -1.000 9.500
v 8.500 0.000 -9.500
v 8.500 0.000 9.500
v 8.500 1.000 -9.500
v 8.500 1.000 9.500
v 8.500 2.000 -9.500
v 8.500 2.000 9.500
v 8.500 3.000 -8.500
v 8.500 3.000 -9.500
v 8.500 3.000 9.500
v 8.500 3.000 8.500
v 8.500 4.000 -8.500
v 8.500 4.000 8.500
v 8.500 5.000 -7.500
v 8.500 5.000 -8.500
v 8.500 5.000 8.500
v 8.500 5.000 7.500
v 8.500 6.000 -6.500
v 8.500 6.000 -7.500
v 8.500 6.000 7.500
v 8.500 6.000 6.500
v 8.500 7.000 -5.500
v 8.500 7.000 -6.500
v 8.500 7.000 6.500
v 8.500 7.000 5.500
v 8.500 8.000 -4.500
v 8.500 8.000 -5.500
v 8.500 8.000 -3.500
v 8.500 8.000 4.500
v 8.500 8.000 3.500
v 8.500 8.000 5.500
v 8.500 9.000 -2.500
v 8.500 9.000 -3.500
v 8.500 9.000 -1.500
v 8.500 9.000 -0.500
v 8.500 9.000 0.500
v 8.500 9.000 1.500
v 8.500 9.000 2.500
v 8.500 9.000 3.500
v 9.500 -9.000 -3.500
v 9.500 -8.000 -3.500
v 9.500 -8.000 -2.500
v 9.500 -9.000 -2.500
v 9.500 -8.000 -1.500
v 9.500 -9.000 -1.500
v 9.500 -8.000 -0.500
v 9.500 -9.000 -0.500
v 9.500 -8.000 0.500
v 9.500 -9.000 0.500
v 9.500 -8.000 1.500
v 9.500 -9.000 1.500
v 9.500 -8.000 2.500
v 9.500 -9.000 2.500
v 9.500 -8.000 3.500
v 9.500 -9.000 3.500
v 9.500 -8.000 -5.500
v 9.500 -7.000 -5.500
v 9.500 -7.000 -4.500
v 9.500 -8.000 -4.500
v 9.500 -7.000 -3.500
v 9.500 -7.000 3.500
v 9.500 -7.000 4.500
v 9.500 -8.000 4.500
v 9.500 -7.000 5.500
v 9.500 -8.000 5.500
v 9.500 -7.000 -6.500
v 9.500 -6.000 -6.500
v 9.500 -6.000 -5.500
v 9.500 -6.000 5.500
v 9.500 -6.000 6.500
v 9.500 -7.000 6.500
v 9.500 -6.000 -7.500
v 9.500 -5.000 -7.500
v 9.500 -5.000 -6.500
v 9.500 -5.000 6.500
v 9.500 -5.000 7.500
v 9.500 -6.000 7.500
v 9.500 -5.000 -8.500
v 9.500 -4.000 -8.500
v 9.500 -4.000 -7.500
v 9.500 -4.000 7.500
v 9.500 -4.000 8.500
v 9.500 -5.000 8.500
v 9.500 -3.000 -8.500
v 9.500 -3.000 -7.500
v 9.500 -3.000 7.500
v 9.500 -3.000 8.500
v 9.500 -3.000 -9.500
v 9.500 -2.000 -9.500
v 9.500 -2.000 -8.500
v 9.500 -2.000 8.500
v 9.500 -2.000 9.500
v 9.500 -3.000 9.500
v 9.500 -1.000 -9.500
v 9.500 -1.000 -8.500
v 9.500 -1.000 8.500
v 9.500 -1.000 9.500
v 9.500 0.000 -9.500
v 9.500 0.000 -8.500
v 9.500 0.000 8.500
v 9.500 0.000 9.500
v 9.500 1.000 -9.500
v 9.500 1.000 -8.500
v 9.500 1.000 8.500
v 9.500 1.000 9.500
v 9.500 2.000 -9.500
v 9.500 2.000 -8.500
v 9.500 2.000 8.500
v 9.500 2.000 9.500
v 9.500 3.000 -9.500
v 9.500 3.000 -8.500
v 9.500 3.000 8.500
v 9.500 3.000 9.500
v 9.500 4.000 -8.500
v 9.500 4.000 -7.500
v 9.500 3.000 -7.500
v 9.500 3.000 7.500
v 9.500 4.000 7.500
v 9.500 4.000 8.500
v 9.500 5.000 -8.500
v 9.500 5.000 -7.500
v 9.500 5.000 7.500
v 9.500 5.000 8.500
v 9.500 6.000 -7.500
v 9.500 6.000 -6.500
v 9.500 5.000 -6.500
v 9.500 5.000 6.500
v 9.500 6.000 6.500
v 9.500 6.000 7.500
v 9.500 7.000 -6.500
v 9.500 7.000 -5.500
v 9.500 6.000 -5.500
v 9.500 6.000 5.500
v 9.500 7.000 5.500
v 9.500 7.000 6.500
v 9.500 8.000 -5.500
v 9.500 8.000 -4.500
v 9.500 7.000 -4.500
v 9.500 8.000 -3.500
v 9.500 7.000 -3.500
v 9.500 7.000 3.500
v 9.500 8.000 3.500
v 9.500 8.000 4.500
v 9.500 7.000 4.500
v 9.500 8.000 5.500
v 9.500 9.000 -3.500
v 9.500 9.000 -2.500
v 9.500 8.000 -2.500
v 9.500 9.000 -1.500
v 9.500 8.000 -1.500
v 9.500 9.000 -0.500
v 9.500 8.000 -0.500
v 9.500 9.000 0.500
v 9.500 8.000 0.500
v 9.500 9.000 1.500
v 9.500 8.000 1.500
v 9.500 9.000 2.500
v 9.500 8.000 2.500
v 9.500 9.000 3.500
v 10.500 -8.000 -3.500
v 10.500 -8.000 -2.500
v 10.500 -7.000 -3.500
v 10.500 -8.000 -1.500
v 10.500 -8.000 -0.500
v 10.500 -8.000 0.500
v 10.500 -8.000 1.500
v 10.500 -8.000 2.500
v 10.500 -8.000 3.500
v 10.500 -7.000 3.500
v 10.500 -7.000 -5.500
v 10.500 -7.000 -4.500
v 10.500 -6.000 -5.500
v 10.500 -7.000 4.500
v 10.500 -7.000 5.500
v 10.500 -6.000 5.500
v 10.500 -6.000 -6.500
v 10.500 -5.000 -6.500
v 10.500 -6.000 6.500
v 10.500 -5.000 6.500
v 10.500 -5.000 -7.500
v 10.500 -4.000 -7.500
v 10.500 -5.000 7.500
v 10.500 -4.000 7.500
v 10.500 -3.000 -7.500
v 10.500 -3.000 7.500
v 10.500 -3.000 -8.500
v 10.500 -2.000 -8.500
v 10.500 -3.000 8.500
v 10.500 -2.000 8.500
v 10.500 -1.000 -8.500
v 10.500 -1.000 8.500
v 10.500 0.000 -8.500
v 10.500 0.000 8.500
v 10.500 1.000 -8.500
v 10.500 1.000 8.500
v 10.500 2.000 -8.500
v 10.500 2.000 8.500
v 10.500 3.000 -7.500
v 10.500 3.000 -8.500
v 10.500 3.000 8.500
v 10.500 3.000 7.500
v 10.500 4.000 -7.500
v 10.500 4.000 7.500
v 10.500 5.000 -6.500
v 10.500 5.000 -7.500
v 10.500 5.000 7.500
v 10.500 5.000 6.500
v 10.500 6.000 -5.500
v 10.500 6.000 -6.500
v 10.500 6.000 6.500
v 10.500 6.000 5.500
v 10.500 7.000 -4.500
v 10.500 7.000 -5.500
v 10.500 7.000 -3.500
v 10.500 7.000 4.500
v 10.500 7.000 3.500
v 10.500 7.000 5.500
v 10.500 8.000 -2.500
v 10.500 8.000 -3.500
v 10.500 8.000 -1.500
v 10.500 8.000 -0.500
v 10.500 8.000 0.500
v 10.500 8.000 1.500
v 10.500 8.000 2.500
v 10.500 8.000 3.500
v 11.500 -8.000 -3.500
v 11.500 -7.000 -3.500
v 11.500 -7.000 -2.500
v 11.500 -8.000 -2.500
v 11.500 -7.000 -1.500
v 11.500 -8.000 -1.500
v 11.500 -7.000 -0.500
v 11.500 -8.000 -0.500
v 11.500 -7.000 0.500
v 11.500 -8.000 0.500
v 11.500 -7.000 1.500
v 11.500 -8.000 1.500
v 11.500 -7.000 2.500
v 11.500 -8.000 2.500
v 11.500 -7.000 3.500
v 11.500 -8.000 3.500
v 11.500 -7.000 -5.500
v 11.500 -6.000 -5.500
v 11.500 -6.000 -4.500
v 11.500 -7.000 -4.500
v 11.500 -6.000 -3.500
v 11.500 -6.000 3.500
v 11.500 -6.000 4.500
v 11.500 -7.000 4.500
v 11.500 -6.000 5.500
v 11.500 -7.000 5.500
v 11.500 -6.000 -6.500
v 11.500 -5.000 -6.500
v 11.500 -5.000 -5.500
v 11.500 -5.000 -4.500
v 11.500 -5.000 4.500
v 11.500 -5.000 5.500
v 11.500 -5.000 6.500
v 11.500 -6.000 6.500
v 11.500 -5.000 -7.500
v 11.500 -4.000 -7.500
v 11.500 -4.000 -6.500
v 11.500 -4.000 -5.500
v 11.500 -4.000 5.500
v 11.500 -4.000 6.500
v 11.500 -4.000 7.500
v 11.500 -5.000 7.500
v 11.500 -3.000 -7.500
v 11.500 -3.000 -6.500
v 11.500 -3.000 6.500
v 11.500 -3.000 7.500
v 11.500 -3.000 -8.500
v 11.500 -2.000 -8.500
v 11.500 -2.000 -7.500
v 11.500 -2.000 7.500
v 11.500 -2.000 8.500
v 11.500 -3.000 8.500
v 11.500 -1.000 -8.500
v 11.500 -1.000 -7.500
v 11.500 -1.000 7.500
v 11.500 -1.000 8.500
v 11.500 0.000 -8.500
v 11.500 0.000 -7.500
v 11.500 0.000 7.500
v 11.500 0.000 8.500
v 11.500 1.000 -8.500
v 11.500 1.000 -7.500
v 11.500 1.000 7.500
v 11.500 1.000 8.500
v 11.500 2.000 -8.500
v 11.500 2.000 -7.500
v 11.500 2.000 7.500
v 11.500 2.000 8.500
v 11.500 3.000 -8.500
v 11.500 3.000 -7.500
v 11.500 3.000 7.500
v 11.500 3.000 8.500
v 11.500 4.000 -7.500
v 11.500 4.000 -6.500
v 11.500 3.000 -6.500
v 11.500 3.000 6.500
v 11.500 4.000 6.500
v 11.500 4.000 7.500
v 11.500 5.000 -7.500
v 11.500 5.000 -6.500
v 11.500 5.000 -5.500
v 11.500 4.000 -5.500
v 11.500 4.000 5.500
v 11.500 5.000 5.500
v 11.500 5.000 6.500
v 11.500 5.000 7.500
v 11.500 6.000 -6.500
v 11.500 6.000 -5.500
v 11.500 6.000 -4.500
v 11.500 5.000 -4.500
v 11.500 5.000 4.500
v 11.500 6.000 4.500
v 11.500 6.000 5.500
v 11.500 6.000 6.500
v 11.500 7.000 -5.500
v 11.500 7.000 -4.500
v 11.500 7.000 -3.500
v 11.500 6.000 -3.500
v 11.500 6.000 3.500
v 11.500 7.000 3.500
v 11.500 7.000 4.500
v 11.500 7.000 5.500
v 11.500 8.000 -3.500
v 11.500 8.000 -2.500
v 11.500 7.000 -2.500
v 11.500 8.000 -1.500
v 11.500 7.000 -1.500
v 11.500 8.000 -0.500
v 11.500 7.000 -0.500
v 11.500 8.000 0.500
v 11.500 7.000 0.500
v 11.500 8.000 1.500
v 11.500 7.000 1.500
v 11.500 8.000 2.500
v 11.500 7.000 2.500
v 11.500 8.000 3.500
v 12.500 -7.000 -3.500
v 12.500 -7.000 -2.500
v 12.500 -6.000 -3.500
v 12.500 -7.000 -1.500
v 12.500 -7.000 -0.500
v 12.500 -7.000 0.500
v 12.500 -7.000 1.500
v 12.500 -7.000 2.500
v 12.500 -7.000 3.500
v 12.500 -6.000 3.500
v 12.500 -6.000 -4.500
v 12.500 -5.000 -4.500
v 12.500 -6.000 4.500
v 12.500 -5.000 4.500
v 12.500 -5.000 -5.500
v 12.500 -4.000 -5.500
v 12.500 -5.000 5.500
v 12.500 -4.000 5.500
v 12.500 -4.000 -6.500
v 12.500 -3.000 -6.500
v 12.500 -4.000 6.500
v 12.500 -3.000 6.500
v 12.500 -3.000 -7.500
v 12.500 -2.000 -7.500
v 12.500 -3.000 7.500
v 12.500 -2.000 7.500
v 12.500 -1.000 -7.500
v 12.500 -1.000 7.500
v 12.500 0.000 -7.500
v 12.500 0.000 7.500
v 12.500 1.000 -7.500
v 12.500 1.000 7.500
v 12.500 2.000 -7.500
v 12.500 2.000 7.500
v 12.500 3.000 -6.500
v 12.500 3.000 -7.500
v 12.500 3.000 7.500
v 12.500 3.000 6.500
v 12.500 4.000 -5.500
v 12.500 4.000 -6.500
v 12.500 4.000 6.500
v 12.500 4.000 5.500
v 12.500 5.000 -4.500
v 12.500 5.000 -5.500
v 12.500 5.000 5.500
v 12.500 5.000 4.500
v 12.500 6.000 -3.500
v 12.500 6.000 -4.500
v 12.500 6.000 4.500
v 12.500 6.000 3.500
v 12.500 7.000 -2.500
v 12.500 7.000 -3.500
v 12.500 7.000 -1.500
v 12.500 7.000 -0.500
v 12.500 7.000 0.500
v 12.500 7.000 1.500
v 12.500 7.000 2.500
v 12.500 7.000 3.500
v 13.500 -7.000 -3.500
v 13.500 -6.000 -3.500
v 13.500 -6.000 -2.500
v 13.500 -7.000 -2.500
v 13.500 -6.000 -1.500
v 13.500 -7.000 -1.500
v 13.500 -6.000 -0.500
v 13.500 -7.000 -0.500
v 13.500 -6.000 0.500
v 13.500 -7.000 0.500
v 13.500 -6.000 1.500
v 13.500 -7.000 1.500
v 13.500 -6.000 2.500
v 13.500 -7.000 2.500
v 13.500 -6.000 3.500
v 13.500 -7.000 3.500
v 13.500 -6.000 -4.500
v 13.500 -5.000 -4.500
v 13.500 -5.000 -3.500
v 13.500 -5.000 -2.500
v 13.500 -5.000 2.500
v 13.500 -5.000 3.500
v 13.500 -5.000 4.500
v 13.500 -6.000 4.500
v 13.500 -5.000 -5.500
v 13.500 -4.000 -5.500
v 13.500 -4.000 -4.500
v 13.500 -4.000 4.500
v 13.500 -4.000 5.500
v 13.500 -5.000 5.500
v 13.500 -4.000 -6.500
v 13.500 -3.000 -6.500
v 13.500 -3.000 -5.500
v 13.500 -3.000 5.500
v 13.500 -3.000 6.500
v 13.500 -4.000 6.500
v 13.500 -3.000 -7.500
v 13.500 -2.000 -7.500
v 13.500 -2.000 -6.500
v 13.500 -2.000 -5.500
v 13.500 -2.000 5.500
v 13.500 -2.000 6.500
v 13.500 -2.000 7.500
v 13.500 -3.000 7.500
v 13.500 -1.000 -7.500
v 13.500 -1.000 -6.500
v 13.500 -1.000 6.500
v 13.500 -1.000 7.500
v 13.500 0.000 -7.500
v 13.500 0.000 -6.500
v 13.500 0.000 6.500
v 13.500 0.000 7.500
v 13.500 1.000 -7.500
v 13.500 1.000 -6.500
v 13.500 1.000 6.500
v 13.500 1.000 7.500
v 13.500 2.000 -7.500
v 13.500 2.000 -6.500
v 13.500 2.000 6.500
v 13.500 2.000 7.500
v 13.500 3.000 -7.500
v 13.500 3.000 -6.500
v 13.500 3.000 -5.500
v 13.500 2.000 -5.500
v 13.500 2.000 5.500
v 13.500 3.000 5.500
v 13.500 3.000 6.500
v 13.500 3.000 7.500
v 13.500 4.000 -6.500
v 13.500 4.000 -5.500
v 13.500 4.000 5.500
v 13.500 4.000 6.500
v 13.500 5.000 -5.500
v 13.500 5.000 -4.500
v 13.500 4.000 -4.500
v 13.500 4.000 4.500
v 13.500 5.000 4.500
v 13.500 5.000 5.500
v 13.500 6.000 -4.500
v 13.500 6.000 -3.500
v 13.500 5.000 -3.500
v 13.500 6.000 -2.500
v 13.500 5.000 -2.500
v 13.500 5.000 2.500
v 13.500 6.000 2.500
v 13.500 6.000 3.500
v 13.500 5.000 3.500
v 13.500 6.000 4.500
v 13.500 7.000 -3.500
v 13.500 7.000 -2.500
v 13.500 7.000 -1.500
v 13.500 6.000 -1.500
v 13.500 7.000 -0.500
v 13.500 6.000 -0.500
v 13.500 7.000 0.500
v 13.500 6.000 0.500
v 13.500 7.000 1.500
v 13.500 6.000 1.500
v 13.500 7.000 2.500
v 13.500 7.000 3.500
v 14.500 -6.000 -2.500
v 14.500 -5.000 -2.500
v 14.500 -5.000 -1.500
v 14.500 -6.000 -1.500
v 14.500 -5.000 -0.500
v 14.500 -6.000 -0.500
v 14.500 -5.000 0.500
v 14.500 -6.000 0.500
v 14.500 -5.000 1.500
v 14.500 -6.000 1.500
v 14.500 -5.000 2.500
v 14.500 -6.000 2.500
v 14.500 -5.000 -4.500
v 14.500 -4.000 -4.500
v 14.500 -4.000 -3.500
v 14.500 -5.000 -3.500
v 14.500 -4.000 -2.500
v 14.500 -4.000 -1.500
v 14.500 -4.000 -0.500
v 14.500 -4.000 0.500
v 14.500 -4.000 1.500
v 14.500 -4.000 2.500
v 14.500 -4.000 3.500
v 14.500 -5.000 3.500
v 14.500 -4.000 4.500
v 14.500 -5.000 4.500
v 14.500 -4.000 -5.500
v 14.500 -3.000 -5.500
v 14.500 -3.000 -4.500
v 14.500 -3.000 -3.500
v 14.500 -3.000 -2.500
v 14.500 -3.000 2.500
v 14.500 -3.000 3.500
v 14.500 -3.000 4.500
v 14.500 -3.000 5.500
v 14.500 -4.000 5.500
v 14.500 -2.000 -5.500
v 14.500 -2.000 -4.500
v 14.500 -2.000 -3.500
v 14.500 -2.000 3.500
v 14.500 -2.000 4.500
v 14.500 -2.000 5.500
v 14.500 -2.000 -6.500
v 14.500 -1.000 -6.500
v 14.500 -1.000 -5.500
v 14.500 -1.000 -4.500
v 14.500 -1.000 4.500
v 14.500 -1.000 5.500
v 14.500 -1.000 6.500
v 14.500 -2.000 6.500
v 14.500 0.000 -6.500
v 14.500 0.000 -5.500
v 14.500 0.000 -4.500
v 14.500 0.000 4.500
v 14.500 0.000 5.500
v 14.500 0.000 6.500
v 14.500 1.000 -6.500
v 14.500 1.000 -5.500
v 14.500 1.000 -4.500
v 14.500 1.000 4.500
v 14.500 1.000 5.500
v 14.500 1.000 6.500
v 14.500 2.000 -6.500
v 14.500 2.000 -5.500
v 14.500 2.000 -4.500
v 14.500 2.000 4.500
v 14.500 2.000 5.500
v 14.500 2.000 6.500
v 14.500 3.000 -5.500
v 14.500 3.000 -4.500
v 14.500 3.000 -3.500
v 14.500 2.000 -3.500
v 14.500 2.000 3.500
v 14.500 3.000 3.500
v 14.500 3.000 4.500
v 14.500 3.000 5.500
v 14.500 4.000 -5.500
v 14.500 4.000 -4.500
v 14.500 4.000 -3.500
v 14.500 4.000 -2.500
v 14.500 3.000 -2.500
v 14.500 3.000 2.500
v 14.500 4.000 2.500
v 14.500 4.000 3.500
v 14.500 4.000 4.500
v 14.500 4.000 5.500
v 14.500 5.000 -4.500
v 14.500 5.000 -3.500
v 14.500 5.000 -2.500
v 14.500 5.000 -1.500
v 14.500 4.000 -1.500
v 14.500 5.000 -0.500
v 14.500 4.000 -0.500
v 14.500 5.000 0.500
v 14.500 4.000 0.500
v 14.500 5.000 1.500
v 14.500 4.000 1.500
v 14.500 5.000 2.500
v 14.500 5.000 3.500
v 14.500 5.000 4.500
v 14.500 6.000 -2.500
v 14.500 6.000 -1.500
v 14.500 6.000 -0.500
v 14.500 6.000 0.500
v 14.500 6.000 1.500
v 14.500 6.000 2.500
v 15.500 -4.000 -2.500
v 15.500 -3.000 -2.500
v 15.500 -3.000 -1.500
v 15.500 -4.000 -1.500
v 15.500 -3.000 -0.500
v 15.500 -4.000 -0.500
v 15.500 -3.000 0.500
v 15.500 -4.000 0.500
v 15.500 -3.000 1.500
v 15.500 -4.000 1.500
v 15.500 -3.000 2.500
v 15.500 -4.000 2.500
v 15.500 -3.000 -3.500
v 15.500 -2.000 -3.500
v 15.500 -2.000 -2.500
v 15.500 -2.000 -1.500
v 15.500 -2.000 -0.500
v 15.500 -2.000 0.500
v 15.500 -2.000 1.500
v 15.500 -2.000 2.500
v 15.500 -2.000 3.500
v 15.500 -3.000 3.500
v 15.500 -2.000 -4.500
v 15.500 -1.000 -4.500
v 15.500 -1.000 -3.500
v 15.500 -1.000 -2.500
v 15.500 -1.000 -1.500
v 15.500 -1.000 -0.500
v 15.500 -1.000 0.500
v 15.500 -1.000 1.500
v 15.500 -1.000 2.500
v 15.500 -1.000 3.500
v 15.500 -1.000 4.500
v 15.500 -2.000 4.500
v 15.500 0.000 -4.500
v 15.500 0.000 -3.500
v 15.500 0.000 -2.500
v 15.500 0.000 -1.500
v 15.500 0.000 -0.500
v 15.500 0.000 0.500
v 15.500 0.000 1.500
v 15.500 0.000 2.500
v 15.500 0.000 3.500
v 15.500 0.000 4.500
v 15.500 1.000 -4.500
v 15.500 1.000 -3.500
v 15.500 1.000 -2.500
v 15.500 1.000 -1.500
v 15.500 1.000 -0.500
v 15.500 1.000 0.500
v 15.500 1.000 1.500
v 15.500 1.000 2.500
v 15.500 1.000 3.500
v 15.500 1.000 4.500
v 15.500 2.000 -4.500
v 15.500 2.000 -3.500
v 15.500 2.000 -2.500
v 15.500 2.000 -1.500
v 15.500 2.000 -0.500
v 15.500 2.000 0.500
v 15.500 2.000 1.500
v 15.500 2.000 2.500
v 15.500 2.000 3.500
v 15.500 2.000 4.500
v 15.500 3.000 -3.500
v 15.500 3.000 -2.500
v 15.500 3.000 -1.500
v 15.500 3.000 -0.500
v 15.500 3.000 0.500
v 15.500 3.000 1.500
v 15.500 3.000 2.500
v 15.500 3.000 3.500
v 15.500 4.000 -2.500
v 15.500 4.000 -1.500
v 15.500 4.000 -0.500
v 15.500 4.000 0.500
v 15.500 4.000 1.500
v 15.500 4.000 2.500
f 1 2 3 4
f 1 4 5 6
f 5 4 3 7
f 8 9 2 1
f 8 1 6 10
f 11 12 9 8
f 11 8 10 13
f 14 15 12 11
f 14 11 13 16
f 17 18 15 14
f 17 14 16 19
f 17 19 20 18
f 3 21 22 23
f 3 23 24 7
f 24 23 22 25
f 2 26 21 3
f 9 27 26 2
f 12 28 27 9
f 15 29 28 12
f 18 30 29 15
f 31 32 30 18
f 31 18 20 33
f 31 33 34 32
f 22 35 36 37
f 22 37 38 25
f 38 37 36 39
f 21 40 35 22
f 26 41 40 21
f 27 42 41 26
f 28 43 42 27
f 29 44 43 28
f 30 45 44 29
f 32 46 45 30
f 47 48 46 32
f 47 32 34 49
f 47 49 50 48
f 35 51 52 36
f 39 36 52 53
f 40 54 51 35
f 41 55 54 40
f 42 56 55 41
f 43 57 56 42
f 44 58 57 43
f 45 59 58 44
f 46 60 59 45
f 48 61 60 46
f 48 50 62 61
f 51 63 64 52
f 53 52 64 65
f 54 66 63 51
f 55 67 66 54
f 56 68 67 55
f 57 69 68 56
f 58 70 69 57
f 59 71 70 58
f 60 72 71 59
f 61 73 72 60
f 61 62 74 73
f 63 75 76 64
f 76 75 77 78
f 65 64 76 78
f 66 79 75 63
f 67 80 79 66
f 68 81 80 67
f 69 82 81 68
f 70 83 82 69
f 71 84 83 70
f 72 85 84 71
f 73 86 85 72
f 85 86 87 88
f 73 74 87 86
f 79 89 90 75
f 90 89 91 92
f 77 75 90 92
f 80 93 89 79
f 81 94 93 80
f 82 95 94 81
f 83 96 95 82
f 84 97 96 83
f 85 98 97 84
f 97 98 99 100
f 85 88 99 98
f 93 101 102 89
f 102 101 103 104
f 91 89 102 104
f 94 105 101 93
f 101 105 106 103
f 95 107 105 94
f 105 107 108 106
f 96 109 107 95
f 107 109 110 108
f 97 111 109 96
f 109 111 112 110
f 97 100 112 111
f 6 5 113 114
f 113 5 7 115
f 10 6 114 116
f 13 10 116 117
f 16 13 117 118
f 19 16 118 119
f 19 119 120 20
f 7 24 121 115
f 121 24 25 122
f 33 20 120 123
f 33 123 124 34
f 25 38 125 122
f 125 38 39 126
f 49 34 124 127
f 49 127 128 50
f 126 39 53 129
f 50 128 130 62
f 129 53 65 131
f 62 130 132 74
f 78 77 133 134
f 131 65 78 134
f 88 87 135 136
f 74 132 135 87
f 92 91 137 138
f 133 77 92 138
f 100 99 139 140
f 88 136 139 99
f 104 103 141 142
f 137 91 104 142
f 103 106 143 141
f 106 108 144 143
f 108 110 145 144
f 110 112 146 145
f 100 140 146 112
f 114 113 147 148
f 147 113 115 149
f 116 114 148 150
f 117 116 150 151
f 118 117 151 152
f 119 118 152 153
f 119 153 154 120
f 115 121 155 149
f 155 121 122 156
f 123 120 154 157
f 123 157 158 124
f 122 125 159 156
f 159 125 126 160
f 127 124 158 161
f 127 161 162 128
f 160 126 129 163
f 128 162 164 130
f 163 129 131 165
f 130 164 166 132
f 134 133 167 168
f 165 131 134 168
f 136 135 169 170
f 132 166 169 135
f 138 137 171 172
f 167 133 138 172
f 140 139 173 174
f 136 170 173 139
f 142 141 175 176
f 171 137 142 176
f 141 143 177 175
f 143 144 178 177
f 144 145 179 178
f 145 146 180 179
f 140 174 180 146
f 148 147 181 182
f 181 147 149 183
f 150 148 182 184
f 151 150 184 185
f 152 151 185 186
f 153 152 186 187
f 153 187 188 154
f 149 155 189 183
f 189 155 156 190
f 157 154 188 191
f 157 191 192 158
f 156 159 193 190
f 193 159 160 194
f 161 158 192 195
f 161 195 196 162
f 194 160 163 197
f 162 196 198 164
f 197 163 165 199
f 164 198 200 166
f 168 167 201 202
f 199 165 168 202
f 170 169 203 204
f 166 200 203 169
f 172 171 205 206
f 201 167 172 206
f 174 173 207 208
f 170 204 207 173
f 176 175 209 210
f 205 171 176 210
f 175 177 211 209
f 177 178 212 211
f 178 179 213 212
f 179 180 214 213
f 174 208 214 180
f 182 181 215 216
f 215 181 183 217
f 184 182 216 218
f 185 184 218 219
f 186 185 219 220
f 187 186 220 221
f 187 221 222 188
f 183 189 223 217
f 223 189 190 224
f 191 188 222 225
f 191 225 226 192
f 190 193 227 224
f 227 193 194 228
f 195 192 226 229
f 195 229 230 196
f 228 194 197 231
f 196 230 232 198
f 231 197 199 233
f 198 232 234 200
f 202 201 235 236
f 233 199 202 236
f 204 203 237 238
f 200 234 237 203
f 206 205 239 240
f 235 201 206 240
f 208 207 241 242
f 204 238 241 207
f 210 209 243 244
f 239 205 210 244
f 209 211 245 243
f 211 212 246 245
f 212 213 247 246
f 213 214 248 247
f 208 242 248 214
f 216 215 249 250
f 249 215 217 251
f 218 216 250 252
f 219 218 252 253
f 220 219 253 254
f 221 220 254 255
f 221 255 256 222
f 217 223 257 251
f 257 223 224 258
f 225 222 256 259
f 225 259 260 226
f 224 227 261 258
f 261 227 228 262
f 229 226 260 263
f 229 263 264 230
f 262 228 231 265
f 230 264 266 232
f 265 231 233 267
f 232 266 268 234
f 236 235 269 270
f 267 233 236 270
f 238 237 271 272
f 234 268 271 237
f 240 239 273 274
f 269 235 240 274
f 242 241 275 276
f 238 272 275 241
f 244 243 277 278
f 273 239 244 278
f 243 245 279 277
f 245 246 280 279
f 246 247 281 280
f 247 248 282 281
f 242 276 282 248
f 283 284 285 286
f 250 249 283 286
f 283 249 251 284
f 286 285 287 288
f 252 250 286 288
f 288 287 289 290
f 253 252 288 290
f 290 289 291 292
f 254 253 290 292
f 292 291 293 294
f 255 254 292 294
f 255 294 293 256
f 295 296 297 284
f 251 257 295 284
f 295 257 258 296
f 284 297 298 285
f 285 298 299 287
f 287 299 300 289
f 289 300 301 291
f 291 301 302 293
f 293 302 303 304
f 259 256 293 304
f 259 304 303 260
f 305 306 307 296
f 258 261 305 296
f 305 261 262 306
f 296 307 308 297
f 297 308 309 298
f 301 310 311 302
f 302 311 312 303
f 303 312 313 314
f 263 260 303 314
f 263 314 313 264
f 306 315 316 307
f 306 262 265 315
f 307 316 317 308
f 311 318 319 312
f 312 319 320 313
f 264 313 320 266
f 315 321 322 316
f 315 265 267 321
f 316 322 323 317
f 318 324 325 319
f 319 325 326 320
f 266 320 326 268
f 321 327 328 322
f 270 269 328 327
f 321 267 270 327
f 322 328 329 323
f 323 329 330 331
f 332 333 334 324
f 324 334 335 325
f 325 335 336 326
f 272 271 336 335
f 268 326 336 271
f 328 337 338 329
f 274 273 338 337
f 328 269 274 337
f 329 338 339 330
f 330 339 340 341
f 341 340 342 343
f 343 342 344 333
f 333 344 345 334
f 334 345 346 335
f 276 275 346 345
f 272 335 346 275
f 338 347 348 339
f 278 277 348 347
f 338 273 278 347
f 339 348 349 340
f 277 279 349 348
f 340 349 350 342
f 279 280 350 349
f 342 350 351 344
f 280 281 351 350
f 344 351 352 345
f 281 282 352 351
f 276 345 352 282
f 299 298 353 354
f 353 298 309 355
f 300 299 354 356
f 301 300 356 357
f 301 357 358 310
f 309 308 359 355
f 359 308 317 360
f 311 310 358 361
f 311 361 362 318
f 323 331 363 364
f 360 317 323 364
f 332 324 365 366
f 318 362 365 324
f 330 341 367 368
f 363 331 330 368
f 341 343 369 367
f 343 333 370 369
f 332 366 370 333
f 354 353 371 372
f 371 353 355 373
f 356 354 372 374
f 357 356 374 375
f 357 375 376 358
f 355 359 377 373
f 377 359 360 378
f 361 358 376 379
f 361 379 380 362
f 364 363 381 382
f 378 360 364 382
f 366 365 383 384
f 362 380 383 365
f 368 367 385 386
f 381 363 368 386
f 367 369 387 385
f 369 370 388 387
f 366 384 388 370
f 372 371 389 390
f 389 371 373 391
f 374 372 390 392
f 375 374 392 393
f 375 393 394 376
f 373 377 395 391
f 395 377 378 396
f 379 376 394 397
f 379 397 398 380
f 382 381 399 400
f 396 378 382 400
f 384 383 401 402
f 380 398 401 383
f 386 385 403 404
f 399 381 386 404
f 385 387 405 403
f 387 388 406 405
f 384 402 406 388
f 390 389 407 408
f 407 389 391 409
f 392 390 408 410
f 393 392 410 411
f 393 411 412 394
f 391 395 413 409
f 413 395 396 414
f 397 394 412 415
f 397 415 416 398
f 400 399 417 418
f 414 396 400 418
f 402 401 419 420
f 398 416 419 401
f 404 403 421 422
f 417 399 404 422
f 403 405 423 421
f 405 406 424 423
f 402 420 424 406
f 408 407 425 426
f 425 407 409 427
f 410 408 426 428
f 411 410 428 429
f 411 429 430 412
f 409 413 431 427
f 431 413 414 432
f 415 412 430 433
f 415 433 434 416
f 418 417 435 436
f 432 414 418 436
f 420 419 437 438
f 416 434 437 419
f 422 421 439 440
f 435 417 422 440
f 421 423 441 439
f 423 424 442 441
f 420 438 442 424
f 426 425 443 444
f 443 425 427 445
f 428 426 444 446
f 429 428 446 447
f 429 447 448 430
f 427 431 449 445
f 449 431 432 450
f 433 430 448 451
f 433 451 452 434
f 436 435 453 454
f 450 432 436 454
f 438 437 455 456
f 434 452 455 437
f 440 439 457 458
f 453 435 440 458
f 439 441 459 457
f 441 442 460 459
f 438 456 460 442
f 444 443 461 462
f 461 443 445 463
f 446 444 462 464
f 447 446 464 465
f 447 465 466 448
f 445 449 467 463
f 467 449 450 468
f 451 448 466 469
f 451 469 470 452
f 454 453 471 472
f 468 450 454 472
f 456 455 473 474
f 452 470 473 455
f 458 457 475 476
f 471 453 458 476
f 457 459 477 475
f 459 460 478 477
f 456 474 478 460
f 479 480 481 482
f 479 482 483 484
f 483 482 481 485
f 486 487 480 479
f 486 479 484 488
f 489 490 487 486
f 489 486 488 491
f 492 493 490 489
f 492 489 491 494
f 495 496 493 492
f 495 492 494 497
f 495 497 498 496
f 481 499 500 501
f 481 501 502 485
f 502 501 500 503
f 480 461 499 481
f 487 462 461 480
f 490 464 462 487
f 493 465 464 490
f 496 504 465 493
f 505 506 504 496
f 505 496 498 507
f 505 507 508 506
f 500 509 510 511
f 500 511 512 503
f 512 511 510 513
f 499 467 509 500
f 461 463 467 499
f 504 469 466 465
f 506 514 469 504
f 515 516 514 506
f 515 506 508 517
f 515 517 518 516
f 509 519 520 510
f 513 510 520 521
f 467 468 519 509
f 514 522 470 469
f 516 523 522 514
f 516 518 524 523
f 519 525 526 520
f 521 520 526 527
f 468 472 525 519
f 522 528 473 470
f 523 529 528 522
f 523 524 530 529
f 525 531 532 526
f 532 531 533 534
f 527 526 532 534
f 472 535 531 525
f 471 476 535 472
f 473 536 478 474
f 528 537 536 473
f 529 538 537 528
f 537 538 539 540
f 529 530 539 538
f 535 541 542 531
f 542 541 543 544
f 533 531 542 544
f 476 545 541 535
f 475 546 545 476
f 477 547 546 475
f 478 548 547 477
f 536 549 548 478
f 537 550 549 536
f 549 550 551 552
f 537 540 551 550
f 545 553 554 541
f 554 553 555 556
f 543 541 554 556
f 546 557 553 545
f 553 557 558 555
f 547 559 557 546
f 557 559 560 558
f 548 561 559 547
f 559 561 562 560
f 549 563 561 548
f 561 563 564 562
f 549 552 564 563
f 565 566 567 568
f 565 568 569 570
f 569 568 567 571
f 572 573 566 565
f 572 565 570 574
f 575 576 573 572
f 575 572 574 577
f 578 579 576 575
f 578 575 577 580
f 581 582 579 578
f 581 578 580 583
f 581 583 584 582
f 585 586 587 588
f 585 588 589 590
f 589 588 587 591
f 567 483 586 585
f 567 585 590 571
f 566 484 483 567
f 573 488 484 566
f 576 491 488 573
f 579 494 491 576
f 582 497 494 579
f 592 593 497 582
f 592 582 584 594
f 595 596 593 592
f 595 592 594 597
f 595 597 598 596
f 587 599 600 601
f 587 601 602 591
f 602 601 600 603
f 586 502 599 587
f 483 485 502 586
f 593 507 498 497
f 596 604 507 593
f 605 606 604 596
f 605 596 598 607
f 605 607 608 606
f 599 512 609 600
f 603 600 609 610
f 502 503 512 599
f 604 517 508 507
f 606 611 517 604
f 606 608 612 611
f 609 613 614 615
f 609 615 616 610
f 616 615 614 617
f 512 513 613 609
f 611 618 518 517
f 619 620 618 611
f 619 611 612 621
f 619 621 622 620
f 613 623 624 614
f 617 614 624 625
f 513 521 623 613
f 618 626 524 518
f 620 627 626 618
f 620 622 628 627
f 623 629 630 624
f 625 624 630 631
f 521 527 629 623
f 626 632 530 524
f 627 633 632 626
f 627 628 634 633
f 629 635 636 630
f 636 635 637 638
f 631 630 636 638
f 527 534 635 629
f 632 639 539 530
f 633 640 639 632
f 639 640 641 642
f 633 634 641 640
f 534 643 644 635
f 637 635 644 645
f 533 544 643 534
f 539 646 551 540
f 639 647 646 539
f 639 642 648 647
f 643 649 650 644
f 650 649 651 652
f 645 644 650 652
f 544 653 649 643
f 543 556 653 544
f 551 654 564 552
f 646 655 654 551
f 647 656 655 646
f 655 656 657 658
f 647 648 657 656
f 653 659 660 649
f 660 659 661 662
f 651 649 660 662
f 556 663 659 653
f 659 663 664 661
f 555 665 663 556
f 558 666 665 555
f 560 667 666 558
f 562 668 667 560
f 564 669 668 562
f 654 670 669 564
f 669 670 671 672
f 655 673 670 654
f 670 673 674 671
f 655 658 674 673
f 665 675 676 663
f 676 675 677 678
f 664 663 676 678
f 666 679 675 665
f 675 679 680 677
f 667 681 679 666
f 679 681 682 680
f 668 683 681 667
f 681 683 684 682
f 669 685 683 668
f 683 685 686 684
f 669 672 686 685
f 687 569 688 689
f 687 689 690 691
f 690 689 688 692
f 693 570 569 687
f 693 687 691 694
f 695 574 570 693
f 695 693 694 696
f 697 577 574 695
f 697 695 696 698
f 699 580 577 697
f 699 697 698 700
f 701 583 580 699
f 701 699 700 702
f 703 704 583 701
f 703 701 702 705
f 703 705 706 704
f 688 590 589 707
f 688 707 708 692
f 708 707 589 709
f 569 571 590 688
f 704 594 584 583
f 710 597 594 704
f 710 704 706 711
f 710 711 712 597
f 589 591 602 713
f 589 713 714 709
f 714 713 602 715
f 716 607 598 597
f 716 597 712 717
f 716 717 718 607
f 602 603 719 720
f 602 720 721 715
f 721 720 719 722
f 723 724 608 607
f 723 607 718 725
f 723 725 726 724
f 719 616 727 728
f 719 728 729 722
f 729 728 727 730
f 603 610 616 719
f 724 621 612 608
f 731 732 621 724
f 731 724 726 733
f 731 733 734 732
f 616 617 735 727
f 730 727 735 736
f 732 737 622 621
f 732 734 738 737
f 617 625 739 735
f 736 735 739 740
f 737 741 628 622
f 737 738 742 741
f 625 631 743 739
f 740 739 743 744
f 741 745 634 628
f 741 742 746 745
f 631 638 747 743
f 744 743 747 748
f 745 749 641 634
f 745 746 750 749
f 638 751 752 747
f 752 751 753 754
f 748 747 752 754
f 637 645 751 638
f 641 755 648 642
f 749 756 755 641
f 755 756 757 758
f 749 750 757 756
f 645 652 759 751
f 759 652 760 761
f 753 751 759 761
f 755 762 657 648
f 657 762 763 764
f 755 758 763 762
f 651 662 765 652
f 765 662 766 767
f 760 652 765 767
f 657 768 674 658
f 674 768 769 770
f 657 764 769 768
f 661 771 772 662
f 772 771 773 774
f 766 662 772 774
f 664 678 771 661
f 671 775 686 672
f 674 776 775 671
f 775 776 777 778
f 674 770 777 776
f 678 779 780 771
f 780 779 781 782
f 773 771 780 782
f 677 783 779 678
f 779 783 784 781
f 680 785 783 677
f 783 785 786 784
f 682 787 785 680
f 785 787 788 786
f 684 789 787 682
f 787 789 790 788
f 686 791 789 684
f 789 791 792 790
f 775 793 791 686
f 791 793 794 792
f 775 778 794 793
f 691 690 795 796
f 795 690 692 797
f 694 691 796 798
f 696 694 798 799
f 698 696 799 800
f 700 698 800 801
f 702 700 801 802
f 705 702 802 803
f 705 803 804 706
f 692 708 805 797
f 805 708 709 806
f 711 706 804 807
f 711 807 808 712
f 709 714 809 806
f 809 714 715 810
f 717 712 808 811
f 717 811 812 718
f 715 721 813 810
f 813 721 722 814
f 725 718 812 815
f 725 815 816 726
f 722 729 817 814
f 817 729 730 818
f 733 726 816 819
f 733 819 820 734
f 818 730 736 821
f 734 820 822 738
f 821 736 740 823
f 738 822 824 742
f 823 740 744 825
f 742 824 826 746
f 825 744 748 827
f 746 826 828 750
f 754 753 829 830
f 827 748 754 830
f 758 757 831 832
f 750 828 831 757
f 761 760 833 834
f 829 753 761 834
f 764 763 835 836
f 758 832 835 763
f 767 766 837 838
f 833 760 767 838
f 770 769 839 840
f 764 836 839 769
f 774 773 841 842
f 837 766 774 842
f 778 777 843 844
f 770 840 843 777
f 782 781 845 846
f 841 773 782 846
f 781 784 847 845
f 784 786 848 847
f 786 788 849 848
f 788 790 850 849
f 790 792 851 850
f 792 794 852 851
f 778 844 852 794
f 853 796 795 854
f 853 854 855 856
f 855 854 795 857
f 858 798 796 853
f 858 853 856 859
f 860 799 798 858
f 860 858 859 861
f 862 800 799 860
f 862 860 861 863
f 864 801 800 862
f 864 862 863 865
f 866 802 801 864
f 866 864 865 867
f 868 803 802 866
f 868 866 867 869
f 868 869 870 803
f 871 805 872 873
f 871 873 874 875
f 874 873 872 876
f 795 797 805 871
f 795 871 875 857
f 877 807 804 803
f 877 803 870 878
f 879 880 807 877
f 879 877 878 881
f 879 881 882 880
f 872 809 883 884
f 872 884 885 876
f 885 884 883 886
f 805 806 809 872
f 880 811 808 807
f 887 888 811 880
f 887 880 882 889
f 887 889 890 888
f 883 813 891 892
f 883 892 893 886
f 893 892 891 894
f 809 810 813 883
f 888 815 812 811
f 895 896 815 888
f 895 888 890 897
f 895 897 898 896
f 813 814 817 891
f 894 891 817 899
f 896 819 816 815
f 896 898 900 819
f 817 818 901 902
f 817 902 903 899
f 903 902 901 904
f 905 906 820 819
f 905 819 900 907
f 905 907 908 906
f 818 821 909 901
f 904 901 909 910
f 906 911 822 820
f 906 908 912 911
f 821 823 913 909
f 910 909 913 914
f 911 915 824 822
f 911 912 916 915
f 823 825 917 913
f 914 913 917 918
f 915 919 826 824
f 915 916 920 919
f 825 827 921 917
f 918 917 921 922
f 919 923 828 826
f 919 920 924 923
f 827 830 925 921
f 925 830 926 927
f 922 921 925 927
f 923 928 831 828
f 831 928 929 930
f 923 924 929 928
f 829 834 931 830
f 926 830 931 932
f 831 933 835 832
f 831 930 934 933
f 834 935 936 931
f 936 935 937 938
f 932 931 936 938
f 833 838 935 834
f 835 939 839 836
f 933 940 939 835
f 939 940 941 942
f 933 934 941 940
f 838 943 944 935
f 944 943 945 946
f 937 935 944 946
f 837 842 943 838
f 839 947 843 840
f 939 948 947 839
f 947 948 949 950
f 939 942 949 948
f 842 951 952 943
f 952 951 953 954
f 945 943 952 954
f 841 846 951 842
f 951 846 955 953
f 843 956 852 844
f 852 956 957 958
f 947 959 956 843
f 956 959 960 957
f 947 950 960 959
f 845 961 962 846
f 962 961 963 964
f 955 846 962 964
f 847 965 961 845
f 961 965 966 963
f 848 967 965 847
f 965 967 968 966
f 849 969 967 848
f 967 969 970 968
f 850 971 969 849
f 969 971 972 970
f 851 973 971 850
f 971 973 974 972
f 852 975 973 851
f 973 975 976 974
f 852 958 976 975
f 856 855 977 978
f 977 855 857 979
f 859 856 978 980
f 861 859 980 981
f 863 861 981 982
f 865 863 982 983
f 867 865 983 984
f 869 867 984 985
f 869 985 986 870
f 875 874 987 988
f 987 874 876 989
f 857 875 988 979
f 878 870 986 990
f 881 878 990 991
f 881 991 992 882
f 876 885 993 989
f 993 885 886 994
f 889 882 992 995
f 889 995 996 890
f 886 893 997 994
f 997 893 894 998
f 897 890 996 999
f 897 999 1000 898
f 998 894 899 1001
f 898 1000 1002 900
f 899 903 1003 1001
f 1003 903 904 1004
f 907 900 1002 1005
f 907 1005 1006 908
f 1004 904 910 1007
f 908 1006 1008 912
f 1007 910 914 1009
f 912 1008 1010 916
f 1009 914 918 1011
f 916 1010 1012 920
f 1011 918 922 1013
f 920 1012 1014 924
f 927 926 1015 1016
f 1013 922 927 1016
f 930 929 1017 1018
f 924 1014 1017 929
f 1015 926 932 1019
f 930 1018 1020 934
f 938 937 1021 1022
f 1019 932 938 1022
f 942 941 1023 1024
f 934 1020 1023 941
f 946 945 1025 1026
f 1021 937 946 1026
f 950 949 1027 1028
f 942 1024 1027 949
f 954 953 1029 1030
f 1025 945 954 1030
f 953 955 1031 1029
f 958 957 1032 1033
f 957 960 1034 1032
f 950 1028 1034 960
f 964 963 1035 1036
f 1031 955 964 1036
f 963 966 1037 1035
f 966 968 1038 1037
f 968 970 1039 1038
f 970 972 1040 1039
f 972 974 1041 1040
f 974 976 1042 1041
f 958 1033 1042 976
f 1043 978 977 1044
f 1043 1044 1045 1046
f 1045 1044 977 1047
f 1048 980 978 1043
f 1048 1043 1046 1049
f 1050 981 980 1048
f 1050 1048 1049 1051
f 1052 982 981 1050
f 1052 1050 1051 1053
f 1054 983 982 1052
f 1054 1052 1053 1055
f 1056 984 983 1054
f 1056 1054 1055 1057
f 1058 985 984 1056
f 1058 1056 1057 1059
f 1058 1059 1060 985
f 1061 988 987 1062
f 1061 1062 1063 1064
f 1063 1062 987 1065
f 977 979 988 1061
f 977 1061 1064 1047
f 1066 990 986 985
f 1066 985 1060 1067
f 1068 991 990 1066
f 1068 1066 1067 1069
f 1068 1069 1070 991
f 987 989 993 1071
f 987 1071 1072 1065
f 1072 1071 993 1073
f 1074 995 992 991
f 1074 991 1070 1075
f 1074 1075 1076 995
f 993 994 997 1077
f 993 1077 1078 1073
f 1078 1077 997 1079
f 1080 999 996 995
f 1080 995 1076 1081
f 1080 1081 1082 999
f 997 998 1083 1084
f 997 1084 1085 1079
f 1085 1084 1083 1086
f 1087 1088 1000 999
f 1087 999 1082 1089
f 1087 1089 1090 1088
f 998 1001 1003 1083
f 1086 1083 1003 1091
f 1088 1005 1002 1000
f 1088 1090 1092 1005
f 1003 1004 1093 1094
f 1003 1094 1095 1091
f 1095 1094 1093 1096
f 1097 1098 1006 1005
f 1097 1005 1092 1099
f 1097 1099 1100 1098
f 1004 1007 1101 1093
f 1096 1093 1101 1102
f 1098 1103 1008 1006
f 1098 1100 1104 1103
f 1007 1009 1105 1101
f 1102 1101 1105 1106
f 1103 1107 1010 1008
f 1103 1104 1108 1107
f 1009 1011 1109 1105
f 1106 1105 1109 1110
f 1107 1111 1012 1010
f 1107 1108 1112 1111
f 1011 1013 1113 1109
f 1110 1109 1113 1114
f 1111 1115 1014 1012
f 1111 1112 1116 1115
f 1013 1016 1117 1113
f 1117 1016 1118 1119
f 1114 1113 1117 1119
f 1115 1120 1017 1014
f 1017 1120 1121 1122
f 1115 1116 1121 1120
f 1015 1019 1123 1016
f 1118 1016 1123 1124
f 1017 1125 1020 1018
f 1017 1122 1126 1125
f 1019 1022 1127 1123
f 1127 1022 1128 1129
f 1124 1123 1127 1129
f 1125 1130 1023 1020
f 1023 1130 1131 1132
f 1125 1126 1131 1130
f 1021 1026 1133 1022
f 1133 1026 1134 1135
f 1128 1022 1133 1135
f 1023 1136 1027 1024
f 1027 1136 1137 1138
f 1023 1132 1137 1136
f 1025 1030 1139 1026
f 1139 1030 1140 1141
f 1134 1026 1139 1141
f 1027 1142 1034 1028
f 1034 1142 1143 1144
f 1027 1138 1143 1142
f 1029 1145 1146 1030
f 1146 1145 1147 1148
f 1140 1030 1146 1148
f 1031 1036 1145 1029
f 1145 1036 1149 1147
f 1032 1150 1042 1033
f 1042 1150 1151 1152
f 1034 1153 1150 1032
f 1150 1153 1154 1151
f 1034 1144 1154 1153
f 1035 1155 1156 1036
f 1156 1155 1157 1158
f 1149 1036 1156 1158
f 1037 1159 1155 1035
f 1155 1159 1160 1157
f 1038 1161 1159 1037
f 1159 1161 1162 1160
f 1039 1163 1161 1038
f 1161 1163 1164 1162
f 1040 1165 1163 1039
f 1163 1165 1166 1164
f 1041 1167 1165 1040
f 1165 1167 1168 1166
f 1042 1169 1167 1041
f 1167 1169 1170 1168
f 1042 1152 1170 1169
f 1046 1045 1171 1172
f 1171 1045 1047 1173
f 1049 1046 1172 1174
f 1051 1049 1174 1175
f 1053 1051 1175 1176
f 1055 1053 1176 1177
f 1057 1055 1177 1178
f 1059 1057 1178 1179
f 1059 1179 1180 1060
f 1064 1063 1181 1182
f 1181 1063 1065 1183
f 1047 1064 1182 1173
f 1067 1060 1180 1184
f 1069 1067 1184 1185
f 1069 1185 1186 1070
f 1065 1072 1187 1183
f 1187 1072 1073 1188
f 1075 1070 1186 1189
f 1075 1189 1190 1076
f 1073 1078 1191 1188
f 1191 1078 1079 1192
f 1081 1076 1190 1193
f 1081 1193 1194 1082
f 1079 1085 1195 1192
f 1195 1085 1086 1196
f 1089 1082 1194 1197
f 1089 1197 1198 1090
f 1196 1086 1091 1199
f 1090 1198 1200 1092
f 1091 1095 1201 1199
f 1201 1095 1096 1202
f 1099 1092 1200 1203
f 1099 1203 1204 1100
f 1202 1096 1102 1205
f 1100 1204 1206 1104
f 1205 1102 1106 1207
f 1104 1206 1208 1108
f 1207 1106 1110 1209
f 1108 1208 1210 1112
f 1209 1110 1114 1211
f 1112 1210 1212 1116
f 1119 1118 1213 1214
f 1211 1114 1119 1214
f 1122 1121 1215 1216
f 1116 1212 1215 1121
f 1213 1118 1124 1217
f 1122 1216 1218 1126
f 1129 1128 1219 1220
f 1217 1124 1129 1220
f 1132 1131 1221 1222
f 1126 1218 1221 1131
f 1135 1134 1223 1224
f 1219 1128 1135 1224
f 1138 1137 1225 1226
f 1132 1222 1225 1137
f 1141 1140 1227 1228
f 1223 1134 1141 1228
f 1144 1143 1229 1230
f 1138 1226 1229 1143
f 1148 1147 1231 1232
f 1227 1140 1148 1232
f 1147 1149 1233 1231
f 1152 1151 1234 1235
f 1151 1154 1236 1234
f 1144 1230 1236 1154
f 1158 1157 1237 1238
f 1233 1149 1158 1238
f 1157 1160 1239 1237
f 1160 1162 1240 1239
f 1162 1164 1241 1240
f 1164 1166 1242 1241
f 1166 1168 1243 1242
f 1168 1170 1244 1243
f 1152 1235 1244 1170
f 1172 1171 1245 1246
f 1245 1171 1173 1247
f 1174 1172 1246 1248
f 1175 1174 1248 1249
f 1176 1175 1249 1250
f 1177 1176 1250 1251
f 1178 1177 1251 1252
f 1179 1178 1252 1253
f 1179 1253 1254 1180
f 1182 1181 1255 1256
f 1255 1181 1183 1257
f 1173 1182 1256 1247
f 1184 1180 1254 1258
f 1185 1184 1258 1259
f 1185 1259 1260 1186
f 1183 1187 1261 1257
f 1261 1187 1188 1262
f 1189 1186 1260 1263
f 1189 1263 1264 1190
f 1188 1191 1265 1262
f 1265 1191 1192 1266
f 1193 1190 1264 1267
f 1193 1267 1268 1194
f 1192 1195 1269 1266
f 1269 1195 1196 1270
f 1197 1194 1268 1271
f 1197 1271 1272 1198
f 1270 1196 1199 1273
f 1198 1272 1274 1200
f 1199 1201 1275 1273
f 1275 1201 1202 1276
f 1203 1200 1274 1277
f 1203 1277 1278 1204
f 1276 1202 1205 1279
f 1204 1278 1280 1206
f 1279 1205 1207 1281
f 1206 1280 1282 1208
f 1281 1207 1209 1283
f 1208 1282 1284 1210
f 1283 1209 1211 1285
f 1210 1284 1286 1212
f 1214 1213 1287 1288
f 1285 1211 1214 1288
f 1216 1215 1289 1290
f 1212 1286 1289 1215
f 1287 1213 1217 1291
f 1216 1290 1292 1218
f 1220 1219 1293 1294
f 1291 1217 1220 1294
f 1222 1221 1295 1296
f 1218 1292 1295 1221
f 1224 1223 1297 1298
f 1293 1219 1224 1298
f 1226 1225 1299 1300
f 1222 1296 1299 1225
f 1228 1227 1301 1302
f 1297 1223 1228 1302
f 1230 1229 1303 1304
f 1226 1300 1303 1229
f 1232 1231 1305 1306
f 1301 1227 1232 1306
f 1231 1233 1307 1305
f 1235 1234 1308 1309
f 1234 1236 1310 1308
f 1230 1304 1310 1236
f 1238 1237 1311 1312
f 1307 1233 1238 1312
f 1237 1239 1313 1311
f 1239 1240 1314 1313
f 1240 1241 1315 1314
f 1241 1242 1316 1315
f 1242 1243 1317 1316
f 1243 1244 1318 1317
f 1235 1309 1318 1244
f 1246 1245 1319 1320
f 1319 1245 1247 1321
f 1248 1246 1320 1322
f 1249 1248 1322 1323
f 1250 1249 1323 1324
f 1251 1250 1324 1325
f 1252 1251 1325 1326
f 1253 1252 1326 1327
f 1253 1327 1328 1254
f 1256 1255 1329 1330
f 1329 1255 1257 1331
f 1247 1256 1330 1321
f 1258 1254 1328 1332
f 1259 1258 1332 1333
f 1259 1333 1334 1260
f 1257 1261 1335 1331
f 1335 1261 1262 1336
f 1263 1260 1334 1337
f 1263 1337 1338 1264
f 1262 1265 1339 1336
f 1339 1265 1266 1340
f 1267 1264 1338 1341
f 1267 1341 1342 1268
f 1266 1269 1343 1340
f 1343 1269 1270 1344
f 1271 1268 1342 1345
f 1271 1345 1346 1272
f 1344 1270 1273 1347
f 1272 1346 1348 1274
f 1273 1275 1349 1347
f 1349 1275 1276 1350
f 1277 1274 1348 1351
f 1277 1351 1352 1278
f 1350 1276 1279 1353
f 1278 1352 1354 1280
f 1353 1279 1281 1355
f 1280 1354 1356 1282
f 1355 1281 1283 1357
f 1282 1356 1358 1284
f 1357 1283 1285 1359
f 1284 1358 1360 1286
f 1288 1287 1361 1362
f 1359 1285 1288 1362
f 1290 1289 1363 1364
f 1286 1360 1363 1289
f 1361 1287 1291 1365
f 1290 1364 1366 1292
f 1294 1293 1367 1368
f 1365 1291 1294 1368
f 1296 1295 1369 1370
f 1292 1366 1369 1295
f 1298 1297 1371 1372
f 1367 1293 1298 1372
f 1300 1299 1373 1374
f 1296 1370 1373 1299
f 1302 1301 1375 1376
f 1371 1297 1302 1376
f 1304 1303 1377 1378
f 1300 1374 1377 1303
f 1306 1305 1379 1380
f 1375 1301 1306 1380
f 1305 1307 1381 1379
f 1309 1308 1382 1383
f 1308 1310 1384 1382
f 1304 1378 1384 1310
f 1312 1311 1385 1386
f 1381 1307 1312 1386
f 1311 1313 1387 1385
f 1313 1314 1388 1387
f 1314 1315 1389 1388
f 1315 1316 1390 1389
f 1316 1317 1391 1390
f 1317 1318 1392 1391
f 1309 1383 1392 1318
f 1393 1394 1395 1396
f 1320 1319 1393 1396
f 1393 1319 1321 1394
f 1396 1395 1397 1398
f 1322 1320 1396 1398
f 1398 1397 1399 1400
f 1323 1322 1398 1400
f 1400 1399 1401 1402
f 1324 1323 1400 1402
f 1402 1401 1403 1404
f 1325 1324 1402 1404
f 1404 1403 1405 1406
f 1326 1325 1404 1406
f 1406 1405 1407 1408
f 1327 1326 1406 1408
f 1327 1408 1407 1328
f 1409 1410 1411 1412
f 1330 1329 1409 1412
f 1409 1329 1331 1410
f 1412 1411 1413 1394
f 1321 1330 1412 1394
f 1407 1414 1415 1416
f 1332 1328 1407 1416
f 1416 1415 1417 1418
f 1333 1332 1416 1418
f 1333 1418 1417 1334
f 1419 1420 1421 1410
f 1331 1335 1419 1410
f 1419 1335 1336 1420
f 1417 1422 1423 1424
f 1337 1334 1417 1424
f 1337 1424 1423 1338
f 1425 1426 1427 1420
f 1336 1339 1425 1420
f 1425 1339 1340 1426
f 1423 1428 1429 1430
f 1341 1338 1423 1430
f 1341 1430 1429 1342
f 1431 1432 1433 1426
f 1340 1343 1431 1426
f 1431 1343 1344 1432
f 1429 1434 1435 1436
f 1345 1342 1429 1436
f 1345 1436 1435 1346
f 1432 1437 1438 1433
f 1432 1344 1347 1437
f 1434 1439 1440 1435
f 1346 1435 1440 1348
f 1441 1442 1443 1437
f 1347 1349 1441 1437
f 1441 1349 1350 1442
f 1440 1444 1445 1446
f 1351 1348 1440 1446
f 1351 1446 1445 1352
f 1442 1447 1448 1443
f 1442 1350 1353 1447
f 1444 1449 1450 1445
f 1352 1445 1450 1354
f 1447 1451 1452 1448
f 1447 1353 1355 1451
f 1449 1453 1454 1450
f 1354 1450 1454 1356
f 1451 1455 1456 1452
f 1451 1355 1357 1455
f 1453 1457 1458 1454
f 1356 1454 1458 1358
f 1455 1459 1460 1456
f 1455 1357 1359 1459
f 1457 1461 1462 1458
f 1358 1458 1462 1360
f 1459 1463 1464 1460
f 1362 1361 1464 1463
f 1459 1359 1362 1463
f 1461 1465 1466 1462
f 1364 1363 1466 1465
f 1360 1462 1466 1363
f 1464 1467 1468 1469
f 1464 1361 1365 1467
f 1470 1471 1472 1465
f 1364 1465 1472 1366
f 1467 1473 1474 1468
f 1368 1367 1474 1473
f 1467 1365 1368 1473
f 1471 1475 1476 1472
f 1370 1369 1476 1475
f 1366 1472 1476 1369
f 1474 1477 1478 1479
f 1372 1371 1478 1477
f 1474 1367 1372 1477
f 1480 1481 1482 1475
f 1374 1373 1482 1481
f 1370 1475 1482 1373
f 1478 1483 1484 1485
f 1376 1375 1484 1483
f 1478 1371 1376 1483
f 1486 1487 1488 1481
f 1378 1377 1488 1487
f 1374 1481 1488 1377
f 1484 1489 1490 1491
f 1380 1379 1490 1489
f 1484 1375 1380 1489
f 1491 1490 1492 1493
f 1379 1381 1492 1490
f 1494 1495 1496 1497
f 1383 1382 1496 1495
f 1497 1496 1498 1487
f 1382 1384 1498 1496
f 1378 1487 1498 1384
f 1492 1499 1500 1501
f 1386 1385 1500 1499
f 1492 1381 1386 1499
f 1501 1500 1502 1503
f 1385 1387 1502 1500
f 1503 1502 1504 1505
f 1387 1388 1504 1502
f 1505 1504 1506 1507
f 1388 1389 1506 1504
f 1507 1506 1508 1509
f 1389 1390 1508 1506
f 1509 1508 1510 1511
f 1390 1391 1510 1508
f 1511 1510 1512 1495
f 1391 1392 1512 1510
f 1383 1495 1512 1392
f 1395 1394 1513 1514
f 1513 1394 1413 1515
f 1397 1395 1514 1516
f 1399 1397 1516 1517
f 1401 1399 1517 1518
f 1403 1401 1518 1519
f 1405 1403 1519 1520
f 1407 1405 1520 1521
f 1407 1521 1522 1414
f 1411 1410 1523 1524
f 1523 1410 1421 1525
f 1413 1411 1524 1515
f 1415 1414 1522 1526
f 1417 1415 1526 1527
f 1417 1527 1528 1422
f 1421 1420 1529 1525
f 1529 1420 1427 1530
f 1423 1422 1528 1531
f 1423 1531 1532 1428
f 1427 1426 1533 1530
f 1533 1426 1433 1534
f 1429 1428 1532 1535
f 1429 1535 1536 1434
f 1534 1433 1438 1537
f 1434 1536 1538 1439
f 1438 1437 1539 1537
f 1539 1437 1443 1540
f 1440 1439 1538 1541
f 1440 1541 1542 1444
f 1540 1443 1448 1543
f 1444 1542 1544 1449
f 1543 1448 1452 1545
f 1449 1544 1546 1453
f 1545 1452 1456 1547
f 1453 1546 1548 1457
f 1547 1456 1460 1549
f 1457 1548 1550 1461
f 1464 1469 1551 1552
f 1549 1460 1464 1552
f 1470 1465 1553 1554
f 1461 1550 1553 1465
f 1551 1469 1468 1555
f 1470 1554 1556 1471
f 1474 1479 1557 1558
f 1555 1468 1474 1558
f 1480 1475 1559 1560
f 1471 1556 1559 1475
f 1478 1485 1561 1562
f 1557 1479 1478 1562
f 1486 1481 1563 1564
f 1480 1560 1563 1481
f 1484 1491 1565 1566
f 1561 1485 1484 1566
f 1491 1493 1567 1565
f 1494 1497 1568 1569
f 1497 1487 1570 1568
f 1486 1564 1570 1487
f 1492 1501 1571 1572
f 1567 1493 1492 1572
f 1501 1503 1573 1571
f 1503 1505 1574 1573
f 1505 1507 1575 1574
f 1507 1509 1576 1575
f 1509 1511 1577 1576
f 1511 1495 1578 1577
f 1494 1569 1578 1495
f 1579 1580 1581 1582
f 1514 1513 1579 1582
f 1579 1513 1515 1580
f 1582 1581 1583 1584
f 1516 1514 1582 1584
f 1584 1583 1585 1586
f 1517 1516 1584 1586
f 1586 1585 1587 1588
f 1518 1517 1586 1588
f 1588 1587 1589 1590
f 1519 1518 1588 1590
f 1590 1589 1591 1592
f 1520 1519 1590 1592
f 1592 1591 1593 1594
f 1521 1520 1592 1594
f 1521 1594 1593 1522
f 1595 1596 1597 1598
f 1524 1523 1595 1598
f 1595 1523 1525 1596
f 1598 1597 1599 1580
f 1515 1524 1598 1580
f 1593 1600 1601 1602
f 1526 1522 1593 1602
f 1602 1601 1603 1604
f 1527 1526 1602 1604
f 1527 1604 1603 1528
f 1605 1606 1607 1596
f 1525 1529 1605 1596
f 1605 1529 1530 1606
f 1596 1607 1608 1597
f 1601 1609 1610 1603
f 1603 1610 1611 1612
f 1531 1528 1603 1612
f 1531 1612 1611 1532
f 1613 1614 1615 1606
f 1530 1533 1613 1606
f 1613 1533 1534 1614
f 1606 1615 1616 1607
f 1610 1617 1618 1611
f 1611 1618 1619 1620
f 1535 1532 1611 1620
f 1535 1620 1619 1536
f 1614 1621 1622 1615
f 1614 1534 1537 1621
f 1618 1623 1624 1619
f 1536 1619 1624 1538
f 1625 1626 1627 1621
f 1537 1539 1625 1621
f 1625 1539 1540 1626
f 1624 1628 1629 1630
f 1541 1538 1624 1630
f 1541 1630 1629 1542
f 1626 1631 1632 1627
f 1626 1540 1543 1631
f 1628 1633 1634 1629
f 1542 1629 1634 1544
f 1631 1635 1636 1632
f 1631 1543 1545 1635
f 1633 1637 1638 1634
f 1544 1634 1638 1546
f 1635 1639 1640 1636
f 1635 1545 1547 1639
f 1637 1641 1642 1638
f 1546 1638 1642 1548
f 1639 1643 1644 1640
f 1639 1547 1549 1643
f 1641 1645 1646 1642
f 1548 1642 1646 1550
f 1643 1647 1648 1644
f 1552 1551 1648 1647
f 1643 1549 1552 1647
f 1645 1649 1650 1646
f 1554 1553 1650 1649
f 1550 1646 1650 1553
f 1648 1651 1652 1653
f 1648 1551 1555 1651
f 1654 1655 1656 1649
f 1554 1649 1656 1556
f 1651 1657 1658 1652
f 1558 1557 1658 1657
f 1651 1555 1558 1657
f 1652 1658 1659 1660
f 1661 1662 1663 1655
f 1655 1663 1664 1656
f 1560 1559 1664 1663
f 1556 1656 1664 1559
f 1658 1665 1666 1659
f 1562 1561 1666 1665
f 1658 1557 1562 1665
f 1659 1666 1667 1668
f 1669 1670 1671 1662
f 1662 1671 1672 1663
f 1564 1563 1672 1671
f 1560 1663 1672 1563
f 1666 1673 1674 1667
f 1566 1565 1674 1673
f 1666 1561 1566 1673
f 1667 1674 1675 1676
f 1565 1567 1675 1674
f 1677 1678 1679 1670
f 1569 1568 1679 1678
f 1670 1679 1680 1671
f 1568 1570 1680 1679
f 1564 1671 1680 1570
f 1675 1681 1682 1683
f 1572 1571 1682 1681
f 1675 1567 1572 1681
f 1683 1682 1684 1685
f 1571 1573 1684 1682
f 1685 1684 1686 1687
f 1573 1574 1686 1684
f 1687 1686 1688 1689
f 1574 1575 1688 1686
f 1689 1688 1690 1691
f 1575 1576 1690 1688
f 1691 1690 1692 1693
f 1576 1577 1692 1690
f 1693 1692 1694 1678
f 1577 1578 1694 1692
f 1569 1678 1694 1578
f 1581 1580 1695 1696
f 1695 1580 1599 1697
f 1583 1581 1696 1698
f 1585 1583 1698 1699
f 1587 1585 1699 1700
f 1589 1587 1700 1701
f 1591 1589 1701 1702
f 1593 1591 1702 1703
f 1593 1703 1704 1600
f 1599 1597 1705 1697
f 1705 1597 1608 1706
f 1601 1600 1704 1707
f 1601 1707 1708 1609
f 1608 1607 1709 1706
f 1709 1607 1616 1710
f 1610 1609 1708 1711
f 1610 1711 1712 1617
f 1616 1615 1713 1710
f 1713 1615 1622 1714
f 1618 1617 1712 1715
f 1618 1715 1716 1623
f 1622 1621 1717 1714
f 1717 1621 1627 1718
f 1624 1623 1716 1719
f 1624 1719 1720 1628
f 1718 1627 1632 1721
f 1628 1720 1722 1633
f 1721 1632 1636 1723
f 1633 1722 1724 1637
f 1723 1636 1640 1725
f 1637 1724 1726 1641
f 1725 1640 1644 1727
f 1641 1726 1728 1645
f 1648 1653 1729 1730
f 1727 1644 1648 1730
f 1654 1649 1731 1732
f 1645 1728 1731 1649
f 1652 1660 1733 1734
f 1729 1653 1652 1734
f 1661 1655 1735 1736
f 1654 1732 1735 1655
f 1659 1668 1737 1738
f 1733 1660 1659 1738
f 1669 1662 1739 1740
f 1661 1736 1739 1662
f 1667 1676 1741 1742
f 1737 1668 1667 1742
f 1677 1670 1743 1744
f 1669 1740 1743 1670
f 1675 1683 1745 1746
f 1741 1676 1675 1746
f 1683 1685 1747 1745
f 1685 1687 1748 1747
f 1687 1689 1749 1748
f 1689 1691 1750 1749
f 1691 1693 1751 1750
f 1693 1678 1752 1751
f 1677 1744 1752 1678
f 1753 1754 1755 1756
f 1696 1695 1753 1756
f 1753 1695 1697 1754
f 1756 1755 1757 1758
f 1698 1696 1756 1758
f 1758 1757 1759 1760
f 1699 1698 1758 1760
f 1760 1759 1761 1762
f 1700 1699 1760 1762
f 1762 1761 1763 1764
f 1701 1700 1762 1764
f 1764 1763 1765 1766
f 1702 1701 1764 1766
f 1766 1765 1767 1768
f 1703 1702 1766 1768
f 1703 1768 1767 1704
f 1769 1770 1771 1754
f 1697 1705 1769 1754
f 1769 1705 1706 1770
f 1754 1771 1772 1755
f 1765 1773 1774 1767
f 1767 1774 1775 1776
f 1707 1704 1767 1776
f 1707 1776 1775 1708
f 1777 1778 1779 1770
f 1706 1709 1777 1770
f 1777 1709 1710 1778
f 1775 1780 1781 1782
f 1711 1708 1775 1782
f 1711 1782 1781 1712
f 1783 1784 1785 1778
f 1710 1713 1783 1778
f 1783 1713 1714 1784
f 1781 1786 1787 1788
f 1715 1712 1781 1788
f 1715 1788 1787 1716
f 1789 1790 1791 1784
f 1714 1717 1789 1784
f 1789 1717 1718 1790
f 1784 1791 1792 1785
f 1786 1793 1794 1787
f 1787 1794 1795 1796
f 1719 1716 1787 1796
f 1719 1796 1795 1720
f 1790 1797 1798 1791
f 1790 1718 1721 1797
f 1794 1799 1800 1795
f 1720 1795 1800 1722
f 1797 1801 1802 1798
f 1797 1721 1723 1801
f 1799 1803 1804 1800
f 1722 1800 1804 1724
f 1801 1805 1806 1802
f 1801 1723 1725 1805
f 1803 1807 1808 1804
f 1724 1804 1808 1726
f 1805 1809 1810 1806
f 1805 1725 1727 1809
f 1807 1811 1812 1808
f 1726 1808 1812 1728
f 1809 1813 1814 1810
f 1730 1729 1814 1813
f 1809 1727 1730 1813
f 1810 1814 1815 1816
f 1817 1818 1819 1811
f 1811 1819 1820 1812
f 1732 1731 1820 1819
f 1728 1812 1820 1731
f 1814 1821 1822 1815
f 1734 1733 1822 1821
f 1814 1729 1734 1821
f 1818 1823 1824 1819
f 1736 1735 1824 1823
f 1732 1819 1824 1735
f 1822 1825 1826 1827
f 1738 1737 1826 1825
f 1822 1733 1738 1825
f 1828 1829 1830 1823
f 1740 1739 1830 1829
f 1736 1823 1830 1739
f 1826 1831 1832 1833
f 1742 1741 1832 1831
f 1826 1737 1742 1831
f 1833 1832 1834 1835
f 1836 1837 1838 1839
f 1839 1838 1840 1829
f 1744 1743 1840 1838
f 1740 1829 1840 1743
f 1832 1841 1842 1834
f 1746 1745 1842 1841
f 1832 1741 1746 1841
f 1834 1842 1843 1844
f 1745 1747 1843 1842
f 1844 1843 1845 1846
f 1747 1748 1845 1843
f 1846 1845 1847 1848
f 1748 1749 1847 1845
f 1848 1847 1849 1850
f 1749 1750 1849 1847
f 1850 1849 1851 1837
f 1750 1751 1851 1849
f 1837 1851 1852 1838
f 1751 1752 1852 1851
f 1744 1838 1852 1752
f 1853 1854 1855 1856
f 1757 1755 1853 1856
f 1853 1755 1772 1854
f 1856 1855 1857 1858
f 1759 1757 1856 1858
f 1858 1857 1859 1860
f 1761 1759 1858 1860
f 1860 1859 1861 1862
f 1763 1761 1860 1862
f 1862 1861 1863 1864
f 1765 1763 1862 1864
f 1765 1864 1863 1773
f 1865 1866 1867 1868
f 1771 1770 1865 1868
f 1865 1770 1779 1866
f 1868 1867 1869 1854
f 1772 1771 1868 1854
f 1854 1869 1870 1855
f 1855 1870 1871 1857
f 1857 1871 1872 1859
f 1859 1872 1873 1861
f 1861 1873 1874 1863
f 1863 1874 1875 1876
f 1774 1773 1863 1876
f 1876 1875 1877 1878
f 1775 1774 1876 1878
f 1775 1878 1877 1780
f 1879 1880 1881 1866
f 1779 1778 1879 1866
f 1879 1778 1785 1880
f 1866 1881 1882 1867
f 1867 1882 1883 1869
f 1874 1884 1885 1875
f 1875 1885 1886 1877
f 1877 1886 1887 1888
f 1781 1780 1877 1888
f 1781 1888 1887 1786
f 1880 1889 1890 1881
f 1880 1785 1792 1889
f 1881 1890 1891 1882
f 1885 1892 1893 1886
f 1886 1893 1894 1887
f 1786 1887 1894 1793
f 1895 1896 1897 1889
f 1792 1791 1895 1889
f 1895 1791 1798 1896
f 1889 1897 1898 1890
f 1893 1899 1900 1894
f 1894 1900 1901 1902
f 1794 1793 1894 1902
f 1794 1902 1901 1799
f 1896 1903 1904 1897
f 1896 1798 1802 1903
f 1897 1904 1905 1898
f 1899 1906 1907 1900
f 1900 1907 1908 1901
f 1799 1901 1908 1803
f 1903 1909 1910 1904
f 1903 1802 1806 1909
f 1904 1910 1911 1905
f 1906 1912 1913 1907
f 1907 1913 1914 1908
f 1803 1908 1914 1807
f 1909 1915 1916 1910
f 1810 1816 1916 1915
f 1909 1806 1810 1915
f 1910 1916 1917 1911
f 1912 1918 1919 1913
f 1913 1919 1920 1914
f 1817 1811 1920 1919
f 1807 1914 1920 1811
f 1916 1921 1922 1917
f 1916 1816 1815 1921
f 1917 1922 1923 1924
f 1925 1926 1927 1918
f 1918 1927 1928 1919
f 1817 1919 1928 1818
f 1921 1929 1930 1922
f 1822 1827 1930 1929
f 1921 1815 1822 1929
f 1922 1930 1931 1923
f 1923 1931 1932 1933
f 1934 1935 1936 1926
f 1926 1936 1937 1927
f 1927 1937 1938 1928
f 1828 1823 1938 1937
f 1818 1928 1938 1823
f 1930 1939 1940 1931
f 1826 1833 1940 1939
f 1930 1827 1826 1939
f 1931 1940 1941 1932
f 1833 1835 1941 1940
f 1932 1941 1942 1943
f 1943 1942 1944 1945
f 1945 1944 1946 1947
f 1947 1946 1948 1949
f 1949 1948 1950 1935
f 1935 1950 1951 1936
f 1836 1839 1951 1950
f 1936 1951 1952 1937
f 1839 1829 1952 1951
f 1828 1937 1952 1829
f 1941 1953 1954 1942
f 1834 1844 1954 1953
f 1941 1835 1834 1953
f 1942 1954 1955 1944
f 1844 1846 1955 1954
f 1944 1955 1956 1946
f 1846 1848 1956 1955
f 1946 1956 1957 1948
f 1848 1850 1957 1956
f 1948 1957 1958 1950
f 1850 1837 1958 1957
f 1836 1950 1958 1837
f 1959 1960 1961 1962
f 1870 1869 1959 1962
f 1959 1869 1883 1960
f 1962 1961 1963 1964
f 1871 1870 1962 1964
f 1964 1963 1965 1966
f 1872 1871 1964 1966
f 1966 1965 1967 1968
f 1873 1872 1966 1968
f 1968 1967 1969 1970
f 1874 1873 1968 1970
f 1874 1970 1969 1884
f 1971 1972 1973 1960
f 1883 1882 1971 1960
f 1971 1882 1891 1972
f 1960 1973 1974 1961
f 1961 1974 1975 1963
f 1963 1975 1976 1965
f 1965 1976 1977 1967
f 1967 1977 1978 1969
f 1969 1978 1979 1980
f 1885 1884 1969 1980
f 1885 1980 1979 1892
f 1981 1982 1983 1972
f 1891 1890 1981 1972
f 1981 1890 1898 1982
f 1972 1983 1984 1973
f 1973 1984 1985 1974
f 1974 1985 1986 1975
f 1975 1986 1987 1976
f 1976 1987 1988 1977
f 1977 1988 1989 1978
f 1978 1989 1990 1979
f 1979 1990 1991 1992
f 1893 1892 1979 1992
f 1893 1992 1991 1899
f 1982 1993 1994 1983
f 1982 1898 1905 1993
f 1983 1994 1995 1984
f 1984 1995 1996 1985
f 1985 1996 1997 1986
f 1986 1997 1998 1987
f 1987 1998 1999 1988
f 1988 1999 2000 1989
f 1989 2000 2001 1990
f 1990 2001 2002 1991
f 1899 1991 2002 1906
f 1993 2003 2004 1994
f 1993 1905 1911 2003
f 1994 2004 2005 1995
f 1995 2005 2006 1996
f 1996 2006 2007 1997
f 1997 2007 2008 1998
f 1998 2008 2009 1999
f 1999 2009 2010 2000
f 2000 2010 2011 2001
f 2001 2011 2012 2002
f 1906 2002 2012 1912
f 2003 2013 2014 2004
f 1917 1924 2014 2013
f 2003 1911 1917 2013
f 2004 2014 2015 2005
f 2005 2015 2016 2006
f 2006 2016 2017 2007
f 2007 2017 2018 2008
f 2008 2018 2019 2009
f 2009 2019 2020 2010
f 2010 2020 2021 2011
f 2011 2021 2022 2012
f 1925 1918 2022 2021
f 1912 2012 2022 1918
f 2014 2023 2024 2015
f 1923 1933 2024 2023
f 2014 1924 1923 2023
f 2015 2024 2025 2016
f 2016 2025 2026 2017
f 2017 2026 2027 2018
f 2018 2027 2028 2019
f 2019 2028 2029 2020
f 2020 2029 2030 2021
f 1934 1926 2030 2029
f 1925 2021 2030 1926
f 2024 2031 2032 2025
f 1932 1943 2032 2031
f 2024 1933 1932 2031
f 2025 2032 2033 2026
f 1943 1945 2033 2032
f 2026 2033 2034 2027
f 1945 1947 2034 2033
f 2027 2034 2035 2028
f 1947 1949 2035 2034
f 2028 2035 2036 2029
f 1949 1935 2036 2035
f 1934 2029 2036 1935
