# C-pear — lifted from a 2D silhouette by aide.lift
o C-pear
v -16.500 -4.000 -1.500
v -16.500 -3.000 -1.500
v -16.500 -3.000 -2.500
v -16.500 -4.000 -2.500
v -15.500 -4.000 -2.500
v -15.500 -4.000 -1.500
v -15.500 -3.000 -2.500
v -16.500 -4.000 -0.500
v -16.500 -3.000 -0.500
v -15.500 -4.000 -0.500
v -16.500 -4.000 0.500
v -16.500 -3.000 0.500
v -15.500 -4.000 0.500
v -16.500 -4.000 1.500
v -16.500 -3.000 1.500
v -15.500 -4.000 1.500
v -16.500 -4.000 2.500
v -16.500 -3.000 2.500
v -15.500 -4.000 2.500
v -15.500 -3.000 2.500
v -16.500 -2.000 -2.500
v -16.500 -2.000 -3.500
v -16.500 -3.000 -3.500
v -15.500 -3.000 -3.500
v -15.500 -2.000 -3.500
v -16.500 -2.000 -1.500
v -16.500 -2.000 -0.500
v -16.500 -2.000 0.500
v -16.500 -2.000 1.500
v -16.500 -2.000 2.500
v -16.500 -3.000 3.500
v -16.500 -2.000 3.500
v -15.500 -3.000 3.500
v -15.500 -2.000 3.500
v -16.500 -1.000 -3.500
v -16.500 -1.000 -4.500
v -16.500 -2.000 -4.500
v -15.500 -2.000 -4.500
v -15.500 -1.000 -4.500
v -16.500 -1.000 -2.500
v -16.500 -1.000 -1.500
v -16.500 -1.000 -0.500
v -16.500 -1.000 0.500
v -16.500 -1.000 1.500
v -16.500 -1.000 2.500
v -16.500 -1.000 3.500
v -16.500 -2.000 4.500
v -16.500 -1.000 4.500
v -15.500 -2.000 4.500
v -15.500 -1.000 4.500
v -16.500 0.000 -3.500
v -16.500 0.000 -4.500
v -15.500 0.000 -4.500
v -16.500 0.000 -2.500
v -16.500 0.000 -1.500
v -16.500 0.000 -0.500
v -16.500 0.000 0.500
v -16.500 0.000 1.500
v -16.500 0.000 2.500
v -16.500 0.000 3.500
v -16.500 0.000 4.500
v -15.500 0.000 4.500
v -16.500 1.000 -3.500
v -16.500 1.000 -4.500
v -15.500 1.000 -4.500
v -16.500 1.000 -2.500
v -16.500 1.000 -1.500
v -16.500 1.000 -0.500
v -16.500 1.000 0.500
v -16.500 1.000 1.500
v -16.500 1.000 2.500
v -16.500 1.000 3.500
v -16.500 1.000 4.500
v -15.500 1.000 4.500
v -16.500 2.000 -3.500
v -16.500 2.000 -4.500
v -15.500 2.000 -3.500
v -15.500 2.000 -4.500
v -16.500 2.000 -2.500
v -16.500 2.000 -1.500
v -16.500 2.000 -0.500
v -16.500 2.000 0.500
v -16.500 2.000 1.500
v -16.500 2.000 2.500
v -16.500 2.000 3.500
v -16.500 2.000 4.500
v -15.500 2.000 4.500
v -15.500 2.000 3.500
v -16.500 3.000 -2.500
v -16.500 3.000 -3.500
v -15.500 3.000 -2.500
v -15.500 3.000 -3.500
v -16.500 3.000 -1.500
v -16.500 3.000 -0.500
v -16.500 3.000 0.500
v -16.500 3.000 1.500
v -16.500 3.000 2.500
v -16.500 3.000 3.500
v -15.500 3.000 3.500
v -15.500 3.000 2.500
v -16.500 4.000 -1.500
v -16.500 4.000 -2.500
v -15.500 4.000 -1.500
v -15.500 4.000 -2.500
v -16.500 4.000 -0.500
v -15.500 4.000 -0.500
v -16.500 4.000 0.500
v -15.500 4.000 0.500
v -16.500 4.000 1.500
v -15.500 4.000 1.500
v -16.500 4.000 2.500
v -15.500 4.000 2.500
v -14.500 -4.000 -2.500
v -14.500 -4.000 -1.500
v -14.500 -3.000 -2.500
v -14.500 -4.000 -0.500
v -14.500 -4.000 0.500
v -14.500 -4.000 1.500
v -14.500 -4.000 2.500
v -14.500 -3.000 2.500
v -14.500 -3.000 -3.500
v -14.500 -2.000 -3.500
v -14.500 -3.000 3.500
v -14.500 -2.000 3.500
v -14.500 -2.000 -4.500
v -14.500 -1.000 -4.500
v -14.500 -2.000 4.500
v -14.500 -1.000 4.500
v -14.500 0.000 -4.500
v -14.500 0.000 4.500
v -14.500 1.000 -4.500
v -14.500 1.000 4.500
v -14.500 2.000 -3.500
v -14.500 2.000 -4.500
v -14.500 2.000 4.500
v -14.500 2.000 3.500
v -14.500 3.000 -2.500
v -14.500 3.000 -3.500
v -14.500 3.000 3.500
v -14.500 3.000 2.500
v -14.500 4.000 -1.500
v -14.500 4.000 -2.500
v -14.500 4.000 -0.500
v -14.500 4.000 0.500
v -14.500 4.000 1.500
v -14.500 4.000 2.500
v -13.500 -4.000 -2.500
v -13.500 -4.000 -1.500
v -13.500 -3.000 -2.500
v -13.500 -4.000 -0.500
v -13.500 -4.000 0.500
v -13.500 -4.000 1.500
v -13.500 -4.000 2.500
v -13.500 -3.000 2.500
v -13.500 -3.000 -3.500
v -13.500 -2.000 -3.500
v -13.500 -3.000 3.500
v -13.500 -2.000 3.500
v -13.500 -2.000 -4.500
v -13.500 -1.000 -4.500
v -13.500 -2.000 4.500
v -13.500 -1.000 4.500
v -13.500 0.000 -4.500
v -13.500 0.000 4.500
v -13.500 1.000 -4.500
v -13.500 1.000 4.500
v -13.500 2.000 -3.500
v -13.500 2.000 -4.500
v -13.500 2.000 4.500
v -13.500 2.000 3.500
v -13.500 3.000 -2.500
v -13.500 3.000 -3.500
v -13.500 3.000 3.500
v -13.500 3.000 2.500
v -13.500 4.000 -1.500
v -13.500 4.000 -2.500
v -13.500 4.000 -0.500
v -13.500 4.000 0.500
v -13.500 4.000 1.500
v -13.500 4.000 2.500
v -12.500 -4.000 -2.500
v -12.500 -4.000 -1.500
v -12.500 -3.000 -2.500
v -12.500 -4.000 -0.500
v -12.500 -4.000 0.500
v -12.500 -4.000 1.500
v -12.500 -4.000 2.500
v -12.500 -3.000 2.500
v -12.500 -3.000 -3.500
v -12.500 -2.000 -3.500
v -12.500 -3.000 3.500
v -12.500 -2.000 3.500
v -12.500 -2.000 -4.500
v -12.500 -1.000 -4.500
v -12.500 -2.000 4.500
v -12.500 -1.000 4.500
v -12.500 0.000 -4.500
v -12.500 0.000 4.500
v -12.500 1.000 -4.500
v -12.500 1.000 4.500
v -12.500 2.000 -3.500
v -12.500 2.000 -4.500
v -12.500 2.000 4.500
v -12.500 2.000 3.500
v -12.500 3.000 -2.500
v -12.500 3.000 -3.500
v -12.500 3.000 3.500
v -12.500 3.000 2.500
v -12.500 4.000 -1.500
v -12.500 4.000 -2.500
v -12.500 4.000 -0.500
v -12.500 4.000 0.500
v -12.500 4.000 1.500
v -12.500 4.000 2.500
v -11.500 -4.000 -2.500
v -11.500 -4.000 -1.500
v -11.500 -3.000 -2.500
v -11.500 -4.000 -0.500
v -11.500 -4.000 0.500
v -11.500 -4.000 1.500
v -11.500 -4.000 2.500
v -11.500 -3.000 2.500
v -11.500 -3.000 -3.500
v -11.500 -2.000 -3.500
v -11.500 -3.000 3.500
v -11.500 -2.000 3.500
v -11.500 -2.000 -4.500
v -11.500 -1.000 -4.500
v -11.500 -2.000 4.500
v -11.500 -1.000 4.500
v -11.500 0.000 -4.500
v -11.500 0.000 4.500
v -11.500 1.000 -4.500
v -11.500 1.000 4.500
v -11.500 2.000 -3.500
v -11.500 2.000 -4.500
v -11.500 2.000 4.500
v -11.500 2.000 3.500
v -11.500 3.000 -2.500
v -11.500 3.000 -3.500
v -11.500 3.000 3.500
v -11.500 3.000 2.500
v -11.500 4.000 -1.500
v -11.500 4.000 -2.500
v -11.500 4.000 -0.500
v -11.500 4.000 0.500
v -11.500 4.000 1.500
v -11.500 4.000 2.500
v -10.500 -4.000 -2.500
v -10.500 -4.000 -1.500
v -10.500 -3.000 -2.500
v -10.500 -4.000 -0.500
v -10.500 -4.000 0.500
v -10.500 -4.000 1.500
v -10.500 -4.000 2.500
v -10.500 -3.000 2.500
v -10.500 -3.000 -3.500
v -10.500 -2.000 -3.500
v -10.500 -3.000 3.500
v -10.500 -2.000 3.500
v -10.500 -2.000 -4.500
v -10.500 -1.000 -4.500
v -10.500 -2.000 4.500
v -10.500 -1.000 4.500
v -10.500 0.000 -4.500
v -10.500 0.000 4.500
v -10.500 1.000 -4.500
v -10.500 1.000 4.500
v -10.500 2.000 -3.500
v -10.500 2.000 -4.500
v -10.500 2.000 4.500
v -10.500 2.000 3.500
v -10.500 3.000 -2.500
v -10.500 3.000 -3.500
v -10.500 3.000 3.500
v -10.500 3.000 2.500
v -10.500 4.000 -1.500
v -10.500 4.000 -2.500
v -10.500 4.000 -0.500
v -10.500 4.000 0.500
v -10.500 4.000 1.500
v -10.500 4.000 2.500
v -9.500 -4.000 -2.500
v -9.500 -3.000 -2.500
v -9.500 -3.000 -1.500
v -9.500 -4.000 -1.500
v -9.500 -3.000 -0.500
v -9.500 -4.000 -0.500
v -9.500 -3.000 0.500
v -9.500 -4.000 0.500
v -9.500 -3.000 1.500
v -9.500 -4.000 1.500
v -9.500 -3.000 2.500
v -9.500 -4.000 2.500
v -9.500 -3.000 -3.500
v -9.500 -2.000 -3.500
v -9.500 -2.000 -2.500
v -9.500 -2.000 -1.500
v -9.500 -2.000 -0.500
v -9.500 -2.000 0.500
v -9.500 -2.000 1.500
v -9.500 -2.000 2.500
v -9.500 -2.000 3.500
v -9.500 -3.000 3.500
v -9.500 -2.000 -4.500
v -9.500 -1.000 -4.500
v -9.500 -1.000 -3.500
v -9.500 -1.000 -2.500
v -9.500 -1.000 -1.500
v -9.500 -1.000 1.500
v -9.500 -1.000 2.500
v -9.500 -1.000 3.500
v -9.500 -1.000 4.500
v -9.500 -2.000 4.500
v -9.500 0.000 -4.500
v -9.500 0.000 -3.500
v -9.500 0.000 -2.500
v -9.500 0.000 2.500
v -9.500 0.000 3.500
v -9.500 0.000 4.500
v -9.500 1.000 -4.500
v -9.500 1.000 -3.500
v -9.500 1.000 -2.500
v -9.500 1.000 2.500
v -9.500 1.000 3.500
v -9.500 1.000 4.500
v -9.500 2.000 -4.500
v -9.500 2.000 -3.500
v -9.500 2.000 -2.500
v -9.500 2.000 -1.500
v -9.500 1.000 -1.500
v -9.500 1.000 1.500
v -9.500 2.000 1.500
v -9.500 2.000 2.500
v -9.500 2.000 3.500
v -9.500 2.000 4.500
v -9.500 3.000 -3.500
v -9.500 3.000 -2.500
v -9.500 3.000 -1.500
v -9.500 3.000 -0.500
v -9.500 2.000 -0.500
v -9.500 3.000 0.500
v -9.500 2.000 0.500
v -9.500 3.000 1.500
v -9.500 3.000 2.500
v -9.500 3.000 3.500
v -9.500 4.000 -2.500
v -9.500 4.000 -1.500
v -9.500 4.000 -0.500
v -9.500 4.000 0.500
v -9.500 4.000 1.500
v -9.500 4.000 2.500
v -8.500 -2.000 -1.500
v -8.500 -2.000 -0.500
v -8.500 -1.000 -1.500
v -8.500 -2.000 0.500
v -8.500 -2.000 1.500
v -8.500 -1.000 1.500
v -8.500 -1.000 -2.500
v -8.500 0.000 -2.500
v -8.500 -1.000 2.500
v -8.500 0.000 2.500
v -8.500 1.000 -1.500
v -8.500 1.000 -2.500
v -8.500 1.000 2.500
v -8.500 1.000 1.500
v -8.500 2.000 -0.500
v -8.500 2.000 -1.500
v -8.500 2.000 0.500
v -8.500 2.000 1.500
v -7.500 -2.000 -1.500
v -7.500 -2.000 -0.500
v -7.500 -1.000 -1.500
v -7.500 -2.000 0.500
v -7.500 -2.000 1.500
v -7.500 -1.000 1.500
v -7.500 -1.000 -2.500
v -7.500 0.000 -2.500
v -7.500 -1.000 2.500
v -7.500 0.000 2.500
v -7.500 1.000 -1.500
v -7.500 1.000 -2.500
v -7.500 1.000 2.500
v -7.500 1.000 1.500
v -7.500 2.000 -0.500
v -7.500 2.000 -1.500
v -7.500 2.000 0.500
v -7.500 2.000 1.500
v -6.500 -2.000 -1.500
v -6.500 -2.000 -0.500
v -6.500 -1.000 -1.500
v -6.500 -2.000 0.500
v -6.500 -2.000 1.500
v -6.500 -1.000 1.500
v -6.500 -1.000 -2.500
v -6.500 0.000 -2.500
v -6.500 -1.000 2.500
v -6.500 0.000 2.500
v -6.500 1.000 -1.500
v -6.500 1.000 -2.500
v -6.500 1.000 2.500
v -6.500 1.000 1.500
v -6.500 2.000 -0.500
v -6.500 2.000 -1.500
v -6.500 2.000 0.500
v -6.500 2.000 1.500
v -5.500 -2.000 -1.500
v -5.500 -2.000 -0.500
v -5.500 -1.000 -1.500
v -5.500 -2.000 0.500
v -5.500 -2.000 1.500
v -5.500 -1.000 1.500
v -5.500 -1.000 -2.500
v -5.500 0.000 -2.500
v -5.500 -1.000 2.500
v -5.500 0.000 2.500
v -5.500 1.000 -1.500
v -5.500 1.000 -2.500
v -5.500 1.000 2.500
v -5.500 1.000 1.500
v -5.500 2.000 -0.500
v -5.500 2.000 -1.500
v -5.500 2.000 0.500
v -5.500 2.000 1.500
v -4.500 -2.000 -1.500
v -4.500 -2.000 -0.500
v -4.500 -1.000 -1.500
v -4.500 -2.000 0.500
v -4.500 -2.000 1.500
v -4.500 -1.000 1.500
v -4.500 -1.000 -2.500
v -4.500 0.000 -2.500
v -4.500 -1.000 2.500
v -4.500 0.000 2.500
v -4.500 1.000 -1.500
v -4.500 1.000 -2.500
v -4.500 1.000 2.500
v -4.500 1.000 1.500
v -4.500 2.000 -0.500
v -4.500 2.000 -1.500
v -4.500 2.000 0.500
v -4.500 2.000 1.500
v -3.500 -2.000 -1.500
v -3.500 -2.000 -0.500
v -3.500 -1.000 -1.500
v -3.500 -2.000 0.500
v -3.500 -2.000 1.500
v -3.500 -1.000 1.500
v -3.500 -1.000 -2.500
v -3.500 0.000 -2.500
v -3.500 -1.000 2.500
v -3.500 0.000 2.500
v -3.500 1.000 -1.500
v -3.500 1.000 -2.500
v -3.500 1.000 2.500
v -3.500 1.000 1.500
v -3.500 2.000 -0.500
v -3.500 2.000 -1.500
v -3.500 2.000 0.500
v -3.500 2.000 1.500
v -3.500 -3.000 -1.500
v -3.500 -2.000 -2.500
v -3.500 -3.000 -2.500
v -2.500 -3.000 -2.500
v -2.500 -3.000 -1.500
v -2.500 -2.000 -2.500
v -3.500 -3.000 -0.500
v -2.500 -3.000 -0.500
v -3.500 -3.000 0.500
v -2.500 -3.000 0.500
v -3.500 -3.000 1.500
v -2.500 -3.000 1.500
v -3.500 -3.000 2.500
v -3.500 -2.000 2.500
v -2.500 -3.000 2.500
v -2.500 -2.000 2.500
v -3.500 -1.000 -3.500
v -3.500 -2.000 -3.500
v -2.500 -2.000 -3.500
v -2.500 -1.000 -3.500
v -3.500 -2.000 3.500
v -3.500 -1.000 3.500
v -2.500 -2.000 3.500
v -2.500 -1.000 3.500
v -3.500 0.000 -3.500
v -2.500 0.000 -3.500
v -3.500 0.000 3.500
v -2.500 0.000 3.500
v -3.500 1.000 -3.500
v -2.500 1.000 -3.500
v -3.500 1.000 3.500
v -2.500 1.000 3.500
v -3.500 2.000 -2.500
v -3.500 2.000 -3.500
v -2.500 2.000 -2.500
v -2.500 2.000 -3.500
v -3.500 2.000 2.500
v -3.500 2.000 3.500
v -2.500 2.000 3.500
v -2.500 2.000 2.500
v -3.500 3.000 -1.500
v -3.500 3.000 -2.500
v -2.500 3.000 -1.500
v -2.500 3.000 -2.500
v -3.500 3.000 -0.500
v -2.500 3.000 -0.500
v -3.500 3.000 0.500
v -2.500 3.000 0.500
v -3.500 3.000 1.500
v -2.500 3.000 1.500
v -3.500 3.000 2.500
v -2.500 3.000 2.500
v -1.500 -3.000 -2.500
v -1.500 -3.000 -1.500
v -1.500 -2.000 -2.500
v -1.500 -3.000 -0.500
v -1.500 -3.000 0.500
v -1.500 -3.000 1.500
v -1.500 -3.000 2.500
v -1.500 -2.000 2.500
v -1.500 -2.000 -3.500
v -1.500 -1.000 -3.500
v -1.500 -2.000 3.500
v -1.500 -1.000 3.500
v -1.500 0.000 -3.500
v -1.500 0.000 3.500
v -1.500 1.000 -3.500
v -1.500 1.000 3.500
v -1.500 2.000 -2.500
v -1.500 2.000 -3.500
v -1.500 2.000 3.500
v -1.500 2.000 2.500
v -1.500 3.000 -1.500
v -1.500 3.000 -2.500
v -1.500 3.000 -0.500
v -1.500 3.000 0.500
v -1.500 3.000 1.500
v -1.500 3.000 2.500
v -0.500 -3.000 -2.500
v -0.500 -3.000 -1.500
v -0.500 -2.000 -2.500
v -0.500 -3.000 -0.500
v -0.500 -3.000 0.500
v -0.500 -3.000 1.500
v -0.500 -3.000 2.500
v -0.500 -2.000 2.500
v -0.500 -2.000 -3.500
v -0.500 -1.000 -3.500
v -0.500 -2.000 3.500
v -0.500 -1.000 3.500
v -0.500 0.000 -3.500
v -0.500 0.000 3.500
v -0.500 1.000 -3.500
v -0.500 1.000 3.500
v -0.500 2.000 -2.500
v -0.500 2.000 -3.500
v -0.500 2.000 3.500
v -0.500 2.000 2.500
v -0.500 3.000 -1.500
v -0.500 3.000 -2.500
v -0.500 3.000 -0.500
v -0.500 3.000 0.500
v -0.500 3.000 1.500
v -0.500 3.000 2.500
v 0.500 -3.000 -2.500
v 0.500 -2.000 -2.500
v 0.500 -2.000 -1.500
v 0.500 -3.000 -1.500
v 0.500 -2.000 -0.500
v 0.500 -3.000 -0.500
v 0.500 -2.000 0.500
v 0.500 -3.000 0.500
v 0.500 -2.000 1.500
v 0.500 -3.000 1.500
v 0.500 -2.000 2.500
v 0.500 -3.000 2.500
v 0.500 -2.000 -3.500
v 0.500 -1.000 -3.500
v 0.500 -1.000 -2.500
v 0.500 -1.000 -1.500
v 0.500 -1.000 -0.500
v 0.500 -1.000 0.500
v 0.500 -1.000 1.500
v 0.500 -1.000 2.500
v 0.500 -1.000 3.500
v 0.500 -2.000 3.500
v 0.500 0.000 -3.500
v 0.500 0.000 -2.500
v 0.500 0.000 -1.500
v 0.500 0.000 1.500
v 0.500 0.000 2.500
v 0.500 0.000 3.500
v 0.500 1.000 -3.500
v 0.500 1.000 -2.500
v 0.500 1.000 -1.500
v 0.500 1.000 1.500
v 0.500 1.000 2.500
v 0.500 1.000 3.500
v 0.500 2.000 -3.500
v 0.500 2.000 -2.500
v 0.500 2.000 -1.500
v 0.500 2.000 -0.500
v 0.500 1.000 -0.500
v 0.500 2.000 0.500
v 0.500 1.000 0.500
v 0.500 2.000 1.500
v 0.500 2.000 2.500
v 0.500 2.000 3.500
v 0.500 3.000 -2.500
v 0.500 3.000 -1.500
v 0.500 3.000 -0.500
v 0.500 3.000 0.500
v 0.500 3.000 1.500
v 0.500 3.000 2.500
v 1.500 -1.000 -1.500
v 1.500 -1.000 -0.500
v 1.500 0.000 -1.500
v 1.500 -1.000 0.500
v 1.500 -1.000 1.500
v 1.500 0.000 1.500
v 1.500 1.000 -0.500
v 1.500 1.000 -1.500
v 1.500 1.000 0.500
v 1.500 1.000 1.500
v 1.500 -2.000 -0.500
v 1.500 -2.000 -1.500
v 2.500 -2.000 -1.500
v 2.500 -2.000 -0.500
v 2.500 -1.000 -1.500
v 1.500 -2.000 0.500
v 2.500 -2.000 0.500
v 1.500 -2.000 1.500
v 2.500 -2.000 1.500
v 2.500 -1.000 1.500
v 1.500 0.000 -2.500
v 1.500 -1.000 -2.500
v 2.500 -1.000 -2.500
v 2.500 0.000 -2.500
v 1.500 -1.000 2.500
v 1.500 0.000 2.500
v 2.500 -1.000 2.500
v 2.500 0.000 2.500
v 1.500 1.000 -2.500
v 2.500 1.000 -1.500
v 2.500 1.000 -2.500
v 1.500 1.000 2.500
v 2.500 1.000 2.500
v 2.500 1.000 1.500
v 1.500 2.000 -0.500
v 1.500 2.000 -1.500
v 2.500 2.000 -0.500
v 2.500 2.000 -1.500
v 1.500 2.000 0.500
v 2.500 2.000 0.500
v 1.500 2.000 1.500
v 2.500 2.000 1.500
v 2.500 -3.000 -1.500
v 2.500 -2.000 -2.500
v 2.500 -3.000 -2.500
v 3.500 -3.000 -2.500
v 3.500 -3.000 -1.500
v 3.500 -2.000 -2.500
v 2.500 -3.000 -0.500
v 3.500 -3.000 -0.500
v 2.500 -3.000 0.500
v 3.500 -3.000 0.500
v 2.500 -3.000 1.500
v 3.500 -3.000 1.500
v 2.500 -3.000 2.500
v 2.500 -2.000 2.500
v 3.500 -3.000 2.500
v 3.500 -2.000 2.500
v 2.500 -1.000 -3.500
v 2.500 -2.000 -3.500
v 3.500 -2.000 -3.500
v 3.500 -1.000 -3.500
v 2.500 -2.000 3.500
v 2.500 -1.000 3.500
v 3.500 -2.000 3.500
v 3.500 -1.000 3.500
v 2.500 0.000 -3.500
v 3.500 0.000 -3.500
v 2.500 0.000 3.500
v 3.500 0.000 3.500
v 2.500 1.000 -3.500
v 3.500 1.000 -3.500
v 2.500 1.000 3.500
v 3.500 1.000 3.500
v 2.500 2.000 -2.500
v 2.500 2.000 -3.500
v 3.500 2.000 -2.500
v 3.500 2.000 -3.500
v 2.500 2.000 2.500
v 2.500 2.000 3.500
v 3.500 2.000 3.500
v 3.500 2.000 2.500
v 2.500 3.000 -1.500
v 2.500 3.000 -2.500
v 3.500 3.000 -1.500
v 3.500 3.000 -2.500
v 2.500 3.000 -0.500
v 3.500 3.000 -0.500
v 2.500 3.000 0.500
v 3.500 3.000 0.500
v 2.500 3.000 1.500
v 3.500 3.000 1.500
v 2.500 3.000 2.500
v 3.500 3.000 2.500
v 4.500 -3.000 -2.500
v 4.500 -3.000 -1.500
v 4.500 -2.000 -2.500
v 4.500 -3.000 -0.500
v 4.500 -3.000 0.500
v 4.500 -3.000 1.500
v 4.500 -3.000 2.500
v 4.500 -2.000 2.500
v 4.500 -2.000 -3.500
v 4.500 -1.000 -3.500
v 4.500 -2.000 3.500
v 4.500 -1.000 3.500
v 4.500 0.000 -3.500
v 4.500 0.000 3.500
v 4.500 1.000 -3.500
v 4.500 1.000 3.500
v 4.500 2.000 -2.500
v 4.500 2.000 -3.500
v 4.500 2.000 3.500
v 4.500 2.000 2.500
v 4.500 3.000 -1.500
v 4.500 3.000 -2.500
v 4.500 3.000 -0.500
v 4.500 3.000 0.500
v 4.500 3.000 1.500
v 4.500 3.000 2.500
v 4.500 -4.000 -1.500
v 4.500 -4.000 -2.500
v 5.500 -4.000 -2.500
v 5.500 -4.000 -1.500
v 5.500 -3.000 -2.500
v 4.500 -4.000 -0.500
v 5.500 -4.000 -0.500
v 4.500 -4.000 0.500
v 5.500 -4.000 0.500
v 4.500 -4.000 1.500
v 5.500 -4.000 1.500
v 4.500 -4.000 2.500
v 5.500 -4.000 2.500
v 5.500 -3.000 2.500
v 4.500 -3.000 -3.500
v 5.500 -3.000 -3.500
v 5.500 -2.000 -3.500
v 4.500 -3.000 3.500
v 5.500 -3.000 3.500
v 5.500 -2.000 3.500
v 4.500 -1.000 -4.500
v 4.500 -2.000 -4.500
v 5.500 -2.000 -4.500
v 5.500 -1.000 -4.500
v 4.500 -2.000 4.500
v 4.500 -1.000 4.500
v 5.500 -2.000 4.500
v 5.500 -1.000 4.500
v 4.500 0.000 -4.500
v 5.500 0.000 -4.500
v 4.500 0.000 4.500
v 5.500 0.000 4.500
v 4.500 1.000 -4.500
v 5.500 1.000 -4.500
v 4.500 1.000 4.500
v 5.500 1.000 4.500
v 4.500 2.000 -4.500
v 5.500 2.000 -3.500
v 5.500 2.000 -4.500
v 4.500 2.000 4.500
v 5.500 2.000 4.500
v 5.500 2.000 3.500
v 4.500 3.000 -3.500
v 5.500 3.000 -2.500
v 5.500 3.000 -3.500
v 4.500 3.000 3.500
v 5.500 3.000 3.500
v 5.500 3.000 2.500
v 4.500 4.000 -1.500
v 4.500 4.000 -2.500
v 5.500 4.000 -1.500
v 5.500 4.000 -2.500
v 4.500 4.000 -0.500
v 5.500 4.000 -0.500
v 4.500 4.000 0.500
v 5.500 4.000 0.500
v 4.500 4.000 1.500
v 5.500 4.000 1.500
v 4.500 4.000 2.500
v 5.500 4.000 2.500
v 5.500 -5.000 -1.500
v 5.500 -5.000 -2.500
v 6.500 -5.000 -2.500
v 6.500 -5.000 -1.500
v 6.500 -4.000 -2.500
v 5.500 -5.000 -0.500
v 6.500 -5.000 -0.500
v 5.500 -5.000 0.500
v 6.500 -5.000 0.500
v 5.500 -5.000 1.500
v 6.500 -5.000 1.500
v 5.500 -5.000 2.500
v 6.500 -5.000 2.500
v 6.500 -4.000 2.500
v 5.500 -4.000 -3.500
v 5.500 -3.000 -4.500
v 5.500 -4.000 -4.500
v 6.500 -4.000 -4.500
v 6.500 -4.000 -3.500
v 6.500 -3.000 -4.500
v 5.500 -4.000 3.500
v 6.500 -4.000 3.500
v 5.500 -4.000 4.500
v 5.500 -3.000 4.500
v 6.500 -4.000 4.500
v 6.500 -3.000 4.500
v 6.500 -2.000 -4.500
v 6.500 -2.000 4.500
v 5.500 -1.000 -5.500
v 5.500 -2.000 -5.500
v 6.500 -2.000 -5.500
v 6.500 -1.000 -5.500
v 5.500 -2.000 5.500
v 5.500 -1.000 5.500
v 6.500 -2.000 5.500
v 6.500 -1.000 5.500
v 5.500 0.000 -5.500
v 6.500 0.000 -5.500
v 5.500 0.000 5.500
v 6.500 0.000 5.500
v 5.500 1.000 -5.500
v 6.500 1.000 -5.500
v 5.500 1.000 5.500
v 6.500 1.000 5.500
v 5.500 2.000 -5.500
v 6.500 2.000 -4.500
v 6.500 2.000 -5.500
v 5.500 2.000 5.500
v 6.500 2.000 5.500
v 6.500 2.000 4.500
v 5.500 3.000 -4.500
v 6.500 3.000 -4.500
v 5.500 3.000 4.500
v 6.500 3.000 4.500
v 5.500 4.000 -3.500
v 5.500 4.000 -4.500
v 6.500 4.000 -3.500
v 6.500 4.000 -4.500
v 6.500 4.000 -2.500
v 5.500 4.000 3.500
v 6.500 4.000 3.500
v 6.500 4.000 2.500
v 5.500 4.000 4.500
v 6.500 4.000 4.500
v 5.500 5.000 -1.500
v 5.500 5.000 -2.500
v 6.500 5.000 -1.500
v 6.500 5.000 -2.500
v 5.500 5.000 -0.500
v 6.500 5.000 -0.500
v 5.500 5.000 0.500
v 6.500 5.000 0.500
v 5.500 5.000 1.500
v 6.500 5.000 1.500
v 5.500 5.000 2.500
v 6.500 5.000 2.500
v 6.500 -6.000 -1.500
v 6.500 -6.000 -2.500
v 7.500 -6.000 -2.500
v 7.500 -6.000 -1.500
v 7.500 -5.000 -2.500
v 6.500 -6.000 -0.500
v 7.500 -6.000 -0.500
v 6.500 -6.000 0.500
v 7.500 -6.000 0.500
v 6.500 -6.000 1.500
v 7.500 -6.000 1.500
v 6.500 -6.000 2.500
v 7.500 -6.000 2.500
v 7.500 -5.000 2.500
v 6.500 -5.000 -3.500
v 6.500 -5.000 -4.500
v 7.500 -5.000 -4.500
v 7.500 -5.000 -3.500
v 7.500 -4.000 -4.500
v 6.500 -5.000 3.500
v 7.500 -5.000 3.500
v 6.500 -5.000 4.500
v 7.500 -5.000 4.500
v 7.500 -4.000 4.500
v 6.500 -3.000 -5.500
v 6.500 -4.000 -5.500
v 7.500 -4.000 -5.500
v 7.500 -3.000 -5.500
v 6.500 -4.000 5.500
v 6.500 -3.000 5.500
v 7.500 -4.000 5.500
v 7.500 -3.000 5.500
v 7.500 -2.000 -5.500
v 7.500 -2.000 5.500
v 6.500 -1.000 -6.500
v 6.500 -2.000 -6.500
v 7.500 -2.000 -6.500
v 7.500 -1.000 -6.500
v 6.500 -2.000 6.500
v 6.500 -1.000 6.500
v 7.500 -2.000 6.500
v 7.500 -1.000 6.500
v 6.500 0.000 -6.500
v 7.500 0.000 -6.500
v 6.500 0.000 6.500
v 7.500 0.000 6.500
v 6.500 1.000 -6.500
v 7.500 1.000 -6.500
v 6.500 1.000 6.500
v 7.500 1.000 6.500
v 6.500 2.000 -6.500
v 7.500 2.000 -5.500
v 7.500 2.000 -6.500
v 6.500 2.000 6.500
v 7.500 2.000 6.500
v 7.500 2.000 5.500
v 6.500 3.000 -5.500
v 7.500 3.000 -5.500
v 6.500 3.000 5.500
v 7.500 3.000 5.500
v 6.500 4.000 -5.500
v 7.500 4.000 -4.500
v 7.500 4.000 -5.500
v 6.500 4.000 5.500
v 7.500 4.000 5.500
v 7.500 4.000 4.500
v 6.500 5.000 -3.500
v 6.500 5.000 -4.500
v 7.500 5.000 -3.500
v 7.500 5.000 -4.500
v 7.500 5.000 -2.500
v 6.500 5.000 3.500
v 7.500 5.000 3.500
v 7.500 5.000 2.500
v 6.500 5.000 4.500
v 7.500 5.000 4.500
v 6.500 6.000 -1.500
v 6.500 6.000 -2.500
v 7.500 6.000 -1.500
v 7.500 6.000 -2.500
v 6.500 6.000 -0.500
v 7.500 6.000 -0.500
v 6.500 6.000 0.500
v 7.500 6.000 0.500
v 6.500 6.000 1.500
v 7.500 6.000 1.500
v 6.500 6.000 2.500
v 7.500 6.000 2.500
v 7.500 -7.000 -2.500
v 7.500 -6.000 -3.500
v 7.500 -7.000 -3.500
v 8.500 -7.000 -3.500
v 8.500 -7.000 -2.500
v 8.500 -6.000 -3.500
v 7.500 -7.000 -1.500
v 8.500 -7.000 -1.500
v 7.500 -7.000 -0.500
v 8.500 -7.000 -0.500
v 7.500 -7.000 0.500
v 8.500 -7.000 0.500
v 7.500 -7.000 1.500
v 8.500 -7.000 1.500
v 7.500 -7.000 2.500
v 8.500 -7.000 2.500
v 7.500 -7.000 3.500
v 7.500 -6.000 3.500
v 8.500 -7.000 3.500
v 8.500 -6.000 3.500
v 7.500 -6.000 -4.500
v 8.500 -6.000 -4.500
v 8.500 -5.000 -4.500
v 7.500 -6.000 4.500
v 8.500 -6.000 4.500
v 8.500 -5.000 4.500
v 7.500 -5.000 -5.500
v 8.500 -5.000 -5.500
v 8.500 -4.000 -5.500
v 7.500 -5.000 5.500
v 8.500 -5.000 5.500
v 8.500 -4.000 5.500
v 7.500 -3.000 -6.500
v 7.500 -4.000 -6.500
v 8.500 -4.000 -6.500
v 8.500 -3.000 -6.500
v 7.500 -4.000 6.500
v 7.500 -3.000 6.500
v 8.500 -4.000 6.500
v 8.500 -3.000 6.500
v 7.500 -2.000 -7.500
v 7.500 -3.000 -7.500
v 8.500 -3.000 -7.500
v 8.500 -2.000 -7.500
v 7.500 -3.000 7.500
v 7.500 -2.000 7.500
v 8.500 -3.000 7.500
v 8.500 -2.000 7.500
v 7.500 -1.000 -7.500
v 8.500 -1.000 -7.500
v 7.500 -1.000 7.500
v 8.500 -1.000 7.500
v 7.500 0.000 -7.500
v 8.500 0.000 -7.500
v 7.500 0.000 7.500
v 8.500 0.000 7.500
v 7.500 1.000 -7.500
v 8.500 1.000 -7.500
v 7.500 1.000 7.500
v 8.500 1.000 7.500
v 7.500 2.000 -7.500
v 8.500 2.000 -7.500
v 7.500 2.000 7.500
v 8.500 2.000 7.500
v 7.500 3.000 -6.500
v 7.500 3.000 -7.500
v 8.500 3.000 -6.500
v 8.500 3.000 -7.500
v 7.500 3.000 6.500
v 7.500 3.000 7.500
v 8.500 3.000 7.500
v 8.500 3.000 6.500
v 7.500 4.000 -6.500
v 8.500 4.000 -5.500
v 8.500 4.000 -6.500
v 7.500 4.000 6.500
v 8.500 4.000 6.500
v 8.500 4.000 5.500
v 7.500 5.000 -5.500
v 8.500 5.000 -4.500
v 8.500 5.000 -5.500
v 7.500 5.000 5.500
v 8.500 5.000 5.500
v 8.500 5.000 4.500
v 7.500 6.000 -3.500
v 7.500 6.000 -4.500
v 8.500 6.000 -3.500
v 8.500 6.000 -4.500
v 7.500 6.000 3.500
v 7.500 6.000 4.500
v 8.500 6.000 4.500
v 8.500 6.000 3.500
v 7.500 7.000 -2.500
v 7.500 7.000 -3.500
v 8.500 7.000 -2.500
v 8.500 7.000 -3.500
v 7.500 7.000 -1.500
v 8.500 7.000 -1.500
v 7.500 7.000 -0.500
v 8.500 7.000 -0.500
v 7.500 7.000 0.500
v 8.500 7.000 0.500
v 7.500 7.000 1.500
v 8.500 7.000 1.500
v 7.500 7.000 2.500
v 8.500 7.000 2.500
v 7.500 7.000 3.500
v 8.500 7.000 3.500
v 9.500 -7.000 -3.500
v 9.500 -7.000 -2.500
v 9.500 -6.000 -3.500
v 9.500 -7.000 -1.500
v 9.500 -7.000 -0.500
v 9.500 -7.000 0.500
v 9.500 -7.000 1.500
v 9.500 -7.000 2.500
v 9.500 -7.000 3.500
v 9.500 -6.000 3.500
v 9.500 -6.000 -4.500
v 9.500 -5.000 -4.500
v 9.500 -6.000 4.500
v 9.500 -5.000 4.500
v 9.500 -5.000 -5.500
v 9.500 -4.000 -5.500
v 9.500 -5.000 5.500
v 9.500 -4.000 5.500
v 9.500 -4.000 -6.500
v 9.500 -3.000 -6.500
v 9.500 -4.000 6.500
v 9.500 -3.000 6.500
v 9.500 -3.000 -7.500
v 9.500 -2.000 -7.500
v 9.500 -3.000 7.500
v 9.500 -2.000 7.500
v 9.500 -1.000 -7.500
v 9.500 -1.000 7.500
v 9.500 0.000 -7.500
v 9.500 0.000 7.500
v 9.500 1.000 -7.500
v 9.500 1.000 7.500
v 9.500 2.000 -7.500
v 9.500 2.000 7.500
v 9.500 3.000 -6.500
v 9.500 3.000 -7.500
v 9.500 3.000 7.500
v 9.500 3.000 6.500
v 9.500 4.000 -5.500
v 9.500 4.000 -6.500
v 9.500 4.000 6.500
v 9.500 4.000 5.500
v 9.500 5.000 -4.500
v 9.500 5.000 -5.500
v 9.500 5.000 5.500
v 9.500 5.000 4.500
v 9.500 6.000 -3.500
v 9.500 6.000 -4.500
v 9.500 6.000 4.500
v 9.500 6.000 3.500
v 9.500 7.000 -2.500
v 9.500 7.000 -3.500
v 9.500 7.000 -1.500
v 9.500 7.000 -0.500
v 9.500 7.000 0.500
v 9.500 7.000 1.500
v 9.500 7.000 2.500
v 9.500 7.000 3.500
v 9.500 -8.000 -2.500
v 9.500 -8.000 -3.500
v 10.500 -8.000 -3.500
v 10.500 -8.000 -2.500
v 10.500 -7.000 -3.500
v 9.500 -8.000 -1.500
v 10.500 -8.000 -1.500
v 9.500 -8.000 -0.500
v 10.500 -8.000 -0.500
v 9.500 -8.000 0.500
v 10.500 -8.000 0.500
v 9.500 -8.000 1.500
v 10.500 -8.000 1.500
v 9.500 -8.000 2.500
v 10.500 -8.000 2.500
v 9.500 -8.000 3.500
v 10.500 -8.000 3.500
v 10.500 -7.000 3.500
v 9.500 -7.000 -4.500
v 9.500 -6.000 -5.500
v 9.500 -7.000 -5.500
v 10.500 -7.000 -5.500
v 10.500 -7.000 -4.500
v 10.500 -6.000 -5.500
v 9.500 -7.000 4.500
v 10.500 -7.000 4.500
v 9.500 -7.000 5.500
v 9.500 -6.000 5.500
v 10.500 -7.000 5.500
v 10.500 -6.000 5.500
v 9.500 -5.000 -6.500
v 9.500 -6.000 -6.500
v 10.500 -6.000 -6.500
v 10.500 -5.000 -6.500
v 9.500 -6.000 6.500
v 9.500 -5.000 6.500
v 10.500 -6.000 6.500
v 10.500 -5.000 6.500
v 9.500 -4.000 -7.500
v 9.500 -5.000 -7.500
v 10.500 -5.000 -7.500
v 10.500 -4.000 -7.500
v 9.500 -5.000 7.500
v 9.500 -4.000 7.500
v 10.500 -5.000 7.500
v 10.500 -4.000 7.500
v 10.500 -3.000 -7.500
v 10.500 -3.000 7.500
v 9.500 -2.000 -8.500
v 9.500 -3.000 -8.500
v 10.500 -3.000 -8.500
v 10.500 -2.000 -8.500
v 9.500 -3.000 8.500
v 9.500 -2.000 8.500
v 10.500 -3.000 8.500
v 10.500 -2.000 8.500
v 9.500 -1.000 -8.500
v 10.500 -1.000 -8.500
v 9.500 -1.000 8.500
v 10.500 -1.000 8.500
v 9.500 0.000 -8.500
v 10.500 0.000 -8.500
v 9.500 0.000 8.500
v 10.500 0.000 8.500
v 9.500 1.000 -8.500
v 10.500 1.000 -8.500
v 9.500 1.000 8.500
v 10.500 1.000 8.500
v 9.500 2.000 -8.500
v 10.500 2.000 -8.500
v 9.500 2.000 8.500
v 10.500 2.000 8.500
v 9.500 3.000 -8.500
v 10.500 3.000 -7.500
v 10.500 3.000 -8.500
v 9.500 3.000 8.500
v 10.500 3.000 8.500
v 10.500 3.000 7.500
v 9.500 4.000 -7.500
v 10.500 4.000 -7.500
v 9.500 4.000 7.500
v 10.500 4.000 7.500
v 9.500 5.000 -6.500
v 9.500 5.000 -7.500
v 10.500 5.000 -6.500
v 10.500 5.000 -7.500
v 9.500 5.000 6.500
v 9.500 5.000 7.500
v 10.500 5.000 7.500
v 10.500 5.000 6.500
v 9.500 6.000 -5.500
v 9.500 6.000 -6.500
v 10.500 6.000 -5.500
v 10.500 6.000 -6.500
v 9.500 6.000 5.500
v 9.500 6.000 6.500
v 10.500 6.000 6.500
v 10.500 6.000 5.500
v 9.500 7.000 -4.500
v 9.500 7.000 -5.500
v 10.500 7.000 -4.500
v 10.500 7.000 -5.500
v 10.500 7.000 -3.500
v 9.500 7.000 4.500
v 10.500 7.000 4.500
v 10.500 7.000 3.500
v 9.500 7.000 5.500
v 10.500 7.000 5.500
v 9.500 8.000 -2.500
v 9.500 8.000 -3.500
v 10.500 8.000 -2.500
v 10.500 8.000 -3.500
v 9.500 8.000 -1.500
v 10.500 8.000 -1.500
v 9.500 8.000 -0.500
v 10.500 8.000 -0.500
v 9.500 8.000 0.500
v 10.500 8.000 0.500
v 9.500 8.000 1.500
v 10.500 8.000 1.500
v 9.500 8.000 2.500
v 10.500 8.000 2.500
v 9.500 8.000 3.500
v 10.500 8.000 3.500
v 11.500 -8.000 -3.500
v 11.500 -8.000 -2.500
v 11.500 -7.000 -3.500
v 11.500 -8.000 -1.500
v 11.500 -8.000 -0.500
v 11.500 -8.000 0.500
v 11.500 -8.000 1.500
v 11.500 -8.000 2.500
v 11.500 -8.000 3.500
v 11.500 -7.000 3.500
v 11.500 -7.000 -5.500
v 11.500 -7.000 -4.500
v 11.500 -6.000 -5.500
v 11.500 -7.000 4.500
v 11.500 -7.000 5.500
v 11.500 -6.000 5.500
v 11.500 -6.000 -6.500
v 11.500 -5.000 -6.500
v 11.500 -6.000 6.500
v 11.500 -5.000 6.500
v 11.500 -5.000 -7.500
v 11.500 -4.000 -7.500
v 11.500 -5.000 7.500
v 11.500 -4.000 7.500
v 11.500 -3.000 -7.500
v 11.500 -3.000 7.500
v 11.500 -3.000 -8.500
v 11.500 -2.000 -8.500
v 11.500 -3.000 8.500
v 11.500 -2.000 8.500
v 11.500 -1.000 -8.500
v 11.500 -1.000 8.500
v 11.500 0.000 -8.500
v 11.500 0.000 8.500
v 11.500 1.000 -8.500
v 11.500 1.000 8.500
v 11.500 2.000 -8.500
v 11.500 2.000 8.500
v 11.500 3.000 -7.500
v 11.500 3.000 -8.500
v 11.500 3.000 8.500
v 11.500 3.000 7.500
v 11.500 4.000 -7.500
v 11.500 4.000 7.500
v 11.500 5.000 -6.500
v 11.500 5.000 -7.500
v 11.500 5.000 7.500
v 11.500 5.000 6.500
v 11.500 6.000 -5.500
v 11.500 6.000 -6.500
v 11.500 6.000 6.500
v 11.500 6.000 5.500
v 11.500 7.000 -4.500
v 11.500 7.000 -5.500
v 11.500 7.000 -3.500
v 11.500 7.000 4.500
v 11.500 7.000 3.500
v 11.500 7.000 5.500
v 11.500 8.000 -2.500
v 11.500 8.000 -3.500
v 11.500 8.000 -1.500
v 11.500 8.000 -0.500
v 11.500 8.000 0.500
v 11.500 8.000 1.500
v 11.500 8.000 2.500
v 11.500 8.000 3.500
v 11.500 -9.000 -2.500
v 11.500 -9.000 -3.500
v 12.500 -9.000 -3.500
v 12.500 -9.000 -2.500
v 12.500 -8.000 -3.500
v 11.500 -9.000 -1.500
v 12.500 -9.000 -1.500
v 11.500 -9.000 -0.500
v 12.500 -9.000 -0.500
v 11.500 -9.000 0.500
v 12.500 -9.000 0.500
v 11.500 -9.000 1.500
v 12.500 -9.000 1.500
v 11.500 -9.000 2.500
v 12.500 -9.000 2.500
v 11.500 -9.000 3.500
v 12.500 -9.000 3.500
v 12.500 -8.000 3.500
v 11.500 -8.000 -4.500
v 11.500 -8.000 -5.500
v 12.500 -8.000 -5.500
v 12.500 -8.000 -4.500
v 12.500 -7.000 -5.500
v 11.500 -8.000 4.500
v 12.500 -8.000 4.500
v 11.500 -8.000 5.500
v 12.500 -8.000 5.500
v 12.500 -7.000 5.500
v 11.500 -7.000 -6.500
v 12.500 -7.000 -6.500
v 12.500 -6.000 -6.500
v 11.500 -7.000 6.500
v 12.500 -7.000 6.500
v 12.500 -6.000 6.500
v 11.500 -6.000 -7.500
v 12.500 -6.000 -7.500
v 12.500 -5.000 -7.500
v 11.500 -6.000 7.500
v 12.500 -6.000 7.500
v 12.500 -5.000 7.500
v 11.500 -4.000 -8.500
v 11.500 -5.000 -8.500
v 12.500 -5.000 -8.500
v 12.500 -4.000 -8.500
v 11.500 -5.000 8.500
v 11.500 -4.000 8.500
v 12.500 -5.000 8.500
v 12.500 -4.000 8.500
v 12.500 -3.000 -8.500
v 12.500 -3.000 8.500
v 11.500 -2.000 -9.500
v 11.500 -3.000 -9.500
v 12.500 -3.000 -9.500
v 12.500 -2.000 -9.500
v 11.500 -3.000 9.500
v 11.500 -2.000 9.500
v 12.500 -3.000 9.500
v 12.500 -2.000 9.500
v 11.500 -1.000 -9.500
v 12.500 -1.000 -9.500
v 11.500 -1.000 9.500
v 12.500 -1.000 9.500
v 11.500 0.000 -9.500
v 12.500 0.000 -9.500
v 11.500 0.000 9.500
v 12.500 0.000 9.500
v 11.500 1.000 -9.500
v 12.500 1.000 -9.500
v 11.500 1.000 9.500
v 12.500 1.000 9.500
v 11.500 2.000 -9.500
v 12.500 2.000 -9.500
v 11.500 2.000 9.500
v 12.500 2.000 9.500
v 11.500 3.000 -9.500
v 12.500 3.000 -8.500
v 12.500 3.000 -9.500
v 11.500 3.000 9.500
v 12.500 3.000 9.500
v 12.500 3.000 8.500
v 11.500 4.000 -8.500
v 12.500 4.000 -8.500
v 11.500 4.000 8.500
v 12.500 4.000 8.500
v 11.500 5.000 -8.500
v 12.500 5.000 -7.500
v 12.500 5.000 -8.500
v 11.500 5.000 8.500
v 12.500 5.000 8.500
v 12.500 5.000 7.500
v 11.500 6.000 -7.500
v 12.500 6.000 -6.500
v 12.500 6.000 -7.500
v 11.500 6.000 7.500
v 12.500 6.000 7.500
v 12.500 6.000 6.500
v 11.500 7.000 -6.500
v 12.500 7.000 -5.500
v 12.500 7.000 -6.500
v 11.500 7.000 6.500
v 12.500 7.000 6.500
v 12.500 7.000 5.500
v 11.500 8.000 -4.500
v 11.500 8.000 -5.500
v 12.500 8.000 -4.500
v 12.500 8.000 -5.500
v 12.500 8.000 -3.500
v 11.500 8.000 4.500
v 12.500 8.000 4.500
v 12.500 8.000 3.500
v 11.500 8.000 5.500
v 12.500 8.000 5.500
v 11.500 9.000 -2.500
v 11.500 9.000 -3.500
v 12.500 9.000 -2.500
v 12.500 9.000 -3.500
v 11.500 9.000 -1.500
v 12.500 9.000 -1.500
v 11.500 9.000 -0.500
v 12.500 9.000 -0.500
v 11.500 9.000 0.500
v 12.500 9.000 0.500
v 11.500 9.000 1.500
v 12.500 9.000 1.500
v 11.500 9.000 2.500
v 12.500 9.000 2.500
v 11.500 9.000 3.500
v 12.500 9.000 3.500
v 13.500 -9.000 -3.500
v 13.500 -9.000 -2.500
v 13.500 -8.000 -3.500
v 13.500 -9.000 -1.500
v 13.500 -9.000 -0.500
v 13.500 -9.000 0.500
v 13.500 -9.000 1.500
v 13.500 -9.000 2.500
v 13.500 -9.000 3.500
v 13.500 -8.000 3.500
v 13.500 -8.000 -5.500
v 13.500 -8.000 -4.500
v 13.500 -7.000 -5.500
v 13.500 -8.000 4.500
v 13.500 -8.000 5.500
v 13.500 -7.000 5.500
v 13.500 -7.000 -6.500
v 13.500 -6.000 -6.500
v 13.500 -7.000 6.500
v 13.500 -6.000 6.500
v 13.500 -6.000 -7.500
v 13.500 -5.000 -7.500
v 13.500 -6.000 7.500
v 13.500 -5.000 7.500
v 13.500 -5.000 -8.500
v 13.500 -4.000 -8.500
v 13.500 -5.000 8.500
v 13.500 -4.000 8.500
v 13.500 -3.000 -8.500
v 13.500 -3.000 8.500
v 13.500 -3.000 -9.500
v 13.500 -2.000 -9.500
v 13.500 -3.000 9.500
v 13.500 -2.000 9.500
v 13.500 -1.000 -9.500
v 13.500 -1.000 9.500
v 13.500 0.000 -9.500
v 13.500 0.000 9.500
v 13.500 1.000 -9.500
v 13.500 1.000 9.500
v 13.500 2.000 -9.500
v 13.500 2.000 9.500
v 13.500 3.000 -8.500
v 13.500 3.000 -9.500
v 13.500 3.000 9.500
v 13.500 3.000 8.500
v 13.500 4.000 -8.500
v 13.500 4.000 8.500
v 13.500 5.000 -7.500
v 13.500 5.000 -8.500
v 13.500 5.000 8.500
v 13.500 5.000 7.500
v 13.500 6.000 -6.500
v 13.500 6.000 -7.500
v 13.500 6.000 7.500
v 13.500 6.000 6.500
v 13.500 7.000 -5.500
v 13.500 7.000 -6.500
v 13.500 7.000 6.500
v 13.500 7.000 5.500
v 13.500 8.000 -4.500
v 13.500 8.000 -5.500
v 13.500 8.000 -3.500
v 13.500 8.000 4.500
v 13.500 8.000 3.500
v 13.500 8.000 5.500
v 13.500 9.000 -2.500
v 13.500 9.000 -3.500
v 13.500 9.000 -1.500
v 13.500 9.000 -0.500
v 13.500 9.000 0.500
v 13.500 9.000 1.500
v 13.500 9.000 2.500
v 13.500 9.000 3.500
v 14.500 -9.000 -3.500
v 14.500 -9.000 -2.500
v 14.500 -8.000 -3.500
v 14.500 -9.000 -1.500
v 14.500 -9.000 -0.500
v 14.500 -9.000 0.500
v 14.500 -9.000 1.500
v 14.500 -9.000 2.500
v 14.500 -9.000 3.500
v 14.500 -8.000 3.500
v 14.500 -8.000 -5.500
v 14.500 -8.000 -4.500
v 14.500 -7.000 -5.500
v 14.500 -8.000 4.500
v 14.500 -8.000 5.500
v 14.500 -7.000 5.500
v 14.500 -7.000 -6.500
v 14.500 -6.000 -6.500
v 14.500 -7.000 6.500
v 14.500 -6.000 6.500
v 14.500 -6.000 -7.500
v 14.500 -5.000 -7.500
v 14.500 -6.000 7.500
v 14.500 -5.000 7.500
v 14.500 -5.000 -8.500
v 14.500 -4.000 -8.500
v 14.500 -5.000 8.500
v 14.500 -4.000 8.500
v 14.500 -3.000 -8.500
v 14.500 -3.000 8.500
v 14.500 -3.000 -9.500
v 14.500 -2.000 -9.500
v 14.500 -3.000 9.500
v 14.500 -2.000 9.500
v 14.500 -1.000 -9.500
v 14.500 -1.000 9.500
v 14.500 0.000 -9.500
v 14.500 0.000 9.500
v 14.500 1.000 -9.500
v 14.500 1.000 9.500
v 14.500 2.000 -9.500
v 14.500 2.000 9.500
v 14.500 3.000 -8.500
v 14.500 3.000 -9.500
v 14.500 3.000 9.500
v 14.500 3.000 8.500
v 14.500 4.000 -8.500
v 14.500 4.000 8.500
v 14.500 5.000 -7.500
v 14.500 5.000 -8.500
v 14.500 5.000 8.500
v 14.500 5.000 7.500
v 14.500 6.000 -6.500
v 14.500 6.000 -7.500
v 14.500 6.000 7.500
v 14.500 6.000 6.500
v 14.500 7.000 -5.500
v 14.500 7.000 -6.500
v 14.500 7.000 6.500
v 14.500 7.000 5.500
v 14.500 8.000 -4.500
v 14.500 8.000 -5.500
v 14.500 8.000 -3.500
v 14.500 8.000 4.500
v 14.500 8.000 3.500
v 14.500 8.000 5.500
v 14.500 9.000 -2.500
v 14.500 9.000 -3.500
v 14.500 9.000 -1.500
v 14.500 9.000 -0.500
v 14.500 9.000 0.500
v 14.500 9.000 1.500
v 14.500 9.000 2.500
v 14.500 9.000 3.500
v 15.500 -9.000 -3.500
v 15.500 -8.000 -3.500
v 15.500 -8.000 -2.500
v 15.500 -9.000 -2.500
v 15.500 -8.000 -1.500
v 15.500 -9.000 -1.500
v 15.500 -8.000 -0.500
v 15.500 -9.000 -0.500
v 15.500 -8.000 0.500
v 15.500 -9.000 0.500
v 15.500 -8.000 1.500
v 15.500 -9.000 1.500
v 15.500 -8.000 2.500
v 15.500 -9.000 2.500
v 15.500 -8.000 3.500
v 15.500 -9.000 3.500
v 15.500 -8.000 -5.500
v 15.500 -7.000 -5.500
v 15.500 -7.000 -4.500
v 15.500 -8.000 -4.500
v 15.500 -7.000 -3.500
v 15.500 -7.000 -2.500
v 15.500 -7.000 -1.500
v 15.500 -7.000 -0.500
v 15.500 -7.000 0.500
v 15.500 -7.000 1.500
v 15.500 -7.000 2.500
v 15.500 -7.000 3.500
v 15.500 -7.000 4.500
v 15.500 -8.000 4.500
v 15.500 -7.000 5.500
v 15.500 -8.000 5.500
v 15.500 -7.000 -6.500
v 15.500 -6.000 -6.500
v 15.500 -6.000 -5.500
v 15.500 -6.000 -4.500
v 15.500 -6.000 -3.500
v 15.500 -6.000 3.500
v 15.500 -6.000 4.500
v 15.500 -6.000 5.500
v 15.500 -6.000 6.500
v 15.500 -7.000 6.500
v 15.500 -6.000 -7.500
v 15.500 -5.000 -7.500
v 15.500 -5.000 -6.500
v 15.500 -5.000 -5.500
v 15.500 -5.000 -4.500
v 15.500 -5.000 4.500
v 15.500 -5.000 5.500
v 15.500 -5.000 6.500
v 15.500 -5.000 7.500
v 15.500 -6.000 7.500
v 15.500 -5.000 -8.500
v 15.500 -4.000 -8.500
v 15.500 -4.000 -7.500
v 15.500 -4.000 -6.500
v 15.500 -4.000 -5.500
v 15.500 -4.000 5.500
v 15.500 -4.000 6.500
v 15.500 -4.000 7.500
v 15.500 -4.000 8.500
v 15.500 -5.000 8.500
v 15.500 -3.000 -8.500
v 15.500 -3.000 -7.500
v 15.500 -3.000 -6.500
v 15.500 -3.000 6.500
v 15.500 -3.000 7.500
v 15.500 -3.000 8.500
v 15.500 -3.000 -9.500
v 15.500 -2.000 -9.500
v 15.500 -2.000 -8.500
v 15.500 -2.000 -7.500
v 15.500 -2.000 7.500
v 15.500 -2.000 8.500
v 15.500 -2.000 9.500
v 15.500 -3.000 9.500
v 15.500 -1.000 -9.500
v 15.500 -1.000 -8.500
v 15.500 -1.000 -7.500
v 15.500 -1.000 7.500
v 15.500 -1.000 8.500
v 15.500 -1.000 9.500
v 15.500 0.000 -9.500
v 15.500 0.000 -8.500
v 15.500 0.000 -7.500
v 15.500 0.000 7.500
v 15.500 0.000 8.500
v 15.500 0.000 9.500
v 15.500 1.000 -9.500
v 15.500 1.000 -8.500
v 15.500 1.000 -7.500
v 15.500 1.000 7.500
v 15.500 1.000 8.500
v 15.500 1.000 9.500
v 15.500 2.000 -9.500
v 15.500 2.000 -8.500
v 15.500 2.000 -7.500
v 15.500 2.000 7.500
v 15.500 2.000 8.500
v 15.500 2.000 9.500
v 15.500 3.000 -9.500
v 15.500 3.000 -8.500
v 15.500 3.000 -7.500
v 15.500 3.000 7.500
v 15.500 3.000 8.500
v 15.500 3.000 9.500
v 15.500 4.000 -8.500
v 15.500 4.000 -7.500
v 15.500 4.000 -6.500
v 15.500 3.000 -6.500
v 15.500 3.000 6.500
v 15.500 4.000 6.500
v 15.500 4.000 7.500
v 15.500 4.000 8.500
v 15.500 5.000 -8.500
v 15.500 5.000 -7.500
v 15.500 5.000 -6.500
v 15.500 5.000 -5.500
v 15.500 4.000 -5.500
v 15.500 4.000 5.500
v 15.500 5.000 5.500
v 15.500 5.000 6.500
v 15.500 5.000 7.500
v 15.500 5.000 8.500
v 15.500 6.000 -7.500
v 15.500 6.000 -6.500
v 15.500 6.000 -5.500
v 15.500 6.000 -4.500
v 15.500 5.000 -4.500
v 15.500 5.000 4.500
v 15.500 6.000 4.500
v 15.500 6.000 5.500
v 15.500 6.000 6.500
v 15.500 6.000 7.500
v 15.500 7.000 -6.500
v 15.500 7.000 -5.500
v 15.500 7.000 -4.500
v 15.500 7.000 -3.500
v 15.500 6.000 -3.500
v 15.500 6.000 3.500
v 15.500 7.000 3.500
v 15.500 7.000 4.500
v 15.500 7.000 5.500
v 15.500 7.000 6.500
v 15.500 8.000 -5.500
v 15.500 8.000 -4.500
v 15.500 8.000 -3.500
v 15.500 8.000 -2.500
v 15.500 7.000 -2.500
v 15.500 8.000 -1.500
v 15.500 7.000 -1.500
v 15.500 8.000 -0.500
v 15.500 7.000 -0.500
v 15.500 8.000 0.500
v 15.500 7.000 0.500
v 15.500 8.000 1.500
v 15.500 7.000 1.500
v 15.500 8.000 2.500
v 15.500 7.000 2.500
v 15.500 8.000 3.500
v 15.500 8.000 4.500
v 15.500 8.000 5.500
v 15.500 9.000 -3.500
v 15.500 9.000 -2.500
v 15.500 9.000 -1.500
v 15.500 9.000 -0.500
v 15.500 9.000 0.500
v 15.500 9.000 1.500
v 15.500 9.000 2.500
v 15.500 9.000 3.500
v 16.500 -7.000 -3.500
v 16.500 -6.000 -3.500
v 16.500 -6.000 -2.500
v 16.500 -7.000 -2.500
v 16.500 -6.000 -1.500
v 16.500 -7.000 -1.500
v 16.500 -6.000 -0.500
v 16.500 -7.000 -0.500
v 16.500 -6.000 0.500
v 16.500 -7.000 0.500
v 16.500 -6.000 1.500
v 16.500 -7.000 1.500
v 16.500 -6.000 2.500
v 16.500 -7.000 2.500
v 16.500 -6.000 3.500
v 16.500 -7.000 3.500
v 16.500 -6.000 -4.500
v 16.500 -5.000 -4.500
v 16.500 -5.000 -3.500
v 16.500 -5.000 -2.500
v 16.500 -5.000 -1.500
v 16.500 -5.000 -0.500
v 16.500 -5.000 0.500
v 16.500 -5.000 1.500
v 16.500 -5.000 2.500
v 16.500 -5.000 3.500
v 16.500 -5.000 4.500
v 16.500 -6.000 4.500
v 16.500 -5.000 -5.500
v 16.500 -4.000 -5.500
v 16.500 -4.000 -4.500
v 16.500 -4.000 -3.500
v 16.500 -4.000 -2.500
v 16.500 -4.000 -1.500
v 16.500 -4.000 -0.500
v 16.500 -4.000 0.500
v 16.500 -4.000 1.500
v 16.500 -4.000 2.500
v 16.500 -4.000 3.500
v 16.500 -4.000 4.500
v 16.500 -4.000 5.500
v 16.500 -5.000 5.500
v 16.500 -4.000 -6.500
v 16.500 -3.000 -6.500
v 16.500 -3.000 -5.500
v 16.500 -3.000 -4.500
v 16.500 -3.000 -3.500
v 16.500 -3.000 -2.500
v 16.500 -3.000 -1.500
v 16.500 -3.000 -0.500
v 16.500 -3.000 0.500
v 16.500 -3.000 1.500
v 16.500 -3.000 2.500
v 16.500 -3.000 3.500
v 16.500 -3.000 4.500
v 16.500 -3.000 5.500
v 16.500 -3.000 6.500
v 16.500 -4.000 6.500
v 16.500 -3.000 -7.500
v 16.500 -2.000 -7.500
v 16.500 -2.000 -6.500
v 16.500 -2.000 -5.500
v 16.500 -2.000 -4.500
v 16.500 -2.000 -3.500
v 16.500 -2.000 -2.500
v 16.500 -2.000 -1.500
v 16.500 -2.000 -0.500
v 16.500 -2.000 0.500
v 16.500 -2.000 1.500
v 16.500 -2.000 2.500
v 16.500 -2.000 3.500
v 16.500 -2.000 4.500
v 16.500 -2.000 5.500
v 16.500 -2.000 6.500
v 16.500 -2.000 7.500
v 16.500 -3.000 7.500
v 16.500 -1.000 -7.500
v 16.500 -1.000 -6.500
v 16.500 -1.000 -5.500
v 16.500 -1.000 -4.500
v 16.500 -1.000 -3.500
v 16.500 -1.000 -2.500
v 16.500 -1.000 -1.500
v 16.500 -1.000 -0.500
v 16.500 -1.000 0.500
v 16.500 -1.000 1.500
v 16.500 -1.000 2.500
v 16.500 -1.000 3.500
v 16.500 -1.000 4.500
v 16.500 -1.000 5.500
v 16.500 -1.000 6.500
v 16.500 -1.000 7.500
v 16.500 0.000 -7.500
v 16.500 0.000 -6.500
v 16.500 0.000 -5.500
v 16.500 0.000 -4.500
v 16.500 0.000 -3.500
v 16.500 0.000 -2.500
v 16.500 0.000 -1.500
v 16.500 0.000 -0.500
v 16.500 0.000 0.500
v 16.500 0.000 1.500
v 16.500 0.000 2.500
v 16.500 0.000 3.500
v 16.500 0.000 4.500
v 16.500 0.000 5.500
v 16.500 0.000 6.500
v 16.500 0.000 7.500
v 16.500 1.000 -7.500
v 16.500 1.000 -6.500
v 16.500 1.000 -5.500
v 16.500 1.000 -4.500
v 16.500 1.000 -3.500
v 16.500 1.000 -2.500
v 16.500 1.000 -1.500
v 16.500 1.000 -0.500
v 16.500 1.000 0.500
v 16.500 1.000 1.500
v 16.500 1.000 2.500
v 16.500 1.000 3.500
v 16.500 1.000 4.500
v 16.500 1.000 5.500
v 16.500 1.000 6.500
v 16.500 1.000 7.500
v 16.500 2.000 -7.500
v 16.500 2.000 -6.500
v 16.500 2.000 -5.500
v 16.500 2.000 -4.500
v 16.500 2.000 -3.500
v 16.500 2.000 -2.500
v 16.500 2.000 -1.500
v 16.500 2.000 -0.500
v 16.500 2.000 0.500
v 16.500 2.000 1.500
v 16.500 2.000 2.500
v 16.500 2.000 3.500
v 16.500 2.000 4.500
v 16.500 2.000 5.500
v 16.500 2.000 6.500
v 16.500 2.000 7.500
v 16.500 3.000 -7.500
v 16.500 3.000 -6.500
v 16.500 3.000 -5.500
v 16.500 3.000 -4.500
v 16.500 3.000 -3.500
v 16.500 3.000 -2.500
v 16.500 3.000 -1.500
v 16.500 3.000 -0.500
v 16.500 3.000 0.500
v 16.500 3.000 1.500
v 16.500 3.000 2.500
v 16.500 3.000 3.500
v 16.500 3.000 4.500
v 16.500 3.000 5.500
v 16.500 3.000 6.500
v 16.500 3.000 7.500
v 16.500 4.000 -6.500
v 16.500 4.000 -5.500
v 16.500 4.000 -4.500
v 16.500 4.000 -3.500
v 16.500 4.000 -2.500
v 16.500 4.000 -1.500
v 16.500 4.000 -0.500
v 16.500 4.000 0.500
v 16.500 4.000 1.500
v 16.500 4.000 2.500
v 16.500 4.000 3.500
v 16.500 4.000 4.500
v 16.500 4.000 5.500
v 16.500 4.000 6.500
v 16.500 5.000 -5.500
v 16.500 5.000 -4.500
v 16.500 5.000 -3.500
v 16.500 5.000 -2.500
v 16.500 5.000 -1.500
v 16.500 5.000 -0.500
v 16.500 5.000 0.500
v 16.500 5.000 1.500
v 16.500 5.000 2.500
v 16.500 5.000 3.500
v 16.500 5.000 4.500
v 16.500 5.000 5.500
v 16.500 6.000 -4.500
v 16.500 6.000 -3.500
v 16.500 6.000 -2.500
v 16.500 6.000 -1.500
v 16.500 6.000 -0.500
v 16.500 6.000 0.500
v 16.500 6.000 1.500
v 16.500 6.000 2.500
v 16.500 6.000 3.500
v 16.500 6.000 4.500
v 16.500 7.000 -3.500
v 16.500 7.000 -2.500
v 16.500 7.000 -1.500
v 16.500 7.000 -0.500
v 16.500 7.000 0.500
v 16.500 7.000 1.500
v 16.500 7.000 2.500
v 16.500 7.000 3.500
f 1 2 3 4
f 1 4 5 6
f 5 4 3 7
f 8 9 2 1
f 8 1 6 10
f 11 12 9 8
f 11 8 10 13
f 14 15 12 11
f 14 11 13 16
f 17 18 15 14
f 17 14 16 19
f 17 19 20 18
f 3 21 22 23
f 3 23 24 7
f 24 23 22 25
f 2 26 21 3
f 9 27 26 2
f 12 28 27 9
f 15 29 28 12
f 18 30 29 15
f 31 32 30 18
f 31 18 20 33
f 31 33 34 32
f 22 35 36 37
f 22 37 38 25
f 38 37 36 39
f 21 40 35 22
f 26 41 40 21
f 27 42 41 26
f 28 43 42 27
f 29 44 43 28
f 30 45 44 29
f 32 46 45 30
f 47 48 46 32
f 47 32 34 49
f 47 49 50 48
f 35 51 52 36
f 39 36 52 53
f 40 54 51 35
f 41 55 54 40
f 42 56 55 41
f 43 57 56 42
f 44 58 57 43
f 45 59 58 44
f 46 60 59 45
f 48 61 60 46
f 48 50 62 61
f 51 63 64 52
f 53 52 64 65
f 54 66 63 51
f 55 67 66 54
f 56 68 67 55
f 57 69 68 56
f 58 70 69 57
f 59 71 70 58
f 60 72 71 59
f 61 73 72 60
f 61 62 74 73
f 63 75 76 64
f 76 75 77 78
f 65 64 76 78
f 66 79 75 63
f 67 80 79 66
f 68 81 80 67
f 69 82 81 68
f 70 83 82 69
f 71 84 83 70
f 72 85 84 71
f 73 86 85 72
f 85 86 87 88
f 73 74 87 86
f 79 89 90 75
f 90 89 91 92
f 77 75 90 92
f 80 93 89 79
f 81 94 93 80
f 82 95 94 81
f 83 96 95 82
f 84 97 96 83
f 85 98 97 84
f 97 98 99 100
f 85 88 99 98
f 93 101 102 89
f 102 101 103 104
f 91 89 102 104
f 94 105 101 93
f 101 105 106 103
f 95 107 105 94
f 105 107 108 106
f 96 109 107 95
f 107 109 110 108
f 97 111 109 96
f 109 111 112 110
f 97 100 112 111
f 6 5 113 114
f 113 5 7 115
f 10 6 114 116
f 13 10 116 117
f 16 13 117 118
f 19 16 118 119
f 19 119 120 20
f 7 24 121 115
f 121 24 25 122
f 33 20 120 123
f 33 123 124 34
f 25 38 125 122
f 125 38 39 126
f 49 34 124 127
f 49 127 128 50
f 126 39 53 129
f 50 128 130 62
f 129 53 65 131
f 62 130 132 74
f 78 77 133 134
f 131 65 78 134
f 88 87 135 136
f 74 132 135 87
f 92 91 137 138
f 133 77 92 138
f 100 99 139 140
f 88 136 139 99
f 104 103 141 142
f 137 91 104 142
f 103 106 143 141
f 106 108 144 143
f 108 110 145 144
f 110 112 146 145
f 100 140 146 112
f 114 113 147 148
f 147 113 115 149
f 116 114 148 150
f 117 116 150 151
f 118 117 151 152
f 119 118 152 153
f 119 153 154 120
f 115 121 155 149
f 155 121 122 156
f 123 120 154 157
f 123 157 158 124
f 122 125 159 156
f 159 125 126 160
f 127 124 158 161
f 127 161 162 128
f 160 126 129 163
f 128 162 164 130
f 163 129 131 165
f 130 164 166 132
f 134 133 167 168
f 165 131 134 168
f 136 135 169 170
f 132 166 169 135
f 138 137 171 172
f 167 133 138 172
f 140 139 173 174
f 136 170 173 139
f 142 141 175 176
f 171 137 142 176
f 141 143 177 175
f 143 144 178 177
f 144 145 179 178
f 145 146 180 179
f 140 174 180 146
f 148 147 181 182
f 181 147 149 183
f 150 148 182 184
f 151 150 184 185
f 152 151 185 186
f 153 152 186 187
f 153 187 188 154
f 149 155 189 183
f 189 155 156 190
f 157 154 188 191
f 157 191 192 158
f 156 159 193 190
f 193 159 160 194
f 161 158 192 195
f 161 195 196 162
f 194 160 163 197
f 162 196 198 164
f 197 163 165 199
f 164 198 200 166
f 168 167 201 202
f 199 165 168 202
f 170 169 203 204
f 166 200 203 169
f 172 171 205 206
f 201 167 172 206
f 174 173 207 208
f 170 204 207 173
f 176 175 209 210
f 205 171 176 210
f 175 177 211 209
f 177 178 212 211
f 178 179 213 212
f 179 180 214 213
f 174 208 214 180
f 182 181 215 216
f 215 181 183 217
f 184 182 216 218
f 185 184 218 219
f 186 185 219 220
f 187 186 220 221
f 187 221 222 188
f 183 189 223 217
f 223 189 190 224
f 191 188 222 225
f 191 225 226 192
f 190 193 227 224
f 227 193 194 228
f 195 192 226 229
f 195 229 230 196
f 228 194 197 231
f 196 230 232 198
f 231 197 199 233
f 198 232 234 200
f 202 201 235 236
f 233 199 202 236
f 204 203 237 238
f 200 234 237 203
f 206 205 239 240
f 235 201 206 240
f 208 207 241 242
f 204 238 241 207
f 210 209 243 244
f 239 205 210 244
f 209 211 245 243
f 211 212 246 245
f 212 213 247 246
f 213 214 248 247
f 208 242 248 214
f 216 215 249 250
f 249 215 217 251
f 218 216 250 252
f 219 218 252 253
f 220 219 253 254
f 221 220 254 255
f 221 255 256 222
f 217 223 257 251
f 257 223 224 258
f 225 222 256 259
f 225 259 260 226
f 224 227 261 258
f 261 227 228 262
f 229 226 260 263
f 229 263 264 230
f 262 228 231 265
f 230 264 266 232
f 265 231 233 267
f 232 266 268 234
f 236 235 269 270
f 267 233 236 270
f 238 237 271 272
f 234 268 271 237
f 240 239 273 274
f 269 235 240 274
f 242 241 275 276
f 238 272 275 241
f 244 243 277 278
f 273 239 244 278
f 243 245 279 277
f 245 246 280 279
f 246 247 281 280
f 247 248 282 281
f 242 276 282 248
f 283 284 285 286
f 250 249 283 286
f 283 249 251 284
f 286 285 287 288
f 252 250 286 288
f 288 287 289 290
f 253 252 288 290
f 290 289 291 292
f 254 253 290 292
f 292 291 293 294
f 255 254 292 294
f 255 294 293 256
f 295 296 297 284
f 251 257 295 284
f 295 257 258 296
f 284 297 298 285
f 285 298 299 287
f 287 299 300 289
f 289 300 301 291
f 291 301 302 293
f 293 302 303 304
f 259 256 293 304
f 259 304 303 260
f 305 306 307 296
f 258 261 305 296
f 305 261 262 306
f 296 307 308 297
f 297 308 309 298
f 301 310 311 302
f 302 311 312 303
f 303 312 313 314
f 263 260 303 314
f 263 314 313 264
f 306 315 316 307
f 306 262 265 315
f 307 316 317 308
f 311 318 319 312
f 312 319 320 313
f 264 313 320 266
f 315 321 322 316
f 315 265 267 321
f 316 322 323 317
f 318 324 325 319
f 319 325 326 320
f 266 320 326 268
f 321 327 328 322
f 270 269 328 327
f 321 267 270 327
f 322 328 329 323
f 323 329 330 331
f 332 333 334 324
f 324 334 335 325
f 325 335 336 326
f 272 271 336 335
f 268 326 336 271
f 328 337 338 329
f 274 273 338 337
f 328 269 274 337
f 329 338 339 330
f 330 339 340 341
f 341 340 342 343
f 343 342 344 333
f 333 344 345 334
f 334 345 346 335
f 276 275 346 345
f 272 335 346 275
f 338 347 348 339
f 278 277 348 347
f 338 273 278 347
f 339 348 349 340
f 277 279 349 348
f 340 349 350 342
f 279 280 350 349
f 342 350 351 344
f 280 281 351 350
f 344 351 352 345
f 281 282 352 351
f 276 345 352 282
f 299 298 353 354
f 353 298 309 355
f 300 299 354 356
f 301 300 356 357
f 301 357 358 310
f 309 308 359 355
f 359 308 317 360
f 311 310 358 361
f 311 361 362 318
f 323 331 363 364
f 360 317 323 364
f 332 324 365 366
f 318 362 365 324
f 330 341 367 368
f 363 331 330 368
f 341 343 369 367
f 343 333 370 369
f 332 366 370 333
f 354 353 371 372
f 371 353 355 373
f 356 354 372 374
f 357 356 374 375
f 357 375 376 358
f 355 359 377 373
f 377 359 360 378
f 361 358 376 379
f 361 379 380 362
f 364 363 381 382
f 378 360 364 382
f 366 365 383 384
f 362 380 383 365
f 368 367 385 386
f 381 363 368 386
f 367 369 387 385
f 369 370 388 387
f 366 384 388 370
f 372 371 389 390
f 389 371 373 391
f 374 372 390 392
f 375 374 392 393
f 375 393 394 376
f 373 377 395 391
f 395 377 378 396
f 379 376 394 397
f 379 397 398 380
f 382 381 399 400
f 396 378 382 400
f 384 383 401 402
f 380 398 401 383
f 386 385 403 404
f 399 381 386 404
f 385 387 405 403
f 387 388 406 405
f 384 402 406 388
f 390 389 407 408
f 407 389 391 409
f 392 390 408 410
f 393 392 410 411
f 393 411 412 394
f 391 395 413 409
f 413 395 396 414
f 397 394 412 415
f 397 415 416 398
f 400 399 417 418
f 414 396 400 418
f 402 401 419 420
f 398 416 419 401
f 404 403 421 422
f 417 399 404 422
f 403 405 423 421
f 405 406 424 423
f 402 420 424 406
f 408 407 425 426
f 425 407 409 427
f 410 408 426 428
f 411 410 428 429
f 411 429 430 412
f 409 413 431 427
f 431 413 414 432
f 415 412 430 433
f 415 433 434 416
f 418 417 435 436
f 432 414 418 436
f 420 419 437 438
f 416 434 437 419
f 422 421 439 440
f 435 417 422 440
f 421 423 441 439
f 423 424 442 441
f 420 438 442 424
f 426 425 443 444
f 443 425 427 445
f 428 426 444 446
f 429 428 446 447
f 429 447 448 430
f 427 431 449 445
f 449 431 432 450
f 433 430 448 451
f 433 451 452 434
f 436 435 453 454
f 450 432 436 454
f 438 437 455 456
f 434 452 455 437
f 440 439 457 458
f 453 435 440 458
f 439 441 459 457
f 441 442 460 459
f 438 456 460 442
f 461 443 462 463
f 461 463 464 465
f 464 463 462 466
f 467 444 443 461
f 467 461 465 468
f 469 446 444 467
f 469 467 468 470
f 471 447 446 469
f 471 469 470 472
f 473 474 447 471
f 473 471 472 475
f 473 475 476 474
f 462 449 477 478
f 462 478 479 466
f 479 478 477 480
f 443 445 449 462
f 474 451 448 447
f 481 482 451 474
f 481 474 476 483
f 481 483 484 482
f 449 450 485 477
f 480 477 485 486
f 482 487 452 451
f 482 484 488 487
f 450 454 489 485
f 486 485 489 490
f 487 491 455 452
f 487 488 492 491
f 454 493 494 489
f 494 493 495 496
f 490 489 494 496
f 453 458 493 454
f 455 497 460 456
f 491 498 497 455
f 497 498 499 500
f 491 492 499 498
f 458 501 502 493
f 502 501 503 504
f 495 493 502 504
f 457 505 501 458
f 501 505 506 503
f 459 507 505 457
f 505 507 508 506
f 460 509 507 459
f 507 509 510 508
f 497 511 509 460
f 509 511 512 510
f 497 500 512 511
f 465 464 513 514
f 513 464 466 515
f 468 465 514 516
f 470 468 516 517
f 472 470 517 518
f 475 472 518 519
f 475 519 520 476
f 466 479 521 515
f 521 479 480 522
f 483 476 520 523
f 483 523 524 484
f 522 480 486 525
f 484 524 526 488
f 525 486 490 527
f 488 526 528 492
f 496 495 529 530
f 527 490 496 530
f 500 499 531 532
f 492 528 531 499
f 504 503 533 534
f 529 495 504 534
f 503 506 535 533
f 506 508 536 535
f 508 510 537 536
f 510 512 538 537
f 500 532 538 512
f 514 513 539 540
f 539 513 515 541
f 516 514 540 542
f 517 516 542 543
f 518 517 543 544
f 519 518 544 545
f 519 545 546 520
f 515 521 547 541
f 547 521 522 548
f 523 520 546 549
f 523 549 550 524
f 548 522 525 551
f 524 550 552 526
f 551 525 527 553
f 526 552 554 528
f 530 529 555 556
f 553 527 530 556
f 532 531 557 558
f 528 554 557 531
f 534 533 559 560
f 555 529 534 560
f 533 535 561 559
f 535 536 562 561
f 536 537 563 562
f 537 538 564 563
f 532 558 564 538
f 565 566 567 568
f 540 539 565 568
f 565 539 541 566
f 568 567 569 570
f 542 540 568 570
f 570 569 571 572
f 543 542 570 572
f 572 571 573 574
f 544 543 572 574
f 574 573 575 576
f 545 544 574 576
f 545 576 575 546
f 577 578 579 566
f 541 547 577 566
f 577 547 548 578
f 566 579 580 567
f 567 580 581 569
f 569 581 582 571
f 571 582 583 573
f 573 583 584 575
f 575 584 585 586
f 549 546 575 586
f 549 586 585 550
f 578 587 588 579
f 578 548 551 587
f 579 588 589 580
f 583 590 591 584
f 584 591 592 585
f 550 585 592 552
f 587 593 594 588
f 587 551 553 593
f 588 594 595 589
f 590 596 597 591
f 591 597 598 592
f 552 592 598 554
f 593 599 600 594
f 556 555 600 599
f 593 553 556 599
f 594 600 601 595
f 595 601 602 603
f 603 602 604 605
f 605 604 606 596
f 596 606 607 597
f 597 607 608 598
f 558 557 608 607
f 554 598 608 557
f 600 609 610 601
f 560 559 610 609
f 600 555 560 609
f 601 610 611 602
f 559 561 611 610
f 602 611 612 604
f 561 562 612 611
f 604 612 613 606
f 562 563 613 612
f 606 613 614 607
f 563 564 614 613
f 558 607 614 564
f 581 580 615 616
f 615 580 589 617
f 582 581 616 618
f 583 582 618 619
f 583 619 620 590
f 595 603 621 622
f 617 589 595 622
f 603 605 623 621
f 605 596 624 623
f 590 620 624 596
f 625 616 615 626
f 625 626 627 628
f 627 626 615 629
f 630 618 616 625
f 630 625 628 631
f 632 619 618 630
f 632 630 631 633
f 632 633 634 619
f 615 617 635 636
f 615 636 637 629
f 637 636 635 638
f 639 640 620 619
f 639 619 634 641
f 639 641 642 640
f 617 622 643 635
f 643 622 644 645
f 638 635 643 645
f 640 646 624 620
f 624 646 647 648
f 640 642 647 646
f 621 649 650 622
f 650 649 651 652
f 644 622 650 652
f 623 653 649 621
f 649 653 654 651
f 624 655 653 623
f 653 655 656 654
f 624 648 656 655
f 657 627 658 659
f 657 659 660 661
f 660 659 658 662
f 663 628 627 657
f 663 657 661 664
f 665 631 628 663
f 665 663 664 666
f 667 633 631 665
f 667 665 666 668
f 669 670 633 667
f 669 667 668 671
f 669 671 672 670
f 658 637 673 674
f 658 674 675 662
f 675 674 673 676
f 627 629 637 658
f 670 641 634 633
f 677 678 641 670
f 677 670 672 679
f 677 679 680 678
f 637 638 681 673
f 676 673 681 682
f 678 683 642 641
f 678 680 684 683
f 638 645 685 681
f 682 681 685 686
f 683 687 647 642
f 683 684 688 687
f 645 689 690 685
f 690 689 691 692
f 686 685 690 692
f 644 652 689 645
f 647 693 656 648
f 687 694 693 647
f 693 694 695 696
f 687 688 695 694
f 652 697 698 689
f 698 697 699 700
f 691 689 698 700
f 651 701 697 652
f 697 701 702 699
f 654 703 701 651
f 701 703 704 702
f 656 705 703 654
f 703 705 706 704
f 693 707 705 656
f 705 707 708 706
f 693 696 708 707
f 661 660 709 710
f 709 660 662 711
f 664 661 710 712
f 666 664 712 713
f 668 666 713 714
f 671 668 714 715
f 671 715 716 672
f 662 675 717 711
f 717 675 676 718
f 679 672 716 719
f 679 719 720 680
f 718 676 682 721
f 680 720 722 684
f 721 682 686 723
f 684 722 724 688
f 692 691 725 726
f 723 686 692 726
f 696 695 727 728
f 688 724 727 695
f 700 699 729 730
f 725 691 700 730
f 699 702 731 729
f 702 704 732 731
f 704 706 733 732
f 706 708 734 733
f 696 728 734 708
f 735 710 709 736
f 735 736 737 738
f 737 736 709 739
f 740 712 710 735
f 740 735 738 741
f 742 713 712 740
f 742 740 741 743
f 744 714 713 742
f 744 742 743 745
f 746 715 714 744
f 746 744 745 747
f 746 747 748 715
f 709 711 717 749
f 709 749 750 739
f 750 749 717 751
f 752 719 716 715
f 752 715 748 753
f 752 753 754 719
f 717 718 755 756
f 717 756 757 751
f 757 756 755 758
f 759 760 720 719
f 759 719 754 761
f 759 761 762 760
f 718 721 763 755
f 758 755 763 764
f 760 765 722 720
f 760 762 766 765
f 721 723 767 763
f 764 763 767 768
f 765 769 724 722
f 765 766 770 769
f 723 726 771 767
f 771 726 772 773
f 768 767 771 773
f 769 774 727 724
f 727 774 775 776
f 769 770 775 774
f 725 730 777 726
f 777 730 778 779
f 772 726 777 779
f 727 780 734 728
f 734 780 781 782
f 727 776 781 780
f 729 783 784 730
f 784 783 785 786
f 778 730 784 786
f 731 787 783 729
f 783 787 788 785
f 732 789 787 731
f 787 789 790 788
f 733 791 789 732
f 789 791 792 790
f 734 793 791 733
f 791 793 794 792
f 734 782 794 793
f 795 738 737 796
f 795 796 797 798
f 797 796 737 799
f 800 741 738 795
f 800 795 798 801
f 802 743 741 800
f 802 800 801 803
f 804 745 743 802
f 804 802 803 805
f 806 747 745 804
f 806 804 805 807
f 806 807 808 747
f 809 750 810 811
f 809 811 812 813
f 812 811 810 814
f 737 739 750 809
f 737 809 813 799
f 815 753 748 747
f 815 747 808 816
f 817 818 753 815
f 817 815 816 819
f 817 819 820 818
f 750 751 757 810
f 814 810 757 821
f 818 761 754 753
f 818 820 822 761
f 757 758 823 824
f 757 824 825 821
f 825 824 823 826
f 827 828 762 761
f 827 761 822 829
f 827 829 830 828
f 758 764 831 823
f 826 823 831 832
f 828 833 766 762
f 828 830 834 833
f 764 768 835 831
f 832 831 835 836
f 833 837 770 766
f 833 834 838 837
f 768 773 839 835
f 839 773 840 841
f 836 835 839 841
f 837 842 775 770
f 775 842 843 844
f 837 838 843 842
f 772 779 845 773
f 840 773 845 846
f 775 847 781 776
f 775 844 848 847
f 779 849 850 845
f 850 849 851 852
f 846 845 850 852
f 778 786 849 779
f 849 786 853 851
f 781 854 794 782
f 794 854 855 856
f 847 857 854 781
f 854 857 858 855
f 847 848 858 857
f 785 859 860 786
f 860 859 861 862
f 853 786 860 862
f 788 863 859 785
f 859 863 864 861
f 790 865 863 788
f 863 865 866 864
f 792 867 865 790
f 865 867 868 866
f 794 869 867 792
f 867 869 870 868
f 794 856 870 869
f 871 798 797 872
f 871 872 873 874
f 873 872 797 875
f 876 801 798 871
f 876 871 874 877
f 878 803 801 876
f 878 876 877 879
f 880 805 803 878
f 880 878 879 881
f 882 807 805 880
f 882 880 881 883
f 882 883 884 807
f 885 813 812 886
f 885 886 887 888
f 887 886 812 889
f 797 799 813 885
f 797 885 888 875
f 890 816 808 807
f 890 807 884 891
f 892 819 816 890
f 892 890 891 893
f 892 893 894 819
f 812 814 895 896
f 812 896 897 889
f 897 896 895 898
f 899 900 820 819
f 899 819 894 901
f 899 901 902 900
f 814 821 825 895
f 898 895 825 903
f 900 829 822 820
f 900 902 904 829
f 825 826 905 906
f 825 906 907 903
f 907 906 905 908
f 909 910 830 829
f 909 829 904 911
f 909 911 912 910
f 826 832 913 905
f 908 905 913 914
f 910 915 834 830
f 910 912 916 915
f 832 836 917 913
f 914 913 917 918
f 915 919 838 834
f 915 916 920 919
f 836 841 921 917
f 921 841 922 923
f 918 917 921 923
f 919 924 843 838
f 843 924 925 926
f 919 920 925 924
f 840 846 927 841
f 922 841 927 928
f 843 929 848 844
f 843 926 930 929
f 846 852 931 927
f 931 852 932 933
f 928 927 931 933
f 929 934 858 848
f 858 934 935 936
f 929 930 935 934
f 851 937 938 852
f 938 937 939 940
f 932 852 938 940
f 853 862 937 851
f 937 862 941 939
f 855 942 870 856
f 870 942 943 944
f 858 945 942 855
f 942 945 946 943
f 858 936 946 945
f 861 947 948 862
f 948 947 949 950
f 941 862 948 950
f 864 951 947 861
f 947 951 952 949
f 866 953 951 864
f 951 953 954 952
f 868 955 953 866
f 953 955 956 954
f 870 957 955 868
f 955 957 958 956
f 870 944 958 957
f 959 873 960 961
f 959 961 962 963
f 962 961 960 964
f 965 874 873 959
f 965 959 963 966
f 967 877 874 965
f 967 965 966 968
f 969 879 877 967
f 969 967 968 970
f 971 881 879 969
f 971 969 970 972
f 973 883 881 971
f 973 971 972 974
f 975 976 883 973
f 975 973 974 977
f 975 977 978 976
f 960 888 887 979
f 960 979 980 964
f 980 979 887 981
f 873 875 888 960
f 976 891 884 883
f 982 893 891 976
f 982 976 978 983
f 982 983 984 893
f 887 889 897 985
f 887 985 986 981
f 986 985 897 987
f 988 901 894 893
f 988 893 984 989
f 988 989 990 901
f 897 898 991 992
f 897 992 993 987
f 993 992 991 994
f 995 996 902 901
f 995 901 990 997
f 995 997 998 996
f 991 907 999 1000
f 991 1000 1001 994
f 1001 1000 999 1002
f 898 903 907 991
f 996 911 904 902
f 1003 1004 911 996
f 1003 996 998 1005
f 1003 1005 1006 1004
f 907 908 1007 999
f 1002 999 1007 1008
f 1004 1009 912 911
f 1004 1006 1010 1009
f 908 914 1011 1007
f 1008 1007 1011 1012
f 1009 1013 916 912
f 1009 1010 1014 1013
f 914 918 1015 1011
f 1012 1011 1015 1016
f 1013 1017 920 916
f 1013 1014 1018 1017
f 918 923 1019 1015
f 1016 1015 1019 1020
f 1017 1021 925 920
f 1017 1018 1022 1021
f 923 1023 1024 1019
f 1024 1023 1025 1026
f 1020 1019 1024 1026
f 922 928 1023 923
f 925 1027 930 926
f 1021 1028 1027 925
f 1027 1028 1029 1030
f 1021 1022 1029 1028
f 928 933 1031 1023
f 1031 933 1032 1033
f 1025 1023 1031 1033
f 1027 1034 935 930
f 935 1034 1035 1036
f 1027 1030 1035 1034
f 932 940 1037 933
f 1037 940 1038 1039
f 1032 933 1037 1039
f 935 1040 946 936
f 946 1040 1041 1042
f 935 1036 1041 1040
f 939 1043 1044 940
f 1044 1043 1045 1046
f 1038 940 1044 1046
f 941 950 1043 939
f 943 1047 958 944
f 946 1048 1047 943
f 1047 1048 1049 1050
f 946 1042 1049 1048
f 950 1051 1052 1043
f 1052 1051 1053 1054
f 1045 1043 1052 1054
f 949 1055 1051 950
f 1051 1055 1056 1053
f 952 1057 1055 949
f 1055 1057 1058 1056
f 954 1059 1057 952
f 1057 1059 1060 1058
f 956 1061 1059 954
f 1059 1061 1062 1060
f 958 1063 1061 956
f 1061 1063 1064 1062
f 1047 1065 1063 958
f 1063 1065 1066 1064
f 1047 1050 1066 1065
f 963 962 1067 1068
f 1067 962 964 1069
f 966 963 1068 1070
f 968 966 1070 1071
f 970 968 1071 1072
f 972 970 1072 1073
f 974 972 1073 1074
f 977 974 1074 1075
f 977 1075 1076 978
f 964 980 1077 1069
f 1077 980 981 1078
f 983 978 1076 1079
f 983 1079 1080 984
f 981 986 1081 1078
f 1081 986 987 1082
f 989 984 1080 1083
f 989 1083 1084 990
f 987 993 1085 1082
f 1085 993 994 1086
f 997 990 1084 1087
f 997 1087 1088 998
f 994 1001 1089 1086
f 1089 1001 1002 1090
f 1005 998 1088 1091
f 1005 1091 1092 1006
f 1090 1002 1008 1093
f 1006 1092 1094 1010
f 1093 1008 1012 1095
f 1010 1094 1096 1014
f 1095 1012 1016 1097
f 1014 1096 1098 1018
f 1097 1016 1020 1099
f 1018 1098 1100 1022
f 1026 1025 1101 1102
f 1099 1020 1026 1102
f 1030 1029 1103 1104
f 1022 1100 1103 1029
f 1033 1032 1105 1106
f 1101 1025 1033 1106
f 1036 1035 1107 1108
f 1030 1104 1107 1035
f 1039 1038 1109 1110
f 1105 1032 1039 1110
f 1042 1041 1111 1112
f 1036 1108 1111 1041
f 1046 1045 1113 1114
f 1109 1038 1046 1114
f 1050 1049 1115 1116
f 1042 1112 1115 1049
f 1054 1053 1117 1118
f 1113 1045 1054 1118
f 1053 1056 1119 1117
f 1056 1058 1120 1119
f 1058 1060 1121 1120
f 1060 1062 1122 1121
f 1062 1064 1123 1122
f 1064 1066 1124 1123
f 1050 1116 1124 1066
f 1125 1068 1067 1126
f 1125 1126 1127 1128
f 1127 1126 1067 1129
f 1130 1070 1068 1125
f 1130 1125 1128 1131
f 1132 1071 1070 1130
f 1132 1130 1131 1133
f 1134 1072 1071 1132
f 1134 1132 1133 1135
f 1136 1073 1072 1134
f 1136 1134 1135 1137
f 1138 1074 1073 1136
f 1138 1136 1137 1139
f 1140 1075 1074 1138
f 1140 1138 1139 1141
f 1140 1141 1142 1075
f 1143 1077 1144 1145
f 1143 1145 1146 1147
f 1146 1145 1144 1148
f 1067 1069 1077 1143
f 1067 1143 1147 1129
f 1149 1079 1076 1075
f 1149 1075 1142 1150
f 1151 1152 1079 1149
f 1151 1149 1150 1153
f 1151 1153 1154 1152
f 1144 1081 1155 1156
f 1144 1156 1157 1148
f 1157 1156 1155 1158
f 1077 1078 1081 1144
f 1152 1083 1080 1079
f 1159 1160 1083 1152
f 1159 1152 1154 1161
f 1159 1161 1162 1160
f 1155 1085 1163 1164
f 1155 1164 1165 1158
f 1165 1164 1163 1166
f 1081 1082 1085 1155
f 1160 1087 1084 1083
f 1167 1168 1087 1160
f 1167 1160 1162 1169
f 1167 1169 1170 1168
f 1085 1086 1089 1163
f 1166 1163 1089 1171
f 1168 1091 1088 1087
f 1168 1170 1172 1091
f 1089 1090 1173 1174
f 1089 1174 1175 1171
f 1175 1174 1173 1176
f 1177 1178 1092 1091
f 1177 1091 1172 1179
f 1177 1179 1180 1178
f 1090 1093 1181 1173
f 1176 1173 1181 1182
f 1178 1183 1094 1092
f 1178 1180 1184 1183
f 1093 1095 1185 1181
f 1182 1181 1185 1186
f 1183 1187 1096 1094
f 1183 1184 1188 1187
f 1095 1097 1189 1185
f 1186 1185 1189 1190
f 1187 1191 1098 1096
f 1187 1188 1192 1191
f 1097 1099 1193 1189
f 1190 1189 1193 1194
f 1191 1195 1100 1098
f 1191 1192 1196 1195
f 1099 1102 1197 1193
f 1197 1102 1198 1199
f 1194 1193 1197 1199
f 1195 1200 1103 1100
f 1103 1200 1201 1202
f 1195 1196 1201 1200
f 1101 1106 1203 1102
f 1198 1102 1203 1204
f 1103 1205 1107 1104
f 1103 1202 1206 1205
f 1106 1207 1208 1203
f 1208 1207 1209 1210
f 1204 1203 1208 1210
f 1105 1110 1207 1106
f 1107 1211 1111 1108
f 1205 1212 1211 1107
f 1211 1212 1213 1214
f 1205 1206 1213 1212
f 1110 1215 1216 1207
f 1216 1215 1217 1218
f 1209 1207 1216 1218
f 1109 1114 1215 1110
f 1111 1219 1115 1112
f 1211 1220 1219 1111
f 1219 1220 1221 1222
f 1211 1214 1221 1220
f 1114 1223 1224 1215
f 1224 1223 1225 1226
f 1217 1215 1224 1226
f 1113 1118 1223 1114
f 1223 1118 1227 1225
f 1115 1228 1124 1116
f 1124 1228 1229 1230
f 1219 1231 1228 1115
f 1228 1231 1232 1229
f 1219 1222 1232 1231
f 1117 1233 1234 1118
f 1234 1233 1235 1236
f 1227 1118 1234 1236
f 1119 1237 1233 1117
f 1233 1237 1238 1235
f 1120 1239 1237 1119
f 1237 1239 1240 1238
f 1121 1241 1239 1120
f 1239 1241 1242 1240
f 1122 1243 1241 1121
f 1241 1243 1244 1242
f 1123 1245 1243 1122
f 1243 1245 1246 1244
f 1124 1247 1245 1123
f 1245 1247 1248 1246
f 1124 1230 1248 1247
f 1128 1127 1249 1250
f 1249 1127 1129 1251
f 1131 1128 1250 1252
f 1133 1131 1252 1253
f 1135 1133 1253 1254
f 1137 1135 1254 1255
f 1139 1137 1255 1256
f 1141 1139 1256 1257
f 1141 1257 1258 1142
f 1147 1146 1259 1260
f 1259 1146 1148 1261
f 1129 1147 1260 1251
f 1150 1142 1258 1262
f 1153 1150 1262 1263
f 1153 1263 1264 1154
f 1148 1157 1265 1261
f 1265 1157 1158 1266
f 1161 1154 1264 1267
f 1161 1267 1268 1162
f 1158 1165 1269 1266
f 1269 1165 1166 1270
f 1169 1162 1268 1271
f 1169 1271 1272 1170
f 1270 1166 1171 1273
f 1170 1272 1274 1172
f 1171 1175 1275 1273
f 1275 1175 1176 1276
f 1179 1172 1274 1277
f 1179 1277 1278 1180
f 1276 1176 1182 1279
f 1180 1278 1280 1184
f 1279 1182 1186 1281
f 1184 1280 1282 1188
f 1281 1186 1190 1283
f 1188 1282 1284 1192
f 1283 1190 1194 1285
f 1192 1284 1286 1196
f 1199 1198 1287 1288
f 1285 1194 1199 1288
f 1202 1201 1289 1290
f 1196 1286 1289 1201
f 1287 1198 1204 1291
f 1202 1290 1292 1206
f 1210 1209 1293 1294
f 1291 1204 1210 1294
f 1214 1213 1295 1296
f 1206 1292 1295 1213
f 1218 1217 1297 1298
f 1293 1209 1218 1298
f 1222 1221 1299 1300
f 1214 1296 1299 1221
f 1226 1225 1301 1302
f 1297 1217 1226 1302
f 1225 1227 1303 1301
f 1230 1229 1304 1305
f 1229 1232 1306 1304
f 1222 1300 1306 1232
f 1236 1235 1307 1308
f 1303 1227 1236 1308
f 1235 1238 1309 1307
f 1238 1240 1310 1309
f 1240 1242 1311 1310
f 1242 1244 1312 1311
f 1244 1246 1313 1312
f 1246 1248 1314 1313
f 1230 1305 1314 1248
f 1315 1250 1249 1316
f 1315 1316 1317 1318
f 1317 1316 1249 1319
f 1320 1252 1250 1315
f 1320 1315 1318 1321
f 1322 1253 1252 1320
f 1322 1320 1321 1323
f 1324 1254 1253 1322
f 1324 1322 1323 1325
f 1326 1255 1254 1324
f 1326 1324 1325 1327
f 1328 1256 1255 1326
f 1328 1326 1327 1329
f 1330 1257 1256 1328
f 1330 1328 1329 1331
f 1330 1331 1332 1257
f 1333 1260 1259 1334
f 1333 1334 1335 1336
f 1335 1334 1259 1337
f 1249 1251 1260 1333
f 1249 1333 1336 1319
f 1338 1262 1258 1257
f 1338 1257 1332 1339
f 1340 1263 1262 1338
f 1340 1338 1339 1341
f 1340 1341 1342 1263
f 1259 1261 1265 1343
f 1259 1343 1344 1337
f 1344 1343 1265 1345
f 1346 1267 1264 1263
f 1346 1263 1342 1347
f 1346 1347 1348 1267
f 1265 1266 1269 1349
f 1265 1349 1350 1345
f 1350 1349 1269 1351
f 1352 1271 1268 1267
f 1352 1267 1348 1353
f 1352 1353 1354 1271
f 1269 1270 1355 1356
f 1269 1356 1357 1351
f 1357 1356 1355 1358
f 1359 1360 1272 1271
f 1359 1271 1354 1361
f 1359 1361 1362 1360
f 1270 1273 1275 1355
f 1358 1355 1275 1363
f 1360 1277 1274 1272
f 1360 1362 1364 1277
f 1275 1276 1365 1366
f 1275 1366 1367 1363
f 1367 1366 1365 1368
f 1369 1370 1278 1277
f 1369 1277 1364 1371
f 1369 1371 1372 1370
f 1276 1279 1373 1365
f 1368 1365 1373 1374
f 1370 1375 1280 1278
f 1370 1372 1376 1375
f 1279 1281 1377 1373
f 1374 1373 1377 1378
f 1375 1379 1282 1280
f 1375 1376 1380 1379
f 1281 1283 1381 1377
f 1378 1377 1381 1382
f 1379 1383 1284 1282
f 1379 1380 1384 1383
f 1283 1285 1385 1381
f 1382 1381 1385 1386
f 1383 1387 1286 1284
f 1383 1384 1388 1387
f 1285 1288 1389 1385
f 1389 1288 1390 1391
f 1386 1385 1389 1391
f 1387 1392 1289 1286
f 1289 1392 1393 1394
f 1387 1388 1393 1392
f 1287 1291 1395 1288
f 1390 1288 1395 1396
f 1289 1397 1292 1290
f 1289 1394 1398 1397
f 1291 1294 1399 1395
f 1399 1294 1400 1401
f 1396 1395 1399 1401
f 1397 1402 1295 1292
f 1295 1402 1403 1404
f 1397 1398 1403 1402
f 1293 1298 1405 1294
f 1405 1298 1406 1407
f 1400 1294 1405 1407
f 1295 1408 1299 1296
f 1299 1408 1409 1410
f 1295 1404 1409 1408
f 1297 1302 1411 1298
f 1411 1302 1412 1413
f 1406 1298 1411 1413
f 1299 1414 1306 1300
f 1306 1414 1415 1416
f 1299 1410 1415 1414
f 1301 1417 1418 1302
f 1418 1417 1419 1420
f 1412 1302 1418 1420
f 1303 1308 1417 1301
f 1417 1308 1421 1419
f 1304 1422 1314 1305
f 1314 1422 1423 1424
f 1306 1425 1422 1304
f 1422 1425 1426 1423
f 1306 1416 1426 1425
f 1307 1427 1428 1308
f 1428 1427 1429 1430
f 1421 1308 1428 1430
f 1309 1431 1427 1307
f 1427 1431 1432 1429
f 1310 1433 1431 1309
f 1431 1433 1434 1432
f 1311 1435 1433 1310
f 1433 1435 1436 1434
f 1312 1437 1435 1311
f 1435 1437 1438 1436
f 1313 1439 1437 1312
f 1437 1439 1440 1438
f 1314 1441 1439 1313
f 1439 1441 1442 1440
f 1314 1424 1442 1441
f 1318 1317 1443 1444
f 1443 1317 1319 1445
f 1321 1318 1444 1446
f 1323 1321 1446 1447
f 1325 1323 1447 1448
f 1327 1325 1448 1449
f 1329 1327 1449 1450
f 1331 1329 1450 1451
f 1331 1451 1452 1332
f 1336 1335 1453 1454
f 1453 1335 1337 1455
f 1319 1336 1454 1445
f 1339 1332 1452 1456
f 1341 1339 1456 1457
f 1341 1457 1458 1342
f 1337 1344 1459 1455
f 1459 1344 1345 1460
f 1347 1342 1458 1461
f 1347 1461 1462 1348
f 1345 1350 1463 1460
f 1463 1350 1351 1464
f 1353 1348 1462 1465
f 1353 1465 1466 1354
f 1351 1357 1467 1464
f 1467 1357 1358 1468
f 1361 1354 1466 1469
f 1361 1469 1470 1362
f 1468 1358 1363 1471
f 1362 1470 1472 1364
f 1363 1367 1473 1471
f 1473 1367 1368 1474
f 1371 1364 1472 1475
f 1371 1475 1476 1372
f 1474 1368 1374 1477
f 1372 1476 1478 1376
f 1477 1374 1378 1479
f 1376 1478 1480 1380
f 1479 1378 1382 1481
f 1380 1480 1482 1384
f 1481 1382 1386 1483
f 1384 1482 1484 1388
f 1391 1390 1485 1486
f 1483 1386 1391 1486
f 1394 1393 1487 1488
f 1388 1484 1487 1393
f 1485 1390 1396 1489
f 1394 1488 1490 1398
f 1401 1400 1491 1492
f 1489 1396 1401 1492
f 1404 1403 1493 1494
f 1398 1490 1493 1403
f 1407 1406 1495 1496
f 1491 1400 1407 1496
f 1410 1409 1497 1498
f 1404 1494 1497 1409
f 1413 1412 1499 1500
f 1495 1406 1413 1500
f 1416 1415 1501 1502
f 1410 1498 1501 1415
f 1420 1419 1503 1504
f 1499 1412 1420 1504
f 1419 1421 1505 1503
f 1424 1423 1506 1507
f 1423 1426 1508 1506
f 1416 1502 1508 1426
f 1430 1429 1509 1510
f 1505 1421 1430 1510
f 1429 1432 1511 1509
f 1432 1434 1512 1511
f 1434 1436 1513 1512
f 1436 1438 1514 1513
f 1438 1440 1515 1514
f 1440 1442 1516 1515
f 1424 1507 1516 1442
f 1444 1443 1517 1518
f 1517 1443 1445 1519
f 1446 1444 1518 1520
f 1447 1446 1520 1521
f 1448 1447 1521 1522
f 1449 1448 1522 1523
f 1450 1449 1523 1524
f 1451 1450 1524 1525
f 1451 1525 1526 1452
f 1454 1453 1527 1528
f 1527 1453 1455 1529
f 1445 1454 1528 1519
f 1456 1452 1526 1530
f 1457 1456 1530 1531
f 1457 1531 1532 1458
f 1455 1459 1533 1529
f 1533 1459 1460 1534
f 1461 1458 1532 1535
f 1461 1535 1536 1462
f 1460 1463 1537 1534
f 1537 1463 1464 1538
f 1465 1462 1536 1539
f 1465 1539 1540 1466
f 1464 1467 1541 1538
f 1541 1467 1468 1542
f 1469 1466 1540 1543
f 1469 1543 1544 1470
f 1542 1468 1471 1545
f 1470 1544 1546 1472
f 1471 1473 1547 1545
f 1547 1473 1474 1548
f 1475 1472 1546 1549
f 1475 1549 1550 1476
f 1548 1474 1477 1551
f 1476 1550 1552 1478
f 1551 1477 1479 1553
f 1478 1552 1554 1480
f 1553 1479 1481 1555
f 1480 1554 1556 1482
f 1555 1481 1483 1557
f 1482 1556 1558 1484
f 1486 1485 1559 1560
f 1557 1483 1486 1560
f 1488 1487 1561 1562
f 1484 1558 1561 1487
f 1559 1485 1489 1563
f 1488 1562 1564 1490
f 1492 1491 1565 1566
f 1563 1489 1492 1566
f 1494 1493 1567 1568
f 1490 1564 1567 1493
f 1496 1495 1569 1570
f 1565 1491 1496 1570
f 1498 1497 1571 1572
f 1494 1568 1571 1497
f 1500 1499 1573 1574
f 1569 1495 1500 1574
f 1502 1501 1575 1576
f 1498 1572 1575 1501
f 1504 1503 1577 1578
f 1573 1499 1504 1578
f 1503 1505 1579 1577
f 1507 1506 1580 1581
f 1506 1508 1582 1580
f 1502 1576 1582 1508
f 1510 1509 1583 1584
f 1579 1505 1510 1584
f 1509 1511 1585 1583
f 1511 1512 1586 1585
f 1512 1513 1587 1586
f 1513 1514 1588 1587
f 1514 1515 1589 1588
f 1515 1516 1590 1589
f 1507 1581 1590 1516
f 1591 1592 1593 1594
f 1518 1517 1591 1594
f 1591 1517 1519 1592
f 1594 1593 1595 1596
f 1520 1518 1594 1596
f 1596 1595 1597 1598
f 1521 1520 1596 1598
f 1598 1597 1599 1600
f 1522 1521 1598 1600
f 1600 1599 1601 1602
f 1523 1522 1600 1602
f 1602 1601 1603 1604
f 1524 1523 1602 1604
f 1604 1603 1605 1606
f 1525 1524 1604 1606
f 1525 1606 1605 1526
f 1607 1608 1609 1610
f 1528 1527 1607 1610
f 1607 1527 1529 1608
f 1610 1609 1611 1592
f 1519 1528 1610 1592
f 1592 1611 1612 1593
f 1593 1612 1613 1595
f 1595 1613 1614 1597
f 1597 1614 1615 1599
f 1599 1615 1616 1601
f 1601 1616 1617 1603
f 1603 1617 1618 1605
f 1605 1618 1619 1620
f 1530 1526 1605 1620
f 1620 1619 1621 1622
f 1531 1530 1620 1622
f 1531 1622 1621 1532
f 1623 1624 1625 1608
f 1529 1533 1623 1608
f 1623 1533 1534 1624
f 1608 1625 1626 1609
f 1609 1626 1627 1611
f 1618 1628 1629 1619
f 1619 1629 1630 1621
f 1621 1630 1631 1632
f 1535 1532 1621 1632
f 1535 1632 1631 1536
f 1633 1634 1635 1624
f 1534 1537 1633 1624
f 1633 1537 1538 1634
f 1624 1635 1636 1625
f 1625 1636 1637 1626
f 1629 1638 1639 1630
f 1630 1639 1640 1631
f 1631 1640 1641 1642
f 1539 1536 1631 1642
f 1539 1642 1641 1540
f 1643 1644 1645 1634
f 1538 1541 1643 1634
f 1643 1541 1542 1644
f 1634 1645 1646 1635
f 1635 1646 1647 1636
f 1639 1648 1649 1640
f 1640 1649 1650 1641
f 1641 1650 1651 1652
f 1543 1540 1641 1652
f 1543 1652 1651 1544
f 1644 1653 1654 1645
f 1644 1542 1545 1653
f 1645 1654 1655 1646
f 1649 1656 1657 1650
f 1650 1657 1658 1651
f 1544 1651 1658 1546
f 1659 1660 1661 1653
f 1545 1547 1659 1653
f 1659 1547 1548 1660
f 1653 1661 1662 1654
f 1657 1663 1664 1658
f 1658 1664 1665 1666
f 1549 1546 1658 1666
f 1549 1666 1665 1550
f 1660 1667 1668 1661
f 1660 1548 1551 1667
f 1661 1668 1669 1662
f 1663 1670 1671 1664
f 1664 1671 1672 1665
f 1550 1665 1672 1552
f 1667 1673 1674 1668
f 1667 1551 1553 1673
f 1668 1674 1675 1669
f 1670 1676 1677 1671
f 1671 1677 1678 1672
f 1552 1672 1678 1554
f 1673 1679 1680 1674
f 1673 1553 1555 1679
f 1674 1680 1681 1675
f 1676 1682 1683 1677
f 1677 1683 1684 1678
f 1554 1678 1684 1556
f 1679 1685 1686 1680
f 1679 1555 1557 1685
f 1680 1686 1687 1681
f 1682 1688 1689 1683
f 1683 1689 1690 1684
f 1556 1684 1690 1558
f 1685 1691 1692 1686
f 1560 1559 1692 1691
f 1685 1557 1560 1691
f 1686 1692 1693 1687
f 1688 1694 1695 1689
f 1689 1695 1696 1690
f 1562 1561 1696 1695
f 1558 1690 1696 1561
f 1692 1697 1698 1693
f 1692 1559 1563 1697
f 1693 1698 1699 1700
f 1701 1702 1703 1694
f 1694 1703 1704 1695
f 1562 1695 1704 1564
f 1697 1705 1706 1698
f 1566 1565 1706 1705
f 1697 1563 1566 1705
f 1698 1706 1707 1699
f 1699 1707 1708 1709
f 1710 1711 1712 1702
f 1702 1712 1713 1703
f 1703 1713 1714 1704
f 1568 1567 1714 1713
f 1564 1704 1714 1567
f 1706 1715 1716 1707
f 1570 1569 1716 1715
f 1706 1565 1570 1715
f 1707 1716 1717 1708
f 1708 1717 1718 1719
f 1720 1721 1722 1711
f 1711 1722 1723 1712
f 1712 1723 1724 1713
f 1572 1571 1724 1723
f 1568 1713 1724 1571
f 1716 1725 1726 1717
f 1574 1573 1726 1725
f 1716 1569 1574 1725
f 1717 1726 1727 1718
f 1718 1727 1728 1729
f 1730 1731 1732 1721
f 1721 1732 1733 1722
f 1722 1733 1734 1723
f 1576 1575 1734 1733
f 1572 1723 1734 1575
f 1726 1735 1736 1727
f 1578 1577 1736 1735
f 1726 1573 1578 1735
f 1727 1736 1737 1728
f 1577 1579 1737 1736
f 1728 1737 1738 1739
f 1739 1738 1740 1741
f 1741 1740 1742 1743
f 1743 1742 1744 1745
f 1745 1744 1746 1747
f 1747 1746 1748 1749
f 1749 1748 1750 1731
f 1731 1750 1751 1732
f 1581 1580 1751 1750
f 1732 1751 1752 1733
f 1580 1582 1752 1751
f 1576 1733 1752 1582
f 1737 1753 1754 1738
f 1584 1583 1754 1753
f 1737 1579 1584 1753
f 1738 1754 1755 1740
f 1583 1585 1755 1754
f 1740 1755 1756 1742
f 1585 1586 1756 1755
f 1742 1756 1757 1744
f 1586 1587 1757 1756
f 1744 1757 1758 1746
f 1587 1588 1758 1757
f 1746 1758 1759 1748
f 1588 1589 1759 1758
f 1748 1759 1760 1750
f 1589 1590 1760 1759
f 1581 1750 1760 1590
f 1761 1762 1763 1764
f 1612 1611 1761 1764
f 1761 1611 1627 1762
f 1764 1763 1765 1766
f 1613 1612 1764 1766
f 1766 1765 1767 1768
f 1614 1613 1766 1768
f 1768 1767 1769 1770
f 1615 1614 1768 1770
f 1770 1769 1771 1772
f 1616 1615 1770 1772
f 1772 1771 1773 1774
f 1617 1616 1772 1774
f 1774 1773 1775 1776
f 1618 1617 1774 1776
f 1618 1776 1775 1628
f 1777 1778 1779 1762
f 1627 1626 1777 1762
f 1777 1626 1637 1778
f 1762 1779 1780 1763
f 1763 1780 1781 1765
f 1765 1781 1782 1767
f 1767 1782 1783 1769
f 1769 1783 1784 1771
f 1771 1784 1785 1773
f 1773 1785 1786 1775
f 1775 1786 1787 1788
f 1629 1628 1775 1788
f 1629 1788 1787 1638
f 1789 1790 1791 1778
f 1637 1636 1789 1778
f 1789 1636 1647 1790
f 1778 1791 1792 1779
f 1779 1792 1793 1780
f 1780 1793 1794 1781
f 1781 1794 1795 1782
f 1782 1795 1796 1783
f 1783 1796 1797 1784
f 1784 1797 1798 1785
f 1785 1798 1799 1786
f 1786 1799 1800 1787
f 1787 1800 1801 1802
f 1639 1638 1787 1802
f 1639 1802 1801 1648
f 1803 1804 1805 1790
f 1647 1646 1803 1790
f 1803 1646 1655 1804
f 1790 1805 1806 1791
f 1791 1806 1807 1792
f 1792 1807 1808 1793
f 1793 1808 1809 1794
f 1794 1809 1810 1795
f 1795 1810 1811 1796
f 1796 1811 1812 1797
f 1797 1812 1813 1798
f 1798 1813 1814 1799
f 1799 1814 1815 1800
f 1800 1815 1816 1801
f 1801 1816 1817 1818
f 1649 1648 1801 1818
f 1649 1818 1817 1656
f 1819 1820 1821 1804
f 1655 1654 1819 1804
f 1819 1654 1662 1820
f 1804 1821 1822 1805
f 1805 1822 1823 1806
f 1806 1823 1824 1807
f 1807 1824 1825 1808
f 1808 1825 1826 1809
f 1809 1826 1827 1810
f 1810 1827 1828 1811
f 1811 1828 1829 1812
f 1812 1829 1830 1813
f 1813 1830 1831 1814
f 1814 1831 1832 1815
f 1815 1832 1833 1816
f 1816 1833 1834 1817
f 1817 1834 1835 1836
f 1657 1656 1817 1836
f 1657 1836 1835 1663
f 1820 1837 1838 1821
f 1820 1662 1669 1837
f 1821 1838 1839 1822
f 1822 1839 1840 1823
f 1823 1840 1841 1824
f 1824 1841 1842 1825
f 1825 1842 1843 1826
f 1826 1843 1844 1827
f 1827 1844 1845 1828
f 1828 1845 1846 1829
f 1829 1846 1847 1830
f 1830 1847 1848 1831
f 1831 1848 1849 1832
f 1832 1849 1850 1833
f 1833 1850 1851 1834
f 1834 1851 1852 1835
f 1663 1835 1852 1670
f 1837 1853 1854 1838
f 1837 1669 1675 1853
f 1838 1854 1855 1839
f 1839 1855 1856 1840
f 1840 1856 1857 1841
f 1841 1857 1858 1842
f 1842 1858 1859 1843
f 1843 1859 1860 1844
f 1844 1860 1861 1845
f 1845 1861 1862 1846
f 1846 1862 1863 1847
f 1847 1863 1864 1848
f 1848 1864 1865 1849
f 1849 1865 1866 1850
f 1850 1866 1867 1851
f 1851 1867 1868 1852
f 1670 1852 1868 1676
f 1853 1869 1870 1854
f 1853 1675 1681 1869
f 1854 1870 1871 1855
f 1855 1871 1872 1856
f 1856 1872 1873 1857
f 1857 1873 1874 1858
f 1858 1874 1875 1859
f 1859 1875 1876 1860
f 1860 1876 1877 1861
f 1861 1877 1878 1862
f 1862 1878 1879 1863
f 1863 1879 1880 1864
f 1864 1880 1881 1865
f 1865 1881 1882 1866
f 1866 1882 1883 1867
f 1867 1883 1884 1868
f 1676 1868 1884 1682
f 1869 1885 1886 1870
f 1869 1681 1687 1885
f 1870 1886 1887 1871
f 1871 1887 1888 1872
f 1872 1888 1889 1873
f 1873 1889 1890 1874
f 1874 1890 1891 1875
f 1875 1891 1892 1876
f 1876 1892 1893 1877
f 1877 1893 1894 1878
f 1878 1894 1895 1879
f 1879 1895 1896 1880
f 1880 1896 1897 1881
f 1881 1897 1898 1882
f 1882 1898 1899 1883
f 1883 1899 1900 1884
f 1682 1884 1900 1688
f 1885 1901 1902 1886
f 1693 1700 1902 1901
f 1885 1687 1693 1901
f 1886 1902 1903 1887
f 1887 1903 1904 1888
f 1888 1904 1905 1889
f 1889 1905 1906 1890
f 1890 1906 1907 1891
f 1891 1907 1908 1892
f 1892 1908 1909 1893
f 1893 1909 1910 1894
f 1894 1910 1911 1895
f 1895 1911 1912 1896
f 1896 1912 1913 1897
f 1897 1913 1914 1898
f 1898 1914 1915 1899
f 1899 1915 1916 1900
f 1701 1694 1916 1915
f 1688 1900 1916 1694
f 1902 1917 1918 1903
f 1699 1709 1918 1917
f 1902 1700 1699 1917
f 1903 1918 1919 1904
f 1904 1919 1920 1905
f 1905 1920 1921 1906
f 1906 1921 1922 1907
f 1907 1922 1923 1908
f 1908 1923 1924 1909
f 1909 1924 1925 1910
f 1910 1925 1926 1911
f 1911 1926 1927 1912
f 1912 1927 1928 1913
f 1913 1928 1929 1914
f 1914 1929 1930 1915
f 1710 1702 1930 1929
f 1701 1915 1930 1702
f 1918 1931 1932 1919
f 1708 1719 1932 1931
f 1918 1709 1708 1931
f 1919 1932 1933 1920
f 1920 1933 1934 1921
f 1921 1934 1935 1922
f 1922 1935 1936 1923
f 1923 1936 1937 1924
f 1924 1937 1938 1925
f 1925 1938 1939 1926
f 1926 1939 1940 1927
f 1927 1940 1941 1928
f 1928 1941 1942 1929
f 1720 1711 1942 1941
f 1710 1929 1942 1711
f 1932 1943 1944 1933
f 1718 1729 1944 1943
f 1932 1719 1718 1943
f 1933 1944 1945 1934
f 1934 1945 1946 1935
f 1935 1946 1947 1936
f 1936 1947 1948 1937
f 1937 1948 1949 1938
f 1938 1949 1950 1939
f 1939 1950 1951 1940
f 1940 1951 1952 1941
f 1730 1721 1952 1951
f 1720 1941 1952 1721
f 1944 1953 1954 1945
f 1728 1739 1954 1953
f 1944 1729 1728 1953
f 1945 1954 1955 1946
f 1739 1741 1955 1954
f 1946 1955 1956 1947
f 1741 1743 1956 1955
f 1947 1956 1957 1948
f 1743 1745 1957 1956
f 1948 1957 1958 1949
f 1745 1747 1958 1957
f 1949 1958 1959 1950
f 1747 1749 1959 1958
f 1950 1959 1960 1951
f 1749 1731 1960 1959
f 1730 1951 1960 1731
