# D-scent-stopper — lifted from a 2D silhouette by aide.lift
o D-scent-stopper
v -16.000 -4.000 -1.500
v -16.000 -3.000 -1.500
v -16.000 -3.000 -2.500
v -16.000 -4.000 -2.500
v -15.000 -4.000 -2.500
v -15.000 -4.000 -1.500
v -15.000 -3.000 -2.500
v -16.000 -4.000 -0.500
v -16.000 -3.000 -0.500
v -15.000 -4.000 -0.500
v -16.000 -4.000 0.500
v -16.000 -3.000 0.500
v -15.000 -4.000 0.500
v -16.000 -4.000 1.500
v -16.000 -3.000 1.500
v -15.000 -4.000 1.500
v -16.000 -4.000 2.500
v -16.000 -3.000 2.500
v -15.000 -4.000 2.500
v -15.000 -3.000 2.500
v -16.000 -2.000 -2.500
v -16.000 -2.000 -3.500
v -16.000 -3.000 -3.500
v -15.000 -3.000 -3.500
v -15.000 -2.000 -3.500
v -16.000 -2.000 -1.500
v -16.000 -2.000 -0.500
v -16.000 -2.000 0.500
v -16.000 -2.000 1.500
v -16.000 -2.000 2.500
v -16.000 -3.000 3.500
v -16.000 -2.000 3.500
v -15.000 -3.000 3.500
v -15.000 -2.000 3.500
v -16.000 -1.000 -3.500
v -16.000 -1.000 -4.500
v -16.000 -2.000 -4.500
v -15.000 -2.000 -4.500
v -15.000 -1.000 -4.500
v -16.000 -1.000 -2.500
v -16.000 -1.000 -1.500
v -16.000 -1.000 -0.500
v -16.000 -1.000 0.500
v -16.000 -1.000 1.500
v -16.000 -1.000 2.500
v -16.000 -1.000 3.500
v -16.000 -2.000 4.500
v -16.000 -1.000 4.500
v -15.000 -2.000 4.500
v -15.000 -1.000 4.500
v -16.000 0.000 -3.500
v -16.000 0.000 -4.500
v -15.000 0.000 -4.500
v -16.000 0.000 -2.500
v -16.000 0.000 -1.500
v -16.000 0.000 -0.500
v -16.000 0.000 0.500
v -16.000 0.000 1.500
v -16.000 0.000 2.500
v -16.000 0.000 3.500
v -16.000 0.000 4.500
v -15.000 0.000 4.500
v -16.000 1.000 -3.500
v -16.000 1.000 -4.500
v -15.000 1.000 -4.500
v -16.000 1.000 -2.500
v -16.000 1.000 -1.500
v -16.000 1.000 -0.500
v -16.000 1.000 0.500
v -16.000 1.000 1.500
v -16.000 1.000 2.500
v -16.000 1.000 3.500
v -16.000 1.000 4.500
v -15.000 1.000 4.500
v -16.000 2.000 -3.500
v -16.000 2.000 -4.500
v -15.000 2.000 -3.500
v -15.000 2.000 -4.500
v -16.000 2.000 -2.500
v -16.000 2.000 -1.500
v -16.000 2.000 -0.500
v -16.000 2.000 0.500
v -16.000 2.000 1.500
v -16.000 2.000 2.500
v -16.000 2.000 3.500
v -16.000 2.000 4.500
v -15.000 2.000 4.500
v -15.000 2.000 3.500
v -16.000 3.000 -2.500
v -16.000 3.000 -3.500
v -15.000 3.000 -2.500
v -15.000 3.000 -3.500
v -16.000 3.000 -1.500
v -16.000 3.000 -0.500
v -16.000 3.000 0.500
v -16.000 3.000 1.500
v -16.000 3.000 2.500
v -16.000 3.000 3.500
v -15.000 3.000 3.500
v -15.000 3.000 2.500
v -16.000 4.000 -1.500
v -16.000 4.000 -2.500
v -15.000 4.000 -1.500
v -15.000 4.000 -2.500
v -16.000 4.000 -0.500
v -15.000 4.000 -0.500
v -16.000 4.000 0.500
v -15.000 4.000 0.500
v -16.000 4.000 1.500
v -15.000 4.000 1.500
v -16.000 4.000 2.500
v -15.000 4.000 2.500
v -14.000 -4.000 -2.500
v -14.000 -4.000 -1.500
v -14.000 -3.000 -2.500
v -14.000 -4.000 -0.500
v -14.000 -4.000 0.500
v -14.000 -4.000 1.500
v -14.000 -4.000 2.500
v -14.000 -3.000 2.500
v -14.000 -3.000 -3.500
v -14.000 -2.000 -3.500
v -14.000 -3.000 3.500
v -14.000 -2.000 3.500
v -14.000 -2.000 -4.500
v -14.000 -1.000 -4.500
v -14.000 -2.000 4.500
v -14.000 -1.000 4.500
v -14.000 0.000 -4.500
v -14.000 0.000 4.500
v -14.000 1.000 -4.500
v -14.000 1.000 4.500
v -14.000 2.000 -3.500
v -14.000 2.000 -4.500
v -14.000 2.000 4.500
v -14.000 2.000 3.500
v -14.000 3.000 -2.500
v -14.000 3.000 -3.500
v -14.000 3.000 3.500
v -14.000 3.000 2.500
v -14.000 4.000 -1.500
v -14.000 4.000 -2.500
v -14.000 4.000 -0.500
v -14.000 4.000 0.500
v -14.000 4.000 1.500
v -14.000 4.000 2.500
v -13.000 -4.000 -2.500
v -13.000 -4.000 -1.500
v -13.000 -3.000 -2.500
v -13.000 -4.000 -0.500
v -13.000 -4.000 0.500
v -13.000 -4.000 1.500
v -13.000 -4.000 2.500
v -13.000 -3.000 2.500
v -13.000 -3.000 -3.500
v -13.000 -2.000 -3.500
v -13.000 -3.000 3.500
v -13.000 -2.000 3.500
v -13.000 -2.000 -4.500
v -13.000 -1.000 -4.500
v -13.000 -2.000 4.500
v -13.000 -1.000 4.500
v -13.000 0.000 -4.500
v -13.000 0.000 4.500
v -13.000 1.000 -4.500
v -13.000 1.000 4.500
v -13.000 2.000 -3.500
v -13.000 2.000 -4.500
v -13.000 2.000 4.500
v -13.000 2.000 3.500
v -13.000 3.000 -2.500
v -13.000 3.000 -3.500
v -13.000 3.000 3.500
v -13.000 3.000 2.500
v -13.000 4.000 -1.500
v -13.000 4.000 -2.500
v -13.000 4.000 -0.500
v -13.000 4.000 0.500
v -13.000 4.000 1.500
v -13.000 4.000 2.500
v -12.000 -4.000 -2.500
v -12.000 -4.000 -1.500
v -12.000 -3.000 -2.500
v -12.000 -4.000 -0.500
v -12.000 -4.000 0.500
v -12.000 -4.000 1.500
v -12.000 -4.000 2.500
v -12.000 -3.000 2.500
v -12.000 -3.000 -3.500
v -12.000 -2.000 -3.500
v -12.000 -3.000 3.500
v -12.000 -2.000 3.500
v -12.000 -2.000 -4.500
v -12.000 -1.000 -4.500
v -12.000 -2.000 4.500
v -12.000 -1.000 4.500
v -12.000 0.000 -4.500
v -12.000 0.000 4.500
v -12.000 1.000 -4.500
v -12.000 1.000 4.500
v -12.000 2.000 -3.500
v -12.000 2.000 -4.500
v -12.000 2.000 4.500
v -12.000 2.000 3.500
v -12.000 3.000 -2.500
v -12.000 3.000 -3.500
v -12.000 3.000 3.500
v -12.000 3.000 2.500
v -12.000 4.000 -1.500
v -12.000 4.000 -2.500
v -12.000 4.000 -0.500
v -12.000 4.000 0.500
v -12.000 4.000 1.500
v -12.000 4.000 2.500
v -11.000 -4.000 -2.500
v -11.000 -4.000 -1.500
v -11.000 -3.000 -2.500
v -11.000 -4.000 -0.500
v -11.000 -4.000 0.500
v -11.000 -4.000 1.500
v -11.000 -4.000 2.500
v -11.000 -3.000 2.500
v -11.000 -3.000 -3.500
v -11.000 -2.000 -3.500
v -11.000 -3.000 3.500
v -11.000 -2.000 3.500
v -11.000 -2.000 -4.500
v -11.000 -1.000 -4.500
v -11.000 -2.000 4.500
v -11.000 -1.000 4.500
v -11.000 0.000 -4.500
v -11.000 0.000 4.500
v -11.000 1.000 -4.500
v -11.000 1.000 4.500
v -11.000 2.000 -3.500
v -11.000 2.000 -4.500
v -11.000 2.000 4.500
v -11.000 2.000 3.500
v -11.000 3.000 -2.500
v -11.000 3.000 -3.500
v -11.000 3.000 3.500
v -11.000 3.000 2.500
v -11.000 4.000 -1.500
v -11.000 4.000 -2.500
v -11.000 4.000 -0.500
v -11.000 4.000 0.500
v -11.000 4.000 1.500
v -11.000 4.000 2.500
v -10.000 -4.000 -2.500
v -10.000 -4.000 -1.500
v -10.000 -3.000 -2.500
v -10.000 -4.000 -0.500
v -10.000 -4.000 0.500
v -10.000 -4.000 1.500
v -10.000 -4.000 2.500
v -10.000 -3.000 2.500
v -10.000 -3.000 -3.500
v -10.000 -2.000 -3.500
v -10.000 -3.000 3.500
v -10.000 -2.000 3.500
v -10.000 -2.000 -4.500
v -10.000 -1.000 -4.500
v -10.000 -2.000 4.500
v -10.000 -1.000 4.500
v -10.000 0.000 -4.500
v -10.000 0.000 4.500
v -10.000 1.000 -4.500
v -10.000 1.000 4.500
v -10.000 2.000 -3.500
v -10.000 2.000 -4.500
v -10.000 2.000 4.500
v -10.000 2.000 3.500
v -10.000 3.000 -2.500
v -10.000 3.000 -3.500
v -10.000 3.000 3.500
v -10.000 3.000 2.500
v -10.000 4.000 -1.500
v -10.000 4.000 -2.500
v -10.000 4.000 -0.500
v -10.000 4.000 0.500
v -10.000 4.000 1.500
v -10.000 4.000 2.500
v -9.000 -4.000 -2.500
v -9.000 -3.000 -2.500
v -9.000 -3.000 -1.500
v -9.000 -4.000 -1.500
v -9.000 -3.000 -0.500
v -9.000 -4.000 -0.500
v -9.000 -3.000 0.500
v -9.000 -4.000 0.500
v -9.000 -3.000 1.500
v -9.000 -4.000 1.500
v -9.000 -3.000 2.500
v -9.000 -4.000 2.500
v -9.000 -3.000 -3.500
v -9.000 -2.000 -3.500
v -9.000 -2.000 -2.500
v -9.000 -2.000 -1.500
v -9.000 -2.000 -0.500
v -9.000 -2.000 0.500
v -9.000 -2.000 1.500
v -9.000 -2.000 2.500
v -9.000 -2.000 3.500
v -9.000 -3.000 3.500
v -9.000 -2.000 -4.500
v -9.000 -1.000 -4.500
v -9.000 -1.000 -3.500
v -9.000 -1.000 -2.500
v -9.000 -1.000 -1.500
v -9.000 -1.000 1.500
v -9.000 -1.000 2.500
v -9.000 -1.000 3.500
v -9.000 -1.000 4.500
v -9.000 -2.000 4.500
v -9.000 0.000 -4.500
v -9.000 0.000 -3.500
v -9.000 0.000 -2.500
v -9.000 0.000 2.500
v -9.000 0.000 3.500
v -9.000 0.000 4.500
v -9.000 1.000 -4.500
v -9.000 1.000 -3.500
v -9.000 1.000 -2.500
v -9.000 1.000 2.500
v -9.000 1.000 3.500
v -9.000 1.000 4.500
v -9.000 2.000 -4.500
v -9.000 2.000 -3.500
v -9.000 2.000 -2.500
v -9.000 2.000 -1.500
v -9.000 1.000 -1.500
v -9.000 1.000 1.500
v -9.000 2.000 1.500
v -9.000 2.000 2.500
v -9.000 2.000 3.500
v -9.000 2.000 4.500
v -9.000 3.000 -3.500
v -9.000 3.000 -2.500
v -9.000 3.000 -1.500
v -9.000 3.000 -0.500
v -9.000 2.000 -0.500
v -9.000 3.000 0.500
v -9.000 2.000 0.500
v -9.000 3.000 1.500
v -9.000 3.000 2.500
v -9.000 3.000 3.500
v -9.000 4.000 -2.500
v -9.000 4.000 -1.500
v -9.000 4.000 -0.500
v -9.000 4.000 0.500
v -9.000 4.000 1.500
v -9.000 4.000 2.500
v -8.000 -2.000 -1.500
v -8.000 -2.000 -0.500
v -8.000 -1.000 -1.500
v -8.000 -2.000 0.500
v -8.000 -2.000 1.500
v -8.000 -1.000 1.500
v -8.000 -1.000 -2.500
v -8.000 0.000 -2.500
v -8.000 -1.000 2.500
v -8.000 0.000 2.500
v -8.000 1.000 -1.500
v -8.000 1.000 -2.500
v -8.000 1.000 2.500
v -8.000 1.000 1.500
v -8.000 2.000 -0.500
v -8.000 2.000 -1.500
v -8.000 2.000 0.500
v -8.000 2.000 1.500
v -7.000 -2.000 -1.500
v -7.000 -2.000 -0.500
v -7.000 -1.000 -1.500
v -7.000 -2.000 0.500
v -7.000 -2.000 1.500
v -7.000 -1.000 1.500
v -7.000 -1.000 -2.500
v -7.000 0.000 -2.500
v -7.000 -1.000 2.500
v -7.000 0.000 2.500
v -7.000 1.000 -1.500
v -7.000 1.000 -2.500
v -7.000 1.000 2.500
v -7.000 1.000 1.500
v -7.000 2.000 -0.500
v -7.000 2.000 -1.500
v -7.000 2.000 0.500
v -7.000 2.000 1.500
v -6.000 -2.000 -1.500
v -6.000 -2.000 -0.500
v -6.000 -1.000 -1.500
v -6.000 -2.000 0.500
v -6.000 -2.000 1.500
v -6.000 -1.000 1.500
v -6.000 -1.000 -2.500
v -6.000 0.000 -2.500
v -6.000 -1.000 2.500
v -6.000 0.000 2.500
v -6.000 1.000 -1.500
v -6.000 1.000 -2.500
v -6.000 1.000 2.500
v -6.000 1.000 1.500
v -6.000 2.000 -0.500
v -6.000 2.000 -1.500
v -6.000 2.000 0.500
v -6.000 2.000 1.500
v -5.000 -2.000 -1.500
v -5.000 -2.000 -0.500
v -5.000 -1.000 -1.500
v -5.000 -2.000 0.500
v -5.000 -2.000 1.500
v -5.000 -1.000 1.500
v -5.000 -1.000 -2.500
v -5.000 0.000 -2.500
v -5.000 -1.000 2.500
v -5.000 0.000 2.500
v -5.000 1.000 -1.500
v -5.000 1.000 -2.500
v -5.000 1.000 2.500
v -5.000 1.000 1.500
v -5.000 2.000 -0.500
v -5.000 2.000 -1.500
v -5.000 2.000 0.500
v -5.000 2.000 1.500
v -4.000 -2.000 -1.500
v -4.000 -2.000 -0.500
v -4.000 -1.000 -1.500
v -4.000 -2.000 0.500
v -4.000 -2.000 1.500
v -4.000 -1.000 1.500
v -4.000 -1.000 -2.500
v -4.000 0.000 -2.500
v -4.000 -1.000 2.500
v -4.000 0.000 2.500
v -4.000 1.000 -1.500
v -4.000 1.000 -2.500
v -4.000 1.000 2.500
v -4.000 1.000 1.500
v -4.000 2.000 -0.500
v -4.000 2.000 -1.500
v -4.000 2.000 0.500
v -4.000 2.000 1.500
v -3.000 -2.000 -1.500
v -3.000 -2.000 -0.500
v -3.000 -1.000 -1.500
v -3.000 -2.000 0.500
v -3.000 -2.000 1.500
v -3.000 -1.000 1.500
v -3.000 -1.000 -2.500
v -3.000 0.000 -2.500
v -3.000 -1.000 2.500
v -3.000 0.000 2.500
v -3.000 1.000 -1.500
v -3.000 1.000 -2.500
v -3.000 1.000 2.500
v -3.000 1.000 1.500
v -3.000 2.000 -0.500
v -3.000 2.000 -1.500
v -3.000 2.000 0.500
v -3.000 2.000 1.500
v -2.000 -2.000 -1.500
v -2.000 -2.000 -0.500
v -2.000 -1.000 -1.500
v -2.000 -2.000 0.500
v -2.000 -2.000 1.500
v -2.000 -1.000 1.500
v -2.000 -1.000 -2.500
v -2.000 0.000 -2.500
v -2.000 -1.000 2.500
v -2.000 0.000 2.500
v -2.000 1.000 -1.500
v -2.000 1.000 -2.500
v -2.000 1.000 2.500
v -2.000 1.000 1.500
v -2.000 2.000 -0.500
v -2.000 2.000 -1.500
v -2.000 2.000 0.500
v -2.000 2.000 1.500
v -1.000 -2.000 -1.500
v -1.000 -2.000 -0.500
v -1.000 -1.000 -1.500
v -1.000 -2.000 0.500
v -1.000 -2.000 1.500
v -1.000 -1.000 1.500
v -1.000 -1.000 -2.500
v -1.000 0.000 -2.500
v -1.000 -1.000 2.500
v -1.000 0.000 2.500
v -1.000 1.000 -1.500
v -1.000 1.000 -2.500
v -1.000 1.000 2.500
v -1.000 1.000 1.500
v -1.000 2.000 -0.500
v -1.000 2.000 -1.500
v -1.000 2.000 0.500
v -1.000 2.000 1.500
v -1.000 -3.000 -1.500
v -1.000 -2.000 -2.500
v -1.000 -3.000 -2.500
v 0.000 -3.000 -2.500
v 0.000 -3.000 -1.500
v 0.000 -2.000 -2.500
v -1.000 -3.000 -0.500
v 0.000 -3.000 -0.500
v -1.000 -3.000 0.500
v 0.000 -3.000 0.500
v -1.000 -3.000 1.500
v 0.000 -3.000 1.500
v -1.000 -3.000 2.500
v -1.000 -2.000 2.500
v 0.000 -3.000 2.500
v 0.000 -2.000 2.500
v -1.000 -1.000 -3.500
v -1.000 -2.000 -3.500
v 0.000 -2.000 -3.500
v 0.000 -1.000 -3.500
v -1.000 -2.000 3.500
v -1.000 -1.000 3.500
v 0.000 -2.000 3.500
v 0.000 -1.000 3.500
v -1.000 0.000 -3.500
v 0.000 0.000 -3.500
v -1.000 0.000 3.500
v 0.000 0.000 3.500
v -1.000 1.000 -3.500
v 0.000 1.000 -3.500
v -1.000 1.000 3.500
v 0.000 1.000 3.500
v -1.000 2.000 -2.500
v -1.000 2.000 -3.500
v 0.000 2.000 -2.500
v 0.000 2.000 -3.500
v -1.000 2.000 2.500
v -1.000 2.000 3.500
v 0.000 2.000 3.500
v 0.000 2.000 2.500
v -1.000 3.000 -1.500
v -1.000 3.000 -2.500
v 0.000 3.000 -1.500
v 0.000 3.000 -2.500
v -1.000 3.000 -0.500
v 0.000 3.000 -0.500
v -1.000 3.000 0.500
v 0.000 3.000 0.500
v -1.000 3.000 1.500
v 0.000 3.000 1.500
v -1.000 3.000 2.500
v 0.000 3.000 2.500
v 1.000 -3.000 -2.500
v 1.000 -3.000 -1.500
v 1.000 -2.000 -2.500
v 1.000 -3.000 -0.500
v 1.000 -3.000 0.500
v 1.000 -3.000 1.500
v 1.000 -3.000 2.500
v 1.000 -2.000 2.500
v 1.000 -2.000 -3.500
v 1.000 -1.000 -3.500
v 1.000 -2.000 3.500
v 1.000 -1.000 3.500
v 1.000 0.000 -3.500
v 1.000 0.000 3.500
v 1.000 1.000 -3.500
v 1.000 1.000 3.500
v 1.000 2.000 -2.500
v 1.000 2.000 -3.500
v 1.000 2.000 3.500
v 1.000 2.000 2.500
v 1.000 3.000 -1.500
v 1.000 3.000 -2.500
v 1.000 3.000 -0.500
v 1.000 3.000 0.500
v 1.000 3.000 1.500
v 1.000 3.000 2.500
v 2.000 -3.000 -2.500
v 2.000 -3.000 -1.500
v 2.000 -2.000 -2.500
v 2.000 -3.000 -0.500
v 2.000 -3.000 0.500
v 2.000 -3.000 1.500
v 2.000 -3.000 2.500
v 2.000 -2.000 2.500
v 2.000 -2.000 -3.500
v 2.000 -1.000 -3.500
v 2.000 -2.000 3.500
v 2.000 -1.000 3.500
v 2.000 0.000 -3.500
v 2.000 0.000 3.500
v 2.000 1.000 -3.500
v 2.000 1.000 3.500
v 2.000 2.000 -2.500
v 2.000 2.000 -3.500
v 2.000 2.000 3.500
v 2.000 2.000 2.500
v 2.000 3.000 -1.500
v 2.000 3.000 -2.500
v 2.000 3.000 -0.500
v 2.000 3.000 0.500
v 2.000 3.000 1.500
v 2.000 3.000 2.500
v 3.000 -3.000 -2.500
v 3.000 -3.000 -1.500
v 3.000 -2.000 -2.500
v 3.000 -3.000 -0.500
v 3.000 -3.000 0.500
v 3.000 -3.000 1.500
v 3.000 -3.000 2.500
v 3.000 -2.000 2.500
v 3.000 -2.000 -3.500
v 3.000 -1.000 -3.500
v 3.000 -2.000 3.500
v 3.000 -1.000 3.500
v 3.000 0.000 -3.500
v 3.000 0.000 3.500
v 3.000 1.000 -3.500
v 3.000 1.000 3.500
v 3.000 2.000 -2.500
v 3.000 2.000 -3.500
v 3.000 2.000 3.500
v 3.000 2.000 2.500
v 3.000 3.000 -1.500
v 3.000 3.000 -2.500
v 3.000 3.000 -0.500
v 3.000 3.000 0.500
v 3.000 3.000 1.500
v 3.000 3.000 2.500
v 3.000 -4.000 -1.500
v 3.000 -4.000 -2.500
v 4.000 -4.000 -2.500
v 4.000 -4.000 -1.500
v 4.000 -3.000 -2.500
v 3.000 -4.000 -0.500
v 4.000 -4.000 -0.500
v 3.000 -4.000 0.500
v 4.000 -4.000 0.500
v 3.000 -4.000 1.500
v 4.000 -4.000 1.500
v 3.000 -4.000 2.500
v 4.000 -4.000 2.500
v 4.000 -3.000 2.500
v 3.000 -3.000 -3.500
v 4.000 -3.000 -3.500
v 4.000 -2.000 -3.500
v 3.000 -3.000 3.500
v 4.000 -3.000 3.500
v 4.000 -2.000 3.500
v 3.000 -1.000 -4.500
v 3.000 -2.000 -4.500
v 4.000 -2.000 -4.500
v 4.000 -1.000 -4.500
v 3.000 -2.000 4.500
v 3.000 -1.000 4.500
v 4.000 -2.000 4.500
v 4.000 -1.000 4.500
v 3.000 0.000 -4.500
v 4.000 0.000 -4.500
v 3.000 0.000 4.500
v 4.000 0.000 4.500
v 3.000 1.000 -4.500
v 4.000 1.000 -4.500
v 3.000 1.000 4.500
v 4.000 1.000 4.500
v 3.000 2.000 -4.500
v 4.000 2.000 -3.500
v 4.000 2.000 -4.500
v 3.000 2.000 4.500
v 4.000 2.000 4.500
v 4.000 2.000 3.500
v 3.000 3.000 -3.500
v 4.000 3.000 -2.500
v 4.000 3.000 -3.500
v 3.000 3.000 3.500
v 4.000 3.000 3.500
v 4.000 3.000 2.500
v 3.000 4.000 -1.500
v 3.000 4.000 -2.500
v 4.000 4.000 -1.500
v 4.000 4.000 -2.500
v 3.000 4.000 -0.500
v 4.000 4.000 -0.500
v 3.000 4.000 0.500
v 4.000 4.000 0.500
v 3.000 4.000 1.500
v 4.000 4.000 1.500
v 3.000 4.000 2.500
v 4.000 4.000 2.500
v 5.000 -4.000 -2.500
v 5.000 -4.000 -1.500
v 5.000 -3.000 -2.500
v 5.000 -4.000 -0.500
v 5.000 -4.000 0.500
v 5.000 -4.000 1.500
v 5.000 -4.000 2.500
v 5.000 -3.000 2.500
v 5.000 -3.000 -3.500
v 5.000 -2.000 -3.500
v 5.000 -3.000 3.500
v 5.000 -2.000 3.500
v 5.000 -2.000 -4.500
v 5.000 -1.000 -4.500
v 5.000 -2.000 4.500
v 5.000 -1.000 4.500
v 5.000 0.000 -4.500
v 5.000 0.000 4.500
v 5.000 1.000 -4.500
v 5.000 1.000 4.500
v 5.000 2.000 -3.500
v 5.000 2.000 -4.500
v 5.000 2.000 4.500
v 5.000 2.000 3.500
v 5.000 3.000 -2.500
v 5.000 3.000 -3.500
v 5.000 3.000 3.500
v 5.000 3.000 2.500
v 5.000 4.000 -1.500
v 5.000 4.000 -2.500
v 5.000 4.000 -0.500
v 5.000 4.000 0.500
v 5.000 4.000 1.500
v 5.000 4.000 2.500
v 6.000 -4.000 -2.500
v 6.000 -4.000 -1.500
v 6.000 -3.000 -2.500
v 6.000 -4.000 -0.500
v 6.000 -4.000 0.500
v 6.000 -4.000 1.500
v 6.000 -4.000 2.500
v 6.000 -3.000 2.500
v 6.000 -3.000 -3.500
v 6.000 -2.000 -3.500
v 6.000 -3.000 3.500
v 6.000 -2.000 3.500
v 6.000 -2.000 -4.500
v 6.000 -1.000 -4.500
v 6.000 -2.000 4.500
v 6.000 -1.000 4.500
v 6.000 0.000 -4.500
v 6.000 0.000 4.500
v 6.000 1.000 -4.500
v 6.000 1.000 4.500
v 6.000 2.000 -3.500
v 6.000 2.000 -4.500
v 6.000 2.000 4.500
v 6.000 2.000 3.500
v 6.000 3.000 -2.500
v 6.000 3.000 -3.500
v 6.000 3.000 3.500
v 6.000 3.000 2.500
v 6.000 4.000 -1.500
v 6.000 4.000 -2.500
v 6.000 4.000 -0.500
v 6.000 4.000 0.500
v 6.000 4.000 1.500
v 6.000 4.000 2.500
v 6.000 -5.000 -2.500
v 6.000 -4.000 -3.500
v 6.000 -5.000 -3.500
v 7.000 -5.000 -3.500
v 7.000 -5.000 -2.500
v 7.000 -4.000 -3.500
v 6.000 -5.000 -1.500
v 7.000 -5.000 -1.500
v 6.000 -5.000 -0.500
v 7.000 -5.000 -0.500
v 6.000 -5.000 0.500
v 7.000 -5.000 0.500
v 6.000 -5.000 1.500
v 7.000 -5.000 1.500
v 6.000 -5.000 2.500
v 7.000 -5.000 2.500
v 6.000 -5.000 3.500
v 6.000 -4.000 3.500
v 7.000 -5.000 3.500
v 7.000 -4.000 3.500
v 7.000 -3.000 -3.500
v 7.000 -3.000 3.500
v 6.000 -3.000 -4.500
v 7.000 -3.000 -4.500
v 7.000 -2.000 -4.500
v 6.000 -3.000 4.500
v 7.000 -3.000 4.500
v 7.000 -2.000 4.500
v 6.000 -1.000 -5.500
v 6.000 -2.000 -5.500
v 7.000 -2.000 -5.500
v 7.000 -1.000 -5.500
v 6.000 -2.000 5.500
v 6.000 -1.000 5.500
v 7.000 -2.000 5.500
v 7.000 -1.000 5.500
v 6.000 0.000 -5.500
v 7.000 0.000 -5.500
v 6.000 0.000 5.500
v 7.000 0.000 5.500
v 6.000 1.000 -5.500
v 7.000 1.000 -5.500
v 6.000 1.000 5.500
v 7.000 1.000 5.500
v 6.000 2.000 -5.500
v 7.000 2.000 -4.500
v 7.000 2.000 -5.500
v 6.000 2.000 5.500
v 7.000 2.000 5.500
v 7.000 2.000 4.500
v 6.000 3.000 -4.500
v 7.000 3.000 -3.500
v 7.000 3.000 -4.500
v 6.000 3.000 4.500
v 7.000 3.000 4.500
v 7.000 3.000 3.500
v 6.000 4.000 -3.500
v 7.000 4.000 -3.500
v 6.000 4.000 3.500
v 7.000 4.000 3.500
v 6.000 5.000 -2.500
v 6.000 5.000 -3.500
v 7.000 5.000 -2.500
v 7.000 5.000 -3.500
v 6.000 5.000 -1.500
v 7.000 5.000 -1.500
v 6.000 5.000 -0.500
v 7.000 5.000 -0.500
v 6.000 5.000 0.500
v 7.000 5.000 0.500
v 6.000 5.000 1.500
v 7.000 5.000 1.500
v 6.000 5.000 2.500
v 7.000 5.000 2.500
v 6.000 5.000 3.500
v 7.000 5.000 3.500
v 8.000 -5.000 -3.500
v 8.000 -5.000 -2.500
v 8.000 -4.000 -3.500
v 8.000 -5.000 -1.500
v 8.000 -5.000 -0.500
v 8.000 -5.000 0.500
v 8.000 -5.000 1.500
v 8.000 -5.000 2.500
v 8.000 -5.000 3.500
v 8.000 -4.000 3.500
v 8.000 -3.000 -3.500
v 8.000 -3.000 3.500
v 8.000 -3.000 -4.500
v 8.000 -2.000 -4.500
v 8.000 -3.000 4.500
v 8.000 -2.000 4.500
v 8.000 -2.000 -5.500
v 8.000 -1.000 -5.500
v 8.000 -2.000 5.500
v 8.000 -1.000 5.500
v 8.000 0.000 -5.500
v 8.000 0.000 5.500
v 8.000 1.000 -5.500
v 8.000 1.000 5.500
v 8.000 2.000 -4.500
v 8.000 2.000 -5.500
v 8.000 2.000 5.500
v 8.000 2.000 4.500
v 8.000 3.000 -3.500
v 8.000 3.000 -4.500
v 8.000 3.000 4.500
v 8.000 3.000 3.500
v 8.000 4.000 -3.500
v 8.000 4.000 3.500
v 8.000 5.000 -2.500
v 8.000 5.000 -3.500
v 8.000 5.000 -1.500
v 8.000 5.000 -0.500
v 8.000 5.000 0.500
v 8.000 5.000 1.500
v 8.000 5.000 2.500
v 8.000 5.000 3.500
v 9.000 -5.000 -3.500
v 9.000 -5.000 -2.500
v 9.000 -4.000 -3.500
v 9.000 -5.000 -1.500
v 9.000 -5.000 -0.500
v 9.000 -5.000 0.500
v 9.000 -5.000 1.500
v 9.000 -5.000 2.500
v 9.000 -5.000 3.500
v 9.000 -4.000 3.500
v 9.000 -3.000 -3.500
v 9.000 -3.000 3.500
v 9.000 -3.000 -4.500
v 9.000 -2.000 -4.500
v 9.000 -3.000 4.500
v 9.000 -2.000 4.500
v 9.000 -2.000 -5.500
v 9.000 -1.000 -5.500
v 9.000 -2.000 5.500
v 9.000 -1.000 5.500
v 9.000 0.000 -5.500
v 9.000 0.000 5.500
v 9.000 1.000 -5.500
v 9.000 1.000 5.500
v 9.000 2.000 -4.500
v 9.000 2.000 -5.500
v 9.000 2.000 5.500
v 9.000 2.000 4.500
v 9.000 3.000 -3.500
v 9.000 3.000 -4.500
v 9.000 3.000 4.500
v 9.000 3.000 3.500
v 9.000 4.000 -3.500
v 9.000 4.000 3.500
v 9.000 5.000 -2.500
v 9.000 5.000 -3.500
v 9.000 5.000 -1.500
v 9.000 5.000 -0.500
v 9.000 5.000 0.500
v 9.000 5.000 1.500
v 9.000 5.000 2.500
v 9.000 5.000 3.500
v 10.000 -5.000 -3.500
v 10.000 -4.000 -3.500
v 10.000 -4.000 -2.500
v 10.000 -5.000 -2.500
v 10.000 -4.000 -1.500
v 10.000 -5.000 -1.500
v 10.000 -4.000 -0.500
v 10.000 -5.000 -0.500
v 10.000 -4.000 0.500
v 10.000 -5.000 0.500
v 10.000 -4.000 1.500
v 10.000 -5.000 1.500
v 10.000 -4.000 2.500
v 10.000 -5.000 2.500
v 10.000 -4.000 3.500
v 10.000 -5.000 3.500
v 10.000 -3.000 -3.500
v 10.000 -3.000 -2.500
v 10.000 -3.000 2.500
v 10.000 -3.000 3.500
v 10.000 -3.000 -4.500
v 10.000 -2.000 -4.500
v 10.000 -2.000 -3.500
v 10.000 -2.000 3.500
v 10.000 -2.000 4.500
v 10.000 -3.000 4.500
v 10.000 -2.000 -5.500
v 10.000 -1.000 -5.500
v 10.000 -1.000 -4.500
v 10.000 -1.000 4.500
v 10.000 -1.000 5.500
v 10.000 -2.000 5.500
v 10.000 0.000 -5.500
v 10.000 0.000 -4.500
v 10.000 0.000 4.500
v 10.000 0.000 5.500
v 10.000 1.000 -5.500
v 10.000 1.000 -4.500
v 10.000 1.000 4.500
v 10.000 1.000 5.500
v 10.000 2.000 -5.500
v 10.000 2.000 -4.500
v 10.000 2.000 4.500
v 10.000 2.000 5.500
v 10.000 3.000 -4.500
v 10.000 3.000 -3.500
v 10.000 2.000 -3.500
v 10.000 2.000 3.500
v 10.000 3.000 3.500
v 10.000 3.000 4.500
v 10.000 4.000 -3.500
v 10.000 4.000 -2.500
v 10.000 3.000 -2.500
v 10.000 3.000 2.500
v 10.000 4.000 2.500
v 10.000 4.000 3.500
v 10.000 5.000 -3.500
v 10.000 5.000 -2.500
v 10.000 5.000 -1.500
v 10.000 4.000 -1.500
v 10.000 5.000 -0.500
v 10.000 4.000 -0.500
v 10.000 5.000 0.500
v 10.000 4.000 0.500
v 10.000 5.000 1.500
v 10.000 4.000 1.500
v 10.000 5.000 2.500
v 10.000 5.000 3.500
v 11.000 -4.000 -2.500
v 11.000 -3.000 -2.500
v 11.000 -3.000 -1.500
v 11.000 -4.000 -1.500
v 11.000 -3.000 -0.500
v 11.000 -4.000 -0.500
v 11.000 -3.000 0.500
v 11.000 -4.000 0.500
v 11.000 -3.000 1.500
v 11.000 -4.000 1.500
v 11.000 -3.000 2.500
v 11.000 -4.000 2.500
v 11.000 -3.000 -3.500
v 11.000 -2.000 -3.500
v 11.000 -2.000 -2.500
v 11.000 -2.000 2.500
v 11.000 -2.000 3.500
v 11.000 -3.000 3.500
v 11.000 -2.000 -4.500
v 11.000 -1.000 -4.500
v 11.000 -1.000 -3.500
v 11.000 -1.000 3.500
v 11.000 -1.000 4.500
v 11.000 -2.000 4.500
v 11.000 0.000 -4.500
v 11.000 0.000 -3.500
v 11.000 0.000 3.500
v 11.000 0.000 4.500
v 11.000 1.000 -4.500
v 11.000 1.000 -3.500
v 11.000 1.000 3.500
v 11.000 1.000 4.500
v 11.000 2.000 -4.500
v 11.000 2.000 -3.500
v 11.000 2.000 3.500
v 11.000 2.000 4.500
v 11.000 3.000 -3.500
v 11.000 3.000 -2.500
v 11.000 2.000 -2.500
v 11.000 2.000 2.500
v 11.000 3.000 2.500
v 11.000 3.000 3.500
v 11.000 4.000 -2.500
v 11.000 4.000 -1.500
v 11.000 3.000 -1.500
v 11.000 4.000 -0.500
v 11.000 3.000 -0.500
v 11.000 4.000 0.500
v 11.000 3.000 0.500
v 11.000 4.000 1.500
v 11.000 3.000 1.500
v 11.000 4.000 2.500
v 12.000 -3.000 -2.500
v 12.000 -2.000 -2.500
v 12.000 -2.000 -1.500
v 12.000 -3.000 -1.500
v 12.000 -3.000 -0.500
v 12.000 -3.000 0.500
v 12.000 -3.000 1.500
v 12.000 -2.000 1.500
v 12.000 -2.000 2.500
v 12.000 -3.000 2.500
v 12.000 -2.000 -3.500
v 12.000 -1.000 -3.500
v 12.000 -1.000 -2.500
v 12.000 -1.000 2.500
v 12.000 -1.000 3.500
v 12.000 -2.000 3.500
v 12.000 0.000 -3.500
v 12.000 0.000 -2.500
v 12.000 0.000 2.500
v 12.000 0.000 3.500
v 12.000 1.000 -3.500
v 12.000 1.000 -2.500
v 12.000 1.000 2.500
v 12.000 1.000 3.500
v 12.000 2.000 -3.500
v 12.000 2.000 -2.500
v 12.000 2.000 2.500
v 12.000 2.000 3.500
v 12.000 3.000 -2.500
v 12.000 3.000 -1.500
v 12.000 2.000 -1.500
v 12.000 3.000 -0.500
v 12.000 3.000 0.500
v 12.000 3.000 1.500
v 12.000 2.000 1.500
v 12.000 3.000 2.500
v 13.000 -3.000 -1.500
v 13.000 -2.000 -1.500
v 13.000 -2.000 -0.500
v 13.000 -3.000 -0.500
v 13.000 -2.000 0.500
v 13.000 -3.000 0.500
v 13.000 -2.000 1.500
v 13.000 -3.000 1.500
v 13.000 -2.000 -2.500
v 13.000 -1.000 -2.500
v 13.000 -1.000 -1.500
v 13.000 -1.000 1.500
v 13.000 -1.000 2.500
v 13.000 -2.000 2.500
v 13.000 0.000 -2.500
v 13.000 0.000 -1.500
v 13.000 0.000 1.500
v 13.000 0.000 2.500
v 13.000 1.000 -2.500
v 13.000 1.000 -1.500
v 13.000 1.000 1.500
v 13.000 1.000 2.500
v 13.000 2.000 -2.500
v 13.000 2.000 -1.500
v 13.000 2.000 1.500
v 13.000 2.000 2.500
v 13.000 3.000 -1.500
v 13.000 3.000 -0.500
v 13.000 2.000 -0.500
v 13.000 3.000 0.500
v 13.000 2.000 0.500
v 13.000 3.000 1.500
v 14.000 -2.000 -1.500
v 14.000 -2.000 -0.500
v 14.000 -1.000 -1.500
v 14.000 -2.000 0.500
v 14.000 -2.000 1.500
v 14.000 -1.000 1.500
v 14.000 0.000 -1.500
v 14.000 0.000 1.500
v 14.000 1.000 -1.500
v 14.000 1.000 1.500
v 14.000 2.000 -0.500
v 14.000 2.000 -1.500
v 14.000 2.000 0.500
v 14.000 2.000 1.500
v 15.000 -2.000 -1.500
v 15.000 -1.000 -1.500
v 15.000 -1.000 -0.500
v 15.000 -2.000 -0.500
v 15.000 -1.000 0.500
v 15.000 -2.000 0.500
v 15.000 -1.000 1.500
v 15.000 -2.000 1.500
v 15.000 0.000 -1.500
v 15.000 0.000 -0.500
v 15.000 0.000 0.500
v 15.000 0.000 1.500
v 15.000 1.000 -1.500
v 15.000 1.000 -0.500
v 15.000 1.000 0.500
v 15.000 1.000 1.500
v 15.000 2.000 -1.500
v 15.000 2.000 -0.500
v 15.000 2.000 0.500
v 15.000 2.000 1.500
v 16.000 -1.000 -0.500
v 16.000 0.000 -0.500
v 16.000 0.000 0.500
v 16.000 -1.000 0.500
v 16.000 1.000 -0.500
v 16.000 1.000 0.500
f 1 2 3 4
f 1 4 5 6
f 5 4 3 7
f 8 9 2 1
f 8 1 6 10
f 11 12 9 8
f 11 8 10 13
f 14 15 12 11
f 14 11 13 16
f 17 18 15 14
f 17 14 16 19
f 17 19 20 18
f 3 21 22 23
f 3 23 24 7
f 24 23 22 25
f 2 26 21 3
f 9 27 26 2
f 12 28 27 9
f 15 29 28 12
f 18 30 29 15
f 31 32 30 18
f 31 18 20 33
f 31 33 34 32
f 22 35 36 37
f 22 37 38 25
f 38 37 36 39
f 21 40 35 22
f 26 41 40 21
f 27 42 41 26
f 28 43 42 27
f 29 44 43 28
f 30 45 44 29
f 32 46 45 30
f 47 48 46 32
f 47 32 34 49
f 47 49 50 48
f 35 51 52 36
f 39 36 52 53
f 40 54 51 35
f 41 55 54 40
f 42 56 55 41
f 43 57 56 42
f 44 58 57 43
f 45 59 58 44
f 46 60 59 45
f 48 61 60 46
f 48 50 62 61
f 51 63 64 52
f 53 52 64 65
f 54 66 63 51
f 55 67 66 54
f 56 68 67 55
f 57 69 68 56
f 58 70 69 57
f 59 71 70 58
f 60 72 71 59
f 61 73 72 60
f 61 62 74 73
f 63 75 76 64
f 76 75 77 78
f 65 64 76 78
f 66 79 75 63
f 67 80 79 66
f 68 81 80 67
f 69 82 81 68
f 70 83 82 69
f 71 84 83 70
f 72 85 84 71
f 73 86 85 72
f 85 86 87 88
f 73 74 87 86
f 79 89 90 75
f 90 89 91 92
f 77 75 90 92
f 80 93 89 79
f 81 94 93 80
f 82 95 94 81
f 83 96 95 82
f 84 97 96 83
f 85 98 97 84
f 97 98 99 100
f 85 88 99 98
f 93 101 102 89
f 102 101 103 104
f 91 89 102 104
f 94 105 101 93
f 101 105 106 103
f 95 107 105 94
f 105 107 108 106
f 96 109 107 95
f 107 109 110 108
f 97 111 109 96
f 109 111 112 110
f 97 100 112 111
f 6 5 113 114
f 113 5 7 115
f 10 6 114 116
f 13 10 116 117
f 16 13 117 118
f 19 16 118 119
f 19 119 120 20
f 7 24 121 115
f 121 24 25 122
f 33 20 120 123
f 33 123 124 34
f 25 38 125 122
f 125 38 39 126
f 49 34 124 127
f 49 127 128 50
f 126 39 53 129
f 50 128 130 62
f 129 53 65 131
f 62 130 132 74
f 78 77 133 134
f 131 65 78 134
f 88 87 135 136
f 74 132 135 87
f 92 91 137 138
f 133 77 92 138
f 100 99 139 140
f 88 136 139 99
f 104 103 141 142
f 137 91 104 142
f 103 106 143 141
f 106 108 144 143
f 108 110 145 144
f 110 112 146 145
f 100 140 146 112
f 114 113 147 148
f 147 113 115 149
f 116 114 148 150
f 117 116 150 151
f 118 117 151 152
f 119 118 152 153
f 119 153 154 120
f 115 121 155 149
f 155 121 122 156
f 123 120 154 157
f 123 157 158 124
f 122 125 159 156
f 159 125 126 160
f 127 124 158 161
f 127 161 162 128
f 160 126 129 163
f 128 162 164 130
f 163 129 131 165
f 130 164 166 132
f 134 133 167 168
f 165 131 134 168
f 136 135 169 170
f 132 166 169 135
f 138 137 171 172
f 167 133 138 172
f 140 139 173 174
f 136 170 173 139
f 142 141 175 176
f 171 137 142 176
f 141 143 177 175
f 143 144 178 177
f 144 145 179 178
f 145 146 180 179
f 140 174 180 146
f 148 147 181 182
f 181 147 149 183
f 150 148 182 184
f 151 150 184 185
f 152 151 185 186
f 153 152 186 187
f 153 187 188 154
f 149 155 189 183
f 189 155 156 190
f 157 154 188 191
f 157 191 192 158
f 156 159 193 190
f 193 159 160 194
f 161 158 192 195
f 161 195 196 162
f 194 160 163 197
f 162 196 198 164
f 197 163 165 199
f 164 198 200 166
f 168 167 201 202
f 199 165 168 202
f 170 169 203 204
f 166 200 203 169
f 172 171 205 206
f 201 167 172 206
f 174 173 207 208
f 170 204 207 173
f 176 175 209 210
f 205 171 176 210
f 175 177 211 209
f 177 178 212 211
f 178 179 213 212
f 179 180 214 213
f 174 208 214 180
f 182 181 215 216
f 215 181 183 217
f 184 182 216 218
f 185 184 218 219
f 186 185 219 220
f 187 186 220 221
f 187 221 222 188
f 183 189 223 217
f 223 189 190 224
f 191 188 222 225
f 191 225 226 192
f 190 193 227 224
f 227 193 194 228
f 195 192 226 229
f 195 229 230 196
f 228 194 197 231
f 196 230 232 198
f 231 197 199 233
f 198 232 234 200
f 202 201 235 236
f 233 199 202 236
f 204 203 237 238
f 200 234 237 203
f 206 205 239 240
f 235 201 206 240
f 208 207 241 242
f 204 238 241 207
f 210 209 243 244
f 239 205 210 244
f 209 211 245 243
f 211 212 246 245
f 212 213 247 246
f 213 214 248 247
f 208 242 248 214
f 216 215 249 250
f 249 215 217 251
f 218 216 250 252
f 219 218 252 253
f 220 219 253 254
f 221 220 254 255
f 221 255 256 222
f 217 223 257 251
f 257 223 224 258
f 225 222 256 259
f 225 259 260 226
f 224 227 261 258
f 261 227 228 262
f 229 226 260 263
f 229 263 264 230
f 262 228 231 265
f 230 264 266 232
f 265 231 233 267
f 232 266 268 234
f 236 235 269 270
f 267 233 236 270
f 238 237 271 272
f 234 268 271 237
f 240 239 273 274
f 269 235 240 274
f 242 241 275 276
f 238 272 275 241
f 244 243 277 278
f 273 239 244 278
f 243 245 279 277
f 245 246 280 279
f 246 247 281 280
f 247 248 282 281
f 242 276 282 248
f 283 284 285 286
f 250 249 283 286
f 283 249 251 284
f 286 285 287 288
f 252 250 286 288
f 288 287 289 290
f 253 252 288 290
f 290 289 291 292
f 254 253 290 292
f 292 291 293 294
f 255 254 292 294
f 255 294 293 256
f 295 296 297 284
f 251 257 295 284
f 295 257 258 296
f 284 297 298 285
f 285 298 299 287
f 287 299 300 289
f 289 300 301 291
f 291 301 302 293
f 293 302 303 304
f 259 256 293 304
f 259 304 303 260
f 305 306 307 296
f 258 261 305 296
f 305 261 262 306
f 296 307 308 297
f 297 308 309 298
f 301 310 311 302
f 302 311 312 303
f 303 312 313 314
f 263 260 303 314
f 263 314 313 264
f 306 315 316 307
f 306 262 265 315
f 307 316 317 308
f 311 318 319 312
f 312 319 320 313
f 264 313 320 266
f 315 321 322 316
f 315 265 267 321
f 316 322 323 317
f 318 324 325 319
f 319 325 326 320
f 266 320 326 268
f 321 327 328 322
f 270 269 328 327
f 321 267 270 327
f 322 328 329 323
f 323 329 330 331
f 332 333 334 324
f 324 334 335 325
f 325 335 336 326
f 272 271 336 335
f 268 326 336 271
f 328 337 338 329
f 274 273 338 337
f 328 269 274 337
f 329 338 339 330
f 330 339 340 341
f 341 340 342 343
f 343 342 344 333
f 333 344 345 334
f 334 345 346 335
f 276 275 346 345
f 272 335 346 275
f 338 347 348 339
f 278 277 348 347
f 338 273 278 347
f 339 348 349 340
f 277 279 349 348
f 340 349 350 342
f 279 280 350 349
f 342 350 351 344
f 280 281 351 350
f 344 351 352 345
f 281 282 352 351
f 276 345 352 282
f 299 298 353 354
f 353 298 309 355
f 300 299 354 356
f 301 300 356 357
f 301 357 358 310
f 309 308 359 355
f 359 308 317 360
f 311 310 358 361
f 311 361 362 318
f 323 331 363 364
f 360 317 323 364
f 332 324 365 366
f 318 362 365 324
f 330 341 367 368
f 363 331 330 368
f 341 343 369 367
f 343 333 370 369
f 332 366 370 333
f 354 353 371 372
f 371 353 355 373
f 356 354 372 374
f 357 356 374 375
f 357 375 376 358
f 355 359 377 373
f 377 359 360 378
f 361 358 376 379
f 361 379 380 362
f 364 363 381 382
f 378 360 364 382
f 366 365 383 384
f 362 380 383 365
f 368 367 385 386
f 381 363 368 386
f 367 369 387 385
f 369 370 388 387
f 366 384 388 370
f 372 371 389 390
f 389 371 373 391
f 374 372 390 392
f 375 374 392 393
f 375 393 394 376
f 373 377 395 391
f 395 377 378 396
f 379 376 394 397
f 379 397 398 380
f 382 381 399 400
f 396 378 382 400
f 384 383 401 402
f 380 398 401 383
f 386 385 403 404
f 399 381 386 404
f 385 387 405 403
f 387 388 406 405
f 384 402 406 388
f 390 389 407 408
f 407 389 391 409
f 392 390 408 410
f 393 392 410 411
f 393 411 412 394
f 391 395 413 409
f 413 395 396 414
f 397 394 412 415
f 397 415 416 398
f 400 399 417 418
f 414 396 400 418
f 402 401 419 420
f 398 416 419 401
f 404 403 421 422
f 417 399 404 422
f 403 405 423 421
f 405 406 424 423
f 402 420 424 406
f 408 407 425 426
f 425 407 409 427
f 410 408 426 428
f 411 410 428 429
f 411 429 430 412
f 409 413 431 427
f 431 413 414 432
f 415 412 430 433
f 415 433 434 416
f 418 417 435 436
f 432 414 418 436
f 420 419 437 438
f 416 434 437 419
f 422 421 439 440
f 435 417 422 440
f 421 423 441 439
f 423 424 442 441
f 420 438 442 424
f 426 425 443 444
f 443 425 427 445
f 428 426 444 446
f 429 428 446 447
f 429 447 448 430
f 427 431 449 445
f 449 431 432 450
f 433 430 448 451
f 433 451 452 434
f 436 435 453 454
f 450 432 436 454
f 438 437 455 456
f 434 452 455 437
f 440 439 457 458
f 453 435 440 458
f 439 441 459 457
f 441 442 460 459
f 438 456 460 442
f 444 443 461 462
f 461 443 445 463
f 446 444 462 464
f 447 446 464 465
f 447 465 466 448
f 445 449 467 463
f 467 449 450 468
f 451 448 466 469
f 451 469 470 452
f 454 453 471 472
f 468 450 454 472
f 456 455 473 474
f 452 470 473 455
f 458 457 475 476
f 471 453 458 476
f 457 459 477 475
f 459 460 478 477
f 456 474 478 460
f 462 461 479 480
f 479 461 463 481
f 464 462 480 482
f 465 464 482 483
f 465 483 484 466
f 463 467 485 481
f 485 467 468 486
f 469 466 484 487
f 469 487 488 470
f 472 471 489 490
f 486 468 472 490
f 474 473 491 492
f 470 488 491 473
f 476 475 493 494
f 489 471 476 494
f 475 477 495 493
f 477 478 496 495
f 474 492 496 478
f 497 479 498 499
f 497 499 500 501
f 500 499 498 502
f 503 480 479 497
f 503 497 501 504
f 505 482 480 503
f 505 503 504 506
f 507 483 482 505
f 507 505 506 508
f 509 510 483 507
f 509 507 508 511
f 509 511 512 510
f 498 485 513 514
f 498 514 515 502
f 515 514 513 516
f 479 481 485 498
f 510 487 484 483
f 517 518 487 510
f 517 510 512 519
f 517 519 520 518
f 485 486 521 513
f 516 513 521 522
f 518 523 488 487
f 518 520 524 523
f 486 490 525 521
f 522 521 525 526
f 523 527 491 488
f 523 524 528 527
f 490 529 530 525
f 530 529 531 532
f 526 525 530 532
f 489 494 529 490
f 491 533 496 492
f 527 534 533 491
f 533 534 535 536
f 527 528 535 534
f 494 537 538 529
f 538 537 539 540
f 531 529 538 540
f 493 541 537 494
f 537 541 542 539
f 495 543 541 493
f 541 543 544 542
f 496 545 543 495
f 543 545 546 544
f 533 547 545 496
f 545 547 548 546
f 533 536 548 547
f 501 500 549 550
f 549 500 502 551
f 504 501 550 552
f 506 504 552 553
f 508 506 553 554
f 511 508 554 555
f 511 555 556 512
f 502 515 557 551
f 557 515 516 558
f 519 512 556 559
f 519 559 560 520
f 558 516 522 561
f 520 560 562 524
f 561 522 526 563
f 524 562 564 528
f 532 531 565 566
f 563 526 532 566
f 536 535 567 568
f 528 564 567 535
f 540 539 569 570
f 565 531 540 570
f 539 542 571 569
f 542 544 572 571
f 544 546 573 572
f 546 548 574 573
f 536 568 574 548
f 550 549 575 576
f 575 549 551 577
f 552 550 576 578
f 553 552 578 579
f 554 553 579 580
f 555 554 580 581
f 555 581 582 556
f 551 557 583 577
f 583 557 558 584
f 559 556 582 585
f 559 585 586 560
f 584 558 561 587
f 560 586 588 562
f 587 561 563 589
f 562 588 590 564
f 566 565 591 592
f 589 563 566 592
f 568 567 593 594
f 564 590 593 567
f 570 569 595 596
f 591 565 570 596
f 569 571 597 595
f 571 572 598 597
f 572 573 599 598
f 573 574 600 599
f 568 594 600 574
f 576 575 601 602
f 601 575 577 603
f 578 576 602 604
f 579 578 604 605
f 580 579 605 606
f 581 580 606 607
f 581 607 608 582
f 577 583 609 603
f 609 583 584 610
f 585 582 608 611
f 585 611 612 586
f 610 584 587 613
f 586 612 614 588
f 613 587 589 615
f 588 614 616 590
f 592 591 617 618
f 615 589 592 618
f 594 593 619 620
f 590 616 619 593
f 596 595 621 622
f 617 591 596 622
f 595 597 623 621
f 597 598 624 623
f 598 599 625 624
f 599 600 626 625
f 594 620 626 600
f 627 602 601 628
f 627 628 629 630
f 629 628 601 631
f 632 604 602 627
f 632 627 630 633
f 634 605 604 632
f 634 632 633 635
f 636 606 605 634
f 636 634 635 637
f 638 607 606 636
f 638 636 637 639
f 638 639 640 607
f 601 603 609 641
f 601 641 642 631
f 642 641 609 643
f 644 611 608 607
f 644 607 640 645
f 644 645 646 611
f 609 610 647 648
f 609 648 649 643
f 649 648 647 650
f 651 652 612 611
f 651 611 646 653
f 651 653 654 652
f 610 613 655 647
f 650 647 655 656
f 652 657 614 612
f 652 654 658 657
f 613 615 659 655
f 656 655 659 660
f 657 661 616 614
f 657 658 662 661
f 615 618 663 659
f 663 618 664 665
f 660 659 663 665
f 661 666 619 616
f 619 666 667 668
f 661 662 667 666
f 617 622 669 618
f 669 622 670 671
f 664 618 669 671
f 619 672 626 620
f 626 672 673 674
f 619 668 673 672
f 621 675 676 622
f 676 675 677 678
f 670 622 676 678
f 623 679 675 621
f 675 679 680 677
f 624 681 679 623
f 679 681 682 680
f 625 683 681 624
f 681 683 684 682
f 626 685 683 625
f 683 685 686 684
f 626 674 686 685
f 630 629 687 688
f 687 629 631 689
f 633 630 688 690
f 635 633 690 691
f 637 635 691 692
f 639 637 692 693
f 639 693 694 640
f 631 642 695 689
f 695 642 643 696
f 645 640 694 697
f 645 697 698 646
f 643 649 699 696
f 699 649 650 700
f 653 646 698 701
f 653 701 702 654
f 700 650 656 703
f 654 702 704 658
f 703 656 660 705
f 658 704 706 662
f 665 664 707 708
f 705 660 665 708
f 668 667 709 710
f 662 706 709 667
f 671 670 711 712
f 707 664 671 712
f 674 673 713 714
f 668 710 713 673
f 678 677 715 716
f 711 670 678 716
f 677 680 717 715
f 680 682 718 717
f 682 684 719 718
f 684 686 720 719
f 674 714 720 686
f 688 687 721 722
f 721 687 689 723
f 690 688 722 724
f 691 690 724 725
f 692 691 725 726
f 693 692 726 727
f 693 727 728 694
f 689 695 729 723
f 729 695 696 730
f 697 694 728 731
f 697 731 732 698
f 696 699 733 730
f 733 699 700 734
f 701 698 732 735
f 701 735 736 702
f 734 700 703 737
f 702 736 738 704
f 737 703 705 739
f 704 738 740 706
f 708 707 741 742
f 739 705 708 742
f 710 709 743 744
f 706 740 743 709
f 712 711 745 746
f 741 707 712 746
f 714 713 747 748
f 710 744 747 713
f 716 715 749 750
f 745 711 716 750
f 715 717 751 749
f 717 718 752 751
f 718 719 753 752
f 719 720 754 753
f 714 748 754 720
f 755 721 756 757
f 755 757 758 759
f 758 757 756 760
f 761 722 721 755
f 761 755 759 762
f 763 724 722 761
f 763 761 762 764
f 765 725 724 763
f 765 763 764 766
f 767 726 725 765
f 767 765 766 768
f 769 727 726 767
f 769 767 768 770
f 771 772 727 769
f 771 769 770 773
f 771 773 774 772
f 721 723 729 756
f 760 756 729 775
f 772 731 728 727
f 772 774 776 731
f 729 730 733 777
f 729 777 778 775
f 778 777 733 779
f 780 735 732 731
f 780 731 776 781
f 780 781 782 735
f 733 734 783 784
f 733 784 785 779
f 785 784 783 786
f 787 788 736 735
f 787 735 782 789
f 787 789 790 788
f 734 737 791 783
f 786 783 791 792
f 788 793 738 736
f 788 790 794 793
f 737 739 795 791
f 792 791 795 796
f 793 797 740 738
f 793 794 798 797
f 739 742 799 795
f 799 742 800 801
f 796 795 799 801
f 797 802 743 740
f 743 802 803 804
f 797 798 803 802
f 741 746 805 742
f 805 746 806 807
f 800 742 805 807
f 743 808 747 744
f 747 808 809 810
f 743 804 809 808
f 745 750 811 746
f 806 746 811 812
f 747 813 754 748
f 747 810 814 813
f 750 815 816 811
f 816 815 817 818
f 812 811 816 818
f 749 819 815 750
f 815 819 820 817
f 751 821 819 749
f 819 821 822 820
f 752 823 821 751
f 821 823 824 822
f 753 825 823 752
f 823 825 826 824
f 754 827 825 753
f 825 827 828 826
f 813 829 827 754
f 827 829 830 828
f 813 814 830 829
f 759 758 831 832
f 831 758 760 833
f 762 759 832 834
f 764 762 834 835
f 766 764 835 836
f 768 766 836 837
f 770 768 837 838
f 773 770 838 839
f 773 839 840 774
f 833 760 775 841
f 774 840 842 776
f 775 778 843 841
f 843 778 779 844
f 781 776 842 845
f 781 845 846 782
f 779 785 847 844
f 847 785 786 848
f 789 782 846 849
f 789 849 850 790
f 848 786 792 851
f 790 850 852 794
f 851 792 796 853
f 794 852 854 798
f 801 800 855 856
f 853 796 801 856
f 804 803 857 858
f 798 854 857 803
f 807 806 859 860
f 855 800 807 860
f 810 809 861 862
f 804 858 861 809
f 859 806 812 863
f 810 862 864 814
f 818 817 865 866
f 863 812 818 866
f 817 820 867 865
f 820 822 868 867
f 822 824 869 868
f 824 826 870 869
f 826 828 871 870
f 828 830 872 871
f 814 864 872 830
f 832 831 873 874
f 873 831 833 875
f 834 832 874 876
f 835 834 876 877
f 836 835 877 878
f 837 836 878 879
f 838 837 879 880
f 839 838 880 881
f 839 881 882 840
f 875 833 841 883
f 840 882 884 842
f 841 843 885 883
f 885 843 844 886
f 845 842 884 887
f 845 887 888 846
f 844 847 889 886
f 889 847 848 890
f 849 846 888 891
f 849 891 892 850
f 890 848 851 893
f 850 892 894 852
f 893 851 853 895
f 852 894 896 854
f 856 855 897 898
f 895 853 856 898
f 858 857 899 900
f 854 896 899 857
f 860 859 901 902
f 897 855 860 902
f 862 861 903 904
f 858 900 903 861
f 901 859 863 905
f 862 904 906 864
f 866 865 907 908
f 905 863 866 908
f 865 867 909 907
f 867 868 910 909
f 868 869 911 910
f 869 870 912 911
f 870 871 913 912
f 871 872 914 913
f 864 906 914 872
f 915 916 917 918
f 874 873 915 918
f 915 873 875 916
f 918 917 919 920
f 876 874 918 920
f 920 919 921 922
f 877 876 920 922
f 922 921 923 924
f 878 877 922 924
f 924 923 925 926
f 879 878 924 926
f 926 925 927 928
f 880 879 926 928
f 928 927 929 930
f 881 880 928 930
f 881 930 929 882
f 916 931 932 917
f 916 875 883 931
f 927 933 934 929
f 882 929 934 884
f 935 936 937 931
f 883 885 935 931
f 935 885 886 936
f 934 938 939 940
f 887 884 934 940
f 887 940 939 888
f 941 942 943 936
f 886 889 941 936
f 941 889 890 942
f 939 944 945 946
f 891 888 939 946
f 891 946 945 892
f 942 947 948 943
f 942 890 893 947
f 944 949 950 945
f 892 945 950 894
f 947 951 952 948
f 947 893 895 951
f 949 953 954 950
f 894 950 954 896
f 951 955 956 952
f 898 897 956 955
f 951 895 898 955
f 953 957 958 954
f 900 899 958 957
f 896 954 958 899
f 956 959 960 961
f 902 901 960 959
f 956 897 902 959
f 962 963 964 957
f 904 903 964 963
f 900 957 964 903
f 960 965 966 967
f 960 901 905 965
f 968 969 970 963
f 904 963 970 906
f 965 971 972 966
f 908 907 972 971
f 965 905 908 971
f 966 972 973 974
f 907 909 973 972
f 974 973 975 976
f 909 910 975 973
f 976 975 977 978
f 910 911 977 975
f 978 977 979 980
f 911 912 979 977
f 980 979 981 969
f 912 913 981 979
f 969 981 982 970
f 913 914 982 981
f 906 970 982 914
f 983 984 985 986
f 919 917 983 986
f 983 917 932 984
f 986 985 987 988
f 921 919 986 988
f 988 987 989 990
f 923 921 988 990
f 990 989 991 992
f 925 923 990 992
f 992 991 993 994
f 927 925 992 994
f 927 994 993 933
f 995 996 997 984
f 932 931 995 984
f 995 931 937 996
f 993 998 999 1000
f 934 933 993 1000
f 934 1000 999 938
f 1001 1002 1003 996
f 937 936 1001 996
f 1001 936 943 1002
f 999 1004 1005 1006
f 939 938 999 1006
f 939 1006 1005 944
f 1002 1007 1008 1003
f 1002 943 948 1007
f 1004 1009 1010 1005
f 944 1005 1010 949
f 1007 1011 1012 1008
f 1007 948 952 1011
f 1009 1013 1014 1010
f 949 1010 1014 953
f 1011 1015 1016 1012
f 956 961 1016 1015
f 1011 952 956 1015
f 1013 1017 1018 1014
f 962 957 1018 1017
f 953 1014 1018 957
f 1016 1019 1020 1021
f 960 967 1020 1019
f 1016 961 960 1019
f 1022 1023 1024 1017
f 968 963 1024 1023
f 962 1017 1024 963
f 1020 1025 1026 1027
f 966 974 1026 1025
f 1020 967 966 1025
f 1027 1026 1028 1029
f 974 976 1028 1026
f 1029 1028 1030 1031
f 976 978 1030 1028
f 1031 1030 1032 1033
f 978 980 1032 1030
f 1033 1032 1034 1023
f 980 969 1034 1032
f 968 1023 1034 969
f 1035 1036 1037 1038
f 985 984 1035 1038
f 1035 984 997 1036
f 987 985 1038 1039
f 989 987 1039 1040
f 991 989 1040 1041
f 1041 1042 1043 1044
f 993 991 1041 1044
f 993 1044 1043 998
f 1045 1046 1047 1036
f 997 996 1045 1036
f 1045 996 1003 1046
f 1043 1048 1049 1050
f 999 998 1043 1050
f 999 1050 1049 1004
f 1046 1051 1052 1047
f 1046 1003 1008 1051
f 1048 1053 1054 1049
f 1004 1049 1054 1009
f 1051 1055 1056 1052
f 1051 1008 1012 1055
f 1053 1057 1058 1054
f 1009 1054 1058 1013
f 1055 1059 1060 1056
f 1016 1021 1060 1059
f 1055 1012 1016 1059
f 1057 1061 1062 1058
f 1022 1017 1062 1061
f 1013 1058 1062 1017
f 1060 1063 1064 1065
f 1020 1027 1064 1063
f 1060 1021 1020 1063
f 1027 1029 1066 1064
f 1029 1031 1067 1066
f 1031 1033 1068 1067
f 1069 1068 1070 1061
f 1033 1023 1070 1068
f 1022 1061 1070 1023
f 1071 1072 1073 1074
f 1039 1038 1071 1074
f 1071 1038 1037 1072
f 1074 1073 1075 1076
f 1040 1039 1074 1076
f 1076 1075 1077 1078
f 1041 1040 1076 1078
f 1041 1078 1077 1042
f 1079 1080 1081 1072
f 1037 1036 1079 1072
f 1079 1036 1047 1080
f 1077 1082 1083 1084
f 1043 1042 1077 1084
f 1043 1084 1083 1048
f 1080 1085 1086 1081
f 1080 1047 1052 1085
f 1082 1087 1088 1083
f 1048 1083 1088 1053
f 1085 1089 1090 1086
f 1085 1052 1056 1089
f 1087 1091 1092 1088
f 1053 1088 1092 1057
f 1089 1093 1094 1090
f 1060 1065 1094 1093
f 1089 1056 1060 1093
f 1091 1095 1096 1092
f 1069 1061 1096 1095
f 1057 1092 1096 1061
f 1094 1097 1098 1099
f 1064 1066 1098 1097
f 1094 1065 1064 1097
f 1099 1098 1100 1101
f 1066 1067 1100 1098
f 1101 1100 1102 1095
f 1067 1068 1102 1100
f 1069 1095 1102 1068
f 1073 1072 1103 1104
f 1103 1072 1081 1105
f 1075 1073 1104 1106
f 1077 1075 1106 1107
f 1077 1107 1108 1082
f 1105 1081 1086 1109
f 1082 1108 1110 1087
f 1109 1086 1090 1111
f 1087 1110 1112 1091
f 1094 1099 1113 1114
f 1111 1090 1094 1114
f 1099 1101 1115 1113
f 1101 1095 1116 1115
f 1091 1112 1116 1095
f 1117 1118 1119 1120
f 1104 1103 1117 1120
f 1117 1103 1105 1118
f 1120 1119 1121 1122
f 1106 1104 1120 1122
f 1122 1121 1123 1124
f 1107 1106 1122 1124
f 1107 1124 1123 1108
f 1118 1125 1126 1119
f 1118 1105 1109 1125
f 1121 1127 1128 1123
f 1108 1123 1128 1110
f 1125 1129 1130 1126
f 1125 1109 1111 1129
f 1127 1131 1132 1128
f 1110 1128 1132 1112
f 1129 1133 1134 1130
f 1114 1113 1134 1133
f 1129 1111 1114 1133
f 1130 1134 1135 1131
f 1113 1115 1135 1134
f 1131 1135 1136 1132
f 1115 1116 1136 1135
f 1112 1132 1136 1116
f 1137 1138 1139 1140
f 1121 1119 1137 1140
f 1121 1140 1139 1127
f 1137 1119 1126 1138
f 1138 1141 1142 1139
f 1130 1131 1142 1141
f 1127 1139 1142 1131
f 1138 1126 1130 1141
