# F-mushroom — lifted from a 2D silhouette by aide.lift
o F-mushroom
v -17.000 -4.000 -1.500
v -17.000 -3.000 -1.500
v -17.000 -3.000 -2.500
v -17.000 -4.000 -2.500
v -16.000 -4.000 -2.500
v -16.000 -4.000 -1.500
v -16.000 -3.000 -2.500
v -17.000 -4.000 -0.500
v -17.000 -3.000 -0.500
v -16.000 -4.000 -0.500
v -17.000 -4.000 0.500
v -17.000 -3.000 0.500
v -16.000 -4.000 0.500
v -17.000 -4.000 1.500
v -17.000 -3.000 1.500
v -16.000 -4.000 1.500
v -17.000 -4.000 2.500
v -17.000 -3.000 2.500
v -16.000 -4.000 2.500
v -16.000 -3.000 2.500
v -17.000 -2.000 -2.500
v -17.000 -2.000 -3.500
v -17.000 -3.000 -3.500
v -16.000 -3.000 -3.500
v -16.000 -2.000 -3.500
v -17.000 -2.000 -1.500
v -17.000 -2.000 -0.500
v -17.000 -2.000 0.500
v -17.000 -2.000 1.500
v -17.000 -2.000 2.500
v -17.000 -3.000 3.500
v -17.000 -2.000 3.500
v -16.000 -3.000 3.500
v -16.000 -2.000 3.500
v -17.000 -1.000 -3.500
v -17.000 -1.000 -4.500
v -17.000 -2.000 -4.500
v -16.000 -2.000 -4.500
v -16.000 -1.000 -4.500
v -17.000 -1.000 -2.500
v -17.000 -1.000 -1.500
v -17.000 -1.000 -0.500
v -17.000 -1.000 0.500
v -17.000 -1.000 1.500
v -17.000 -1.000 2.500
v -17.000 -1.000 3.500
v -17.000 -2.000 4.500
v -17.000 -1.000 4.500
v -16.000 -2.000 4.500
v -16.000 -1.000 4.500
v -17.000 0.000 -3.500
v -17.000 0.000 -4.500
v -16.000 0.000 -4.500
v -17.000 0.000 -2.500
v -17.000 0.000 -1.500
v -17.000 0.000 -0.500
v -17.000 0.000 0.500
v -17.000 0.000 1.500
v -17.000 0.000 2.500
v -17.000 0.000 3.500
v -17.000 0.000 4.500
v -16.000 0.000 4.500
v -17.000 1.000 -3.500
v -17.000 1.000 -4.500
v -16.000 1.000 -4.500
v -17.000 1.000 -2.500
v -17.000 1.000 -1.500
v -17.000 1.000 -0.500
v -17.000 1.000 0.500
v -17.000 1.000 1.500
v -17.000 1.000 2.500
v -17.000 1.000 3.500
v -17.000 1.000 4.500
v -16.000 1.000 4.500
v -17.000 2.000 -3.500
v -17.000 2.000 -4.500
v -16.000 2.000 -3.500
v -16.000 2.000 -4.500
v -17.000 2.000 -2.500
v -17.000 2.000 -1.500
v -17.000 2.000 -0.500
v -17.000 2.000 0.500
v -17.000 2.000 1.500
v -17.000 2.000 2.500
v -17.000 2.000 3.500
v -17.000 2.000 4.500
v -16.000 2.000 4.500
v -16.000 2.000 3.500
v -17.000 3.000 -2.500
v -17.000 3.000 -3.500
v -16.000 3.000 -2.500
v -16.000 3.000 -3.500
v -17.000 3.000 -1.500
v -17.000 3.000 -0.500
v -17.000 3.000 0.500
v -17.000 3.000 1.500
v -17.000 3.000 2.500
v -17.000 3.000 3.500
v -16.000 3.000 3.500
v -16.000 3.000 2.500
v -17.000 4.000 -1.500
v -17.000 4.000 -2.500
v -16.000 4.000 -1.500
v -16.000 4.000 -2.500
v -17.000 4.000 -0.500
v -16.000 4.000 -0.500
v -17.000 4.000 0.500
v -16.000 4.000 0.500
v -17.000 4.000 1.500
v -16.000 4.000 1.500
v -17.000 4.000 2.500
v -16.000 4.000 2.500
v -15.000 -4.000 -2.500
v -15.000 -4.000 -1.500
v -15.000 -3.000 -2.500
v -15.000 -4.000 -0.500
v -15.000 -4.000 0.500
v -15.000 -4.000 1.500
v -15.000 -4.000 2.500
v -15.000 -3.000 2.500
v -15.000 -3.000 -3.500
v -15.000 -2.000 -3.500
v -15.000 -3.000 3.500
v -15.000 -2.000 3.500
v -15.000 -2.000 -4.500
v -15.000 -1.000 -4.500
v -15.000 -2.000 4.500
v -15.000 -1.000 4.500
v -15.000 0.000 -4.500
v -15.000 0.000 4.500
v -15.000 1.000 -4.500
v -15.000 1.000 4.500
v -15.000 2.000 -3.500
v -15.000 2.000 -4.500
v -15.000 2.000 4.500
v -15.000 2.000 3.500
v -15.000 3.000 -2.500
v -15.000 3.000 -3.500
v -15.000 3.000 3.500
v -15.000 3.000 2.500
v -15.000 4.000 -1.500
v -15.000 4.000 -2.500
v -15.000 4.000 -0.500
v -15.000 4.000 0.500
v -15.000 4.000 1.500
v -15.000 4.000 2.500
v -14.000 -4.000 -2.500
v -14.000 -4.000 -1.500
v -14.000 -3.000 -2.500
v -14.000 -4.000 -0.500
v -14.000 -4.000 0.500
v -14.000 -4.000 1.500
v -14.000 -4.000 2.500
v -14.000 -3.000 2.500
v -14.000 -3.000 -3.500
v -14.000 -2.000 -3.500
v -14.000 -3.000 3.500
v -14.000 -2.000 3.500
v -14.000 -2.000 -4.500
v -14.000 -1.000 -4.500
v -14.000 -2.000 4.500
v -14.000 -1.000 4.500
v -14.000 0.000 -4.500
v -14.000 0.000 4.500
v -14.000 1.000 -4.500
v -14.000 1.000 4.500
v -14.000 2.000 -3.500
v -14.000 2.000 -4.500
v -14.000 2.000 4.500
v -14.000 2.000 3.500
v -14.000 3.000 -2.500
v -14.000 3.000 -3.500
v -14.000 3.000 3.500
v -14.000 3.000 2.500
v -14.000 4.000 -1.500
v -14.000 4.000 -2.500
v -14.000 4.000 -0.500
v -14.000 4.000 0.500
v -14.000 4.000 1.500
v -14.000 4.000 2.500
v -13.000 -4.000 -2.500
v -13.000 -4.000 -1.500
v -13.000 -3.000 -2.500
v -13.000 -4.000 -0.500
v -13.000 -4.000 0.500
v -13.000 -4.000 1.500
v -13.000 -4.000 2.500
v -13.000 -3.000 2.500
v -13.000 -3.000 -3.500
v -13.000 -2.000 -3.500
v -13.000 -3.000 3.500
v -13.000 -2.000 3.500
v -13.000 -2.000 -4.500
v -13.000 -1.000 -4.500
v -13.000 -2.000 4.500
v -13.000 -1.000 4.500
v -13.000 0.000 -4.500
v -13.000 0.000 4.500
v -13.000 1.000 -4.500
v -13.000 1.000 4.500
v -13.000 2.000 -3.500
v -13.000 2.000 -4.500
v -13.000 2.000 4.500
v -13.000 2.000 3.500
v -13.000 3.000 -2.500
v -13.000 3.000 -3.500
v -13.000 3.000 3.500
v -13.000 3.000 2.500
v -13.000 4.000 -1.500
v -13.000 4.000 -2.500
v -13.000 4.000 -0.500
v -13.000 4.000 0.500
v -13.000 4.000 1.500
v -13.000 4.000 2.500
v -12.000 -4.000 -2.500
v -12.000 -4.000 -1.500
v -12.000 -3.000 -2.500
v -12.000 -4.000 -0.500
v -12.000 -4.000 0.500
v -12.000 -4.000 1.500
v -12.000 -4.000 2.500
v -12.000 -3.000 2.500
v -12.000 -3.000 -3.500
v -12.000 -2.000 -3.500
v -12.000 -3.000 3.500
v -12.000 -2.000 3.500
v -12.000 -2.000 -4.500
v -12.000 -1.000 -4.500
v -12.000 -2.000 4.500
v -12.000 -1.000 4.500
v -12.000 0.000 -4.500
v -12.000 0.000 4.500
v -12.000 1.000 -4.500
v -12.000 1.000 4.500
v -12.000 2.000 -3.500
v -12.000 2.000 -4.500
v -12.000 2.000 4.500
v -12.000 2.000 3.500
v -12.000 3.000 -2.500
v -12.000 3.000 -3.500
v -12.000 3.000 3.500
v -12.000 3.000 2.500
v -12.000 4.000 -1.500
v -12.000 4.000 -2.500
v -12.000 4.000 -0.500
v -12.000 4.000 0.500
v -12.000 4.000 1.500
v -12.000 4.000 2.500
v -11.000 -4.000 -2.500
v -11.000 -4.000 -1.500
v -11.000 -3.000 -2.500
v -11.000 -4.000 -0.500
v -11.000 -4.000 0.500
v -11.000 -4.000 1.500
v -11.000 -4.000 2.500
v -11.000 -3.000 2.500
v -11.000 -3.000 -3.500
v -11.000 -2.000 -3.500
v -11.000 -3.000 3.500
v -11.000 -2.000 3.500
v -11.000 -2.000 -4.500
v -11.000 -1.000 -4.500
v -11.000 -2.000 4.500
v -11.000 -1.000 4.500
v -11.000 0.000 -4.500
v -11.000 0.000 4.500
v -11.000 1.000 -4.500
v -11.000 1.000 4.500
v -11.000 2.000 -3.500
v -11.000 2.000 -4.500
v -11.000 2.000 4.500
v -11.000 2.000 3.500
v -11.000 3.000 -2.500
v -11.000 3.000 -3.500
v -11.000 3.000 3.500
v -11.000 3.000 2.500
v -11.000 4.000 -1.500
v -11.000 4.000 -2.500
v -11.000 4.000 -0.500
v -11.000 4.000 0.500
v -11.000 4.000 1.500
v -11.000 4.000 2.500
v -10.000 -4.000 -2.500
v -10.000 -3.000 -2.500
v -10.000 -3.000 -1.500
v -10.000 -4.000 -1.500
v -10.000 -3.000 -0.500
v -10.000 -4.000 -0.500
v -10.000 -3.000 0.500
v -10.000 -4.000 0.500
v -10.000 -3.000 1.500
v -10.000 -4.000 1.500
v -10.000 -3.000 2.500
v -10.000 -4.000 2.500
v -10.000 -3.000 -3.500
v -10.000 -2.000 -3.500
v -10.000 -2.000 -2.500
v -10.000 -2.000 -1.500
v -10.000 -2.000 -0.500
v -10.000 -2.000 0.500
v -10.000 -2.000 1.500
v -10.000 -2.000 2.500
v -10.000 -2.000 3.500
v -10.000 -3.000 3.500
v -10.000 -2.000 -4.500
v -10.000 -1.000 -4.500
v -10.000 -1.000 -3.500
v -10.000 -1.000 -2.500
v -10.000 -1.000 -1.500
v -10.000 -1.000 1.500
v -10.000 -1.000 2.500
v -10.000 -1.000 3.500
v -10.000 -1.000 4.500
v -10.000 -2.000 4.500
v -10.000 0.000 -4.500
v -10.000 0.000 -3.500
v -10.000 0.000 -2.500
v -10.000 0.000 2.500
v -10.000 0.000 3.500
v -10.000 0.000 4.500
v -10.000 1.000 -4.500
v -10.000 1.000 -3.500
v -10.000 1.000 -2.500
v -10.000 1.000 2.500
v -10.000 1.000 3.500
v -10.000 1.000 4.500
v -10.000 2.000 -4.500
v -10.000 2.000 -3.500
v -10.000 2.000 -2.500
v -10.000 2.000 -1.500
v -10.000 1.000 -1.500
v -10.000 1.000 1.500
v -10.000 2.000 1.500
v -10.000 2.000 2.500
v -10.000 2.000 3.500
v -10.000 2.000 4.500
v -10.000 3.000 -3.500
v -10.000 3.000 -2.500
v -10.000 3.000 -1.500
v -10.000 3.000 -0.500
v -10.000 2.000 -0.500
v -10.000 3.000 0.500
v -10.000 2.000 0.500
v -10.000 3.000 1.500
v -10.000 3.000 2.500
v -10.000 3.000 3.500
v -10.000 4.000 -2.500
v -10.000 4.000 -1.500
v -10.000 4.000 -0.500
v -10.000 4.000 0.500
v -10.000 4.000 1.500
v -10.000 4.000 2.500
v -9.000 -2.000 -1.500
v -9.000 -2.000 -0.500
v -9.000 -1.000 -1.500
v -9.000 -2.000 0.500
v -9.000 -2.000 1.500
v -9.000 -1.000 1.500
v -9.000 -1.000 -2.500
v -9.000 0.000 -2.500
v -9.000 -1.000 2.500
v -9.000 0.000 2.500
v -9.000 1.000 -1.500
v -9.000 1.000 -2.500
v -9.000 1.000 2.500
v -9.000 1.000 1.500
v -9.000 2.000 -0.500
v -9.000 2.000 -1.500
v -9.000 2.000 0.500
v -9.000 2.000 1.500
v -8.000 -2.000 -1.500
v -8.000 -2.000 -0.500
v -8.000 -1.000 -1.500
v -8.000 -2.000 0.500
v -8.000 -2.000 1.500
v -8.000 -1.000 1.500
v -8.000 -1.000 -2.500
v -8.000 0.000 -2.500
v -8.000 -1.000 2.500
v -8.000 0.000 2.500
v -8.000 1.000 -1.500
v -8.000 1.000 -2.500
v -8.000 1.000 2.500
v -8.000 1.000 1.500
v -8.000 2.000 -0.500
v -8.000 2.000 -1.500
v -8.000 2.000 0.500
v -8.000 2.000 1.500
v -7.000 -2.000 -1.500
v -7.000 -2.000 -0.500
v -7.000 -1.000 -1.500
v -7.000 -2.000 0.500
v -7.000 -2.000 1.500
v -7.000 -1.000 1.500
v -7.000 -1.000 -2.500
v -7.000 0.000 -2.500
v -7.000 -1.000 2.500
v -7.000 0.000 2.500
v -7.000 1.000 -1.500
v -7.000 1.000 -2.500
v -7.000 1.000 2.500
v -7.000 1.000 1.500
v -7.000 2.000 -0.500
v -7.000 2.000 -1.500
v -7.000 2.000 0.500
v -7.000 2.000 1.500
v -6.000 -2.000 -1.500
v -6.000 -2.000 -0.500
v -6.000 -1.000 -1.500
v -6.000 -2.000 0.500
v -6.000 -2.000 1.500
v -6.000 -1.000 1.500
v -6.000 -1.000 -2.500
v -6.000 0.000 -2.500
v -6.000 -1.000 2.500
v -6.000 0.000 2.500
v -6.000 1.000 -1.500
v -6.000 1.000 -2.500
v -6.000 1.000 2.500
v -6.000 1.000 1.500
v -6.000 2.000 -0.500
v -6.000 2.000 -1.500
v -6.000 2.000 0.500
v -6.000 2.000 1.500
v -5.000 -2.000 -1.500
v -5.000 -2.000 -0.500
v -5.000 -1.000 -1.500
v -5.000 -2.000 0.500
v -5.000 -2.000 1.500
v -5.000 -1.000 1.500
v -5.000 -1.000 -2.500
v -5.000 0.000 -2.500
v -5.000 -1.000 2.500
v -5.000 0.000 2.500
v -5.000 1.000 -1.500
v -5.000 1.000 -2.500
v -5.000 1.000 2.500
v -5.000 1.000 1.500
v -5.000 2.000 -0.500
v -5.000 2.000 -1.500
v -5.000 2.000 0.500
v -5.000 2.000 1.500
v -4.000 -2.000 -1.500
v -4.000 -2.000 -0.500
v -4.000 -1.000 -1.500
v -4.000 -2.000 0.500
v -4.000 -2.000 1.500
v -4.000 -1.000 1.500
v -4.000 -1.000 -2.500
v -4.000 0.000 -2.500
v -4.000 -1.000 2.500
v -4.000 0.000 2.500
v -4.000 1.000 -1.500
v -4.000 1.000 -2.500
v -4.000 1.000 2.500
v -4.000 1.000 1.500
v -4.000 2.000 -0.500
v -4.000 2.000 -1.500
v -4.000 2.000 0.500
v -4.000 2.000 1.500
v -3.000 -2.000 -1.500
v -3.000 -2.000 -0.500
v -3.000 -1.000 -1.500
v -3.000 -2.000 0.500
v -3.000 -2.000 1.500
v -3.000 -1.000 1.500
v -3.000 -1.000 -2.500
v -3.000 0.000 -2.500
v -3.000 -1.000 2.500
v -3.000 0.000 2.500
v -3.000 1.000 -1.500
v -3.000 1.000 -2.500
v -3.000 1.000 2.500
v -3.000 1.000 1.500
v -3.000 2.000 -0.500
v -3.000 2.000 -1.500
v -3.000 2.000 0.500
v -3.000 2.000 1.500
v -2.000 -2.000 -1.500
v -2.000 -2.000 -0.500
v -2.000 -1.000 -1.500
v -2.000 -2.000 0.500
v -2.000 -2.000 1.500
v -2.000 -1.000 1.500
v -2.000 -1.000 -2.500
v -2.000 0.000 -2.500
v -2.000 -1.000 2.500
v -2.000 0.000 2.500
v -2.000 1.000 -1.500
v -2.000 1.000 -2.500
v -2.000 1.000 2.500
v -2.000 1.000 1.500
v -2.000 2.000 -0.500
v -2.000 2.000 -1.500
v -2.000 2.000 0.500
v -2.000 2.000 1.500
v -2.000 -3.000 -1.500
v -2.000 -2.000 -2.500
v -2.000 -3.000 -2.500
v -1.000 -3.000 -2.500
v -1.000 -3.000 -1.500
v -1.000 -2.000 -2.500
v -2.000 -3.000 -0.500
v -1.000 -3.000 -0.500
v -2.000 -3.000 0.500
v -1.000 -3.000 0.500
v -2.000 -3.000 1.500
v -1.000 -3.000 1.500
v -2.000 -3.000 2.500
v -2.000 -2.000 2.500
v -1.000 -3.000 2.500
v -1.000 -2.000 2.500
v -2.000 -1.000 -3.500
v -2.000 -2.000 -3.500
v -1.000 -2.000 -3.500
v -1.000 -1.000 -3.500
v -2.000 -2.000 3.500
v -2.000 -1.000 3.500
v -1.000 -2.000 3.500
v -1.000 -1.000 3.500
v -2.000 0.000 -3.500
v -1.000 0.000 -3.500
v -2.000 0.000 3.500
v -1.000 0.000 3.500
v -2.000 1.000 -3.500
v -1.000 1.000 -3.500
v -2.000 1.000 3.500
v -1.000 1.000 3.500
v -2.000 2.000 -2.500
v -2.000 2.000 -3.500
v -1.000 2.000 -2.500
v -1.000 2.000 -3.500
v -2.000 2.000 2.500
v -2.000 2.000 3.500
v -1.000 2.000 3.500
v -1.000 2.000 2.500
v -2.000 3.000 -1.500
v -2.000 3.000 -2.500
v -1.000 3.000 -1.500
v -1.000 3.000 -2.500
v -2.000 3.000 -0.500
v -1.000 3.000 -0.500
v -2.000 3.000 0.500
v -1.000 3.000 0.500
v -2.000 3.000 1.500
v -1.000 3.000 1.500
v -2.000 3.000 2.500
v -1.000 3.000 2.500
v 0.000 -3.000 -2.500
v 0.000 -3.000 -1.500
v 0.000 -2.000 -2.500
v 0.000 -3.000 -0.500
v 0.000 -3.000 0.500
v 0.000 -3.000 1.500
v 0.000 -3.000 2.500
v 0.000 -2.000 2.500
v 0.000 -2.000 -3.500
v 0.000 -1.000 -3.500
v 0.000 -2.000 3.500
v 0.000 -1.000 3.500
v 0.000 0.000 -3.500
v 0.000 0.000 3.500
v 0.000 1.000 -3.500
v 0.000 1.000 3.500
v 0.000 2.000 -2.500
v 0.000 2.000 -3.500
v 0.000 2.000 3.500
v 0.000 2.000 2.500
v 0.000 3.000 -1.500
v 0.000 3.000 -2.500
v 0.000 3.000 -0.500
v 0.000 3.000 0.500
v 0.000 3.000 1.500
v 0.000 3.000 2.500
v 1.000 -3.000 -2.500
v 1.000 -3.000 -1.500
v 1.000 -2.000 -2.500
v 1.000 -3.000 -0.500
v 1.000 -3.000 0.500
v 1.000 -3.000 1.500
v 1.000 -3.000 2.500
v 1.000 -2.000 2.500
v 1.000 -2.000 -3.500
v 1.000 -1.000 -3.500
v 1.000 -2.000 3.500
v 1.000 -1.000 3.500
v 1.000 0.000 -3.500
v 1.000 0.000 3.500
v 1.000 1.000 -3.500
v 1.000 1.000 3.500
v 1.000 2.000 -2.500
v 1.000 2.000 -3.500
v 1.000 2.000 3.500
v 1.000 2.000 2.500
v 1.000 3.000 -1.500
v 1.000 3.000 -2.500
v 1.000 3.000 -0.500
v 1.000 3.000 0.500
v 1.000 3.000 1.500
v 1.000 3.000 2.500
v 2.000 -3.000 -2.500
v 2.000 -3.000 -1.500
v 2.000 -2.000 -2.500
v 2.000 -3.000 -0.500
v 2.000 -3.000 0.500
v 2.000 -3.000 1.500
v 2.000 -3.000 2.500
v 2.000 -2.000 2.500
v 2.000 -2.000 -3.500
v 2.000 -1.000 -3.500
v 2.000 -2.000 3.500
v 2.000 -1.000 3.500
v 2.000 0.000 -3.500
v 2.000 0.000 3.500
v 2.000 1.000 -3.500
v 2.000 1.000 3.500
v 2.000 2.000 -2.500
v 2.000 2.000 -3.500
v 2.000 2.000 3.500
v 2.000 2.000 2.500
v 2.000 3.000 -1.500
v 2.000 3.000 -2.500
v 2.000 3.000 -0.500
v 2.000 3.000 0.500
v 2.000 3.000 1.500
v 2.000 3.000 2.500
v 3.000 -3.000 -2.500
v 3.000 -3.000 -1.500
v 3.000 -2.000 -2.500
v 3.000 -3.000 -0.500
v 3.000 -3.000 0.500
v 3.000 -3.000 1.500
v 3.000 -3.000 2.500
v 3.000 -2.000 2.500
v 3.000 -2.000 -3.500
v 3.000 -1.000 -3.500
v 3.000 -2.000 3.500
v 3.000 -1.000 3.500
v 3.000 0.000 -3.500
v 3.000 0.000 3.500
v 3.000 1.000 -3.500
v 3.000 1.000 3.500
v 3.000 2.000 -2.500
v 3.000 2.000 -3.500
v 3.000 2.000 3.500
v 3.000 2.000 2.500
v 3.000 3.000 -1.500
v 3.000 3.000 -2.500
v 3.000 3.000 -0.500
v 3.000 3.000 0.500
v 3.000 3.000 1.500
v 3.000 3.000 2.500
v 3.000 -4.000 -1.500
v 3.000 -4.000 -2.500
v 4.000 -4.000 -2.500
v 4.000 -4.000 -1.500
v 4.000 -3.000 -2.500
v 3.000 -4.000 -0.500
v 4.000 -4.000 -0.500
v 3.000 -4.000 0.500
v 4.000 -4.000 0.500
v 3.000 -4.000 1.500
v 4.000 -4.000 1.500
v 3.000 -4.000 2.500
v 4.000 -4.000 2.500
v 4.000 -3.000 2.500
v 3.000 -3.000 -3.500
v 4.000 -3.000 -3.500
v 4.000 -2.000 -3.500
v 3.000 -3.000 3.500
v 4.000 -3.000 3.500
v 4.000 -2.000 3.500
v 3.000 -1.000 -4.500
v 3.000 -2.000 -4.500
v 4.000 -2.000 -4.500
v 4.000 -1.000 -4.500
v 3.000 -2.000 4.500
v 3.000 -1.000 4.500
v 4.000 -2.000 4.500
v 4.000 -1.000 4.500
v 3.000 0.000 -4.500
v 4.000 0.000 -4.500
v 3.000 0.000 4.500
v 4.000 0.000 4.500
v 3.000 1.000 -4.500
v 4.000 1.000 -4.500
v 3.000 1.000 4.500
v 4.000 1.000 4.500
v 3.000 2.000 -4.500
v 4.000 2.000 -3.500
v 4.000 2.000 -4.500
v 3.000 2.000 4.500
v 4.000 2.000 4.500
v 4.000 2.000 3.500
v 3.000 3.000 -3.500
v 4.000 3.000 -2.500
v 4.000 3.000 -3.500
v 3.000 3.000 3.500
v 4.000 3.000 3.500
v 4.000 3.000 2.500
v 3.000 4.000 -1.500
v 3.000 4.000 -2.500
v 4.000 4.000 -1.500
v 4.000 4.000 -2.500
v 3.000 4.000 -0.500
v 4.000 4.000 -0.500
v 3.000 4.000 0.500
v 4.000 4.000 0.500
v 3.000 4.000 1.500
v 4.000 4.000 1.500
v 3.000 4.000 2.500
v 4.000 4.000 2.500
v 5.000 -4.000 -2.500
v 5.000 -4.000 -1.500
v 5.000 -3.000 -2.500
v 5.000 -4.000 -0.500
v 5.000 -4.000 0.500
v 5.000 -4.000 1.500
v 5.000 -4.000 2.500
v 5.000 -3.000 2.500
v 5.000 -3.000 -3.500
v 5.000 -2.000 -3.500
v 5.000 -3.000 3.500
v 5.000 -2.000 3.500
v 5.000 -2.000 -4.500
v 5.000 -1.000 -4.500
v 5.000 -2.000 4.500
v 5.000 -1.000 4.500
v 5.000 0.000 -4.500
v 5.000 0.000 4.500
v 5.000 1.000 -4.500
v 5.000 1.000 4.500
v 5.000 2.000 -3.500
v 5.000 2.000 -4.500
v 5.000 2.000 4.500
v 5.000 2.000 3.500
v 5.000 3.000 -2.500
v 5.000 3.000 -3.500
v 5.000 3.000 3.500
v 5.000 3.000 2.500
v 5.000 4.000 -1.500
v 5.000 4.000 -2.500
v 5.000 4.000 -0.500
v 5.000 4.000 0.500
v 5.000 4.000 1.500
v 5.000 4.000 2.500
v 5.000 -5.000 -1.500
v 5.000 -5.000 -2.500
v 6.000 -5.000 -2.500
v 6.000 -5.000 -1.500
v 6.000 -4.000 -2.500
v 5.000 -5.000 -0.500
v 6.000 -5.000 -0.500
v 5.000 -5.000 0.500
v 6.000 -5.000 0.500
v 5.000 -5.000 1.500
v 6.000 -5.000 1.500
v 5.000 -5.000 2.500
v 6.000 -5.000 2.500
v 6.000 -4.000 2.500
v 5.000 -4.000 -3.500
v 5.000 -3.000 -4.500
v 5.000 -4.000 -4.500
v 6.000 -4.000 -4.500
v 6.000 -4.000 -3.500
v 6.000 -3.000 -4.500
v 5.000 -4.000 3.500
v 6.000 -4.000 3.500
v 5.000 -4.000 4.500
v 5.000 -3.000 4.500
v 6.000 -4.000 4.500
v 6.000 -3.000 4.500
v 6.000 -2.000 -4.500
v 6.000 -2.000 4.500
v 5.000 -1.000 -5.500
v 5.000 -2.000 -5.500
v 6.000 -2.000 -5.500
v 6.000 -1.000 -5.500
v 5.000 -2.000 5.500
v 5.000 -1.000 5.500
v 6.000 -2.000 5.500
v 6.000 -1.000 5.500
v 5.000 0.000 -5.500
v 6.000 0.000 -5.500
v 5.000 0.000 5.500
v 6.000 0.000 5.500
v 5.000 1.000 -5.500
v 6.000 1.000 -5.500
v 5.000 1.000 5.500
v 6.000 1.000 5.500
v 5.000 2.000 -5.500
v 6.000 2.000 -4.500
v 6.000 2.000 -5.500
v 5.000 2.000 5.500
v 6.000 2.000 5.500
v 6.000 2.000 4.500
v 5.000 3.000 -4.500
v 6.000 3.000 -4.500
v 5.000 3.000 4.500
v 6.000 3.000 4.500
v 5.000 4.000 -3.500
v 5.000 4.000 -4.500
v 6.000 4.000 -3.500
v 6.000 4.000 -4.500
v 6.000 4.000 -2.500
v 5.000 4.000 3.500
v 6.000 4.000 3.500
v 6.000 4.000 2.500
v 5.000 4.000 4.500
v 6.000 4.000 4.500
v 5.000 5.000 -1.500
v 5.000 5.000 -2.500
v 6.000 5.000 -1.500
v 6.000 5.000 -2.500
v 5.000 5.000 -0.500
v 6.000 5.000 -0.500
v 5.000 5.000 0.500
v 6.000 5.000 0.500
v 5.000 5.000 1.500
v 6.000 5.000 1.500
v 5.000 5.000 2.500
v 6.000 5.000 2.500
v 6.000 -6.000 -1.500
v 6.000 -6.000 -2.500
v 7.000 -6.000 -2.500
v 7.000 -6.000 -1.500
v 7.000 -5.000 -2.500
v 6.000 -6.000 -0.500
v 7.000 -6.000 -0.500
v 6.000 -6.000 0.500
v 7.000 -6.000 0.500
v 6.000 -6.000 1.500
v 7.000 -6.000 1.500
v 6.000 -6.000 2.500
v 7.000 -6.000 2.500
v 7.000 -5.000 2.500
v 6.000 -5.000 -3.500
v 6.000 -5.000 -4.500
v 7.000 -5.000 -4.500
v 7.000 -5.000 -3.500
v 7.000 -4.000 -4.500
v 6.000 -5.000 3.500
v 7.000 -5.000 3.500
v 6.000 -5.000 4.500
v 7.000 -5.000 4.500
v 7.000 -4.000 4.500
v 6.000 -3.000 -5.500
v 6.000 -4.000 -5.500
v 7.000 -4.000 -5.500
v 7.000 -3.000 -5.500
v 6.000 -4.000 5.500
v 6.000 -3.000 5.500
v 7.000 -4.000 5.500
v 7.000 -3.000 5.500
v 7.000 -2.000 -5.500
v 7.000 -2.000 5.500
v 6.000 -1.000 -6.500
v 6.000 -2.000 -6.500
v 7.000 -2.000 -6.500
v 7.000 -1.000 -6.500
v 6.000 -2.000 6.500
v 6.000 -1.000 6.500
v 7.000 -2.000 6.500
v 7.000 -1.000 6.500
v 6.000 0.000 -6.500
v 7.000 0.000 -6.500
v 6.000 0.000 6.500
v 7.000 0.000 6.500
v 6.000 1.000 -6.500
v 7.000 1.000 -6.500
v 6.000 1.000 6.500
v 7.000 1.000 6.500
v 6.000 2.000 -6.500
v 7.000 2.000 -5.500
v 7.000 2.000 -6.500
v 6.000 2.000 6.500
v 7.000 2.000 6.500
v 7.000 2.000 5.500
v 6.000 3.000 -5.500
v 7.000 3.000 -5.500
v 6.000 3.000 5.500
v 7.000 3.000 5.500
v 6.000 4.000 -5.500
v 7.000 4.000 -4.500
v 7.000 4.000 -5.500
v 6.000 4.000 5.500
v 7.000 4.000 5.500
v 7.000 4.000 4.500
v 6.000 5.000 -3.500
v 6.000 5.000 -4.500
v 7.000 5.000 -3.500
v 7.000 5.000 -4.500
v 7.000 5.000 -2.500
v 6.000 5.000 3.500
v 7.000 5.000 3.500
v 7.000 5.000 2.500
v 6.000 5.000 4.500
v 7.000 5.000 4.500
v 6.000 6.000 -1.500
v 6.000 6.000 -2.500
v 7.000 6.000 -1.500
v 7.000 6.000 -2.500
v 6.000 6.000 -0.500
v 7.000 6.000 -0.500
v 6.000 6.000 0.500
v 7.000 6.000 0.500
v 6.000 6.000 1.500
v 7.000 6.000 1.500
v 6.000 6.000 2.500
v 7.000 6.000 2.500
v 7.000 -7.000 -2.500
v 7.000 -6.000 -3.500
v 7.000 -7.000 -3.500
v 8.000 -7.000 -3.500
v 8.000 -7.000 -2.500
v 8.000 -6.000 -3.500
v 7.000 -7.000 -1.500
v 8.000 -7.000 -1.500
v 7.000 -7.000 -0.500
v 8.000 -7.000 -0.500
v 7.000 -7.000 0.500
v 8.000 -7.000 0.500
v 7.000 -7.000 1.500
v 8.000 -7.000 1.500
v 7.000 -7.000 2.500
v 8.000 -7.000 2.500
v 7.000 -7.000 3.500
v 7.000 -6.000 3.500
v 8.000 -7.000 3.500
v 8.000 -6.000 3.500
v 7.000 -6.000 -4.500
v 8.000 -6.000 -4.500
v 8.000 -5.000 -4.500
v 7.000 -6.000 4.500
v 8.000 -6.000 4.500
v 8.000 -5.000 4.500
v 7.000 -5.000 -5.500
v 8.000 -5.000 -5.500
v 8.000 -4.000 -5.500
v 7.000 -5.000 5.500
v 8.000 -5.000 5.500
v 8.000 -4.000 5.500
v 7.000 -3.000 -6.500
v 7.000 -4.000 -6.500
v 8.000 -4.000 -6.500
v 8.000 -3.000 -6.500
v 7.000 -4.000 6.500
v 7.000 -3.000 6.500
v 8.000 -4.000 6.500
v 8.000 -3.000 6.500
v 7.000 -2.000 -7.500
v 7.000 -3.000 -7.500
v 8.000 -3.000 -7.500
v 8.000 -2.000 -7.500
v 7.000 -3.000 7.500
v 7.000 -2.000 7.500
v 8.000 -3.000 7.500
v 8.000 -2.000 7.500
v 7.000 -1.000 -7.500
v 8.000 -1.000 -7.500
v 7.000 -1.000 7.500
v 8.000 -1.000 7.500
v 7.000 0.000 -7.500
v 8.000 0.000 -7.500
v 7.000 0.000 7.500
v 8.000 0.000 7.500
v 7.000 1.000 -7.500
v 8.000 1.000 -7.500
v 7.000 1.000 7.500
v 8.000 1.000 7.500
v 7.000 2.000 -7.500
v 8.000 2.000 -7.500
v 7.000 2.000 7.500
v 8.000 2.000 7.500
v 7.000 3.000 -6.500
v 7.000 3.000 -7.500
v 8.000 3.000 -6.500
v 8.000 3.000 -7.500
v 7.000 3.000 6.500
v 7.000 3.000 7.500
v 8.000 3.000 7.500
v 8.000 3.000 6.500
v 7.000 4.000 -6.500
v 8.000 4.000 -5.500
v 8.000 4.000 -6.500
v 7.000 4.000 6.500
v 8.000 4.000 6.500
v 8.000 4.000 5.500
v 7.000 5.000 -5.500
v 8.000 5.000 -4.500
v 8.000 5.000 -5.500
v 7.000 5.000 5.500
v 8.000 5.000 5.500
v 8.000 5.000 4.500
v 7.000 6.000 -3.500
v 7.000 6.000 -4.500
v 8.000 6.000 -3.500
v 8.000 6.000 -4.500
v 7.000 6.000 3.500
v 7.000 6.000 4.500
v 8.000 6.000 4.500
v 8.000 6.000 3.500
v 7.000 7.000 -2.500
v 7.000 7.000 -3.500
v 8.000 7.000 -2.500
v 8.000 7.000 -3.500
v 7.000 7.000 -1.500
v 8.000 7.000 -1.500
v 7.000 7.000 -0.500
v 8.000 7.000 -0.500
v 7.000 7.000 0.500
v 8.000 7.000 0.500
v 7.000 7.000 1.500
v 8.000 7.000 1.500
v 7.000 7.000 2.500
v 8.000 7.000 2.500
v 7.000 7.000 3.500
v 8.000 7.000 3.500
v 8.000 -8.000 -2.500
v 8.000 -8.000 -3.500
v 9.000 -8.000 -3.500
v 9.000 -8.000 -2.500
v 9.000 -7.000 -3.500
v 8.000 -8.000 -1.500
v 9.000 -8.000 -1.500
v 8.000 -8.000 -0.500
v 9.000 -8.000 -0.500
v 8.000 -8.000 0.500
v 9.000 -8.000 0.500
v 8.000 -8.000 1.500
v 9.000 -8.000 1.500
v 8.000 -8.000 2.500
v 9.000 -8.000 2.500
v 8.000 -8.000 3.500
v 9.000 -8.000 3.500
v 9.000 -7.000 3.500
v 8.000 -7.000 -4.500
v 8.000 -6.000 -5.500
v 8.000 -7.000 -5.500
v 9.000 -7.000 -5.500
v 9.000 -7.000 -4.500
v 9.000 -6.000 -5.500
v 8.000 -7.000 4.500
v 9.000 -7.000 4.500
v 8.000 -7.000 5.500
v 8.000 -6.000 5.500
v 9.000 -7.000 5.500
v 9.000 -6.000 5.500
v 8.000 -5.000 -6.500
v 8.000 -6.000 -6.500
v 9.000 -6.000 -6.500
v 9.000 -5.000 -6.500
v 8.000 -6.000 6.500
v 8.000 -5.000 6.500
v 9.000 -6.000 6.500
v 9.000 -5.000 6.500
v 8.000 -4.000 -7.500
v 8.000 -5.000 -7.500
v 9.000 -5.000 -7.500
v 9.000 -4.000 -7.500
v 8.000 -5.000 7.500
v 8.000 -4.000 7.500
v 9.000 -5.000 7.500
v 9.000 -4.000 7.500
v 9.000 -3.000 -7.500
v 9.000 -3.000 7.500
v 8.000 -2.000 -8.500
v 8.000 -3.000 -8.500
v 9.000 -3.000 -8.500
v 9.000 -2.000 -8.500
v 8.000 -3.000 8.500
v 8.000 -2.000 8.500
v 9.000 -3.000 8.500
v 9.000 -2.000 8.500
v 8.000 -1.000 -8.500
v 9.000 -1.000 -8.500
v 8.000 -1.000 8.500
v 9.000 -1.000 8.500
v 8.000 0.000 -8.500
v 9.000 0.000 -8.500
v 8.000 0.000 8.500
v 9.000 0.000 8.500
v 8.000 1.000 -8.500
v 9.000 1.000 -8.500
v 8.000 1.000 8.500
v 9.000 1.000 8.500
v 8.000 2.000 -8.500
v 9.000 2.000 -8.500
v 8.000 2.000 8.500
v 9.000 2.000 8.500
v 8.000 3.000 -8.500
v 9.000 3.000 -7.500
v 9.000 3.000 -8.500
v 8.000 3.000 8.500
v 9.000 3.000 8.500
v 9.000 3.000 7.500
v 8.000 4.000 -7.500
v 9.000 4.000 -7.500
v 8.000 4.000 7.500
v 9.000 4.000 7.500
v 8.000 5.000 -6.500
v 8.000 5.000 -7.500
v 9.000 5.000 -6.500
v 9.000 5.000 -7.500
v 8.000 5.000 6.500
v 8.000 5.000 7.500
v 9.000 5.000 7.500
v 9.000 5.000 6.500
v 8.000 6.000 -5.500
v 8.000 6.000 -6.500
v 9.000 6.000 -5.500
v 9.000 6.000 -6.500
v 8.000 6.000 5.500
v 8.000 6.000 6.500
v 9.000 6.000 6.500
v 9.000 6.000 5.500
v 8.000 7.000 -4.500
v 8.000 7.000 -5.500
v 9.000 7.000 -4.500
v 9.000 7.000 -5.500
v 9.000 7.000 -3.500
v 8.000 7.000 4.500
v 9.000 7.000 4.500
v 9.000 7.000 3.500
v 8.000 7.000 5.500
v 9.000 7.000 5.500
v 8.000 8.000 -2.500
v 8.000 8.000 -3.500
v 9.000 8.000 -2.500
v 9.000 8.000 -3.500
v 8.000 8.000 -1.500
v 9.000 8.000 -1.500
v 8.000 8.000 -0.500
v 9.000 8.000 -0.500
v 8.000 8.000 0.500
v 9.000 8.000 0.500
v 8.000 8.000 1.500
v 9.000 8.000 1.500
v 8.000 8.000 2.500
v 9.000 8.000 2.500
v 8.000 8.000 3.500
v 9.000 8.000 3.500
v 9.000 -9.000 -2.500
v 9.000 -9.000 -3.500
v 10.000 -9.000 -3.500
v 10.000 -9.000 -2.500
v 10.000 -8.000 -3.500
v 9.000 -9.000 -1.500
v 10.000 -9.000 -1.500
v 9.000 -9.000 -0.500
v 10.000 -9.000 -0.500
v 9.000 -9.000 0.500
v 10.000 -9.000 0.500
v 9.000 -9.000 1.500
v 10.000 -9.000 1.500
v 9.000 -9.000 2.500
v 10.000 -9.000 2.500
v 9.000 -9.000 3.500
v 10.000 -9.000 3.500
v 10.000 -8.000 3.500
v 9.000 -8.000 -4.500
v 9.000 -8.000 -5.500
v 10.000 -8.000 -5.500
v 10.000 -8.000 -4.500
v 10.000 -7.000 -5.500
v 9.000 -8.000 4.500
v 10.000 -8.000 4.500
v 9.000 -8.000 5.500
v 10.000 -8.000 5.500
v 10.000 -7.000 5.500
v 9.000 -7.000 -6.500
v 10.000 -7.000 -6.500
v 10.000 -6.000 -6.500
v 9.000 -7.000 6.500
v 10.000 -7.000 6.500
v 10.000 -6.000 6.500
v 9.000 -6.000 -7.500
v 10.000 -6.000 -7.500
v 10.000 -5.000 -7.500
v 9.000 -6.000 7.500
v 10.000 -6.000 7.500
v 10.000 -5.000 7.500
v 9.000 -4.000 -8.500
v 9.000 -5.000 -8.500
v 10.000 -5.000 -8.500
v 10.000 -4.000 -8.500
v 9.000 -5.000 8.500
v 9.000 -4.000 8.500
v 10.000 -5.000 8.500
v 10.000 -4.000 8.500
v 10.000 -3.000 -8.500
v 10.000 -3.000 8.500
v 9.000 -2.000 -9.500
v 9.000 -3.000 -9.500
v 10.000 -3.000 -9.500
v 10.000 -2.000 -9.500
v 9.000 -3.000 9.500
v 9.000 -2.000 9.500
v 10.000 -3.000 9.500
v 10.000 -2.000 9.500
v 9.000 -1.000 -9.500
v 10.000 -1.000 -9.500
v 9.000 -1.000 9.500
v 10.000 -1.000 9.500
v 9.000 0.000 -9.500
v 10.000 0.000 -9.500
v 9.000 0.000 9.500
v 10.000 0.000 9.500
v 9.000 1.000 -9.500
v 10.000 1.000 -9.500
v 9.000 1.000 9.500
v 10.000 1.000 9.500
v 9.000 2.000 -9.500
v 10.000 2.000 -9.500
v 9.000 2.000 9.500
v 10.000 2.000 9.500
v 9.000 3.000 -9.500
v 10.000 3.000 -8.500
v 10.000 3.000 -9.500
v 9.000 3.000 9.500
v 10.000 3.000 9.500
v 10.000 3.000 8.500
v 9.000 4.000 -8.500
v 10.000 4.000 -8.500
v 9.000 4.000 8.500
v 10.000 4.000 8.500
v 9.000 5.000 -8.500
v 10.000 5.000 -7.500
v 10.000 5.000 -8.500
v 9.000 5.000 8.500
v 10.000 5.000 8.500
v 10.000 5.000 7.500
v 9.000 6.000 -7.500
v 10.000 6.000 -6.500
v 10.000 6.000 -7.500
v 9.000 6.000 7.500
v 10.000 6.000 7.500
v 10.000 6.000 6.500
v 9.000 7.000 -6.500
v 10.000 7.000 -5.500
v 10.000 7.000 -6.500
v 9.000 7.000 6.500
v 10.000 7.000 6.500
v 10.000 7.000 5.500
v 9.000 8.000 -4.500
v 9.000 8.000 -5.500
v 10.000 8.000 -4.500
v 10.000 8.000 -5.500
v 10.000 8.000 -3.500
v 9.000 8.000 4.500
v 10.000 8.000 4.500
v 10.000 8.000 3.500
v 9.000 8.000 5.500
v 10.000 8.000 5.500
v 9.000 9.000 -2.500
v 9.000 9.000 -3.500
v 10.000 9.000 -2.500
v 10.000 9.000 -3.500
v 9.000 9.000 -1.500
v 10.000 9.000 -1.500
v 9.000 9.000 -0.500
v 10.000 9.000 -0.500
v 9.000 9.000 0.500
v 10.000 9.000 0.500
v 9.000 9.000 1.500
v 10.000 9.000 1.500
v 9.000 9.000 2.500
v 10.000 9.000 2.500
v 9.000 9.000 3.500
v 10.000 9.000 3.500
v 10.000 -10.000 -2.500
v 10.000 -10.000 -3.500
v 11.000 -10.000 -3.500
v 11.000 -10.000 -2.500
v 11.000 -9.000 -3.500
v 10.000 -10.000 -1.500
v 11.000 -10.000 -1.500
v 10.000 -10.000 -0.500
v 11.000 -10.000 -0.500
v 10.000 -10.000 0.500
v 11.000 -10.000 0.500
v 10.000 -10.000 1.500
v 11.000 -10.000 1.500
v 10.000 -10.000 2.500
v 11.000 -10.000 2.500
v 10.000 -10.000 3.500
v 11.000 -10.000 3.500
v 11.000 -9.000 3.500
v 10.000 -9.000 -4.500
v 10.000 -9.000 -5.500
v 11.000 -9.000 -5.500
v 11.000 -9.000 -4.500
v 11.000 -8.000 -5.500
v 10.000 -9.000 4.500
v 11.000 -9.000 4.500
v 10.000 -9.000 5.500
v 11.000 -9.000 5.500
v 11.000 -8.000 5.500
v 10.000 -8.000 -6.500
v 10.000 -7.000 -7.500
v 10.000 -8.000 -7.500
v 11.000 -8.000 -7.500
v 11.000 -8.000 -6.500
v 11.000 -7.000 -7.500
v 10.000 -8.000 6.500
v 11.000 -8.000 6.500
v 10.000 -8.000 7.500
v 10.000 -7.000 7.500
v 11.000 -8.000 7.500
v 11.000 -7.000 7.500
v 10.000 -6.000 -8.500
v 10.000 -7.000 -8.500
v 11.000 -7.000 -8.500
v 11.000 -6.000 -8.500
v 10.000 -7.000 8.500
v 10.000 -6.000 8.500
v 11.000 -7.000 8.500
v 11.000 -6.000 8.500
v 11.000 -5.000 -8.500
v 11.000 -5.000 8.500
v 10.000 -4.000 -9.500
v 10.000 -5.000 -9.500
v 11.000 -5.000 -9.500
v 11.000 -4.000 -9.500
v 10.000 -5.000 9.500
v 10.000 -4.000 9.500
v 11.000 -5.000 9.500
v 11.000 -4.000 9.500
v 11.000 -3.000 -9.500
v 11.000 -3.000 9.500
v 10.000 -2.000 -10.500
v 10.000 -3.000 -10.500
v 11.000 -3.000 -10.500
v 11.000 -2.000 -10.500
v 10.000 -3.000 10.500
v 10.000 -2.000 10.500
v 11.000 -3.000 10.500
v 11.000 -2.000 10.500
v 10.000 -1.000 -10.500
v 11.000 -1.000 -10.500
v 10.000 -1.000 10.500
v 11.000 -1.000 10.500
v 10.000 0.000 -10.500
v 11.000 0.000 -10.500
v 10.000 0.000 10.500
v 11.000 0.000 10.500
v 10.000 1.000 -10.500
v 11.000 1.000 -10.500
v 10.000 1.000 10.500
v 11.000 1.000 10.500
v 10.000 2.000 -10.500
v 11.000 2.000 -10.500
v 10.000 2.000 10.500
v 11.000 2.000 10.500
v 10.000 3.000 -10.500
v 11.000 3.000 -9.500
v 11.000 3.000 -10.500
v 10.000 3.000 10.500
v 11.000 3.000 10.500
v 11.000 3.000 9.500
v 10.000 4.000 -9.500
v 11.000 4.000 -9.500
v 10.000 4.000 9.500
v 11.000 4.000 9.500
v 10.000 5.000 -9.500
v 11.000 5.000 -8.500
v 11.000 5.000 -9.500
v 10.000 5.000 9.500
v 11.000 5.000 9.500
v 11.000 5.000 8.500
v 10.000 6.000 -8.500
v 11.000 6.000 -8.500
v 10.000 6.000 8.500
v 11.000 6.000 8.500
v 10.000 7.000 -7.500
v 10.000 7.000 -8.500
v 11.000 7.000 -7.500
v 11.000 7.000 -8.500
v 10.000 7.000 7.500
v 10.000 7.000 8.500
v 11.000 7.000 8.500
v 11.000 7.000 7.500
v 10.000 8.000 -6.500
v 10.000 8.000 -7.500
v 11.000 8.000 -6.500
v 11.000 8.000 -7.500
v 11.000 8.000 -5.500
v 10.000 8.000 6.500
v 11.000 8.000 6.500
v 11.000 8.000 5.500
v 10.000 8.000 7.500
v 11.000 8.000 7.500
v 10.000 9.000 -4.500
v 10.000 9.000 -5.500
v 11.000 9.000 -4.500
v 11.000 9.000 -5.500
v 11.000 9.000 -3.500
v 10.000 9.000 4.500
v 11.000 9.000 4.500
v 11.000 9.000 3.500
v 10.000 9.000 5.500
v 11.000 9.000 5.500
v 10.000 10.000 -2.500
v 10.000 10.000 -3.500
v 11.000 10.000 -2.500
v 11.000 10.000 -3.500
v 10.000 10.000 -1.500
v 11.000 10.000 -1.500
v 10.000 10.000 -0.500
v 11.000 10.000 -0.500
v 10.000 10.000 0.500
v 11.000 10.000 0.500
v 10.000 10.000 1.500
v 11.000 10.000 1.500
v 10.000 10.000 2.500
v 11.000 10.000 2.500
v 10.000 10.000 3.500
v 11.000 10.000 3.500
v 12.000 -10.000 -3.500
v 12.000 -9.000 -3.500
v 12.000 -9.000 -2.500
v 12.000 -10.000 -2.500
v 12.000 -9.000 -1.500
v 12.000 -10.000 -1.500
v 12.000 -9.000 -0.500
v 12.000 -10.000 -0.500
v 12.000 -9.000 0.500
v 12.000 -10.000 0.500
v 12.000 -9.000 1.500
v 12.000 -10.000 1.500
v 12.000 -9.000 2.500
v 12.000 -10.000 2.500
v 12.000 -9.000 3.500
v 12.000 -10.000 3.500
v 12.000 -9.000 -5.500
v 12.000 -8.000 -5.500
v 12.000 -8.000 -4.500
v 12.000 -9.000 -4.500
v 12.000 -8.000 -3.500
v 12.000 -8.000 3.500
v 12.000 -8.000 4.500
v 12.000 -9.000 4.500
v 12.000 -8.000 5.500
v 12.000 -9.000 5.500
v 12.000 -8.000 -7.500
v 12.000 -7.000 -7.500
v 12.000 -7.000 -6.500
v 12.000 -8.000 -6.500
v 12.000 -7.000 -5.500
v 12.000 -7.000 5.500
v 12.000 -7.000 6.500
v 12.000 -8.000 6.500
v 12.000 -7.000 7.500
v 12.000 -8.000 7.500
v 12.000 -7.000 -8.500
v 12.000 -6.000 -8.500
v 12.000 -6.000 -7.500
v 12.000 -6.000 -6.500
v 12.000 -6.000 6.500
v 12.000 -6.000 7.500
v 12.000 -6.000 8.500
v 12.000 -7.000 8.500
v 12.000 -5.000 -8.500
v 12.000 -5.000 -7.500
v 12.000 -5.000 7.500
v 12.000 -5.000 8.500
v 12.000 -5.000 -9.500
v 12.000 -4.000 -9.500
v 12.000 -4.000 -8.500
v 12.000 -4.000 8.500
v 12.000 -4.000 9.500
v 12.000 -5.000 9.500
v 12.000 -3.000 -9.500
v 12.000 -3.000 -8.500
v 12.000 -3.000 8.500
v 12.000 -3.000 9.500
v 12.000 -3.000 -10.500
v 12.000 -2.000 -10.500
v 12.000 -2.000 -9.500
v 12.000 -2.000 9.500
v 12.000 -2.000 10.500
v 12.000 -3.000 10.500
v 12.000 -1.000 -10.500
v 12.000 -1.000 -9.500
v 12.000 -1.000 9.500
v 12.000 -1.000 10.500
v 12.000 0.000 -10.500
v 12.000 0.000 -9.500
v 12.000 0.000 9.500
v 12.000 0.000 10.500
v 12.000 1.000 -10.500
v 12.000 1.000 -9.500
v 12.000 1.000 9.500
v 12.000 1.000 10.500
v 12.000 2.000 -10.500
v 12.000 2.000 -9.500
v 12.000 2.000 9.500
v 12.000 2.000 10.500
v 12.000 3.000 -10.500
v 12.000 3.000 -9.500
v 12.000 3.000 9.500
v 12.000 3.000 10.500
v 12.000 4.000 -9.500
v 12.000 4.000 -8.500
v 12.000 3.000 -8.500
v 12.000 3.000 8.500
v 12.000 4.000 8.500
v 12.000 4.000 9.500
v 12.000 5.000 -9.500
v 12.000 5.000 -8.500
v 12.000 5.000 8.500
v 12.000 5.000 9.500
v 12.000 6.000 -8.500
v 12.000 6.000 -7.500
v 12.000 5.000 -7.500
v 12.000 5.000 7.500
v 12.000 6.000 7.500
v 12.000 6.000 8.500
v 12.000 7.000 -8.500
v 12.000 7.000 -7.500
v 12.000 7.000 -6.500
v 12.000 6.000 -6.500
v 12.000 6.000 6.500
v 12.000 7.000 6.500
v 12.000 7.000 7.500
v 12.000 7.000 8.500
v 12.000 8.000 -7.500
v 12.000 8.000 -6.500
v 12.000 8.000 -5.500
v 12.000 7.000 -5.500
v 12.000 7.000 5.500
v 12.000 8.000 5.500
v 12.000 8.000 6.500
v 12.000 8.000 7.500
v 12.000 9.000 -5.500
v 12.000 9.000 -4.500
v 12.000 8.000 -4.500
v 12.000 9.000 -3.500
v 12.000 8.000 -3.500
v 12.000 8.000 3.500
v 12.000 9.000 3.500
v 12.000 9.000 4.500
v 12.000 8.000 4.500
v 12.000 9.000 5.500
v 12.000 10.000 -3.500
v 12.000 10.000 -2.500
v 12.000 9.000 -2.500
v 12.000 10.000 -1.500
v 12.000 9.000 -1.500
v 12.000 10.000 -0.500
v 12.000 9.000 -0.500
v 12.000 10.000 0.500
v 12.000 9.000 0.500
v 12.000 10.000 1.500
v 12.000 9.000 1.500
v 12.000 10.000 2.500
v 12.000 9.000 2.500
v 12.000 10.000 3.500
v 13.000 -9.000 -3.500
v 13.000 -9.000 -2.500
v 13.000 -8.000 -3.500
v 13.000 -9.000 -1.500
v 13.000 -9.000 -0.500
v 13.000 -9.000 0.500
v 13.000 -9.000 1.500
v 13.000 -9.000 2.500
v 13.000 -9.000 3.500
v 13.000 -8.000 3.500
v 13.000 -8.000 -5.500
v 13.000 -8.000 -4.500
v 13.000 -7.000 -5.500
v 13.000 -8.000 4.500
v 13.000 -8.000 5.500
v 13.000 -7.000 5.500
v 13.000 -7.000 -6.500
v 13.000 -6.000 -6.500
v 13.000 -7.000 6.500
v 13.000 -6.000 6.500
v 13.000 -6.000 -7.500
v 13.000 -5.000 -7.500
v 13.000 -6.000 7.500
v 13.000 -5.000 7.500
v 13.000 -5.000 -8.500
v 13.000 -4.000 -8.500
v 13.000 -5.000 8.500
v 13.000 -4.000 8.500
v 13.000 -3.000 -8.500
v 13.000 -3.000 8.500
v 13.000 -3.000 -9.500
v 13.000 -2.000 -9.500
v 13.000 -3.000 9.500
v 13.000 -2.000 9.500
v 13.000 -1.000 -9.500
v 13.000 -1.000 9.500
v 13.000 0.000 -9.500
v 13.000 0.000 9.500
v 13.000 1.000 -9.500
v 13.000 1.000 9.500
v 13.000 2.000 -9.500
v 13.000 2.000 9.500
v 13.000 3.000 -8.500
v 13.000 3.000 -9.500
v 13.000 3.000 9.500
v 13.000 3.000 8.500
v 13.000 4.000 -8.500
v 13.000 4.000 8.500
v 13.000 5.000 -7.500
v 13.000 5.000 -8.500
v 13.000 5.000 8.500
v 13.000 5.000 7.500
v 13.000 6.000 -6.500
v 13.000 6.000 -7.500
v 13.000 6.000 7.500
v 13.000 6.000 6.500
v 13.000 7.000 -5.500
v 13.000 7.000 -6.500
v 13.000 7.000 6.500
v 13.000 7.000 5.500
v 13.000 8.000 -4.500
v 13.000 8.000 -5.500
v 13.000 8.000 -3.500
v 13.000 8.000 4.500
v 13.000 8.000 3.500
v 13.000 8.000 5.500
v 13.000 9.000 -2.500
v 13.000 9.000 -3.500
v 13.000 9.000 -1.500
v 13.000 9.000 -0.500
v 13.000 9.000 0.500
v 13.000 9.000 1.500
v 13.000 9.000 2.500
v 13.000 9.000 3.500
v 14.000 -9.000 -3.500
v 14.000 -8.000 -3.500
v 14.000 -8.000 -2.500
v 14.000 -9.000 -2.500
v 14.000 -8.000 -1.500
v 14.000 -9.000 -1.500
v 14.000 -8.000 -0.500
v 14.000 -9.000 -0.500
v 14.000 -8.000 0.500
v 14.000 -9.000 0.500
v 14.000 -8.000 1.500
v 14.000 -9.000 1.500
v 14.000 -8.000 2.500
v 14.000 -9.000 2.500
v 14.000 -8.000 3.500
v 14.000 -9.000 3.500
v 14.000 -8.000 -5.500
v 14.000 -7.000 -5.500
v 14.000 -7.000 -4.500
v 14.000 -8.000 -4.500
v 14.000 -7.000 -3.500
v 14.000 -7.000 3.500
v 14.000 -7.000 4.500
v 14.000 -8.000 4.500
v 14.000 -7.000 5.500
v 14.000 -8.000 5.500
v 14.000 -7.000 -6.500
v 14.000 -6.000 -6.500
v 14.000 -6.000 -5.500
v 14.000 -6.000 5.500
v 14.000 -6.000 6.500
v 14.000 -7.000 6.500
v 14.000 -6.000 -7.500
v 14.000 -5.000 -7.500
v 14.000 -5.000 -6.500
v 14.000 -5.000 6.500
v 14.000 -5.000 7.500
v 14.000 -6.000 7.500
v 14.000 -5.000 -8.500
v 14.000 -4.000 -8.500
v 14.000 -4.000 -7.500
v 14.000 -4.000 7.500
v 14.000 -4.000 8.500
v 14.000 -5.000 8.500
v 14.000 -3.000 -8.500
v 14.000 -3.000 -7.500
v 14.000 -3.000 7.500
v 14.000 -3.000 8.500
v 14.000 -3.000 -9.500
v 14.000 -2.000 -9.500
v 14.000 -2.000 -8.500
v 14.000 -2.000 8.500
v 14.000 -2.000 9.500
v 14.000 -3.000 9.500
v 14.000 -1.000 -9.500
v 14.000 -1.000 -8.500
v 14.000 -1.000 8.500
v 14.000 -1.000 9.500
v 14.000 0.000 -9.500
v 14.000 0.000 -8.500
v 14.000 0.000 8.500
v 14.000 0.000 9.500
v 14.000 1.000 -9.500
v 14.000 1.000 -8.500
v 14.000 1.000 8.500
v 14.000 1.000 9.500
v 14.000 2.000 -9.500
v 14.000 2.000 -8.500
v 14.000 2.000 8.500
v 14.000 2.000 9.500
v 14.000 3.000 -9.500
v 14.000 3.000 -8.500
v 14.000 3.000 8.500
v 14.000 3.000 9.500
v 14.000 4.000 -8.500
v 14.000 4.000 -7.500
v 14.000 3.000 -7.500
v 14.000 3.000 7.500
v 14.000 4.000 7.500
v 14.000 4.000 8.500
v 14.000 5.000 -8.500
v 14.000 5.000 -7.500
v 14.000 5.000 7.500
v 14.000 5.000 8.500
v 14.000 6.000 -7.500
v 14.000 6.000 -6.500
v 14.000 5.000 -6.500
v 14.000 5.000 6.500
v 14.000 6.000 6.500
v 14.000 6.000 7.500
v 14.000 7.000 -6.500
v 14.000 7.000 -5.500
v 14.000 6.000 -5.500
v 14.000 6.000 5.500
v 14.000 7.000 5.500
v 14.000 7.000 6.500
v 14.000 8.000 -5.500
v 14.000 8.000 -4.500
v 14.000 7.000 -4.500
v 14.000 8.000 -3.500
v 14.000 7.000 -3.500
v 14.000 7.000 3.500
v 14.000 8.000 3.500
v 14.000 8.000 4.500
v 14.000 7.000 4.500
v 14.000 8.000 5.500
v 14.000 9.000 -3.500
v 14.000 9.000 -2.500
v 14.000 8.000 -2.500
v 14.000 9.000 -1.500
v 14.000 8.000 -1.500
v 14.000 9.000 -0.500
v 14.000 8.000 -0.500
v 14.000 9.000 0.500
v 14.000 8.000 0.500
v 14.000 9.000 1.500
v 14.000 8.000 1.500
v 14.000 9.000 2.500
v 14.000 8.000 2.500
v 14.000 9.000 3.500
v 15.000 -8.000 -3.500
v 15.000 -7.000 -3.500
v 15.000 -7.000 -2.500
v 15.000 -8.000 -2.500
v 15.000 -7.000 -1.500
v 15.000 -8.000 -1.500
v 15.000 -7.000 -0.500
v 15.000 -8.000 -0.500
v 15.000 -7.000 0.500
v 15.000 -8.000 0.500
v 15.000 -7.000 1.500
v 15.000 -8.000 1.500
v 15.000 -7.000 2.500
v 15.000 -8.000 2.500
v 15.000 -7.000 3.500
v 15.000 -8.000 3.500
v 15.000 -7.000 -5.500
v 15.000 -6.000 -5.500
v 15.000 -6.000 -4.500
v 15.000 -7.000 -4.500
v 15.000 -6.000 -3.500
v 15.000 -6.000 3.500
v 15.000 -6.000 4.500
v 15.000 -7.000 4.500
v 15.000 -6.000 5.500
v 15.000 -7.000 5.500
v 15.000 -6.000 -6.500
v 15.000 -5.000 -6.500
v 15.000 -5.000 -5.500
v 15.000 -5.000 -4.500
v 15.000 -5.000 4.500
v 15.000 -5.000 5.500
v 15.000 -5.000 6.500
v 15.000 -6.000 6.500
v 15.000 -5.000 -7.500
v 15.000 -4.000 -7.500
v 15.000 -4.000 -6.500
v 15.000 -4.000 -5.500
v 15.000 -4.000 5.500
v 15.000 -4.000 6.500
v 15.000 -4.000 7.500
v 15.000 -5.000 7.500
v 15.000 -3.000 -7.500
v 15.000 -3.000 -6.500
v 15.000 -3.000 6.500
v 15.000 -3.000 7.500
v 15.000 -3.000 -8.500
v 15.000 -2.000 -8.500
v 15.000 -2.000 -7.500
v 15.000 -2.000 7.500
v 15.000 -2.000 8.500
v 15.000 -3.000 8.500
v 15.000 -1.000 -8.500
v 15.000 -1.000 -7.500
v 15.000 -1.000 7.500
v 15.000 -1.000 8.500
v 15.000 0.000 -8.500
v 15.000 0.000 -7.500
v 15.000 0.000 7.500
v 15.000 0.000 8.500
v 15.000 1.000 -8.500
v 15.000 1.000 -7.500
v 15.000 1.000 7.500
v 15.000 1.000 8.500
v 15.000 2.000 -8.500
v 15.000 2.000 -7.500
v 15.000 2.000 7.500
v 15.000 2.000 8.500
v 15.000 3.000 -8.500
v 15.000 3.000 -7.500
v 15.000 3.000 7.500
v 15.000 3.000 8.500
v 15.000 4.000 -7.500
v 15.000 4.000 -6.500
v 15.000 3.000 -6.500
v 15.000 3.000 6.500
v 15.000 4.000 6.500
v 15.000 4.000 7.500
v 15.000 5.000 -7.500
v 15.000 5.000 -6.500
v 15.000 5.000 -5.500
v 15.000 4.000 -5.500
v 15.000 4.000 5.500
v 15.000 5.000 5.500
v 15.000 5.000 6.500
v 15.000 5.000 7.500
v 15.000 6.000 -6.500
v 15.000 6.000 -5.500
v 15.000 6.000 -4.500
v 15.000 5.000 -4.500
v 15.000 5.000 4.500
v 15.000 6.000 4.500
v 15.000 6.000 5.500
v 15.000 6.000 6.500
v 15.000 7.000 -5.500
v 15.000 7.000 -4.500
v 15.000 7.000 -3.500
v 15.000 6.000 -3.500
v 15.000 6.000 3.500
v 15.000 7.000 3.500
v 15.000 7.000 4.500
v 15.000 7.000 5.500
v 15.000 8.000 -3.500
v 15.000 8.000 -2.500
v 15.000 7.000 -2.500
v 15.000 8.000 -1.500
v 15.000 7.000 -1.500
v 15.000 8.000 -0.500
v 15.000 7.000 -0.500
v 15.000 8.000 0.500
v 15.000 7.000 0.500
v 15.000 8.000 1.500
v 15.000 7.000 1.500
v 15.000 8.000 2.500
v 15.000 7.000 2.500
v 15.000 8.000 3.500
v 16.000 -7.000 -3.500
v 16.000 -6.000 -3.500
v 16.000 -6.000 -2.500
v 16.000 -7.000 -2.500
v 16.000 -6.000 -1.500
v 16.000 -7.000 -1.500
v 16.000 -6.000 -0.500
v 16.000 -7.000 -0.500
v 16.000 -6.000 0.500
v 16.000 -7.000 0.500
v 16.000 -6.000 1.500
v 16.000 -7.000 1.500
v 16.000 -6.000 2.500
v 16.000 -7.000 2.500
v 16.000 -6.000 3.500
v 16.000 -7.000 3.500
v 16.000 -6.000 -4.500
v 16.000 -5.000 -4.500
v 16.000 -5.000 -3.500
v 16.000 -5.000 -2.500
v 16.000 -5.000 -1.500
v 16.000 -5.000 -0.500
v 16.000 -5.000 0.500
v 16.000 -5.000 1.500
v 16.000 -5.000 2.500
v 16.000 -5.000 3.500
v 16.000 -5.000 4.500
v 16.000 -6.000 4.500
v 16.000 -5.000 -5.500
v 16.000 -4.000 -5.500
v 16.000 -4.000 -4.500
v 16.000 -4.000 -3.500
v 16.000 -4.000 -2.500
v 16.000 -4.000 2.500
v 16.000 -4.000 3.500
v 16.000 -4.000 4.500
v 16.000 -4.000 5.500
v 16.000 -5.000 5.500
v 16.000 -4.000 -6.500
v 16.000 -3.000 -6.500
v 16.000 -3.000 -5.500
v 16.000 -3.000 -4.500
v 16.000 -3.000 4.500
v 16.000 -3.000 5.500
v 16.000 -3.000 6.500
v 16.000 -4.000 6.500
v 16.000 -3.000 -7.500
v 16.000 -2.000 -7.500
v 16.000 -2.000 -6.500
v 16.000 -2.000 -5.500
v 16.000 -2.000 -4.500
v 16.000 -2.000 4.500
v 16.000 -2.000 5.500
v 16.000 -2.000 6.500
v 16.000 -2.000 7.500
v 16.000 -3.000 7.500
v 16.000 -1.000 -7.500
v 16.000 -1.000 -6.500
v 16.000 -1.000 -5.500
v 16.000 -1.000 5.500
v 16.000 -1.000 6.500
v 16.000 -1.000 7.500
v 16.000 0.000 -7.500
v 16.000 0.000 -6.500
v 16.000 0.000 -5.500
v 16.000 0.000 5.500
v 16.000 0.000 6.500
v 16.000 0.000 7.500
v 16.000 1.000 -7.500
v 16.000 1.000 -6.500
v 16.000 1.000 -5.500
v 16.000 1.000 5.500
v 16.000 1.000 6.500
v 16.000 1.000 7.500
v 16.000 2.000 -7.500
v 16.000 2.000 -6.500
v 16.000 2.000 -5.500
v 16.000 2.000 5.500
v 16.000 2.000 6.500
v 16.000 2.000 7.500
v 16.000 3.000 -7.500
v 16.000 3.000 -6.500
v 16.000 3.000 -5.500
v 16.000 3.000 -4.500
v 16.000 2.000 -4.500
v 16.000 2.000 4.500
v 16.000 3.000 4.500
v 16.000 3.000 5.500
v 16.000 3.000 6.500
v 16.000 3.000 7.500
v 16.000 4.000 -6.500
v 16.000 4.000 -5.500
v 16.000 4.000 -4.500
v 16.000 4.000 4.500
v 16.000 4.000 5.500
v 16.000 4.000 6.500
v 16.000 5.000 -5.500
v 16.000 5.000 -4.500
v 16.000 5.000 -3.500
v 16.000 4.000 -3.500
v 16.000 5.000 -2.500
v 16.000 4.000 -2.500
v 16.000 4.000 2.500
v 16.000 5.000 2.500
v 16.000 5.000 3.500
v 16.000 4.000 3.500
v 16.000 5.000 4.500
v 16.000 5.000 5.500
v 16.000 6.000 -4.500
v 16.000 6.000 -3.500
v 16.000 6.000 -2.500
v 16.000 6.000 -1.500
v 16.000 5.000 -1.500
v 16.000 6.000 -0.500
v 16.000 5.000 -0.500
v 16.000 6.000 0.500
v 16.000 5.000 0.500
v 16.000 6.000 1.500
v 16.000 5.000 1.500
v 16.000 6.000 2.500
v 16.000 6.000 3.500
v 16.000 6.000 4.500
v 16.000 7.000 -3.500
v 16.000 7.000 -2.500
v 16.000 7.000 -1.500
v 16.000 7.000 -0.500
v 16.000 7.000 0.500
v 16.000 7.000 1.500
v 16.000 7.000 2.500
v 16.000 7.000 3.500
v 17.000 -5.000 -2.500
v 17.000 -4.000 -2.500
v 17.000 -4.000 -1.500
v 17.000 -5.000 -1.500
v 17.000 -4.000 -0.500
v 17.000 -5.000 -0.500
v 17.000 -4.000 0.500
v 17.000 -5.000 0.500
v 17.000 -4.000 1.500
v 17.000 -5.000 1.500
v 17.000 -4.000 2.500
v 17.000 -5.000 2.500
v 17.000 -4.000 -4.500
v 17.000 -3.000 -4.500
v 17.000 -3.000 -3.500
v 17.000 -4.000 -3.500
v 17.000 -3.000 -2.500
v 17.000 -3.000 -1.500
v 17.000 -3.000 -0.500
v 17.000 -3.000 0.500
v 17.000 -3.000 1.500
v 17.000 -3.000 2.500
v 17.000 -3.000 3.500
v 17.000 -4.000 3.500
v 17.000 -3.000 4.500
v 17.000 -4.000 4.500
v 17.000 -2.000 -4.500
v 17.000 -2.000 -3.500
v 17.000 -2.000 -2.500
v 17.000 -2.000 -1.500
v 17.000 -2.000 -0.500
v 17.000 -2.000 0.500
v 17.000 -2.000 1.500
v 17.000 -2.000 2.500
v 17.000 -2.000 3.500
v 17.000 -2.000 4.500
v 17.000 -2.000 -5.500
v 17.000 -1.000 -5.500
v 17.000 -1.000 -4.500
v 17.000 -1.000 -3.500
v 17.000 -1.000 -2.500
v 17.000 -1.000 -1.500
v 17.000 -1.000 -0.500
v 17.000 -1.000 0.500
v 17.000 -1.000 1.500
v 17.000 -1.000 2.500
v 17.000 -1.000 3.500
v 17.000 -1.000 4.500
v 17.000 -1.000 5.500
v 17.000 -2.000 5.500
v 17.000 0.000 -5.500
v 17.000 0.000 -4.500
v 17.000 0.000 -3.500
v 17.000 0.000 -2.500
v 17.000 0.000 -1.500
v 17.000 0.000 -0.500
v 17.000 0.000 0.500
v 17.000 0.000 1.500
v 17.000 0.000 2.500
v 17.000 0.000 3.500
v 17.000 0.000 4.500
v 17.000 0.000 5.500
v 17.000 1.000 -5.500
v 17.000 1.000 -4.500
v 17.000 1.000 -3.500
v 17.000 1.000 -2.500
v 17.000 1.000 -1.500
v 17.000 1.000 -0.500
v 17.000 1.000 0.500
v 17.000 1.000 1.500
v 17.000 1.000 2.500
v 17.000 1.000 3.500
v 17.000 1.000 4.500
v 17.000 1.000 5.500
v 17.000 2.000 -5.500
v 17.000 2.000 -4.500
v 17.000 2.000 -3.500
v 17.000 2.000 -2.500
v 17.000 2.000 -1.500
v 17.000 2.000 -0.500
v 17.000 2.000 0.500
v 17.000 2.000 1.500
v 17.000 2.000 2.500
v 17.000 2.000 3.500
v 17.000 2.000 4.500
v 17.000 2.000 5.500
v 17.000 3.000 -4.500
v 17.000 3.000 -3.500
v 17.000 3.000 -2.500
v 17.000 3.000 -1.500
v 17.000 3.000 -0.500
v 17.000 3.000 0.500
v 17.000 3.000 1.500
v 17.000 3.000 2.500
v 17.000 3.000 3.500
v 17.000 3.000 4.500
v 17.000 4.000 -4.500
v 17.000 4.000 -3.500
v 17.000 4.000 -2.500
v 17.000 4.000 -1.500
v 17.000 4.000 -0.500
v 17.000 4.000 0.500
v 17.000 4.000 1.500
v 17.000 4.000 2.500
v 17.000 4.000 3.500
v 17.000 4.000 4.500
v 17.000 5.000 -2.500
v 17.000 5.000 -1.500
v 17.000 5.000 -0.500
v 17.000 5.000 0.500
v 17.000 5.000 1.500
v 17.000 5.000 2.500
f 1 2 3 4
f 1 4 5 6
f 5 4 3 7
f 8 9 2 1
f 8 1 6 10
f 11 12 9 8
f 11 8 10 13
f 14 15 12 11
f 14 11 13 16
f 17 18 15 14
f 17 14 16 19
f 17 19 20 18
f 3 21 22 23
f 3 23 24 7
f 24 23 22 25
f 2 26 21 3
f 9 27 26 2
f 12 28 27 9
f 15 29 28 12
f 18 30 29 15
f 31 32 30 18
f 31 18 20 33
f 31 33 34 32
f 22 35 36 37
f 22 37 38 25
f 38 37 36 39
f 21 40 35 22
f 26 41 40 21
f 27 42 41 26
f 28 43 42 27
f 29 44 43 28
f 30 45 44 29
f 32 46 45 30
f 47 48 46 32
f 47 32 34 49
f 47 49 50 48
f 35 51 52 36
f 39 36 52 53
f 40 54 51 35
f 41 55 54 40
f 42 56 55 41
f 43 57 56 42
f 44 58 57 43
f 45 59 58 44
f 46 60 59 45
f 48 61 60 46
f 48 50 62 61
f 51 63 64 52
f 53 52 64 65
f 54 66 63 51
f 55 67 66 54
f 56 68 67 55
f 57 69 68 56
f 58 70 69 57
f 59 71 70 58
f 60 72 71 59
f 61 73 72 60
f 61 62 74 73
f 63 75 76 64
f 76 75 77 78
f 65 64 76 78
f 66 79 75 63
f 67 80 79 66
f 68 81 80 67
f 69 82 81 68
f 70 83 82 69
f 71 84 83 70
f 72 85 84 71
f 73 86 85 72
f 85 86 87 88
f 73 74 87 86
f 79 89 90 75
f 90 89 91 92
f 77 75 90 92
f 80 93 89 79
f 81 94 93 80
f 82 95 94 81
f 83 96 95 82
f 84 97 96 83
f 85 98 97 84
f 97 98 99 100
f 85 88 99 98
f 93 101 102 89
f 102 101 103 104
f 91 89 102 104
f 94 105 101 93
f 101 105 106 103
f 95 107 105 94
f 105 107 108 106
f 96 109 107 95
f 107 109 110 108
f 97 111 109 96
f 109 111 112 110
f 97 100 112 111
f 6 5 113 114
f 113 5 7 115
f 10 6 114 116
f 13 10 116 117
f 16 13 117 118
f 19 16 118 119
f 19 119 120 20
f 7 24 121 115
f 121 24 25 122
f 33 20 120 123
f 33 123 124 34
f 25 38 125 122
f 125 38 39 126
f 49 34 124 127
f 49 127 128 50
f 126 39 53 129
f 50 128 130 62
f 129 53 65 131
f 62 130 132 74
f 78 77 133 134
f 131 65 78 134
f 88 87 135 136
f 74 132 135 87
f 92 91 137 138
f 133 77 92 138
f 100 99 139 140
f 88 136 139 99
f 104 103 141 142
f 137 91 104 142
f 103 106 143 141
f 106 108 144 143
f 108 110 145 144
f 110 112 146 145
f 100 140 146 112
f 114 113 147 148
f 147 113 115 149
f 116 114 148 150
f 117 116 150 151
f 118 117 151 152
f 119 118 152 153
f 119 153 154 120
f 115 121 155 149
f 155 121 122 156
f 123 120 154 157
f 123 157 158 124
f 122 125 159 156
f 159 125 126 160
f 127 124 158 161
f 127 161 162 128
f 160 126 129 163
f 128 162 164 130
f 163 129 131 165
f 130 164 166 132
f 134 133 167 168
f 165 131 134 168
f 136 135 169 170
f 132 166 169 135
f 138 137 171 172
f 167 133 138 172
f 140 139 173 174
f 136 170 173 139
f 142 141 175 176
f 171 137 142 176
f 141 143 177 175
f 143 144 178 177
f 144 145 179 178
f 145 146 180 179
f 140 174 180 146
f 148 147 181 182
f 181 147 149 183
f 150 148 182 184
f 151 150 184 185
f 152 151 185 186
f 153 152 186 187
f 153 187 188 154
f 149 155 189 183
f 189 155 156 190
f 157 154 188 191
f 157 191 192 158
f 156 159 193 190
f 193 159 160 194
f 161 158 192 195
f 161 195 196 162
f 194 160 163 197
f 162 196 198 164
f 197 163 165 199
f 164 198 200 166
f 168 167 201 202
f 199 165 168 202
f 170 169 203 204
f 166 200 203 169
f 172 171 205 206
f 201 167 172 206
f 174 173 207 208
f 170 204 207 173
f 176 175 209 210
f 205 171 176 210
f 175 177 211 209
f 177 178 212 211
f 178 179 213 212
f 179 180 214 213
f 174 208 214 180
f 182 181 215 216
f 215 181 183 217
f 184 182 216 218
f 185 184 218 219
f 186 185 219 220
f 187 186 220 221
f 187 221 222 188
f 183 189 223 217
f 223 189 190 224
f 191 188 222 225
f 191 225 226 192
f 190 193 227 224
f 227 193 194 228
f 195 192 226 229
f 195 229 230 196
f 228 194 197 231
f 196 230 232 198
f 231 197 199 233
f 198 232 234 200
f 202 201 235 236
f 233 199 202 236
f 204 203 237 238
f 200 234 237 203
f 206 205 239 240
f 235 201 206 240
f 208 207 241 242
f 204 238 241 207
f 210 209 243 244
f 239 205 210 244
f 209 211 245 243
f 211 212 246 245
f 212 213 247 246
f 213 214 248 247
f 208 242 248 214
f 216 215 249 250
f 249 215 217 251
f 218 216 250 252
f 219 218 252 253
f 220 219 253 254
f 221 220 254 255
f 221 255 256 222
f 217 223 257 251
f 257 223 224 258
f 225 222 256 259
f 225 259 260 226
f 224 227 261 258
f 261 227 228 262
f 229 226 260 263
f 229 263 264 230
f 262 228 231 265
f 230 264 266 232
f 265 231 233 267
f 232 266 268 234
f 236 235 269 270
f 267 233 236 270
f 238 237 271 272
f 234 268 271 237
f 240 239 273 274
f 269 235 240 274
f 242 241 275 276
f 238 272 275 241
f 244 243 277 278
f 273 239 244 278
f 243 245 279 277
f 245 246 280 279
f 246 247 281 280
f 247 248 282 281
f 242 276 282 248
f 283 284 285 286
f 250 249 283 286
f 283 249 251 284
f 286 285 287 288
f 252 250 286 288
f 288 287 289 290
f 253 252 288 290
f 290 289 291 292
f 254 253 290 292
f 292 291 293 294
f 255 254 292 294
f 255 294 293 256
f 295 296 297 284
f 251 257 295 284
f 295 257 258 296
f 284 297 298 285
f 285 298 299 287
f 287 299 300 289
f 289 300 301 291
f 291 301 302 293
f 293 302 303 304
f 259 256 293 304
f 259 304 303 260
f 305 306 307 296
f 258 261 305 296
f 305 261 262 306
f 296 307 308 297
f 297 308 309 298
f 301 310 311 302
f 302 311 312 303
f 303 312 313 314
f 263 260 303 314
f 263 314 313 264
f 306 315 316 307
f 306 262 265 315
f 307 316 317 308
f 311 318 319 312
f 312 319 320 313
f 264 313 320 266
f 315 321 322 316
f 315 265 267 321
f 316 322 323 317
f 318 324 325 319
f 319 325 326 320
f 266 320 326 268
f 321 327 328 322
f 270 269 328 327
f 321 267 270 327
f 322 328 329 323
f 323 329 330 331
f 332 333 334 324
f 324 334 335 325
f 325 335 336 326
f 272 271 336 335
f 268 326 336 271
f 328 337 338 329
f 274 273 338 337
f 328 269 274 337
f 329 338 339 330
f 330 339 340 341
f 341 340 342 343
f 343 342 344 333
f 333 344 345 334
f 334 345 346 335
f 276 275 346 345
f 272 335 346 275
f 338 347 348 339
f 278 277 348 347
f 338 273 278 347
f 339 348 349 340
f 277 279 349 348
f 340 349 350 342
f 279 280 350 349
f 342 350 351 344
f 280 281 351 350
f 344 351 352 345
f 281 282 352 351
f 276 345 352 282
f 299 298 353 354
f 353 298 309 355
f 300 299 354 356
f 301 300 356 357
f 301 357 358 310
f 309 308 359 355
f 359 308 317 360
f 311 310 358 361
f 311 361 362 318
f 323 331 363 364
f 360 317 323 364
f 332 324 365 366
f 318 362 365 324
f 330 341 367 368
f 363 331 330 368
f 341 343 369 367
f 343 333 370 369
f 332 366 370 333
f 354 353 371 372
f 371 353 355 373
f 356 354 372 374
f 357 356 374 375
f 357 375 376 358
f 355 359 377 373
f 377 359 360 378
f 361 358 376 379
f 361 379 380 362
f 364 363 381 382
f 378 360 364 382
f 366 365 383 384
f 362 380 383 365
f 368 367 385 386
f 381 363 368 386
f 367 369 387 385
f 369 370 388 387
f 366 384 388 370
f 372 371 389 390
f 389 371 373 391
f 374 372 390 392
f 375 374 392 393
f 375 393 394 376
f 373 377 395 391
f 395 377 378 396
f 379 376 394 397
f 379 397 398 380
f 382 381 399 400
f 396 378 382 400
f 384 383 401 402
f 380 398 401 383
f 386 385 403 404
f 399 381 386 404
f 385 387 405 403
f 387 388 406 405
f 384 402 406 388
f 390 389 407 408
f 407 389 391 409
f 392 390 408 410
f 393 392 410 411
f 393 411 412 394
f 391 395 413 409
f 413 395 396 414
f 397 394 412 415
f 397 415 416 398
f 400 399 417 418
f 414 396 400 418
f 402 401 419 420
f 398 416 419 401
f 404 403 421 422
f 417 399 404 422
f 403 405 423 421
f 405 406 424 423
f 402 420 424 406
f 408 407 425 426
f 425 407 409 427
f 410 408 426 428
f 411 410 428 429
f 411 429 430 412
f 409 413 431 427
f 431 413 414 432
f 415 412 430 433
f 415 433 434 416
f 418 417 435 436
f 432 414 418 436
f 420 419 437 438
f 416 434 437 419
f 422 421 439 440
f 435 417 422 440
f 421 423 441 439
f 423 424 442 441
f 420 438 442 424
f 426 425 443 444
f 443 425 427 445
f 428 426 444 446
f 429 428 446 447
f 429 447 448 430
f 427 431 449 445
f 449 431 432 450
f 433 430 448 451
f 433 451 452 434
f 436 435 453 454
f 450 432 436 454
f 438 437 455 456
f 434 452 455 437
f 440 439 457 458
f 453 435 440 458
f 439 441 459 457
f 441 442 460 459
f 438 456 460 442
f 444 443 461 462
f 461 443 445 463
f 446 444 462 464
f 447 446 464 465
f 447 465 466 448
f 445 449 467 463
f 467 449 450 468
f 451 448 466 469
f 451 469 470 452
f 454 453 471 472
f 468 450 454 472
f 456 455 473 474
f 452 470 473 455
f 458 457 475 476
f 471 453 458 476
f 457 459 477 475
f 459 460 478 477
f 456 474 478 460
f 462 461 479 480
f 479 461 463 481
f 464 462 480 482
f 465 464 482 483
f 465 483 484 466
f 463 467 485 481
f 485 467 468 486
f 469 466 484 487
f 469 487 488 470
f 472 471 489 490
f 486 468 472 490
f 474 473 491 492
f 470 488 491 473
f 476 475 493 494
f 489 471 476 494
f 475 477 495 493
f 477 478 496 495
f 474 492 496 478
f 497 479 498 499
f 497 499 500 501
f 500 499 498 502
f 503 480 479 497
f 503 497 501 504
f 505 482 480 503
f 505 503 504 506
f 507 483 482 505
f 507 505 506 508
f 509 510 483 507
f 509 507 508 511
f 509 511 512 510
f 498 485 513 514
f 498 514 515 502
f 515 514 513 516
f 479 481 485 498
f 510 487 484 483
f 517 518 487 510
f 517 510 512 519
f 517 519 520 518
f 485 486 521 513
f 516 513 521 522
f 518 523 488 487
f 518 520 524 523
f 486 490 525 521
f 522 521 525 526
f 523 527 491 488
f 523 524 528 527
f 490 529 530 525
f 530 529 531 532
f 526 525 530 532
f 489 494 529 490
f 491 533 496 492
f 527 534 533 491
f 533 534 535 536
f 527 528 535 534
f 494 537 538 529
f 538 537 539 540
f 531 529 538 540
f 493 541 537 494
f 537 541 542 539
f 495 543 541 493
f 541 543 544 542
f 496 545 543 495
f 543 545 546 544
f 533 547 545 496
f 545 547 548 546
f 533 536 548 547
f 501 500 549 550
f 549 500 502 551
f 504 501 550 552
f 506 504 552 553
f 508 506 553 554
f 511 508 554 555
f 511 555 556 512
f 502 515 557 551
f 557 515 516 558
f 519 512 556 559
f 519 559 560 520
f 558 516 522 561
f 520 560 562 524
f 561 522 526 563
f 524 562 564 528
f 532 531 565 566
f 563 526 532 566
f 536 535 567 568
f 528 564 567 535
f 540 539 569 570
f 565 531 540 570
f 539 542 571 569
f 542 544 572 571
f 544 546 573 572
f 546 548 574 573
f 536 568 574 548
f 550 549 575 576
f 575 549 551 577
f 552 550 576 578
f 553 552 578 579
f 554 553 579 580
f 555 554 580 581
f 555 581 582 556
f 551 557 583 577
f 583 557 558 584
f 559 556 582 585
f 559 585 586 560
f 584 558 561 587
f 560 586 588 562
f 587 561 563 589
f 562 588 590 564
f 566 565 591 592
f 589 563 566 592
f 568 567 593 594
f 564 590 593 567
f 570 569 595 596
f 591 565 570 596
f 569 571 597 595
f 571 572 598 597
f 572 573 599 598
f 573 574 600 599
f 568 594 600 574
f 576 575 601 602
f 601 575 577 603
f 578 576 602 604
f 579 578 604 605
f 580 579 605 606
f 581 580 606 607
f 581 607 608 582
f 577 583 609 603
f 609 583 584 610
f 585 582 608 611
f 585 611 612 586
f 610 584 587 613
f 586 612 614 588
f 613 587 589 615
f 588 614 616 590
f 592 591 617 618
f 615 589 592 618
f 594 593 619 620
f 590 616 619 593
f 596 595 621 622
f 617 591 596 622
f 595 597 623 621
f 597 598 624 623
f 598 599 625 624
f 599 600 626 625
f 594 620 626 600
f 602 601 627 628
f 627 601 603 629
f 604 602 628 630
f 605 604 630 631
f 606 605 631 632
f 607 606 632 633
f 607 633 634 608
f 603 609 635 629
f 635 609 610 636
f 611 608 634 637
f 611 637 638 612
f 636 610 613 639
f 612 638 640 614
f 639 613 615 641
f 614 640 642 616
f 618 617 643 644
f 641 615 618 644
f 620 619 645 646
f 616 642 645 619
f 622 621 647 648
f 643 617 622 648
f 621 623 649 647
f 623 624 650 649
f 624 625 651 650
f 625 626 652 651
f 620 646 652 626
f 653 628 627 654
f 653 654 655 656
f 655 654 627 657
f 658 630 628 653
f 658 653 656 659
f 660 631 630 658
f 660 658 659 661
f 662 632 631 660
f 662 660 661 663
f 664 633 632 662
f 664 662 663 665
f 664 665 666 633
f 627 629 635 667
f 627 667 668 657
f 668 667 635 669
f 670 637 634 633
f 670 633 666 671
f 670 671 672 637
f 635 636 673 674
f 635 674 675 669
f 675 674 673 676
f 677 678 638 637
f 677 637 672 679
f 677 679 680 678
f 636 639 681 673
f 676 673 681 682
f 678 683 640 638
f 678 680 684 683
f 639 641 685 681
f 682 681 685 686
f 683 687 642 640
f 683 684 688 687
f 641 644 689 685
f 689 644 690 691
f 686 685 689 691
f 687 692 645 642
f 645 692 693 694
f 687 688 693 692
f 643 648 695 644
f 695 648 696 697
f 690 644 695 697
f 645 698 652 646
f 652 698 699 700
f 645 694 699 698
f 647 701 702 648
f 702 701 703 704
f 696 648 702 704
f 649 705 701 647
f 701 705 706 703
f 650 707 705 649
f 705 707 708 706
f 651 709 707 650
f 707 709 710 708
f 652 711 709 651
f 709 711 712 710
f 652 700 712 711
f 656 655 713 714
f 713 655 657 715
f 659 656 714 716
f 661 659 716 717
f 663 661 717 718
f 665 663 718 719
f 665 719 720 666
f 657 668 721 715
f 721 668 669 722
f 671 666 720 723
f 671 723 724 672
f 669 675 725 722
f 725 675 676 726
f 679 672 724 727
f 679 727 728 680
f 726 676 682 729
f 680 728 730 684
f 729 682 686 731
f 684 730 732 688
f 691 690 733 734
f 731 686 691 734
f 694 693 735 736
f 688 732 735 693
f 697 696 737 738
f 733 690 697 738
f 700 699 739 740
f 694 736 739 699
f 704 703 741 742
f 737 696 704 742
f 703 706 743 741
f 706 708 744 743
f 708 710 745 744
f 710 712 746 745
f 700 740 746 712
f 747 714 713 748
f 747 748 749 750
f 749 748 713 751
f 752 716 714 747
f 752 747 750 753
f 754 717 716 752
f 754 752 753 755
f 756 718 717 754
f 756 754 755 757
f 758 719 718 756
f 758 756 757 759
f 758 759 760 719
f 761 721 762 763
f 761 763 764 765
f 764 763 762 766
f 713 715 721 761
f 713 761 765 751
f 767 723 720 719
f 767 719 760 768
f 769 770 723 767
f 769 767 768 771
f 769 771 772 770
f 721 722 725 762
f 766 762 725 773
f 770 727 724 723
f 770 772 774 727
f 725 726 775 776
f 725 776 777 773
f 777 776 775 778
f 779 780 728 727
f 779 727 774 781
f 779 781 782 780
f 726 729 783 775
f 778 775 783 784
f 780 785 730 728
f 780 782 786 785
f 729 731 787 783
f 784 783 787 788
f 785 789 732 730
f 785 786 790 789
f 731 734 791 787
f 791 734 792 793
f 788 787 791 793
f 789 794 735 732
f 735 794 795 796
f 789 790 795 794
f 733 738 797 734
f 792 734 797 798
f 735 799 739 736
f 735 796 800 799
f 738 801 802 797
f 802 801 803 804
f 798 797 802 804
f 737 742 801 738
f 801 742 805 803
f 739 806 746 740
f 746 806 807 808
f 799 809 806 739
f 806 809 810 807
f 799 800 810 809
f 741 811 812 742
f 812 811 813 814
f 805 742 812 814
f 743 815 811 741
f 811 815 816 813
f 744 817 815 743
f 815 817 818 816
f 745 819 817 744
f 817 819 820 818
f 746 821 819 745
f 819 821 822 820
f 746 808 822 821
f 823 750 749 824
f 823 824 825 826
f 825 824 749 827
f 828 753 750 823
f 828 823 826 829
f 830 755 753 828
f 830 828 829 831
f 832 757 755 830
f 832 830 831 833
f 834 759 757 832
f 834 832 833 835
f 834 835 836 759
f 837 765 764 838
f 837 838 839 840
f 839 838 764 841
f 749 751 765 837
f 749 837 840 827
f 842 768 760 759
f 842 759 836 843
f 844 771 768 842
f 844 842 843 845
f 844 845 846 771
f 764 766 847 848
f 764 848 849 841
f 849 848 847 850
f 851 852 772 771
f 851 771 846 853
f 851 853 854 852
f 766 773 777 847
f 850 847 777 855
f 852 781 774 772
f 852 854 856 781
f 777 778 857 858
f 777 858 859 855
f 859 858 857 860
f 861 862 782 781
f 861 781 856 863
f 861 863 864 862
f 778 784 865 857
f 860 857 865 866
f 862 867 786 782
f 862 864 868 867
f 784 788 869 865
f 866 865 869 870
f 867 871 790 786
f 867 868 872 871
f 788 793 873 869
f 873 793 874 875
f 870 869 873 875
f 871 876 795 790
f 795 876 877 878
f 871 872 877 876
f 792 798 879 793
f 874 793 879 880
f 795 881 800 796
f 795 878 882 881
f 798 804 883 879
f 883 804 884 885
f 880 879 883 885
f 881 886 810 800
f 810 886 887 888
f 881 882 887 886
f 803 889 890 804
f 890 889 891 892
f 884 804 890 892
f 805 814 889 803
f 889 814 893 891
f 807 894 822 808
f 822 894 895 896
f 810 897 894 807
f 894 897 898 895
f 810 888 898 897
f 813 899 900 814
f 900 899 901 902
f 893 814 900 902
f 816 903 899 813
f 899 903 904 901
f 818 905 903 816
f 903 905 906 904
f 820 907 905 818
f 905 907 908 906
f 822 909 907 820
f 907 909 910 908
f 822 896 910 909
f 911 825 912 913
f 911 913 914 915
f 914 913 912 916
f 917 826 825 911
f 917 911 915 918
f 919 829 826 917
f 919 917 918 920
f 921 831 829 919
f 921 919 920 922
f 923 833 831 921
f 923 921 922 924
f 925 835 833 923
f 925 923 924 926
f 927 928 835 925
f 927 925 926 929
f 927 929 930 928
f 912 840 839 931
f 912 931 932 916
f 932 931 839 933
f 825 827 840 912
f 928 843 836 835
f 934 845 843 928
f 934 928 930 935
f 934 935 936 845
f 839 841 849 937
f 839 937 938 933
f 938 937 849 939
f 940 853 846 845
f 940 845 936 941
f 940 941 942 853
f 849 850 943 944
f 849 944 945 939
f 945 944 943 946
f 947 948 854 853
f 947 853 942 949
f 947 949 950 948
f 943 859 951 952
f 943 952 953 946
f 953 952 951 954
f 850 855 859 943
f 948 863 856 854
f 955 956 863 948
f 955 948 950 957
f 955 957 958 956
f 859 860 959 951
f 954 951 959 960
f 956 961 864 863
f 956 958 962 961
f 860 866 963 959
f 960 959 963 964
f 961 965 868 864
f 961 962 966 965
f 866 870 967 963
f 964 963 967 968
f 965 969 872 868
f 965 966 970 969
f 870 875 971 967
f 968 967 971 972
f 969 973 877 872
f 969 970 974 973
f 875 975 976 971
f 976 975 977 978
f 972 971 976 978
f 874 880 975 875
f 877 979 882 878
f 973 980 979 877
f 979 980 981 982
f 973 974 981 980
f 880 885 983 975
f 983 885 984 985
f 977 975 983 985
f 979 986 887 882
f 887 986 987 988
f 979 982 987 986
f 884 892 989 885
f 989 892 990 991
f 984 885 989 991
f 887 992 898 888
f 898 992 993 994
f 887 988 993 992
f 891 995 996 892
f 996 995 997 998
f 990 892 996 998
f 893 902 995 891
f 895 999 910 896
f 898 1000 999 895
f 999 1000 1001 1002
f 898 994 1001 1000
f 902 1003 1004 995
f 1004 1003 1005 1006
f 997 995 1004 1006
f 901 1007 1003 902
f 1003 1007 1008 1005
f 904 1009 1007 901
f 1007 1009 1010 1008
f 906 1011 1009 904
f 1009 1011 1012 1010
f 908 1013 1011 906
f 1011 1013 1014 1012
f 910 1015 1013 908
f 1013 1015 1016 1014
f 999 1017 1015 910
f 1015 1017 1018 1016
f 999 1002 1018 1017
f 1019 915 914 1020
f 1019 1020 1021 1022
f 1021 1020 914 1023
f 1024 918 915 1019
f 1024 1019 1022 1025
f 1026 920 918 1024
f 1026 1024 1025 1027
f 1028 922 920 1026
f 1028 1026 1027 1029
f 1030 924 922 1028
f 1030 1028 1029 1031
f 1032 926 924 1030
f 1032 1030 1031 1033
f 1034 929 926 1032
f 1034 1032 1033 1035
f 1034 1035 1036 929
f 1037 932 1038 1039
f 1037 1039 1040 1041
f 1040 1039 1038 1042
f 914 916 932 1037
f 914 1037 1041 1023
f 1043 935 930 929
f 1043 929 1036 1044
f 1045 1046 935 1043
f 1045 1043 1044 1047
f 1045 1047 1048 1046
f 1038 938 1049 1050
f 1038 1050 1051 1042
f 1051 1050 1049 1052
f 932 933 938 1038
f 1046 941 936 935
f 1053 1054 941 1046
f 1053 1046 1048 1055
f 1053 1055 1056 1054
f 1049 945 1057 1058
f 1049 1058 1059 1052
f 1059 1058 1057 1060
f 938 939 945 1049
f 1054 949 942 941
f 1061 1062 949 1054
f 1061 1054 1056 1063
f 1061 1063 1064 1062
f 945 946 953 1057
f 1060 1057 953 1065
f 1062 957 950 949
f 1062 1064 1066 957
f 953 954 1067 1068
f 953 1068 1069 1065
f 1069 1068 1067 1070
f 1071 1072 958 957
f 1071 957 1066 1073
f 1071 1073 1074 1072
f 954 960 1075 1067
f 1070 1067 1075 1076
f 1072 1077 962 958
f 1072 1074 1078 1077
f 960 964 1079 1075
f 1076 1075 1079 1080
f 1077 1081 966 962
f 1077 1078 1082 1081
f 964 968 1083 1079
f 1080 1079 1083 1084
f 1081 1085 970 966
f 1081 1082 1086 1085
f 968 972 1087 1083
f 1084 1083 1087 1088
f 1085 1089 974 970
f 1085 1086 1090 1089
f 972 978 1091 1087
f 1091 978 1092 1093
f 1088 1087 1091 1093
f 1089 1094 981 974
f 981 1094 1095 1096
f 1089 1090 1095 1094
f 977 985 1097 978
f 1092 978 1097 1098
f 981 1099 987 982
f 981 1096 1100 1099
f 985 1101 1102 1097
f 1102 1101 1103 1104
f 1098 1097 1102 1104
f 984 991 1101 985
f 987 1105 993 988
f 1099 1106 1105 987
f 1105 1106 1107 1108
f 1099 1100 1107 1106
f 991 1109 1110 1101
f 1110 1109 1111 1112
f 1103 1101 1110 1112
f 990 998 1109 991
f 993 1113 1001 994
f 1105 1114 1113 993
f 1113 1114 1115 1116
f 1105 1108 1115 1114
f 998 1117 1118 1109
f 1118 1117 1119 1120
f 1111 1109 1118 1120
f 997 1006 1117 998
f 1117 1006 1121 1119
f 1001 1122 1018 1002
f 1018 1122 1123 1124
f 1113 1125 1122 1001
f 1122 1125 1126 1123
f 1113 1116 1126 1125
f 1005 1127 1128 1006
f 1128 1127 1129 1130
f 1121 1006 1128 1130
f 1008 1131 1127 1005
f 1127 1131 1132 1129
f 1010 1133 1131 1008
f 1131 1133 1134 1132
f 1012 1135 1133 1010
f 1133 1135 1136 1134
f 1014 1137 1135 1012
f 1135 1137 1138 1136
f 1016 1139 1137 1014
f 1137 1139 1140 1138
f 1018 1141 1139 1016
f 1139 1141 1142 1140
f 1018 1124 1142 1141
f 1143 1022 1021 1144
f 1143 1144 1145 1146
f 1145 1144 1021 1147
f 1148 1025 1022 1143
f 1148 1143 1146 1149
f 1150 1027 1025 1148
f 1150 1148 1149 1151
f 1152 1029 1027 1150
f 1152 1150 1151 1153
f 1154 1031 1029 1152
f 1154 1152 1153 1155
f 1156 1033 1031 1154
f 1156 1154 1155 1157
f 1158 1035 1033 1156
f 1158 1156 1157 1159
f 1158 1159 1160 1035
f 1161 1041 1040 1162
f 1161 1162 1163 1164
f 1163 1162 1040 1165
f 1021 1023 1041 1161
f 1021 1161 1164 1147
f 1166 1044 1036 1035
f 1166 1035 1160 1167
f 1168 1047 1044 1166
f 1168 1166 1167 1169
f 1168 1169 1170 1047
f 1040 1042 1051 1171
f 1040 1171 1172 1165
f 1172 1171 1051 1173
f 1174 1055 1048 1047
f 1174 1047 1170 1175
f 1174 1175 1176 1055
f 1051 1052 1059 1177
f 1051 1177 1178 1173
f 1178 1177 1059 1179
f 1180 1063 1056 1055
f 1180 1055 1176 1181
f 1180 1181 1182 1063
f 1059 1060 1183 1184
f 1059 1184 1185 1179
f 1185 1184 1183 1186
f 1187 1188 1064 1063
f 1187 1063 1182 1189
f 1187 1189 1190 1188
f 1060 1065 1069 1183
f 1186 1183 1069 1191
f 1188 1073 1066 1064
f 1188 1190 1192 1073
f 1069 1070 1193 1194
f 1069 1194 1195 1191
f 1195 1194 1193 1196
f 1197 1198 1074 1073
f 1197 1073 1192 1199
f 1197 1199 1200 1198
f 1070 1076 1201 1193
f 1196 1193 1201 1202
f 1198 1203 1078 1074
f 1198 1200 1204 1203
f 1076 1080 1205 1201
f 1202 1201 1205 1206
f 1203 1207 1082 1078
f 1203 1204 1208 1207
f 1080 1084 1209 1205
f 1206 1205 1209 1210
f 1207 1211 1086 1082
f 1207 1208 1212 1211
f 1084 1088 1213 1209
f 1210 1209 1213 1214
f 1211 1215 1090 1086
f 1211 1212 1216 1215
f 1088 1093 1217 1213
f 1217 1093 1218 1219
f 1214 1213 1217 1219
f 1215 1220 1095 1090
f 1095 1220 1221 1222
f 1215 1216 1221 1220
f 1092 1098 1223 1093
f 1218 1093 1223 1224
f 1095 1225 1100 1096
f 1095 1222 1226 1225
f 1098 1104 1227 1223
f 1227 1104 1228 1229
f 1224 1223 1227 1229
f 1225 1230 1107 1100
f 1107 1230 1231 1232
f 1225 1226 1231 1230
f 1103 1112 1233 1104
f 1233 1112 1234 1235
f 1228 1104 1233 1235
f 1107 1236 1115 1108
f 1115 1236 1237 1238
f 1107 1232 1237 1236
f 1111 1120 1239 1112
f 1239 1120 1240 1241
f 1234 1112 1239 1241
f 1115 1242 1126 1116
f 1126 1242 1243 1244
f 1115 1238 1243 1242
f 1119 1245 1246 1120
f 1246 1245 1247 1248
f 1240 1120 1246 1248
f 1121 1130 1245 1119
f 1245 1130 1249 1247
f 1123 1250 1142 1124
f 1142 1250 1251 1252
f 1126 1253 1250 1123
f 1250 1253 1254 1251
f 1126 1244 1254 1253
f 1129 1255 1256 1130
f 1256 1255 1257 1258
f 1249 1130 1256 1258
f 1132 1259 1255 1129
f 1255 1259 1260 1257
f 1134 1261 1259 1132
f 1259 1261 1262 1260
f 1136 1263 1261 1134
f 1261 1263 1264 1262
f 1138 1265 1263 1136
f 1263 1265 1266 1264
f 1140 1267 1265 1138
f 1265 1267 1268 1266
f 1142 1269 1267 1140
f 1267 1269 1270 1268
f 1142 1252 1270 1269
f 1271 1146 1145 1272
f 1271 1272 1273 1274
f 1273 1272 1145 1275
f 1276 1149 1146 1271
f 1276 1271 1274 1277
f 1278 1151 1149 1276
f 1278 1276 1277 1279
f 1280 1153 1151 1278
f 1280 1278 1279 1281
f 1282 1155 1153 1280
f 1282 1280 1281 1283
f 1284 1157 1155 1282
f 1284 1282 1283 1285
f 1286 1159 1157 1284
f 1286 1284 1285 1287
f 1286 1287 1288 1159
f 1289 1164 1163 1290
f 1289 1290 1291 1292
f 1291 1290 1163 1293
f 1145 1147 1164 1289
f 1145 1289 1292 1275
f 1294 1167 1160 1159
f 1294 1159 1288 1295
f 1296 1169 1167 1294
f 1296 1294 1295 1297
f 1296 1297 1298 1169
f 1299 1172 1300 1301
f 1299 1301 1302 1303
f 1302 1301 1300 1304
f 1163 1165 1172 1299
f 1163 1299 1303 1293
f 1305 1175 1170 1169
f 1305 1169 1298 1306
f 1307 1308 1175 1305
f 1307 1305 1306 1309
f 1307 1309 1310 1308
f 1300 1178 1311 1312
f 1300 1312 1313 1304
f 1313 1312 1311 1314
f 1172 1173 1178 1300
f 1308 1181 1176 1175
f 1315 1316 1181 1308
f 1315 1308 1310 1317
f 1315 1317 1318 1316
f 1178 1179 1185 1311
f 1314 1311 1185 1319
f 1316 1189 1182 1181
f 1316 1318 1320 1189
f 1185 1186 1321 1322
f 1185 1322 1323 1319
f 1323 1322 1321 1324
f 1325 1326 1190 1189
f 1325 1189 1320 1327
f 1325 1327 1328 1326
f 1186 1191 1195 1321
f 1324 1321 1195 1329
f 1326 1199 1192 1190
f 1326 1328 1330 1199
f 1195 1196 1331 1332
f 1195 1332 1333 1329
f 1333 1332 1331 1334
f 1335 1336 1200 1199
f 1335 1199 1330 1337
f 1335 1337 1338 1336
f 1196 1202 1339 1331
f 1334 1331 1339 1340
f 1336 1341 1204 1200
f 1336 1338 1342 1341
f 1202 1206 1343 1339
f 1340 1339 1343 1344
f 1341 1345 1208 1204
f 1341 1342 1346 1345
f 1206 1210 1347 1343
f 1344 1343 1347 1348
f 1345 1349 1212 1208
f 1345 1346 1350 1349
f 1210 1214 1351 1347
f 1348 1347 1351 1352
f 1349 1353 1216 1212
f 1349 1350 1354 1353
f 1214 1219 1355 1351
f 1355 1219 1356 1357
f 1352 1351 1355 1357
f 1353 1358 1221 1216
f 1221 1358 1359 1360
f 1353 1354 1359 1358
f 1218 1224 1361 1219
f 1356 1219 1361 1362
f 1221 1363 1226 1222
f 1221 1360 1364 1363
f 1224 1229 1365 1361
f 1365 1229 1366 1367
f 1362 1361 1365 1367
f 1363 1368 1231 1226
f 1231 1368 1369 1370
f 1363 1364 1369 1368
f 1228 1235 1371 1229
f 1366 1229 1371 1372
f 1231 1373 1237 1232
f 1231 1370 1374 1373
f 1235 1375 1376 1371
f 1376 1375 1377 1378
f 1372 1371 1376 1378
f 1234 1241 1375 1235
f 1237 1379 1243 1238
f 1373 1380 1379 1237
f 1379 1380 1381 1382
f 1373 1374 1381 1380
f 1241 1383 1384 1375
f 1384 1383 1385 1386
f 1377 1375 1384 1386
f 1240 1248 1383 1241
f 1383 1248 1387 1385
f 1243 1388 1254 1244
f 1254 1388 1389 1390
f 1379 1391 1388 1243
f 1388 1391 1392 1389
f 1379 1382 1392 1391
f 1247 1393 1394 1248
f 1394 1393 1395 1396
f 1387 1248 1394 1396
f 1249 1258 1393 1247
f 1393 1258 1397 1395
f 1251 1398 1270 1252
f 1270 1398 1399 1400
f 1254 1401 1398 1251
f 1398 1401 1402 1399
f 1254 1390 1402 1401
f 1257 1403 1404 1258
f 1404 1403 1405 1406
f 1397 1258 1404 1406
f 1260 1407 1403 1257
f 1403 1407 1408 1405
f 1262 1409 1407 1260
f 1407 1409 1410 1408
f 1264 1411 1409 1262
f 1409 1411 1412 1410
f 1266 1413 1411 1264
f 1411 1413 1414 1412
f 1268 1415 1413 1266
f 1413 1415 1416 1414
f 1270 1417 1415 1268
f 1415 1417 1418 1416
f 1270 1400 1418 1417
f 1419 1420 1421 1422
f 1274 1273 1419 1422
f 1419 1273 1275 1420
f 1422 1421 1423 1424
f 1277 1274 1422 1424
f 1424 1423 1425 1426
f 1279 1277 1424 1426
f 1426 1425 1427 1428
f 1281 1279 1426 1428
f 1428 1427 1429 1430
f 1283 1281 1428 1430
f 1430 1429 1431 1432
f 1285 1283 1430 1432
f 1432 1431 1433 1434
f 1287 1285 1432 1434
f 1287 1434 1433 1288
f 1435 1436 1437 1438
f 1292 1291 1435 1438
f 1435 1291 1293 1436
f 1438 1437 1439 1420
f 1275 1292 1438 1420
f 1433 1440 1441 1442
f 1295 1288 1433 1442
f 1442 1441 1443 1444
f 1297 1295 1442 1444
f 1297 1444 1443 1298
f 1445 1446 1447 1448
f 1303 1302 1445 1448
f 1445 1302 1304 1446
f 1448 1447 1449 1436
f 1293 1303 1448 1436
f 1443 1450 1451 1452
f 1306 1298 1443 1452
f 1452 1451 1453 1454
f 1309 1306 1452 1454
f 1309 1454 1453 1310
f 1455 1456 1457 1446
f 1304 1313 1455 1446
f 1455 1313 1314 1456
f 1446 1457 1458 1447
f 1451 1459 1460 1453
f 1453 1460 1461 1462
f 1317 1310 1453 1462
f 1317 1462 1461 1318
f 1456 1463 1464 1457
f 1456 1314 1319 1463
f 1460 1465 1466 1461
f 1318 1461 1466 1320
f 1467 1468 1469 1463
f 1319 1323 1467 1463
f 1467 1323 1324 1468
f 1466 1470 1471 1472
f 1327 1320 1466 1472
f 1327 1472 1471 1328
f 1468 1473 1474 1469
f 1468 1324 1329 1473
f 1470 1475 1476 1471
f 1328 1471 1476 1330
f 1477 1478 1479 1473
f 1329 1333 1477 1473
f 1477 1333 1334 1478
f 1476 1480 1481 1482
f 1337 1330 1476 1482
f 1337 1482 1481 1338
f 1478 1483 1484 1479
f 1478 1334 1340 1483
f 1480 1485 1486 1481
f 1338 1481 1486 1342
f 1483 1487 1488 1484
f 1483 1340 1344 1487
f 1485 1489 1490 1486
f 1342 1486 1490 1346
f 1487 1491 1492 1488
f 1487 1344 1348 1491
f 1489 1493 1494 1490
f 1346 1490 1494 1350
f 1491 1495 1496 1492
f 1491 1348 1352 1495
f 1493 1497 1498 1494
f 1350 1494 1498 1354
f 1495 1499 1500 1496
f 1357 1356 1500 1499
f 1495 1352 1357 1499
f 1497 1501 1502 1498
f 1360 1359 1502 1501
f 1354 1498 1502 1359
f 1500 1503 1504 1505
f 1500 1356 1362 1503
f 1506 1507 1508 1501
f 1360 1501 1508 1364
f 1503 1509 1510 1504
f 1367 1366 1510 1509
f 1503 1362 1367 1509
f 1507 1511 1512 1508
f 1370 1369 1512 1511
f 1364 1508 1512 1369
f 1510 1513 1514 1515
f 1510 1366 1372 1513
f 1516 1517 1518 1511
f 1370 1511 1518 1374
f 1513 1519 1520 1514
f 1378 1377 1520 1519
f 1513 1372 1378 1519
f 1514 1520 1521 1522
f 1523 1524 1525 1517
f 1517 1525 1526 1518
f 1382 1381 1526 1525
f 1374 1518 1526 1381
f 1520 1527 1528 1521
f 1386 1385 1528 1527
f 1520 1377 1386 1527
f 1521 1528 1529 1530
f 1385 1387 1529 1528
f 1531 1532 1533 1524
f 1390 1389 1533 1532
f 1524 1533 1534 1525
f 1389 1392 1534 1533
f 1382 1525 1534 1392
f 1529 1535 1536 1537
f 1396 1395 1536 1535
f 1529 1387 1396 1535
f 1537 1536 1538 1539
f 1395 1397 1538 1536
f 1540 1541 1542 1543
f 1400 1399 1542 1541
f 1543 1542 1544 1532
f 1399 1402 1544 1542
f 1390 1532 1544 1402
f 1538 1545 1546 1547
f 1406 1405 1546 1545
f 1538 1397 1406 1545
f 1547 1546 1548 1549
f 1405 1408 1548 1546
f 1549 1548 1550 1551
f 1408 1410 1550 1548
f 1551 1550 1552 1553
f 1410 1412 1552 1550
f 1553 1552 1554 1555
f 1412 1414 1554 1552
f 1555 1554 1556 1557
f 1414 1416 1556 1554
f 1557 1556 1558 1541
f 1416 1418 1558 1556
f 1400 1541 1558 1418
f 1421 1420 1559 1560
f 1559 1420 1439 1561
f 1423 1421 1560 1562
f 1425 1423 1562 1563
f 1427 1425 1563 1564
f 1429 1427 1564 1565
f 1431 1429 1565 1566
f 1433 1431 1566 1567
f 1433 1567 1568 1440
f 1437 1436 1569 1570
f 1569 1436 1449 1571
f 1439 1437 1570 1561
f 1441 1440 1568 1572
f 1443 1441 1572 1573
f 1443 1573 1574 1450
f 1449 1447 1575 1571
f 1575 1447 1458 1576
f 1451 1450 1574 1577
f 1451 1577 1578 1459
f 1458 1457 1579 1576
f 1579 1457 1464 1580
f 1460 1459 1578 1581
f 1460 1581 1582 1465
f 1464 1463 1583 1580
f 1583 1463 1469 1584
f 1466 1465 1582 1585
f 1466 1585 1586 1470
f 1584 1469 1474 1587
f 1470 1586 1588 1475
f 1474 1473 1589 1587
f 1589 1473 1479 1590
f 1476 1475 1588 1591
f 1476 1591 1592 1480
f 1590 1479 1484 1593
f 1480 1592 1594 1485
f 1593 1484 1488 1595
f 1485 1594 1596 1489
f 1595 1488 1492 1597
f 1489 1596 1598 1493
f 1597 1492 1496 1599
f 1493 1598 1600 1497
f 1500 1505 1601 1602
f 1599 1496 1500 1602
f 1506 1501 1603 1604
f 1497 1600 1603 1501
f 1601 1505 1504 1605
f 1506 1604 1606 1507
f 1510 1515 1607 1608
f 1605 1504 1510 1608
f 1516 1511 1609 1610
f 1507 1606 1609 1511
f 1514 1522 1611 1612
f 1607 1515 1514 1612
f 1523 1517 1613 1614
f 1516 1610 1613 1517
f 1521 1530 1615 1616
f 1611 1522 1521 1616
f 1531 1524 1617 1618
f 1523 1614 1617 1524
f 1529 1537 1619 1620
f 1615 1530 1529 1620
f 1537 1539 1621 1619
f 1540 1543 1622 1623
f 1543 1532 1624 1622
f 1531 1618 1624 1532
f 1538 1547 1625 1626
f 1621 1539 1538 1626
f 1547 1549 1627 1625
f 1549 1551 1628 1627
f 1551 1553 1629 1628
f 1553 1555 1630 1629
f 1555 1557 1631 1630
f 1557 1541 1632 1631
f 1540 1623 1632 1541
f 1633 1634 1635 1636
f 1560 1559 1633 1636
f 1633 1559 1561 1634
f 1636 1635 1637 1638
f 1562 1560 1636 1638
f 1638 1637 1639 1640
f 1563 1562 1638 1640
f 1640 1639 1641 1642
f 1564 1563 1640 1642
f 1642 1641 1643 1644
f 1565 1564 1642 1644
f 1644 1643 1645 1646
f 1566 1565 1644 1646
f 1646 1645 1647 1648
f 1567 1566 1646 1648
f 1567 1648 1647 1568
f 1649 1650 1651 1652
f 1570 1569 1649 1652
f 1649 1569 1571 1650
f 1652 1651 1653 1634
f 1561 1570 1652 1634
f 1647 1654 1655 1656
f 1572 1568 1647 1656
f 1656 1655 1657 1658
f 1573 1572 1656 1658
f 1573 1658 1657 1574
f 1659 1660 1661 1650
f 1571 1575 1659 1650
f 1659 1575 1576 1660
f 1657 1662 1663 1664
f 1577 1574 1657 1664
f 1577 1664 1663 1578
f 1665 1666 1667 1660
f 1576 1579 1665 1660
f 1665 1579 1580 1666
f 1663 1668 1669 1670
f 1581 1578 1663 1670
f 1581 1670 1669 1582
f 1671 1672 1673 1666
f 1580 1583 1671 1666
f 1671 1583 1584 1672
f 1669 1674 1675 1676
f 1585 1582 1669 1676
f 1585 1676 1675 1586
f 1672 1677 1678 1673
f 1672 1584 1587 1677
f 1674 1679 1680 1675
f 1586 1675 1680 1588
f 1681 1682 1683 1677
f 1587 1589 1681 1677
f 1681 1589 1590 1682
f 1680 1684 1685 1686
f 1591 1588 1680 1686
f 1591 1686 1685 1592
f 1682 1687 1688 1683
f 1682 1590 1593 1687
f 1684 1689 1690 1685
f 1592 1685 1690 1594
f 1687 1691 1692 1688
f 1687 1593 1595 1691
f 1689 1693 1694 1690
f 1594 1690 1694 1596
f 1691 1695 1696 1692
f 1691 1595 1597 1695
f 1693 1697 1698 1694
f 1596 1694 1698 1598
f 1695 1699 1700 1696
f 1695 1597 1599 1699
f 1697 1701 1702 1698
f 1598 1698 1702 1600
f 1699 1703 1704 1700
f 1602 1601 1704 1703
f 1699 1599 1602 1703
f 1701 1705 1706 1702
f 1604 1603 1706 1705
f 1600 1702 1706 1603
f 1704 1707 1708 1709
f 1704 1601 1605 1707
f 1710 1711 1712 1705
f 1604 1705 1712 1606
f 1707 1713 1714 1708
f 1608 1607 1714 1713
f 1707 1605 1608 1713
f 1711 1715 1716 1712
f 1610 1609 1716 1715
f 1606 1712 1716 1609
f 1714 1717 1718 1719
f 1612 1611 1718 1717
f 1714 1607 1612 1717
f 1720 1721 1722 1715
f 1614 1613 1722 1721
f 1610 1715 1722 1613
f 1718 1723 1724 1725
f 1616 1615 1724 1723
f 1718 1611 1616 1723
f 1726 1727 1728 1721
f 1618 1617 1728 1727
f 1614 1721 1728 1617
f 1724 1729 1730 1731
f 1620 1619 1730 1729
f 1724 1615 1620 1729
f 1731 1730 1732 1733
f 1619 1621 1732 1730
f 1734 1735 1736 1737
f 1623 1622 1736 1735
f 1737 1736 1738 1727
f 1622 1624 1738 1736
f 1618 1727 1738 1624
f 1732 1739 1740 1741
f 1626 1625 1740 1739
f 1732 1621 1626 1739
f 1741 1740 1742 1743
f 1625 1627 1742 1740
f 1743 1742 1744 1745
f 1627 1628 1744 1742
f 1745 1744 1746 1747
f 1628 1629 1746 1744
f 1747 1746 1748 1749
f 1629 1630 1748 1746
f 1749 1748 1750 1751
f 1630 1631 1750 1748
f 1751 1750 1752 1735
f 1631 1632 1752 1750
f 1623 1735 1752 1632
f 1753 1754 1755 1756
f 1635 1634 1753 1756
f 1753 1634 1653 1754
f 1756 1755 1757 1758
f 1637 1635 1756 1758
f 1758 1757 1759 1760
f 1639 1637 1758 1760
f 1760 1759 1761 1762
f 1641 1639 1760 1762
f 1762 1761 1763 1764
f 1643 1641 1762 1764
f 1764 1763 1765 1766
f 1645 1643 1764 1766
f 1766 1765 1767 1768
f 1647 1645 1766 1768
f 1647 1768 1767 1654
f 1769 1770 1771 1772
f 1651 1650 1769 1772
f 1769 1650 1661 1770
f 1772 1771 1773 1754
f 1653 1651 1772 1754
f 1767 1774 1775 1776
f 1655 1654 1767 1776
f 1776 1775 1777 1778
f 1657 1655 1776 1778
f 1657 1778 1777 1662
f 1779 1780 1781 1770
f 1661 1660 1779 1770
f 1779 1660 1667 1780
f 1770 1781 1782 1771
f 1775 1783 1784 1777
f 1777 1784 1785 1786
f 1663 1662 1777 1786
f 1663 1786 1785 1668
f 1787 1788 1789 1780
f 1667 1666 1787 1780
f 1787 1666 1673 1788
f 1780 1789 1790 1781
f 1784 1791 1792 1785
f 1785 1792 1793 1794
f 1669 1668 1785 1794
f 1669 1794 1793 1674
f 1788 1795 1796 1789
f 1788 1673 1678 1795
f 1792 1797 1798 1793
f 1674 1793 1798 1679
f 1799 1800 1801 1795
f 1678 1677 1799 1795
f 1799 1677 1683 1800
f 1798 1802 1803 1804
f 1680 1679 1798 1804
f 1680 1804 1803 1684
f 1800 1805 1806 1801
f 1800 1683 1688 1805
f 1802 1807 1808 1803
f 1684 1803 1808 1689
f 1805 1809 1810 1806
f 1805 1688 1692 1809
f 1807 1811 1812 1808
f 1689 1808 1812 1693
f 1809 1813 1814 1810
f 1809 1692 1696 1813
f 1811 1815 1816 1812
f 1693 1812 1816 1697
f 1813 1817 1818 1814
f 1813 1696 1700 1817
f 1815 1819 1820 1816
f 1697 1816 1820 1701
f 1817 1821 1822 1818
f 1704 1709 1822 1821
f 1817 1700 1704 1821
f 1819 1823 1824 1820
f 1710 1705 1824 1823
f 1701 1820 1824 1705
f 1822 1825 1826 1827
f 1822 1709 1708 1825
f 1828 1829 1830 1823
f 1710 1823 1830 1711
f 1825 1831 1832 1826
f 1714 1719 1832 1831
f 1825 1708 1714 1831
f 1826 1832 1833 1834
f 1835 1836 1837 1829
f 1829 1837 1838 1830
f 1720 1715 1838 1837
f 1711 1830 1838 1715
f 1832 1839 1840 1833
f 1718 1725 1840 1839
f 1832 1719 1718 1839
f 1833 1840 1841 1842
f 1843 1844 1845 1836
f 1836 1845 1846 1837
f 1726 1721 1846 1845
f 1720 1837 1846 1721
f 1840 1847 1848 1841
f 1724 1731 1848 1847
f 1840 1725 1724 1847
f 1841 1848 1849 1850
f 1731 1733 1849 1848
f 1851 1852 1853 1844
f 1734 1737 1853 1852
f 1844 1853 1854 1845
f 1737 1727 1854 1853
f 1726 1845 1854 1727
f 1849 1855 1856 1857
f 1732 1741 1856 1855
f 1849 1733 1732 1855
f 1857 1856 1858 1859
f 1741 1743 1858 1856
f 1859 1858 1860 1861
f 1743 1745 1860 1858
f 1861 1860 1862 1863
f 1745 1747 1862 1860
f 1863 1862 1864 1865
f 1747 1749 1864 1862
f 1865 1864 1866 1867
f 1749 1751 1866 1864
f 1867 1866 1868 1852
f 1751 1735 1868 1866
f 1734 1852 1868 1735
f 1869 1870 1871 1872
f 1755 1754 1869 1872
f 1869 1754 1773 1870
f 1872 1871 1873 1874
f 1757 1755 1872 1874
f 1874 1873 1875 1876
f 1759 1757 1874 1876
f 1876 1875 1877 1878
f 1761 1759 1876 1878
f 1878 1877 1879 1880
f 1763 1761 1878 1880
f 1880 1879 1881 1882
f 1765 1763 1880 1882
f 1882 1881 1883 1884
f 1767 1765 1882 1884
f 1767 1884 1883 1774
f 1885 1886 1887 1870
f 1773 1771 1885 1870
f 1885 1771 1782 1886
f 1870 1887 1888 1871
f 1871 1888 1889 1873
f 1873 1889 1890 1875
f 1875 1890 1891 1877
f 1877 1891 1892 1879
f 1879 1892 1893 1881
f 1881 1893 1894 1883
f 1883 1894 1895 1896
f 1775 1774 1883 1896
f 1775 1896 1895 1783
f 1897 1898 1899 1886
f 1782 1781 1897 1886
f 1897 1781 1790 1898
f 1886 1899 1900 1887
f 1887 1900 1901 1888
f 1893 1902 1903 1894
f 1894 1903 1904 1895
f 1895 1904 1905 1906
f 1784 1783 1895 1906
f 1784 1906 1905 1791
f 1907 1908 1909 1898
f 1790 1789 1907 1898
f 1907 1789 1796 1908
f 1898 1909 1910 1899
f 1904 1911 1912 1905
f 1905 1912 1913 1914
f 1792 1791 1905 1914
f 1792 1914 1913 1797
f 1915 1916 1917 1908
f 1796 1795 1915 1908
f 1915 1795 1801 1916
f 1908 1917 1918 1909
f 1909 1918 1919 1910
f 1911 1920 1921 1912
f 1912 1921 1922 1913
f 1913 1922 1923 1924
f 1798 1797 1913 1924
f 1798 1924 1923 1802
f 1916 1925 1926 1917
f 1916 1801 1806 1925
f 1917 1926 1927 1918
f 1921 1928 1929 1922
f 1922 1929 1930 1923
f 1802 1923 1930 1807
f 1925 1931 1932 1926
f 1925 1806 1810 1931
f 1926 1932 1933 1927
f 1928 1934 1935 1929
f 1929 1935 1936 1930
f 1807 1930 1936 1811
f 1931 1937 1938 1932
f 1931 1810 1814 1937
f 1932 1938 1939 1933
f 1934 1940 1941 1935
f 1935 1941 1942 1936
f 1811 1936 1942 1815
f 1937 1943 1944 1938
f 1937 1814 1818 1943
f 1938 1944 1945 1939
f 1940 1946 1947 1941
f 1941 1947 1948 1942
f 1815 1942 1948 1819
f 1943 1949 1950 1944
f 1822 1827 1950 1949
f 1943 1818 1822 1949
f 1944 1950 1951 1945
f 1945 1951 1952 1953
f 1954 1955 1956 1946
f 1946 1956 1957 1947
f 1947 1957 1958 1948
f 1828 1823 1958 1957
f 1819 1948 1958 1823
f 1950 1959 1960 1951
f 1826 1834 1960 1959
f 1950 1827 1826 1959
f 1951 1960 1961 1952
f 1955 1962 1963 1956
f 1956 1963 1964 1957
f 1835 1829 1964 1963
f 1828 1957 1964 1829
f 1960 1965 1966 1961
f 1833 1842 1966 1965
f 1960 1834 1833 1965
f 1961 1966 1967 1968
f 1968 1967 1969 1970
f 1971 1972 1973 1974
f 1974 1973 1975 1962
f 1962 1975 1976 1963
f 1843 1836 1976 1975
f 1835 1963 1976 1836
f 1966 1977 1978 1967
f 1841 1850 1978 1977
f 1966 1842 1841 1977
f 1967 1978 1979 1969
f 1969 1979 1980 1981
f 1981 1980 1982 1983
f 1983 1982 1984 1985
f 1985 1984 1986 1987
f 1987 1986 1988 1972
f 1972 1988 1989 1973
f 1973 1989 1990 1975
f 1851 1844 1990 1989
f 1843 1975 1990 1844
f 1978 1991 1992 1979
f 1849 1857 1992 1991
f 1978 1850 1849 1991
f 1979 1992 1993 1980
f 1857 1859 1993 1992
f 1980 1993 1994 1982
f 1859 1861 1994 1993
f 1982 1994 1995 1984
f 1861 1863 1995 1994
f 1984 1995 1996 1986
f 1863 1865 1996 1995
f 1986 1996 1997 1988
f 1865 1867 1997 1996
f 1988 1997 1998 1989
f 1867 1852 1998 1997
f 1851 1989 1998 1852
f 1999 2000 2001 2002
f 1889 1888 1999 2002
f 1999 1888 1901 2000
f 2002 2001 2003 2004
f 1890 1889 2002 2004
f 2004 2003 2005 2006
f 1891 1890 2004 2006
f 2006 2005 2007 2008
f 1892 1891 2006 2008
f 2008 2007 2009 2010
f 1893 1892 2008 2010
f 1893 2010 2009 1902
f 2011 2012 2013 2014
f 1900 1899 2011 2014
f 2011 1899 1910 2012
f 2014 2013 2015 2000
f 1901 1900 2014 2000
f 2000 2015 2016 2001
f 2001 2016 2017 2003
f 2003 2017 2018 2005
f 2005 2018 2019 2007
f 2007 2019 2020 2009
f 2009 2020 2021 2022
f 1903 1902 2009 2022
f 2022 2021 2023 2024
f 1904 1903 2022 2024
f 1904 2024 2023 1911
f 2012 2025 2026 2013
f 2012 1910 1919 2025
f 2013 2026 2027 2015
f 2015 2027 2028 2016
f 2016 2028 2029 2017
f 2017 2029 2030 2018
f 2018 2030 2031 2019
f 2019 2031 2032 2020
f 2020 2032 2033 2021
f 2021 2033 2034 2023
f 1911 2023 2034 1920
f 2035 2036 2037 2025
f 1919 1918 2035 2025
f 2035 1918 1927 2036
f 2025 2037 2038 2026
f 2026 2038 2039 2027
f 2027 2039 2040 2028
f 2028 2040 2041 2029
f 2029 2041 2042 2030
f 2030 2042 2043 2031
f 2031 2043 2044 2032
f 2032 2044 2045 2033
f 2033 2045 2046 2034
f 2034 2046 2047 2048
f 1921 1920 2034 2048
f 1921 2048 2047 1928
f 2036 2049 2050 2037
f 2036 1927 1933 2049
f 2037 2050 2051 2038
f 2038 2051 2052 2039
f 2039 2052 2053 2040
f 2040 2053 2054 2041
f 2041 2054 2055 2042
f 2042 2055 2056 2043
f 2043 2056 2057 2044
f 2044 2057 2058 2045
f 2045 2058 2059 2046
f 2046 2059 2060 2047
f 1928 2047 2060 1934
f 2049 2061 2062 2050
f 2049 1933 1939 2061
f 2050 2062 2063 2051
f 2051 2063 2064 2052
f 2052 2064 2065 2053
f 2053 2065 2066 2054
f 2054 2066 2067 2055
f 2055 2067 2068 2056
f 2056 2068 2069 2057
f 2057 2069 2070 2058
f 2058 2070 2071 2059
f 2059 2071 2072 2060
f 1934 2060 2072 1940
f 2061 2073 2074 2062
f 1945 1953 2074 2073
f 2061 1939 1945 2073
f 2062 2074 2075 2063
f 2063 2075 2076 2064
f 2064 2076 2077 2065
f 2065 2077 2078 2066
f 2066 2078 2079 2067
f 2067 2079 2080 2068
f 2068 2080 2081 2069
f 2069 2081 2082 2070
f 2070 2082 2083 2071
f 2071 2083 2084 2072
f 1954 1946 2084 2083
f 1940 2072 2084 1946
f 2074 2085 2086 2075
f 2074 1953 1952 2085
f 2075 2086 2087 2076
f 2076 2087 2088 2077
f 2077 2088 2089 2078
f 2078 2089 2090 2079
f 2079 2090 2091 2080
f 2080 2091 2092 2081
f 2081 2092 2093 2082
f 2082 2093 2094 2083
f 1954 2083 2094 1955
f 2085 2095 2096 2086
f 1961 1968 2096 2095
f 2085 1952 1961 2095
f 2086 2096 2097 2087
f 1968 1970 2097 2096
f 2087 2097 2098 2088
f 2088 2098 2099 2089
f 2089 2099 2100 2090
f 2090 2100 2101 2091
f 2091 2101 2102 2092
f 2092 2102 2103 2093
f 1971 1974 2103 2102
f 2093 2103 2104 2094
f 1974 1962 2104 2103
f 1955 2094 2104 1962
f 2097 2105 2106 2098
f 1969 1981 2106 2105
f 2097 1970 1969 2105
f 2098 2106 2107 2099
f 1981 1983 2107 2106
f 2099 2107 2108 2100
f 1983 1985 2108 2107
f 2100 2108 2109 2101
f 1985 1987 2109 2108
f 2101 2109 2110 2102
f 1987 1972 2110 2109
f 1971 2102 2110 1972
