# B-crescent — lifted from a 2D silhouette by aide.lift
o B-crescent
v -15.000 -9.000 0.000
v -15.000 -8.000 0.000
v -15.000 -8.000 -1.000
v -15.000 -9.000 -1.000
v -14.000 -9.000 -1.000
v -14.000 -9.000 0.000
v -14.000 -8.000 -1.000
v -15.000 -9.000 1.000
v -15.000 -8.000 1.000
v -14.000 -9.000 1.000
v -14.000 -8.000 1.000
v -15.000 -7.000 0.000
v -15.000 -7.000 -1.000
v -14.000 -7.000 -1.000
v -15.000 -7.000 1.000
v -14.000 -7.000 1.000
v -15.000 -6.000 0.000
v -15.000 -6.000 -1.000
v -14.000 -6.000 -1.000
v -15.000 -6.000 1.000
v -14.000 -6.000 1.000
v -15.000 -5.000 0.000
v -15.000 -5.000 -1.000
v -14.000 -5.000 -1.000
v -15.000 -5.000 1.000
v -14.000 -5.000 1.000
v -15.000 -4.000 0.000
v -15.000 -4.000 -1.000
v -14.000 -4.000 -1.000
v -15.000 -4.000 1.000
v -14.000 -4.000 1.000
v -15.000 -3.000 0.000
v -15.000 -3.000 -1.000
v -14.000 -3.000 -1.000
v -15.000 -3.000 1.000
v -14.000 -3.000 1.000
v -15.000 -2.000 0.000
v -15.000 -2.000 -1.000
v -14.000 -2.000 -1.000
v -15.000 -2.000 1.000
v -14.000 -2.000 1.000
v -15.000 -1.000 0.000
v -15.000 -1.000 -1.000
v -14.000 -1.000 -1.000
v -15.000 -1.000 1.000
v -14.000 -1.000 1.000
v -15.000 0.000 0.000
v -15.000 0.000 -1.000
v -14.000 0.000 -1.000
v -15.000 0.000 1.000
v -14.000 0.000 1.000
v -15.000 1.000 0.000
v -15.000 1.000 -1.000
v -14.000 1.000 -1.000
v -15.000 1.000 1.000
v -14.000 1.000 1.000
v -15.000 2.000 0.000
v -15.000 2.000 -1.000
v -14.000 2.000 -1.000
v -15.000 2.000 1.000
v -14.000 2.000 1.000
v -15.000 3.000 0.000
v -15.000 3.000 -1.000
v -14.000 3.000 -1.000
v -15.000 3.000 1.000
v -14.000 3.000 1.000
v -15.000 4.000 0.000
v -15.000 4.000 -1.000
v -14.000 4.000 -1.000
v -15.000 4.000 1.000
v -14.000 4.000 1.000
v -15.000 5.000 0.000
v -15.000 5.000 -1.000
v -14.000 5.000 -1.000
v -15.000 5.000 1.000
v -14.000 5.000 1.000
v -15.000 6.000 0.000
v -15.000 6.000 -1.000
v -14.000 6.000 -1.000
v -15.000 6.000 1.000
v -14.000 6.000 1.000
v -15.000 7.000 0.000
v -15.000 7.000 -1.000
v -14.000 7.000 -1.000
v -15.000 7.000 1.000
v -14.000 7.000 1.000
v -15.000 8.000 0.000
v -15.000 8.000 -1.000
v -14.000 8.000 0.000
v -14.000 8.000 -1.000
v -15.000 8.000 1.000
v -14.000 8.000 1.000
v -13.000 -9.000 -1.000
v -13.000 -9.000 0.000
v -13.000 -8.000 -1.000
v -13.000 -9.000 1.000
v -13.000 -8.000 1.000
v -13.000 -8.000 -2.000
v -13.000 -7.000 -2.000
v -13.000 -7.000 -1.000
v -14.000 -7.000 -2.000
v -14.000 -8.000 -2.000
v -13.000 -7.000 1.000
v -13.000 -7.000 2.000
v -13.000 -8.000 2.000
v -14.000 -8.000 2.000
v -14.000 -7.000 2.000
v -13.000 -6.000 -2.000
v -13.000 -6.000 -1.000
v -14.000 -6.000 -2.000
v -13.000 -6.000 1.000
v -13.000 -6.000 2.000
v -14.000 -6.000 2.000
v -14.000 -5.000 -2.000
v -13.000 -5.000 -2.000
v -14.000 -5.000 2.000
v -13.000 -5.000 2.000
v -14.000 -4.000 -2.000
v -13.000 -4.000 -2.000
v -14.000 -4.000 2.000
v -13.000 -4.000 2.000
v -14.000 -3.000 -2.000
v -13.000 -3.000 -2.000
v -14.000 -3.000 2.000
v -13.000 -3.000 2.000
v -14.000 -2.000 -2.000
v -13.000 -2.000 -2.000
v -14.000 -2.000 2.000
v -13.000 -2.000 2.000
v -14.000 -1.000 -2.000
v -13.000 -1.000 -2.000
v -14.000 -1.000 2.000
v -13.000 -1.000 2.000
v -14.000 0.000 -2.000
v -13.000 0.000 -2.000
v -14.000 0.000 2.000
v -13.000 0.000 2.000
v -14.000 1.000 -2.000
v -13.000 1.000 -2.000
v -14.000 1.000 2.000
v -13.000 1.000 2.000
v -14.000 2.000 -2.000
v -13.000 2.000 -2.000
v -14.000 2.000 2.000
v -13.000 2.000 2.000
v -14.000 3.000 -2.000
v -13.000 3.000 -2.000
v -14.000 3.000 2.000
v -13.000 3.000 2.000
v -14.000 4.000 -2.000
v -13.000 4.000 -2.000
v -14.000 4.000 2.000
v -13.000 4.000 2.000
v -14.000 5.000 -2.000
v -13.000 5.000 -2.000
v -14.000 5.000 2.000
v -13.000 5.000 2.000
v -14.000 6.000 -2.000
v -13.000 6.000 -2.000
v -14.000 6.000 2.000
v -13.000 6.000 2.000
v -14.000 7.000 -2.000
v -13.000 7.000 -1.000
v -13.000 7.000 -2.000
v -14.000 7.000 2.000
v -13.000 7.000 2.000
v -13.000 7.000 1.000
v -13.000 8.000 -1.000
v -13.000 8.000 1.000
v -13.000 9.000 -1.000
v -13.000 9.000 0.000
v -13.000 8.000 0.000
v -14.000 9.000 0.000
v -14.000 9.000 -1.000
v -13.000 9.000 1.000
v -14.000 9.000 1.000
v -13.000 10.000 -1.000
v -13.000 10.000 0.000
v -14.000 10.000 0.000
v -14.000 10.000 -1.000
v -13.000 10.000 1.000
v -14.000 10.000 1.000
v -12.000 -9.000 -1.000
v -12.000 -8.000 -1.000
v -12.000 -8.000 0.000
v -12.000 -9.000 0.000
v -12.000 -8.000 1.000
v -12.000 -9.000 1.000
v -12.000 -7.000 -1.000
v -12.000 -7.000 0.000
v -12.000 -7.000 1.000
v -12.000 -6.000 -1.000
v -12.000 -6.000 1.000
v -12.000 -6.000 -2.000
v -12.000 -5.000 -2.000
v -12.000 -6.000 2.000
v -12.000 -5.000 2.000
v -13.000 -4.000 -3.000
v -13.000 -5.000 -3.000
v -12.000 -5.000 -3.000
v -12.000 -4.000 -3.000
v -13.000 -5.000 3.000
v -13.000 -4.000 3.000
v -12.000 -5.000 3.000
v -12.000 -4.000 3.000
v -13.000 -3.000 -3.000
v -12.000 -3.000 -3.000
v -13.000 -3.000 3.000
v -12.000 -3.000 3.000
v -13.000 -2.000 -3.000
v -12.000 -2.000 -3.000
v -13.000 -2.000 3.000
v -12.000 -2.000 3.000
v -13.000 -1.000 -3.000
v -12.000 -1.000 -3.000
v -13.000 -1.000 3.000
v -12.000 -1.000 3.000
v -13.000 0.000 -3.000
v -12.000 0.000 -3.000
v -13.000 0.000 3.000
v -12.000 0.000 3.000
v -13.000 1.000 -3.000
v -12.000 1.000 -3.000
v -13.000 1.000 3.000
v -12.000 1.000 3.000
v -13.000 2.000 -3.000
v -12.000 2.000 -3.000
v -13.000 2.000 3.000
v -12.000 2.000 3.000
v -13.000 3.000 -3.000
v -12.000 3.000 -3.000
v -13.000 3.000 3.000
v -12.000 3.000 3.000
v -13.000 4.000 -3.000
v -12.000 4.000 -3.000
v -13.000 4.000 3.000
v -12.000 4.000 3.000
v -13.000 5.000 -3.000
v -12.000 5.000 -3.000
v -13.000 5.000 3.000
v -12.000 5.000 3.000
v -13.000 6.000 -3.000
v -12.000 6.000 -2.000
v -12.000 6.000 -3.000
v -13.000 6.000 3.000
v -12.000 6.000 3.000
v -12.000 6.000 2.000
v -12.000 7.000 -1.000
v -12.000 7.000 -2.000
v -12.000 7.000 2.000
v -12.000 7.000 1.000
v -12.000 8.000 0.000
v -12.000 8.000 -1.000
v -12.000 8.000 1.000
v -11.000 -7.000 -1.000
v -11.000 -7.000 0.000
v -11.000 -6.000 -1.000
v -11.000 -7.000 1.000
v -11.000 -6.000 1.000
v -11.000 -6.000 -2.000
v -11.000 -5.000 -2.000
v -11.000 -6.000 2.000
v -11.000 -5.000 2.000
v -11.000 -5.000 -3.000
v -11.000 -4.000 -3.000
v -11.000 -5.000 3.000
v -11.000 -4.000 3.000
v -11.000 -3.000 -3.000
v -11.000 -3.000 3.000
v -11.000 -2.000 -3.000
v -11.000 -2.000 3.000
v -11.000 -1.000 -3.000
v -11.000 -1.000 3.000
v -11.000 0.000 -3.000
v -11.000 0.000 3.000
v -11.000 1.000 -3.000
v -11.000 1.000 3.000
v -11.000 2.000 -3.000
v -11.000 2.000 3.000
v -11.000 3.000 -3.000
v -11.000 3.000 3.000
v -11.000 4.000 -3.000
v -11.000 4.000 3.000
v -11.000 5.000 -3.000
v -11.000 5.000 3.000
v -11.000 6.000 -2.000
v -11.000 6.000 -3.000
v -11.000 6.000 3.000
v -11.000 6.000 2.000
v -11.000 7.000 -1.000
v -11.000 7.000 -2.000
v -11.000 7.000 2.000
v -11.000 7.000 1.000
v -11.000 8.000 0.000
v -11.000 8.000 -1.000
v -11.000 8.000 1.000
v -11.000 -9.000 0.000
v -11.000 -8.000 0.000
v -11.000 -8.000 -1.000
v -11.000 -9.000 -1.000
v -10.000 -9.000 -1.000
v -10.000 -9.000 0.000
v -10.000 -8.000 -1.000
v -11.000 -9.000 1.000
v -11.000 -8.000 1.000
v -10.000 -9.000 1.000
v -10.000 -8.000 1.000
v -10.000 -7.000 -1.000
v -10.000 -7.000 1.000
v -10.000 -6.000 -1.000
v -10.000 -6.000 1.000
v -10.000 -6.000 -2.000
v -10.000 -5.000 -2.000
v -10.000 -6.000 2.000
v -10.000 -5.000 2.000
v -10.000 -5.000 -3.000
v -10.000 -4.000 -3.000
v -10.000 -5.000 3.000
v -10.000 -4.000 3.000
v -10.000 -3.000 -3.000
v -10.000 -3.000 3.000
v -10.000 -3.000 -4.000
v -10.000 -2.000 -4.000
v -10.000 -2.000 -3.000
v -11.000 -2.000 -4.000
v -11.000 -3.000 -4.000
v -10.000 -2.000 3.000
v -10.000 -2.000 4.000
v -10.000 -3.000 4.000
v -11.000 -3.000 4.000
v -11.000 -2.000 4.000
v -10.000 -1.000 -4.000
v -10.000 -1.000 -3.000
v -11.000 -1.000 -4.000
v -10.000 -1.000 3.000
v -10.000 -1.000 4.000
v -11.000 -1.000 4.000
v -10.000 0.000 -4.000
v -10.000 0.000 -3.000
v -11.000 0.000 -4.000
v -10.000 0.000 3.000
v -10.000 0.000 4.000
v -11.000 0.000 4.000
v -10.000 1.000 -4.000
v -10.000 1.000 -3.000
v -11.000 1.000 -4.000
v -10.000 1.000 3.000
v -10.000 1.000 4.000
v -11.000 1.000 4.000
v -10.000 2.000 -4.000
v -10.000 2.000 -3.000
v -11.000 2.000 -4.000
v -10.000 2.000 3.000
v -10.000 2.000 4.000
v -11.000 2.000 4.000
v -10.000 3.000 -4.000
v -10.000 3.000 -3.000
v -11.000 3.000 -4.000
v -10.000 3.000 3.000
v -10.000 3.000 4.000
v -11.000 3.000 4.000
v -10.000 4.000 -4.000
v -10.000 4.000 -3.000
v -11.000 4.000 -4.000
v -10.000 4.000 3.000
v -10.000 4.000 4.000
v -11.000 4.000 4.000
v -10.000 5.000 -3.000
v -10.000 5.000 3.000
v -10.000 6.000 -2.000
v -10.000 6.000 -3.000
v -10.000 6.000 3.000
v -10.000 6.000 2.000
v -10.000 7.000 -1.000
v -10.000 7.000 -2.000
v -10.000 7.000 2.000
v -10.000 7.000 1.000
v -10.000 8.000 0.000
v -10.000 8.000 -1.000
v -10.000 8.000 1.000
v -9.000 -9.000 -1.000
v -9.000 -9.000 0.000
v -9.000 -8.000 -1.000
v -9.000 -9.000 1.000
v -9.000 -8.000 1.000
v -10.000 -7.000 -2.000
v -10.000 -8.000 -2.000
v -9.000 -8.000 -2.000
v -9.000 -7.000 -2.000
v -10.000 -8.000 2.000
v -10.000 -7.000 2.000
v -9.000 -8.000 2.000
v -9.000 -7.000 2.000
v -9.000 -6.000 -2.000
v -9.000 -6.000 2.000
v -9.000 -5.000 -2.000
v -9.000 -5.000 2.000
v -9.000 -5.000 -3.000
v -9.000 -4.000 -3.000
v -9.000 -5.000 3.000
v -9.000 -4.000 3.000
v -9.000 -3.000 -3.000
v -9.000 -3.000 3.000
v -9.000 -2.000 -3.000
v -9.000 -2.000 3.000
v -9.000 -1.000 -3.000
v -9.000 -1.000 3.000
v -9.000 0.000 -3.000
v -9.000 0.000 3.000
v -9.000 1.000 -3.000
v -9.000 1.000 3.000
v -9.000 2.000 -3.000
v -9.000 2.000 3.000
v -9.000 3.000 -3.000
v -9.000 3.000 3.000
v -9.000 4.000 -3.000
v -9.000 4.000 3.000
v -9.000 5.000 -3.000
v -9.000 5.000 3.000
v -9.000 6.000 -2.000
v -9.000 6.000 -3.000
v -9.000 6.000 3.000
v -9.000 6.000 2.000
v -9.000 7.000 -1.000
v -9.000 7.000 -2.000
v -9.000 7.000 2.000
v -9.000 7.000 1.000
v -9.000 8.000 0.000
v -9.000 8.000 -1.000
v -9.000 8.000 1.000
v -8.000 -9.000 -1.000
v -8.000 -9.000 0.000
v -8.000 -8.000 -1.000
v -8.000 -9.000 1.000
v -8.000 -8.000 1.000
v -8.000 -8.000 -2.000
v -8.000 -7.000 -2.000
v -8.000 -8.000 2.000
v -8.000 -7.000 2.000
v -8.000 -7.000 -3.000
v -8.000 -6.000 -3.000
v -8.000 -6.000 -2.000
v -9.000 -6.000 -3.000
v -9.000 -7.000 -3.000
v -8.000 -6.000 2.000
v -8.000 -6.000 3.000
v -8.000 -7.000 3.000
v -9.000 -7.000 3.000
v -9.000 -6.000 3.000
v -8.000 -5.000 -3.000
v -8.000 -5.000 -2.000
v -8.000 -5.000 2.000
v -8.000 -5.000 3.000
v -8.000 -4.000 -3.000
v -8.000 -4.000 -2.000
v -8.000 -4.000 2.000
v -8.000 -4.000 3.000
v -8.000 -3.000 -3.000
v -8.000 -3.000 -2.000
v -8.000 -3.000 2.000
v -8.000 -3.000 3.000
v -8.000 -2.000 -3.000
v -8.000 -2.000 -2.000
v -8.000 -2.000 2.000
v -8.000 -2.000 3.000
v -8.000 -1.000 -3.000
v -8.000 -1.000 -2.000
v -8.000 -1.000 2.000
v -8.000 -1.000 3.000
v -8.000 0.000 -3.000
v -8.000 0.000 3.000
v -8.000 1.000 -3.000
v -8.000 1.000 -2.000
v -8.000 0.000 -2.000
v -8.000 0.000 2.000
v -8.000 1.000 2.000
v -8.000 1.000 3.000
v -8.000 2.000 -3.000
v -8.000 2.000 -2.000
v -8.000 2.000 2.000
v -8.000 2.000 3.000
v -8.000 3.000 -3.000
v -8.000 3.000 -2.000
v -8.000 3.000 2.000
v -8.000 3.000 3.000
v -8.000 4.000 -3.000
v -8.000 4.000 -2.000
v -8.000 4.000 2.000
v -8.000 4.000 3.000
v -8.000 5.000 -3.000
v -8.000 5.000 -2.000
v -8.000 5.000 2.000
v -8.000 5.000 3.000
v -8.000 6.000 -3.000
v -8.000 6.000 -2.000
v -8.000 6.000 2.000
v -8.000 6.000 3.000
v -8.000 7.000 -1.000
v -8.000 7.000 -2.000
v -8.000 7.000 2.000
v -8.000 7.000 1.000
v -8.000 8.000 -1.000
v -8.000 8.000 1.000
v -8.000 9.000 -1.000
v -8.000 9.000 0.000
v -8.000 8.000 0.000
v -9.000 9.000 0.000
v -9.000 9.000 -1.000
v -8.000 9.000 1.000
v -9.000 9.000 1.000
v -8.000 10.000 -1.000
v -8.000 10.000 0.000
v -9.000 10.000 0.000
v -9.000 10.000 -1.000
v -8.000 10.000 1.000
v -9.000 10.000 1.000
v -7.000 -9.000 -1.000
v -7.000 -9.000 0.000
v -7.000 -8.000 -1.000
v -7.000 -9.000 1.000
v -7.000 -8.000 1.000
v -7.000 -8.000 -2.000
v -7.000 -7.000 -2.000
v -7.000 -7.000 -1.000
v -7.000 -7.000 1.000
v -7.000 -7.000 2.000
v -7.000 -8.000 2.000
v -7.000 -6.000 -2.000
v -7.000 -6.000 -1.000
v -7.000 -6.000 1.000
v -7.000 -6.000 2.000
v -7.000 -5.000 -2.000
v -7.000 -5.000 -1.000
v -7.000 -5.000 1.000
v -7.000 -5.000 2.000
v -7.000 -4.000 -2.000
v -7.000 -4.000 -1.000
v -7.000 -4.000 1.000
v -7.000 -4.000 2.000
v -7.000 -3.000 -2.000
v -7.000 -3.000 -1.000
v -7.000 -3.000 1.000
v -7.000 -3.000 2.000
v -7.000 -2.000 -2.000
v -7.000 -2.000 -1.000
v -7.000 -2.000 1.000
v -7.000 -2.000 2.000
v -7.000 -1.000 -2.000
v -7.000 -1.000 2.000
v -7.000 0.000 -2.000
v -7.000 0.000 -3.000
v -7.000 -1.000 -3.000
v -7.000 0.000 3.000
v -7.000 0.000 2.000
v -7.000 -1.000 3.000
v -7.000 1.000 -2.000
v -7.000 1.000 2.000
v -7.000 2.000 -2.000
v -7.000 2.000 -1.000
v -7.000 1.000 -1.000
v -7.000 1.000 1.000
v -7.000 2.000 1.000
v -7.000 2.000 2.000
v -7.000 3.000 -2.000
v -7.000 3.000 -1.000
v -7.000 3.000 1.000
v -7.000 3.000 2.000
v -7.000 4.000 -2.000
v -7.000 4.000 -1.000
v -7.000 4.000 1.000
v -7.000 4.000 2.000
v -7.000 5.000 -2.000
v -7.000 5.000 -1.000
v -7.000 5.000 1.000
v -7.000 5.000 2.000
v -7.000 6.000 -2.000
v -7.000 6.000 -1.000
v -7.000 6.000 1.000
v -7.000 6.000 2.000
v -7.000 7.000 -2.000
v -7.000 7.000 -1.000
v -7.000 7.000 1.000
v -7.000 7.000 2.000
v -7.000 8.000 0.000
v -7.000 8.000 -1.000
v -7.000 8.000 1.000
v -6.000 -9.000 -1.000
v -6.000 -8.000 -1.000
v -6.000 -8.000 0.000
v -6.000 -9.000 0.000
v -6.000 -8.000 1.000
v -6.000 -9.000 1.000
v -6.000 -7.000 -1.000
v -6.000 -7.000 0.000
v -6.000 -7.000 1.000
v -6.000 -6.000 -1.000
v -6.000 -6.000 0.000
v -6.000 -6.000 1.000
v -6.000 -5.000 -1.000
v -6.000 -5.000 0.000
v -6.000 -5.000 1.000
v -6.000 -4.000 -1.000
v -6.000 -4.000 0.000
v -6.000 -4.000 1.000
v -6.000 -3.000 -1.000
v -6.000 -3.000 0.000
v -6.000 -3.000 1.000
v -6.000 -2.000 -1.000
v -6.000 -2.000 1.000
v -6.000 -2.000 -2.000
v -6.000 -1.000 -2.000
v -6.000 -2.000 2.000
v -6.000 -1.000 2.000
v -6.000 0.000 -2.000
v -6.000 0.000 -3.000
v -6.000 -1.000 -3.000
v -6.000 0.000 3.000
v -6.000 0.000 2.000
v -6.000 -1.000 3.000
v -6.000 1.000 -1.000
v -6.000 1.000 -2.000
v -6.000 1.000 2.000
v -6.000 1.000 1.000
v -6.000 2.000 -1.000
v -6.000 2.000 1.000
v -6.000 3.000 -1.000
v -6.000 3.000 0.000
v -6.000 2.000 0.000
v -6.000 3.000 1.000
v -6.000 4.000 -1.000
v -6.000 4.000 0.000
v -6.000 4.000 1.000
v -6.000 5.000 -1.000
v -6.000 5.000 0.000
v -6.000 5.000 1.000
v -6.000 6.000 -1.000
v -6.000 6.000 0.000
v -6.000 6.000 1.000
v -6.000 7.000 -1.000
v -6.000 7.000 0.000
v -6.000 7.000 1.000
v -6.000 8.000 -1.000
v -6.000 8.000 0.000
v -6.000 8.000 1.000
v -5.000 -3.000 -1.000
v -5.000 -3.000 0.000
v -5.000 -2.000 -1.000
v -5.000 -3.000 1.000
v -5.000 -2.000 1.000
v -5.000 -2.000 -2.000
v -5.000 -1.000 -2.000
v -5.000 -2.000 2.000
v -5.000 -1.000 2.000
v -5.000 0.000 -2.000
v -5.000 0.000 -3.000
v -5.000 -1.000 -3.000
v -5.000 0.000 3.000
v -5.000 0.000 2.000
v -5.000 -1.000 3.000
v -5.000 1.000 -1.000
v -5.000 1.000 -2.000
v -5.000 1.000 2.000
v -5.000 1.000 1.000
v -5.000 2.000 0.000
v -5.000 2.000 -1.000
v -5.000 2.000 1.000
v -4.000 -3.000 -1.000
v -4.000 -3.000 0.000
v -4.000 -2.000 -1.000
v -4.000 -3.000 1.000
v -4.000 -2.000 1.000
v -4.000 -2.000 -2.000
v -4.000 -1.000 -2.000
v -4.000 -2.000 2.000
v -4.000 -1.000 2.000
v -4.000 -1.000 -3.000
v -4.000 0.000 -3.000
v -4.000 0.000 -2.000
v -4.000 0.000 2.000
v -4.000 0.000 3.000
v -4.000 -1.000 3.000
v -4.000 1.000 -1.000
v -4.000 1.000 -2.000
v -4.000 1.000 2.000
v -4.000 1.000 1.000
v -4.000 2.000 0.000
v -4.000 2.000 -1.000
v -4.000 2.000 1.000
v -3.000 -3.000 -1.000
v -3.000 -3.000 0.000
v -3.000 -2.000 -1.000
v -3.000 -3.000 1.000
v -3.000 -2.000 1.000
v -3.000 -2.000 -2.000
v -3.000 -1.000 -2.000
v -3.000 -1.000 -1.000
v -3.000 -1.000 1.000
v -3.000 -1.000 2.000
v -3.000 -2.000 2.000
v -3.000 0.000 -2.000
v -3.000 0.000 -1.000
v -3.000 0.000 1.000
v -3.000 0.000 2.000
v -3.000 1.000 -2.000
v -3.000 1.000 -1.000
v -3.000 1.000 1.000
v -3.000 1.000 2.000
v -3.000 2.000 0.000
v -3.000 2.000 -1.000
v -3.000 2.000 1.000
v -2.000 -3.000 -1.000
v -2.000 -2.000 -1.000
v -2.000 -2.000 0.000
v -2.000 -3.000 0.000
v -2.000 -2.000 1.000
v -2.000 -3.000 1.000
v -2.000 -1.000 -1.000
v -2.000 -1.000 0.000
v -2.000 -1.000 1.000
v -2.000 0.000 -1.000
v -2.000 0.000 0.000
v -2.000 0.000 1.000
v -2.000 1.000 -1.000
v -2.000 1.000 0.000
v -2.000 1.000 1.000
v -2.000 2.000 -1.000
v -2.000 2.000 0.000
v -2.000 2.000 1.000
v -1.000 -5.000 0.000
v -1.000 -4.000 0.000
v -1.000 -4.000 -1.000
v -1.000 -5.000 -1.000
v 0.000 -5.000 -1.000
v 0.000 -5.000 0.000
v 0.000 -4.000 -1.000
v -1.000 -5.000 1.000
v -1.000 -4.000 1.000
v 0.000 -5.000 1.000
v 0.000 -4.000 1.000
v -1.000 -3.000 0.000
v -1.000 -3.000 -1.000
v 0.000 -3.000 -1.000
v -1.000 -3.000 1.000
v 0.000 -3.000 1.000
v -1.000 -2.000 0.000
v -1.000 -2.000 -1.000
v 0.000 -2.000 -1.000
v -1.000 -2.000 1.000
v 0.000 -2.000 1.000
v -1.000 -1.000 0.000
v -1.000 -1.000 -1.000
v 0.000 -1.000 -1.000
v -1.000 -1.000 1.000
v 0.000 -1.000 1.000
v -1.000 0.000 0.000
v -1.000 0.000 -1.000
v 0.000 0.000 -1.000
v -1.000 0.000 1.000
v 0.000 0.000 1.000
v -1.000 1.000 0.000
v -1.000 1.000 -1.000
v 0.000 1.000 -1.000
v -1.000 1.000 1.000
v 0.000 1.000 1.000
v -1.000 2.000 0.000
v -1.000 2.000 -1.000
v 0.000 2.000 -1.000
v -1.000 2.000 1.000
v 0.000 2.000 1.000
v -1.000 3.000 0.000
v -1.000 3.000 -1.000
v 0.000 3.000 -1.000
v -1.000 3.000 1.000
v 0.000 3.000 1.000
v -1.000 4.000 0.000
v -1.000 4.000 -1.000
v 0.000 4.000 -1.000
v -1.000 4.000 1.000
v 0.000 4.000 1.000
v -1.000 5.000 0.000
v -1.000 5.000 -1.000
v 0.000 5.000 0.000
v 0.000 5.000 -1.000
v -1.000 5.000 1.000
v 0.000 5.000 1.000
v 0.000 -6.000 0.000
v 0.000 -6.000 -1.000
v 1.000 -6.000 -1.000
v 1.000 -6.000 0.000
v 1.000 -5.000 -1.000
v 0.000 -6.000 1.000
v 1.000 -6.000 1.000
v 1.000 -5.000 1.000
v 1.000 -4.000 -1.000
v 1.000 -4.000 1.000
v 0.000 -3.000 -2.000
v 0.000 -4.000 -2.000
v 1.000 -4.000 -2.000
v 1.000 -3.000 -2.000
v 0.000 -4.000 2.000
v 0.000 -3.000 2.000
v 1.000 -4.000 2.000
v 1.000 -3.000 2.000
v 0.000 -2.000 -2.000
v 1.000 -2.000 -2.000
v 0.000 -2.000 2.000
v 1.000 -2.000 2.000
v 0.000 -1.000 -2.000
v 1.000 -1.000 -2.000
v 0.000 -1.000 2.000
v 1.000 -1.000 2.000
v 0.000 0.000 -2.000
v 1.000 0.000 -2.000
v 0.000 0.000 2.000
v 1.000 0.000 2.000
v 0.000 1.000 -2.000
v 1.000 1.000 -2.000
v 0.000 1.000 2.000
v 1.000 1.000 2.000
v 0.000 2.000 -2.000
v 1.000 2.000 -2.000
v 0.000 2.000 2.000
v 1.000 2.000 2.000
v 0.000 3.000 -2.000
v 1.000 3.000 -2.000
v 0.000 3.000 2.000
v 1.000 3.000 2.000
v 0.000 4.000 -2.000
v 1.000 4.000 -1.000
v 1.000 4.000 -2.000
v 0.000 4.000 2.000
v 1.000 4.000 2.000
v 1.000 4.000 1.000
v 1.000 5.000 -1.000
v 1.000 5.000 1.000
v 0.000 6.000 0.000
v 0.000 6.000 -1.000
v 1.000 6.000 0.000
v 1.000 6.000 -1.000
v 0.000 6.000 1.000
v 1.000 6.000 1.000
v 1.000 -8.000 0.000
v 1.000 -7.000 0.000
v 1.000 -7.000 -1.000
v 1.000 -8.000 -1.000
v 2.000 -8.000 -1.000
v 2.000 -8.000 0.000
v 2.000 -7.000 -1.000
v 1.000 -8.000 1.000
v 1.000 -7.000 1.000
v 2.000 -8.000 1.000
v 2.000 -7.000 1.000
v 2.000 -6.000 -1.000
v 2.000 -6.000 1.000
v 2.000 -5.000 -1.000
v 2.000 -5.000 1.000
v 1.000 -5.000 -2.000
v 2.000 -5.000 -2.000
v 2.000 -4.000 -2.000
v 1.000 -5.000 2.000
v 2.000 -5.000 2.000
v 2.000 -4.000 2.000
v 2.000 -3.000 -2.000
v 2.000 -3.000 2.000
v 1.000 -2.000 -3.000
v 1.000 -3.000 -3.000
v 2.000 -3.000 -3.000
v 2.000 -2.000 -3.000
v 1.000 -3.000 3.000
v 1.000 -2.000 3.000
v 2.000 -3.000 3.000
v 2.000 -2.000 3.000
v 1.000 -1.000 -3.000
v 2.000 -1.000 -3.000
v 1.000 -1.000 3.000
v 2.000 -1.000 3.000
v 1.000 0.000 -3.000
v 2.000 0.000 -3.000
v 1.000 0.000 3.000
v 2.000 0.000 3.000
v 1.000 1.000 -3.000
v 2.000 1.000 -3.000
v 1.000 1.000 3.000
v 2.000 1.000 3.000
v 1.000 2.000 -3.000
v 2.000 2.000 -3.000
v 1.000 2.000 3.000
v 2.000 2.000 3.000
v 1.000 3.000 -3.000
v 2.000 3.000 -2.000
v 2.000 3.000 -3.000
v 1.000 3.000 3.000
v 2.000 3.000 3.000
v 2.000 3.000 2.000
v 2.000 4.000 -2.000
v 2.000 4.000 2.000
v 1.000 5.000 -2.000
v 2.000 5.000 -1.000
v 2.000 5.000 -2.000
v 1.000 5.000 2.000
v 2.000 5.000 2.000
v 2.000 5.000 1.000
v 2.000 6.000 -1.000
v 2.000 6.000 1.000
v 1.000 7.000 0.000
v 1.000 7.000 -1.000
v 2.000 7.000 -1.000
v 1.000 7.000 1.000
v 2.000 7.000 1.000
v 1.000 8.000 0.000
v 1.000 8.000 -1.000
v 2.000 8.000 0.000
v 2.000 8.000 -1.000
v 1.000 8.000 1.000
v 2.000 8.000 1.000
v 3.000 -8.000 -1.000
v 3.000 -8.000 0.000
v 3.000 -7.000 -1.000
v 3.000 -8.000 1.000
v 3.000 -7.000 1.000
v 2.000 -6.000 -2.000
v 2.000 -7.000 -2.000
v 3.000 -7.000 -2.000
v 3.000 -6.000 -2.000
v 2.000 -7.000 2.000
v 2.000 -6.000 2.000
v 3.000 -7.000 2.000
v 3.000 -6.000 2.000
v 3.000 -5.000 -2.000
v 3.000 -5.000 2.000
v 3.000 -4.000 -2.000
v 3.000 -4.000 2.000
v 3.000 -4.000 -3.000
v 3.000 -3.000 -3.000
v 3.000 -3.000 -2.000
v 2.000 -4.000 -3.000
v 3.000 -3.000 2.000
v 3.000 -3.000 3.000
v 3.000 -4.000 3.000
v 2.000 -4.000 3.000
v 3.000 -2.000 -3.000
v 3.000 -2.000 -2.000
v 3.000 -2.000 2.000
v 3.000 -2.000 3.000
v 3.000 -1.000 -3.000
v 3.000 -1.000 -2.000
v 3.000 -1.000 2.000
v 3.000 -1.000 3.000
v 3.000 0.000 -3.000
v 3.000 0.000 -2.000
v 3.000 0.000 2.000
v 3.000 0.000 3.000
v 3.000 1.000 -3.000
v 3.000 1.000 -2.000
v 3.000 1.000 2.000
v 3.000 1.000 3.000
v 3.000 2.000 -3.000
v 3.000 2.000 -2.000
v 3.000 2.000 2.000
v 3.000 2.000 3.000
v 3.000 3.000 -3.000
v 3.000 3.000 -2.000
v 3.000 3.000 2.000
v 3.000 3.000 3.000
v 3.000 4.000 -3.000
v 3.000 4.000 -2.000
v 2.000 4.000 -3.000
v 3.000 4.000 2.000
v 3.000 4.000 3.000
v 2.000 4.000 3.000
v 3.000 5.000 -2.000
v 3.000 5.000 2.000
v 2.000 6.000 -2.000
v 3.000 6.000 -2.000
v 2.000 6.000 2.000
v 3.000 6.000 2.000
v 2.000 7.000 -2.000
v 3.000 7.000 -1.000
v 3.000 7.000 -2.000
v 2.000 7.000 2.000
v 3.000 7.000 2.000
v 3.000 7.000 1.000
v 3.000 8.000 0.000
v 3.000 8.000 -1.000
v 3.000 8.000 1.000
v 3.000 -9.000 0.000
v 3.000 -9.000 -1.000
v 4.000 -9.000 -1.000
v 4.000 -9.000 0.000
v 4.000 -8.000 -1.000
v 3.000 -9.000 1.000
v 4.000 -9.000 1.000
v 4.000 -8.000 1.000
v 4.000 -7.000 -1.000
v 4.000 -7.000 1.000
v 4.000 -7.000 -2.000
v 4.000 -6.000 -2.000
v 4.000 -7.000 2.000
v 4.000 -6.000 2.000
v 4.000 -6.000 -3.000
v 4.000 -5.000 -3.000
v 4.000 -5.000 -2.000
v 3.000 -5.000 -3.000
v 3.000 -6.000 -3.000
v 4.000 -5.000 2.000
v 4.000 -5.000 3.000
v 4.000 -6.000 3.000
v 3.000 -6.000 3.000
v 3.000 -5.000 3.000
v 4.000 -4.000 -3.000
v 4.000 -4.000 -2.000
v 4.000 -4.000 2.000
v 4.000 -4.000 3.000
v 4.000 -3.000 -2.000
v 4.000 -3.000 2.000
v 4.000 -2.000 -2.000
v 4.000 -2.000 -1.000
v 4.000 -3.000 -1.000
v 4.000 -3.000 1.000
v 4.000 -2.000 1.000
v 4.000 -2.000 2.000
v 4.000 -1.000 -2.000
v 4.000 -1.000 -1.000
v 4.000 -1.000 1.000
v 4.000 -1.000 2.000
v 4.000 0.000 -2.000
v 4.000 0.000 -1.000
v 4.000 0.000 1.000
v 4.000 0.000 2.000
v 4.000 1.000 -2.000
v 4.000 1.000 -1.000
v 4.000 1.000 1.000
v 4.000 1.000 2.000
v 4.000 2.000 -2.000
v 4.000 2.000 -1.000
v 4.000 2.000 1.000
v 4.000 2.000 2.000
v 4.000 3.000 -2.000
v 4.000 3.000 -1.000
v 4.000 3.000 1.000
v 4.000 3.000 2.000
v 4.000 4.000 -2.000
v 4.000 4.000 2.000
v 4.000 4.000 -3.000
v 4.000 5.000 -3.000
v 4.000 5.000 -2.000
v 3.000 5.000 -3.000
v 4.000 5.000 2.000
v 4.000 5.000 3.000
v 4.000 4.000 3.000
v 3.000 5.000 3.000
v 4.000 6.000 -3.000
v 4.000 6.000 -2.000
v 3.000 6.000 -3.000
v 4.000 6.000 2.000
v 4.000 6.000 3.000
v 3.000 6.000 3.000
v 4.000 7.000 -1.000
v 4.000 7.000 -2.000
v 4.000 7.000 2.000
v 4.000 7.000 1.000
v 4.000 8.000 -1.000
v 4.000 8.000 1.000
v 3.000 9.000 0.000
v 3.000 9.000 -1.000
v 4.000 9.000 0.000
v 4.000 9.000 -1.000
v 3.000 9.000 1.000
v 4.000 9.000 1.000
v 4.000 -10.000 0.000
v 4.000 -10.000 -1.000
v 5.000 -10.000 -1.000
v 5.000 -10.000 0.000
v 5.000 -9.000 -1.000
v 4.000 -10.000 1.000
v 5.000 -10.000 1.000
v 5.000 -9.000 1.000
v 5.000 -8.000 -1.000
v 5.000 -8.000 1.000
v 4.000 -8.000 -2.000
v 5.000 -8.000 -2.000
v 5.000 -7.000 -2.000
v 4.000 -8.000 2.000
v 5.000 -8.000 2.000
v 5.000 -7.000 2.000
v 5.000 -6.000 -2.000
v 5.000 -6.000 2.000
v 5.000 -5.000 -2.000
v 5.000 -5.000 -1.000
v 5.000 -6.000 -1.000
v 5.000 -6.000 1.000
v 5.000 -5.000 1.000
v 5.000 -5.000 2.000
v 5.000 -4.000 -2.000
v 5.000 -4.000 -1.000
v 5.000 -4.000 1.000
v 5.000 -4.000 2.000
v 5.000 -3.000 -2.000
v 5.000 -3.000 -1.000
v 5.000 -3.000 1.000
v 5.000 -3.000 2.000
v 5.000 -2.000 -1.000
v 5.000 -2.000 1.000
v 5.000 -1.000 -1.000
v 5.000 -1.000 0.000
v 5.000 -2.000 0.000
v 5.000 -1.000 1.000
v 5.000 0.000 -1.000
v 5.000 0.000 0.000
v 5.000 0.000 1.000
v 5.000 1.000 -1.000
v 5.000 1.000 0.000
v 5.000 1.000 1.000
v 5.000 2.000 -1.000
v 5.000 2.000 0.000
v 5.000 2.000 1.000
v 5.000 3.000 -1.000
v 5.000 3.000 1.000
v 5.000 3.000 -2.000
v 5.000 4.000 -2.000
v 5.000 4.000 -1.000
v 5.000 4.000 1.000
v 5.000 4.000 2.000
v 5.000 3.000 2.000
v 5.000 5.000 -2.000
v 5.000 5.000 -1.000
v 5.000 5.000 1.000
v 5.000 5.000 2.000
v 5.000 6.000 -2.000
v 5.000 6.000 -1.000
v 5.000 6.000 1.000
v 5.000 6.000 2.000
v 5.000 7.000 -2.000
v 5.000 7.000 2.000
v 4.000 8.000 -2.000
v 5.000 8.000 -1.000
v 5.000 8.000 -2.000
v 4.000 8.000 2.000
v 5.000 8.000 2.000
v 5.000 8.000 1.000
v 5.000 9.000 -1.000
v 5.000 9.000 1.000
v 4.000 10.000 0.000
v 4.000 10.000 -1.000
v 5.000 10.000 0.000
v 5.000 10.000 -1.000
v 4.000 10.000 1.000
v 5.000 10.000 1.000
v 6.000 -10.000 -1.000
v 6.000 -10.000 0.000
v 6.000 -9.000 -1.000
v 6.000 -10.000 1.000
v 6.000 -9.000 1.000
v 5.000 -9.000 -2.000
v 6.000 -9.000 -2.000
v 6.000 -8.000 -2.000
v 5.000 -9.000 2.000
v 6.000 -9.000 2.000
v 6.000 -8.000 2.000
v 6.000 -7.000 -2.000
v 6.000 -7.000 2.000
v 6.000 -6.000 -2.000
v 6.000 -6.000 -1.000
v 6.000 -7.000 -1.000
v 6.000 -7.000 1.000
v 6.000 -6.000 1.000
v 6.000 -6.000 2.000
v 6.000 -5.000 -1.000
v 6.000 -5.000 1.000
v 6.000 -4.000 -1.000
v 6.000 -4.000 0.000
v 6.000 -5.000 0.000
v 6.000 -4.000 1.000
v 6.000 -3.000 -1.000
v 6.000 -3.000 0.000
v 6.000 -3.000 1.000
v 6.000 -2.000 -1.000
v 6.000 -2.000 0.000
v 6.000 -2.000 1.000
v 6.000 2.000 -1.000
v 6.000 3.000 -1.000
v 6.000 3.000 0.000
v 6.000 2.000 0.000
v 6.000 3.000 1.000
v 6.000 2.000 1.000
v 6.000 4.000 -1.000
v 6.000 4.000 0.000
v 6.000 4.000 1.000
v 6.000 5.000 -1.000
v 6.000 5.000 0.000
v 6.000 5.000 1.000
v 6.000 6.000 -1.000
v 6.000 6.000 1.000
v 6.000 6.000 -2.000
v 6.000 7.000 -2.000
v 6.000 7.000 -1.000
v 6.000 7.000 1.000
v 6.000 7.000 2.000
v 6.000 6.000 2.000
v 6.000 8.000 -2.000
v 6.000 8.000 2.000
v 5.000 9.000 -2.000
v 6.000 9.000 -1.000
v 6.000 9.000 -2.000
v 5.000 9.000 2.000
v 6.000 9.000 2.000
v 6.000 9.000 1.000
v 6.000 10.000 0.000
v 6.000 10.000 -1.000
v 6.000 10.000 1.000
v 6.000 -11.000 0.000
v 6.000 -11.000 -1.000
v 7.000 -11.000 -1.000
v 7.000 -11.000 0.000
v 7.000 -10.000 -1.000
v 6.000 -11.000 1.000
v 7.000 -11.000 1.000
v 7.000 -10.000 1.000
v 7.000 -9.000 -1.000
v 7.000 -9.000 1.000
v 7.000 -9.000 -2.000
v 7.000 -8.000 -2.000
v 7.000 -9.000 2.000
v 7.000 -8.000 2.000
v 7.000 -7.000 -2.000
v 7.000 -7.000 -1.000
v 7.000 -8.000 -1.000
v 7.000 -8.000 1.000
v 7.000 -7.000 1.000
v 7.000 -7.000 2.000
v 7.000 -6.000 -1.000
v 7.000 -6.000 1.000
v 7.000 -5.000 -1.000
v 7.000 -5.000 0.000
v 7.000 -6.000 0.000
v 7.000 -5.000 1.000
v 7.000 5.000 -1.000
v 7.000 6.000 -1.000
v 7.000 6.000 0.000
v 7.000 5.000 0.000
v 7.000 6.000 1.000
v 7.000 5.000 1.000
v 7.000 7.000 -1.000
v 7.000 7.000 1.000
v 7.000 7.000 -2.000
v 7.000 8.000 -2.000
v 7.000 8.000 -1.000
v 7.000 8.000 1.000
v 7.000 8.000 2.000
v 7.000 7.000 2.000
v 7.000 9.000 -1.000
v 7.000 9.000 -2.000
v 7.000 9.000 2.000
v 7.000 9.000 1.000
v 7.000 10.000 -1.000
v 7.000 10.000 1.000
v 6.000 11.000 0.000
v 6.000 11.000 -1.000
v 7.000 11.000 0.000
v 7.000 11.000 -1.000
v 6.000 11.000 1.000
v 7.000 11.000 1.000
v 8.000 -11.000 -1.000
v 8.000 -11.000 0.000
v 8.000 -10.000 -1.000
v 8.000 -11.000 1.000
v 8.000 -10.000 1.000
v 7.000 -10.000 -2.000
v 8.000 -10.000 -2.000
v 8.000 -9.000 -2.000
v 7.000 -10.000 2.000
v 8.000 -10.000 2.000
v 8.000 -9.000 2.000
v 8.000 -8.000 -2.000
v 8.000 -8.000 -1.000
v 8.000 -9.000 -1.000
v 8.000 -9.000 1.000
v 8.000 -8.000 1.000
v 8.000 -8.000 2.000
v 8.000 -7.000 -1.000
v 8.000 -7.000 1.000
v 8.000 -6.000 -1.000
v 8.000 -6.000 0.000
v 8.000 -7.000 0.000
v 8.000 -6.000 1.000
v 8.000 6.000 -1.000
v 8.000 7.000 -1.000
v 8.000 7.000 0.000
v 8.000 6.000 0.000
v 8.000 7.000 1.000
v 8.000 6.000 1.000
v 8.000 8.000 -1.000
v 8.000 8.000 1.000
v 8.000 8.000 -2.000
v 8.000 9.000 -2.000
v 8.000 9.000 -1.000
v 8.000 9.000 1.000
v 8.000 9.000 2.000
v 8.000 8.000 2.000
v 7.000 10.000 -2.000
v 8.000 10.000 -1.000
v 8.000 10.000 -2.000
v 7.000 10.000 2.000
v 8.000 10.000 2.000
v 8.000 10.000 1.000
v 8.000 11.000 0.000
v 8.000 11.000 -1.000
v 8.000 11.000 1.000
v 9.000 -11.000 -1.000
v 9.000 -11.000 0.000
v 9.000 -10.000 -1.000
v 9.000 -11.000 1.000
v 9.000 -10.000 1.000
v 9.000 -9.000 -1.000
v 9.000 -9.000 -2.000
v 9.000 -10.000 -2.000
v 9.000 -9.000 2.000
v 9.000 -9.000 1.000
v 9.000 -10.000 2.000
v 9.000 -8.000 -1.000
v 9.000 -8.000 1.000
v 9.000 -7.000 -1.000
v 9.000 -7.000 0.000
v 9.000 -8.000 0.000
v 9.000 -7.000 1.000
v 9.000 7.000 -1.000
v 9.000 8.000 -1.000
v 9.000 8.000 0.000
v 9.000 7.000 0.000
v 9.000 8.000 1.000
v 9.000 7.000 1.000
v 9.000 9.000 -1.000
v 9.000 9.000 1.000
v 9.000 10.000 -1.000
v 9.000 10.000 -2.000
v 9.000 9.000 -2.000
v 9.000 10.000 2.000
v 9.000 10.000 1.000
v 9.000 9.000 2.000
v 9.000 11.000 0.000
v 9.000 11.000 -1.000
v 9.000 11.000 1.000
v 10.000 -11.000 -1.000
v 10.000 -11.000 0.000
v 10.000 -10.000 -1.000
v 10.000 -11.000 1.000
v 10.000 -10.000 1.000
v 10.000 -10.000 -2.000
v 10.000 -9.000 -2.000
v 10.000 -9.000 -1.000
v 10.000 -9.000 1.000
v 10.000 -9.000 2.000
v 10.000 -10.000 2.000
v 10.000 -8.000 0.000
v 10.000 -8.000 -1.000
v 10.000 -8.000 1.000
v 10.000 8.000 -1.000
v 10.000 8.000 0.000
v 10.000 9.000 -1.000
v 10.000 8.000 1.000
v 10.000 9.000 1.000
v 10.000 9.000 -2.000
v 10.000 10.000 -2.000
v 10.000 10.000 -1.000
v 10.000 10.000 1.000
v 10.000 10.000 2.000
v 10.000 9.000 2.000
v 10.000 11.000 0.000
v 10.000 11.000 -1.000
v 10.000 11.000 1.000
v 11.000 -11.000 -1.000
v 11.000 -11.000 0.000
v 11.000 -10.000 -1.000
v 11.000 -11.000 1.000
v 11.000 -10.000 1.000
v 11.000 -9.000 -1.000
v 11.000 -9.000 1.000
v 11.000 -8.000 -1.000
v 11.000 -8.000 0.000
v 11.000 -9.000 0.000
v 11.000 -8.000 1.000
v 11.000 8.000 -1.000
v 11.000 9.000 -1.000
v 11.000 9.000 0.000
v 11.000 8.000 0.000
v 11.000 9.000 1.000
v 11.000 8.000 1.000
v 11.000 10.000 -1.000
v 11.000 10.000 1.000
v 11.000 11.000 0.000
v 11.000 11.000 -1.000
v 11.000 11.000 1.000
v 12.000 -11.000 -1.000
v 12.000 -11.000 0.000
v 12.000 -10.000 -1.000
v 12.000 -11.000 1.000
v 12.000 -10.000 1.000
v 12.000 -9.000 0.000
v 12.000 -9.000 -1.000
v 12.000 -9.000 1.000
v 12.000 9.000 -1.000
v 12.000 9.000 0.000
v 12.000 10.000 -1.000
v 12.000 9.000 1.000
v 12.000 10.000 1.000
v 12.000 11.000 0.000
v 12.000 11.000 -1.000
v 12.000 11.000 1.000
v 13.000 -11.000 -1.000
v 13.000 -10.000 -1.000
v 13.000 -10.000 0.000
v 13.000 -11.000 0.000
v 13.000 -10.000 1.000
v 13.000 -11.000 1.000
v 13.000 -9.000 0.000
v 13.000 -9.000 -1.000
v 13.000 -9.000 1.000
v 13.000 9.000 -1.000
v 13.000 9.000 0.000
v 13.000 10.000 -1.000
v 13.000 9.000 1.000
v 13.000 10.000 1.000
v 13.000 11.000 -1.000
v 13.000 11.000 0.000
v 13.000 10.000 0.000
v 13.000 11.000 1.000
v 14.000 -9.000 0.000
v 14.000 -9.000 -1.000
v 14.000 -10.000 -1.000
v 14.000 -10.000 0.000
v 14.000 -9.000 1.000
v 14.000 -10.000 1.000
v 14.000 10.000 0.000
v 14.000 10.000 -1.000
v 14.000 9.000 -1.000
v 14.000 9.000 0.000
v 14.000 10.000 1.000
v 14.000 9.000 1.000
v 15.000 -10.000 -1.000
v 15.000 -9.000 -1.000
v 15.000 -9.000 0.000
v 15.000 -10.000 0.000
v 15.000 -9.000 1.000
v 15.000 -10.000 1.000
v 15.000 9.000 -1.000
v 15.000 10.000 -1.000
v 15.000 10.000 0.000
v 15.000 9.000 0.000
v 15.000 10.000 1.000
v 15.000 9.000 1.000
f 1 2 3 4
f 1 4 5 6
f 5 4 3 7
f 8 9 2 1
f 8 1 6 10
f 8 10 11 9
f 2 12 13 3
f 7 3 13 14
f 9 15 12 2
f 9 11 16 15
f 12 17 18 13
f 14 13 18 19
f 15 20 17 12
f 15 16 21 20
f 17 22 23 18
f 19 18 23 24
f 20 25 22 17
f 20 21 26 25
f 22 27 28 23
f 24 23 28 29
f 25 30 27 22
f 25 26 31 30
f 27 32 33 28
f 29 28 33 34
f 30 35 32 27
f 30 31 36 35
f 32 37 38 33
f 34 33 38 39
f 35 40 37 32
f 35 36 41 40
f 37 42 43 38
f 39 38 43 44
f 40 45 42 37
f 40 41 46 45
f 42 47 48 43
f 44 43 48 49
f 45 50 47 42
f 45 46 51 50
f 47 52 53 48
f 49 48 53 54
f 50 55 52 47
f 50 51 56 55
f 52 57 58 53
f 54 53 58 59
f 55 60 57 52
f 55 56 61 60
f 57 62 63 58
f 59 58 63 64
f 60 65 62 57
f 60 61 66 65
f 62 67 68 63
f 64 63 68 69
f 65 70 67 62
f 65 66 71 70
f 67 72 73 68
f 69 68 73 74
f 70 75 72 67
f 70 71 76 75
f 72 77 78 73
f 74 73 78 79
f 75 80 77 72
f 75 76 81 80
f 77 82 83 78
f 79 78 83 84
f 80 85 82 77
f 80 81 86 85
f 82 87 88 83
f 88 87 89 90
f 84 83 88 90
f 85 91 87 82
f 87 91 92 89
f 85 86 92 91
f 6 5 93 94
f 93 5 7 95
f 10 6 94 96
f 10 96 97 11
f 98 99 100 95
f 7 14 101 102
f 7 102 98 95
f 98 102 101 99
f 97 103 104 105
f 106 107 16 11
f 106 11 97 105
f 106 105 104 107
f 99 108 109 100
f 14 19 110 101
f 99 101 110 108
f 103 111 112 104
f 107 113 21 16
f 107 104 112 113
f 19 24 114 110
f 108 110 114 115
f 113 116 26 21
f 113 112 117 116
f 24 29 118 114
f 115 114 118 119
f 116 120 31 26
f 116 117 121 120
f 29 34 122 118
f 119 118 122 123
f 120 124 36 31
f 120 121 125 124
f 34 39 126 122
f 123 122 126 127
f 124 128 41 36
f 124 125 129 128
f 39 44 130 126
f 127 126 130 131
f 128 132 46 41
f 128 129 133 132
f 44 49 134 130
f 131 130 134 135
f 132 136 51 46
f 132 133 137 136
f 49 54 138 134
f 135 134 138 139
f 136 140 56 51
f 136 137 141 140
f 54 59 142 138
f 139 138 142 143
f 140 144 61 56
f 140 141 145 144
f 59 64 146 142
f 143 142 146 147
f 144 148 66 61
f 144 145 149 148
f 64 69 150 146
f 147 146 150 151
f 148 152 71 66
f 148 149 153 152
f 69 74 154 150
f 151 150 154 155
f 152 156 76 71
f 152 153 157 156
f 74 79 158 154
f 155 154 158 159
f 156 160 81 76
f 156 157 161 160
f 79 84 162 158
f 162 84 163 164
f 159 158 162 164
f 160 165 86 81
f 86 165 166 167
f 160 161 166 165
f 163 84 90 168
f 86 167 169 92
f 168 170 171 172
f 89 173 174 90
f 168 90 174 170
f 172 171 175 169
f 92 176 173 89
f 92 169 175 176
f 170 177 178 171
f 173 179 180 174
f 180 179 178 177
f 170 174 180 177
f 171 178 181 175
f 176 182 179 173
f 179 182 181 178
f 176 175 181 182
f 183 184 185 186
f 94 93 183 186
f 183 93 95 184
f 186 185 187 188
f 96 94 186 188
f 96 188 187 97
f 184 189 190 185
f 184 95 100 189
f 185 190 191 187
f 97 187 191 103
f 189 100 109 192
f 103 191 193 111
f 109 108 194 192
f 194 108 115 195
f 112 111 193 196
f 112 196 197 117
f 115 119 198 199
f 115 199 200 195
f 200 199 198 201
f 202 203 121 117
f 202 117 197 204
f 202 204 205 203
f 119 123 206 198
f 201 198 206 207
f 203 208 125 121
f 203 205 209 208
f 123 127 210 206
f 207 206 210 211
f 208 212 129 125
f 208 209 213 212
f 127 131 214 210
f 211 210 214 215
f 212 216 133 129
f 212 213 217 216
f 131 135 218 214
f 215 214 218 219
f 216 220 137 133
f 216 217 221 220
f 135 139 222 218
f 219 218 222 223
f 220 224 141 137
f 220 221 225 224
f 139 143 226 222
f 223 222 226 227
f 224 228 145 141
f 224 225 229 228
f 143 147 230 226
f 227 226 230 231
f 228 232 149 145
f 228 229 233 232
f 147 151 234 230
f 231 230 234 235
f 232 236 153 149
f 232 233 237 236
f 151 155 238 234
f 235 234 238 239
f 236 240 157 153
f 236 237 241 240
f 155 159 242 238
f 242 159 243 244
f 239 238 242 244
f 240 245 161 157
f 161 245 246 247
f 240 241 246 245
f 164 163 248 249
f 243 159 164 249
f 167 166 250 251
f 161 247 250 166
f 168 172 252 253
f 248 163 168 253
f 172 169 254 252
f 167 251 254 169
f 190 189 255 256
f 255 189 192 257
f 191 190 256 258
f 191 258 259 193
f 192 194 260 257
f 260 194 195 261
f 196 193 259 262
f 196 262 263 197
f 195 200 264 261
f 264 200 201 265
f 204 197 263 266
f 204 266 267 205
f 265 201 207 268
f 205 267 269 209
f 268 207 211 270
f 209 269 271 213
f 270 211 215 272
f 213 271 273 217
f 272 215 219 274
f 217 273 275 221
f 274 219 223 276
f 221 275 277 225
f 276 223 227 278
f 225 277 279 229
f 278 227 231 280
f 229 279 281 233
f 280 231 235 282
f 233 281 283 237
f 282 235 239 284
f 237 283 285 241
f 244 243 286 287
f 284 239 244 287
f 247 246 288 289
f 241 285 288 246
f 249 248 290 291
f 286 243 249 291
f 251 250 292 293
f 247 289 292 250
f 253 252 294 295
f 290 248 253 295
f 252 254 296 294
f 251 293 296 254
f 297 298 299 300
f 297 300 301 302
f 301 300 299 303
f 304 305 298 297
f 304 297 302 306
f 304 306 307 305
f 298 256 255 299
f 303 299 255 308
f 305 258 256 298
f 305 307 309 258
f 308 255 257 310
f 258 309 311 259
f 257 260 312 310
f 312 260 261 313
f 262 259 311 314
f 262 314 315 263
f 261 264 316 313
f 316 264 265 317
f 266 263 315 318
f 266 318 319 267
f 317 265 268 320
f 267 319 321 269
f 322 323 324 320
f 268 270 325 326
f 268 326 322 320
f 322 326 325 323
f 321 327 328 329
f 330 331 271 269
f 330 269 321 329
f 330 329 328 331
f 323 332 333 324
f 270 272 334 325
f 323 325 334 332
f 327 335 336 328
f 331 337 273 271
f 331 328 336 337
f 332 338 339 333
f 272 274 340 334
f 332 334 340 338
f 335 341 342 336
f 337 343 275 273
f 337 336 342 343
f 338 344 345 339
f 274 276 346 340
f 338 340 346 344
f 341 347 348 342
f 343 349 277 275
f 343 342 348 349
f 344 350 351 345
f 276 278 352 346
f 344 346 352 350
f 347 353 354 348
f 349 355 279 277
f 349 348 354 355
f 350 356 357 351
f 278 280 358 352
f 350 352 358 356
f 353 359 360 354
f 355 361 281 279
f 355 354 360 361
f 356 362 363 357
f 280 282 364 358
f 364 282 363 362
f 356 358 364 362
f 359 365 366 360
f 361 367 283 281
f 283 367 366 365
f 361 360 366 367
f 363 282 284 368
f 283 365 369 285
f 287 286 370 371
f 368 284 287 371
f 289 288 372 373
f 285 369 372 288
f 291 290 374 375
f 370 286 291 375
f 293 292 376 377
f 289 373 376 292
f 295 294 378 379
f 374 290 295 379
f 294 296 380 378
f 293 377 380 296
f 302 301 381 382
f 381 301 303 383
f 306 302 382 384
f 306 384 385 307
f 303 308 386 387
f 303 387 388 383
f 388 387 386 389
f 390 391 309 307
f 390 307 385 392
f 390 392 393 391
f 308 310 312 386
f 389 386 312 394
f 391 314 311 309
f 391 393 395 314
f 394 312 313 396
f 314 395 397 315
f 313 316 398 396
f 398 316 317 399
f 318 315 397 400
f 318 400 401 319
f 399 317 320 402
f 319 401 403 321
f 402 320 324 404
f 321 403 405 327
f 404 324 333 406
f 327 405 407 335
f 406 333 339 408
f 335 407 409 341
f 408 339 345 410
f 341 409 411 347
f 410 345 351 412
f 347 411 413 353
f 412 351 357 414
f 353 413 415 359
f 414 357 363 416
f 359 415 417 365
f 416 363 368 418
f 365 417 419 369
f 371 370 420 421
f 418 368 371 421
f 373 372 422 423
f 369 419 422 372
f 375 374 424 425
f 420 370 375 425
f 377 376 426 427
f 373 423 426 376
f 379 378 428 429
f 424 374 379 429
f 378 380 430 428
f 377 427 430 380
f 382 381 431 432
f 431 381 383 433
f 384 382 432 434
f 384 434 435 385
f 383 388 436 433
f 436 388 389 437
f 392 385 435 438
f 392 438 439 393
f 440 441 442 437
f 389 394 443 444
f 389 444 440 437
f 440 444 443 441
f 439 445 446 447
f 448 449 395 393
f 448 393 439 447
f 448 447 446 449
f 441 450 451 442
f 394 396 398 443
f 441 443 398 450
f 445 452 453 446
f 449 400 397 395
f 449 446 453 400
f 450 454 455 451
f 450 398 399 454
f 452 456 457 453
f 400 453 457 401
f 454 458 459 455
f 454 399 402 458
f 456 460 461 457
f 401 457 461 403
f 458 462 463 459
f 458 402 404 462
f 460 464 465 461
f 403 461 465 405
f 462 466 467 463
f 462 404 406 466
f 464 468 469 465
f 405 465 469 407
f 466 406 408 470
f 407 469 471 409
f 470 472 473 474
f 470 408 410 472
f 475 476 477 471
f 409 471 477 411
f 472 478 479 473
f 472 410 412 478
f 476 480 481 477
f 411 477 481 413
f 478 482 483 479
f 478 412 414 482
f 480 484 485 481
f 413 481 485 415
f 482 486 487 483
f 482 414 416 486
f 484 488 489 485
f 415 485 489 417
f 486 490 491 487
f 486 416 418 490
f 488 492 493 489
f 417 489 493 419
f 490 494 495 491
f 421 420 495 494
f 490 418 421 494
f 492 496 497 493
f 423 422 497 496
f 419 493 497 422
f 425 424 498 499
f 495 420 425 499
f 427 426 500 501
f 423 496 500 426
f 498 424 429 502
f 427 501 503 430
f 502 504 505 506
f 428 507 508 429
f 502 429 508 504
f 506 505 509 503
f 430 510 507 428
f 430 503 509 510
f 504 511 512 505
f 507 513 514 508
f 514 513 512 511
f 504 508 514 511
f 505 512 515 509
f 510 516 513 507
f 513 516 515 512
f 510 509 515 516
f 432 431 517 518
f 517 431 433 519
f 434 432 518 520
f 434 520 521 435
f 522 523 524 519
f 433 436 522 519
f 522 436 437 523
f 521 525 526 527
f 438 435 521 527
f 438 527 526 439
f 523 528 529 524
f 523 437 442 528
f 525 530 531 526
f 439 526 531 445
f 528 532 533 529
f 528 442 451 532
f 530 534 535 531
f 445 531 535 452
f 532 536 537 533
f 532 451 455 536
f 534 538 539 535
f 452 535 539 456
f 536 540 541 537
f 536 455 459 540
f 538 542 543 539
f 456 539 543 460
f 540 544 545 541
f 540 459 463 544
f 542 546 547 543
f 460 543 547 464
f 544 463 467 548
f 464 547 549 468
f 470 474 550 551
f 467 466 552 548
f 552 466 470 551
f 475 471 553 554
f 469 468 549 555
f 469 555 553 471
f 550 474 473 556
f 475 554 557 476
f 556 558 559 560
f 556 473 479 558
f 561 562 563 557
f 476 557 563 480
f 558 564 565 559
f 558 479 483 564
f 562 566 567 563
f 480 563 567 484
f 564 568 569 565
f 564 483 487 568
f 566 570 571 567
f 484 567 571 488
f 568 572 573 569
f 568 487 491 572
f 570 574 575 571
f 488 571 575 492
f 572 576 577 573
f 572 491 495 576
f 574 578 579 575
f 492 575 579 496
f 576 580 581 577
f 499 498 581 580
f 576 495 499 580
f 578 582 583 579
f 501 500 583 582
f 496 579 583 500
f 502 506 584 585
f 581 498 502 585
f 506 503 586 584
f 501 582 586 503
f 587 588 589 590
f 518 517 587 590
f 587 517 519 588
f 590 589 591 592
f 520 518 590 592
f 520 592 591 521
f 588 593 594 589
f 588 519 524 593
f 589 594 595 591
f 521 591 595 525
f 593 596 597 594
f 593 524 529 596
f 594 597 598 595
f 525 595 598 530
f 596 599 600 597
f 596 529 533 599
f 597 600 601 598
f 530 598 601 534
f 599 602 603 600
f 599 533 537 602
f 600 603 604 601
f 534 601 604 538
f 602 605 606 603
f 602 537 541 605
f 603 606 607 604
f 538 604 607 542
f 605 541 545 608
f 542 607 609 546
f 545 544 610 608
f 610 544 548 611
f 547 546 609 612
f 547 612 613 549
f 551 550 614 615
f 548 552 616 611
f 616 552 551 615
f 554 553 617 618
f 555 549 613 619
f 555 619 617 553
f 556 560 620 621
f 614 550 556 621
f 561 557 622 623
f 554 618 622 557
f 620 560 559 624
f 561 623 625 562
f 624 626 627 628
f 624 559 565 626
f 628 627 629 625
f 562 625 629 566
f 626 630 631 627
f 626 565 569 630
f 627 631 632 629
f 566 629 632 570
f 630 633 634 631
f 630 569 573 633
f 631 634 635 632
f 570 632 635 574
f 633 636 637 634
f 633 573 577 636
f 634 637 638 635
f 574 635 638 578
f 636 639 640 637
f 636 577 581 639
f 637 640 641 638
f 578 638 641 582
f 639 642 643 640
f 585 584 643 642
f 639 581 585 642
f 640 643 644 641
f 584 586 644 643
f 582 641 644 586
f 606 605 645 646
f 645 605 608 647
f 607 606 646 648
f 607 648 649 609
f 608 610 650 647
f 650 610 611 651
f 612 609 649 652
f 612 652 653 613
f 615 614 654 655
f 611 616 656 651
f 656 616 615 655
f 618 617 657 658
f 619 613 653 659
f 619 659 657 617
f 621 620 660 661
f 654 614 621 661
f 623 622 662 663
f 618 658 662 622
f 624 628 664 665
f 660 620 624 665
f 628 625 666 664
f 623 663 666 625
f 646 645 667 668
f 667 645 647 669
f 648 646 668 670
f 648 670 671 649
f 647 650 672 669
f 672 650 651 673
f 652 649 671 674
f 652 674 675 653
f 676 677 678 673
f 655 654 678 677
f 651 656 676 673
f 676 656 655 677
f 675 679 680 681
f 658 657 680 679
f 659 653 675 681
f 659 681 680 657
f 661 660 682 683
f 678 654 661 683
f 663 662 684 685
f 658 679 684 662
f 665 664 686 687
f 682 660 665 687
f 664 666 688 686
f 663 685 688 666
f 668 667 689 690
f 689 667 669 691
f 670 668 690 692
f 670 692 693 671
f 694 695 696 691
f 669 672 694 691
f 694 672 673 695
f 693 697 698 699
f 674 671 693 699
f 674 699 698 675
f 695 700 701 696
f 695 673 678 700
f 697 702 703 698
f 675 698 703 679
f 700 704 705 701
f 683 682 705 704
f 700 678 683 704
f 702 706 707 703
f 685 684 707 706
f 679 703 707 684
f 687 686 708 709
f 705 682 687 709
f 686 688 710 708
f 685 706 710 688
f 711 712 713 714
f 690 689 711 714
f 711 689 691 712
f 714 713 715 716
f 692 690 714 716
f 692 716 715 693
f 712 717 718 713
f 712 691 696 717
f 713 718 719 715
f 693 715 719 697
f 717 720 721 718
f 717 696 701 720
f 718 721 722 719
f 697 719 722 702
f 720 723 724 721
f 720 701 705 723
f 721 724 725 722
f 702 722 725 706
f 723 726 727 724
f 709 708 727 726
f 723 705 709 726
f 724 727 728 725
f 708 710 728 727
f 706 725 728 710
f 729 730 731 732
f 729 732 733 734
f 733 732 731 735
f 736 737 730 729
f 736 729 734 738
f 736 738 739 737
f 730 740 741 731
f 735 731 741 742
f 737 743 740 730
f 737 739 744 743
f 740 745 746 741
f 742 741 746 747
f 743 748 745 740
f 743 744 749 748
f 745 750 751 746
f 747 746 751 752
f 748 753 750 745
f 748 749 754 753
f 750 755 756 751
f 752 751 756 757
f 753 758 755 750
f 753 754 759 758
f 755 760 761 756
f 757 756 761 762
f 758 763 760 755
f 758 759 764 763
f 760 765 766 761
f 762 761 766 767
f 763 768 765 760
f 763 764 769 768
f 765 770 771 766
f 767 766 771 772
f 768 773 770 765
f 768 769 774 773
f 770 775 776 771
f 772 771 776 777
f 773 778 775 770
f 773 774 779 778
f 775 780 781 776
f 781 780 782 783
f 777 776 781 783
f 778 784 780 775
f 780 784 785 782
f 778 779 785 784
f 786 734 733 787
f 786 787 788 789
f 788 787 733 790
f 791 738 734 786
f 791 786 789 792
f 791 792 793 738
f 790 733 735 794
f 738 793 795 739
f 735 742 796 797
f 735 797 798 794
f 798 797 796 799
f 800 801 744 739
f 800 739 795 802
f 800 802 803 801
f 742 747 804 796
f 799 796 804 805
f 801 806 749 744
f 801 803 807 806
f 747 752 808 804
f 805 804 808 809
f 806 810 754 749
f 806 807 811 810
f 752 757 812 808
f 809 808 812 813
f 810 814 759 754
f 810 811 815 814
f 757 762 816 812
f 813 812 816 817
f 814 818 764 759
f 814 815 819 818
f 762 767 820 816
f 817 816 820 821
f 818 822 769 764
f 818 819 823 822
f 767 772 824 820
f 821 820 824 825
f 822 826 774 769
f 822 823 827 826
f 772 777 828 824
f 828 777 829 830
f 825 824 828 830
f 826 831 779 774
f 779 831 832 833
f 826 827 832 831
f 829 777 783 834
f 779 833 835 785
f 782 836 837 783
f 837 836 838 839
f 834 783 837 839
f 785 840 836 782
f 836 840 841 838
f 785 835 841 840
f 842 843 844 845
f 842 845 846 847
f 846 845 844 848
f 849 850 843 842
f 849 842 847 851
f 849 851 852 850
f 843 789 788 844
f 848 844 788 853
f 850 792 789 843
f 850 852 854 792
f 853 788 790 855
f 792 854 856 793
f 790 794 798 857
f 790 857 858 855
f 858 857 798 859
f 860 802 795 793
f 860 793 856 861
f 860 861 862 802
f 859 798 799 863
f 802 862 864 803
f 799 805 865 866
f 799 866 867 863
f 867 866 865 868
f 869 870 807 803
f 869 803 864 871
f 869 871 872 870
f 805 809 873 865
f 868 865 873 874
f 870 875 811 807
f 870 872 876 875
f 809 813 877 873
f 874 873 877 878
f 875 879 815 811
f 875 876 880 879
f 813 817 881 877
f 878 877 881 882
f 879 883 819 815
f 879 880 884 883
f 817 821 885 881
f 882 881 885 886
f 883 887 823 819
f 883 884 888 887
f 821 825 889 885
f 889 825 890 891
f 886 885 889 891
f 887 892 827 823
f 827 892 893 894
f 887 888 893 892
f 890 825 830 895
f 827 894 896 832
f 829 834 897 830
f 897 834 898 899
f 895 830 897 899
f 832 900 835 833
f 835 900 901 902
f 832 896 901 900
f 898 834 839 903
f 835 902 904 841
f 838 905 906 839
f 903 839 906 907
f 841 908 905 838
f 841 904 909 908
f 905 910 911 906
f 911 910 912 913
f 907 906 911 913
f 908 914 910 905
f 910 914 915 912
f 908 909 915 914
f 847 846 916 917
f 916 846 848 918
f 851 847 917 919
f 851 919 920 852
f 848 853 921 922
f 848 922 923 918
f 923 922 921 924
f 925 926 854 852
f 925 852 920 927
f 925 927 928 926
f 853 855 858 921
f 924 921 858 929
f 926 861 856 854
f 926 928 930 861
f 929 858 859 931
f 861 930 932 862
f 933 934 935 931
f 859 863 867 936
f 859 936 933 931
f 933 936 867 934
f 932 937 938 939
f 940 871 864 862
f 940 862 932 939
f 940 939 938 871
f 934 941 942 935
f 934 867 868 941
f 937 943 944 938
f 871 938 944 872
f 941 945 946 942
f 941 868 874 945
f 943 947 948 944
f 872 944 948 876
f 945 949 950 946
f 945 874 878 949
f 947 951 952 948
f 876 948 952 880
f 949 953 954 950
f 949 878 882 953
f 951 955 956 952
f 880 952 956 884
f 953 957 958 954
f 953 882 886 957
f 955 959 960 956
f 884 956 960 888
f 957 961 962 958
f 957 886 891 961
f 959 963 964 960
f 888 960 964 893
f 961 965 966 962
f 890 895 967 891
f 967 895 966 965
f 961 891 967 965
f 963 968 969 964
f 893 970 896 894
f 896 970 969 968
f 893 964 969 970
f 966 895 899 971
f 896 968 972 901
f 898 903 973 899
f 971 899 973 974
f 901 975 904 902
f 901 972 976 975
f 903 907 977 973
f 977 907 978 979
f 974 973 977 979
f 975 980 909 904
f 909 980 981 982
f 975 976 981 980
f 913 912 983 984
f 978 907 913 984
f 912 915 985 983
f 909 982 985 915
f 986 917 916 987
f 986 987 988 989
f 988 987 916 990
f 991 919 917 986
f 991 986 989 992
f 991 992 993 919
f 990 916 918 994
f 919 993 995 920
f 918 923 996 994
f 996 923 924 997
f 927 920 995 998
f 927 998 999 928
f 1000 1001 1002 997
f 924 929 1003 1004
f 924 1004 1000 997
f 1000 1004 1003 1001
f 999 1005 1006 1007
f 1008 1009 930 928
f 1008 928 999 1007
f 1008 1007 1006 1009
f 1001 1010 1011 1002
f 929 931 933 1003
f 933 931 1011 1010
f 1001 1003 933 1010
f 1005 1012 1013 1006
f 1009 939 932 930
f 932 939 1013 1012
f 1009 1006 1013 939
f 1011 931 935 1014
f 932 1012 1015 937
f 1014 1016 1017 1018
f 1014 935 942 1016
f 1019 1020 1021 1015
f 937 1015 1021 943
f 1016 1022 1023 1017
f 1016 942 946 1022
f 1020 1024 1025 1021
f 943 1021 1025 947
f 1022 1026 1027 1023
f 1022 946 950 1026
f 1024 1028 1029 1025
f 947 1025 1029 951
f 1026 1030 1031 1027
f 1026 950 954 1030
f 1028 1032 1033 1029
f 951 1029 1033 955
f 1030 1034 1035 1031
f 1030 954 958 1034
f 1032 1036 1037 1033
f 955 1033 1037 959
f 1034 1038 1039 1035
f 1034 958 962 1038
f 1036 1040 1041 1037
f 959 1037 1041 963
f 1038 962 966 1042
f 963 1041 1043 968
f 1044 1045 1046 1042
f 966 971 1047 965
f 966 965 1044 1042
f 1044 965 1047 1045
f 1043 1048 1049 1050
f 969 1051 972 968
f 969 968 1043 1050
f 969 1050 1049 1051
f 1045 1052 1053 1046
f 971 974 1054 1047
f 1054 974 1053 1052
f 1045 1047 1054 1052
f 1048 1055 1056 1049
f 1051 1057 976 972
f 976 1057 1056 1055
f 1051 1049 1056 1057
f 979 978 1058 1059
f 1053 974 979 1059
f 982 981 1060 1061
f 976 1055 1060 981
f 1058 978 984 1062
f 982 1061 1063 985
f 983 1064 1065 984
f 1065 1064 1066 1067
f 1062 984 1065 1067
f 985 1068 1064 983
f 1064 1068 1069 1066
f 985 1063 1069 1068
f 1070 989 988 1071
f 1070 1071 1072 1073
f 1072 1071 988 1074
f 1075 992 989 1070
f 1075 1070 1073 1076
f 1075 1076 1077 992
f 1074 988 990 1078
f 992 1077 1079 993
f 990 994 996 1080
f 990 1080 1081 1078
f 1081 1080 996 1082
f 1083 998 995 993
f 1083 993 1079 1084
f 1083 1084 1085 998
f 1082 996 997 1086
f 998 1085 1087 999
f 1086 1088 1089 1090
f 1086 997 1002 1088
f 1091 1092 1093 1087
f 999 1087 1093 1005
f 1088 1094 1095 1089
f 1088 1002 1011 1094
f 1092 1096 1097 1093
f 1005 1093 1097 1012
f 1094 1098 1099 1095
f 1014 1018 1099 1098
f 1094 1011 1014 1098
f 1096 1100 1101 1097
f 1019 1015 1101 1100
f 1012 1097 1101 1015
f 1099 1018 1017 1102
f 1019 1100 1103 1020
f 1102 1104 1105 1106
f 1102 1017 1023 1104
f 1106 1105 1107 1103
f 1020 1103 1107 1024
f 1104 1108 1109 1105
f 1104 1023 1027 1108
f 1105 1109 1110 1107
f 1024 1107 1110 1028
f 1108 1111 1112 1109
f 1108 1027 1031 1111
f 1109 1112 1113 1110
f 1028 1110 1113 1032
f 1111 1114 1115 1112
f 1111 1031 1035 1114
f 1112 1115 1116 1113
f 1032 1113 1116 1036
f 1114 1035 1039 1117
f 1036 1116 1118 1040
f 1119 1120 1121 1117
f 1039 1038 1119 1117
f 1119 1038 1042 1120
f 1118 1122 1123 1124
f 1041 1040 1118 1124
f 1041 1124 1123 1043
f 1120 1125 1126 1121
f 1120 1042 1046 1125
f 1122 1127 1128 1123
f 1043 1123 1128 1048
f 1125 1129 1130 1126
f 1125 1046 1053 1129
f 1127 1131 1132 1128
f 1048 1128 1132 1055
f 1129 1053 1059 1133
f 1055 1132 1134 1060
f 1058 1062 1135 1059
f 1135 1062 1136 1137
f 1133 1059 1135 1137
f 1060 1138 1063 1061
f 1063 1138 1139 1140
f 1060 1134 1139 1138
f 1136 1062 1067 1141
f 1063 1140 1142 1069
f 1066 1143 1144 1067
f 1144 1143 1145 1146
f 1141 1067 1144 1146
f 1069 1147 1143 1066
f 1143 1147 1148 1145
f 1069 1142 1148 1147
f 1073 1072 1149 1150
f 1149 1072 1074 1151
f 1076 1073 1150 1152
f 1076 1152 1153 1077
f 1074 1078 1081 1154
f 1074 1154 1155 1151
f 1155 1154 1081 1156
f 1157 1084 1079 1077
f 1157 1077 1153 1158
f 1157 1158 1159 1084
f 1156 1081 1082 1160
f 1084 1159 1161 1085
f 1160 1162 1163 1164
f 1086 1090 1163 1162
f 1160 1082 1086 1162
f 1165 1166 1167 1161
f 1091 1087 1167 1166
f 1085 1161 1167 1087
f 1163 1090 1089 1168
f 1091 1166 1169 1092
f 1168 1170 1171 1172
f 1168 1089 1095 1170
f 1172 1171 1173 1169
f 1092 1169 1173 1096
f 1170 1174 1175 1171
f 1170 1095 1099 1174
f 1171 1175 1176 1173
f 1096 1173 1176 1100
f 1174 1177 1178 1175
f 1102 1106 1178 1177
f 1174 1099 1102 1177
f 1175 1178 1179 1176
f 1106 1103 1179 1178
f 1100 1176 1179 1103
f 1180 1181 1182 1183
f 1115 1114 1180 1183
f 1180 1114 1117 1181
f 1183 1182 1184 1185
f 1116 1115 1183 1185
f 1116 1185 1184 1118
f 1181 1186 1187 1182
f 1181 1117 1121 1186
f 1182 1187 1188 1184
f 1118 1184 1188 1122
f 1186 1189 1190 1187
f 1186 1121 1126 1189
f 1187 1190 1191 1188
f 1122 1188 1191 1127
f 1189 1126 1130 1192
f 1127 1191 1193 1131
f 1194 1195 1196 1192
f 1130 1129 1194 1192
f 1194 1129 1133 1195
f 1193 1197 1198 1199
f 1132 1131 1193 1199
f 1132 1199 1198 1134
f 1195 1133 1137 1200
f 1134 1198 1201 1139
f 1136 1141 1202 1137
f 1202 1141 1203 1204
f 1200 1137 1202 1204
f 1139 1205 1142 1140
f 1142 1205 1206 1207
f 1139 1201 1206 1205
f 1146 1145 1208 1209
f 1203 1141 1146 1209
f 1145 1148 1210 1208
f 1142 1207 1210 1148
f 1211 1150 1149 1212
f 1211 1212 1213 1214
f 1213 1212 1149 1215
f 1216 1152 1150 1211
f 1216 1211 1214 1217
f 1216 1217 1218 1152
f 1215 1149 1151 1219
f 1152 1218 1220 1153
f 1151 1155 1221 1219
f 1221 1155 1156 1222
f 1158 1153 1220 1223
f 1158 1223 1224 1159
f 1222 1225 1226 1227
f 1160 1164 1226 1225
f 1222 1156 1160 1225
f 1228 1229 1230 1224
f 1165 1161 1230 1229
f 1159 1224 1230 1161
f 1226 1164 1163 1231
f 1165 1229 1232 1166
f 1231 1233 1234 1235
f 1168 1172 1234 1233
f 1231 1163 1168 1233
f 1235 1234 1236 1232
f 1172 1169 1236 1234
f 1166 1232 1236 1169
f 1237 1238 1239 1240
f 1190 1189 1237 1240
f 1237 1189 1192 1238
f 1240 1239 1241 1242
f 1191 1190 1240 1242
f 1191 1242 1241 1193
f 1238 1192 1196 1243
f 1193 1241 1244 1197
f 1245 1246 1247 1243
f 1196 1195 1245 1243
f 1245 1195 1200 1246
f 1244 1248 1249 1250
f 1198 1197 1244 1250
f 1198 1250 1249 1201
f 1204 1203 1251 1252
f 1246 1200 1204 1252
f 1207 1206 1253 1254
f 1201 1249 1253 1206
f 1251 1203 1209 1255
f 1207 1254 1256 1210
f 1208 1257 1258 1209
f 1258 1257 1259 1260
f 1255 1209 1258 1260
f 1210 1261 1257 1208
f 1257 1261 1262 1259
f 1210 1256 1262 1261
f 1214 1213 1263 1264
f 1263 1213 1215 1265
f 1217 1214 1264 1266
f 1217 1266 1267 1218
f 1215 1219 1221 1268
f 1215 1268 1269 1265
f 1269 1268 1221 1270
f 1271 1223 1220 1218
f 1271 1218 1267 1272
f 1271 1272 1273 1223
f 1270 1274 1275 1276
f 1222 1227 1275 1274
f 1270 1221 1222 1274
f 1277 1278 1279 1273
f 1228 1224 1279 1278
f 1223 1273 1279 1224
f 1275 1227 1226 1280
f 1228 1278 1281 1229
f 1280 1282 1283 1284
f 1231 1235 1283 1282
f 1280 1226 1231 1282
f 1284 1283 1285 1281
f 1235 1232 1285 1283
f 1229 1281 1285 1232
f 1286 1287 1288 1289
f 1239 1238 1286 1289
f 1286 1238 1243 1287
f 1289 1288 1290 1291
f 1241 1239 1289 1291
f 1241 1291 1290 1244
f 1287 1243 1247 1292
f 1244 1290 1293 1248
f 1294 1295 1296 1292
f 1247 1246 1294 1292
f 1294 1246 1252 1295
f 1293 1297 1298 1299
f 1249 1248 1293 1299
f 1249 1299 1298 1253
f 1251 1255 1300 1252
f 1300 1255 1301 1302
f 1295 1252 1300 1302
f 1253 1303 1256 1254
f 1256 1303 1304 1305
f 1253 1298 1304 1303
f 1260 1259 1306 1307
f 1301 1255 1260 1307
f 1259 1262 1308 1306
f 1256 1305 1308 1262
f 1264 1263 1309 1310
f 1309 1263 1265 1311
f 1266 1264 1310 1312
f 1266 1312 1313 1267
f 1270 1276 1314 1315
f 1265 1269 1316 1311
f 1316 1269 1270 1315
f 1277 1273 1317 1318
f 1272 1267 1313 1319
f 1272 1319 1317 1273
f 1314 1276 1275 1320
f 1277 1318 1321 1278
f 1320 1322 1323 1324
f 1280 1284 1323 1322
f 1320 1275 1280 1322
f 1324 1323 1325 1321
f 1284 1281 1325 1323
f 1278 1321 1325 1281
f 1326 1327 1328 1329
f 1288 1287 1326 1329
f 1326 1287 1292 1327
f 1329 1328 1330 1331
f 1290 1288 1329 1331
f 1290 1331 1330 1293
f 1327 1292 1296 1332
f 1293 1330 1333 1297
f 1302 1301 1334 1335
f 1296 1295 1336 1332
f 1336 1295 1302 1335
f 1305 1304 1337 1338
f 1298 1297 1333 1339
f 1298 1339 1337 1304
f 1307 1306 1340 1341
f 1334 1301 1307 1341
f 1306 1308 1342 1340
f 1305 1338 1342 1308
f 1310 1309 1343 1344
f 1343 1309 1311 1345
f 1312 1310 1344 1346
f 1312 1346 1347 1313
f 1348 1349 1350 1345
f 1315 1314 1350 1349
f 1311 1316 1348 1345
f 1348 1316 1315 1349
f 1347 1351 1352 1353
f 1318 1317 1352 1351
f 1319 1313 1347 1353
f 1319 1353 1352 1317
f 1320 1324 1354 1355
f 1350 1314 1320 1355
f 1324 1321 1356 1354
f 1318 1351 1356 1321
f 1328 1327 1357 1358
f 1357 1327 1332 1359
f 1330 1328 1358 1360
f 1330 1360 1361 1333
f 1362 1363 1364 1359
f 1335 1334 1364 1363
f 1332 1336 1362 1359
f 1362 1336 1335 1363
f 1361 1365 1366 1367
f 1338 1337 1366 1365
f 1339 1333 1361 1367
f 1339 1367 1366 1337
f 1341 1340 1368 1369
f 1364 1334 1341 1369
f 1340 1342 1370 1368
f 1338 1365 1370 1342
f 1344 1343 1371 1372
f 1371 1343 1345 1373
f 1346 1344 1372 1374
f 1346 1374 1375 1347
f 1373 1345 1350 1376
f 1347 1375 1377 1351
f 1376 1378 1379 1380
f 1355 1354 1379 1378
f 1376 1350 1355 1378
f 1380 1379 1381 1377
f 1354 1356 1381 1379
f 1351 1377 1381 1356
f 1382 1383 1384 1385
f 1358 1357 1382 1385
f 1382 1357 1359 1383
f 1385 1384 1386 1387
f 1360 1358 1385 1387
f 1360 1387 1386 1361
f 1383 1359 1364 1388
f 1361 1386 1389 1365
f 1369 1368 1390 1391
f 1388 1364 1369 1391
f 1368 1370 1392 1390
f 1365 1389 1392 1370
f 1372 1371 1393 1394
f 1393 1371 1373 1395
f 1374 1372 1394 1396
f 1374 1396 1397 1375
f 1376 1380 1398 1399
f 1395 1373 1376 1399
f 1380 1377 1400 1398
f 1375 1397 1400 1377
f 1384 1383 1401 1402
f 1401 1383 1388 1403
f 1386 1384 1402 1404
f 1386 1404 1405 1389
f 1391 1390 1406 1407
f 1403 1388 1391 1407
f 1390 1392 1408 1406
f 1389 1405 1408 1392
f 1409 1410 1411 1412
f 1394 1393 1409 1412
f 1409 1393 1395 1410
f 1412 1411 1413 1414
f 1396 1394 1412 1414
f 1396 1414 1413 1397
f 1399 1398 1415 1416
f 1410 1395 1399 1416
f 1398 1400 1417 1415
f 1397 1413 1417 1400
f 1402 1401 1418 1419
f 1418 1401 1403 1420
f 1404 1402 1419 1421
f 1404 1421 1422 1405
f 1420 1423 1424 1425
f 1407 1406 1424 1423
f 1420 1403 1407 1423
f 1425 1424 1426 1422
f 1406 1408 1426 1424
f 1405 1422 1426 1408
f 1416 1415 1427 1428
f 1411 1410 1429 1430
f 1429 1410 1416 1428
f 1415 1417 1431 1427
f 1413 1411 1430 1432
f 1413 1432 1431 1417
f 1420 1425 1433 1434
f 1419 1418 1435 1436
f 1435 1418 1420 1434
f 1425 1422 1437 1433
f 1421 1419 1436 1438
f 1421 1438 1437 1422
f 1439 1440 1441 1442
f 1428 1427 1441 1440
f 1430 1429 1439 1442
f 1439 1429 1428 1440
f 1442 1441 1443 1444
f 1427 1431 1443 1441
f 1432 1430 1442 1444
f 1432 1444 1443 1431
f 1445 1446 1447 1448
f 1434 1433 1447 1446
f 1436 1435 1445 1448
f 1445 1435 1434 1446
f 1448 1447 1449 1450
f 1433 1437 1449 1447
f 1438 1436 1448 1450
f 1438 1450 1449 1437
