# E-crescent — lifted from a 2D silhouette by aide.lift
o E-crescent
v -13.500 -4.000 -1.500
v -13.500 -3.000 -1.500
v -13.500 -3.000 -2.500
v -13.500 -4.000 -2.500
v -12.500 -4.000 -2.500
v -12.500 -4.000 -1.500
v -12.500 -3.000 -2.500
v -13.500 -4.000 -0.500
v -13.500 -3.000 -0.500
v -12.500 -4.000 -0.500
v -13.500 -4.000 0.500
v -13.500 -3.000 0.500
v -12.500 -4.000 0.500
v -13.500 -4.000 1.500
v -13.500 -3.000 1.500
v -12.500 -4.000 1.500
v -13.500 -4.000 2.500
v -13.500 -3.000 2.500
v -12.500 -4.000 2.500
v -12.500 -3.000 2.500
v -13.500 -2.000 -2.500
v -13.500 -2.000 -3.500
v -13.500 -3.000 -3.500
v -12.500 -3.000 -3.500
v -12.500 -2.000 -3.500
v -13.500 -2.000 -1.500
v -13.500 -2.000 -0.500
v -13.500 -2.000 0.500
v -13.500 -2.000 1.500
v -13.500 -2.000 2.500
v -13.500 -3.000 3.500
v -13.500 -2.000 3.500
v -12.500 -3.000 3.500
v -12.500 -2.000 3.500
v -13.500 -1.000 -3.500
v -13.500 -1.000 -4.500
v -13.500 -2.000 -4.500
v -12.500 -2.000 -4.500
v -12.500 -1.000 -4.500
v -13.500 -1.000 -2.500
v -13.500 -1.000 -1.500
v -13.500 -1.000 -0.500
v -13.500 -1.000 0.500
v -13.500 -1.000 1.500
v -13.500 -1.000 2.500
v -13.500 -1.000 3.500
v -13.500 -2.000 4.500
v -13.500 -1.000 4.500
v -12.500 -2.000 4.500
v -12.500 -1.000 4.500
v -13.500 0.000 -3.500
v -13.500 0.000 -4.500
v -12.500 0.000 -4.500
v -13.500 0.000 -2.500
v -13.500 0.000 -1.500
v -13.500 0.000 -0.500
v -13.500 0.000 0.500
v -13.500 0.000 1.500
v -13.500 0.000 2.500
v -13.500 0.000 3.500
v -13.500 0.000 4.500
v -12.500 0.000 4.500
v -13.500 1.000 -3.500
v -13.500 1.000 -4.500
v -12.500 1.000 -4.500
v -13.500 1.000 -2.500
v -13.500 1.000 -1.500
v -13.500 1.000 -0.500
v -13.500 1.000 0.500
v -13.500 1.000 1.500
v -13.500 1.000 2.500
v -13.500 1.000 3.500
v -13.500 1.000 4.500
v -12.500 1.000 4.500
v -13.500 2.000 -3.500
v -13.500 2.000 -4.500
v -12.500 2.000 -3.500
v -12.500 2.000 -4.500
v -13.500 2.000 -2.500
v -13.500 2.000 -1.500
v -13.500 2.000 -0.500
v -13.500 2.000 0.500
v -13.500 2.000 1.500
v -13.500 2.000 2.500
v -13.500 2.000 3.500
v -13.500 2.000 4.500
v -12.500 2.000 4.500
v -12.500 2.000 3.500
v -13.500 3.000 -2.500
v -13.500 3.000 -3.500
v -12.500 3.000 -2.500
v -12.500 3.000 -3.500
v -13.500 3.000 -1.500
v -13.500 3.000 -0.500
v -13.500 3.000 0.500
v -13.500 3.000 1.500
v -13.500 3.000 2.500
v -13.500 3.000 3.500
v -12.500 3.000 3.500
v -12.500 3.000 2.500
v -13.500 4.000 -1.500
v -13.500 4.000 -2.500
v -12.500 4.000 -1.500
v -12.500 4.000 -2.500
v -13.500 4.000 -0.500
v -12.500 4.000 -0.500
v -13.500 4.000 0.500
v -12.500 4.000 0.500
v -13.500 4.000 1.500
v -12.500 4.000 1.500
v -13.500 4.000 2.500
v -12.500 4.000 2.500
v -11.500 -4.000 -2.500
v -11.500 -4.000 -1.500
v -11.500 -3.000 -2.500
v -11.500 -4.000 -0.500
v -11.500 -4.000 0.500
v -11.500 -4.000 1.500
v -11.500 -4.000 2.500
v -11.500 -3.000 2.500
v -11.500 -3.000 -3.500
v -11.500 -2.000 -3.500
v -11.500 -3.000 3.500
v -11.500 -2.000 3.500
v -11.500 -2.000 -4.500
v -11.500 -1.000 -4.500
v -11.500 -2.000 4.500
v -11.500 -1.000 4.500
v -11.500 0.000 -4.500
v -11.500 0.000 4.500
v -11.500 1.000 -4.500
v -11.500 1.000 4.500
v -11.500 2.000 -3.500
v -11.500 2.000 -4.500
v -11.500 2.000 4.500
v -11.500 2.000 3.500
v -11.500 3.000 -2.500
v -11.500 3.000 -3.500
v -11.500 3.000 3.500
v -11.500 3.000 2.500
v -11.500 4.000 -1.500
v -11.500 4.000 -2.500
v -11.500 4.000 -0.500
v -11.500 4.000 0.500
v -11.500 4.000 1.500
v -11.500 4.000 2.500
v -10.500 -4.000 -2.500
v -10.500 -4.000 -1.500
v -10.500 -3.000 -2.500
v -10.500 -4.000 -0.500
v -10.500 -4.000 0.500
v -10.500 -4.000 1.500
v -10.500 -4.000 2.500
v -10.500 -3.000 2.500
v -10.500 -3.000 -3.500
v -10.500 -2.000 -3.500
v -10.500 -3.000 3.500
v -10.500 -2.000 3.500
v -10.500 -2.000 -4.500
v -10.500 -1.000 -4.500
v -10.500 -2.000 4.500
v -10.500 -1.000 4.500
v -10.500 0.000 -4.500
v -10.500 0.000 4.500
v -10.500 1.000 -4.500
v -10.500 1.000 4.500
v -10.500 2.000 -3.500
v -10.500 2.000 -4.500
v -10.500 2.000 4.500
v -10.500 2.000 3.500
v -10.500 3.000 -2.500
v -10.500 3.000 -3.500
v -10.500 3.000 3.500
v -10.500 3.000 2.500
v -10.500 4.000 -1.500
v -10.500 4.000 -2.500
v -10.500 4.000 -0.500
v -10.500 4.000 0.500
v -10.500 4.000 1.500
v -10.500 4.000 2.500
v -9.500 -4.000 -2.500
v -9.500 -4.000 -1.500
v -9.500 -3.000 -2.500
v -9.500 -4.000 -0.500
v -9.500 -4.000 0.500
v -9.500 -4.000 1.500
v -9.500 -4.000 2.500
v -9.500 -3.000 2.500
v -9.500 -3.000 -3.500
v -9.500 -2.000 -3.500
v -9.500 -3.000 3.500
v -9.500 -2.000 3.500
v -9.500 -2.000 -4.500
v -9.500 -1.000 -4.500
v -9.500 -2.000 4.500
v -9.500 -1.000 4.500
v -9.500 0.000 -4.500
v -9.500 0.000 4.500
v -9.500 1.000 -4.500
v -9.500 1.000 4.500
v -9.500 2.000 -3.500
v -9.500 2.000 -4.500
v -9.500 2.000 4.500
v -9.500 2.000 3.500
v -9.500 3.000 -2.500
v -9.500 3.000 -3.500
v -9.500 3.000 3.500
v -9.500 3.000 2.500
v -9.500 4.000 -1.500
v -9.500 4.000 -2.500
v -9.500 4.000 -0.500
v -9.500 4.000 0.500
v -9.500 4.000 1.500
v -9.500 4.000 2.500
v -8.500 -4.000 -2.500
v -8.500 -4.000 -1.500
v -8.500 -3.000 -2.500
v -8.500 -4.000 -0.500
v -8.500 -4.000 0.500
v -8.500 -4.000 1.500
v -8.500 -4.000 2.500
v -8.500 -3.000 2.500
v -8.500 -3.000 -3.500
v -8.500 -2.000 -3.500
v -8.500 -3.000 3.500
v -8.500 -2.000 3.500
v -8.500 -2.000 -4.500
v -8.500 -1.000 -4.500
v -8.500 -2.000 4.500
v -8.500 -1.000 4.500
v -8.500 0.000 -4.500
v -8.500 0.000 4.500
v -8.500 1.000 -4.500
v -8.500 1.000 4.500
v -8.500 2.000 -3.500
v -8.500 2.000 -4.500
v -8.500 2.000 4.500
v -8.500 2.000 3.500
v -8.500 3.000 -2.500
v -8.500 3.000 -3.500
v -8.500 3.000 3.500
v -8.500 3.000 2.500
v -8.500 4.000 -1.500
v -8.500 4.000 -2.500
v -8.500 4.000 -0.500
v -8.500 4.000 0.500
v -8.500 4.000 1.500
v -8.500 4.000 2.500
v -7.500 -4.000 -2.500
v -7.500 -4.000 -1.500
v -7.500 -3.000 -2.500
v -7.500 -4.000 -0.500
v -7.500 -4.000 0.500
v -7.500 -4.000 1.500
v -7.500 -4.000 2.500
v -7.500 -3.000 2.500
v -7.500 -3.000 -3.500
v -7.500 -2.000 -3.500
v -7.500 -3.000 3.500
v -7.500 -2.000 3.500
v -7.500 -2.000 -4.500
v -7.500 -1.000 -4.500
v -7.500 -2.000 4.500
v -7.500 -1.000 4.500
v -7.500 0.000 -4.500
v -7.500 0.000 4.500
v -7.500 1.000 -4.500
v -7.500 1.000 4.500
v -7.500 2.000 -3.500
v -7.500 2.000 -4.500
v -7.500 2.000 4.500
v -7.500 2.000 3.500
v -7.500 3.000 -2.500
v -7.500 3.000 -3.500
v -7.500 3.000 3.500
v -7.500 3.000 2.500
v -7.500 4.000 -1.500
v -7.500 4.000 -2.500
v -7.500 4.000 -0.500
v -7.500 4.000 0.500
v -7.500 4.000 1.500
v -7.500 4.000 2.500
v -6.500 -4.000 -2.500
v -6.500 -3.000 -2.500
v -6.500 -3.000 -1.500
v -6.500 -4.000 -1.500
v -6.500 -3.000 -0.500
v -6.500 -4.000 -0.500
v -6.500 -3.000 0.500
v -6.500 -4.000 0.500
v -6.500 -3.000 1.500
v -6.500 -4.000 1.500
v -6.500 -3.000 2.500
v -6.500 -4.000 2.500
v -6.500 -3.000 -3.500
v -6.500 -2.000 -3.500
v -6.500 -2.000 -2.500
v -6.500 -2.000 -1.500
v -6.500 -2.000 -0.500
v -6.500 -2.000 0.500
v -6.500 -2.000 1.500
v -6.500 -2.000 2.500
v -6.500 -2.000 3.500
v -6.500 -3.000 3.500
v -6.500 -2.000 -4.500
v -6.500 -1.000 -4.500
v -6.500 -1.000 -3.500
v -6.500 -1.000 -2.500
v -6.500 -1.000 -1.500
v -6.500 -1.000 1.500
v -6.500 -1.000 2.500
v -6.500 -1.000 3.500
v -6.500 -1.000 4.500
v -6.500 -2.000 4.500
v -6.500 0.000 -4.500
v -6.500 0.000 -3.500
v -6.500 0.000 -2.500
v -6.500 0.000 2.500
v -6.500 0.000 3.500
v -6.500 0.000 4.500
v -6.500 1.000 -4.500
v -6.500 1.000 -3.500
v -6.500 1.000 -2.500
v -6.500 1.000 2.500
v -6.500 1.000 3.500
v -6.500 1.000 4.500
v -6.500 2.000 -4.500
v -6.500 2.000 -3.500
v -6.500 2.000 -2.500
v -6.500 2.000 -1.500
v -6.500 1.000 -1.500
v -6.500 1.000 1.500
v -6.500 2.000 1.500
v -6.500 2.000 2.500
v -6.500 2.000 3.500
v -6.500 2.000 4.500
v -6.500 3.000 -3.500
v -6.500 3.000 -2.500
v -6.500 3.000 -1.500
v -6.500 3.000 -0.500
v -6.500 2.000 -0.500
v -6.500 3.000 0.500
v -6.500 2.000 0.500
v -6.500 3.000 1.500
v -6.500 3.000 2.500
v -6.500 3.000 3.500
v -6.500 4.000 -2.500
v -6.500 4.000 -1.500
v -6.500 4.000 -0.500
v -6.500 4.000 0.500
v -6.500 4.000 1.500
v -6.500 4.000 2.500
v -5.500 -2.000 -1.500
v -5.500 -2.000 -0.500
v -5.500 -1.000 -1.500
v -5.500 -2.000 0.500
v -5.500 -2.000 1.500
v -5.500 -1.000 1.500
v -5.500 -1.000 -2.500
v -5.500 0.000 -2.500
v -5.500 -1.000 2.500
v -5.500 0.000 2.500
v -5.500 1.000 -1.500
v -5.500 1.000 -2.500
v -5.500 1.000 2.500
v -5.500 1.000 1.500
v -5.500 2.000 -0.500
v -5.500 2.000 -1.500
v -5.500 2.000 0.500
v -5.500 2.000 1.500
v -4.500 -2.000 -1.500
v -4.500 -2.000 -0.500
v -4.500 -1.000 -1.500
v -4.500 -2.000 0.500
v -4.500 -2.000 1.500
v -4.500 -1.000 1.500
v -4.500 -1.000 -2.500
v -4.500 0.000 -2.500
v -4.500 -1.000 2.500
v -4.500 0.000 2.500
v -4.500 1.000 -1.500
v -4.500 1.000 -2.500
v -4.500 1.000 2.500
v -4.500 1.000 1.500
v -4.500 2.000 -0.500
v -4.500 2.000 -1.500
v -4.500 2.000 0.500
v -4.500 2.000 1.500
v -3.500 -2.000 -1.500
v -3.500 -2.000 -0.500
v -3.500 -1.000 -1.500
v -3.500 -2.000 0.500
v -3.500 -2.000 1.500
v -3.500 -1.000 1.500
v -3.500 -1.000 -2.500
v -3.500 0.000 -2.500
v -3.500 -1.000 2.500
v -3.500 0.000 2.500
v -3.500 1.000 -1.500
v -3.500 1.000 -2.500
v -3.500 1.000 2.500
v -3.500 1.000 1.500
v -3.500 2.000 -0.500
v -3.500 2.000 -1.500
v -3.500 2.000 0.500
v -3.500 2.000 1.500
v -2.500 -2.000 -1.500
v -2.500 -2.000 -0.500
v -2.500 -1.000 -1.500
v -2.500 -2.000 0.500
v -2.500 -2.000 1.500
v -2.500 -1.000 1.500
v -2.500 -1.000 -2.500
v -2.500 0.000 -2.500
v -2.500 -1.000 2.500
v -2.500 0.000 2.500
v -2.500 1.000 -1.500
v -2.500 1.000 -2.500
v -2.500 1.000 2.500
v -2.500 1.000 1.500
v -2.500 2.000 -0.500
v -2.500 2.000 -1.500
v -2.500 2.000 0.500
v -2.500 2.000 1.500
v -1.500 -2.000 -1.500
v -1.500 -2.000 -0.500
v -1.500 -1.000 -1.500
v -1.500 -2.000 0.500
v -1.500 -2.000 1.500
v -1.500 -1.000 1.500
v -1.500 -1.000 -2.500
v -1.500 0.000 -2.500
v -1.500 -1.000 2.500
v -1.500 0.000 2.500
v -1.500 1.000 -1.500
v -1.500 1.000 -2.500
v -1.500 1.000 2.500
v -1.500 1.000 1.500
v -1.500 2.000 -0.500
v -1.500 2.000 -1.500
v -1.500 2.000 0.500
v -1.500 2.000 1.500
v -0.500 -2.000 -1.500
v -0.500 -2.000 -0.500
v -0.500 -1.000 -1.500
v -0.500 -2.000 0.500
v -0.500 -2.000 1.500
v -0.500 -1.000 1.500
v -0.500 -1.000 -2.500
v -0.500 0.000 -2.500
v -0.500 -1.000 2.500
v -0.500 0.000 2.500
v -0.500 1.000 -1.500
v -0.500 1.000 -2.500
v -0.500 1.000 2.500
v -0.500 1.000 1.500
v -0.500 2.000 -0.500
v -0.500 2.000 -1.500
v -0.500 2.000 0.500
v -0.500 2.000 1.500
v -0.500 -3.000 -1.500
v -0.500 -2.000 -2.500
v -0.500 -3.000 -2.500
v 0.500 -3.000 -2.500
v 0.500 -3.000 -1.500
v 0.500 -2.000 -2.500
v -0.500 -3.000 -0.500
v 0.500 -3.000 -0.500
v -0.500 -3.000 0.500
v 0.500 -3.000 0.500
v -0.500 -3.000 1.500
v 0.500 -3.000 1.500
v -0.500 -3.000 2.500
v -0.500 -2.000 2.500
v 0.500 -3.000 2.500
v 0.500 -2.000 2.500
v -0.500 -1.000 -3.500
v -0.500 -2.000 -3.500
v 0.500 -2.000 -3.500
v 0.500 -1.000 -3.500
v -0.500 -2.000 3.500
v -0.500 -1.000 3.500
v 0.500 -2.000 3.500
v 0.500 -1.000 3.500
v -0.500 0.000 -3.500
v 0.500 0.000 -3.500
v -0.500 0.000 3.500
v 0.500 0.000 3.500
v -0.500 1.000 -3.500
v 0.500 1.000 -3.500
v -0.500 1.000 3.500
v 0.500 1.000 3.500
v -0.500 2.000 -2.500
v -0.500 2.000 -3.500
v 0.500 2.000 -2.500
v 0.500 2.000 -3.500
v -0.500 2.000 2.500
v -0.500 2.000 3.500
v 0.500 2.000 3.500
v 0.500 2.000 2.500
v -0.500 3.000 -1.500
v -0.500 3.000 -2.500
v 0.500 3.000 -1.500
v 0.500 3.000 -2.500
v -0.500 3.000 -0.500
v 0.500 3.000 -0.500
v -0.500 3.000 0.500
v 0.500 3.000 0.500
v -0.500 3.000 1.500
v 0.500 3.000 1.500
v -0.500 3.000 2.500
v 0.500 3.000 2.500
v 1.500 -5.000 -2.500
v 1.500 -4.000 -2.500
v 1.500 -4.000 -1.500
v 1.500 -5.000 -1.500
v 0.500 -5.000 -1.500
v 0.500 -4.000 -1.500
v 0.500 -4.000 -2.500
v 0.500 -5.000 -2.500
v 0.500 -5.000 -0.500
v 0.500 -4.000 -0.500
v 1.500 -5.000 -0.500
v 0.500 -5.000 0.500
v 0.500 -4.000 0.500
v 1.500 -5.000 0.500
v 0.500 -5.000 1.500
v 0.500 -4.000 1.500
v 1.500 -5.000 1.500
v 1.500 -4.000 1.500
v 1.500 -4.000 2.500
v 1.500 -5.000 2.500
v 0.500 -5.000 2.500
v 0.500 -4.000 2.500
v 1.500 -4.000 -4.500
v 1.500 -3.000 -4.500
v 1.500 -3.000 -3.500
v 1.500 -4.000 -3.500
v 0.500 -4.000 -3.500
v 0.500 -3.000 -3.500
v 0.500 -3.000 -4.500
v 0.500 -4.000 -4.500
v 1.500 -3.000 -2.500
v 1.500 -3.000 2.500
v 1.500 -3.000 3.500
v 1.500 -4.000 3.500
v 0.500 -4.000 3.500
v 0.500 -3.000 3.500
v 1.500 -3.000 4.500
v 1.500 -4.000 4.500
v 0.500 -4.000 4.500
v 0.500 -3.000 4.500
v 1.500 -2.000 -4.500
v 1.500 -2.000 -3.500
v 0.500 -2.000 -4.500
v 1.500 -2.000 -2.500
v 1.500 -2.000 2.500
v 1.500 -2.000 3.500
v 1.500 -2.000 4.500
v 0.500 -2.000 4.500
v 1.500 -2.000 -5.500
v 1.500 -1.000 -5.500
v 1.500 -1.000 -4.500
v 0.500 -1.000 -4.500
v 0.500 -1.000 -5.500
v 0.500 -2.000 -5.500
v 1.500 -1.000 -3.500
v 1.500 -1.000 -2.500
v 1.500 -1.000 2.500
v 1.500 -1.000 3.500
v 1.500 -1.000 4.500
v 0.500 -1.000 4.500
v 1.500 -1.000 5.500
v 1.500 -2.000 5.500
v 0.500 -2.000 5.500
v 0.500 -1.000 5.500
v 1.500 0.000 -5.500
v 1.500 0.000 -4.500
v 0.500 0.000 -4.500
v 0.500 0.000 -5.500
v 0.500 0.000 4.500
v 1.500 0.000 4.500
v 1.500 0.000 5.500
v 0.500 0.000 5.500
v 1.500 1.000 -5.500
v 1.500 1.000 -4.500
v 0.500 1.000 -4.500
v 0.500 1.000 -5.500
v 0.500 1.000 4.500
v 1.500 1.000 4.500
v 1.500 1.000 5.500
v 0.500 1.000 5.500
v 1.500 2.000 -5.500
v 1.500 2.000 -4.500
v 0.500 2.000 -4.500
v 0.500 2.000 -5.500
v 1.500 2.000 -3.500
v 1.500 1.000 -3.500
v 1.500 2.000 -2.500
v 1.500 1.000 -2.500
v 1.500 1.000 2.500
v 1.500 2.000 2.500
v 1.500 2.000 3.500
v 1.500 1.000 3.500
v 1.500 2.000 4.500
v 0.500 2.000 4.500
v 1.500 2.000 5.500
v 0.500 2.000 5.500
v 1.500 3.000 -4.500
v 1.500 3.000 -3.500
v 0.500 3.000 -3.500
v 0.500 3.000 -4.500
v 1.500 3.000 -2.500
v 1.500 3.000 2.500
v 1.500 3.000 3.500
v 0.500 3.000 3.500
v 1.500 3.000 4.500
v 0.500 3.000 4.500
v 1.500 4.000 -4.500
v 1.500 4.000 -3.500
v 0.500 4.000 -3.500
v 0.500 4.000 -4.500
v 1.500 4.000 -2.500
v 0.500 4.000 -2.500
v 0.500 4.000 -1.500
v 0.500 4.000 -0.500
v 0.500 4.000 0.500
v 0.500 4.000 1.500
v 0.500 4.000 2.500
v 1.500 4.000 2.500
v 1.500 4.000 3.500
v 0.500 4.000 3.500
v 1.500 4.000 4.500
v 0.500 4.000 4.500
v 1.500 5.000 -2.500
v 1.500 5.000 -1.500
v 1.500 4.000 -1.500
v 0.500 5.000 -1.500
v 0.500 5.000 -2.500
v 0.500 5.000 -0.500
v 1.500 5.000 -0.500
v 0.500 5.000 0.500
v 1.500 5.000 0.500
v 0.500 5.000 1.500
v 1.500 5.000 1.500
v 1.500 4.000 1.500
v 1.500 5.000 2.500
v 0.500 5.000 2.500
v 1.500 -6.000 -0.500
v 1.500 -6.000 -1.500
v 2.500 -6.000 -1.500
v 2.500 -6.000 -0.500
v 2.500 -5.000 -1.500
v 1.500 -6.000 0.500
v 2.500 -6.000 0.500
v 1.500 -6.000 1.500
v 2.500 -6.000 1.500
v 2.500 -5.000 1.500
v 2.500 -4.000 -1.500
v 2.500 -4.000 1.500
v 2.500 -4.000 -2.500
v 2.500 -3.000 -2.500
v 2.500 -4.000 2.500
v 2.500 -3.000 2.500
v 2.500 -2.000 -2.500
v 2.500 -2.000 2.500
v 2.500 -1.000 -2.500
v 2.500 -1.000 2.500
v 2.500 -1.000 -4.500
v 2.500 -1.000 -3.500
v 2.500 0.000 -4.500
v 2.500 -1.000 3.500
v 2.500 -1.000 4.500
v 2.500 0.000 4.500
v 2.500 1.000 -3.500
v 2.500 1.000 -4.500
v 2.500 1.000 -2.500
v 2.500 1.000 3.500
v 2.500 1.000 2.500
v 2.500 1.000 4.500
v 2.500 2.000 -2.500
v 2.500 2.000 2.500
v 2.500 3.000 -2.500
v 2.500 3.000 2.500
v 2.500 4.000 -1.500
v 2.500 4.000 -2.500
v 2.500 4.000 2.500
v 2.500 4.000 1.500
v 2.500 5.000 -1.500
v 2.500 5.000 1.500
v 1.500 6.000 -0.500
v 1.500 6.000 -1.500
v 2.500 6.000 -0.500
v 2.500 6.000 -1.500
v 1.500 6.000 0.500
v 2.500 6.000 0.500
v 1.500 6.000 1.500
v 2.500 6.000 1.500
v 2.500 -7.000 -0.500
v 2.500 -7.000 -1.500
v 3.500 -7.000 -1.500
v 3.500 -7.000 -0.500
v 3.500 -6.000 -1.500
v 2.500 -7.000 0.500
v 3.500 -7.000 0.500
v 2.500 -7.000 1.500
v 3.500 -7.000 1.500
v 3.500 -6.000 1.500
v 3.500 -5.000 -1.500
v 3.500 -5.000 1.500
v 2.500 -5.000 -2.500
v 3.500 -5.000 -2.500
v 3.500 -4.000 -2.500
v 2.500 -5.000 2.500
v 3.500 -5.000 2.500
v 3.500 -4.000 2.500
v 3.500 -3.000 -2.500
v 3.500 -3.000 2.500
v 3.500 -3.000 -4.500
v 3.500 -2.000 -4.500
v 3.500 -2.000 -3.500
v 3.500 -3.000 -3.500
v 2.500 -3.000 -3.500
v 2.500 -2.000 -3.500
v 2.500 -2.000 -4.500
v 2.500 -3.000 -4.500
v 3.500 -2.000 -2.500
v 3.500 -2.000 2.500
v 3.500 -2.000 3.500
v 3.500 -3.000 3.500
v 2.500 -3.000 3.500
v 2.500 -2.000 3.500
v 3.500 -2.000 4.500
v 3.500 -3.000 4.500
v 2.500 -3.000 4.500
v 2.500 -2.000 4.500
v 3.500 -1.000 -4.500
v 3.500 -1.000 -3.500
v 3.500 -1.000 -2.500
v 3.500 -1.000 2.500
v 3.500 -1.000 3.500
v 3.500 -1.000 4.500
v 3.500 0.000 -4.500
v 3.500 0.000 -3.500
v 3.500 0.000 -2.500
v 3.500 0.000 2.500
v 3.500 0.000 3.500
v 3.500 0.000 4.500
v 3.500 1.000 -4.500
v 3.500 1.000 -3.500
v 3.500 1.000 -2.500
v 3.500 1.000 2.500
v 3.500 1.000 3.500
v 3.500 1.000 4.500
v 3.500 2.000 -4.500
v 3.500 2.000 -3.500
v 2.500 2.000 -3.500
v 2.500 2.000 -4.500
v 3.500 2.000 -2.500
v 3.500 2.000 2.500
v 3.500 2.000 3.500
v 2.500 2.000 3.500
v 3.500 2.000 4.500
v 2.500 2.000 4.500
v 3.500 3.000 -4.500
v 3.500 3.000 -3.500
v 2.500 3.000 -3.500
v 2.500 3.000 -4.500
v 3.500 3.000 -2.500
v 3.500 3.000 2.500
v 3.500 3.000 3.500
v 2.500 3.000 3.500
v 3.500 3.000 4.500
v 2.500 3.000 4.500
v 3.500 4.000 -2.500
v 3.500 4.000 2.500
v 2.500 5.000 -2.500
v 3.500 5.000 -1.500
v 3.500 5.000 -2.500
v 2.500 5.000 2.500
v 3.500 5.000 2.500
v 3.500 5.000 1.500
v 3.500 6.000 -1.500
v 3.500 6.000 1.500
v 2.500 7.000 -0.500
v 2.500 7.000 -1.500
v 3.500 7.000 -0.500
v 3.500 7.000 -1.500
v 2.500 7.000 0.500
v 3.500 7.000 0.500
v 2.500 7.000 1.500
v 3.500 7.000 1.500
v 3.500 -8.000 -0.500
v 3.500 -8.000 -1.500
v 4.500 -8.000 -1.500
v 4.500 -8.000 -0.500
v 4.500 -7.000 -1.500
v 3.500 -8.000 0.500
v 4.500 -8.000 0.500
v 3.500 -8.000 1.500
v 4.500 -8.000 1.500
v 4.500 -7.000 1.500
v 4.500 -6.000 -1.500
v 4.500 -6.000 1.500
v 3.500 -6.000 -2.500
v 4.500 -6.000 -2.500
v 4.500 -5.000 -2.500
v 3.500 -6.000 2.500
v 4.500 -6.000 2.500
v 4.500 -5.000 2.500
v 4.500 -4.000 -2.500
v 4.500 -4.000 2.500
v 4.500 -3.000 -2.500
v 4.500 -3.000 -1.500
v 4.500 -4.000 -1.500
v 4.500 -4.000 1.500
v 4.500 -3.000 1.500
v 4.500 -3.000 2.500
v 4.500 -2.000 -2.500
v 4.500 -2.000 -1.500
v 4.500 -2.000 1.500
v 4.500 -2.000 2.500
v 4.500 -1.000 -2.500
v 4.500 -1.000 -1.500
v 4.500 -1.000 1.500
v 4.500 -1.000 2.500
v 4.500 0.000 -2.500
v 4.500 0.000 -1.500
v 4.500 0.000 1.500
v 4.500 0.000 2.500
v 4.500 1.000 -2.500
v 4.500 1.000 -1.500
v 4.500 1.000 1.500
v 4.500 1.000 2.500
v 4.500 2.000 -2.500
v 4.500 2.000 -1.500
v 4.500 2.000 1.500
v 4.500 2.000 2.500
v 4.500 3.000 -2.500
v 4.500 3.000 -1.500
v 4.500 3.000 1.500
v 4.500 3.000 2.500
v 4.500 4.000 -2.500
v 4.500 4.000 -1.500
v 4.500 4.000 1.500
v 4.500 4.000 2.500
v 4.500 5.000 -2.500
v 4.500 5.000 2.500
v 3.500 6.000 -2.500
v 4.500 6.000 -1.500
v 4.500 6.000 -2.500
v 3.500 6.000 2.500
v 4.500 6.000 2.500
v 4.500 6.000 1.500
v 4.500 7.000 -1.500
v 4.500 7.000 1.500
v 3.500 8.000 -0.500
v 3.500 8.000 -1.500
v 4.500 8.000 -0.500
v 4.500 8.000 -1.500
v 3.500 8.000 0.500
v 4.500 8.000 0.500
v 3.500 8.000 1.500
v 4.500 8.000 1.500
v 4.500 -9.000 -0.500
v 4.500 -9.000 -1.500
v 5.500 -9.000 -1.500
v 5.500 -9.000 -0.500
v 5.500 -8.000 -1.500
v 4.500 -9.000 0.500
v 5.500 -9.000 0.500
v 4.500 -9.000 1.500
v 5.500 -9.000 1.500
v 5.500 -8.000 1.500
v 5.500 -7.000 -1.500
v 5.500 -7.000 1.500
v 4.500 -7.000 -2.500
v 5.500 -7.000 -2.500
v 5.500 -6.000 -2.500
v 4.500 -7.000 2.500
v 5.500 -7.000 2.500
v 5.500 -6.000 2.500
v 5.500 -5.000 -2.500
v 5.500 -5.000 -1.500
v 5.500 -6.000 -1.500
v 5.500 -6.000 1.500
v 5.500 -5.000 1.500
v 5.500 -5.000 2.500
v 5.500 -4.000 -2.500
v 5.500 -4.000 -1.500
v 5.500 -4.000 1.500
v 5.500 -4.000 2.500
v 5.500 -3.000 -1.500
v 5.500 -3.000 1.500
v 5.500 -2.000 -1.500
v 5.500 -2.000 -0.500
v 5.500 -3.000 -0.500
v 5.500 -2.000 0.500
v 5.500 -3.000 0.500
v 5.500 -2.000 1.500
v 5.500 -1.000 -1.500
v 5.500 -1.000 -0.500
v 5.500 -1.000 0.500
v 5.500 -1.000 1.500
v 5.500 0.000 -1.500
v 5.500 0.000 -0.500
v 5.500 0.000 0.500
v 5.500 0.000 1.500
v 5.500 1.000 -1.500
v 5.500 1.000 -0.500
v 5.500 1.000 0.500
v 5.500 1.000 1.500
v 5.500 2.000 -1.500
v 5.500 2.000 -0.500
v 5.500 2.000 0.500
v 5.500 2.000 1.500
v 5.500 3.000 -1.500
v 5.500 3.000 -0.500
v 5.500 3.000 0.500
v 5.500 3.000 1.500
v 5.500 4.000 -1.500
v 5.500 4.000 1.500
v 5.500 4.000 -2.500
v 5.500 5.000 -2.500
v 5.500 5.000 -1.500
v 5.500 5.000 1.500
v 5.500 5.000 2.500
v 5.500 4.000 2.500
v 5.500 6.000 -2.500
v 5.500 6.000 -1.500
v 5.500 6.000 1.500
v 5.500 6.000 2.500
v 4.500 7.000 -2.500
v 5.500 7.000 -1.500
v 5.500 7.000 -2.500
v 4.500 7.000 2.500
v 5.500 7.000 2.500
v 5.500 7.000 1.500
v 5.500 8.000 -1.500
v 5.500 8.000 1.500
v 4.500 9.000 -0.500
v 4.500 9.000 -1.500
v 5.500 9.000 -0.500
v 5.500 9.000 -1.500
v 4.500 9.000 0.500
v 5.500 9.000 0.500
v 4.500 9.000 1.500
v 5.500 9.000 1.500
v 6.500 -9.000 -1.500
v 6.500 -9.000 -0.500
v 6.500 -8.000 -1.500
v 6.500 -9.000 0.500
v 6.500 -9.000 1.500
v 6.500 -8.000 1.500
v 5.500 -8.000 -2.500
v 6.500 -8.000 -2.500
v 6.500 -7.000 -2.500
v 5.500 -8.000 2.500
v 6.500 -8.000 2.500
v 6.500 -7.000 2.500
v 6.500 -6.000 -2.500
v 6.500 -6.000 -1.500
v 6.500 -7.000 -1.500
v 6.500 -7.000 1.500
v 6.500 -6.000 1.500
v 6.500 -6.000 2.500
v 6.500 -5.000 -1.500
v 6.500 -5.000 1.500
v 6.500 -4.000 -1.500
v 6.500 -4.000 -0.500
v 6.500 -5.000 -0.500
v 6.500 -4.000 0.500
v 6.500 -5.000 0.500
v 6.500 -4.000 1.500
v 6.500 -3.000 -1.500
v 6.500 -3.000 -0.500
v 6.500 -3.000 0.500
v 6.500 -3.000 1.500
v 6.500 3.000 -1.500
v 6.500 4.000 -1.500
v 6.500 4.000 -0.500
v 6.500 3.000 -0.500
v 6.500 4.000 0.500
v 6.500 3.000 0.500
v 6.500 4.000 1.500
v 6.500 3.000 1.500
v 6.500 5.000 -1.500
v 6.500 5.000 -0.500
v 6.500 5.000 0.500
v 6.500 5.000 1.500
v 6.500 6.000 -1.500
v 6.500 6.000 1.500
v 6.500 6.000 -2.500
v 6.500 7.000 -2.500
v 6.500 7.000 -1.500
v 6.500 7.000 1.500
v 6.500 7.000 2.500
v 6.500 6.000 2.500
v 5.500 8.000 -2.500
v 6.500 8.000 -1.500
v 6.500 8.000 -2.500
v 5.500 8.000 2.500
v 6.500 8.000 2.500
v 6.500 8.000 1.500
v 6.500 9.000 -0.500
v 6.500 9.000 -1.500
v 6.500 9.000 0.500
v 6.500 9.000 1.500
v 7.500 -9.000 -1.500
v 7.500 -9.000 -0.500
v 7.500 -8.000 -1.500
v 7.500 -9.000 0.500
v 7.500 -9.000 1.500
v 7.500 -8.000 1.500
v 7.500 -8.000 -2.500
v 7.500 -7.000 -2.500
v 7.500 -7.000 -1.500
v 7.500 -7.000 1.500
v 7.500 -7.000 2.500
v 7.500 -8.000 2.500
v 7.500 -6.000 -1.500
v 7.500 -6.000 1.500
v 7.500 -5.000 -1.500
v 7.500 -5.000 -0.500
v 7.500 -6.000 -0.500
v 7.500 -5.000 0.500
v 7.500 -6.000 0.500
v 7.500 -5.000 1.500
v 7.500 5.000 -1.500
v 7.500 6.000 -1.500
v 7.500 6.000 -0.500
v 7.500 5.000 -0.500
v 7.500 6.000 0.500
v 7.500 5.000 0.500
v 7.500 6.000 1.500
v 7.500 5.000 1.500
v 7.500 7.000 -1.500
v 7.500 7.000 1.500
v 7.500 7.000 -2.500
v 7.500 8.000 -2.500
v 7.500 8.000 -1.500
v 7.500 8.000 1.500
v 7.500 8.000 2.500
v 7.500 7.000 2.500
v 7.500 9.000 -0.500
v 7.500 9.000 -1.500
v 7.500 9.000 0.500
v 7.500 9.000 1.500
v 8.500 -9.000 -1.500
v 8.500 -9.000 -0.500
v 8.500 -8.000 -1.500
v 8.500 -9.000 0.500
v 8.500 -9.000 1.500
v 8.500 -8.000 1.500
v 8.500 -7.000 -1.500
v 8.500 -7.000 1.500
v 8.500 -6.000 -1.500
v 8.500 -6.000 -0.500
v 8.500 -7.000 -0.500
v 8.500 -6.000 0.500
v 8.500 -7.000 0.500
v 8.500 -6.000 1.500
v 8.500 6.000 -1.500
v 8.500 7.000 -1.500
v 8.500 7.000 -0.500
v 8.500 6.000 -0.500
v 8.500 7.000 0.500
v 8.500 6.000 0.500
v 8.500 7.000 1.500
v 8.500 6.000 1.500
v 8.500 8.000 -1.500
v 8.500 8.000 1.500
v 8.500 9.000 -0.500
v 8.500 9.000 -1.500
v 8.500 9.000 0.500
v 8.500 9.000 1.500
v 9.500 -10.000 -1.500
v 9.500 -9.000 -1.500
v 9.500 -9.000 -0.500
v 9.500 -10.000 -0.500
v 8.500 -10.000 -0.500
v 8.500 -10.000 -1.500
v 9.500 -9.000 0.500
v 9.500 -10.000 0.500
v 8.500 -10.000 0.500
v 9.500 -9.000 1.500
v 9.500 -10.000 1.500
v 8.500 -10.000 1.500
v 9.500 -8.000 -1.500
v 9.500 -8.000 1.500
v 9.500 -7.000 -0.500
v 9.500 -7.000 -1.500
v 9.500 -7.000 0.500
v 9.500 -7.000 1.500
v 9.500 7.000 -1.500
v 9.500 7.000 -0.500
v 9.500 8.000 -1.500
v 9.500 7.000 0.500
v 9.500 7.000 1.500
v 9.500 8.000 1.500
v 9.500 9.000 -1.500
v 9.500 9.000 1.500
v 9.500 10.000 -1.500
v 9.500 10.000 -0.500
v 9.500 9.000 -0.500
v 8.500 10.000 -0.500
v 8.500 10.000 -1.500
v 9.500 10.000 0.500
v 9.500 9.000 0.500
v 8.500 10.000 0.500
v 9.500 10.000 1.500
v 8.500 10.000 1.500
v 10.500 -9.000 -1.500
v 10.500 -9.000 -0.500
v 10.500 -8.000 -1.500
v 10.500 -9.000 0.500
v 10.500 -9.000 1.500
v 10.500 -8.000 1.500
v 10.500 -7.000 -1.500
v 10.500 -7.000 -0.500
v 10.500 -8.000 -0.500
v 10.500 -7.000 0.500
v 10.500 -8.000 0.500
v 10.500 -7.000 1.500
v 10.500 7.000 -1.500
v 10.500 8.000 -1.500
v 10.500 8.000 -0.500
v 10.500 7.000 -0.500
v 10.500 8.000 0.500
v 10.500 7.000 0.500
v 10.500 8.000 1.500
v 10.500 7.000 1.500
v 10.500 9.000 -0.500
v 10.500 9.000 -1.500
v 10.500 9.000 0.500
v 10.500 9.000 1.500
v 11.500 -8.000 -0.500
v 11.500 -8.000 -1.500
v 11.500 -9.000 -1.500
v 11.500 -9.000 -0.500
v 11.500 -8.000 0.500
v 11.500 -9.000 0.500
v 11.500 -8.000 1.500
v 11.500 -9.000 1.500
v 11.500 9.000 -0.500
v 11.500 9.000 -1.500
v 11.500 8.000 -1.500
v 11.500 8.000 -0.500
v 11.500 9.000 0.500
v 11.500 8.000 0.500
v 11.500 9.000 1.500
v 11.500 8.000 1.500
v 12.500 -8.000 -0.500
v 12.500 -8.000 -1.500
v 12.500 -9.000 -1.500
v 12.500 -9.000 -0.500
v 12.500 -8.000 0.500
v 12.500 -9.000 0.500
v 12.500 -8.000 1.500
v 12.500 -9.000 1.500
v 12.500 9.000 -0.500
v 12.500 9.000 -1.500
v 12.500 8.000 -1.500
v 12.500 8.000 -0.500
v 12.500 9.000 0.500
v 12.500 8.000 0.500
v 12.500 9.000 1.500
v 12.500 8.000 1.500
v 13.500 -9.000 -1.500
v 13.500 -8.000 -1.500
v 13.500 -8.000 -0.500
v 13.500 -9.000 -0.500
v 13.500 -8.000 0.500
v 13.500 -9.000 0.500
v 13.500 -8.000 1.500
v 13.500 -9.000 1.500
v 13.500 8.000 -1.500
v 13.500 9.000 -1.500
v 13.500 9.000 -0.500
v 13.500 8.000 -0.500
v 13.500 9.000 0.500
v 13.500 8.000 0.500
v 13.500 9.000 1.500
v 13.500 8.000 1.500
f 1 2 3 4
f 1 4 5 6
f 5 4 3 7
f 8 9 2 1
f 8 1 6 10
f 11 12 9 8
f 11 8 10 13
f 14 15 12 11
f 14 11 13 16
f 17 18 15 14
f 17 14 16 19
f 17 19 20 18
f 3 21 22 23
f 3 23 24 7
f 24 23 22 25
f 2 26 21 3
f 9 27 26 2
f 12 28 27 9
f 15 29 28 12
f 18 30 29 15
f 31 32 30 18
f 31 18 20 33
f 31 33 34 32
f 22 35 36 37
f 22 37 38 25
f 38 37 36 39
f 21 40 35 22
f 26 41 40 21
f 27 42 41 26
f 28 43 42 27
f 29 44 43 28
f 30 45 44 29
f 32 46 45 30
f 47 48 46 32
f 47 32 34 49
f 47 49 50 48
f 35 51 52 36
f 39 36 52 53
f 40 54 51 35
f 41 55 54 40
f 42 56 55 41
f 43 57 56 42
f 44 58 57 43
f 45 59 58 44
f 46 60 59 45
f 48 61 60 46
f 48 50 62 61
f 51 63 64 52
f 53 52 64 65
f 54 66 63 51
f 55 67 66 54
f 56 68 67 55
f 57 69 68 56
f 58 70 69 57
f 59 71 70 58
f 60 72 71 59
f 61 73 72 60
f 61 62 74 73
f 63 75 76 64
f 76 75 77 78
f 65 64 76 78
f 66 79 75 63
f 67 80 79 66
f 68 81 80 67
f 69 82 81 68
f 70 83 82 69
f 71 84 83 70
f 72 85 84 71
f 73 86 85 72
f 85 86 87 88
f 73 74 87 86
f 79 89 90 75
f 90 89 91 92
f 77 75 90 92
f 80 93 89 79
f 81 94 93 80
f 82 95 94 81
f 83 96 95 82
f 84 97 96 83
f 85 98 97 84
f 97 98 99 100
f 85 88 99 98
f 93 101 102 89
f 102 101 103 104
f 91 89 102 104
f 94 105 101 93
f 101 105 106 103
f 95 107 105 94
f 105 107 108 106
f 96 109 107 95
f 107 109 110 108
f 97 111 109 96
f 109 111 112 110
f 97 100 112 111
f 6 5 113 114
f 113 5 7 115
f 10 6 114 116
f 13 10 116 117
f 16 13 117 118
f 19 16 118 119
f 19 119 120 20
f 7 24 121 115
f 121 24 25 122
f 33 20 120 123
f 33 123 124 34
f 25 38 125 122
f 125 38 39 126
f 49 34 124 127
f 49 127 128 50
f 126 39 53 129
f 50 128 130 62
f 129 53 65 131
f 62 130 132 74
f 78 77 133 134
f 131 65 78 134
f 88 87 135 136
f 74 132 135 87
f 92 91 137 138
f 133 77 92 138
f 100 99 139 140
f 88 136 139 99
f 104 103 141 142
f 137 91 104 142
f 103 106 143 141
f 106 108 144 143
f 108 110 145 144
f 110 112 146 145
f 100 140 146 112
f 114 113 147 148
f 147 113 115 149
f 116 114 148 150
f 117 116 150 151
f 118 117 151 152
f 119 118 152 153
f 119 153 154 120
f 115 121 155 149
f 155 121 122 156
f 123 120 154 157
f 123 157 158 124
f 122 125 159 156
f 159 125 126 160
f 127 124 158 161
f 127 161 162 128
f 160 126 129 163
f 128 162 164 130
f 163 129 131 165
f 130 164 166 132
f 134 133 167 168
f 165 131 134 168
f 136 135 169 170
f 132 166 169 135
f 138 137 171 172
f 167 133 138 172
f 140 139 173 174
f 136 170 173 139
f 142 141 175 176
f 171 137 142 176
f 141 143 177 175
f 143 144 178 177
f 144 145 179 178
f 145 146 180 179
f 140 174 180 146
f 148 147 181 182
f 181 147 149 183
f 150 148 182 184
f 151 150 184 185
f 152 151 185 186
f 153 152 186 187
f 153 187 188 154
f 149 155 189 183
f 189 155 156 190
f 157 154 188 191
f 157 191 192 158
f 156 159 193 190
f 193 159 160 194
f 161 158 192 195
f 161 195 196 162
f 194 160 163 197
f 162 196 198 164
f 197 163 165 199
f 164 198 200 166
f 168 167 201 202
f 199 165 168 202
f 170 169 203 204
f 166 200 203 169
f 172 171 205 206
f 201 167 172 206
f 174 173 207 208
f 170 204 207 173
f 176 175 209 210
f 205 171 176 210
f 175 177 211 209
f 177 178 212 211
f 178 179 213 212
f 179 180 214 213
f 174 208 214 180
f 182 181 215 216
f 215 181 183 217
f 184 182 216 218
f 185 184 218 219
f 186 185 219 220
f 187 186 220 221
f 187 221 222 188
f 183 189 223 217
f 223 189 190 224
f 191 188 222 225
f 191 225 226 192
f 190 193 227 224
f 227 193 194 228
f 195 192 226 229
f 195 229 230 196
f 228 194 197 231
f 196 230 232 198
f 231 197 199 233
f 198 232 234 200
f 202 201 235 236
f 233 199 202 236
f 204 203 237 238
f 200 234 237 203
f 206 205 239 240
f 235 201 206 240
f 208 207 241 242
f 204 238 241 207
f 210 209 243 244
f 239 205 210 244
f 209 211 245 243
f 211 212 246 245
f 212 213 247 246
f 213 214 248 247
f 208 242 248 214
f 216 215 249 250
f 249 215 217 251
f 218 216 250 252
f 219 218 252 253
f 220 219 253 254
f 221 220 254 255
f 221 255 256 222
f 217 223 257 251
f 257 223 224 258
f 225 222 256 259
f 225 259 260 226
f 224 227 261 258
f 261 227 228 262
f 229 226 260 263
f 229 263 264 230
f 262 228 231 265
f 230 264 266 232
f 265 231 233 267
f 232 266 268 234
f 236 235 269 270
f 267 233 236 270
f 238 237 271 272
f 234 268 271 237
f 240 239 273 274
f 269 235 240 274
f 242 241 275 276
f 238 272 275 241
f 244 243 277 278
f 273 239 244 278
f 243 245 279 277
f 245 246 280 279
f 246 247 281 280
f 247 248 282 281
f 242 276 282 248
f 283 284 285 286
f 250 249 283 286
f 283 249 251 284
f 286 285 287 288
f 252 250 286 288
f 288 287 289 290
f 253 252 288 290
f 290 289 291 292
f 254 253 290 292
f 292 291 293 294
f 255 254 292 294
f 255 294 293 256
f 295 296 297 284
f 251 257 295 284
f 295 257 258 296
f 284 297 298 285
f 285 298 299 287
f 287 299 300 289
f 289 300 301 291
f 291 301 302 293
f 293 302 303 304
f 259 256 293 304
f 259 304 303 260
f 305 306 307 296
f 258 261 305 296
f 305 261 262 306
f 296 307 308 297
f 297 308 309 298
f 301 310 311 302
f 302 311 312 303
f 303 312 313 314
f 263 260 303 314
f 263 314 313 264
f 306 315 316 307
f 306 262 265 315
f 307 316 317 308
f 311 318 319 312
f 312 319 320 313
f 264 313 320 266
f 315 321 322 316
f 315 265 267 321
f 316 322 323 317
f 318 324 325 319
f 319 325 326 320
f 266 320 326 268
f 321 327 328 322
f 270 269 328 327
f 321 267 270 327
f 322 328 329 323
f 323 329 330 331
f 332 333 334 324
f 324 334 335 325
f 325 335 336 326
f 272 271 336 335
f 268 326 336 271
f 328 337 338 329
f 274 273 338 337
f 328 269 274 337
f 329 338 339 330
f 330 339 340 341
f 341 340 342 343
f 343 342 344 333
f 333 344 345 334
f 334 345 346 335
f 276 275 346 345
f 272 335 346 275
f 338 347 348 339
f 278 277 348 347
f 338 273 278 347
f 339 348 349 340
f 277 279 349 348
f 340 349 350 342
f 279 280 350 349
f 342 350 351 344
f 280 281 351 350
f 344 351 352 345
f 281 282 352 351
f 276 345 352 282
f 299 298 353 354
f 353 298 309 355
f 300 299 354 356
f 301 300 356 357
f 301 357 358 310
f 309 308 359 355
f 359 308 317 360
f 311 310 358 361
f 311 361 362 318
f 323 331 363 364
f 360 317 323 364
f 332 324 365 366
f 318 362 365 324
f 330 341 367 368
f 363 331 330 368
f 341 343 369 367
f 343 333 370 369
f 332 366 370 333
f 354 353 371 372
f 371 353 355 373
f 356 354 372 374
f 357 356 374 375
f 357 375 376 358
f 355 359 377 373
f 377 359 360 378
f 361 358 376 379
f 361 379 380 362
f 364 363 381 382
f 378 360 364 382
f 366 365 383 384
f 362 380 383 365
f 368 367 385 386
f 381 363 368 386
f 367 369 387 385
f 369 370 388 387
f 366 384 388 370
f 372 371 389 390
f 389 371 373 391
f 374 372 390 392
f 375 374 392 393
f 375 393 394 376
f 373 377 395 391
f 395 377 378 396
f 379 376 394 397
f 379 397 398 380
f 382 381 399 400
f 396 378 382 400
f 384 383 401 402
f 380 398 401 383
f 386 385 403 404
f 399 381 386 404
f 385 387 405 403
f 387 388 406 405
f 384 402 406 388
f 390 389 407 408
f 407 389 391 409
f 392 390 408 410
f 393 392 410 411
f 393 411 412 394
f 391 395 413 409
f 413 395 396 414
f 397 394 412 415
f 397 415 416 398
f 400 399 417 418
f 414 396 400 418
f 402 401 419 420
f 398 416 419 401
f 404 403 421 422
f 417 399 404 422
f 403 405 423 421
f 405 406 424 423
f 402 420 424 406
f 408 407 425 426
f 425 407 409 427
f 410 408 426 428
f 411 410 428 429
f 411 429 430 412
f 409 413 431 427
f 431 413 414 432
f 415 412 430 433
f 415 433 434 416
f 418 417 435 436
f 432 414 418 436
f 420 419 437 438
f 416 434 437 419
f 422 421 439 440
f 435 417 422 440
f 421 423 441 439
f 423 424 442 441
f 420 438 442 424
f 426 425 443 444
f 443 425 427 445
f 428 426 444 446
f 429 428 446 447
f 429 447 448 430
f 427 431 449 445
f 449 431 432 450
f 433 430 448 451
f 433 451 452 434
f 436 435 453 454
f 450 432 436 454
f 438 437 455 456
f 434 452 455 437
f 440 439 457 458
f 453 435 440 458
f 439 441 459 457
f 441 442 460 459
f 438 456 460 442
f 461 443 462 463
f 461 463 464 465
f 464 463 462 466
f 467 444 443 461
f 467 461 465 468
f 469 446 444 467
f 469 467 468 470
f 471 447 446 469
f 471 469 470 472
f 473 474 447 471
f 473 471 472 475
f 473 475 476 474
f 462 449 477 478
f 462 478 479 466
f 479 478 477 480
f 443 445 449 462
f 474 451 448 447
f 481 482 451 474
f 481 474 476 483
f 481 483 484 482
f 449 450 485 477
f 480 477 485 486
f 482 487 452 451
f 482 484 488 487
f 450 454 489 485
f 486 485 489 490
f 487 491 455 452
f 487 488 492 491
f 454 493 494 489
f 494 493 495 496
f 490 489 494 496
f 453 458 493 454
f 455 497 460 456
f 491 498 497 455
f 497 498 499 500
f 491 492 499 498
f 458 501 502 493
f 502 501 503 504
f 495 493 502 504
f 457 505 501 458
f 501 505 506 503
f 459 507 505 457
f 505 507 508 506
f 460 509 507 459
f 507 509 510 508
f 497 511 509 460
f 509 511 512 510
f 497 500 512 511
f 513 514 515 516
f 517 518 519 520
f 517 520 513 516
f 513 520 519 514
f 521 522 518 517
f 521 517 516 523
f 524 525 522 521
f 524 521 523 526
f 527 528 525 524
f 527 524 526 529
f 529 530 531 532
f 533 534 528 527
f 533 527 529 532
f 533 532 531 534
f 535 536 537 538
f 539 540 541 542
f 539 542 535 538
f 535 542 541 536
f 538 537 543 514
f 519 464 540 539
f 519 539 538 514
f 518 465 464 519
f 522 468 465 518
f 525 470 468 522
f 528 472 470 525
f 534 475 472 528
f 531 544 545 546
f 547 548 475 534
f 547 534 531 546
f 546 545 549 550
f 551 552 548 547
f 551 547 546 550
f 551 550 549 552
f 536 553 554 537
f 540 479 555 541
f 536 541 555 553
f 537 554 556 543
f 464 466 479 540
f 544 557 558 545
f 548 483 476 475
f 545 558 559 549
f 552 560 483 548
f 552 549 559 560
f 561 562 563 553
f 555 564 565 566
f 555 566 561 553
f 561 566 565 562
f 553 563 567 554
f 479 480 564 555
f 554 567 568 556
f 557 569 570 558
f 558 570 571 559
f 560 572 484 483
f 559 571 573 574
f 575 576 572 560
f 575 560 559 574
f 575 574 573 576
f 562 577 578 563
f 564 579 580 565
f 562 565 580 577
f 480 486 579 564
f 572 581 488 484
f 571 582 583 573
f 576 584 581 572
f 576 573 583 584
f 577 585 586 578
f 579 587 588 580
f 577 580 588 585
f 486 490 587 579
f 581 589 492 488
f 582 590 591 583
f 584 592 589 581
f 584 583 591 592
f 585 593 594 586
f 587 595 596 588
f 596 595 594 593
f 585 588 596 593
f 586 594 597 598
f 490 496 595 587
f 598 597 599 600
f 601 602 603 604
f 604 603 605 590
f 589 606 499 492
f 590 605 607 591
f 592 608 606 589
f 606 608 607 605
f 592 591 607 608
f 594 609 610 597
f 496 611 612 595
f 594 595 612 609
f 597 610 613 599
f 495 504 611 496
f 602 614 615 603
f 499 616 512 500
f 603 615 617 605
f 606 618 616 499
f 606 605 617 618
f 609 619 620 610
f 611 621 622 612
f 622 621 620 619
f 609 612 622 619
f 610 620 623 613
f 504 624 621 611
f 621 624 623 620
f 503 625 624 504
f 506 626 625 503
f 508 627 626 506
f 510 628 627 508
f 512 629 628 510
f 614 630 631 615
f 616 632 629 512
f 629 632 631 630
f 615 631 633 617
f 618 634 632 616
f 632 634 633 631
f 618 617 633 634
f 623 635 636 637
f 625 638 639 624
f 639 638 636 635
f 623 624 639 635
f 626 640 638 625
f 638 640 641 636
f 627 642 640 626
f 640 642 643 641
f 628 644 642 627
f 642 644 645 643
f 646 645 647 630
f 629 648 644 628
f 644 648 647 645
f 629 630 647 648
f 649 523 516 650
f 649 650 651 652
f 651 650 516 653
f 654 526 523 649
f 654 649 652 655
f 656 529 526 654
f 656 654 655 657
f 656 657 658 529
f 653 516 515 659
f 529 658 660 530
f 515 514 661 659
f 661 514 543 662
f 531 530 660 663
f 531 663 664 544
f 662 543 556 665
f 544 664 666 557
f 665 556 568 667
f 557 666 668 569
f 567 563 669 670
f 669 563 578 671
f 568 567 670 667
f 570 569 668 672
f 571 570 672 673
f 571 673 674 582
f 586 598 675 676
f 671 578 586 676
f 598 600 677 675
f 601 604 678 679
f 604 590 680 678
f 582 674 680 590
f 677 600 599 681
f 601 679 682 602
f 681 599 613 683
f 602 682 684 614
f 623 637 685 686
f 683 613 623 686
f 646 630 687 688
f 614 684 687 630
f 685 637 636 689
f 646 688 690 645
f 641 691 692 636
f 692 691 693 694
f 689 636 692 694
f 643 695 691 641
f 691 695 696 693
f 645 697 695 643
f 695 697 698 696
f 645 690 698 697
f 699 652 651 700
f 699 700 701 702
f 701 700 651 703
f 704 655 652 699
f 704 699 702 705
f 706 657 655 704
f 706 704 705 707
f 706 707 708 657
f 703 651 653 709
f 657 708 710 658
f 653 659 661 711
f 653 711 712 709
f 712 711 661 713
f 714 663 660 658
f 714 658 710 715
f 714 715 716 663
f 713 661 662 717
f 663 716 718 664
f 719 720 721 722
f 723 724 725 726
f 723 726 719 722
f 719 726 725 720
f 722 721 727 717
f 662 665 724 723
f 662 723 722 717
f 718 728 729 730
f 731 732 666 664
f 731 664 718 730
f 730 729 733 734
f 735 736 732 731
f 735 731 730 734
f 735 734 733 736
f 720 737 738 721
f 724 670 669 725
f 720 725 669 737
f 721 738 739 727
f 665 667 670 724
f 728 740 741 729
f 732 672 668 666
f 729 741 742 733
f 736 673 672 732
f 736 733 742 673
f 737 743 744 738
f 737 669 671 743
f 738 744 745 739
f 740 746 747 741
f 741 747 748 742
f 673 742 748 674
f 743 749 750 744
f 743 671 676 749
f 744 750 751 745
f 746 752 753 747
f 747 753 754 748
f 674 748 754 680
f 749 755 756 750
f 675 757 758 676
f 749 676 758 755
f 750 756 759 751
f 677 681 757 675
f 752 760 761 753
f 678 762 682 679
f 753 761 763 754
f 680 764 762 678
f 680 754 763 764
f 755 765 766 756
f 757 767 768 758
f 768 767 766 765
f 755 758 768 765
f 756 766 769 759
f 681 683 767 757
f 767 683 769 766
f 760 770 771 761
f 762 772 684 682
f 684 772 771 770
f 761 771 773 763
f 764 774 772 762
f 772 774 773 771
f 764 763 773 774
f 769 683 686 775
f 684 770 776 687
f 685 689 777 686
f 777 689 778 779
f 775 686 777 779
f 687 780 690 688
f 690 780 781 782
f 687 776 781 780
f 778 689 694 783
f 690 782 784 698
f 693 785 786 694
f 786 785 787 788
f 783 694 786 788
f 696 789 785 693
f 785 789 790 787
f 698 791 789 696
f 789 791 792 790
f 698 784 792 791
f 793 702 701 794
f 793 794 795 796
f 795 794 701 797
f 798 705 702 793
f 798 793 796 799
f 800 707 705 798
f 800 798 799 801
f 800 801 802 707
f 797 701 703 803
f 707 802 804 708
f 703 709 712 805
f 703 805 806 803
f 806 805 712 807
f 808 715 710 708
f 808 708 804 809
f 808 809 810 715
f 807 712 713 811
f 715 810 812 716
f 811 813 814 815
f 811 713 717 813
f 816 817 818 812
f 716 812 818 718
f 813 819 820 814
f 813 717 727 819
f 817 821 822 818
f 718 818 822 728
f 819 823 824 820
f 819 727 739 823
f 821 825 826 822
f 728 822 826 740
f 823 827 828 824
f 823 739 745 827
f 825 829 830 826
f 740 826 830 746
f 827 831 832 828
f 827 745 751 831
f 829 833 834 830
f 746 830 834 752
f 831 835 836 832
f 831 751 759 835
f 833 837 838 834
f 752 834 838 760
f 835 839 840 836
f 835 759 769 839
f 837 841 842 838
f 760 838 842 770
f 839 843 844 840
f 839 769 775 843
f 841 845 846 842
f 770 842 846 776
f 843 775 779 847
f 776 846 848 781
f 778 783 849 779
f 849 783 850 851
f 847 779 849 851
f 781 852 784 782
f 784 852 853 854
f 781 848 853 852
f 850 783 788 855
f 784 854 856 792
f 787 857 858 788
f 858 857 859 860
f 855 788 858 860
f 790 861 857 787
f 857 861 862 859
f 792 863 861 790
f 861 863 864 862
f 792 856 864 863
f 865 796 795 866
f 865 866 867 868
f 867 866 795 869
f 870 799 796 865
f 870 865 868 871
f 872 801 799 870
f 872 870 871 873
f 872 873 874 801
f 869 795 797 875
f 801 874 876 802
f 797 803 806 877
f 797 877 878 875
f 878 877 806 879
f 880 809 804 802
f 880 802 876 881
f 880 881 882 809
f 879 883 884 885
f 879 806 807 883
f 886 887 888 882
f 809 882 888 810
f 883 889 890 884
f 811 815 890 889
f 883 807 811 889
f 887 891 892 888
f 816 812 892 891
f 810 888 892 812
f 890 815 814 893
f 816 891 894 817
f 893 895 896 897
f 893 814 820 895
f 897 896 898 899
f 899 898 900 894
f 817 894 900 821
f 895 901 902 896
f 895 820 824 901
f 896 902 903 898
f 898 903 904 900
f 821 900 904 825
f 901 905 906 902
f 901 824 828 905
f 902 906 907 903
f 903 907 908 904
f 825 904 908 829
f 905 909 910 906
f 905 828 832 909
f 906 910 911 907
f 907 911 912 908
f 829 908 912 833
f 909 913 914 910
f 909 832 836 913
f 910 914 915 911
f 911 915 916 912
f 833 912 916 837
f 913 917 918 914
f 913 836 840 917
f 914 918 919 915
f 915 919 920 916
f 837 916 920 841
f 917 840 844 921
f 841 920 922 845
f 923 924 925 921
f 844 843 923 921
f 923 843 847 924
f 922 926 927 928
f 846 845 922 928
f 846 928 927 848
f 924 929 930 925
f 924 847 851 929
f 926 931 932 927
f 848 927 932 853
f 850 855 933 851
f 933 855 934 935
f 929 851 933 935
f 853 936 856 854
f 856 936 937 938
f 853 932 937 936
f 934 855 860 939
f 856 938 940 864
f 859 941 942 860
f 942 941 943 944
f 939 860 942 944
f 862 945 941 859
f 941 945 946 943
f 864 947 945 862
f 945 947 948 946
f 864 940 948 947
f 868 867 949 950
f 949 867 869 951
f 871 868 950 952
f 873 871 952 953
f 873 953 954 874
f 869 875 878 955
f 869 955 956 951
f 956 955 878 957
f 958 881 876 874
f 958 874 954 959
f 958 959 960 881
f 957 961 962 963
f 879 885 962 961
f 957 878 879 961
f 964 965 966 960
f 886 882 966 965
f 881 960 966 882
f 962 885 884 967
f 886 965 968 887
f 967 969 970 971
f 967 884 890 969
f 971 970 972 973
f 973 972 974 968
f 887 968 974 891
f 969 975 976 970
f 893 897 976 975
f 969 890 893 975
f 970 976 977 972
f 897 899 977 976
f 972 977 978 974
f 899 894 978 977
f 891 974 978 894
f 979 980 981 982
f 918 917 979 982
f 979 917 921 980
f 982 981 983 984
f 919 918 982 984
f 984 983 985 986
f 920 919 984 986
f 920 986 985 922
f 980 987 988 981
f 980 921 925 987
f 981 988 989 983
f 983 989 990 985
f 922 985 990 926
f 987 925 930 991
f 926 990 992 931
f 993 994 995 991
f 930 929 993 991
f 993 929 935 994
f 992 996 997 998
f 932 931 992 998
f 932 998 997 937
f 934 939 999 935
f 999 939 1000 1001
f 994 935 999 1001
f 937 1002 940 938
f 940 1002 1003 1004
f 937 997 1003 1002
f 944 943 1005 1006
f 1000 939 944 1006
f 943 946 1007 1005
f 946 948 1008 1007
f 940 1004 1008 948
f 950 949 1009 1010
f 1009 949 951 1011
f 952 950 1010 1012
f 953 952 1012 1013
f 953 1013 1014 954
f 1015 1016 1017 1011
f 957 963 1017 1016
f 951 956 1015 1011
f 1015 956 957 1016
f 1014 1018 1019 1020
f 964 960 1019 1018
f 959 954 1014 1020
f 959 1020 1019 960
f 1017 963 962 1021
f 964 1018 1022 965
f 1021 1023 1024 1025
f 967 971 1024 1023
f 1021 962 967 1023
f 1025 1024 1026 1027
f 971 973 1026 1024
f 1027 1026 1028 1022
f 973 968 1028 1026
f 965 1022 1028 968
f 1029 1030 1031 1032
f 988 987 1029 1032
f 1029 987 991 1030
f 1032 1031 1033 1034
f 989 988 1032 1034
f 1034 1033 1035 1036
f 990 989 1034 1036
f 990 1036 1035 992
f 1030 991 995 1037
f 992 1035 1038 996
f 1039 1040 1041 1037
f 1001 1000 1041 1040
f 995 994 1039 1037
f 1039 994 1001 1040
f 1038 1042 1043 1044
f 1004 1003 1043 1042
f 997 996 1038 1044
f 997 1044 1043 1003
f 1006 1005 1045 1046
f 1041 1000 1006 1046
f 1005 1007 1047 1045
f 1007 1008 1048 1047
f 1004 1042 1048 1008
f 1010 1009 1049 1050
f 1049 1009 1011 1051
f 1012 1010 1050 1052
f 1013 1012 1052 1053
f 1013 1053 1054 1014
f 1051 1011 1017 1055
f 1014 1054 1056 1018
f 1055 1057 1058 1059
f 1021 1025 1058 1057
f 1055 1017 1021 1057
f 1059 1058 1060 1061
f 1025 1027 1060 1058
f 1061 1060 1062 1056
f 1027 1022 1062 1060
f 1018 1056 1062 1022
f 1063 1064 1065 1066
f 1031 1030 1063 1066
f 1063 1030 1037 1064
f 1066 1065 1067 1068
f 1033 1031 1066 1068
f 1068 1067 1069 1070
f 1035 1033 1068 1070
f 1035 1070 1069 1038
f 1064 1037 1041 1071
f 1038 1069 1072 1042
f 1046 1045 1073 1074
f 1071 1041 1046 1074
f 1045 1047 1075 1073
f 1047 1048 1076 1075
f 1042 1072 1076 1048
f 1077 1078 1079 1080
f 1081 1050 1049 1082
f 1081 1082 1077 1080
f 1077 1082 1049 1078
f 1080 1079 1083 1084
f 1085 1052 1050 1081
f 1085 1081 1080 1084
f 1084 1083 1086 1087
f 1088 1053 1052 1085
f 1088 1085 1084 1087
f 1088 1087 1086 1053
f 1078 1049 1051 1089
f 1053 1086 1090 1054
f 1055 1059 1091 1092
f 1089 1051 1055 1092
f 1059 1061 1093 1091
f 1061 1056 1094 1093
f 1054 1090 1094 1056
f 1065 1064 1095 1096
f 1095 1064 1071 1097
f 1067 1065 1096 1098
f 1069 1067 1098 1099
f 1069 1099 1100 1072
f 1097 1071 1074 1101
f 1072 1100 1102 1076
f 1101 1103 1104 1105
f 1073 1106 1107 1074
f 1107 1106 1104 1103
f 1101 1074 1107 1103
f 1105 1104 1108 1109
f 1075 1110 1106 1073
f 1106 1110 1108 1104
f 1109 1108 1111 1102
f 1076 1112 1110 1075
f 1110 1112 1111 1108
f 1076 1102 1111 1112
f 1079 1078 1113 1114
f 1113 1078 1089 1115
f 1083 1079 1114 1116
f 1086 1083 1116 1117
f 1086 1117 1118 1090
f 1115 1119 1120 1121
f 1092 1091 1120 1119
f 1115 1089 1092 1119
f 1121 1120 1122 1123
f 1091 1093 1122 1120
f 1123 1122 1124 1118
f 1093 1094 1124 1122
f 1090 1118 1124 1094
f 1125 1126 1127 1128
f 1096 1095 1125 1128
f 1125 1095 1097 1126
f 1128 1127 1129 1130
f 1098 1096 1128 1130
f 1130 1129 1131 1132
f 1099 1098 1130 1132
f 1099 1132 1131 1100
f 1101 1105 1133 1134
f 1126 1097 1101 1134
f 1105 1109 1135 1133
f 1109 1102 1136 1135
f 1100 1131 1136 1102
f 1115 1121 1137 1138
f 1114 1113 1139 1140
f 1139 1113 1115 1138
f 1121 1123 1141 1137
f 1116 1114 1140 1142
f 1123 1118 1143 1141
f 1117 1116 1142 1144
f 1117 1144 1143 1118
f 1134 1133 1145 1146
f 1127 1126 1147 1148
f 1147 1126 1134 1146
f 1133 1135 1149 1145
f 1129 1127 1148 1150
f 1135 1136 1151 1149
f 1131 1129 1150 1152
f 1131 1152 1151 1136
f 1138 1137 1153 1154
f 1140 1139 1155 1156
f 1155 1139 1138 1154
f 1137 1141 1157 1153
f 1142 1140 1156 1158
f 1141 1143 1159 1157
f 1144 1142 1158 1160
f 1144 1160 1159 1143
f 1146 1145 1161 1162
f 1148 1147 1163 1164
f 1163 1147 1146 1162
f 1145 1149 1165 1161
f 1150 1148 1164 1166
f 1149 1151 1167 1165
f 1152 1150 1166 1168
f 1152 1168 1167 1151
f 1169 1170 1171 1172
f 1154 1153 1171 1170
f 1156 1155 1169 1172
f 1169 1155 1154 1170
f 1172 1171 1173 1174
f 1153 1157 1173 1171
f 1158 1156 1172 1174
f 1174 1173 1175 1176
f 1157 1159 1175 1173
f 1160 1158 1174 1176
f 1160 1176 1175 1159
f 1177 1178 1179 1180
f 1162 1161 1179 1178
f 1164 1163 1177 1180
f 1177 1163 1162 1178
f 1180 1179 1181 1182
f 1161 1165 1181 1179
f 1166 1164 1180 1182
f 1182 1181 1183 1184
f 1165 1167 1183 1181
f 1168 1166 1182 1184
f 1168 1184 1183 1167
