# D-moon — lifted from a 2D silhouette by aide.lift
o D-moon
v -15.500 -8.000 -2.500
v -15.500 -7.000 -2.500
v -15.500 -7.000 -3.500
v -15.500 -8.000 -3.500
v -14.500 -8.000 -3.500
v -14.500 -8.000 -2.500
v -14.500 -7.000 -3.500
v -15.500 -8.000 -1.500
v -15.500 -7.000 -1.500
v -14.500 -8.000 -1.500
v -15.500 -8.000 -0.500
v -15.500 -7.000 -0.500
v -14.500 -8.000 -0.500
v -15.500 -8.000 0.500
v -15.500 -7.000 0.500
v -14.500 -8.000 0.500
v -15.500 -8.000 1.500
v -15.500 -7.000 1.500
v -14.500 -8.000 1.500
v -15.500 -8.000 2.500
v -15.500 -7.000 2.500
v -14.500 -8.000 2.500
v -15.500 -8.000 3.500
v -15.500 -7.000 3.500
v -14.500 -8.000 3.500
v -14.500 -7.000 3.500
v -15.500 -7.000 -4.500
v -15.500 -6.000 -4.500
v -15.500 -6.000 -5.500
v -15.500 -7.000 -5.500
v -14.500 -7.000 -5.500
v -14.500 -7.000 -4.500
v -14.500 -6.000 -5.500
v -15.500 -6.000 -3.500
v -15.500 -6.000 -2.500
v -15.500 -6.000 -1.500
v -15.500 -6.000 -0.500
v -15.500 -6.000 0.500
v -15.500 -6.000 1.500
v -15.500 -6.000 2.500
v -15.500 -6.000 3.500
v -15.500 -7.000 4.500
v -15.500 -6.000 4.500
v -14.500 -7.000 4.500
v -15.500 -7.000 5.500
v -15.500 -6.000 5.500
v -14.500 -7.000 5.500
v -14.500 -6.000 5.500
v -15.500 -5.000 -5.500
v -15.500 -5.000 -6.500
v -15.500 -6.000 -6.500
v -14.500 -6.000 -6.500
v -14.500 -5.000 -6.500
v -15.500 -5.000 -4.500
v -15.500 -5.000 -3.500
v -15.500 -5.000 -2.500
v -15.500 -5.000 -1.500
v -15.500 -5.000 -0.500
v -15.500 -5.000 0.500
v -15.500 -5.000 1.500
v -15.500 -5.000 2.500
v -15.500 -5.000 3.500
v -15.500 -5.000 4.500
v -15.500 -5.000 5.500
v -15.500 -6.000 6.500
v -15.500 -5.000 6.500
v -14.500 -6.000 6.500
v -14.500 -5.000 6.500
v -15.500 -4.000 -6.500
v -15.500 -4.000 -7.500
v -15.500 -5.000 -7.500
v -14.500 -5.000 -7.500
v -14.500 -4.000 -7.500
v -15.500 -4.000 -5.500
v -15.500 -4.000 -4.500
v -15.500 -4.000 -3.500
v -15.500 -4.000 -2.500
v -15.500 -4.000 -1.500
v -15.500 -4.000 -0.500
v -15.500 -4.000 0.500
v -15.500 -4.000 1.500
v -15.500 -4.000 2.500
v -15.500 -4.000 3.500
v -15.500 -4.000 4.500
v -15.500 -4.000 5.500
v -15.500 -4.000 6.500
v -15.500 -5.000 7.500
v -15.500 -4.000 7.500
v -14.500 -5.000 7.500
v -14.500 -4.000 7.500
v -15.500 -3.000 -6.500
v -15.500 -3.000 -7.500
v -14.500 -3.000 -7.500
v -15.500 -3.000 -5.500
v -15.500 -3.000 -4.500
v -15.500 -3.000 -3.500
v -15.500 -3.000 -2.500
v -15.500 -3.000 -1.500
v -15.500 -3.000 -0.500
v -15.500 -3.000 0.500
v -15.500 -3.000 1.500
v -15.500 -3.000 2.500
v -15.500 -3.000 3.500
v -15.500 -3.000 4.500
v -15.500 -3.000 5.500
v -15.500 -3.000 6.500
v -15.500 -3.000 7.500
v -14.500 -3.000 7.500
v -15.500 -2.000 -7.500
v -15.500 -2.000 -8.500
v -15.500 -3.000 -8.500
v -14.500 -3.000 -8.500
v -14.500 -2.000 -8.500
v -15.500 -2.000 -6.500
v -15.500 -2.000 -5.500
v -15.500 -2.000 -4.500
v -15.500 -2.000 -3.500
v -15.500 -2.000 -2.500
v -15.500 -2.000 -1.500
v -15.500 -2.000 -0.500
v -15.500 -2.000 0.500
v -15.500 -2.000 1.500
v -15.500 -2.000 2.500
v -15.500 -2.000 3.500
v -15.500 -2.000 4.500
v -15.500 -2.000 5.500
v -15.500 -2.000 6.500
v -15.500 -2.000 7.500
v -15.500 -3.000 8.500
v -15.500 -2.000 8.500
v -14.500 -3.000 8.500
v -14.500 -2.000 8.500
v -15.500 -1.000 -7.500
v -15.500 -1.000 -8.500
v -14.500 -1.000 -8.500
v -15.500 -1.000 -6.500
v -15.500 -1.000 -5.500
v -15.500 -1.000 -4.500
v -15.500 -1.000 -3.500
v -15.500 -1.000 -2.500
v -15.500 -1.000 -1.500
v -15.500 -1.000 -0.500
v -15.500 -1.000 0.500
v -15.500 -1.000 1.500
v -15.500 -1.000 2.500
v -15.500 -1.000 3.500
v -15.500 -1.000 4.500
v -15.500 -1.000 5.500
v -15.500 -1.000 6.500
v -15.500 -1.000 7.500
v -15.500 -1.000 8.500
v -14.500 -1.000 8.500
v -15.500 0.000 -7.500
v -15.500 0.000 -8.500
v -14.500 0.000 -8.500
v -15.500 0.000 -6.500
v -15.500 0.000 -5.500
v -15.500 0.000 -4.500
v -15.500 0.000 -3.500
v -15.500 0.000 -2.500
v -15.500 0.000 -1.500
v -15.500 0.000 -0.500
v -15.500 0.000 0.500
v -15.500 0.000 1.500
v -15.500 0.000 2.500
v -15.500 0.000 3.500
v -15.500 0.000 4.500
v -15.500 0.000 5.500
v -15.500 0.000 6.500
v -15.500 0.000 7.500
v -15.500 0.000 8.500
v -14.500 0.000 8.500
v -15.500 1.000 -7.500
v -15.500 1.000 -8.500
v -14.500 1.000 -8.500
v -15.500 1.000 -6.500
v -15.500 1.000 -5.500
v -15.500 1.000 -4.500
v -15.500 1.000 -3.500
v -15.500 1.000 -2.500
v -15.500 1.000 -1.500
v -15.500 1.000 -0.500
v -15.500 1.000 0.500
v -15.500 1.000 1.500
v -15.500 1.000 2.500
v -15.500 1.000 3.500
v -15.500 1.000 4.500
v -15.500 1.000 5.500
v -15.500 1.000 6.500
v -15.500 1.000 7.500
v -15.500 1.000 8.500
v -14.500 1.000 8.500
v -15.500 2.000 -7.500
v -15.500 2.000 -8.500
v -14.500 2.000 -8.500
v -15.500 2.000 -6.500
v -15.500 2.000 -5.500
v -15.500 2.000 -4.500
v -15.500 2.000 -3.500
v -15.500 2.000 -2.500
v -15.500 2.000 -1.500
v -15.500 2.000 -0.500
v -15.500 2.000 0.500
v -15.500 2.000 1.500
v -15.500 2.000 2.500
v -15.500 2.000 3.500
v -15.500 2.000 4.500
v -15.500 2.000 5.500
v -15.500 2.000 6.500
v -15.500 2.000 7.500
v -15.500 2.000 8.500
v -14.500 2.000 8.500
v -15.500 3.000 -7.500
v -15.500 3.000 -8.500
v -14.500 3.000 -7.500
v -14.500 3.000 -8.500
v -15.500 3.000 -6.500
v -15.500 3.000 -5.500
v -15.500 3.000 -4.500
v -15.500 3.000 -3.500
v -15.500 3.000 -2.500
v -15.500 3.000 -1.500
v -15.500 3.000 -0.500
v -15.500 3.000 0.500
v -15.500 3.000 1.500
v -15.500 3.000 2.500
v -15.500 3.000 3.500
v -15.500 3.000 4.500
v -15.500 3.000 5.500
v -15.500 3.000 6.500
v -15.500 3.000 7.500
v -15.500 3.000 8.500
v -14.500 3.000 8.500
v -14.500 3.000 7.500
v -15.500 4.000 -6.500
v -15.500 4.000 -7.500
v -14.500 4.000 -7.500
v -15.500 4.000 -5.500
v -15.500 4.000 -4.500
v -15.500 4.000 -3.500
v -15.500 4.000 -2.500
v -15.500 4.000 -1.500
v -15.500 4.000 -0.500
v -15.500 4.000 0.500
v -15.500 4.000 1.500
v -15.500 4.000 2.500
v -15.500 4.000 3.500
v -15.500 4.000 4.500
v -15.500 4.000 5.500
v -15.500 4.000 6.500
v -15.500 4.000 7.500
v -14.500 4.000 7.500
v -15.500 5.000 -6.500
v -15.500 5.000 -7.500
v -14.500 5.000 -6.500
v -14.500 5.000 -7.500
v -15.500 5.000 -5.500
v -15.500 5.000 -4.500
v -15.500 5.000 -3.500
v -15.500 5.000 -2.500
v -15.500 5.000 -1.500
v -15.500 5.000 -0.500
v -15.500 5.000 0.500
v -15.500 5.000 1.500
v -15.500 5.000 2.500
v -15.500 5.000 3.500
v -15.500 5.000 4.500
v -15.500 5.000 5.500
v -15.500 5.000 6.500
v -15.500 5.000 7.500
v -14.500 5.000 7.500
v -14.500 5.000 6.500
v -15.500 6.000 -5.500
v -15.500 6.000 -6.500
v -14.500 6.000 -5.500
v -14.500 6.000 -6.500
v -15.500 6.000 -4.500
v -15.500 6.000 -3.500
v -15.500 6.000 -2.500
v -15.500 6.000 -1.500
v -15.500 6.000 -0.500
v -15.500 6.000 0.500
v -15.500 6.000 1.500
v -15.500 6.000 2.500
v -15.500 6.000 3.500
v -15.500 6.000 4.500
v -15.500 6.000 5.500
v -15.500 6.000 6.500
v -14.500 6.000 6.500
v -14.500 6.000 5.500
v -15.500 7.000 -4.500
v -15.500 7.000 -5.500
v -14.500 7.000 -4.500
v -14.500 7.000 -5.500
v -15.500 7.000 -3.500
v -14.500 7.000 -3.500
v -15.500 7.000 -2.500
v -15.500 7.000 -1.500
v -15.500 7.000 -0.500
v -15.500 7.000 0.500
v -15.500 7.000 1.500
v -15.500 7.000 2.500
v -15.500 7.000 3.500
v -15.500 7.000 4.500
v -14.500 7.000 4.500
v -14.500 7.000 3.500
v -15.500 7.000 5.500
v -14.500 7.000 5.500
v -15.500 8.000 -2.500
v -15.500 8.000 -3.500
v -14.500 8.000 -2.500
v -14.500 8.000 -3.500
v -15.500 8.000 -1.500
v -14.500 8.000 -1.500
v -15.500 8.000 -0.500
v -14.500 8.000 -0.500
v -15.500 8.000 0.500
v -14.500 8.000 0.500
v -15.500 8.000 1.500
v -14.500 8.000 1.500
v -15.500 8.000 2.500
v -14.500 8.000 2.500
v -15.500 8.000 3.500
v -14.500 8.000 3.500
v -13.500 -9.000 -3.500
v -13.500 -8.000 -3.500
v -13.500 -8.000 -2.500
v -13.500 -9.000 -2.500
v -14.500 -9.000 -2.500
v -14.500 -9.000 -3.500
v -13.500 -8.000 -1.500
v -13.500 -9.000 -1.500
v -14.500 -9.000 -1.500
v -13.500 -8.000 -0.500
v -13.500 -9.000 -0.500
v -14.500 -9.000 -0.500
v -13.500 -8.000 0.500
v -13.500 -9.000 0.500
v -14.500 -9.000 0.500
v -13.500 -8.000 1.500
v -13.500 -9.000 1.500
v -14.500 -9.000 1.500
v -13.500 -8.000 2.500
v -13.500 -9.000 2.500
v -14.500 -9.000 2.500
v -13.500 -8.000 3.500
v -13.500 -9.000 3.500
v -14.500 -9.000 3.500
v -13.500 -8.000 -5.500
v -13.500 -7.000 -5.500
v -13.500 -7.000 -4.500
v -13.500 -8.000 -4.500
v -14.500 -8.000 -4.500
v -14.500 -8.000 -5.500
v -13.500 -7.000 -3.500
v -13.500 -7.000 3.500
v -13.500 -7.000 4.500
v -13.500 -8.000 4.500
v -14.500 -8.000 4.500
v -13.500 -7.000 5.500
v -13.500 -8.000 5.500
v -14.500 -8.000 5.500
v -13.500 -7.000 -6.500
v -13.500 -6.000 -6.500
v -13.500 -6.000 -5.500
v -14.500 -7.000 -6.500
v -13.500 -6.000 5.500
v -13.500 -6.000 6.500
v -13.500 -7.000 6.500
v -14.500 -7.000 6.500
v -13.500 -6.000 -7.500
v -13.500 -5.000 -7.500
v -13.500 -5.000 -6.500
v -14.500 -6.000 -7.500
v -13.500 -5.000 6.500
v -13.500 -5.000 7.500
v -13.500 -6.000 7.500
v -14.500 -6.000 7.500
v -13.500 -5.000 -8.500
v -13.500 -4.000 -8.500
v -13.500 -4.000 -7.500
v -14.500 -4.000 -8.500
v -14.500 -5.000 -8.500
v -13.500 -4.000 7.500
v -13.500 -4.000 8.500
v -13.500 -5.000 8.500
v -14.500 -5.000 8.500
v -14.500 -4.000 8.500
v -13.500 -3.000 -8.500
v -13.500 -3.000 -7.500
v -13.500 -3.000 7.500
v -13.500 -3.000 8.500
v -13.500 -3.000 -9.500
v -13.500 -2.000 -9.500
v -13.500 -2.000 -8.500
v -14.500 -2.000 -9.500
v -14.500 -3.000 -9.500
v -13.500 -2.000 8.500
v -13.500 -2.000 9.500
v -13.500 -3.000 9.500
v -14.500 -3.000 9.500
v -14.500 -2.000 9.500
v -13.500 -1.000 -9.500
v -13.500 -1.000 -8.500
v -14.500 -1.000 -9.500
v -13.500 -1.000 8.500
v -13.500 -1.000 9.500
v -14.500 -1.000 9.500
v -13.500 0.000 -9.500
v -13.500 0.000 -8.500
v -14.500 0.000 -9.500
v -13.500 0.000 8.500
v -13.500 0.000 9.500
v -14.500 0.000 9.500
v -13.500 1.000 -9.500
v -13.500 1.000 -8.500
v -14.500 1.000 -9.500
v -13.500 1.000 8.500
v -13.500 1.000 9.500
v -14.500 1.000 9.500
v -13.500 2.000 -9.500
v -13.500 2.000 -8.500
v -14.500 2.000 -9.500
v -13.500 2.000 8.500
v -13.500 2.000 9.500
v -14.500 2.000 9.500
v -13.500 3.000 -9.500
v -13.500 3.000 -8.500
v -14.500 3.000 -9.500
v -13.500 3.000 8.500
v -13.500 3.000 9.500
v -14.500 3.000 9.500
v -13.500 4.000 -8.500
v -13.500 4.000 -7.500
v -13.500 3.000 -7.500
v -14.500 4.000 -8.500
v -13.500 3.000 7.500
v -13.500 4.000 7.500
v -13.500 4.000 8.500
v -14.500 4.000 8.500
v -13.500 5.000 -8.500
v -13.500 5.000 -7.500
v -14.500 5.000 -8.500
v -13.500 5.000 7.500
v -13.500 5.000 8.500
v -14.500 5.000 8.500
v -13.500 6.000 -7.500
v -13.500 6.000 -6.500
v -13.500 5.000 -6.500
v -14.500 6.000 -7.500
v -13.500 5.000 6.500
v -13.500 6.000 6.500
v -13.500 6.000 7.500
v -14.500 6.000 7.500
v -13.500 7.000 -6.500
v -13.500 7.000 -5.500
v -13.500 6.000 -5.500
v -14.500 7.000 -6.500
v -13.500 6.000 5.500
v -13.500 7.000 5.500
v -13.500 7.000 6.500
v -14.500 7.000 6.500
v -13.500 8.000 -5.500
v -13.500 8.000 -4.500
v -13.500 7.000 -4.500
v -14.500 8.000 -4.500
v -14.500 8.000 -5.500
v -13.500 8.000 -3.500
v -13.500 7.000 -3.500
v -13.500 7.000 3.500
v -13.500 8.000 3.500
v -13.500 8.000 4.500
v -13.500 7.000 4.500
v -14.500 8.000 4.500
v -13.500 8.000 5.500
v -14.500 8.000 5.500
v -13.500 9.000 -3.500
v -13.500 9.000 -2.500
v -13.500 8.000 -2.500
v -14.500 9.000 -2.500
v -14.500 9.000 -3.500
v -13.500 9.000 -1.500
v -13.500 8.000 -1.500
v -14.500 9.000 -1.500
v -13.500 9.000 -0.500
v -13.500 8.000 -0.500
v -14.500 9.000 -0.500
v -13.500 9.000 0.500
v -13.500 8.000 0.500
v -14.500 9.000 0.500
v -13.500 9.000 1.500
v -13.500 8.000 1.500
v -14.500 9.000 1.500
v -13.500 9.000 2.500
v -13.500 8.000 2.500
v -14.500 9.000 2.500
v -13.500 9.000 3.500
v -14.500 9.000 3.500
v -12.500 -8.000 -3.500
v -12.500 -7.000 -3.500
v -12.500 -7.000 -2.500
v -12.500 -8.000 -2.500
v -12.500 -7.000 -1.500
v -12.500 -8.000 -1.500
v -12.500 -7.000 -0.500
v -12.500 -8.000 -0.500
v -12.500 -7.000 0.500
v -12.500 -8.000 0.500
v -12.500 -7.000 1.500
v -12.500 -8.000 1.500
v -12.500 -7.000 2.500
v -12.500 -8.000 2.500
v -12.500 -7.000 3.500
v -12.500 -8.000 3.500
v -12.500 -7.000 -5.500
v -12.500 -6.000 -5.500
v -12.500 -6.000 -4.500
v -12.500 -7.000 -4.500
v -12.500 -6.000 -3.500
v -12.500 -6.000 3.500
v -12.500 -6.000 4.500
v -12.500 -7.000 4.500
v -12.500 -6.000 5.500
v -12.500 -7.000 5.500
v -12.500 -6.000 -6.500
v -12.500 -5.000 -6.500
v -12.500 -5.000 -5.500
v -12.500 -5.000 -4.500
v -12.500 -5.000 4.500
v -12.500 -5.000 5.500
v -12.500 -5.000 6.500
v -12.500 -6.000 6.500
v -12.500 -5.000 -7.500
v -12.500 -4.000 -7.500
v -12.500 -4.000 -6.500
v -12.500 -4.000 -5.500
v -12.500 -4.000 5.500
v -12.500 -4.000 6.500
v -12.500 -4.000 7.500
v -12.500 -5.000 7.500
v -12.500 -3.000 -7.500
v -12.500 -3.000 -6.500
v -12.500 -3.000 6.500
v -12.500 -3.000 7.500
v -12.500 -3.000 -8.500
v -12.500 -2.000 -8.500
v -12.500 -2.000 -7.500
v -12.500 -2.000 7.500
v -12.500 -2.000 8.500
v -12.500 -3.000 8.500
v -12.500 -1.000 -8.500
v -12.500 -1.000 -7.500
v -12.500 -1.000 7.500
v -12.500 -1.000 8.500
v -12.500 0.000 -8.500
v -12.500 0.000 -7.500
v -12.500 0.000 7.500
v -12.500 0.000 8.500
v -12.500 1.000 -8.500
v -12.500 1.000 -7.500
v -12.500 1.000 7.500
v -12.500 1.000 8.500
v -12.500 2.000 -8.500
v -12.500 2.000 -7.500
v -12.500 2.000 7.500
v -12.500 2.000 8.500
v -12.500 3.000 -8.500
v -12.500 3.000 -7.500
v -12.500 3.000 7.500
v -12.500 3.000 8.500
v -12.500 4.000 -7.500
v -12.500 4.000 -6.500
v -12.500 3.000 -6.500
v -12.500 3.000 6.500
v -12.500 4.000 6.500
v -12.500 4.000 7.500
v -12.500 5.000 -7.500
v -12.500 5.000 -6.500
v -12.500 5.000 -5.500
v -12.500 4.000 -5.500
v -12.500 4.000 5.500
v -12.500 5.000 5.500
v -12.500 5.000 6.500
v -12.500 5.000 7.500
v -12.500 6.000 -6.500
v -12.500 6.000 -5.500
v -12.500 6.000 -4.500
v -12.500 5.000 -4.500
v -12.500 5.000 4.500
v -12.500 6.000 4.500
v -12.500 6.000 5.500
v -12.500 6.000 6.500
v -12.500 7.000 -5.500
v -12.500 7.000 -4.500
v -12.500 7.000 -3.500
v -12.500 6.000 -3.500
v -12.500 6.000 3.500
v -12.500 7.000 3.500
v -12.500 7.000 4.500
v -12.500 7.000 5.500
v -12.500 8.000 -3.500
v -12.500 8.000 -2.500
v -12.500 7.000 -2.500
v -12.500 8.000 -1.500
v -12.500 7.000 -1.500
v -12.500 8.000 -0.500
v -12.500 7.000 -0.500
v -12.500 8.000 0.500
v -12.500 7.000 0.500
v -12.500 8.000 1.500
v -12.500 7.000 1.500
v -12.500 8.000 2.500
v -12.500 7.000 2.500
v -12.500 8.000 3.500
v -11.500 -7.000 -3.500
v -11.500 -7.000 -2.500
v -11.500 -6.000 -3.500
v -11.500 -7.000 -1.500
v -11.500 -7.000 -0.500
v -11.500 -7.000 0.500
v -11.500 -7.000 1.500
v -11.500 -7.000 2.500
v -11.500 -7.000 3.500
v -11.500 -6.000 3.500
v -11.500 -6.000 -4.500
v -11.500 -5.000 -4.500
v -11.500 -6.000 4.500
v -11.500 -5.000 4.500
v -11.500 -5.000 -5.500
v -11.500 -4.000 -5.500
v -11.500 -5.000 5.500
v -11.500 -4.000 5.500
v -11.500 -4.000 -6.500
v -11.500 -3.000 -6.500
v -11.500 -4.000 6.500
v -11.500 -3.000 6.500
v -11.500 -3.000 -7.500
v -11.500 -2.000 -7.500
v -11.500 -3.000 7.500
v -11.500 -2.000 7.500
v -11.500 -1.000 -7.500
v -11.500 -1.000 7.500
v -11.500 0.000 -7.500
v -11.500 0.000 7.500
v -11.500 1.000 -7.500
v -11.500 1.000 7.500
v -11.500 2.000 -7.500
v -11.500 2.000 7.500
v -11.500 3.000 -6.500
v -11.500 3.000 -7.500
v -11.500 3.000 7.500
v -11.500 3.000 6.500
v -11.500 4.000 -5.500
v -11.500 4.000 -6.500
v -11.500 4.000 6.500
v -11.500 4.000 5.500
v -11.500 5.000 -4.500
v -11.500 5.000 -5.500
v -11.500 5.000 5.500
v -11.500 5.000 4.500
v -11.500 6.000 -3.500
v -11.500 6.000 -4.500
v -11.500 6.000 4.500
v -11.500 6.000 3.500
v -11.500 7.000 -2.500
v -11.500 7.000 -3.500
v -11.500 7.000 -1.500
v -11.500 7.000 -0.500
v -11.500 7.000 0.500
v -11.500 7.000 1.500
v -11.500 7.000 2.500
v -11.500 7.000 3.500
v -11.500 -8.000 -2.500
v -11.500 -8.000 -3.500
v -10.500 -8.000 -3.500
v -10.500 -8.000 -2.500
v -10.500 -7.000 -3.500
v -11.500 -8.000 -1.500
v -10.500 -8.000 -1.500
v -11.500 -8.000 -0.500
v -10.500 -8.000 -0.500
v -11.500 -8.000 0.500
v -10.500 -8.000 0.500
v -11.500 -8.000 1.500
v -10.500 -8.000 1.500
v -11.500 -8.000 2.500
v -10.500 -8.000 2.500
v -11.500 -8.000 3.500
v -10.500 -8.000 3.500
v -10.500 -7.000 3.500
v -11.500 -7.000 -4.500
v -11.500 -6.000 -5.500
v -11.500 -7.000 -5.500
v -10.500 -7.000 -5.500
v -10.500 -7.000 -4.500
v -10.500 -6.000 -5.500
v -11.500 -7.000 4.500
v -10.500 -7.000 4.500
v -11.500 -7.000 5.500
v -11.500 -6.000 5.500
v -10.500 -7.000 5.500
v -10.500 -6.000 5.500
v -11.500 -5.000 -6.500
v -11.500 -6.000 -6.500
v -10.500 -6.000 -6.500
v -10.500 -5.000 -6.500
v -11.500 -6.000 6.500
v -11.500 -5.000 6.500
v -10.500 -6.000 6.500
v -10.500 -5.000 6.500
v -11.500 -4.000 -7.500
v -11.500 -5.000 -7.500
v -10.500 -5.000 -7.500
v -10.500 -4.000 -7.500
v -11.500 -5.000 7.500
v -11.500 -4.000 7.500
v -10.500 -5.000 7.500
v -10.500 -4.000 7.500
v -10.500 -3.000 -7.500
v -10.500 -3.000 7.500
v -11.500 -2.000 -8.500
v -11.500 -3.000 -8.500
v -10.500 -3.000 -8.500
v -10.500 -2.000 -8.500
v -11.500 -3.000 8.500
v -11.500 -2.000 8.500
v -10.500 -3.000 8.500
v -10.500 -2.000 8.500
v -11.500 -1.000 -8.500
v -10.500 -1.000 -8.500
v -11.500 -1.000 8.500
v -10.500 -1.000 8.500
v -11.500 0.000 -8.500
v -10.500 0.000 -8.500
v -11.500 0.000 8.500
v -10.500 0.000 8.500
v -11.500 1.000 -8.500
v -10.500 1.000 -8.500
v -11.500 1.000 8.500
v -10.500 1.000 8.500
v -11.500 2.000 -8.500
v -10.500 2.000 -8.500
v -11.500 2.000 8.500
v -10.500 2.000 8.500
v -11.500 3.000 -8.500
v -10.500 3.000 -7.500
v -10.500 3.000 -8.500
v -11.500 3.000 8.500
v -10.500 3.000 8.500
v -10.500 3.000 7.500
v -11.500 4.000 -7.500
v -10.500 4.000 -7.500
v -11.500 4.000 7.500
v -10.500 4.000 7.500
v -11.500 5.000 -6.500
v -11.500 5.000 -7.500
v -10.500 5.000 -6.500
v -10.500 5.000 -7.500
v -11.500 5.000 6.500
v -11.500 5.000 7.500
v -10.500 5.000 7.500
v -10.500 5.000 6.500
v -11.500 6.000 -5.500
v -11.500 6.000 -6.500
v -10.500 6.000 -5.500
v -10.500 6.000 -6.500
v -11.500 6.000 5.500
v -11.500 6.000 6.500
v -10.500 6.000 6.500
v -10.500 6.000 5.500
v -11.500 7.000 -4.500
v -11.500 7.000 -5.500
v -10.500 7.000 -4.500
v -10.500 7.000 -5.500
v -10.500 7.000 -3.500
v -11.500 7.000 4.500
v -10.500 7.000 4.500
v -10.500 7.000 3.500
v -11.500 7.000 5.500
v -10.500 7.000 5.500
v -11.500 8.000 -2.500
v -11.500 8.000 -3.500
v -10.500 8.000 -2.500
v -10.500 8.000 -3.500
v -11.500 8.000 -1.500
v -10.500 8.000 -1.500
v -11.500 8.000 -0.500
v -10.500 8.000 -0.500
v -11.500 8.000 0.500
v -10.500 8.000 0.500
v -11.500 8.000 1.500
v -10.500 8.000 1.500
v -11.500 8.000 2.500
v -10.500 8.000 2.500
v -11.500 8.000 3.500
v -10.500 8.000 3.500
v -9.500 -8.000 -3.500
v -9.500 -8.000 -2.500
v -9.500 -7.000 -3.500
v -9.500 -8.000 -1.500
v -9.500 -8.000 -0.500
v -9.500 -8.000 0.500
v -9.500 -8.000 1.500
v -9.500 -8.000 2.500
v -9.500 -8.000 3.500
v -9.500 -7.000 3.500
v -9.500 -7.000 -5.500
v -9.500 -7.000 -4.500
v -9.500 -6.000 -5.500
v -9.500 -7.000 4.500
v -9.500 -7.000 5.500
v -9.500 -6.000 5.500
v -9.500 -6.000 -6.500
v -9.500 -5.000 -6.500
v -9.500 -6.000 6.500
v -9.500 -5.000 6.500
v -9.500 -5.000 -7.500
v -9.500 -4.000 -7.500
v -9.500 -5.000 7.500
v -9.500 -4.000 7.500
v -9.500 -3.000 -7.500
v -9.500 -3.000 7.500
v -9.500 -3.000 -8.500
v -9.500 -2.000 -8.500
v -9.500 -3.000 8.500
v -9.500 -2.000 8.500
v -9.500 -1.000 -8.500
v -9.500 -1.000 8.500
v -9.500 0.000 -8.500
v -9.500 0.000 8.500
v -9.500 1.000 -8.500
v -9.500 1.000 8.500
v -9.500 2.000 -8.500
v -9.500 2.000 8.500
v -9.500 3.000 -7.500
v -9.500 3.000 -8.500
v -9.500 3.000 8.500
v -9.500 3.000 7.500
v -9.500 4.000 -7.500
v -9.500 4.000 7.500
v -9.500 5.000 -6.500
v -9.500 5.000 -7.500
v -9.500 5.000 7.500
v -9.500 5.000 6.500
v -9.500 6.000 -5.500
v -9.500 6.000 -6.500
v -9.500 6.000 6.500
v -9.500 6.000 5.500
v -9.500 7.000 -4.500
v -9.500 7.000 -5.500
v -9.500 7.000 -3.500
v -9.500 7.000 4.500
v -9.500 7.000 3.500
v -9.500 7.000 5.500
v -9.500 8.000 -2.500
v -9.500 8.000 -3.500
v -9.500 8.000 -1.500
v -9.500 8.000 -0.500
v -9.500 8.000 0.500
v -9.500 8.000 1.500
v -9.500 8.000 2.500
v -9.500 8.000 3.500
v -8.500 -9.000 -3.500
v -8.500 -8.000 -3.500
v -8.500 -8.000 -2.500
v -8.500 -9.000 -2.500
v -9.500 -9.000 -2.500
v -9.500 -9.000 -3.500
v -8.500 -8.000 -1.500
v -8.500 -9.000 -1.500
v -9.500 -9.000 -1.500
v -8.500 -8.000 -0.500
v -8.500 -9.000 -0.500
v -9.500 -9.000 -0.500
v -8.500 -8.000 0.500
v -8.500 -9.000 0.500
v -9.500 -9.000 0.500
v -8.500 -8.000 1.500
v -8.500 -9.000 1.500
v -9.500 -9.000 1.500
v -8.500 -8.000 2.500
v -8.500 -9.000 2.500
v -9.500 -9.000 2.500
v -8.500 -8.000 3.500
v -8.500 -9.000 3.500
v -9.500 -9.000 3.500
v -8.500 -8.000 -5.500
v -8.500 -7.000 -5.500
v -8.500 -7.000 -4.500
v -8.500 -8.000 -4.500
v -9.500 -8.000 -4.500
v -9.500 -8.000 -5.500
v -8.500 -7.000 -3.500
v -8.500 -7.000 3.500
v -8.500 -7.000 4.500
v -8.500 -8.000 4.500
v -9.500 -8.000 4.500
v -8.500 -7.000 5.500
v -8.500 -8.000 5.500
v -9.500 -8.000 5.500
v -8.500 -7.000 -6.500
v -8.500 -6.000 -6.500
v -8.500 -6.000 -5.500
v -9.500 -7.000 -6.500
v -8.500 -6.000 5.500
v -8.500 -6.000 6.500
v -8.500 -7.000 6.500
v -9.500 -7.000 6.500
v -8.500 -6.000 -7.500
v -8.500 -5.000 -7.500
v -8.500 -5.000 -6.500
v -9.500 -6.000 -7.500
v -8.500 -5.000 6.500
v -8.500 -5.000 7.500
v -8.500 -6.000 7.500
v -9.500 -6.000 7.500
v -8.500 -5.000 -8.500
v -8.500 -4.000 -8.500
v -8.500 -4.000 -7.500
v -9.500 -4.000 -8.500
v -9.500 -5.000 -8.500
v -8.500 -4.000 7.500
v -8.500 -4.000 8.500
v -8.500 -5.000 8.500
v -9.500 -5.000 8.500
v -9.500 -4.000 8.500
v -8.500 -3.000 -8.500
v -8.500 -3.000 -7.500
v -8.500 -3.000 7.500
v -8.500 -3.000 8.500
v -8.500 -3.000 -9.500
v -8.500 -2.000 -9.500
v -8.500 -2.000 -8.500
v -9.500 -2.000 -9.500
v -9.500 -3.000 -9.500
v -8.500 -2.000 8.500
v -8.500 -2.000 9.500
v -8.500 -3.000 9.500
v -9.500 -3.000 9.500
v -9.500 -2.000 9.500
v -8.500 -1.000 -9.500
v -8.500 -1.000 -8.500
v -9.500 -1.000 -9.500
v -8.500 -1.000 8.500
v -8.500 -1.000 9.500
v -9.500 -1.000 9.500
v -8.500 0.000 -9.500
v -8.500 0.000 -8.500
v -9.500 0.000 -9.500
v -8.500 0.000 8.500
v -8.500 0.000 9.500
v -9.500 0.000 9.500
v -8.500 1.000 -9.500
v -8.500 1.000 -8.500
v -9.500 1.000 -9.500
v -8.500 1.000 8.500
v -8.500 1.000 9.500
v -9.500 1.000 9.500
v -8.500 2.000 -9.500
v -8.500 2.000 -8.500
v -9.500 2.000 -9.500
v -8.500 2.000 8.500
v -8.500 2.000 9.500
v -9.500 2.000 9.500
v -8.500 3.000 -9.500
v -8.500 3.000 -8.500
v -9.500 3.000 -9.500
v -8.500 3.000 8.500
v -8.500 3.000 9.500
v -9.500 3.000 9.500
v -8.500 4.000 -8.500
v -8.500 4.000 -7.500
v -8.500 3.000 -7.500
v -9.500 4.000 -8.500
v -8.500 3.000 7.500
v -8.500 4.000 7.500
v -8.500 4.000 8.500
v -9.500 4.000 8.500
v -8.500 5.000 -8.500
v -8.500 5.000 -7.500
v -9.500 5.000 -8.500
v -8.500 5.000 7.500
v -8.500 5.000 8.500
v -9.500 5.000 8.500
v -8.500 6.000 -7.500
v -8.500 6.000 -6.500
v -8.500 5.000 -6.500
v -9.500 6.000 -7.500
v -8.500 5.000 6.500
v -8.500 6.000 6.500
v -8.500 6.000 7.500
v -9.500 6.000 7.500
v -8.500 7.000 -6.500
v -8.500 7.000 -5.500
v -8.500 6.000 -5.500
v -9.500 7.000 -6.500
v -8.500 6.000 5.500
v -8.500 7.000 5.500
v -8.500 7.000 6.500
v -9.500 7.000 6.500
v -8.500 8.000 -5.500
v -8.500 8.000 -4.500
v -8.500 7.000 -4.500
v -9.500 8.000 -4.500
v -9.500 8.000 -5.500
v -8.500 8.000 -3.500
v -8.500 7.000 -3.500
v -8.500 7.000 3.500
v -8.500 8.000 3.500
v -8.500 8.000 4.500
v -8.500 7.000 4.500
v -9.500 8.000 4.500
v -8.500 8.000 5.500
v -9.500 8.000 5.500
v -8.500 9.000 -3.500
v -8.500 9.000 -2.500
v -8.500 8.000 -2.500
v -9.500 9.000 -2.500
v -9.500 9.000 -3.500
v -8.500 9.000 -1.500
v -8.500 8.000 -1.500
v -9.500 9.000 -1.500
v -8.500 9.000 -0.500
v -8.500 8.000 -0.500
v -9.500 9.000 -0.500
v -8.500 9.000 0.500
v -8.500 8.000 0.500
v -9.500 9.000 0.500
v -8.500 9.000 1.500
v -8.500 8.000 1.500
v -9.500 9.000 1.500
v -8.500 9.000 2.500
v -8.500 8.000 2.500
v -9.500 9.000 2.500
v -8.500 9.000 3.500
v -9.500 9.000 3.500
v -7.500 -8.000 -3.500
v -7.500 -8.000 -2.500
v -7.500 -7.000 -3.500
v -7.500 -8.000 -1.500
v -7.500 -8.000 -0.500
v -7.500 -8.000 0.500
v -7.500 -8.000 1.500
v -7.500 -8.000 2.500
v -7.500 -8.000 3.500
v -7.500 -7.000 3.500
v -7.500 -7.000 -5.500
v -7.500 -7.000 -4.500
v -7.500 -6.000 -5.500
v -7.500 -7.000 4.500
v -7.500 -7.000 5.500
v -7.500 -6.000 5.500
v -7.500 -6.000 -6.500
v -7.500 -5.000 -6.500
v -7.500 -6.000 6.500
v -7.500 -5.000 6.500
v -7.500 -5.000 -7.500
v -7.500 -4.000 -7.500
v -7.500 -5.000 7.500
v -7.500 -4.000 7.500
v -7.500 -3.000 -7.500
v -7.500 -3.000 7.500
v -7.500 -3.000 -8.500
v -7.500 -2.000 -8.500
v -7.500 -3.000 8.500
v -7.500 -2.000 8.500
v -7.500 -1.000 -8.500
v -7.500 -1.000 8.500
v -7.500 0.000 -8.500
v -7.500 0.000 8.500
v -7.500 1.000 -8.500
v -7.500 1.000 8.500
v -7.500 2.000 -8.500
v -7.500 2.000 8.500
v -7.500 3.000 -7.500
v -7.500 3.000 -8.500
v -7.500 3.000 8.500
v -7.500 3.000 7.500
v -7.500 4.000 -7.500
v -7.500 4.000 7.500
v -7.500 5.000 -6.500
v -7.500 5.000 -7.500
v -7.500 5.000 7.500
v -7.500 5.000 6.500
v -7.500 6.000 -5.500
v -7.500 6.000 -6.500
v -7.500 6.000 6.500
v -7.500 6.000 5.500
v -7.500 7.000 -4.500
v -7.500 7.000 -5.500
v -7.500 7.000 -3.500
v -7.500 7.000 4.500
v -7.500 7.000 3.500
v -7.500 7.000 5.500
v -7.500 8.000 -2.500
v -7.500 8.000 -3.500
v -7.500 8.000 -1.500
v -7.500 8.000 -0.500
v -7.500 8.000 0.500
v -7.500 8.000 1.500
v -7.500 8.000 2.500
v -7.500 8.000 3.500
v -6.500 -8.000 -3.500
v -6.500 -7.000 -3.500
v -6.500 -7.000 -2.500
v -6.500 -8.000 -2.500
v -6.500 -7.000 -1.500
v -6.500 -8.000 -1.500
v -6.500 -7.000 -0.500
v -6.500 -8.000 -0.500
v -6.500 -7.000 0.500
v -6.500 -8.000 0.500
v -6.500 -7.000 1.500
v -6.500 -8.000 1.500
v -6.500 -7.000 2.500
v -6.500 -8.000 2.500
v -6.500 -7.000 3.500
v -6.500 -8.000 3.500
v -6.500 -7.000 -5.500
v -6.500 -6.000 -5.500
v -6.500 -6.000 -4.500
v -6.500 -7.000 -4.500
v -6.500 -6.000 -3.500
v -6.500 -6.000 -2.500
v -6.500 -6.000 -1.500
v -6.500 -6.000 -0.500
v -6.500 -6.000 0.500
v -6.500 -6.000 1.500
v -6.500 -6.000 2.500
v -6.500 -6.000 3.500
v -6.500 -6.000 4.500
v -6.500 -7.000 4.500
v -6.500 -6.000 5.500
v -6.500 -7.000 5.500
v -6.500 -6.000 -6.500
v -6.500 -5.000 -6.500
v -6.500 -5.000 -5.500
v -6.500 -5.000 -4.500
v -6.500 -5.000 -3.500
v -6.500 -5.000 -2.500
v -6.500 -5.000 -1.500
v -6.500 -5.000 -0.500
v -6.500 -5.000 0.500
v -6.500 -5.000 1.500
v -6.500 -5.000 2.500
v -6.500 -5.000 3.500
v -6.500 -5.000 4.500
v -6.500 -5.000 5.500
v -6.500 -5.000 6.500
v -6.500 -6.000 6.500
v -6.500 -5.000 -7.500
v -6.500 -4.000 -7.500
v -6.500 -4.000 -6.500
v -6.500 -4.000 -5.500
v -6.500 -4.000 -4.500
v -6.500 -4.000 -3.500
v -6.500 -4.000 -2.500
v -6.500 -4.000 -1.500
v -6.500 -4.000 -0.500
v -6.500 -4.000 0.500
v -6.500 -4.000 1.500
v -6.500 -4.000 2.500
v -6.500 -4.000 3.500
v -6.500 -4.000 4.500
v -6.500 -4.000 5.500
v -6.500 -4.000 6.500
v -6.500 -4.000 7.500
v -6.500 -5.000 7.500
v -6.500 -3.000 -7.500
v -6.500 -3.000 -6.500
v -6.500 -3.000 -5.500
v -6.500 -3.000 -4.500
v -6.500 -3.000 -3.500
v -6.500 -3.000 -2.500
v -6.500 -3.000 -1.500
v -6.500 -3.000 -0.500
v -6.500 -3.000 0.500
v -6.500 -3.000 1.500
v -6.500 -3.000 2.500
v -6.500 -3.000 3.500
v -6.500 -3.000 4.500
v -6.500 -3.000 5.500
v -6.500 -3.000 6.500
v -6.500 -3.000 7.500
v -6.500 -3.000 -8.500
v -6.500 -2.000 -8.500
v -6.500 -2.000 -7.500
v -6.500 -2.000 -6.500
v -6.500 -2.000 -5.500
v -6.500 -2.000 -4.500
v -6.500 -2.000 -3.500
v -6.500 -2.000 -2.500
v -6.500 -2.000 -1.500
v -6.500 -2.000 -0.500
v -6.500 -2.000 0.500
v -6.500 -2.000 1.500
v -6.500 -2.000 2.500
v -6.500 -2.000 3.500
v -6.500 -2.000 4.500
v -6.500 -2.000 5.500
v -6.500 -2.000 6.500
v -6.500 -2.000 7.500
v -6.500 -2.000 8.500
v -6.500 -3.000 8.500
v -6.500 -1.000 -8.500
v -6.500 -1.000 -7.500
v -6.500 -1.000 -6.500
v -6.500 -1.000 -5.500
v -6.500 -1.000 -4.500
v -6.500 -1.000 -3.500
v -6.500 -1.000 -2.500
v -6.500 -1.000 -1.500
v -6.500 -1.000 1.500
v -6.500 -1.000 2.500
v -6.500 -1.000 3.500
v -6.500 -1.000 4.500
v -6.500 -1.000 5.500
v -6.500 -1.000 6.500
v -6.500 -1.000 7.500
v -6.500 -1.000 8.500
v -6.500 0.000 -8.500
v -6.500 0.000 -7.500
v -6.500 0.000 -6.500
v -6.500 0.000 -5.500
v -6.500 0.000 -4.500
v -6.500 0.000 -3.500
v -6.500 0.000 -2.500
v -6.500 0.000 2.500
v -6.500 0.000 3.500
v -6.500 0.000 4.500
v -6.500 0.000 5.500
v -6.500 0.000 6.500
v -6.500 0.000 7.500
v -6.500 0.000 8.500
v -6.500 1.000 -8.500
v -6.500 1.000 -7.500
v -6.500 1.000 -6.500
v -6.500 1.000 -5.500
v -6.500 1.000 -4.500
v -6.500 1.000 -3.500
v -6.500 1.000 -2.500
v -6.500 1.000 2.500
v -6.500 1.000 3.500
v -6.500 1.000 4.500
v -6.500 1.000 5.500
v -6.500 1.000 6.500
v -6.500 1.000 7.500
v -6.500 1.000 8.500
v -6.500 2.000 -8.500
v -6.500 2.000 -7.500
v -6.500 2.000 -6.500
v -6.500 2.000 -5.500
v -6.500 2.000 -4.500
v -6.500 2.000 -3.500
v -6.500 2.000 -2.500
v -6.500 2.000 -1.500
v -6.500 1.000 -1.500
v -6.500 1.000 1.500
v -6.500 2.000 1.500
v -6.500 2.000 2.500
v -6.500 2.000 3.500
v -6.500 2.000 4.500
v -6.500 2.000 5.500
v -6.500 2.000 6.500
v -6.500 2.000 7.500
v -6.500 2.000 8.500
v -6.500 3.000 -8.500
v -6.500 3.000 -7.500
v -6.500 3.000 -6.500
v -6.500 3.000 -5.500
v -6.500 3.000 -4.500
v -6.500 3.000 -3.500
v -6.500 3.000 -2.500
v -6.500 3.000 -1.500
v -6.500 3.000 -0.500
v -6.500 2.000 -0.500
v -6.500 3.000 0.500
v -6.500 2.000 0.500
v -6.500 3.000 1.500
v -6.500 3.000 2.500
v -6.500 3.000 3.500
v -6.500 3.000 4.500
v -6.500 3.000 5.500
v -6.500 3.000 6.500
v -6.500 3.000 7.500
v -6.500 3.000 8.500
v -6.500 4.000 -7.500
v -6.500 4.000 -6.500
v -6.500 4.000 -5.500
v -6.500 4.000 -4.500
v -6.500 4.000 -3.500
v -6.500 4.000 -2.500
v -6.500 4.000 -1.500
v -6.500 4.000 -0.500
v -6.500 4.000 0.500
v -6.500 4.000 1.500
v -6.500 4.000 2.500
v -6.500 4.000 3.500
v -6.500 4.000 4.500
v -6.500 4.000 5.500
v -6.500 4.000 6.500
v -6.500 4.000 7.500
v -6.500 5.000 -7.500
v -6.500 5.000 -6.500
v -6.500 5.000 -5.500
v -6.500 5.000 -4.500
v -6.500 5.000 -3.500
v -6.500 5.000 -2.500
v -6.500 5.000 -1.500
v -6.500 5.000 -0.500
v -6.500 5.000 0.500
v -6.500 5.000 1.500
v -6.500 5.000 2.500
v -6.500 5.000 3.500
v -6.500 5.000 4.500
v -6.500 5.000 5.500
v -6.500 5.000 6.500
v -6.500 5.000 7.500
v -6.500 6.000 -6.500
v -6.500 6.000 -5.500
v -6.500 6.000 -4.500
v -6.500 6.000 -3.500
v -6.500 6.000 -2.500
v -6.500 6.000 -1.500
v -6.500 6.000 -0.500
v -6.500 6.000 0.500
v -6.500 6.000 1.500
v -6.500 6.000 2.500
v -6.500 6.000 3.500
v -6.500 6.000 4.500
v -6.500 6.000 5.500
v -6.500 6.000 6.500
v -6.500 7.000 -5.500
v -6.500 7.000 -4.500
v -6.500 7.000 -3.500
v -6.500 7.000 -2.500
v -6.500 7.000 -1.500
v -6.500 7.000 -0.500
v -6.500 7.000 0.500
v -6.500 7.000 1.500
v -6.500 7.000 2.500
v -6.500 7.000 3.500
v -6.500 7.000 4.500
v -6.500 7.000 5.500
v -6.500 8.000 -3.500
v -6.500 8.000 -2.500
v -6.500 8.000 -1.500
v -6.500 8.000 -0.500
v -6.500 8.000 0.500
v -6.500 8.000 1.500
v -6.500 8.000 2.500
v -6.500 8.000 3.500
v -5.500 -2.000 -1.500
v -5.500 -2.000 -0.500
v -5.500 -1.000 -1.500
v -5.500 -2.000 0.500
v -5.500 -2.000 1.500
v -5.500 -1.000 1.500
v -5.500 -1.000 -2.500
v -5.500 0.000 -2.500
v -5.500 -1.000 2.500
v -5.500 0.000 2.500
v -5.500 1.000 -1.500
v -5.500 1.000 -2.500
v -5.500 1.000 2.500
v -5.500 1.000 1.500
v -5.500 2.000 -0.500
v -5.500 2.000 -1.500
v -5.500 2.000 0.500
v -5.500 2.000 1.500
v -4.500 -2.000 -1.500
v -4.500 -2.000 -0.500
v -4.500 -1.000 -1.500
v -4.500 -2.000 0.500
v -4.500 -2.000 1.500
v -4.500 -1.000 1.500
v -4.500 -1.000 -2.500
v -4.500 0.000 -2.500
v -4.500 -1.000 2.500
v -4.500 0.000 2.500
v -4.500 1.000 -1.500
v -4.500 1.000 -2.500
v -4.500 1.000 2.500
v -4.500 1.000 1.500
v -4.500 2.000 -0.500
v -4.500 2.000 -1.500
v -4.500 2.000 0.500
v -4.500 2.000 1.500
v -3.500 -2.000 -1.500
v -3.500 -2.000 -0.500
v -3.500 -1.000 -1.500
v -3.500 -2.000 0.500
v -3.500 -2.000 1.500
v -3.500 -1.000 1.500
v -3.500 -1.000 -2.500
v -3.500 0.000 -2.500
v -3.500 -1.000 2.500
v -3.500 0.000 2.500
v -3.500 1.000 -1.500
v -3.500 1.000 -2.500
v -3.500 1.000 2.500
v -3.500 1.000 1.500
v -3.500 2.000 -0.500
v -3.500 2.000 -1.500
v -3.500 2.000 0.500
v -3.500 2.000 1.500
v -2.500 -2.000 -1.500
v -2.500 -2.000 -0.500
v -2.500 -1.000 -1.500
v -2.500 -2.000 0.500
v -2.500 -2.000 1.500
v -2.500 -1.000 1.500
v -2.500 -1.000 -2.500
v -2.500 0.000 -2.500
v -2.500 -1.000 2.500
v -2.500 0.000 2.500
v -2.500 1.000 -1.500
v -2.500 1.000 -2.500
v -2.500 1.000 2.500
v -2.500 1.000 1.500
v -2.500 2.000 -0.500
v -2.500 2.000 -1.500
v -2.500 2.000 0.500
v -2.500 2.000 1.500
v -1.500 -2.000 -1.500
v -1.500 -2.000 -0.500
v -1.500 -1.000 -1.500
v -1.500 -2.000 0.500
v -1.500 -2.000 1.500
v -1.500 -1.000 1.500
v -1.500 -1.000 -2.500
v -1.500 0.000 -2.500
v -1.500 -1.000 2.500
v -1.500 0.000 2.500
v -1.500 1.000 -1.500
v -1.500 1.000 -2.500
v -1.500 1.000 2.500
v -1.500 1.000 1.500
v -1.500 2.000 -0.500
v -1.500 2.000 -1.500
v -1.500 2.000 0.500
v -1.500 2.000 1.500
v -0.500 -2.000 -1.500
v -0.500 -2.000 -0.500
v -0.500 -1.000 -1.500
v -0.500 -2.000 0.500
v -0.500 -2.000 1.500
v -0.500 -1.000 1.500
v -0.500 -1.000 -2.500
v -0.500 0.000 -2.500
v -0.500 -1.000 2.500
v -0.500 0.000 2.500
v -0.500 1.000 -1.500
v -0.500 1.000 -2.500
v -0.500 1.000 2.500
v -0.500 1.000 1.500
v -0.500 2.000 -0.500
v -0.500 2.000 -1.500
v -0.500 2.000 0.500
v -0.500 2.000 1.500
v -0.500 -5.000 -0.500
v -0.500 -4.000 -0.500
v -0.500 -4.000 -1.500
v -0.500 -5.000 -1.500
v 0.500 -5.000 -1.500
v 0.500 -5.000 -0.500
v 0.500 -4.000 -1.500
v -0.500 -5.000 0.500
v -0.500 -4.000 0.500
v 0.500 -5.000 0.500
v -0.500 -5.000 1.500
v -0.500 -4.000 1.500
v 0.500 -5.000 1.500
v 0.500 -4.000 1.500
v -0.500 -3.000 -0.500
v -0.500 -3.000 -1.500
v 0.500 -3.000 -1.500
v -0.500 -3.000 0.500
v -0.500 -3.000 1.500
v 0.500 -3.000 1.500
v 0.500 -2.000 -1.500
v 0.500 -2.000 1.500
v 0.500 -1.000 -1.500
v 0.500 -1.000 1.500
v 0.500 -1.000 -2.500
v 0.500 0.000 -2.500
v 0.500 -1.000 2.500
v 0.500 0.000 2.500
v 0.500 1.000 -1.500
v 0.500 1.000 -2.500
v 0.500 1.000 2.500
v 0.500 1.000 1.500
v 0.500 2.000 -1.500
v 0.500 2.000 1.500
v -0.500 3.000 -0.500
v -0.500 3.000 -1.500
v 0.500 3.000 -1.500
v -0.500 3.000 0.500
v -0.500 3.000 1.500
v 0.500 3.000 1.500
v -0.500 4.000 -0.500
v -0.500 4.000 -1.500
v 0.500 4.000 -1.500
v -0.500 4.000 0.500
v -0.500 4.000 1.500
v 0.500 4.000 1.500
v -0.500 5.000 -0.500
v -0.500 5.000 -1.500
v 0.500 5.000 -0.500
v 0.500 5.000 -1.500
v -0.500 5.000 0.500
v 0.500 5.000 0.500
v -0.500 5.000 1.500
v 0.500 5.000 1.500
v 0.500 -6.000 -0.500
v 0.500 -6.000 -1.500
v 1.500 -6.000 -1.500
v 1.500 -6.000 -0.500
v 1.500 -5.000 -1.500
v 0.500 -6.000 0.500
v 1.500 -6.000 0.500
v 0.500 -6.000 1.500
v 1.500 -6.000 1.500
v 1.500 -5.000 1.500
v 1.500 -4.000 -1.500
v 1.500 -4.000 1.500
v 0.500 -3.000 -2.500
v 0.500 -4.000 -2.500
v 1.500 -4.000 -2.500
v 1.500 -3.000 -2.500
v 0.500 -4.000 2.500
v 0.500 -3.000 2.500
v 1.500 -4.000 2.500
v 1.500 -3.000 2.500
v 0.500 -2.000 -2.500
v 1.500 -2.000 -2.500
v 0.500 -2.000 2.500
v 1.500 -2.000 2.500
v 1.500 -1.000 -2.500
v 1.500 -1.000 2.500
v 1.500 0.000 -2.500
v 1.500 0.000 2.500
v 1.500 1.000 -2.500
v 1.500 1.000 2.500
v 0.500 2.000 -2.500
v 1.500 2.000 -2.500
v 0.500 2.000 2.500
v 1.500 2.000 2.500
v 0.500 3.000 -2.500
v 1.500 3.000 -2.500
v 0.500 3.000 2.500
v 1.500 3.000 2.500
v 0.500 4.000 -2.500
v 1.500 4.000 -1.500
v 1.500 4.000 -2.500
v 0.500 4.000 2.500
v 1.500 4.000 2.500
v 1.500 4.000 1.500
v 1.500 5.000 -1.500
v 1.500 5.000 1.500
v 0.500 6.000 -0.500
v 0.500 6.000 -1.500
v 1.500 6.000 -0.500
v 1.500 6.000 -1.500
v 0.500 6.000 0.500
v 1.500 6.000 0.500
v 0.500 6.000 1.500
v 1.500 6.000 1.500
v 1.500 -8.000 -0.500
v 1.500 -7.000 -0.500
v 1.500 -7.000 -1.500
v 1.500 -8.000 -1.500
v 2.500 -8.000 -1.500
v 2.500 -8.000 -0.500
v 2.500 -7.000 -1.500
v 1.500 -8.000 0.500
v 1.500 -7.000 0.500
v 2.500 -8.000 0.500
v 1.500 -8.000 1.500
v 1.500 -7.000 1.500
v 2.500 -8.000 1.500
v 2.500 -7.000 1.500
v 2.500 -6.000 -1.500
v 2.500 -6.000 1.500
v 2.500 -5.000 -1.500
v 2.500 -5.000 1.500
v 1.500 -5.000 -2.500
v 2.500 -5.000 -2.500
v 2.500 -4.000 -2.500
v 1.500 -5.000 2.500
v 2.500 -5.000 2.500
v 2.500 -4.000 2.500
v 2.500 -3.000 -2.500
v 2.500 -3.000 2.500
v 1.500 -3.000 -3.500
v 1.500 -2.000 -3.500
v 1.500 -2.000 -4.500
v 1.500 -3.000 -4.500
v 2.500 -3.000 -4.500
v 2.500 -3.000 -3.500
v 2.500 -2.000 -4.500
v 1.500 -3.000 3.500
v 1.500 -2.000 3.500
v 2.500 -3.000 3.500
v 1.500 -3.000 4.500
v 1.500 -2.000 4.500
v 2.500 -3.000 4.500
v 2.500 -2.000 4.500
v 1.500 -1.000 -3.500
v 1.500 -1.000 -4.500
v 2.500 -1.000 -4.500
v 1.500 -1.000 3.500
v 1.500 -1.000 4.500
v 2.500 -1.000 4.500
v 1.500 0.000 -3.500
v 1.500 0.000 -4.500
v 2.500 0.000 -4.500
v 1.500 0.000 3.500
v 1.500 0.000 4.500
v 2.500 0.000 4.500
v 1.500 1.000 -3.500
v 1.500 1.000 -4.500
v 2.500 1.000 -4.500
v 1.500 1.000 3.500
v 1.500 1.000 4.500
v 2.500 1.000 4.500
v 1.500 2.000 -3.500
v 1.500 2.000 -4.500
v 2.500 2.000 -4.500
v 1.500 2.000 3.500
v 1.500 2.000 4.500
v 2.500 2.000 4.500
v 1.500 3.000 -3.500
v 1.500 3.000 -4.500
v 2.500 3.000 -3.500
v 2.500 3.000 -4.500
v 2.500 3.000 -2.500
v 1.500 3.000 3.500
v 2.500 3.000 3.500
v 2.500 3.000 2.500
v 1.500 3.000 4.500
v 2.500 3.000 4.500
v 2.500 4.000 -2.500
v 2.500 4.000 2.500
v 1.500 5.000 -2.500
v 2.500 5.000 -1.500
v 2.500 5.000 -2.500
v 1.500 5.000 2.500
v 2.500 5.000 2.500
v 2.500 5.000 1.500
v 2.500 6.000 -1.500
v 2.500 6.000 1.500
v 1.500 7.000 -0.500
v 1.500 7.000 -1.500
v 2.500 7.000 -1.500
v 1.500 7.000 0.500
v 1.500 7.000 1.500
v 2.500 7.000 1.500
v 1.500 8.000 -0.500
v 1.500 8.000 -1.500
v 2.500 8.000 -0.500
v 2.500 8.000 -1.500
v 1.500 8.000 0.500
v 2.500 8.000 0.500
v 1.500 8.000 1.500
v 2.500 8.000 1.500
v 3.500 -8.000 -1.500
v 3.500 -8.000 -0.500
v 3.500 -7.000 -1.500
v 3.500 -8.000 0.500
v 3.500 -8.000 1.500
v 3.500 -7.000 1.500
v 2.500 -6.000 -2.500
v 2.500 -7.000 -2.500
v 3.500 -7.000 -2.500
v 3.500 -6.000 -2.500
v 2.500 -7.000 2.500
v 2.500 -6.000 2.500
v 3.500 -7.000 2.500
v 3.500 -6.000 2.500
v 3.500 -5.000 -2.500
v 3.500 -5.000 2.500
v 3.500 -4.000 -2.500
v 3.500 -4.000 2.500
v 3.500 -4.000 -4.500
v 3.500 -3.000 -4.500
v 3.500 -3.000 -3.500
v 3.500 -4.000 -3.500
v 2.500 -4.000 -3.500
v 2.500 -4.000 -4.500
v 3.500 -3.000 -2.500
v 3.500 -3.000 2.500
v 3.500 -3.000 3.500
v 3.500 -4.000 3.500
v 2.500 -4.000 3.500
v 3.500 -3.000 4.500
v 3.500 -4.000 4.500
v 2.500 -4.000 4.500
v 3.500 -2.000 -4.500
v 3.500 -2.000 -3.500
v 3.500 -2.000 -2.500
v 3.500 -2.000 2.500
v 3.500 -2.000 3.500
v 3.500 -2.000 4.500
v 3.500 -1.000 -4.500
v 3.500 -1.000 -3.500
v 3.500 -1.000 -2.500
v 3.500 -1.000 2.500
v 3.500 -1.000 3.500
v 3.500 -1.000 4.500
v 3.500 0.000 -4.500
v 3.500 0.000 -3.500
v 3.500 0.000 -2.500
v 3.500 0.000 2.500
v 3.500 0.000 3.500
v 3.500 0.000 4.500
v 3.500 1.000 -4.500
v 3.500 1.000 -3.500
v 3.500 1.000 -2.500
v 3.500 1.000 2.500
v 3.500 1.000 3.500
v 3.500 1.000 4.500
v 3.500 2.000 -4.500
v 3.500 2.000 -3.500
v 3.500 2.000 -2.500
v 3.500 2.000 2.500
v 3.500 2.000 3.500
v 3.500 2.000 4.500
v 3.500 3.000 -4.500
v 3.500 3.000 -3.500
v 3.500 3.000 -2.500
v 3.500 3.000 2.500
v 3.500 3.000 3.500
v 3.500 3.000 4.500
v 3.500 4.000 -4.500
v 3.500 4.000 -3.500
v 2.500 4.000 -3.500
v 2.500 4.000 -4.500
v 3.500 4.000 -2.500
v 3.500 4.000 2.500
v 3.500 4.000 3.500
v 2.500 4.000 3.500
v 3.500 4.000 4.500
v 2.500 4.000 4.500
v 3.500 5.000 -2.500
v 3.500 5.000 2.500
v 2.500 6.000 -2.500
v 3.500 6.000 -2.500
v 2.500 6.000 2.500
v 3.500 6.000 2.500
v 2.500 7.000 -2.500
v 3.500 7.000 -1.500
v 3.500 7.000 -2.500
v 2.500 7.000 2.500
v 3.500 7.000 2.500
v 3.500 7.000 1.500
v 3.500 8.000 -0.500
v 3.500 8.000 -1.500
v 3.500 8.000 0.500
v 3.500 8.000 1.500
v 3.500 -9.000 -0.500
v 3.500 -9.000 -1.500
v 4.500 -9.000 -1.500
v 4.500 -9.000 -0.500
v 4.500 -8.000 -1.500
v 3.500 -9.000 0.500
v 4.500 -9.000 0.500
v 3.500 -9.000 1.500
v 4.500 -9.000 1.500
v 4.500 -8.000 1.500
v 4.500 -7.000 -1.500
v 4.500 -7.000 1.500
v 4.500 -7.000 -2.500
v 4.500 -6.000 -2.500
v 4.500 -7.000 2.500
v 4.500 -6.000 2.500
v 4.500 -6.000 -4.500
v 4.500 -5.000 -4.500
v 4.500 -5.000 -3.500
v 4.500 -6.000 -3.500
v 3.500 -6.000 -3.500
v 3.500 -5.000 -3.500
v 3.500 -5.000 -4.500
v 3.500 -6.000 -4.500
v 4.500 -5.000 -2.500
v 4.500 -5.000 2.500
v 4.500 -5.000 3.500
v 4.500 -6.000 3.500
v 3.500 -6.000 3.500
v 3.500 -5.000 3.500
v 4.500 -5.000 4.500
v 4.500 -6.000 4.500
v 3.500 -6.000 4.500
v 3.500 -5.000 4.500
v 4.500 -4.000 -4.500
v 4.500 -4.000 -3.500
v 4.500 -4.000 -2.500
v 4.500 -4.000 2.500
v 4.500 -4.000 3.500
v 4.500 -4.000 4.500
v 4.500 -3.000 -2.500
v 4.500 -3.000 2.500
v 4.500 -2.000 -2.500
v 4.500 -2.000 -1.500
v 4.500 -3.000 -1.500
v 4.500 -3.000 1.500
v 4.500 -2.000 1.500
v 4.500 -2.000 2.500
v 4.500 -1.000 -2.500
v 4.500 -1.000 -1.500
v 4.500 -1.000 1.500
v 4.500 -1.000 2.500
v 4.500 0.000 -2.500
v 4.500 0.000 -1.500
v 4.500 0.000 1.500
v 4.500 0.000 2.500
v 4.500 1.000 -2.500
v 4.500 1.000 -1.500
v 4.500 1.000 1.500
v 4.500 1.000 2.500
v 4.500 2.000 -2.500
v 4.500 2.000 -1.500
v 4.500 2.000 1.500
v 4.500 2.000 2.500
v 4.500 3.000 -2.500
v 4.500 3.000 -1.500
v 4.500 3.000 1.500
v 4.500 3.000 2.500
v 4.500 4.000 -2.500
v 4.500 4.000 2.500
v 4.500 4.000 -4.500
v 4.500 5.000 -4.500
v 4.500 5.000 -3.500
v 4.500 4.000 -3.500
v 3.500 5.000 -3.500
v 3.500 5.000 -4.500
v 4.500 5.000 -2.500
v 4.500 5.000 2.500
v 4.500 5.000 3.500
v 4.500 4.000 3.500
v 3.500 5.000 3.500
v 4.500 5.000 4.500
v 4.500 4.000 4.500
v 3.500 5.000 4.500
v 4.500 6.000 -4.500
v 4.500 6.000 -3.500
v 3.500 6.000 -3.500
v 3.500 6.000 -4.500
v 4.500 6.000 -2.500
v 4.500 6.000 2.500
v 4.500 6.000 3.500
v 3.500 6.000 3.500
v 4.500 6.000 4.500
v 3.500 6.000 4.500
v 4.500 7.000 -1.500
v 4.500 7.000 -2.500
v 4.500 7.000 2.500
v 4.500 7.000 1.500
v 4.500 8.000 -1.500
v 4.500 8.000 1.500
v 3.500 9.000 -0.500
v 3.500 9.000 -1.500
v 4.500 9.000 -0.500
v 4.500 9.000 -1.500
v 3.500 9.000 0.500
v 4.500 9.000 0.500
v 3.500 9.000 1.500
v 4.500 9.000 1.500
v 4.500 -10.000 -0.500
v 4.500 -10.000 -1.500
v 5.500 -10.000 -1.500
v 5.500 -10.000 -0.500
v 5.500 -9.000 -1.500
v 4.500 -10.000 0.500
v 5.500 -10.000 0.500
v 4.500 -10.000 1.500
v 5.500 -10.000 1.500
v 5.500 -9.000 1.500
v 5.500 -8.000 -1.500
v 5.500 -8.000 1.500
v 4.500 -8.000 -2.500
v 5.500 -8.000 -2.500
v 5.500 -7.000 -2.500
v 4.500 -8.000 2.500
v 5.500 -8.000 2.500
v 5.500 -7.000 2.500
v 5.500 -6.000 -2.500
v 5.500 -6.000 2.500
v 5.500 -5.000 -2.500
v 5.500 -5.000 -1.500
v 5.500 -6.000 -1.500
v 5.500 -6.000 1.500
v 5.500 -5.000 1.500
v 5.500 -5.000 2.500
v 5.500 -4.000 -2.500
v 5.500 -4.000 -1.500
v 5.500 -4.000 1.500
v 5.500 -4.000 2.500
v 5.500 -3.000 -2.500
v 5.500 -3.000 -1.500
v 5.500 -3.000 1.500
v 5.500 -3.000 2.500
v 5.500 -2.000 -1.500
v 5.500 -2.000 1.500
v 5.500 -1.000 -1.500
v 5.500 -1.000 -0.500
v 5.500 -2.000 -0.500
v 5.500 -1.000 0.500
v 5.500 -2.000 0.500
v 5.500 -1.000 1.500
v 5.500 0.000 -1.500
v 5.500 0.000 -0.500
v 5.500 0.000 0.500
v 5.500 0.000 1.500
v 5.500 1.000 -1.500
v 5.500 1.000 -0.500
v 5.500 1.000 0.500
v 5.500 1.000 1.500
v 5.500 2.000 -1.500
v 5.500 2.000 -0.500
v 5.500 2.000 0.500
v 5.500 2.000 1.500
v 5.500 3.000 -1.500
v 5.500 3.000 1.500
v 5.500 3.000 -2.500
v 5.500 4.000 -2.500
v 5.500 4.000 -1.500
v 5.500 4.000 1.500
v 5.500 4.000 2.500
v 5.500 3.000 2.500
v 5.500 5.000 -2.500
v 5.500 5.000 -1.500
v 5.500 5.000 1.500
v 5.500 5.000 2.500
v 5.500 6.000 -2.500
v 5.500 6.000 -1.500
v 5.500 6.000 1.500
v 5.500 6.000 2.500
v 5.500 7.000 -2.500
v 5.500 7.000 2.500
v 4.500 8.000 -2.500
v 5.500 8.000 -1.500
v 5.500 8.000 -2.500
v 4.500 8.000 2.500
v 5.500 8.000 2.500
v 5.500 8.000 1.500
v 5.500 9.000 -1.500
v 5.500 9.000 1.500
v 4.500 10.000 -0.500
v 4.500 10.000 -1.500
v 5.500 10.000 -0.500
v 5.500 10.000 -1.500
v 4.500 10.000 0.500
v 5.500 10.000 0.500
v 4.500 10.000 1.500
v 5.500 10.000 1.500
v 5.500 -11.000 -0.500
v 5.500 -11.000 -1.500
v 6.500 -11.000 -1.500
v 6.500 -11.000 -0.500
v 6.500 -10.000 -1.500
v 5.500 -11.000 0.500
v 6.500 -11.000 0.500
v 5.500 -11.000 1.500
v 6.500 -11.000 1.500
v 6.500 -10.000 1.500
v 6.500 -9.000 -1.500
v 6.500 -9.000 1.500
v 5.500 -9.000 -2.500
v 6.500 -9.000 -2.500
v 6.500 -8.000 -2.500
v 5.500 -9.000 2.500
v 6.500 -9.000 2.500
v 6.500 -8.000 2.500
v 6.500 -7.000 -2.500
v 6.500 -7.000 2.500
v 6.500 -6.000 -2.500
v 6.500 -6.000 -1.500
v 6.500 -7.000 -1.500
v 6.500 -7.000 1.500
v 6.500 -6.000 1.500
v 6.500 -6.000 2.500
v 6.500 -5.000 -1.500
v 6.500 -5.000 1.500
v 6.500 -4.000 -1.500
v 6.500 -4.000 -0.500
v 6.500 -5.000 -0.500
v 6.500 -4.000 0.500
v 6.500 -5.000 0.500
v 6.500 -4.000 1.500
v 6.500 -3.000 -1.500
v 6.500 -3.000 -0.500
v 6.500 -3.000 0.500
v 6.500 -3.000 1.500
v 6.500 -2.000 -1.500
v 6.500 -2.000 -0.500
v 6.500 -2.000 0.500
v 6.500 -2.000 1.500
v 6.500 2.000 -1.500
v 6.500 3.000 -1.500
v 6.500 3.000 -0.500
v 6.500 2.000 -0.500
v 6.500 3.000 0.500
v 6.500 2.000 0.500
v 6.500 3.000 1.500
v 6.500 2.000 1.500
v 6.500 4.000 -1.500
v 6.500 4.000 -0.500
v 6.500 4.000 0.500
v 6.500 4.000 1.500
v 6.500 5.000 -1.500
v 6.500 5.000 -0.500
v 6.500 5.000 0.500
v 6.500 5.000 1.500
v 6.500 6.000 -1.500
v 6.500 6.000 1.500
v 6.500 6.000 -2.500
v 6.500 7.000 -2.500
v 6.500 7.000 -1.500
v 6.500 7.000 1.500
v 6.500 7.000 2.500
v 6.500 6.000 2.500
v 6.500 8.000 -2.500
v 6.500 8.000 2.500
v 5.500 9.000 -2.500
v 6.500 9.000 -1.500
v 6.500 9.000 -2.500
v 5.500 9.000 2.500
v 6.500 9.000 2.500
v 6.500 9.000 1.500
v 6.500 10.000 -1.500
v 6.500 10.000 1.500
v 5.500 11.000 -0.500
v 5.500 11.000 -1.500
v 6.500 11.000 -0.500
v 6.500 11.000 -1.500
v 5.500 11.000 0.500
v 6.500 11.000 0.500
v 5.500 11.000 1.500
v 6.500 11.000 1.500
v 7.500 -12.000 -1.500
v 7.500 -11.000 -1.500
v 7.500 -11.000 -0.500
v 7.500 -12.000 -0.500
v 6.500 -12.000 -0.500
v 6.500 -12.000 -1.500
v 7.500 -11.000 0.500
v 7.500 -12.000 0.500
v 6.500 -12.000 0.500
v 7.500 -11.000 1.500
v 7.500 -12.000 1.500
v 6.500 -12.000 1.500
v 7.500 -10.000 -1.500
v 7.500 -10.000 1.500
v 6.500 -10.000 -2.500
v 7.500 -10.000 -2.500
v 7.500 -9.000 -2.500
v 6.500 -10.000 2.500
v 7.500 -10.000 2.500
v 7.500 -9.000 2.500
v 7.500 -8.000 -2.500
v 7.500 -8.000 2.500
v 7.500 -7.000 -2.500
v 7.500 -7.000 -1.500
v 7.500 -8.000 -1.500
v 7.500 -8.000 1.500
v 7.500 -7.000 1.500
v 7.500 -7.000 2.500
v 7.500 -6.000 -1.500
v 7.500 -6.000 1.500
v 7.500 -5.000 -1.500
v 7.500 -5.000 -0.500
v 7.500 -6.000 -0.500
v 7.500 -5.000 0.500
v 7.500 -6.000 0.500
v 7.500 -5.000 1.500
v 7.500 5.000 -1.500
v 7.500 6.000 -1.500
v 7.500 6.000 -0.500
v 7.500 5.000 -0.500
v 7.500 6.000 0.500
v 7.500 5.000 0.500
v 7.500 6.000 1.500
v 7.500 5.000 1.500
v 7.500 7.000 -1.500
v 7.500 7.000 1.500
v 7.500 7.000 -2.500
v 7.500 8.000 -2.500
v 7.500 8.000 -1.500
v 7.500 8.000 1.500
v 7.500 8.000 2.500
v 7.500 7.000 2.500
v 7.500 9.000 -2.500
v 7.500 9.000 2.500
v 6.500 10.000 -2.500
v 7.500 10.000 -1.500
v 7.500 10.000 -2.500
v 6.500 10.000 2.500
v 7.500 10.000 2.500
v 7.500 10.000 1.500
v 7.500 11.000 -1.500
v 7.500 11.000 1.500
v 7.500 12.000 -1.500
v 7.500 12.000 -0.500
v 7.500 11.000 -0.500
v 6.500 12.000 -0.500
v 6.500 12.000 -1.500
v 7.500 12.000 0.500
v 7.500 11.000 0.500
v 6.500 12.000 0.500
v 7.500 12.000 1.500
v 6.500 12.000 1.500
v 8.500 -11.000 -1.500
v 8.500 -11.000 -0.500
v 8.500 -10.000 -1.500
v 8.500 -11.000 0.500
v 8.500 -11.000 1.500
v 8.500 -10.000 1.500
v 8.500 -10.000 -2.500
v 8.500 -9.000 -2.500
v 8.500 -10.000 2.500
v 8.500 -9.000 2.500
v 8.500 -8.000 -2.500
v 8.500 -8.000 -1.500
v 8.500 -9.000 -1.500
v 8.500 -9.000 1.500
v 8.500 -8.000 1.500
v 8.500 -8.000 2.500
v 8.500 -7.000 -1.500
v 8.500 -7.000 1.500
v 8.500 -6.000 -1.500
v 8.500 -6.000 -0.500
v 8.500 -7.000 -0.500
v 8.500 -6.000 0.500
v 8.500 -7.000 0.500
v 8.500 -6.000 1.500
v 8.500 6.000 -1.500
v 8.500 7.000 -1.500
v 8.500 7.000 -0.500
v 8.500 6.000 -0.500
v 8.500 7.000 0.500
v 8.500 6.000 0.500
v 8.500 7.000 1.500
v 8.500 6.000 1.500
v 8.500 8.000 -1.500
v 8.500 8.000 1.500
v 8.500 8.000 -2.500
v 8.500 9.000 -2.500
v 8.500 9.000 -1.500
v 8.500 9.000 1.500
v 8.500 9.000 2.500
v 8.500 8.000 2.500
v 8.500 10.000 -1.500
v 8.500 10.000 -2.500
v 8.500 10.000 2.500
v 8.500 10.000 1.500
v 8.500 11.000 -0.500
v 8.500 11.000 -1.500
v 8.500 11.000 0.500
v 8.500 11.000 1.500
v 9.500 -11.000 -1.500
v 9.500 -11.000 -0.500
v 9.500 -10.000 -1.500
v 9.500 -11.000 0.500
v 9.500 -11.000 1.500
v 9.500 -10.000 1.500
v 9.500 -9.000 -1.500
v 9.500 -9.000 -2.500
v 9.500 -10.000 -2.500
v 9.500 -9.000 2.500
v 9.500 -9.000 1.500
v 9.500 -10.000 2.500
v 9.500 -8.000 -1.500
v 9.500 -8.000 1.500
v 9.500 -7.000 -1.500
v 9.500 -7.000 -0.500
v 9.500 -8.000 -0.500
v 9.500 -7.000 0.500
v 9.500 -8.000 0.500
v 9.500 -7.000 1.500
v 9.500 7.000 -1.500
v 9.500 8.000 -1.500
v 9.500 8.000 -0.500
v 9.500 7.000 -0.500
v 9.500 8.000 0.500
v 9.500 7.000 0.500
v 9.500 8.000 1.500
v 9.500 7.000 1.500
v 9.500 9.000 -1.500
v 9.500 9.000 1.500
v 9.500 10.000 -1.500
v 9.500 10.000 -2.500
v 9.500 9.000 -2.500
v 9.500 10.000 2.500
v 9.500 10.000 1.500
v 9.500 9.000 2.500
v 9.500 11.000 -0.500
v 9.500 11.000 -1.500
v 9.500 11.000 0.500
v 9.500 11.000 1.500
v 10.500 -11.000 -1.500
v 10.500 -11.000 -0.500
v 10.500 -10.000 -1.500
v 10.500 -11.000 0.500
v 10.500 -11.000 1.500
v 10.500 -10.000 1.500
v 10.500 -10.000 -2.500
v 10.500 -9.000 -2.500
v 10.500 -9.000 -1.500
v 10.500 -9.000 1.500
v 10.500 -9.000 2.500
v 10.500 -10.000 2.500
v 10.500 -8.000 -0.500
v 10.500 -8.000 -1.500
v 10.500 -8.000 0.500
v 10.500 -8.000 1.500
v 10.500 8.000 -1.500
v 10.500 8.000 -0.500
v 10.500 9.000 -1.500
v 10.500 8.000 0.500
v 10.500 8.000 1.500
v 10.500 9.000 1.500
v 10.500 9.000 -2.500
v 10.500 10.000 -2.500
v 10.500 10.000 -1.500
v 10.500 10.000 1.500
v 10.500 10.000 2.500
v 10.500 9.000 2.500
v 10.500 11.000 -0.500
v 10.500 11.000 -1.500
v 10.500 11.000 0.500
v 10.500 11.000 1.500
v 11.500 -11.000 -1.500
v 11.500 -11.000 -0.500
v 11.500 -10.000 -1.500
v 11.500 -11.000 0.500
v 11.500 -11.000 1.500
v 11.500 -10.000 1.500
v 11.500 -9.000 -1.500
v 11.500 -9.000 1.500
v 11.500 -8.000 -1.500
v 11.500 -8.000 -0.500
v 11.500 -9.000 -0.500
v 11.500 -8.000 0.500
v 11.500 -9.000 0.500
v 11.500 -8.000 1.500
v 11.500 8.000 -1.500
v 11.500 9.000 -1.500
v 11.500 9.000 -0.500
v 11.500 8.000 -0.500
v 11.500 9.000 0.500
v 11.500 8.000 0.500
v 11.500 9.000 1.500
v 11.500 8.000 1.500
v 11.500 10.000 -1.500
v 11.500 10.000 1.500
v 11.500 11.000 -0.500
v 11.500 11.000 -1.500
v 11.500 11.000 0.500
v 11.500 11.000 1.500
v 12.500 -11.000 -1.500
v 12.500 -11.000 -0.500
v 12.500 -10.000 -1.500
v 12.500 -11.000 0.500
v 12.500 -11.000 1.500
v 12.500 -10.000 1.500
v 12.500 -9.000 -0.500
v 12.500 -9.000 -1.500
v 12.500 -9.000 0.500
v 12.500 -9.000 1.500
v 12.500 9.000 -1.500
v 12.500 9.000 -0.500
v 12.500 10.000 -1.500
v 12.500 9.000 0.500
v 12.500 9.000 1.500
v 12.500 10.000 1.500
v 12.500 11.000 -0.500
v 12.500 11.000 -1.500
v 12.500 11.000 0.500
v 12.500 11.000 1.500
v 13.500 -11.000 -1.500
v 13.500 -10.000 -1.500
v 13.500 -10.000 -0.500
v 13.500 -11.000 -0.500
v 13.500 -10.000 0.500
v 13.500 -11.000 0.500
v 13.500 -10.000 1.500
v 13.500 -11.000 1.500
v 13.500 -9.000 -0.500
v 13.500 -9.000 -1.500
v 13.500 -9.000 0.500
v 13.500 -9.000 1.500
v 13.500 9.000 -1.500
v 13.500 9.000 -0.500
v 13.500 10.000 -1.500
v 13.500 9.000 0.500
v 13.500 9.000 1.500
v 13.500 10.000 1.500
v 13.500 11.000 -1.500
v 13.500 11.000 -0.500
v 13.500 10.000 -0.500
v 13.500 11.000 0.500
v 13.500 10.000 0.500
v 13.500 11.000 1.500
v 14.500 -9.000 -0.500
v 14.500 -9.000 -1.500
v 14.500 -10.000 -1.500
v 14.500 -10.000 -0.500
v 14.500 -9.000 0.500
v 14.500 -10.000 0.500
v 14.500 -9.000 1.500
v 14.500 -10.000 1.500
v 14.500 10.000 -0.500
v 14.500 10.000 -1.500
v 14.500 9.000 -1.500
v 14.500 9.000 -0.500
v 14.500 10.000 0.500
v 14.500 9.000 0.500
v 14.500 10.000 1.500
v 14.500 9.000 1.500
v 15.500 -10.000 -1.500
v 15.500 -9.000 -1.500
v 15.500 -9.000 -0.500
v 15.500 -10.000 -0.500
v 15.500 -9.000 0.500
v 15.500 -10.000 0.500
v 15.500 -9.000 1.500
v 15.500 -10.000 1.500
v 15.500 9.000 -1.500
v 15.500 10.000 -1.500
v 15.500 10.000 -0.500
v 15.500 9.000 -0.500
v 15.500 10.000 0.500
v 15.500 9.000 0.500
v 15.500 10.000 1.500
v 15.500 9.000 1.500
f 1 2 3 4
f 1 4 5 6
f 5 4 3 7
f 8 9 2 1
f 8 1 6 10
f 11 12 9 8
f 11 8 10 13
f 14 15 12 11
f 14 11 13 16
f 17 18 15 14
f 17 14 16 19
f 20 21 18 17
f 20 17 19 22
f 23 24 21 20
f 23 20 22 25
f 23 25 26 24
f 27 28 29 30
f 27 30 31 32
f 31 30 29 33
f 3 34 28 27
f 3 27 32 7
f 2 35 34 3
f 9 36 35 2
f 12 37 36 9
f 15 38 37 12
f 18 39 38 15
f 21 40 39 18
f 24 41 40 21
f 42 43 41 24
f 42 24 26 44
f 45 46 43 42
f 45 42 44 47
f 45 47 48 46
f 29 49 50 51
f 29 51 52 33
f 52 51 50 53
f 28 54 49 29
f 34 55 54 28
f 35 56 55 34
f 36 57 56 35
f 37 58 57 36
f 38 59 58 37
f 39 60 59 38
f 40 61 60 39
f 41 62 61 40
f 43 63 62 41
f 46 64 63 43
f 65 66 64 46
f 65 46 48 67
f 65 67 68 66
f 50 69 70 71
f 50 71 72 53
f 72 71 70 73
f 49 74 69 50
f 54 75 74 49
f 55 76 75 54
f 56 77 76 55
f 57 78 77 56
f 58 79 78 57
f 59 80 79 58
f 60 81 80 59
f 61 82 81 60
f 62 83 82 61
f 63 84 83 62
f 64 85 84 63
f 66 86 85 64
f 87 88 86 66
f 87 66 68 89
f 87 89 90 88
f 69 91 92 70
f 73 70 92 93
f 74 94 91 69
f 75 95 94 74
f 76 96 95 75
f 77 97 96 76
f 78 98 97 77
f 79 99 98 78
f 80 100 99 79
f 81 101 100 80
f 82 102 101 81
f 83 103 102 82
f 84 104 103 83
f 85 105 104 84
f 86 106 105 85
f 88 107 106 86
f 88 90 108 107
f 92 109 110 111
f 92 111 112 93
f 112 111 110 113
f 91 114 109 92
f 94 115 114 91
f 95 116 115 94
f 96 117 116 95
f 97 118 117 96
f 98 119 118 97
f 99 120 119 98
f 100 121 120 99
f 101 122 121 100
f 102 123 122 101
f 103 124 123 102
f 104 125 124 103
f 105 126 125 104
f 106 127 126 105
f 107 128 127 106
f 129 130 128 107
f 129 107 108 131
f 129 131 132 130
f 109 133 134 110
f 113 110 134 135
f 114 136 133 109
f 115 137 136 114
f 116 138 137 115
f 117 139 138 116
f 118 140 139 117
f 119 141 140 118
f 120 142 141 119
f 121 143 142 120
f 122 144 143 121
f 123 145 144 122
f 124 146 145 123
f 125 147 146 124
f 126 148 147 125
f 127 149 148 126
f 128 150 149 127
f 130 151 150 128
f 130 132 152 151
f 133 153 154 134
f 135 134 154 155
f 136 156 153 133
f 137 157 156 136
f 138 158 157 137
f 139 159 158 138
f 140 160 159 139
f 141 161 160 140
f 142 162 161 141
f 143 163 162 142
f 144 164 163 143
f 145 165 164 144
f 146 166 165 145
f 147 167 166 146
f 148 168 167 147
f 149 169 168 148
f 150 170 169 149
f 151 171 170 150
f 151 152 172 171
f 153 173 174 154
f 155 154 174 175
f 156 176 173 153
f 157 177 176 156
f 158 178 177 157
f 159 179 178 158
f 160 180 179 159
f 161 181 180 160
f 162 182 181 161
f 163 183 182 162
f 164 184 183 163
f 165 185 184 164
f 166 186 185 165
f 167 187 186 166
f 168 188 187 167
f 169 189 188 168
f 170 190 189 169
f 171 191 190 170
f 171 172 192 191
f 173 193 194 174
f 175 174 194 195
f 176 196 193 173
f 177 197 196 176
f 178 198 197 177
f 179 199 198 178
f 180 200 199 179
f 181 201 200 180
f 182 202 201 181
f 183 203 202 182
f 184 204 203 183
f 185 205 204 184
f 186 206 205 185
f 187 207 206 186
f 188 208 207 187
f 189 209 208 188
f 190 210 209 189
f 191 211 210 190
f 191 192 212 211
f 193 213 214 194
f 214 213 215 216
f 195 194 214 216
f 196 217 213 193
f 197 218 217 196
f 198 219 218 197
f 199 220 219 198
f 200 221 220 199
f 201 222 221 200
f 202 223 222 201
f 203 224 223 202
f 204 225 224 203
f 205 226 225 204
f 206 227 226 205
f 207 228 227 206
f 208 229 228 207
f 209 230 229 208
f 210 231 230 209
f 211 232 231 210
f 231 232 233 234
f 211 212 233 232
f 217 235 236 213
f 215 213 236 237
f 218 238 235 217
f 219 239 238 218
f 220 240 239 219
f 221 241 240 220
f 222 242 241 221
f 223 243 242 222
f 224 244 243 223
f 225 245 244 224
f 226 246 245 225
f 227 247 246 226
f 228 248 247 227
f 229 249 248 228
f 230 250 249 229
f 231 251 250 230
f 231 234 252 251
f 235 253 254 236
f 254 253 255 256
f 237 236 254 256
f 238 257 253 235
f 239 258 257 238
f 240 259 258 239
f 241 260 259 240
f 242 261 260 241
f 243 262 261 242
f 244 263 262 243
f 245 264 263 244
f 246 265 264 245
f 247 266 265 246
f 248 267 266 247
f 249 268 267 248
f 250 269 268 249
f 251 270 269 250
f 269 270 271 272
f 251 252 271 270
f 257 273 274 253
f 274 273 275 276
f 255 253 274 276
f 258 277 273 257
f 259 278 277 258
f 260 279 278 259
f 261 280 279 260
f 262 281 280 261
f 263 282 281 262
f 264 283 282 263
f 265 284 283 264
f 266 285 284 265
f 267 286 285 266
f 268 287 286 267
f 269 288 287 268
f 287 288 289 290
f 269 272 289 288
f 277 291 292 273
f 292 291 293 294
f 275 273 292 294
f 278 295 291 277
f 291 295 296 293
f 279 297 295 278
f 280 298 297 279
f 281 299 298 280
f 282 300 299 281
f 283 301 300 282
f 284 302 301 283
f 285 303 302 284
f 286 304 303 285
f 303 304 305 306
f 287 307 304 286
f 304 307 308 305
f 287 290 308 307
f 297 309 310 295
f 310 309 311 312
f 296 295 310 312
f 298 313 309 297
f 309 313 314 311
f 299 315 313 298
f 313 315 316 314
f 300 317 315 299
f 315 317 318 316
f 301 319 317 300
f 317 319 320 318
f 302 321 319 301
f 319 321 322 320
f 303 323 321 302
f 321 323 324 322
f 303 306 324 323
f 325 326 327 328
f 329 6 5 330
f 329 330 325 328
f 325 330 5 326
f 328 327 331 332
f 333 10 6 329
f 333 329 328 332
f 332 331 334 335
f 336 13 10 333
f 336 333 332 335
f 335 334 337 338
f 339 16 13 336
f 339 336 335 338
f 338 337 340 341
f 342 19 16 339
f 342 339 338 341
f 341 340 343 344
f 345 22 19 342
f 345 342 341 344
f 344 343 346 347
f 348 25 22 345
f 348 345 344 347
f 348 347 346 25
f 349 350 351 352
f 353 32 31 354
f 353 354 349 352
f 349 354 31 350
f 352 351 355 326
f 5 7 32 353
f 5 353 352 326
f 346 356 357 358
f 359 44 26 25
f 359 25 346 358
f 358 357 360 361
f 362 47 44 359
f 362 359 358 361
f 362 361 360 47
f 363 364 365 350
f 31 33 52 366
f 31 366 363 350
f 363 366 52 364
f 360 367 368 369
f 370 67 48 47
f 370 47 360 369
f 370 369 368 67
f 371 372 373 364
f 52 53 72 374
f 52 374 371 364
f 371 374 72 372
f 368 375 376 377
f 378 89 68 67
f 378 67 368 377
f 378 377 376 89
f 379 380 381 372
f 72 73 382 383
f 72 383 379 372
f 379 383 382 380
f 376 384 385 386
f 387 388 90 89
f 387 89 376 386
f 387 386 385 388
f 380 389 390 381
f 73 93 112 382
f 380 382 112 389
f 384 391 392 385
f 388 131 108 90
f 388 385 392 131
f 393 394 395 389
f 112 113 396 397
f 112 397 393 389
f 393 397 396 394
f 392 398 399 400
f 401 402 132 131
f 401 131 392 400
f 401 400 399 402
f 394 403 404 395
f 113 135 405 396
f 394 396 405 403
f 398 406 407 399
f 402 408 152 132
f 402 399 407 408
f 403 409 410 404
f 135 155 411 405
f 403 405 411 409
f 406 412 413 407
f 408 414 172 152
f 408 407 413 414
f 409 415 416 410
f 155 175 417 411
f 409 411 417 415
f 412 418 419 413
f 414 420 192 172
f 414 413 419 420
f 415 421 422 416
f 175 195 423 417
f 415 417 423 421
f 418 424 425 419
f 420 426 212 192
f 420 419 425 426
f 421 427 428 422
f 195 216 429 423
f 429 216 428 427
f 421 423 429 427
f 424 430 431 425
f 426 432 233 212
f 233 432 431 430
f 426 425 431 432
f 428 433 434 435
f 215 237 436 216
f 428 216 436 433
f 437 438 439 430
f 233 440 252 234
f 233 430 439 440
f 433 441 442 434
f 237 256 443 436
f 443 256 442 441
f 433 436 443 441
f 438 444 445 439
f 440 446 271 252
f 271 446 445 444
f 440 439 445 446
f 442 447 448 449
f 255 276 450 256
f 450 276 448 447
f 442 256 450 447
f 451 452 453 444
f 271 454 289 272
f 289 454 453 452
f 271 444 453 454
f 448 455 456 457
f 275 294 458 276
f 458 294 456 455
f 448 276 458 455
f 459 460 461 452
f 289 462 308 290
f 308 462 461 460
f 289 452 461 462
f 456 463 464 465
f 293 466 467 294
f 467 466 464 463
f 456 294 467 463
f 465 464 468 469
f 296 312 466 293
f 466 312 468 464
f 470 471 472 473
f 305 474 324 306
f 324 474 472 471
f 473 472 475 460
f 308 476 474 305
f 474 476 475 472
f 308 460 475 476
f 468 477 478 479
f 311 480 481 312
f 481 480 478 477
f 468 312 481 477
f 479 478 482 483
f 314 484 480 311
f 480 484 482 478
f 483 482 485 486
f 316 487 484 314
f 484 487 485 482
f 486 485 488 489
f 318 490 487 316
f 487 490 488 485
f 489 488 491 492
f 320 493 490 318
f 490 493 491 488
f 492 491 494 495
f 322 496 493 320
f 493 496 494 491
f 495 494 497 471
f 324 498 496 322
f 496 498 497 494
f 324 471 497 498
f 499 500 501 502
f 327 326 499 502
f 499 326 355 500
f 502 501 503 504
f 331 327 502 504
f 504 503 505 506
f 334 331 504 506
f 506 505 507 508
f 337 334 506 508
f 508 507 509 510
f 340 337 508 510
f 510 509 511 512
f 343 340 510 512
f 512 511 513 514
f 346 343 512 514
f 346 514 513 356
f 515 516 517 518
f 351 350 515 518
f 515 350 365 516
f 518 517 519 500
f 355 351 518 500
f 513 520 521 522
f 357 356 513 522
f 522 521 523 524
f 360 357 522 524
f 360 524 523 367
f 525 526 527 516
f 365 364 525 516
f 525 364 373 526
f 516 527 528 517
f 521 529 530 523
f 523 530 531 532
f 368 367 523 532
f 368 532 531 375
f 533 534 535 526
f 373 372 533 526
f 533 372 381 534
f 526 535 536 527
f 530 537 538 531
f 531 538 539 540
f 376 375 531 540
f 376 540 539 384
f 534 541 542 535
f 534 381 390 541
f 538 543 544 539
f 384 539 544 391
f 545 546 547 541
f 390 389 545 541
f 545 389 395 546
f 544 548 549 550
f 392 391 544 550
f 392 550 549 398
f 546 551 552 547
f 546 395 404 551
f 548 553 554 549
f 398 549 554 406
f 551 555 556 552
f 551 404 410 555
f 553 557 558 554
f 406 554 558 412
f 555 559 560 556
f 555 410 416 559
f 557 561 562 558
f 412 558 562 418
f 559 563 564 560
f 559 416 422 563
f 561 565 566 562
f 418 562 566 424
f 563 567 568 564
f 428 435 568 567
f 563 422 428 567
f 565 569 570 566
f 437 430 570 569
f 424 566 570 430
f 568 571 572 573
f 568 435 434 571
f 574 575 576 569
f 437 569 576 438
f 571 577 578 572
f 442 449 578 577
f 571 434 442 577
f 572 578 579 580
f 581 582 583 575
f 575 583 584 576
f 451 444 584 583
f 438 576 584 444
f 578 585 586 579
f 448 457 586 585
f 578 449 448 585
f 579 586 587 588
f 589 590 591 582
f 582 591 592 583
f 459 452 592 591
f 451 583 592 452
f 586 593 594 587
f 456 465 594 593
f 586 457 456 593
f 587 594 595 596
f 465 469 595 594
f 597 598 599 590
f 470 473 599 598
f 590 599 600 591
f 473 460 600 599
f 459 591 600 460
f 595 601 602 603
f 468 479 602 601
f 595 469 468 601
f 603 602 604 605
f 479 483 604 602
f 605 604 606 607
f 483 486 606 604
f 607 606 608 609
f 486 489 608 606
f 609 608 610 611
f 489 492 610 608
f 611 610 612 613
f 492 495 612 610
f 613 612 614 598
f 495 471 614 612
f 470 598 614 471
f 501 500 615 616
f 615 500 519 617
f 503 501 616 618
f 505 503 618 619
f 507 505 619 620
f 509 507 620 621
f 511 509 621 622
f 513 511 622 623
f 513 623 624 520
f 519 517 625 617
f 625 517 528 626
f 521 520 624 627
f 521 627 628 529
f 528 527 629 626
f 629 527 536 630
f 530 529 628 631
f 530 631 632 537
f 536 535 633 630
f 633 535 542 634
f 538 537 632 635
f 538 635 636 543
f 542 541 637 634
f 637 541 547 638
f 544 543 636 639
f 544 639 640 548
f 638 547 552 641
f 548 640 642 553
f 641 552 556 643
f 553 642 644 557
f 643 556 560 645
f 557 644 646 561
f 645 560 564 647
f 561 646 648 565
f 568 573 649 650
f 647 564 568 650
f 574 569 651 652
f 565 648 651 569
f 572 580 653 654
f 649 573 572 654
f 581 575 655 656
f 574 652 655 575
f 579 588 657 658
f 653 580 579 658
f 589 582 659 660
f 581 656 659 582
f 587 596 661 662
f 657 588 587 662
f 597 590 663 664
f 589 660 663 590
f 595 603 665 666
f 661 596 595 666
f 603 605 667 665
f 605 607 668 667
f 607 609 669 668
f 609 611 670 669
f 611 613 671 670
f 613 598 672 671
f 597 664 672 598
f 673 616 615 674
f 673 674 675 676
f 675 674 615 677
f 678 618 616 673
f 678 673 676 679
f 680 619 618 678
f 680 678 679 681
f 682 620 619 680
f 682 680 681 683
f 684 621 620 682
f 684 682 683 685
f 686 622 621 684
f 686 684 685 687
f 688 623 622 686
f 688 686 687 689
f 688 689 690 623
f 691 625 692 693
f 691 693 694 695
f 694 693 692 696
f 615 617 625 691
f 615 691 695 677
f 697 627 624 623
f 697 623 690 698
f 699 700 627 697
f 699 697 698 701
f 699 701 702 700
f 692 629 703 704
f 692 704 705 696
f 705 704 703 706
f 625 626 629 692
f 700 631 628 627
f 707 708 631 700
f 707 700 702 709
f 707 709 710 708
f 703 633 711 712
f 703 712 713 706
f 713 712 711 714
f 629 630 633 703
f 708 635 632 631
f 715 716 635 708
f 715 708 710 717
f 715 717 718 716
f 633 634 637 711
f 714 711 637 719
f 716 639 636 635
f 716 718 720 639
f 637 638 721 722
f 637 722 723 719
f 723 722 721 724
f 725 726 640 639
f 725 639 720 727
f 725 727 728 726
f 638 641 729 721
f 724 721 729 730
f 726 731 642 640
f 726 728 732 731
f 641 643 733 729
f 730 729 733 734
f 731 735 644 642
f 731 732 736 735
f 643 645 737 733
f 734 733 737 738
f 735 739 646 644
f 735 736 740 739
f 645 647 741 737
f 738 737 741 742
f 739 743 648 646
f 739 740 744 743
f 647 650 745 741
f 745 650 746 747
f 742 741 745 747
f 743 748 651 648
f 651 748 749 750
f 743 744 749 748
f 649 654 751 650
f 746 650 751 752
f 651 753 655 652
f 651 750 754 753
f 654 755 756 751
f 756 755 757 758
f 752 751 756 758
f 653 658 755 654
f 655 759 659 656
f 753 760 759 655
f 759 760 761 762
f 753 754 761 760
f 658 763 764 755
f 764 763 765 766
f 757 755 764 766
f 657 662 763 658
f 659 767 663 660
f 759 768 767 659
f 767 768 769 770
f 759 762 769 768
f 662 771 772 763
f 772 771 773 774
f 765 763 772 774
f 661 666 771 662
f 771 666 775 773
f 663 776 672 664
f 672 776 777 778
f 767 779 776 663
f 776 779 780 777
f 767 770 780 779
f 665 781 782 666
f 782 781 783 784
f 775 666 782 784
f 667 785 781 665
f 781 785 786 783
f 668 787 785 667
f 785 787 788 786
f 669 789 787 668
f 787 789 790 788
f 670 791 789 669
f 789 791 792 790
f 671 793 791 670
f 791 793 794 792
f 672 795 793 671
f 793 795 796 794
f 672 778 796 795
f 676 675 797 798
f 797 675 677 799
f 679 676 798 800
f 681 679 800 801
f 683 681 801 802
f 685 683 802 803
f 687 685 803 804
f 689 687 804 805
f 689 805 806 690
f 695 694 807 808
f 807 694 696 809
f 677 695 808 799
f 698 690 806 810
f 701 698 810 811
f 701 811 812 702
f 696 705 813 809
f 813 705 706 814
f 709 702 812 815
f 709 815 816 710
f 706 713 817 814
f 817 713 714 818
f 717 710 816 819
f 717 819 820 718
f 818 714 719 821
f 718 820 822 720
f 719 723 823 821
f 823 723 724 824
f 727 720 822 825
f 727 825 826 728
f 824 724 730 827
f 728 826 828 732
f 827 730 734 829
f 732 828 830 736
f 829 734 738 831
f 736 830 832 740
f 831 738 742 833
f 740 832 834 744
f 747 746 835 836
f 833 742 747 836
f 750 749 837 838
f 744 834 837 749
f 835 746 752 839
f 750 838 840 754
f 758 757 841 842
f 839 752 758 842
f 762 761 843 844
f 754 840 843 761
f 766 765 845 846
f 841 757 766 846
f 770 769 847 848
f 762 844 847 769
f 774 773 849 850
f 845 765 774 850
f 773 775 851 849
f 778 777 852 853
f 777 780 854 852
f 770 848 854 780
f 784 783 855 856
f 851 775 784 856
f 783 786 857 855
f 786 788 858 857
f 788 790 859 858
f 790 792 860 859
f 792 794 861 860
f 794 796 862 861
f 778 853 862 796
f 863 864 865 866
f 867 798 797 868
f 867 868 863 866
f 863 868 797 864
f 866 865 869 870
f 871 800 798 867
f 871 867 866 870
f 870 869 872 873
f 874 801 800 871
f 874 871 870 873
f 873 872 875 876
f 877 802 801 874
f 877 874 873 876
f 876 875 878 879
f 880 803 802 877
f 880 877 876 879
f 879 878 881 882
f 883 804 803 880
f 883 880 879 882
f 882 881 884 885
f 886 805 804 883
f 886 883 882 885
f 886 885 884 805
f 887 888 889 890
f 891 808 807 892
f 891 892 887 890
f 887 892 807 888
f 890 889 893 864
f 797 799 808 891
f 797 891 890 864
f 884 894 895 896
f 897 810 806 805
f 897 805 884 896
f 896 895 898 899
f 900 811 810 897
f 900 897 896 899
f 900 899 898 811
f 901 902 903 888
f 807 809 813 904
f 807 904 901 888
f 901 904 813 902
f 898 905 906 907
f 908 815 812 811
f 908 811 898 907
f 908 907 906 815
f 909 910 911 902
f 813 814 817 912
f 813 912 909 902
f 909 912 817 910
f 906 913 914 915
f 916 819 816 815
f 916 815 906 915
f 916 915 914 819
f 917 918 919 910
f 817 818 920 921
f 817 921 917 910
f 917 921 920 918
f 914 922 923 924
f 925 926 820 819
f 925 819 914 924
f 925 924 923 926
f 918 927 928 919
f 818 821 823 920
f 918 920 823 927
f 922 929 930 923
f 926 825 822 820
f 926 923 930 825
f 931 932 933 927
f 823 824 934 935
f 823 935 931 927
f 931 935 934 932
f 930 936 937 938
f 939 940 826 825
f 939 825 930 938
f 939 938 937 940
f 932 941 942 933
f 824 827 943 934
f 932 934 943 941
f 936 944 945 937
f 940 946 828 826
f 940 937 945 946
f 941 947 948 942
f 827 829 949 943
f 941 943 949 947
f 944 950 951 945
f 946 952 830 828
f 946 945 951 952
f 947 953 954 948
f 829 831 955 949
f 947 949 955 953
f 950 956 957 951
f 952 958 832 830
f 952 951 957 958
f 953 959 960 954
f 831 833 961 955
f 953 955 961 959
f 956 962 963 957
f 958 964 834 832
f 958 957 963 964
f 959 965 966 960
f 833 836 967 961
f 967 836 966 965
f 959 961 967 965
f 962 968 969 963
f 964 970 837 834
f 837 970 969 968
f 964 963 969 970
f 966 971 972 973
f 835 839 974 836
f 966 836 974 971
f 975 976 977 968
f 837 978 840 838
f 837 968 977 978
f 971 979 980 972
f 839 842 981 974
f 981 842 980 979
f 971 974 981 979
f 976 982 983 977
f 978 984 843 840
f 843 984 983 982
f 978 977 983 984
f 980 985 986 987
f 841 846 988 842
f 988 846 986 985
f 980 842 988 985
f 989 990 991 982
f 843 992 847 844
f 847 992 991 990
f 843 982 991 992
f 986 993 994 995
f 845 850 996 846
f 996 850 994 993
f 986 846 996 993
f 997 998 999 990
f 847 1000 854 848
f 854 1000 999 998
f 847 990 999 1000
f 994 1001 1002 1003
f 849 1004 1005 850
f 1005 1004 1002 1001
f 994 850 1005 1001
f 1003 1002 1006 1007
f 851 856 1004 849
f 1004 856 1006 1002
f 1008 1009 1010 1011
f 852 1012 862 853
f 862 1012 1010 1009
f 1011 1010 1013 998
f 854 1014 1012 852
f 1012 1014 1013 1010
f 854 998 1013 1014
f 1006 1015 1016 1017
f 855 1018 1019 856
f 1019 1018 1016 1015
f 1006 856 1019 1015
f 1017 1016 1020 1021
f 857 1022 1018 855
f 1018 1022 1020 1016
f 1021 1020 1023 1024
f 858 1025 1022 857
f 1022 1025 1023 1020
f 1024 1023 1026 1027
f 859 1028 1025 858
f 1025 1028 1026 1023
f 1027 1026 1029 1030
f 860 1031 1028 859
f 1028 1031 1029 1026
f 1030 1029 1032 1033
f 861 1034 1031 860
f 1031 1034 1032 1029
f 1033 1032 1035 1009
f 862 1036 1034 861
f 1034 1036 1035 1032
f 862 1009 1035 1036
f 865 864 1037 1038
f 1037 864 893 1039
f 869 865 1038 1040
f 872 869 1040 1041
f 875 872 1041 1042
f 878 875 1042 1043
f 881 878 1043 1044
f 884 881 1044 1045
f 884 1045 1046 894
f 889 888 1047 1048
f 1047 888 903 1049
f 893 889 1048 1039
f 895 894 1046 1050
f 898 895 1050 1051
f 898 1051 1052 905
f 903 902 1053 1049
f 1053 902 911 1054
f 906 905 1052 1055
f 906 1055 1056 913
f 911 910 1057 1054
f 1057 910 919 1058
f 914 913 1056 1059
f 914 1059 1060 922
f 1058 919 928 1061
f 922 1060 1062 929
f 928 927 1063 1061
f 1063 927 933 1064
f 930 929 1062 1065
f 930 1065 1066 936
f 1064 933 942 1067
f 936 1066 1068 944
f 1067 942 948 1069
f 944 1068 1070 950
f 1069 948 954 1071
f 950 1070 1072 956
f 1071 954 960 1073
f 956 1072 1074 962
f 966 973 1075 1076
f 1073 960 966 1076
f 975 968 1077 1078
f 962 1074 1077 968
f 1075 973 972 1079
f 975 1078 1080 976
f 980 987 1081 1082
f 1079 972 980 1082
f 989 982 1083 1084
f 976 1080 1083 982
f 986 995 1085 1086
f 1081 987 986 1086
f 997 990 1087 1088
f 989 1084 1087 990
f 994 1003 1089 1090
f 1085 995 994 1090
f 1003 1007 1091 1089
f 1008 1011 1092 1093
f 1011 998 1094 1092
f 997 1088 1094 998
f 1006 1017 1095 1096
f 1091 1007 1006 1096
f 1017 1021 1097 1095
f 1021 1024 1098 1097
f 1024 1027 1099 1098
f 1027 1030 1100 1099
f 1030 1033 1101 1100
f 1033 1009 1102 1101
f 1008 1093 1102 1009
f 1103 1104 1105 1106
f 1038 1037 1103 1106
f 1103 1037 1039 1104
f 1106 1105 1107 1108
f 1040 1038 1106 1108
f 1108 1107 1109 1110
f 1041 1040 1108 1110
f 1110 1109 1111 1112
f 1042 1041 1110 1112
f 1112 1111 1113 1114
f 1043 1042 1112 1114
f 1114 1113 1115 1116
f 1044 1043 1114 1116
f 1116 1115 1117 1118
f 1045 1044 1116 1118
f 1045 1118 1117 1046
f 1119 1120 1121 1122
f 1048 1047 1119 1122
f 1119 1047 1049 1120
f 1122 1121 1123 1104
f 1039 1048 1122 1104
f 1104 1123 1124 1105
f 1105 1124 1125 1107
f 1107 1125 1126 1109
f 1109 1126 1127 1111
f 1111 1127 1128 1113
f 1113 1128 1129 1115
f 1115 1129 1130 1117
f 1117 1130 1131 1132
f 1050 1046 1117 1132
f 1132 1131 1133 1134
f 1051 1050 1132 1134
f 1051 1134 1133 1052
f 1135 1136 1137 1120
f 1049 1053 1135 1120
f 1135 1053 1054 1136
f 1120 1137 1138 1121
f 1121 1138 1139 1123
f 1123 1139 1140 1124
f 1124 1140 1141 1125
f 1125 1141 1142 1126
f 1126 1142 1143 1127
f 1127 1143 1144 1128
f 1128 1144 1145 1129
f 1129 1145 1146 1130
f 1130 1146 1147 1131
f 1131 1147 1148 1133
f 1133 1148 1149 1150
f 1055 1052 1133 1150
f 1055 1150 1149 1056
f 1151 1152 1153 1136
f 1054 1057 1151 1136
f 1151 1057 1058 1152
f 1136 1153 1154 1137
f 1137 1154 1155 1138
f 1138 1155 1156 1139
f 1139 1156 1157 1140
f 1140 1157 1158 1141
f 1141 1158 1159 1142
f 1142 1159 1160 1143
f 1143 1160 1161 1144
f 1144 1161 1162 1145
f 1145 1162 1163 1146
f 1146 1163 1164 1147
f 1147 1164 1165 1148
f 1148 1165 1166 1149
f 1149 1166 1167 1168
f 1059 1056 1149 1168
f 1059 1168 1167 1060
f 1152 1169 1170 1153
f 1152 1058 1061 1169
f 1153 1170 1171 1154
f 1154 1171 1172 1155
f 1155 1172 1173 1156
f 1156 1173 1174 1157
f 1157 1174 1175 1158
f 1158 1175 1176 1159
f 1159 1176 1177 1160
f 1160 1177 1178 1161
f 1161 1178 1179 1162
f 1162 1179 1180 1163
f 1163 1180 1181 1164
f 1164 1181 1182 1165
f 1165 1182 1183 1166
f 1166 1183 1184 1167
f 1060 1167 1184 1062
f 1185 1186 1187 1169
f 1061 1063 1185 1169
f 1185 1063 1064 1186
f 1169 1187 1188 1170
f 1170 1188 1189 1171
f 1171 1189 1190 1172
f 1172 1190 1191 1173
f 1173 1191 1192 1174
f 1174 1192 1193 1175
f 1175 1193 1194 1176
f 1176 1194 1195 1177
f 1177 1195 1196 1178
f 1178 1196 1197 1179
f 1179 1197 1198 1180
f 1180 1198 1199 1181
f 1181 1199 1200 1182
f 1182 1200 1201 1183
f 1183 1201 1202 1184
f 1184 1202 1203 1204
f 1065 1062 1184 1204
f 1065 1204 1203 1066
f 1186 1205 1206 1187
f 1186 1064 1067 1205
f 1187 1206 1207 1188
f 1188 1207 1208 1189
f 1189 1208 1209 1190
f 1190 1209 1210 1191
f 1191 1210 1211 1192
f 1192 1211 1212 1193
f 1196 1213 1214 1197
f 1197 1214 1215 1198
f 1198 1215 1216 1199
f 1199 1216 1217 1200
f 1200 1217 1218 1201
f 1201 1218 1219 1202
f 1202 1219 1220 1203
f 1066 1203 1220 1068
f 1205 1221 1222 1206
f 1205 1067 1069 1221
f 1206 1222 1223 1207
f 1207 1223 1224 1208
f 1208 1224 1225 1209
f 1209 1225 1226 1210
f 1210 1226 1227 1211
f 1214 1228 1229 1215
f 1215 1229 1230 1216
f 1216 1230 1231 1217
f 1217 1231 1232 1218
f 1218 1232 1233 1219
f 1219 1233 1234 1220
f 1068 1220 1234 1070
f 1221 1235 1236 1222
f 1221 1069 1071 1235
f 1222 1236 1237 1223
f 1223 1237 1238 1224
f 1224 1238 1239 1225
f 1225 1239 1240 1226
f 1226 1240 1241 1227
f 1228 1242 1243 1229
f 1229 1243 1244 1230
f 1230 1244 1245 1231
f 1231 1245 1246 1232
f 1232 1246 1247 1233
f 1233 1247 1248 1234
f 1070 1234 1248 1072
f 1235 1249 1250 1236
f 1235 1071 1073 1249
f 1236 1250 1251 1237
f 1237 1251 1252 1238
f 1238 1252 1253 1239
f 1239 1253 1254 1240
f 1240 1254 1255 1241
f 1241 1255 1256 1257
f 1258 1259 1260 1242
f 1242 1260 1261 1243
f 1243 1261 1262 1244
f 1244 1262 1263 1245
f 1245 1263 1264 1246
f 1246 1264 1265 1247
f 1247 1265 1266 1248
f 1072 1248 1266 1074
f 1249 1267 1268 1250
f 1076 1075 1268 1267
f 1249 1073 1076 1267
f 1250 1268 1269 1251
f 1251 1269 1270 1252
f 1252 1270 1271 1253
f 1253 1271 1272 1254
f 1254 1272 1273 1255
f 1255 1273 1274 1256
f 1256 1274 1275 1276
f 1276 1275 1277 1278
f 1278 1277 1279 1259
f 1259 1279 1280 1260
f 1260 1280 1281 1261
f 1261 1281 1282 1262
f 1262 1282 1283 1263
f 1263 1283 1284 1264
f 1264 1284 1285 1265
f 1265 1285 1286 1266
f 1078 1077 1286 1285
f 1074 1266 1286 1077
f 1268 1287 1288 1269
f 1268 1075 1079 1287
f 1269 1288 1289 1270
f 1270 1289 1290 1271
f 1271 1290 1291 1272
f 1272 1291 1292 1273
f 1273 1292 1293 1274
f 1274 1293 1294 1275
f 1275 1294 1295 1277
f 1277 1295 1296 1279
f 1279 1296 1297 1280
f 1280 1297 1298 1281
f 1281 1298 1299 1282
f 1282 1299 1300 1283
f 1283 1300 1301 1284
f 1284 1301 1302 1285
f 1078 1285 1302 1080
f 1287 1303 1304 1288
f 1082 1081 1304 1303
f 1287 1079 1082 1303
f 1288 1304 1305 1289
f 1289 1305 1306 1290
f 1290 1306 1307 1291
f 1291 1307 1308 1292
f 1292 1308 1309 1293
f 1293 1309 1310 1294
f 1294 1310 1311 1295
f 1295 1311 1312 1296
f 1296 1312 1313 1297
f 1297 1313 1314 1298
f 1298 1314 1315 1299
f 1299 1315 1316 1300
f 1300 1316 1317 1301
f 1301 1317 1318 1302
f 1084 1083 1318 1317
f 1080 1302 1318 1083
f 1304 1319 1320 1305
f 1086 1085 1320 1319
f 1304 1081 1086 1319
f 1305 1320 1321 1306
f 1306 1321 1322 1307
f 1307 1322 1323 1308
f 1308 1323 1324 1309
f 1309 1324 1325 1310
f 1310 1325 1326 1311
f 1311 1326 1327 1312
f 1312 1327 1328 1313
f 1313 1328 1329 1314
f 1314 1329 1330 1315
f 1315 1330 1331 1316
f 1316 1331 1332 1317
f 1088 1087 1332 1331
f 1084 1317 1332 1087
f 1320 1333 1334 1321
f 1090 1089 1334 1333
f 1320 1085 1090 1333
f 1321 1334 1335 1322
f 1089 1091 1335 1334
f 1322 1335 1336 1323
f 1323 1336 1337 1324
f 1324 1337 1338 1325
f 1325 1338 1339 1326
f 1326 1339 1340 1327
f 1327 1340 1341 1328
f 1328 1341 1342 1329
f 1329 1342 1343 1330
f 1093 1092 1343 1342
f 1330 1343 1344 1331
f 1092 1094 1344 1343
f 1088 1331 1344 1094
f 1335 1345 1346 1336
f 1096 1095 1346 1345
f 1335 1091 1096 1345
f 1336 1346 1347 1337
f 1095 1097 1347 1346
f 1337 1347 1348 1338
f 1097 1098 1348 1347
f 1338 1348 1349 1339
f 1098 1099 1349 1348
f 1339 1349 1350 1340
f 1099 1100 1350 1349
f 1340 1350 1351 1341
f 1100 1101 1351 1350
f 1341 1351 1352 1342
f 1101 1102 1352 1351
f 1093 1342 1352 1102
f 1194 1193 1353 1354
f 1353 1193 1212 1355
f 1195 1194 1354 1356
f 1196 1195 1356 1357
f 1196 1357 1358 1213
f 1212 1211 1359 1355
f 1359 1211 1227 1360
f 1214 1213 1358 1361
f 1214 1361 1362 1228
f 1241 1257 1363 1364
f 1360 1227 1241 1364
f 1258 1242 1365 1366
f 1228 1362 1365 1242
f 1256 1276 1367 1368
f 1363 1257 1256 1368
f 1276 1278 1369 1367
f 1278 1259 1370 1369
f 1258 1366 1370 1259
f 1354 1353 1371 1372
f 1371 1353 1355 1373
f 1356 1354 1372 1374
f 1357 1356 1374 1375
f 1357 1375 1376 1358
f 1355 1359 1377 1373
f 1377 1359 1360 1378
f 1361 1358 1376 1379
f 1361 1379 1380 1362
f 1364 1363 1381 1382
f 1378 1360 1364 1382
f 1366 1365 1383 1384
f 1362 1380 1383 1365
f 1368 1367 1385 1386
f 1381 1363 1368 1386
f 1367 1369 1387 1385
f 1369 1370 1388 1387
f 1366 1384 1388 1370
f 1372 1371 1389 1390
f 1389 1371 1373 1391
f 1374 1372 1390 1392
f 1375 1374 1392 1393
f 1375 1393 1394 1376
f 1373 1377 1395 1391
f 1395 1377 1378 1396
f 1379 1376 1394 1397
f 1379 1397 1398 1380
f 1382 1381 1399 1400
f 1396 1378 1382 1400
f 1384 1383 1401 1402
f 1380 1398 1401 1383
f 1386 1385 1403 1404
f 1399 1381 1386 1404
f 1385 1387 1405 1403
f 1387 1388 1406 1405
f 1384 1402 1406 1388
f 1390 1389 1407 1408
f 1407 1389 1391 1409
f 1392 1390 1408 1410
f 1393 1392 1410 1411
f 1393 1411 1412 1394
f 1391 1395 1413 1409
f 1413 1395 1396 1414
f 1397 1394 1412 1415
f 1397 1415 1416 1398
f 1400 1399 1417 1418
f 1414 1396 1400 1418
f 1402 1401 1419 1420
f 1398 1416 1419 1401
f 1404 1403 1421 1422
f 1417 1399 1404 1422
f 1403 1405 1423 1421
f 1405 1406 1424 1423
f 1402 1420 1424 1406
f 1408 1407 1425 1426
f 1425 1407 1409 1427
f 1410 1408 1426 1428
f 1411 1410 1428 1429
f 1411 1429 1430 1412
f 1409 1413 1431 1427
f 1431 1413 1414 1432
f 1415 1412 1430 1433
f 1415 1433 1434 1416
f 1418 1417 1435 1436
f 1432 1414 1418 1436
f 1420 1419 1437 1438
f 1416 1434 1437 1419
f 1422 1421 1439 1440
f 1435 1417 1422 1440
f 1421 1423 1441 1439
f 1423 1424 1442 1441
f 1420 1438 1442 1424
f 1426 1425 1443 1444
f 1443 1425 1427 1445
f 1428 1426 1444 1446
f 1429 1428 1446 1447
f 1429 1447 1448 1430
f 1427 1431 1449 1445
f 1449 1431 1432 1450
f 1433 1430 1448 1451
f 1433 1451 1452 1434
f 1436 1435 1453 1454
f 1450 1432 1436 1454
f 1438 1437 1455 1456
f 1434 1452 1455 1437
f 1440 1439 1457 1458
f 1453 1435 1440 1458
f 1439 1441 1459 1457
f 1441 1442 1460 1459
f 1438 1456 1460 1442
f 1461 1462 1463 1464
f 1461 1464 1465 1466
f 1465 1464 1463 1467
f 1468 1469 1462 1461
f 1468 1461 1466 1470
f 1471 1472 1469 1468
f 1471 1468 1470 1473
f 1471 1473 1474 1472
f 1462 1475 1476 1463
f 1467 1463 1476 1477
f 1469 1478 1475 1462
f 1472 1479 1478 1469
f 1472 1474 1480 1479
f 1475 1444 1443 1476
f 1477 1476 1443 1481
f 1478 1446 1444 1475
f 1479 1447 1446 1478
f 1479 1480 1482 1447
f 1481 1443 1445 1483
f 1447 1482 1484 1448
f 1445 1449 1485 1483
f 1485 1449 1450 1486
f 1451 1448 1484 1487
f 1451 1487 1488 1452
f 1454 1453 1489 1490
f 1486 1450 1454 1490
f 1456 1455 1491 1492
f 1452 1488 1491 1455
f 1489 1453 1458 1493
f 1456 1492 1494 1460
f 1457 1495 1496 1458
f 1493 1458 1496 1497
f 1459 1498 1495 1457
f 1460 1499 1498 1459
f 1460 1494 1500 1499
f 1495 1501 1502 1496
f 1497 1496 1502 1503
f 1498 1504 1501 1495
f 1499 1505 1504 1498
f 1499 1500 1506 1505
f 1501 1507 1508 1502
f 1508 1507 1509 1510
f 1503 1502 1508 1510
f 1504 1511 1507 1501
f 1507 1511 1512 1509
f 1505 1513 1511 1504
f 1511 1513 1514 1512
f 1505 1506 1514 1513
f 1515 1466 1465 1516
f 1515 1516 1517 1518
f 1517 1516 1465 1519
f 1520 1470 1466 1515
f 1520 1515 1518 1521
f 1522 1473 1470 1520
f 1522 1520 1521 1523
f 1522 1523 1524 1473
f 1519 1465 1467 1525
f 1473 1524 1526 1474
f 1467 1477 1527 1528
f 1467 1528 1529 1525
f 1529 1528 1527 1530
f 1531 1532 1480 1474
f 1531 1474 1526 1533
f 1531 1533 1534 1532
f 1477 1481 1535 1527
f 1530 1527 1535 1536
f 1532 1537 1482 1480
f 1532 1534 1538 1537
f 1481 1483 1485 1535
f 1536 1535 1485 1539
f 1537 1487 1484 1482
f 1537 1538 1540 1487
f 1539 1485 1486 1541
f 1487 1540 1542 1488
f 1541 1486 1490 1543
f 1488 1542 1544 1491
f 1489 1493 1545 1490
f 1543 1490 1545 1546
f 1491 1547 1494 1492
f 1491 1544 1548 1547
f 1493 1497 1549 1545
f 1546 1545 1549 1550
f 1547 1551 1500 1494
f 1547 1548 1552 1551
f 1497 1503 1553 1549
f 1553 1503 1554 1555
f 1550 1549 1553 1555
f 1551 1556 1506 1500
f 1506 1556 1557 1558
f 1551 1552 1557 1556
f 1554 1503 1510 1559
f 1506 1558 1560 1514
f 1509 1561 1562 1510
f 1562 1561 1563 1564
f 1559 1510 1562 1564
f 1512 1565 1561 1509
f 1561 1565 1566 1563
f 1514 1567 1565 1512
f 1565 1567 1568 1566
f 1514 1560 1568 1567
f 1569 1570 1571 1572
f 1569 1572 1573 1574
f 1573 1572 1571 1575
f 1576 1577 1570 1569
f 1576 1569 1574 1578
f 1579 1580 1577 1576
f 1579 1576 1578 1581
f 1579 1581 1582 1580
f 1570 1518 1517 1571
f 1575 1571 1517 1583
f 1577 1521 1518 1570
f 1580 1523 1521 1577
f 1580 1582 1584 1523
f 1583 1517 1519 1585
f 1523 1584 1586 1524
f 1519 1525 1529 1587
f 1519 1587 1588 1585
f 1588 1587 1529 1589
f 1590 1533 1526 1524
f 1590 1524 1586 1591
f 1590 1591 1592 1533
f 1589 1529 1530 1593
f 1533 1592 1594 1534
f 1595 1596 1597 1598
f 1595 1598 1599 1600
f 1599 1598 1597 1601
f 1530 1536 1596 1595
f 1530 1595 1600 1593
f 1602 1603 1538 1534
f 1602 1534 1594 1604
f 1605 1606 1603 1602
f 1605 1602 1604 1607
f 1605 1607 1608 1606
f 1596 1609 1610 1597
f 1601 1597 1610 1611
f 1536 1539 1609 1596
f 1603 1612 1540 1538
f 1606 1613 1612 1603
f 1606 1608 1614 1613
f 1609 1615 1616 1610
f 1611 1610 1616 1617
f 1539 1541 1615 1609
f 1612 1618 1542 1540
f 1613 1619 1618 1612
f 1613 1614 1620 1619
f 1615 1621 1622 1616
f 1617 1616 1622 1623
f 1541 1543 1621 1615
f 1618 1624 1544 1542
f 1619 1625 1624 1618
f 1619 1620 1626 1625
f 1621 1627 1628 1622
f 1623 1622 1628 1629
f 1543 1546 1627 1621
f 1624 1630 1548 1544
f 1625 1631 1630 1624
f 1625 1626 1632 1631
f 1627 1633 1634 1628
f 1634 1633 1635 1636
f 1629 1628 1634 1636
f 1546 1550 1633 1627
f 1633 1550 1637 1635
f 1630 1638 1552 1548
f 1552 1638 1639 1640
f 1631 1641 1638 1630
f 1638 1641 1642 1639
f 1631 1632 1642 1641
f 1637 1550 1555 1643
f 1552 1640 1644 1557
f 1554 1559 1645 1555
f 1645 1559 1646 1647
f 1643 1555 1645 1647
f 1557 1648 1560 1558
f 1560 1648 1649 1650
f 1557 1644 1649 1648
f 1646 1559 1564 1651
f 1560 1650 1652 1568
f 1563 1653 1654 1564
f 1651 1564 1654 1655
f 1566 1656 1653 1563
f 1568 1657 1656 1566
f 1568 1652 1658 1657
f 1653 1659 1660 1654
f 1660 1659 1661 1662
f 1655 1654 1660 1662
f 1656 1663 1659 1653
f 1659 1663 1664 1661
f 1657 1665 1663 1656
f 1663 1665 1666 1664
f 1657 1658 1666 1665
f 1574 1573 1667 1668
f 1667 1573 1575 1669
f 1578 1574 1668 1670
f 1581 1578 1670 1671
f 1581 1671 1672 1582
f 1575 1583 1673 1674
f 1575 1674 1675 1669
f 1675 1674 1673 1676
f 1677 1678 1584 1582
f 1677 1582 1672 1679
f 1677 1679 1680 1678
f 1583 1585 1588 1673
f 1676 1673 1588 1681
f 1678 1591 1586 1584
f 1678 1680 1682 1591
f 1681 1588 1589 1683
f 1591 1682 1684 1592
f 1685 1686 1687 1688
f 1689 1600 1599 1690
f 1689 1690 1685 1688
f 1685 1690 1599 1686
f 1688 1687 1691 1683
f 1589 1593 1600 1689
f 1589 1689 1688 1683
f 1684 1692 1693 1694
f 1695 1604 1594 1592
f 1695 1592 1684 1694
f 1694 1693 1696 1697
f 1698 1607 1604 1695
f 1698 1695 1694 1697
f 1698 1697 1696 1607
f 1686 1699 1700 1687
f 1686 1599 1601 1699
f 1687 1700 1701 1691
f 1692 1702 1703 1693
f 1693 1703 1704 1696
f 1607 1696 1704 1608
f 1699 1705 1706 1700
f 1699 1601 1611 1705
f 1700 1706 1707 1701
f 1702 1708 1709 1703
f 1703 1709 1710 1704
f 1608 1704 1710 1614
f 1705 1711 1712 1706
f 1705 1611 1617 1711
f 1706 1712 1713 1707
f 1708 1714 1715 1709
f 1709 1715 1716 1710
f 1614 1710 1716 1620
f 1711 1717 1718 1712
f 1711 1617 1623 1717
f 1712 1718 1719 1713
f 1714 1720 1721 1715
f 1715 1721 1722 1716
f 1620 1716 1722 1626
f 1717 1723 1724 1718
f 1717 1623 1629 1723
f 1718 1724 1725 1719
f 1720 1726 1727 1721
f 1721 1727 1728 1722
f 1626 1722 1728 1632
f 1723 1729 1730 1724
f 1723 1629 1636 1729
f 1724 1730 1731 1725
f 1726 1732 1733 1727
f 1727 1733 1734 1728
f 1632 1728 1734 1642
f 1729 1735 1736 1730
f 1635 1737 1738 1636
f 1738 1737 1736 1735
f 1729 1636 1738 1735
f 1730 1736 1739 1731
f 1637 1643 1737 1635
f 1737 1643 1739 1736
f 1732 1740 1741 1733
f 1639 1742 1644 1640
f 1644 1742 1741 1740
f 1733 1741 1743 1734
f 1642 1744 1742 1639
f 1742 1744 1743 1741
f 1642 1734 1743 1744
f 1739 1643 1647 1745
f 1644 1740 1746 1649
f 1646 1651 1747 1647
f 1745 1647 1747 1748
f 1649 1749 1652 1650
f 1649 1746 1750 1749
f 1651 1655 1751 1747
f 1751 1655 1752 1753
f 1748 1747 1751 1753
f 1749 1754 1658 1652
f 1658 1754 1755 1756
f 1749 1750 1755 1754
f 1662 1661 1757 1758
f 1752 1655 1662 1758
f 1661 1664 1759 1757
f 1664 1666 1760 1759
f 1658 1756 1760 1666
f 1761 1668 1667 1762
f 1761 1762 1763 1764
f 1763 1762 1667 1765
f 1766 1670 1668 1761
f 1766 1761 1764 1767
f 1768 1671 1670 1766
f 1768 1766 1767 1769
f 1768 1769 1770 1671
f 1765 1667 1669 1771
f 1671 1770 1772 1672
f 1669 1675 1773 1771
f 1773 1675 1676 1774
f 1679 1672 1772 1775
f 1679 1775 1776 1680
f 1777 1778 1779 1780
f 1781 1782 1783 1784
f 1781 1784 1777 1780
f 1777 1784 1783 1778
f 1780 1779 1785 1774
f 1676 1681 1782 1781
f 1676 1781 1780 1774
f 1776 1786 1787 1788
f 1789 1790 1682 1680
f 1789 1680 1776 1788
f 1788 1787 1791 1792
f 1793 1794 1790 1789
f 1793 1789 1788 1792
f 1793 1792 1791 1794
f 1778 1795 1796 1779
f 1782 1688 1685 1783
f 1685 1688 1796 1795
f 1778 1783 1685 1795
f 1779 1796 1797 1785
f 1681 1683 1688 1782
f 1688 1683 1797 1796
f 1786 1798 1799 1787
f 1790 1694 1684 1682
f 1684 1694 1799 1798
f 1787 1799 1800 1791
f 1794 1697 1694 1790
f 1694 1697 1800 1799
f 1794 1791 1800 1697
f 1797 1683 1691 1801
f 1684 1798 1802 1692
f 1801 1803 1804 1805
f 1801 1691 1701 1803
f 1806 1807 1808 1802
f 1692 1802 1808 1702
f 1803 1809 1810 1804
f 1803 1701 1707 1809
f 1807 1811 1812 1808
f 1702 1808 1812 1708
f 1809 1813 1814 1810
f 1809 1707 1713 1813
f 1811 1815 1816 1812
f 1708 1812 1816 1714
f 1813 1817 1818 1814
f 1813 1713 1719 1817
f 1815 1819 1820 1816
f 1714 1816 1820 1720
f 1817 1821 1822 1818
f 1817 1719 1725 1821
f 1819 1823 1824 1820
f 1720 1820 1824 1726
f 1821 1825 1826 1822
f 1821 1725 1731 1825
f 1823 1827 1828 1824
f 1726 1824 1828 1732
f 1825 1731 1739 1829
f 1732 1828 1830 1740
f 1831 1832 1833 1834
f 1736 1835 1836 1735
f 1736 1735 1831 1834
f 1831 1735 1836 1832
f 1834 1833 1837 1829
f 1739 1745 1835 1736
f 1739 1736 1834 1829
f 1830 1838 1839 1840
f 1741 1841 1746 1740
f 1741 1740 1830 1840
f 1840 1839 1842 1843
f 1743 1844 1841 1741
f 1743 1741 1840 1843
f 1743 1843 1842 1844
f 1832 1845 1846 1833
f 1835 1847 1848 1836
f 1848 1847 1846 1845
f 1832 1836 1848 1845
f 1833 1846 1849 1837
f 1745 1748 1847 1835
f 1847 1748 1849 1846
f 1838 1850 1851 1839
f 1841 1852 1750 1746
f 1750 1852 1851 1850
f 1839 1851 1853 1842
f 1844 1854 1852 1841
f 1852 1854 1853 1851
f 1844 1842 1853 1854
f 1753 1752 1855 1856
f 1849 1748 1753 1856
f 1756 1755 1857 1858
f 1750 1850 1857 1755
f 1855 1752 1758 1859
f 1756 1858 1860 1760
f 1757 1861 1862 1758
f 1862 1861 1863 1864
f 1859 1758 1862 1864
f 1759 1865 1861 1757
f 1861 1865 1866 1863
f 1760 1867 1865 1759
f 1865 1867 1868 1866
f 1760 1860 1868 1867
f 1869 1764 1763 1870
f 1869 1870 1871 1872
f 1871 1870 1763 1873
f 1874 1767 1764 1869
f 1874 1869 1872 1875
f 1876 1769 1767 1874
f 1876 1874 1875 1877
f 1876 1877 1878 1769
f 1873 1763 1765 1879
f 1769 1878 1880 1770
f 1765 1771 1773 1881
f 1765 1881 1882 1879
f 1882 1881 1773 1883
f 1884 1775 1772 1770
f 1884 1770 1880 1885
f 1884 1885 1886 1775
f 1883 1773 1774 1887
f 1775 1886 1888 1776
f 1887 1889 1890 1891
f 1887 1774 1785 1889
f 1892 1893 1894 1888
f 1776 1888 1894 1786
f 1889 1895 1896 1890
f 1889 1785 1797 1895
f 1893 1897 1898 1894
f 1786 1894 1898 1798
f 1895 1899 1900 1896
f 1801 1805 1900 1899
f 1895 1797 1801 1899
f 1897 1901 1902 1898
f 1806 1802 1902 1901
f 1798 1898 1902 1802
f 1900 1805 1804 1903
f 1806 1901 1904 1807
f 1903 1905 1906 1907
f 1903 1804 1810 1905
f 1907 1906 1908 1909
f 1909 1908 1910 1904
f 1807 1904 1910 1811
f 1905 1911 1912 1906
f 1905 1810 1814 1911
f 1906 1912 1913 1908
f 1908 1913 1914 1910
f 1811 1910 1914 1815
f 1911 1915 1916 1912
f 1911 1814 1818 1915
f 1912 1916 1917 1913
f 1913 1917 1918 1914
f 1815 1914 1918 1819
f 1915 1919 1920 1916
f 1915 1818 1822 1919
f 1916 1920 1921 1917
f 1917 1921 1922 1918
f 1819 1918 1922 1823
f 1919 1822 1826 1923
f 1823 1922 1924 1827
f 1925 1926 1927 1923
f 1826 1825 1925 1923
f 1925 1825 1829 1926
f 1924 1928 1929 1930
f 1828 1827 1924 1930
f 1828 1930 1929 1830
f 1926 1931 1932 1927
f 1926 1829 1837 1931
f 1928 1933 1934 1929
f 1830 1929 1934 1838
f 1931 1935 1936 1932
f 1931 1837 1849 1935
f 1933 1937 1938 1934
f 1838 1934 1938 1850
f 1935 1849 1856 1939
f 1850 1938 1940 1857
f 1855 1859 1941 1856
f 1941 1859 1942 1943
f 1939 1856 1941 1943
f 1857 1944 1860 1858
f 1860 1944 1945 1946
f 1857 1940 1945 1944
f 1942 1859 1864 1947
f 1860 1946 1948 1868
f 1863 1949 1950 1864
f 1950 1949 1951 1952
f 1947 1864 1950 1952
f 1866 1953 1949 1863
f 1949 1953 1954 1951
f 1868 1955 1953 1866
f 1953 1955 1956 1954
f 1868 1948 1956 1955
f 1957 1872 1871 1958
f 1957 1958 1959 1960
f 1959 1958 1871 1961
f 1962 1875 1872 1957
f 1962 1957 1960 1963
f 1964 1877 1875 1962
f 1964 1962 1963 1965
f 1964 1965 1966 1877
f 1961 1871 1873 1967
f 1877 1966 1968 1878
f 1873 1879 1882 1969
f 1873 1969 1970 1967
f 1970 1969 1882 1971
f 1972 1885 1880 1878
f 1972 1878 1968 1973
f 1972 1973 1974 1885
f 1971 1882 1883 1975
f 1885 1974 1976 1886
f 1975 1977 1978 1979
f 1887 1891 1978 1977
f 1975 1883 1887 1977
f 1980 1981 1982 1976
f 1892 1888 1982 1981
f 1886 1976 1982 1888
f 1978 1891 1890 1983
f 1892 1981 1984 1893
f 1983 1985 1986 1987
f 1983 1890 1896 1985
f 1987 1986 1988 1989
f 1989 1988 1990 1984
f 1893 1984 1990 1897
f 1985 1991 1992 1986
f 1985 1896 1900 1991
f 1986 1992 1993 1988
f 1988 1993 1994 1990
f 1897 1990 1994 1901
f 1991 1995 1996 1992
f 1903 1907 1996 1995
f 1991 1900 1903 1995
f 1992 1996 1997 1993
f 1907 1909 1997 1996
f 1993 1997 1998 1994
f 1909 1904 1998 1997
f 1901 1994 1998 1904
f 1999 2000 2001 2002
f 1920 1919 1999 2002
f 1999 1919 1923 2000
f 2002 2001 2003 2004
f 1921 1920 2002 2004
f 2004 2003 2005 2006
f 1922 1921 2004 2006
f 1922 2006 2005 1924
f 2000 2007 2008 2001
f 2000 1923 1927 2007
f 2001 2008 2009 2003
f 2003 2009 2010 2005
f 1924 2005 2010 1928
f 2007 2011 2012 2008
f 2007 1927 1932 2011
f 2008 2012 2013 2009
f 2009 2013 2014 2010
f 1928 2010 2014 1933
f 2011 1932 1936 2015
f 1933 2014 2016 1937
f 2017 2018 2019 2015
f 1936 1935 2017 2015
f 2017 1935 1939 2018
f 2016 2020 2021 2022
f 1938 1937 2016 2022
f 1938 2022 2021 1940
f 2018 1939 1943 2023
f 1940 2021 2024 1945
f 1942 1947 2025 1943
f 2025 1947 2026 2027
f 2023 1943 2025 2027
f 1945 2028 1948 1946
f 1948 2028 2029 2030
f 1945 2024 2029 2028
f 2026 1947 1952 2031
f 1948 2030 2032 1956
f 1951 2033 2034 1952
f 2034 2033 2035 2036
f 2031 1952 2034 2036
f 1954 2037 2033 1951
f 2033 2037 2038 2035
f 1956 2039 2037 1954
f 2037 2039 2040 2038
f 1956 2032 2040 2039
f 2041 2042 2043 2044
f 2045 1960 1959 2046
f 2045 2046 2041 2044
f 2041 2046 1959 2042
f 2044 2043 2047 2048
f 2049 1963 1960 2045
f 2049 2045 2044 2048
f 2048 2047 2050 2051
f 2052 1965 1963 2049
f 2052 2049 2048 2051
f 2052 2051 2050 1965
f 2042 1959 1961 2053
f 1965 2050 2054 1966
f 1961 1967 1970 2055
f 1961 2055 2056 2053
f 2056 2055 1970 2057
f 2058 1973 1968 1966
f 2058 1966 2054 2059
f 2058 2059 2060 1973
f 2057 1970 1971 2061
f 1973 2060 2062 1974
f 2061 2063 2064 2065
f 1975 1979 2064 2063
f 2061 1971 1975 2063
f 2066 2067 2068 2062
f 1980 1976 2068 2067
f 1974 2062 2068 1976
f 2064 1979 1978 2069
f 1980 2067 2070 1981
f 2069 2071 2072 2073
f 1983 1987 2072 2071
f 2069 1978 1983 2071
f 2073 2072 2074 2075
f 1987 1989 2074 2072
f 2075 2074 2076 2070
f 1989 1984 2076 2074
f 1981 2070 2076 1984
f 2077 2078 2079 2080
f 2012 2011 2077 2080
f 2077 2011 2015 2078
f 2080 2079 2081 2082
f 2013 2012 2080 2082
f 2082 2081 2083 2084
f 2014 2013 2082 2084
f 2014 2084 2083 2016
f 2078 2015 2019 2085
f 2016 2083 2086 2020
f 2087 2088 2089 2085
f 2019 2018 2087 2085
f 2087 2018 2023 2088
f 2086 2090 2091 2092
f 2021 2020 2086 2092
f 2021 2092 2091 2024
f 2088 2023 2027 2093
f 2024 2091 2094 2029
f 2026 2031 2095 2027
f 2095 2031 2096 2097
f 2093 2027 2095 2097
f 2029 2098 2032 2030
f 2032 2098 2099 2100
f 2029 2094 2099 2098
f 2096 2031 2036 2101
f 2032 2100 2102 2040
f 2101 2103 2104 2105
f 2035 2106 2107 2036
f 2107 2106 2104 2103
f 2101 2036 2107 2103
f 2105 2104 2108 2109
f 2038 2110 2106 2035
f 2106 2110 2108 2104
f 2109 2108 2111 2102
f 2040 2112 2110 2038
f 2110 2112 2111 2108
f 2040 2102 2111 2112
f 2043 2042 2113 2114
f 2113 2042 2053 2115
f 2047 2043 2114 2116
f 2050 2047 2116 2117
f 2050 2117 2118 2054
f 2053 2056 2119 2115
f 2119 2056 2057 2120
f 2059 2054 2118 2121
f 2059 2121 2122 2060
f 2120 2123 2124 2125
f 2061 2065 2124 2123
f 2120 2057 2061 2123
f 2126 2127 2128 2122
f 2066 2062 2128 2127
f 2060 2122 2128 2062
f 2124 2065 2064 2129
f 2066 2127 2130 2067
f 2129 2131 2132 2133
f 2069 2073 2132 2131
f 2129 2064 2069 2131
f 2133 2132 2134 2135
f 2073 2075 2134 2132
f 2135 2134 2136 2130
f 2075 2070 2136 2134
f 2067 2130 2136 2070
f 2137 2138 2139 2140
f 2079 2078 2137 2140
f 2137 2078 2085 2138
f 2140 2139 2141 2142
f 2081 2079 2140 2142
f 2142 2141 2143 2144
f 2083 2081 2142 2144
f 2083 2144 2143 2086
f 2138 2085 2089 2145
f 2086 2143 2146 2090
f 2147 2148 2149 2145
f 2089 2088 2147 2145
f 2147 2088 2093 2148
f 2146 2150 2151 2152
f 2091 2090 2146 2152
f 2091 2152 2151 2094
f 2097 2096 2153 2154
f 2148 2093 2097 2154
f 2100 2099 2155 2156
f 2094 2151 2155 2099
f 2101 2105 2157 2158
f 2153 2096 2101 2158
f 2105 2109 2159 2157
f 2109 2102 2160 2159
f 2100 2156 2160 2102
f 2114 2113 2161 2162
f 2161 2113 2115 2163
f 2116 2114 2162 2164
f 2117 2116 2164 2165
f 2117 2165 2166 2118
f 2120 2125 2167 2168
f 2115 2119 2169 2163
f 2169 2119 2120 2168
f 2126 2122 2170 2171
f 2121 2118 2166 2172
f 2121 2172 2170 2122
f 2167 2125 2124 2173
f 2126 2171 2174 2127
f 2173 2175 2176 2177
f 2129 2133 2176 2175
f 2173 2124 2129 2175
f 2177 2176 2178 2179
f 2133 2135 2178 2176
f 2179 2178 2180 2174
f 2135 2130 2180 2178
f 2127 2174 2180 2130
f 2181 2182 2183 2184
f 2139 2138 2181 2184
f 2181 2138 2145 2182
f 2184 2183 2185 2186
f 2141 2139 2184 2186
f 2186 2185 2187 2188
f 2143 2141 2186 2188
f 2143 2188 2187 2146
f 2182 2145 2149 2189
f 2146 2187 2190 2150
f 2154 2153 2191 2192
f 2149 2148 2193 2189
f 2193 2148 2154 2192
f 2156 2155 2194 2195
f 2151 2150 2190 2196
f 2151 2196 2194 2155
f 2158 2157 2197 2198
f 2191 2153 2158 2198
f 2157 2159 2199 2197
f 2159 2160 2200 2199
f 2156 2195 2200 2160
f 2162 2161 2201 2202
f 2201 2161 2163 2203
f 2164 2162 2202 2204
f 2165 2164 2204 2205
f 2165 2205 2206 2166
f 2207 2208 2209 2203
f 2168 2167 2209 2208
f 2163 2169 2207 2203
f 2207 2169 2168 2208
f 2206 2210 2211 2212
f 2171 2170 2211 2210
f 2172 2166 2206 2212
f 2172 2212 2211 2170
f 2173 2177 2213 2214
f 2209 2167 2173 2214
f 2177 2179 2215 2213
f 2179 2174 2216 2215
f 2171 2210 2216 2174
f 2183 2182 2217 2218
f 2217 2182 2189 2219
f 2185 2183 2218 2220
f 2187 2185 2220 2221
f 2187 2221 2222 2190
f 2223 2224 2225 2219
f 2192 2191 2225 2224
f 2189 2193 2223 2219
f 2223 2193 2192 2224
f 2222 2226 2227 2228
f 2195 2194 2227 2226
f 2196 2190 2222 2228
f 2196 2228 2227 2194
f 2198 2197 2229 2230
f 2225 2191 2198 2230
f 2197 2199 2231 2229
f 2199 2200 2232 2231
f 2195 2226 2232 2200
f 2202 2201 2233 2234
f 2233 2201 2203 2235
f 2204 2202 2234 2236
f 2205 2204 2236 2237
f 2205 2237 2238 2206
f 2235 2203 2209 2239
f 2206 2238 2240 2210
f 2239 2241 2242 2243
f 2214 2213 2242 2241
f 2239 2209 2214 2241
f 2243 2242 2244 2245
f 2213 2215 2244 2242
f 2245 2244 2246 2240
f 2215 2216 2246 2244
f 2210 2240 2246 2216
f 2247 2248 2249 2250
f 2218 2217 2247 2250
f 2247 2217 2219 2248
f 2250 2249 2251 2252
f 2220 2218 2250 2252
f 2252 2251 2253 2254
f 2221 2220 2252 2254
f 2221 2254 2253 2222
f 2248 2219 2225 2255
f 2222 2253 2256 2226
f 2230 2229 2257 2258
f 2255 2225 2230 2258
f 2229 2231 2259 2257
f 2231 2232 2260 2259
f 2226 2256 2260 2232
f 2234 2233 2261 2262
f 2261 2233 2235 2263
f 2236 2234 2262 2264
f 2237 2236 2264 2265
f 2237 2265 2266 2238
f 2239 2243 2267 2268
f 2263 2235 2239 2268
f 2243 2245 2269 2267
f 2245 2240 2270 2269
f 2238 2266 2270 2240
f 2249 2248 2271 2272
f 2271 2248 2255 2273
f 2251 2249 2272 2274
f 2253 2251 2274 2275
f 2253 2275 2276 2256
f 2258 2257 2277 2278
f 2273 2255 2258 2278
f 2257 2259 2279 2277
f 2259 2260 2280 2279
f 2256 2276 2280 2260
f 2281 2282 2283 2284
f 2262 2261 2281 2284
f 2281 2261 2263 2282
f 2284 2283 2285 2286
f 2264 2262 2284 2286
f 2286 2285 2287 2288
f 2265 2264 2286 2288
f 2265 2288 2287 2266
f 2268 2267 2289 2290
f 2282 2263 2268 2290
f 2267 2269 2291 2289
f 2269 2270 2292 2291
f 2266 2287 2292 2270
f 2272 2271 2293 2294
f 2293 2271 2273 2295
f 2274 2272 2294 2296
f 2275 2274 2296 2297
f 2275 2297 2298 2276
f 2295 2299 2300 2301
f 2278 2277 2300 2299
f 2295 2273 2278 2299
f 2301 2300 2302 2303
f 2277 2279 2302 2300
f 2303 2302 2304 2298
f 2279 2280 2304 2302
f 2276 2298 2304 2280
f 2290 2289 2305 2306
f 2283 2282 2307 2308
f 2307 2282 2290 2306
f 2289 2291 2309 2305
f 2285 2283 2308 2310
f 2291 2292 2311 2309
f 2287 2285 2310 2312
f 2287 2312 2311 2292
f 2295 2301 2313 2314
f 2294 2293 2315 2316
f 2315 2293 2295 2314
f 2301 2303 2317 2313
f 2296 2294 2316 2318
f 2303 2298 2319 2317
f 2297 2296 2318 2320
f 2297 2320 2319 2298
f 2321 2322 2323 2324
f 2306 2305 2323 2322
f 2308 2307 2321 2324
f 2321 2307 2306 2322
f 2324 2323 2325 2326
f 2305 2309 2325 2323
f 2310 2308 2324 2326
f 2326 2325 2327 2328
f 2309 2311 2327 2325
f 2312 2310 2326 2328
f 2312 2328 2327 2311
f 2329 2330 2331 2332
f 2314 2313 2331 2330
f 2316 2315 2329 2332
f 2329 2315 2314 2330
f 2332 2331 2333 2334
f 2313 2317 2333 2331
f 2318 2316 2332 2334
f 2334 2333 2335 2336
f 2317 2319 2335 2333
f 2320 2318 2334 2336
f 2320 2336 2335 2319
